<svg viewBox="0 0 15 15" fill="none" xmlns="http://www.w3.org/2000/svg"><path d="M13.282 8.474c-.544-.544-.98-.98-2.067-1.088v-.109c.762-.326 1.305-.652 1.632-1.196.435-.544.543-1.088.543-1.849 0-.544-.108-1.088-.435-1.523-.326-.435-.76-.87-1.305-1.087-.543-.218-1.087-.435-1.74-.544C9.366.969 8.061.969 6.756.969H.992V15h6.743c1.088 0 2.066-.109 2.828-.217.761-.218 1.414-.435 1.957-.87.544-.327.98-.762 1.197-1.305.326-.544.435-1.088.435-1.85 0-.978-.326-1.74-.87-2.283ZM5.125 3.688h1.74c.544 0 1.087.109 1.522.218.436.217.653.544.653 1.196 0 .544-.217.87-.544 1.088-.326.217-.761.326-1.305.326H5.125V3.688Zm3.589 8.266a4.055 4.055 0 0 1-1.305.217H5.125V8.8h2.392c.544 0 .98.109 1.197.217.544.218.761.653.761 1.306.109.87-.217 1.413-.761 1.631Z"/></svg>