<svg viewBox="0 0 15 23" fill="none" xmlns="http://www.w3.org/2000/svg"><path d="M7.324 11.195c3.191 0 5.85-2.529 5.85-5.563 0-3.035-2.659-5.564-5.85-5.564s-5.85 2.53-5.85 5.564c0 3.034 2.659 5.563 5.85 5.563Zm0-8.345c1.596 0 2.925 1.264 2.925 2.782 0 1.517-1.33 2.781-2.925 2.781C5.73 8.413 4.4 7.15 4.4 5.632c0-1.518 1.33-2.782 2.925-2.782Zm6.781 9.103c-.266-.632-1.197-1.137-2.526-.252-1.596 1.264-4.255 1.264-4.255 1.264s-2.66 0-4.255-1.264c-1.196-.886-2.127-.38-2.526.252-.532 1.138.133 1.644 1.596 2.53 1.196.758 2.925 1.01 4.121 1.137l-.93.885C4 17.77 2.803 18.907 1.873 19.793c-.532.505-.532 1.264 0 1.77l.133.126c.531.506 1.33.506 1.861 0l3.457-3.287 3.457 3.287c.532.506 1.33.506 1.862 0l.132-.126c.532-.506.532-1.265 0-1.77L9.32 16.505l-.931-.885c1.063-.126 2.792-.38 4.122-1.138 1.595-.885 2.26-1.517 1.595-2.529Z"/></svg>