<svg viewBox="0 0 21 16" fill="none" xmlns="http://www.w3.org/2000/svg"><path d="M20.579 2.482c-.693.327-1.501.544-2.31.544.809-.435 1.502-1.197 1.733-2.067-.809.435-1.617.762-2.541.87-.693-.761-1.732-1.196-2.887-1.196-2.194 0-4.042 1.632-4.042 3.807 0 .327 0 .544.115.87a11.222 11.222 0 0 1-8.2-3.916c-.346.544-.577 1.197-.577 1.85 0 1.305.693 2.502 1.733 3.155-.693 0-1.27-.218-1.848-.435 0 1.849 1.386 3.372 3.234 3.698-.347.11-.693.11-1.04.11-.23 0-.462 0-.808-.11.462 1.523 1.963 2.611 3.695 2.611-1.386.98-3.118 1.632-4.966 1.632H.947c1.732 1.088 3.81 1.74 6.12 1.74 7.391 0 11.318-5.765 11.318-10.66v-.436c1.04-.652 1.616-1.305 2.194-2.067Z"/></svg>