<svg viewBox="0 0 712 713" fill="none" xmlns="http://www.w3.org/2000/svg"><g clip-path="url(#a)"><path d="M177.895 556.915c71.06-42.082 173.078 27.206 386.661 30.969 20.485.347 41.548.405 60.702-7.062 20.947-8.162 38.076-24.833 51.153-43.762 34.951-50.476 43.226-118.086 28.875-178.576-14.35-60.49-49.649-114.034-93.569-156.175-25.056-24.08-53.41-45.208-72.622-74.556-17.244-26.28-26.445-58.175-46.871-81.85C458.256 6.773 402.416-.347 351.841 0c-33.505.289-68.34 3.068-97.389 20.491-42.531 25.528-63.652 76.235-90.387 119.186-21.526 34.558-47.913 65.411-71.58 98.347C64.42 277.097 40.29 319.18 20.5 363.404 8.695 389.8 4.645 403.866 2.272 423.316c-6.481 54.412 11.11 125.611 58.792 151.312 9.374 5.094 17.533 7.178 20.485 7.757 41.142 7.235 96.346-25.47 96.346-25.47Z" fill="#F90"/></g><path d="M387.467 514.821c.261 5.277 4.697 9.353 9.863 9.091 5.166-.261 9.132-4.754 8.819-10.084-.261-5.277-4.697-9.352-9.863-9.091-5.114.261-9.08 4.807-8.819 10.084ZM547.884 541.714c5.266-.28 9.3-4.968 9.009-10.471-.291-5.504-4.796-9.739-10.063-9.46-5.267.279-9.301 4.967-9.01 10.471.291 5.503 4.797 9.739 10.064 9.46Z" fill="#1A1A1A"/><path d="M548.037 522.136h.522c3.757-.261 6.628-3.553 6.315-7.315a46.733 46.733 0 0 0-2.662-12.592c-.104-.366-3.183-8.621-9.654-15.675-38.355-41.799-82.816-40.597-84.643-40.492h-.104c-13.098.731-27.762 4.493-39.138 9.979-15.29 7.42-24.944 17.765-27.918 29.991-.94 3.762-1.201 7.785-.835 11.86.313 3.762 3.653 6.532 7.41 6.218 3.757-.366 6.523-3.657 6.21-7.419-.209-2.613-.053-5.068.469-7.42 4.436-18.443 34.494-28.318 54.428-29.52.679 0 10.541-.157 24.266 4.075 18.838 5.748 35.589 16.563 49.784 32.029 4.592 5.016 6.836 11.024 6.888 11.076a31.712 31.712 0 0 1 1.878 8.883c.209 3.553 3.236 6.322 6.784 6.322Z" fill="#1A1A1A"/><path d="M604.083 225.885c-.835-11.181-3.548-25.81-12.785-35.006-10.28-10.241-25.674-8.308-34.963-7.942-68.727 2.821-92.836-28.685-116.684-10.816-9.236 6.95-12.628 25.028-19.412 61.236-8.715 46.606-8.924 68.707-5.219 89.607 4.175 23.355 55.42 63.325 72.014 56.689 6.367-2.56 38.721 5.957 65.074-18.339 12.733-11.704 18.525-25.079 27.71-46.658 8.14-19.123 18.577-48.853 24.265-88.771Z" stroke="#1A1A1A" stroke-width="3.626" stroke-miterlimit="10"/><path d="M574.286 195.79c1.566.261 3.027 1.15 4.227 2.299a13.727 13.727 0 0 1 2.974 4.232 22.05 22.05 0 0 1 1.618 5.173c.365 1.828.574 3.657.731 5.538.156 1.881.208 3.762.261 5.643.052.94.052 1.881.052 2.821 0 .941.052 1.881 0 2.822l-.052 2.821-.157 4.232-.313 4.233s-.365 3.761-.417 4.232c0 0-.418 3.239-.574 4.18l-.47 2.769c-.157.94-.313 1.828-.47 2.769-.156.94-.313 1.829-.522 2.769-.417 1.829-.782 3.658-1.252 5.486-1.826 7.263-4.175 14.264-6.94 21.109 3.287-6.479 5.948-13.48 7.984-20.691a126.593 126.593 0 0 0 2.504-11.076l.47-2.822c.157-.94.261-1.881.418-2.821l.208-1.411.157-1.411.313-2.821.313-4.285.157-4.284v-2.874c0-.94 0-1.933-.053-2.873-.052-.941-.052-1.934-.104-2.874-.104-1.933-.209-3.814-.417-5.695-.209-1.881-.47-3.814-.888-5.695-.469-1.881-1.043-3.658-1.93-5.33-.887-1.619-1.983-3.082-3.34-4.18-.678-.522-1.357-.992-2.14-1.306-.73-.418-1.513-.627-2.348-.679Z" fill="#1A1A1A"/><path d="M565.363 211.36c-.261.418-.418.889-.522 1.359-.052.261-.105.47-.157.731-.052.262-.104.471-.104.732a28.291 28.291 0 0 0-.157 2.978c0 .993.053 1.985.105 2.926.052.993.104 1.933.156 2.874l.052.992.783-.209c.783-.209 1.566-.418 2.348-.574.783-.157 1.566-.314 2.349-.418.782-.105 1.617-.209 2.4-.314.783-.104 1.618-.157 2.453-.209-.783-.313-1.618-.47-2.453-.627-.835-.104-1.67-.209-2.505-.209s-1.67.052-2.505.157c-.834.104-1.669.313-2.452.522l.835.784a50.992 50.992 0 0 0-.261-2.926l-.313-2.874c-.105-.94-.209-1.933-.209-2.873 0-.941-.052-1.881.157-2.822ZM569.485 265.49a1.49 1.49 0 0 0-.678-.627 1.6 1.6 0 0 0-.679-.157 1.6 1.6 0 0 0-.678.157c-.209.104-.47.313-.679.679.209.366.47.523.679.679a1.6 1.6 0 0 0 .678.157 1.6 1.6 0 0 0 .679-.157c.208-.209.469-.365.678-.731ZM563.38 290.465c.156-.68.104-1.359 0-2.038-.105-.627-.314-1.254-.522-1.881-.261-.575-.574-1.149-.992-1.62-.365-.47-.835-.888-1.409-1.149.105.679.313 1.306.522 1.881.209.575.418 1.097.626 1.62.209.522.47 1.044.783 1.567.261.575.574 1.097.992 1.62Z" fill="#1A1A1A"/><path d="M562.91 224.056c0 1.254.783 2.299 1.722 2.299s1.722-1.045 1.722-2.299-.783-2.299-1.722-2.299-1.722.993-1.722 2.299Z" fill="#1A1A1A"/><path d="M555.187 183.355c4.748-5.277 18.473-21.892 19.412-44.986.209-4.859.418-12.906-3.444-20.848-3.653-7.471-9.341-11.547-15.916-14.995-5.427-2.821-21.343-10.397-62.308-9.144-17.064.523-24.787 2.143-30.789 9.144-4.957 5.8-6.679 12.801-7.618 16.667-4.28 17.295.887 32.656 3.131 38.351l97.532 25.811Z" stroke="#1A1A1A" stroke-width="3.626" stroke-miterlimit="10"/><path d="M518.71 101.69c6.68.993 13.359 1.776 19.673 4.337 3.131 1.254 6.158 2.978 8.872 5.224a28.032 28.032 0 0 1 6.836 8.308c1.774 3.292 2.818 7.054 3.34 10.972.521 3.919.469 7.89.104 11.861-.157 1.985-.47 3.971-.783 5.904a66.894 66.894 0 0 1-1.2 5.799c-.992 3.815-2.505 7.472-4.853 10.398a21.144 21.144 0 0 0 3.235-4.65c.887-1.724 1.618-3.605 2.244-5.486 1.2-3.814 1.931-7.838 2.401-11.861.261-2.038.365-4.075.417-6.113 0-2.038-.052-4.128-.313-6.165-.261-2.038-.626-4.076-1.2-6.009-.574-1.985-1.305-3.866-2.244-5.59-1.879-3.501-4.436-6.427-7.254-8.726-2.87-2.299-6.001-3.971-9.236-5.173-3.236-1.201-6.576-1.881-9.968-2.351-3.339-.313-6.731-.522-10.071-.679ZM533.061 140.458c1.527 0 2.765-1.497 2.765-3.344 0-1.846-1.238-3.343-2.765-3.343-1.528 0-2.766 1.497-2.766 3.343 0 1.847 1.238 3.344 2.766 3.344Z" fill="#1A1A1A"/><path d="M533.374 135.025c.522-1.307.939-2.561 1.409-3.814a75.504 75.504 0 0 1 1.461-3.658c.522-1.202 1.044-2.403 1.618-3.553.574-1.202 1.148-2.351 1.722-3.605-.992.784-1.879 1.776-2.61 2.874-.782 1.097-1.408 2.299-1.93 3.553a24.075 24.075 0 0 0-1.253 4.023 15.811 15.811 0 0 0-.417 4.18ZM535.461 138.316c.939.418 1.827.732 2.766 1.045l5.427 1.777c.939.261 1.826.574 2.818.783-.731-.836-1.566-1.463-2.401-1.985a14.055 14.055 0 0 0-2.713-1.254c-.939-.314-1.931-.523-2.87-.575-1.044-.104-2.035-.052-3.027.209ZM532.069 140.458c-.417.418-.73.836-.991 1.359-.261.47-.418.993-.574 1.515a8.053 8.053 0 0 0-.313 1.62 6.753 6.753 0 0 0 .052 1.776c.417-.418.73-.836.991-1.358.261-.47.418-.993.574-1.515a8.053 8.053 0 0 0 .313-1.62c.052-.575.105-1.15-.052-1.777ZM530.608 136.227c-.574-.314-1.2-.418-1.774-.523a9.642 9.642 0 0 0-1.722-.157c-.574 0-1.148 0-1.723.105-.574.052-1.148.209-1.774.47a4.574 4.574 0 0 0 1.67.836 6.609 6.609 0 0 0 1.774.261c.574 0 1.201-.052 1.775-.209.626-.156 1.2-.365 1.774-.783ZM510.882 130.27c.783.261 1.514.418 2.244.523.731.104 1.462.209 2.192.261l2.192.157c.73 0 1.513.052 2.296-.053a6.257 6.257 0 0 0-2.14-1.201c-.73-.262-1.513-.471-2.296-.523-.783-.052-1.565-.052-2.296.052a6.56 6.56 0 0 0-2.192.784ZM509.526 133.144c-.47.574-.783 1.306-.992 1.985-.209.731-.365 1.463-.417 2.247-.053.783-.053 1.515.052 2.299.104.783.313 1.515.678 2.194.209-.784.313-1.515.418-2.194.104-.732.156-1.411.208-2.143.053-.679.105-1.41.105-2.142.052-.679.052-1.41-.052-2.246ZM510.621 129.8c.261-.784.522-1.463.731-2.142.261-.68.522-1.307.783-1.934s.574-1.201.887-1.828c.313-.627.678-1.202 1.044-1.934-.679.157-1.305.523-1.827 1.045a6.303 6.303 0 0 0-1.304 1.934 9.194 9.194 0 0 0-.627 2.351c-.052.888 0 1.776.313 2.508ZM412.672 460.795h-2.818V713h2.818V460.795ZM582.792 390.834h-2.557v210.563h2.557V390.834Z" fill="#1A1A1A"/><path d="m412.254 603.696-2.244-1.097 89.392-154.657 2.244 1.098-89.392 154.656ZM580.444 535.093l-65.178-110.767 2.192-1.306 65.178 110.767-2.192 1.306ZM45.818 343.602H43.26v206.33h2.557v-206.33ZM221.261 306.818h-2.557v206.331h2.557V306.818Z" fill="#1A1A1A"/><path d="m45.661 500.975-2.296-1.202 89.391-169.024 2.296 1.201-89.39 169.025Z" fill="#1A1A1A"/><path d="M508.065 170.292a66.994 66.994 0 0 0-13.568-2.508c-3.758-13.323-5.949-23.093-7.202-30.617-.313-1.934-.939-5.957-3.705-7.315-5.636-2.769-15.603 7.262-18.943 10.763 4.436 12.279 4.749 22.101 4.071 29.05-5.584 1.15-11.585 2.822-18.056 5.121-54.428 19.332 44.461 69.177 44.461 69.177l32.25-62.803c-.052 0-6.001-6.897-19.308-10.868ZM421.021 296.368 400.2 285.135l15.394-52.092 23.901 9.979-18.474 53.346Z" fill="#FFDEAD" stroke="#26241B" stroke-width="3.626" stroke-miterlimit="10"/><path d="M457.185 171.808a52.096 52.096 0 0 1 2.974-.105c-.313 1.045-3.392 11.547 1.462 15.466 2.244 1.776 5.322 1.515 7.984 1.045 13.568-2.456 30.006-13.585 36.79-18.496 2.87.627 30.319 7.21 41.851 33.857 9.028 20.899 4.645 45.822-11.271 63.534-2.349 7.942-5.375 20.482-6.263 36.209-1.095 18.6 1.827 23.668-1.304 37.932-.992 4.598-6.889 31.141-22.805 34.85-2.818.68-6.053-.313-12.628-1.567-10.907-2.09-21.448-6.166-41.278-14.055-6.419-2.56-20.352-4.807-20.352-4.807-8.453-23.198-7.358-39.239-4.487-49.845.887-3.344 2.035-6.322 3.391-12.644 3.027-13.899-.313-37.254-.313-37.254l-20.873-3.971c-4.227-.783-6.784-5.068-5.532-9.195 2.088-6.793 5.114-16.668 7.41-23.512 9.759-29.521 11.116-31.977 21.709-39.762 3.862-2.717 11.272-7.001 23.535-7.68Z" fill="#fff"/><path d="M509.63 177.085c-2.505 0-3.809-1.986-3.809-3.919s1.304-3.918 3.809-3.918 3.809 1.985 3.809 3.918c0 .993-.313 1.933-.939 2.665a3.857 3.857 0 0 1-2.87 1.254Zm0-5.956c-1.513 0-1.931 1.253-1.931 2.037 0 .732.418 2.038 1.931 2.038.626 0 1.096-.209 1.409-.575.313-.366.47-.888.47-1.411 0-.836-.366-2.089-1.879-2.089ZM478.841 209.845c-2.504 0-3.809-1.986-3.809-3.919 0-.993.313-1.933.939-2.665.679-.836 1.722-1.254 2.87-1.254 2.505 0 3.81 1.986 3.81 3.919 0 .993-.313 1.933-.94 2.665-.678.783-1.722 1.254-2.87 1.254Zm0-5.957c-1.513 0-1.93 1.254-1.93 2.038 0 .731.417 2.038 1.93 2.038.627 0 1.096-.209 1.409-.575.313-.366.47-.888.47-1.411.052-.783-.365-2.09-1.879-2.09ZM493.244 232.678c-2.505 0-3.809-1.986-3.809-3.919s1.304-3.919 3.809-3.919 3.81 1.986 3.81 3.919c0 .993-.314 1.933-.94 2.665-.73.836-1.722 1.254-2.87 1.254Zm0-5.904c-1.513 0-1.931 1.253-1.931 2.037 0 .523.157 1.045.47 1.411.365.418.835.575 1.409.575.626 0 1.096-.209 1.409-.575.313-.366.47-.888.47-1.411.104-.784-.314-2.037-1.827-2.037ZM481.346 267.945c-2.505 0-3.809-1.985-3.809-3.918 0-.993.313-1.934.939-2.665.678-.836 1.722-1.254 2.87-1.254 2.505 0 3.81 1.985 3.81 3.919 0 .992-.314 1.933-.94 2.664-.73.836-1.722 1.254-2.87 1.254Zm0-5.956c-1.513 0-1.931 1.254-1.931 2.038 0 .731.418 2.037 1.931 2.037.626 0 1.096-.209 1.409-.574.313-.366.47-.889.47-1.411.052-.784-.366-2.09-1.879-2.09ZM465.482 238.634c-2.505 0-3.809-1.985-3.809-3.918 0-.993.313-1.934.939-2.665.678-.836 1.722-1.254 2.87-1.254 2.505 0 3.81 1.985 3.81 3.919 0 1.985-1.305 3.918-3.81 3.918Zm0-5.904c-1.513 0-1.931 1.254-1.931 2.038 0 .731.418 2.037 1.931 2.037 1.514 0 1.931-1.253 1.931-2.037-.052-.784-.417-2.038-1.931-2.038ZM434.224 236.178c-2.505 0-3.81-1.985-3.81-3.919 0-1.933 1.305-3.918 3.81-3.918s3.809 1.985 3.809 3.918c0 .993-.313 1.934-.939 2.665a3.858 3.858 0 0 1-2.87 1.254Zm0-5.956c-1.513 0-1.931 1.254-1.931 2.037 0 .523.157 1.045.47 1.411.365.418.835.575 1.409.575.626 0 1.096-.209 1.409-.575.313-.366.469-.888.469-1.411.105-.783-.313-2.037-1.826-2.037ZM449.566 206.867c-2.505 0-3.809-1.986-3.809-3.919s1.304-3.919 3.809-3.919 3.81 1.986 3.81 3.919c0 .993-.314 1.933-.94 2.665-.678.783-1.67 1.254-2.87 1.254Zm0-5.957c-1.513 0-1.931 1.254-1.931 2.038 0 .731.418 2.038 1.931 2.038.626 0 1.096-.209 1.409-.575.313-.366.47-.888.47-1.411.052-.784-.313-2.09-1.879-2.09ZM438.19 186.49c-2.505 0-3.81-1.986-3.81-3.919 0-.993.314-1.933.94-2.665.678-.836 1.722-1.254 2.87-1.254 2.505 0 3.809 1.986 3.809 3.919 0 .993-.313 1.933-.939 2.665-.731.836-1.722 1.254-2.87 1.254Zm0-5.904c-1.513 0-1.931 1.254-1.931 2.037 0 .732.418 2.038 1.931 2.038.626 0 1.096-.209 1.409-.575.313-.366.47-.888.47-1.411.052-.835-.366-2.089-1.879-2.089ZM416.377 209.374c-2.505 0-3.809-1.985-3.809-3.918s1.304-3.919 3.809-3.919 3.809 1.986 3.809 3.919c0 .992-.313 1.933-.939 2.664a3.857 3.857 0 0 1-2.87 1.254Zm0-5.956c-1.513 0-1.931 1.254-1.931 2.038 0 .522.157 1.045.47 1.41.365.418.835.575 1.409.575.626 0 1.096-.209 1.409-.575.313-.365.469-.888.469-1.41.053-.784-.313-2.038-1.826-2.038ZM437.668 272.439c-2.505 0-3.809-1.986-3.809-3.919 0-.993.313-1.933.939-2.664.678-.836 1.722-1.254 2.87-1.254 2.505 0 3.81 1.985 3.81 3.918 0 .993-.314 1.933-.94 2.665-.678.784-1.722 1.254-2.87 1.254Zm0-5.956c-1.513 0-1.931 1.253-1.931 2.037 0 .732.418 2.038 1.931 2.038.626 0 1.096-.209 1.409-.575.313-.366.47-.888.47-1.411.052-.836-.366-2.089-1.879-2.089ZM460.525 289.315c-2.505 0-3.81-1.985-3.81-3.918 0-.993.313-1.934.94-2.665.678-.836 1.722-1.254 2.87-1.254 2.505 0 3.809 1.985 3.809 3.919 0 .992-.313 1.933-.939 2.664a3.858 3.858 0 0 1-2.87 1.254Zm0-5.956c-1.514 0-1.931 1.254-1.931 2.038 0 .731.417 2.037 1.931 2.037.626 0 1.096-.209 1.409-.574.313-.366.469-.889.469-1.411 0-.836-.365-2.09-1.878-2.09ZM490.27 302.221c-2.505 0-3.81-1.986-3.81-3.919s1.305-3.919 3.81-3.919c2.504 0 3.809 1.986 3.809 3.919 0 .993-.313 1.933-.939 2.665a3.862 3.862 0 0 1-2.87 1.254Zm0-5.957c-1.514 0-1.931 1.254-1.931 2.038 0 .731.417 2.038 1.931 2.038.626 0 1.096-.209 1.409-.575.313-.366.469-.888.469-1.411.052-.836-.365-2.09-1.878-2.09ZM511.613 297.727c-2.505 0-3.81-1.985-3.81-3.918s1.305-3.919 3.81-3.919 3.809 1.986 3.809 3.919c0 .993-.313 1.933-.939 2.664-.731.836-1.722 1.254-2.87 1.254Zm0-5.904c-1.513 0-1.931 1.254-1.931 2.038 0 .523.157 1.045.47 1.411.365.418.835.574 1.409.574.626 0 1.096-.209 1.409-.574.313-.366.469-.888.469-1.411.053-.784-.313-2.038-1.826-2.038ZM455.045 313.611c-2.504 0-3.809-1.986-3.809-3.919s1.305-3.919 3.809-3.919c2.505 0 3.81 1.986 3.81 3.919 0 .993-.313 1.933-.939 2.665-.679.836-1.723 1.254-2.871 1.254Zm0-5.904c-1.513 0-1.93 1.254-1.93 2.037 0 .523.156 1.045.469 1.411.366.418.835.575 1.409.575.626 0 1.096-.209 1.409-.575.313-.366.47-.888.47-1.411.104-.783-.313-2.037-1.827-2.037ZM433.232 293.286c-2.504 0-3.809-1.985-3.809-3.919 0-1.933 1.305-3.918 3.809-3.918 2.505 0 3.81 1.985 3.81 3.918 0 .993-.313 1.934-.939 2.665a3.859 3.859 0 0 1-2.871 1.254Zm0-5.956c-1.513 0-1.93 1.254-1.93 2.037 0 .523.156 1.045.469 1.411.366.418.835.575 1.409.575.626 0 1.096-.209 1.409-.575.313-.366.47-.888.47-1.411.104-.783-.313-2.037-1.827-2.037ZM418.83 239.626c-2.505 0-3.81-1.985-3.81-3.918 0-.993.313-1.933.939-2.665.679-.836 1.723-1.254 2.871-1.254 2.504 0 3.809 1.986 3.809 3.919 0 .992-.313 1.933-.939 2.664-.679.836-1.722 1.254-2.87 1.254Zm0-5.904c-1.514 0-1.931 1.254-1.931 2.038 0 .731.417 2.038 1.931 2.038.626 0 1.095-.209 1.409-.575.313-.366.469-.888.469-1.411.052-.836-.365-2.09-1.878-2.09Z" fill="#26241B"/><path d="M457.185 171.808a52.096 52.096 0 0 1 2.974-.105c-.313 1.045-3.392 11.547 1.462 15.466 2.244 1.776 5.322 1.515 7.984 1.045 13.568-2.456 30.006-13.585 36.79-18.496 2.87.627 30.319 7.21 41.851 33.857 9.028 20.899 4.645 45.822-11.271 63.534-2.349 7.942-5.375 20.482-6.263 36.209-1.095 18.6 1.827 23.668-1.304 37.932-.992 4.598-6.889 31.141-22.805 34.85-2.818.68-6.053-.313-12.628-1.567-10.907-2.09-21.448-6.166-41.278-14.055-6.419-2.56-20.352-4.807-20.352-4.807-8.453-23.198-7.358-39.239-4.487-49.845.887-3.344 2.035-6.322 3.391-12.644 3.027-13.899-.313-37.254-.313-37.254l-20.873-3.971c-4.227-.783-6.784-5.068-5.532-9.195 2.088-6.793 5.114-16.668 7.41-23.512 9.759-29.521 11.116-31.977 21.709-39.762 3.862-2.717 11.272-7.001 23.535-7.68Z" stroke="#26241B" stroke-width="3.626" stroke-miterlimit="10"/><path d="M536.975 267.109c16.594-23.303 21.552-48.173 11.271-63.534-4.279-6.374-13.828-14.63-22.282-12.592-7.254 1.776-10.541 10.398-14.821 21.631-3.444 8.935-5.009 18.914-7.984 38.455-2.4 15.518-3.548 23.303-3.966 31.767-.365 8.047 0 10.137-.522 12.017 0 0-.261.732-.574 1.463-2.191 4.912-17.377 19.019-43.312 18.862-14.873-.052-23.64-4.754-27.397 0-2.348 2.978-1.253 7.785 0 11.338 13.15 3.344 39.451 9.98 39.451 9.98l64.03-5.852c.365-7.733-.939-14.16-.157-27.378a166.21 166.21 0 0 1 6.263-36.157ZM424.309 223.168c-6.575 10.972-10.959 18.496-10.176 28.58.052.366.052.732.104 1.097l16.438 3.135c-.313-9.77-1.252-13.637.157-19.906 1.252-5.434 2.87-6.636 7.567-15.362 3.548-6.635 8.245-16.458 12.419-29.468-13.254 11.861-21.499 23.564-26.509 31.924Z" fill="#26241B"/><path d="M509.787 356.246c4.122 10.606 27.814 7.733 52.914-6.427 18.839-10.659 41.33-31.558 37.886-44.934-2.087-8.203-13.15-10.606-15.186-11.077-8.558-1.88-18.108.784-37.729 17.504-17.586 15.047-41.538 35.477-37.885 44.934Z" fill="#1A1A1A"/><path d="M580.235 297.675c-2.035 1.724-4.018 3.448-6.105 5.12-.522.418-1.044.784-1.566 1.202 0 0-2.609 1.985-3.131 2.351l-3.183 2.247c-.522.366-4.332 2.821-4.853 3.135-2.192 1.358-4.436 2.612-6.68 3.918 2.453-.627 4.801-1.567 7.149-2.717.574-.313 1.148-.574 1.722-.888l1.67-.94c.574-.366 1.096-.679 1.67-1.045l1.618-1.097 1.618-1.202 1.565-1.254 1.513-1.306c.522-.471.992-.889 1.514-1.359a47.617 47.617 0 0 0 5.479-6.165ZM595.055 307.445c-1.93 2.299-12.993 15.414-12.993 15.414s-8.506 9.3-10.489 11.494c2.348-1.672 4.592-3.553 6.731-5.538a59.804 59.804 0 0 0 3.183-3.135l3.027-3.292s2.401-2.873 2.87-3.5l1.409-1.777c.47-.627.887-1.201 1.357-1.828 1.774-2.508 3.444-5.121 4.905-7.838Z" fill="#FFDEAD"/><path d="M508.273 128.441c-.939-2.926.731-4.755-3.601-7.733l-.469-.313c.991-1.045 2.244-1.933 2.505-3.762.365-2.978-1.514-3.396-1.514-7.524 0-2.926.94-3.448.626-6.374-.208-1.724-.521-1.672-1.409-4.86-1.409-5.172-.521-5.276-1.774-7.837-.991-2.037-1.931-2.821-2.087-4.859-.105-1.358.209-1.62-.052-2.717-.418-1.62-1.722-3.135-3.34-3.918-2.348-1.15-3.81-.157-5.062-1.411-.939-.94-.47-1.881-1.096-3.396-.887-1.986-2.87-3.03-4.696-3.867-10.542-5.016-19.204-4.44-19.204-4.44-2.14 1.671-4.018 2.298-5.375 2.56-3.027.626-4.175-.366-7.358.522-2.14.627-2.14 1.202-4.488 1.776-2.609.68-3.392.105-5.27.47-3.653.68-7.306 3.867-7.463 6.897-.156 2.56 2.192 4.598 3.288 5.539 12.628 10.71 40.495 26.96 48.427 36.26-2.505 5.016-4.958 15.884-4.958 15.884s-3.861 5.643 1.566 8.412c5.427 2.769 8.297 4.493 11.011 2.717 2.661-1.777 7.566-2.351 8.297-6.322.73-3.971-.731-6.009 1.148-7.785 1.67-1.724 3.287-.993 2.348-3.919Z" fill="#1A1A1A"/><path d="M476.023 160.052a23.931 23.931 0 0 1-7.41 5.695c-1.304.627-2.557 1.045-3.653 1.411-.521.104-1.096.156-1.67.104 0 0-.939 0-1.826-.157-11.637-1.933-20.508-18.914-20.508-18.914-2.662-5.12-2.975-7.471-5.584-15.465-2.14-6.427-5.584-15.832-10.907-27.117.418-.523 4.906-5.539 9.498-10.555 2.139-1.828 15.603-13.166 30.319-9.509 18.63 4.65 24.527 29.677 23.744 44.568-.105 1.62-.261 3.24-.522 4.755-.052.575-.104 1.149-.104 1.724.26 20.22-1.201 30.618-4.436 31.193-1.827.313-4.123-2.247-6.941-7.733Z" fill="#FFDEAD"/><path d="M463.395 168.15h-.105c-.052 0-.991 0-1.983-.156-5.061-.836-10.175-4.389-15.185-10.502-3.705-4.494-5.897-8.674-6.001-8.883-1.931-3.709-2.662-6.061-3.862-9.927a160.39 160.39 0 0 0-1.826-5.695c-2.975-8.987-6.628-18.078-10.855-27.013l-.261-.574 10.02-11.13c3.653-3.186 16.803-13.323 31.154-9.718 19.308 4.807 25.257 30.461 24.474 45.509-.104 1.62-.261 3.239-.522 4.807-.052.575-.052 1.149-.104 1.724a.942.942 0 0 1-1.044.836.943.943 0 0 1-.835-1.045c.052-.575.105-1.097.105-1.672v-.104c.261-1.516.417-3.083.469-4.65.418-8.413-1.252-18.026-4.54-25.707-2.87-6.792-8.454-15.361-18.525-17.921-3.392-.836-15.603-2.717-29.432 9.248a1104.935 1104.935 0 0 0-9.08 10.032c4.175 8.83 7.775 17.816 10.698 26.646.782 2.299 1.304 4.128 1.826 5.748 1.2 3.866 1.879 6.008 3.705 9.561.105.157 8.767 16.563 19.83 18.392.835.157 1.67.157 1.67.157.522 0 1.044-.053 1.513-.105 0 0 1.723-.313 3.34-1.254 2.557-1.463 4.958-3.344 7.254-5.538a.976.976 0 0 1 1.357 0 .979.979 0 0 1 0 1.358 41.475 41.475 0 0 1-7.619 5.8c-1.983 1.149-3.914 1.463-3.966 1.515-.522.261-1.096.261-1.67.261Z" fill="#1A1A1A"/><path d="M486.982 127.605s-4.54 20.69 2.505 17.19c7.045-3.501-2.505-17.19-2.505-17.19ZM439.338 134.084c.731 1.985 2.348 3.239 3.601 2.769 1.252-.47 1.722-2.456.991-4.493-.73-1.986-2.348-3.24-3.601-2.769-1.304.47-1.722 2.508-.991 4.493ZM465.534 127.344c.366 2.194-.574 4.232-2.087 4.493-1.513.262-3.027-1.358-3.392-3.552-.365-2.195.574-4.233 2.087-4.494 1.462-.261 3.027 1.306 3.392 3.553Z" fill="#1A1A1A"/><path d="M487.243 126.665c2.401-.523 3.549-4.389 2.661-8.621-.887-4.285-3.548-7.315-5.949-6.793-1.252.262-2.191 1.463-2.609 3.135 0 0 3.549 12.801 5.897 12.279Z" fill="#FFDEAD"/><path d="M487.243 127.605c-.417 0-.835-.313-.939-.731-.105-.523.208-.993.73-1.15 1.618-.365 2.766-3.5 1.931-7.523-.417-1.881-1.2-3.606-2.192-4.755-.887-.993-1.826-1.463-2.609-1.306-.835.156-1.513 1.097-1.931 2.455a.98.98 0 0 1-1.148.68.98.98 0 0 1-.678-1.15c.574-2.09 1.774-3.501 3.34-3.814 1.513-.313 3.079.366 4.435 1.933 1.253 1.411 2.14 3.396 2.61 5.591 1.043 4.859-.47 9.143-3.392 9.77h-.157Z" fill="#1A1A1A"/><path d="M484.947 118.566c.261.262.417.575.574.889.156.313.261.627.313.888v.47c0 .157 0 .314.052.418.105.157.157.261.261.418.104.157.261.314.47.523.052.052.104.052.156 0 .47-.314.679-.784.731-1.202.052-.47-.261-.836-.522-1.202-.209-.366-.522-.679-.887-.94-.365-.262-.731-.418-1.096-.471-.052 0-.104 0-.104.053 0 .104 0 .156.052.156ZM486.93 113.655c-.522-.209-1.148-.209-1.722 0-.574.209-1.044.679-1.357 1.202-.313.574-.365 1.149-.365 1.724.052.261.104.574.156.836l.313.783c.105-.261.157-.522.209-.783.052-.262.104-.523.157-.732.156-.47.261-.94.469-1.306.209-.366.47-.679.835-.993a6.137 6.137 0 0 1 1.305-.731ZM446.748 127.344c.678 1.933 1.305 3.814 1.722 5.695.418 1.881.626 3.762.679 5.695v1.411c0 .47-.053.94-.053 1.515s0 1.149.209 1.829c.105.313.261.627.47.94.209.261.469.523.73.732 1.096.783 2.401.836 3.497.522 1.096-.313 1.93-.888 2.765-1.515-.991.209-1.983.418-2.922.418-.47 0-.887-.052-1.252-.209-.366-.157-.731-.366-.94-.575-.208-.261-.365-.522-.417-.836a4.231 4.231 0 0 1 0-1.149c.052-.418.104-.941.156-1.516 0-.261.053-.522.053-.783v-.784a19.037 19.037 0 0 0-1.201-6.165c-.835-1.986-1.983-3.815-3.496-5.225Z" fill="#1A1A1A"/><path d="M495.227 112.139c-8.454 3.397-15.394 4.128-20.091 4.18-10.802.157-30.893-2.926-42.165-9.195-1.2-.68-4.592-2.613-6.105-1.568-1.357.941-.678 3.814-.157 5.643 1.983 6.479 9.133 18.391 7.828 20.116-.365.156-1.461-4.859-6.262-9.248-2.505-1.881-4.488-4.598-3.549-8.203.105-7.733-7.097-8.151-4.227-15.048 1.096-4.755 1.253-4.284 3.184-7.367 2.139-4.493.782-12.174 8.454-12.958 3.705-4.127 2.296-5.486 10.123-5.747 11.689-1.515 13.516-2.456 24.892-1.829 12.681 3.396 9.289 5.382 15.186 14.42-.261 3.136-.574 11.496 5.166 19.437a31.847 31.847 0 0 0 7.723 7.367Z" fill="#1A1A1A"/><path d="M425.927 91.292c.991-1.254 2.139-2.508 3.705-3.24a5.495 5.495 0 0 1 1.252-.313c.47 0 .887 0 1.357.157.887.261 1.618.888 2.192 1.515 1.096 1.359 1.67 2.874 2.765 3.867 1.044.992 2.401 1.724 3.81 2.09 1.409.313 2.922.26 4.279-.21.678-.26 1.252-.574 1.931-1.044.678-.418 1.461-.993 2.505-1.202a5.51 5.51 0 0 1 2.922.209c.939.313 1.774.94 2.4 1.724.627.836.94 1.724 1.201 2.456.261.731.574 1.306.991 1.776a5.528 5.528 0 0 0 3.496 1.881c.679.105 1.357.052 2.036-.104.626-.157 1.2-.471 1.878-.888.626-.418 1.305-.941 2.035-1.359.731-.418 1.723-.888 2.818-.836 1.096.052 2.14.68 2.714 1.463.626.784.939 1.567 1.305 2.299.365.731.626 1.411 1.095 1.985.418.575.992 1.098 1.566 1.516 1.2.836 2.661 1.358 4.175 1.358a8.31 8.31 0 0 0 2.244-.313c.782-.209 1.513-.471 2.348-.68.835-.156 1.722-.156 2.505.105.782.261 1.513.836 1.722 1.672-.313-.732-1.096-1.202-1.827-1.359-.782-.156-1.513-.104-2.296.157-.73.261-1.461.575-2.244.888a7.941 7.941 0 0 1-2.504.575c-1.723.105-3.497-.366-4.958-1.254a10.47 10.47 0 0 1-2.035-1.724c-.574-.679-.992-1.515-1.357-2.195-.365-.731-.731-1.41-1.148-1.881-.417-.47-.887-.731-1.461-.731-.522 0-1.096.209-1.722.627-.626.366-1.253.888-1.931 1.358-.678.471-1.566.993-2.453 1.202a6.44 6.44 0 0 1-2.818.157 7.548 7.548 0 0 1-4.853-2.56c-.626-.732-1.043-1.672-1.357-2.456-.26-.784-.521-1.463-.887-1.933-.73-.94-2.087-1.463-3.287-1.254-.574.104-1.148.418-1.879.836-.678.418-1.513.888-2.4 1.15-.888.26-1.775.417-2.662.417s-1.774-.104-2.609-.365c-1.67-.47-3.288-1.411-4.436-2.717-1.2-1.359-1.722-2.979-2.557-4.233-.417-.627-.939-1.097-1.617-1.41-.313-.157-.679-.21-1.044-.21s-.731.053-1.096.157c-1.357.68-2.661 1.777-3.809 2.874ZM492.67 135.233c.418.941.679 1.881 1.044 2.613.365.784.73 1.306 1.252 1.672.522.366 1.148.575 2.035.627.835.104 1.775.052 2.818.157a5.657 5.657 0 0 1-2.661 1.515c-.522.156-1.096.156-1.67.104-.574-.052-1.2-.313-1.722-.679a3.86 3.86 0 0 1-1.2-1.411 4.754 4.754 0 0 1-.47-1.619c-.104-1.045.105-2.038.574-2.979Z" fill="#fff"/><path d="M457.446 154.931c-2.401.732-5.532.471-5.949-.627 0-.052-.052-.104-.052-.156a23.29 23.29 0 0 0 5.583-1.307c2.453-.888 4.384-1.985 5.741-2.978.052.053.052.105.104.157.47 1.254-2.296 3.971-5.427 4.911ZM449.149 117.626l1.356 3.971s13.151-5.957 17.482-3.971c-.052 0-5.218-6.218-18.838 0ZM438.033 120.395c-2.4.888-4.383 1.881-6.001 2.926.47 1.306.94 2.56 1.409 3.71 3.392-1.725 6.523-2.874 6.523-2.874l-1.931-3.762Z" fill="#1A1A1A"/><path d="M383.188 469.886a278.402 278.402 0 0 1-19.726 29.782c-2.087 2.717-5.062 6.531-27.866 32.499-23.587 26.855-28.545 31.976-29.954 41.694-.469 3.344-.678 8.099-4.174 12.488-3.653 4.65-7.515 4.65-17.9 10.397-8.819 4.911-6.94 5.434-12.159 7.628-10.332 4.337-19.36 3.083-23.743 2.404-4.801-.732-7.776-1.202-8.245-2.926-.888-3.24 8.767-7.001 20.821-16.668 7.149-5.747 11.689-10.815 15.812-15.413 10.802-12.069 16.803-23.407 20.404-30.409 26.405-51.047 30.11-59.406 38.355-72.939 12.524-20.638 28.597-47.389 38.46-43.784 4.801 1.724 9.915 45.247 9.915 45.247Z" fill="#FFDEAD"/><path d="M255.859 608.398c-3.653 0-6.523-.471-8.35-.732-5.218-.836-8.401-1.306-9.028-3.605-.678-2.612 2.505-4.702 8.298-8.517 3.548-2.351 7.984-5.224 12.837-9.143 7.097-5.695 11.637-10.816 15.707-15.309 10.959-12.226 17.012-23.93 20.248-30.2 7.775-15.047 13.515-26.281 18.16-35.268 10.802-21.056 14.455-28.162 20.247-37.775l.679-1.15c13.359-21.944 28.44-46.867 38.877-43.001 1.043.366 3.496 1.307 7.358 24.035 1.878 11.024 3.131 21.944 3.183 22.049l.052.313-.156.262c-5.897 10.293-12.577 20.324-19.778 29.886-1.879 2.508-4.488 5.904-27.919 32.551l-3.653 4.127c-20.508 23.303-24.787 28.163-26.092 37.045a93.42 93.42 0 0 0-.156 1.306c-.418 3.187-.992 7.576-4.175 11.651-2.4 3.083-4.905 4.233-9.028 6.061-2.348 1.098-5.322 2.456-9.184 4.598-4.384 2.456-6.106 3.814-7.358 4.807-1.252.993-2.192 1.724-4.905 2.874-5.897 2.455-11.429 3.135-15.864 3.135Zm115.483-183.237c-9.184 0-24.005 24.401-35.015 42.479l-.679 1.149c-5.792 9.509-9.445 16.615-20.195 37.619a5083.455 5083.455 0 0 1-18.16 35.268c-3.288 6.374-9.393 18.235-20.508 30.618-4.071 4.545-8.715 9.718-15.917 15.518-4.905 3.918-9.341 6.896-12.941 9.248-4.227 2.769-7.88 5.172-7.515 6.426.313 1.098 3.601 1.62 7.463 2.195 3.861.627 12.941 2.037 23.221-2.299 2.453-1.045 3.236-1.672 4.436-2.613 1.305-1.045 3.079-2.403 7.619-4.963 3.914-2.195 6.888-3.553 9.289-4.65 3.966-1.829 6.157-2.822 8.297-5.539 2.87-3.657 3.392-7.576 3.809-10.711.053-.47.105-.94.157-1.358 1.357-9.457 5.74-14.369 26.562-38.037l3.653-4.128c23.378-26.595 25.987-29.991 27.814-32.446 7.149-9.405 13.672-19.28 19.517-29.416-.209-1.829-1.409-11.704-3.131-21.631-3.497-20.639-5.741-22.415-6.158-22.572-.522-.052-1.044-.157-1.618-.157Z" fill="#26241B"/><path d="M354.8 382.527c1.878 30.043 1.513 48.539.261 63.168-1.305 14.891-1.931 22.363-4.332 32.342-6.575 27.587-15.968 33.857-13.515 51.57 1.043 7.523 3.548 12.435 2.087 21.683-1.305 8.046-3.966 9.091-5.845 18.757-2.191 11.652.835 14.369-2.504 20.011-3.758 6.323-12.733 11.338-18.735 8.36-3.861-1.933-5.635-6.792-5.844-10.397-.209-4.337 1.774-7.524 2.922-9.562 4.018-7.471 2.035-11.285 3.288-37.776.417-9.143.887-10.554 1.252-18.652.835-19.907 1.409-100.997 1.618-114.843.156-13.846 4.122-63.9 8.819-64.736 4.697-.888 30.528 40.075 30.528 40.075Z" fill="#FFDEAD"/><path d="M316.288 600.247c-1.566 0-3.079-.313-4.436-.993-4.07-2.037-6.105-7.105-6.366-11.233-.209-4.232 1.513-7.367 2.713-9.509.105-.209.209-.418.313-.575 2.557-4.702 2.557-7.837 2.662-17.138.052-4.754.104-11.233.522-20.272.208-4.598.417-7.211.678-9.718.209-2.508.418-4.86.574-8.935.678-15.622 1.566-111.864 1.618-114.843.104-7.158 1.148-23.094 2.713-37.357 3.079-27.64 5.741-28.11 6.889-28.319 1.148-.209 3.548-.627 17.951 20.168 6.993 10.031 13.464 20.324 13.516 20.429l.104.209v.261c1.67 26.647 1.722 46.188.261 63.326l-.104.94c-1.253 14.421-1.879 21.683-4.279 31.506-2.714 11.39-5.949 19.28-8.559 25.602-3.809 9.3-6.314 15.413-4.905 25.602.313 2.194.731 4.127 1.148 6.061 1.044 4.754 1.983 9.195.939 15.883-.678 4.076-1.67 6.375-2.713 8.883-1.096 2.507-2.192 5.12-3.131 9.927-.992 5.225-.887 8.621-.835 11.338.104 3.291.156 5.695-1.774 8.987-3.184 5.433-9.707 9.77-15.499 9.77Zm8.193-256.959c-.366.261-2.714 2.665-5.427 27.326-1.514 14.003-2.557 29.573-2.61 36.522-.052 2.978-.939 99.272-1.617 114.895-.157 4.075-.366 6.479-.574 8.987-.209 2.507-.418 5.12-.679 9.666-.417 8.986-.469 15.465-.522 20.168-.052 9.352-.104 12.853-2.87 18.025l-.313.627c-1.148 2.038-2.661 4.807-2.452 8.465.208 3.448 1.93 7.889 5.322 9.613 4.54 2.299 13.151-.679 17.482-7.994 1.67-2.821 1.618-4.754 1.513-7.941-.104-2.822-.156-6.323.835-11.756.94-5.016 2.192-7.838 3.236-10.293.991-2.352 1.983-4.598 2.609-8.412 1.044-6.323.104-10.659-.887-15.205-.418-1.933-.887-3.971-1.148-6.217-1.461-10.711 1.252-17.347 5.062-26.595 2.557-6.27 5.792-14.055 8.453-25.341 2.297-9.718 2.975-16.928 4.227-31.244l.105-.941c1.513-16.981 1.409-36.365-.209-62.803-.939-1.463-6.836-10.711-13.15-19.854-12.838-18.34-15.864-19.646-16.386-19.698Z" fill="#26241B"/><path d="M358.766 448.621c-.94.47-2.244 1.254-3.184 2.665-1.565 2.299-1.356 4.911-1.304 5.747.47 8.412-3.444 25.55-5.636 32.656-.939 3.03-2.609 7.628-5.688 13.01a88.754 88.754 0 0 0 7.462-13.846c.261-.627 1.514-3.606 1.514-3.606.782-1.985 1.356-3.709 1.826-5.068.261-.783.626-1.881 1.096-3.396.365-1.149.626-2.299.939-3.448.313-1.15.574-2.299.835-3.501l.679-3.501c.208-1.201.417-2.351.574-3.553.678-4.65.991-9.404.887-14.159Z" fill="#26241B"/><path d="M260.242 587.133c1.827-1.463 3.496-2.874 5.01-4.285 2.139-1.933 6.105-5.642 10.802-11.129 6.575-7.68 13.098-17.033 15.394-22.519.157-.418 1.096-2.717 2.505-5.852.835-1.933 1.566-3.5 2.087-4.598a66.595 66.595 0 0 0 9.133 10.398 64.71 64.71 0 0 0 9.393 7.21c-.209.784-.679 2.09-1.461 3.605-2.296 4.337-4.854 5.382-6.471 9.249-.574 1.462-.679 1.88-1.044 4.493-.47 3.344-.678 8.099-4.175 12.487-3.653 4.651-7.514 4.65-17.899 10.398-8.819 4.911-6.94 5.434-12.159 7.628-10.332 4.337-19.36 3.083-23.743 2.404-4.801-.732-7.776-1.202-8.246-2.926-.782-3.135 8.872-6.897 20.874-16.563Z" fill="#fff"/><path d="M255.859 608.398c-3.653 0-6.523-.47-8.35-.731-5.218-.836-8.401-1.307-9.028-3.605-.678-2.613 2.505-4.703 8.298-8.517 3.548-2.351 7.984-5.225 12.837-9.144 1.722-1.41 3.34-2.769 4.957-4.232 3.758-3.448 7.306-7.053 10.75-11.076 6.836-7.942 13.099-17.086 15.238-22.258l.052-.209c.313-.68 1.2-2.874 2.453-5.643a1172.55 1172.55 0 0 1 2.766-6.061l.939 1.306a70.403 70.403 0 0 0 9.028 10.293c2.87 2.613 5.949 5.016 9.236 7.106l.627.366-.209.679a17.234 17.234 0 0 1-1.566 3.814c-1.148 2.194-2.348 3.605-3.444 4.807-1.148 1.358-2.192 2.508-2.974 4.389-.522 1.306-.574 1.62-.94 4.127 0 0-.156.941-.208 1.411-.418 3.187-.992 7.576-4.175 11.652-2.401 3.082-4.905 4.232-9.028 6.061-2.348 1.097-5.323 2.455-9.184 4.597-4.384 2.456-6.106 3.815-7.358 4.807-1.253.993-2.192 1.724-4.906 2.874-5.844 2.508-11.376 3.187-15.811 3.187Zm40.338-67.714c-.47 1.045-.939 2.09-1.409 3.082-1.252 2.822-2.14 4.912-2.4 5.643l-.105.209c-2.192 5.33-8.61 14.682-15.551 22.729a123.594 123.594 0 0 1-10.906 11.233c-1.618 1.463-3.288 2.926-5.062 4.337-4.905 3.918-9.341 6.897-12.942 9.248-4.227 2.769-7.879 5.172-7.514 6.426.313 1.097 3.601 1.62 7.462 2.195 3.862.627 12.942 2.037 23.222-2.299 2.453-1.045 3.235-1.672 4.436-2.613 1.304-1.045 3.079-2.403 7.619-4.963 3.913-2.195 6.888-3.553 9.288-4.65 3.966-1.829 6.158-2.822 8.298-5.539 2.87-3.657 3.392-7.576 3.809-10.711.052-.47.209-1.463.209-1.463.365-2.56.469-3.082 1.096-4.598.887-2.142 2.035-3.5 3.287-4.911 1.044-1.202 2.192-2.508 3.183-4.441.47-.888.888-1.829 1.201-2.769a71.366 71.366 0 0 1-8.924-6.897c-2.974-2.822-5.792-5.904-8.297-9.248Z" fill="#26241B"/><path d="M306.425 587.969c-.209-4.337 1.774-7.524 2.922-9.562 4.019-7.471 2.036-11.285 3.288-37.775.313-7.054.678-9.51.991-14.003.209-2.769.314-4.18.261-4.65-.417-3.24-1.826-4.128-1.617-6.897.052-.888.261-1.672 0-2.926-.209-.993-.522-1.411-.418-2.09.157-.94.94-1.62 1.67-2.09a29.316 29.316 0 0 0 10.593 3.187c7.724.784 13.673-1.776 16.334-3.082.887 1.776.783 2.926.574 3.657-.417 1.254-1.305 1.463-1.67 2.926-.313 1.306.209 1.672 0 2.926-.313 1.672-1.565 2.351-2.296 3.239-1.931 2.404-.052 6.584.261 8.83 1.044 7.524 3.549 12.436 2.087 21.684-1.304 8.046-3.966 9.091-5.844 18.757-2.192 11.651.835 14.368-2.505 20.011-3.757 6.322-12.733 11.338-18.734 8.36-3.914-2.038-5.688-6.845-5.897-10.502Z" fill="#fff"/><path d="M316.288 600.247c-1.618 0-3.079-.313-4.436-.992-4.07-2.038-6.105-7.106-6.366-11.234-.209-4.232 1.513-7.367 2.713-9.509.105-.209.209-.418.313-.575 2.557-4.702 2.557-7.837 2.662-17.137.052-4.755.104-11.234.522-20.273.208-4.598.417-7.21.678-9.718.104-1.411.418-5.434.47-5.957.104-1.462.156-2.507.156-2.821-.156-1.358-.522-2.247-.887-3.135-.47-1.149-.887-2.247-.783-3.971 0-.209.053-.418.053-.627.052-.627.156-1.201-.053-2.037-.052-.314-.156-.575-.208-.784-.157-.47-.313-.941-.209-1.62.156-1.045.835-1.985 2.087-2.769l.47-.261.47.261c3.235 1.672 6.679 2.717 10.228 3.083 6.784.679 12.315-1.254 15.811-2.979l.835-.418.418.836c.835 1.62 1.044 3.083.626 4.389-.261.784-.626 1.254-.939 1.62-.313.366-.574.679-.679 1.254-.104.47-.052.784 0 1.149.053.418.157.941 0 1.725-.261 1.463-1.148 2.351-1.878 3.03-.261.209-.47.47-.626.679-1.149 1.463-.522 4.023 0 6.061.208.732.365 1.411.417 2.038.313 2.194.731 4.127 1.148 6.061 1.044 4.754 1.983 9.195.939 15.883-.678 4.076-1.67 6.375-2.713 8.883-1.096 2.507-2.192 5.12-3.131 9.927-.992 5.225-.887 8.621-.835 11.338.104 3.291.156 5.695-1.774 8.987-1.931 3.291-5.271 6.269-8.924 8.046-2.296.993-4.54 1.567-6.575 1.567Zm-2.714-91.174c-.365.314-.73.68-.782 1.098-.053.209 0 .365.156.783.104.262.157.575.261.993a7.393 7.393 0 0 1 .052 2.612c0 .157-.052.366-.052.523-.104 1.306.209 2.142.626 3.135.366.94.783 1.985.992 3.553.052.47 0 1.306-.157 3.187-.052.47-.313 4.598-.47 5.956a340.413 340.413 0 0 0-.678 9.666c-.417 8.987-.47 15.466-.522 20.168-.052 9.353-.104 12.853-2.87 18.026l-.313.627c-1.148 2.038-2.661 4.807-2.453 8.464.209 3.449 1.931 7.89 5.323 9.614 4.54 2.299 13.151-.679 17.482-7.994 1.67-2.821 1.618-4.755 1.513-7.942-.104-2.821-.156-6.322.835-11.756.939-5.016 2.192-7.837 3.236-10.293.991-2.351 1.983-4.598 2.609-8.412 1.043-6.322.104-10.658-.887-15.204-.418-1.933-.888-3.971-1.148-6.218-.053-.522-.209-1.149-.418-1.828-.574-2.352-1.409-5.539.365-7.733.261-.314.522-.575.783-.836.626-.575 1.148-1.097 1.305-1.986.052-.418.052-.679-.052-1.045-.105-.47-.157-1.045.052-1.933.261-.992.73-1.515 1.096-1.985.261-.314.469-.575.626-.993.209-.575.156-1.306-.157-2.09-3.705 1.724-9.236 3.396-15.916 2.717-3.653-.209-7.149-1.254-10.437-2.874Z" fill="#26241B"/><path d="M313.835 521.613c4.436 2.613 12.107 3.031 22.387 1.202-.104.784-.052 1.672.105 2.508-8.559 1.515-16.856 1.724-22.492-.888.105-1.359.157-2.09.105-2.456-.053-.157-.105-.261-.105-.366ZM312.635 517.747c-.261-.784-.47-1.568-.365-2.717 0-.105 0-.209.052-.314 5.009 3.135 14.298 3.24 26.927.471-.052.888.261 1.306.104 2.351 0 .052-.052.104-.052.209-9.967 2.194-20.091 3.03-26.666 0ZM307.886 567.07a14.281 14.281 0 0 0-1.2 2.194c-6.627-4.337-13.307-9.509-17.899-14.839.469-.783.939-1.567 1.304-2.299 3.81 4.598 9.811 9.667 17.795 14.944ZM312.113 561.688c-.522.784-.991 1.411-1.513 1.985-6.993-4.598-14.038-10.136-18.63-15.831.261-.679.678-1.568 1.148-2.613 3.757 5.069 10.176 10.659 18.995 16.459Z" fill="#26241B"/><path d="M421.491 480.18 1.252 327.143l-.365 11.181 421.23 156.067-.052-.627.052.627 189.168-96.451.574-15.727-190.368 97.967Z" fill="#fff"/><path d="M422.117 495.227c-.104 0-.208 0-.313-.052L.626 339.16c-.365-.104-.574-.47-.574-.835l.365-11.182c0-.261.157-.522.366-.679a.83.83 0 0 1 .783-.104l419.873 152.879 190.054-97.757c.261-.157.574-.105.835.052s.418.47.418.732l-.574 15.727c0 .313-.209.574-.47.731l-189.167 96.399c-.157.052-.261.104-.418.104ZM1.774 337.75 421.44 493.19c.156-.157.365-.262.574-.314.261 0 .47.052.626.209l187.811-95.719.469-13.794-189.01 97.339c-.209.105-.47.105-.679.053L2.087 328.345l-.313 9.405Z" fill="#1A1A1A"/><path d="m613.476 381.377-191.985 98.802L.835 326.986l209.623-74.036 403.018 128.427Z" fill="#FFDEAD"/><path d="M421.491 481.016c-.104 0-.209 0-.313-.053L.574 327.77c-.365-.104-.574-.418-.574-.784 0-.365.209-.679.574-.783l209.624-74.037a.89.89 0 0 1 .521 0l403.018 128.428c.313.104.574.418.574.731.053.366-.156.679-.469.836l-191.933 98.75c-.157.052-.261.105-.418.105ZM3.392 326.986l418.047 152.201 189.846-97.653-400.774-127.696L3.392 326.986Z" fill="#26241B"/><path d="m289.413 338.429 38.564-24.139c1.357-.836 3.027-1.045 4.592-.575l111.205 35.582c4.488 1.41 5.218 7.471 1.2 9.927l-34.285 21.369c-1.305.836-2.922 1.045-4.436.627L290.77 348.408c-4.54-1.306-5.375-7.471-1.357-9.979Z" fill="#fff"/><path d="M407.819 382.266c-.574 0-1.148-.105-1.722-.262l-115.484-32.812c-2.452-.679-4.174-2.717-4.54-5.225-.365-2.508.783-4.911 2.923-6.27l38.564-24.138a6.342 6.342 0 0 1 5.322-.68l111.205 35.582c2.4.783 4.07 2.769 4.383 5.277.313 2.508-.835 4.859-2.974 6.165l-34.285 21.37a6.241 6.241 0 0 1-3.392.993Zm-76.92-67.976c-.835 0-1.722.261-2.452.732l-38.564 24.138c-1.566.993-2.401 2.77-2.14 4.598.261 1.829 1.514 3.292 3.34 3.814l115.431 32.813c1.253.365 2.609.156 3.757-.523l34.285-21.37c1.566-.94 2.401-2.716 2.192-4.545-.209-1.829-1.461-3.292-3.183-3.867l-111.204-35.581c-.47-.104-.94-.209-1.462-.209ZM516.936 313.14c0-.94-.209-1.881-.574-2.769a8.693 8.693 0 0 0-1.357-2.456c-.522-.784-1.2-1.463-1.931-2.09-.73-.574-1.513-1.097-2.453-1.41.47.836.992 1.567 1.514 2.298l3.079 4.285c.574.679 1.096 1.411 1.722 2.142Z" fill="#1A1A1A"/><path d="M404.114 279.91a132.784 132.784 0 0 0-8.35 5.016c-10.28 6.636-13.359 10.45-21.865 17.033-14.924 11.599-22.491 13.115-22.126 17.817.157 1.985 1.67 4.964 9.498 8.203 5.949-2.665 13.776-6.165 23.013-10.345 12.002-5.434 21.604-6.949 31.467-15.361 6.836-5.852 7.097-8.778 7.045-10.084-.418-5.278-7.776-10.084-18.682-12.279Z" fill="#FFDEAD"/><path d="M361.218 328.867c-.104 0-.208 0-.313-.052-6.471-2.717-9.758-5.643-10.019-8.935-.261-3.344 2.609-5.172 8.245-8.725 3.496-2.195 8.297-5.277 14.194-9.823a218.267 218.267 0 0 0 7.515-6.218c3.966-3.396 7.723-6.583 14.402-10.92a154.875 154.875 0 0 1 8.402-5.015c.418-.209.939-.053 1.148.313.209.418.105.941-.313 1.15a165.206 165.206 0 0 0-8.297 4.963c-6.575 4.232-10.124 7.263-14.194 10.763-2.244 1.934-4.54 3.919-7.567 6.27-5.949 4.65-10.802 7.681-14.351 9.927-5.427 3.449-7.619 4.912-7.462 7.159.157 2.455 3.131 5.015 8.61 7.314 7.515-3.344 15.134-6.792 22.701-10.188 3.705-1.672 7.201-2.978 10.541-4.232 7.514-2.822 14.037-5.277 20.717-10.972 4.592-3.919 6.888-7.106 6.732-9.405a.796.796 0 0 1 .782-.888.795.795 0 0 1 .887.783c.105 1.881-.521 5.016-7.305 10.816-6.941 5.904-13.881 8.516-21.239 11.285-3.34 1.254-6.732 2.561-10.437 4.18-7.671 3.449-15.394 6.949-23.013 10.346a.973.973 0 0 1-.366.104Z" fill="#1A1A1A"/><path d="M410.324 287.747c-.105-.731-.366-1.463-.679-2.09-.313-.679-.783-1.254-1.252-1.828-.47-.523-1.044-1.045-1.67-1.411a5.904 5.904 0 0 0-2.035-.888c.469.575.939 1.097 1.409 1.619l2.765 3.031c.418.522.888 1.045 1.462 1.567Z" fill="#FFDEAD"/><path d="M410.324 288.583c-.209 0-.418-.052-.574-.209-.522-.47-.94-.94-1.409-1.41l-3.079-3.344c-.418-.47-.887-.993-1.305-1.515-.209-.262-.209-.68-.052-.993.209-.314.574-.47.887-.366.783.157 1.513.523 2.296.993.679.418 1.305.94 1.827 1.567a9.928 9.928 0 0 1 1.409 1.986c.417.836.678 1.619.782 2.403.053.366-.156.679-.469.888h-.313Z" fill="#1A1A1A"/><path d="M139.958 318.261c18.416 0 33.345-6.41 33.345-14.316 0-7.907-14.929-14.317-33.345-14.317-18.416 0-33.346 6.41-33.346 14.317 0 7.906 14.93 14.316 33.346 14.316Z" fill="#fff"/><path d="M139.958 319.149c-19.152 0-34.181-6.688-34.181-15.204 0-8.517 15.029-15.205 34.181-15.205 19.151 0 34.18 6.688 34.18 15.205 0 8.516-15.029 15.204-34.18 15.204Zm0-28.685c-17.586 0-32.459 6.166-32.459 13.481 0 7.314 14.873 13.48 32.459 13.48 17.586 0 32.458-6.166 32.458-13.48 0-7.315-14.872-13.481-32.458-13.481Z" fill="#1A1A1A"/><path d="m510.726 389.11-85.582 20.586-34.129-32.029 76.607-16.458 43.104 27.901Z" fill="#fff"/><path d="M425.144 410.532c-.209 0-.418-.105-.574-.209l-34.129-32.081a.963.963 0 0 1-.26-.836.943.943 0 0 1 .626-.627l76.606-16.458c.209-.052.47 0 .626.104l43.104 27.901c.261.209.418.523.366.836-.053.314-.313.627-.627.679L425.3 410.427c0 .105-.052.105-.156.105Zm-32.354-32.394 32.615 30.617 83.181-20.011-41.173-26.647-74.623 16.041Z" fill="#1A1A1A"/><path d="m566.093 400.239-84.121 20.272-33.554-31.506 75.302-16.197 42.373 27.431Z" fill="#fff"/><path d="M481.972 421.347c-.208 0-.417-.104-.574-.209l-33.554-31.506a.964.964 0 0 1-.261-.836.943.943 0 0 1 .626-.627l75.302-16.145a.85.85 0 0 1 .626.105l42.374 27.43c.261.209.417.523.365.836-.052.314-.313.627-.626.68l-84.069 20.22c-.052.052-.156.052-.209.052Zm-31.78-31.872 32.041 30.096 81.721-19.646-40.443-26.124-73.319 15.674ZM124.459 296.264c-.47 0-.835-.365-.835-.783l-7.567-137.467c0-.261.105-.522.314-.679l91.53-79.836c.157-.157.366-.209.627-.209l25.048 1.567c.47.053.835.418.783.889-.052.47-.418.836-.887.784l-24.683-1.568-91.062 79.366 7.567 137.048c0 .47-.313.836-.835.888Z" fill="#1A1A1A"/><path d="M131.608 164.493c-3.966 0-9.288-.993-15.342-4.807l.47-.784c7.253 4.546 13.411 4.964 17.273 4.493 10.698-1.201 17.534-9.666 20.665-14.577.835-1.358 1.617-2.717 2.296-4.128-.052-.052-.105-.104-.105-.156-4.748-6.793-6.731-13.742-4.957-17.713.678-1.567 3.027-4.963 5.427-4.598 2.244.314 3.288 3.553 3.653 4.598 1.409 4.18.157 11.129-2.975 17.765 4.749 6.426 12.472 12.905 20.509 12.278 8.976-.679 14.82-10.136 19.099-17.085 9.811-15.936 11.846-33.544 11.22-47.755-.94-2.874-1.357-6.27-.887-9.875l.469-3.449.47 3.449c.417 2.978.731 6.165.887 9.561 1.566 4.598 4.645 7.89 7.828 8.464 2.244.418 5.062-.574 7.566-2.56 4.071-3.24 6.523-8.464 6.837-14.316l.939.052c-.261 6.113-2.922 11.6-7.149 14.996-2.714 2.194-5.741 3.187-8.298 2.717-2.922-.523-5.74-2.978-7.566-6.636.313 13.898-2.036 30.566-11.429 45.77-4.383 7.106-10.332 16.824-19.83 17.503-8.245.627-16.125-5.747-21.03-12.278-.626 1.306-1.357 2.56-2.139 3.814-3.236 5.068-10.281 13.741-21.344 14.995-.782.209-1.617.262-2.557.262Zm25.466-41.381c-1.722 0-3.601 2.612-4.227 4.075-1.565 3.605.313 10.241 4.697 16.563 2.87-6.27 4.018-12.749 2.713-16.615-.835-2.508-1.826-3.814-2.922-3.971-.104-.052-.209-.052-.261-.052Z" fill="#1A1A1A"/><path d="m229.506 135.599 47.8-21.004-21.865-34.17c-4.122.418-11.272 1.62-19.517 5.225-3.966 1.724-10.541 5.068-17.064 10.867 3.496 13.01 7.045 26.02 10.646 39.082Z" fill="#1A1A1A"/><path d="M229.14 134.815c1.409 3.24 13.255 1.15 26.458-4.65 13.202-5.799 22.752-13.114 21.343-16.354-1.409-3.239-13.255-1.149-26.457 4.651-13.203 5.799-22.753 13.114-21.344 16.353Z" fill="#fff" stroke="#26241B" stroke-width="3.263" stroke-miterlimit="10" stroke-linecap="round" stroke-linejoin="round"/><path d="m233.419 89.15 7.15-3.135-4.071-6.95c-.626 0-1.774.105-2.974.628a7.976 7.976 0 0 0-2.505 1.776c.783 2.56 1.566 5.12 2.4 7.68ZM112.405 159.32a4.1 4.1 0 0 0 4.122 4.128 4.101 4.101 0 0 0 4.123-4.128 4.101 4.101 0 0 0-4.123-4.128 4.1 4.1 0 0 0-4.122 4.128Z" fill="#1A1A1A"/><path d="M228.723 79.64c0 2.09 1.67 3.763 3.757 3.763a3.743 3.743 0 0 0 3.757-3.762 3.743 3.743 0 0 0-3.757-3.762 3.744 3.744 0 0 0-3.757 3.762ZM204.353 78.126a4.1 4.1 0 0 0 4.123 4.127 4.1 4.1 0 0 0 4.122-4.127 4.1 4.1 0 0 0-4.122-4.128c-2.297 0-4.123 1.881-4.123 4.128Z" fill="#1A1A1A"/><path d="M530.869 324.061c.835-1.307 1.044-2.299 1.148-3.031 8.976-23.825 17.951-47.651 26.927-71.424l-30.476-12.801c-6.523 21.997-12.993 43.994-19.516 65.99a181.668 181.668 0 0 0-10.072 4.598c-14.037 6.897-18.525 11.286-30.267 18.392-15.29 9.248-24.631 12.069-28.544 15.413-2.505-.366-6.158-.522-11.429-.679-8.558-.209-12.837-.261-14.455.157-6.888 1.828-12.315 6.897-17.429 11.86-1.566 1.515-3.183 3.031-4.645 4.65-1.095 1.15-2.191 2.613-1.878 4.18.469 2.56 3.966 2.978 6.523 2.769-.835.732-.522 2.247.417 2.926.887.68 2.14.732 3.236.627a16.862 16.862 0 0 0 8.767-3.553c-.679.993-.992 2.195-.783 3.397 1.931 1.254 4.54.679 6.471-.575 2.661-1.724 4.383-3.396 5.218-4.441 6.732-7.942 26.979-.993 28.649-5.539a3107.736 3107.736 0 0 0 30.789-9.718c16.073-5.12 28.44-5.643 42.217-14.839 5.27-3.605 7.88-6.322 9.132-8.359Z" fill="#FFDEAD" stroke="#1A1A1A" stroke-width="3.263" stroke-miterlimit="10" stroke-linecap="round" stroke-linejoin="round"/><path d="m174.191 161.149 232.845 52.772c4.227.94 7.202 4.806 7.097 9.195l-5.74 171.428c-.209 6.009-6.106 10.189-11.846 8.36l-224.6-71.946c-3.705-1.202-6.262-4.598-6.315-8.517l-2.557-152.305c-.104-5.852 5.375-10.293 11.116-8.987Z" fill="#1A1A1A"/><path d="M399.261 404.158a9.913 9.913 0 0 1-3.027-.47l-224.548-71.894c-4.071-1.307-6.836-5.016-6.889-9.301l-2.557-152.305a9.968 9.968 0 0 1 3.653-7.889c2.401-1.934 5.48-2.665 8.454-1.986l232.846 52.771c4.644 1.045 7.879 5.278 7.723 10.032l-5.74 171.428c-.105 3.135-1.618 6.009-4.227 7.785a9.71 9.71 0 0 1-5.688 1.829ZM172.155 161.776a8.107 8.107 0 0 0-5.166 1.829c-1.983 1.62-3.079 3.971-3.026 6.531l2.557 152.305c.052 3.553 2.348 6.636 5.74 7.733l224.548 71.894c2.505.784 5.114.366 7.254-1.097 2.139-1.515 3.392-3.867 3.496-6.479l5.74-171.428c.157-3.971-2.557-7.419-6.418-8.308l-232.846-52.771a7.66 7.66 0 0 0-1.879-.209Z" fill="#1A1A1A"/><path d="m174.191 161.149 232.845 52.771c4.227.941 7.202 4.807 7.097 9.196l-.104 2.978c-62.308 2.508-192.716-.313-248.501-62.28 2.087-2.247 5.323-3.449 8.663-2.665Z" fill="#fff" stroke="#1A1A1A" stroke-width="3.263" stroke-miterlimit="10" stroke-linecap="round" stroke-linejoin="round"/><path d="M219.747 387.7c-.574 1.776.366 3.709 2.14 4.284l64.134 20.638.052-.209 21.552-14.525c2.349-1.567 1.827-5.12-.835-6.008l-13.776-4.389a3.405 3.405 0 0 1-2.296-3.762l11.898-74.35a3.405 3.405 0 0 0-2.296-3.762l-45.14-13.95c-1.722-.523-3.6.418-4.174 2.142L219.747 387.7Zm33.92-47.965c2.714-7.053 9.706-10.972 15.603-8.673 5.897 2.299 8.454 9.875 5.688 16.929-2.713 7.053-9.706 10.972-15.603 8.673-5.845-2.299-8.402-9.875-5.688-16.929Z" fill="#fff"/><path d="M286.073 413.458c-.104 0-.156 0-.261-.052l-64.134-20.638a4.23 4.23 0 0 1-2.452-2.09c-.522-.993-.574-2.142-.261-3.24l31.258-93.943c.73-2.142 3.079-3.344 5.218-2.717l45.087 14.003a4.264 4.264 0 0 1 2.923 4.702l-11.898 74.403c-.209 1.201.522 2.403 1.722 2.769l13.776 4.389c1.566.47 2.662 1.776 2.87 3.396.209 1.619-.469 3.187-1.826 4.075l-21.239 14.316c-.052.157-.209.314-.365.418-.105.209-.261.209-.418.209Zm-65.543-25.497c-.209.627-.156 1.306.157 1.933a2.469 2.469 0 0 0 1.461 1.254l63.56 20.482 21.396-14.421c.834-.575 1.2-1.463 1.095-2.456-.156-.992-.782-1.724-1.722-2.037l-13.776-4.389c-1.983-.627-3.236-2.665-2.87-4.703l11.898-74.402c.208-1.202-.574-2.403-1.723-2.769l-45.087-14.003a2.5 2.5 0 0 0-3.131 1.62l-31.258 93.891Zm42.374-29.834c-1.305 0-2.557-.209-3.81-.732-3.079-1.201-5.427-3.761-6.575-7.21-1.148-3.396-.992-7.21.365-10.815l.783.313-.783-.313c2.87-7.472 10.385-11.6 16.699-9.144 6.314 2.456 9.08 10.554 6.21 18.026-2.348 6.061-7.619 9.875-12.889 9.875Zm2.87-26.856c-4.592 0-9.237 3.448-11.272 8.778-1.252 3.239-1.357 6.688-.365 9.666.991 2.978 2.974 5.12 5.583 6.165 5.428 2.09 11.951-1.567 14.508-8.203 2.557-6.635.208-13.741-5.219-15.831-1.096-.418-2.139-.575-3.235-.575Z" fill="#1A1A1A"/><path d="M286.543 393.343c.991-2.561 2.14-5.068 3.601-7.472-.313 2.769-.887 5.434-1.409 8.099-.522 2.664-1.148 5.277-1.514 7.837-.104.627-.156 1.306-.208 1.881a9.92 9.92 0 0 0 0 1.776c.052.523.208 1.045.313 1.202.052.105.104.105.209.157.104.052.313.052.574.052a5.808 5.808 0 0 0 1.669-.47 52.426 52.426 0 0 0 1.775-.836c1.2-.627 2.348-1.359 3.548-2.038-.783 1.15-1.722 2.195-2.766 3.187-.521.471-1.043.941-1.669 1.359-.627.418-1.253.783-2.14 1.045-.417.104-.939.156-1.461.104-.574-.052-1.148-.366-1.566-.784a3.681 3.681 0 0 1-.835-1.306 5.536 5.536 0 0 1-.313-1.254c-.261-1.619-.104-3.03.105-4.441.365-2.821 1.148-5.486 2.087-8.098Z" fill="#1A1A1A"/><path d="M525.442 177.398c9.654 3.553 16.073 8.516 20.3 12.749 19.83 19.959 22.7 55.645 9.288 91.226a40.828 40.828 0 0 1-14.142 1.724c-15.707-.94-26.092-10.972-29.275-14.264-.626-13.219-.261-29.729 2.714-48.382 2.713-16.929 6.94-31.402 11.115-43.053Z" fill="#fff"/><path d="M540.106 226.982c-2.505 0-3.81-1.986-3.81-3.919s1.305-3.918 3.81-3.918c2.504 0 3.809 1.985 3.809 3.918 0 .993-.313 1.933-.939 2.665-.679.784-1.722 1.254-2.87 1.254Zm0-5.957c-1.514 0-1.931 1.254-1.931 2.038 0 .523.156 1.045.469 1.411.366.418.835.575 1.409.575.627 0 1.096-.209 1.409-.575.314-.366.47-.888.47-1.411.104-.731-.313-2.038-1.826-2.038ZM511.091 241.612c-2.505 0-3.809-1.986-3.809-3.919s1.304-3.919 3.809-3.919 3.81 1.986 3.81 3.919c0 .993-.313 1.933-.94 2.665-.678.836-1.722 1.254-2.87 1.254Zm0-5.904c-1.513 0-1.931 1.254-1.931 2.037 0 .523.157 1.045.47 1.411.365.418.835.575 1.409.575.626 0 1.096-.209 1.409-.575.313-.366.47-.888.47-1.411.104-.783-.313-2.037-1.827-2.037ZM536.87 265.959c-2.505 0-3.809-1.985-3.809-3.918 0-.993.313-1.933.939-2.665.678-.836 1.722-1.254 2.87-1.254 2.505 0 3.81 1.986 3.81 3.919 0 .992-.313 1.933-.94 2.664-.678.784-1.722 1.254-2.87 1.254Zm0-5.956c-1.513 0-1.931 1.254-1.931 2.038 0 .731.418 2.037 1.931 2.037.626 0 1.096-.209 1.409-.574.313-.366.47-.889.47-1.411.052-.784-.365-2.09-1.879-2.09ZM558.213 254.047c-2.504 0-3.809-1.986-3.809-3.919 0-.993.313-1.933.939-2.665.679-.836 1.722-1.254 2.87-1.254 2.505 0 3.81 1.986 3.81 3.919 0 .993-.313 1.933-.939 2.665-.679.784-1.722 1.254-2.871 1.254Zm0-5.957c-1.513 0-1.93 1.254-1.93 2.038 0 .732.417 2.038 1.93 2.038.627 0 1.096-.209 1.409-.575.314-.366.47-.888.47-1.411.052-.783-.365-2.09-1.879-2.09ZM511.091 266.953c-2.505 0-3.809-1.986-3.809-3.919s1.304-3.919 3.809-3.919 3.81 1.986 3.81 3.919c0 .993-.313 1.933-.94 2.665-.678.783-1.722 1.254-2.87 1.254Zm0-5.957c-1.513 0-1.931 1.254-1.931 2.038 0 .522.157 1.045.47 1.411.365.418.835.574 1.409.574.626 0 1.096-.209 1.409-.574.313-.366.47-.889.47-1.411.104-.732-.313-2.038-1.827-2.038ZM536.87 188.997c-2.505 0-3.809-1.985-3.809-3.919 0-.992.313-1.933.939-2.664.678-.836 1.722-1.254 2.87-1.254 2.505 0 3.81 1.985 3.81 3.918 0 .993-.313 1.934-.94 2.665-.678.784-1.722 1.254-2.87 1.254Zm0-5.956c-1.513 0-1.931 1.254-1.931 2.037 0 .732.418 2.038 1.931 2.038.626 0 1.096-.209 1.409-.575.313-.365.47-.888.47-1.41.052-.836-.365-2.09-1.879-2.09ZM553.256 286.807c-2.505 0-3.809-1.985-3.809-3.919 0-.992.313-1.933.939-2.664.678-.836 1.722-1.254 2.87-1.254 2.505 0 3.81 1.985 3.81 3.918 0 .993-.314 1.934-.94 2.665-.678.836-1.722 1.254-2.87 1.254Zm0-5.904c-1.513 0-1.931 1.254-1.931 2.038 0 .731.418 2.037 1.931 2.037.626 0 1.096-.209 1.409-.574.313-.366.47-.889.47-1.411.052-.836-.366-2.09-1.879-2.09ZM518.032 204.881c-2.505 0-3.81-1.986-3.81-3.919 0-.993.313-1.933.94-2.665.678-.836 1.722-1.254 2.87-1.254 2.505 0 3.809 1.986 3.809 3.919 0 .993-.313 1.933-.939 2.665-.679.784-1.722 1.254-2.87 1.254Zm0-5.957c-1.514 0-1.931 1.254-1.931 2.038 0 .732.417 2.038 1.931 2.038.626 0 1.096-.209 1.409-.575.313-.366.469-.888.469-1.411.052-.783-.365-2.09-1.878-2.09ZM557.692 218.309c-2.505 0-3.81-1.985-3.81-3.919 0-.992.313-1.933.94-2.664.678-.836 1.722-1.254 2.87-1.254 2.505 0 3.809 1.985 3.809 3.918 0 .993-.313 1.934-.939 2.665-.679.784-1.67 1.254-2.87 1.254Zm0-5.956c-1.514 0-1.931 1.254-1.931 2.037 0 .732.417 2.038 1.931 2.038.626 0 1.096-.209 1.409-.575.313-.365.469-.888.469-1.41.053-.836-.365-2.09-1.878-2.09Z" fill="#26241B"/><path d="M543.185 284.038c-.783 0-1.566 0-2.349-.053-14.716-.835-24.996-9.457-29.849-14.525-.157-.156-.209-.365-.261-.574a239.768 239.768 0 0 1 2.766-48.539 234.28 234.28 0 0 1 4.696-22.415c.105-.47.574-.732 1.044-.627.47.104.731.575.626 1.045a215.949 215.949 0 0 0-4.644 22.258c-2.505 15.779-3.444 31.872-2.714 47.86 4.749 4.911 14.56 12.957 28.493 13.741a39.479 39.479 0 0 0 13.463-1.567c6.523-17.399 9.133-34.955 7.619-50.734-1.565-16.093-7.358-29.677-16.855-39.239-5.427-5.486-12.159-9.666-19.987-12.592a.876.876 0 0 1-.522-1.097.874.874 0 0 1 1.096-.522c8.037 2.978 14.977 7.314 20.613 12.957 9.758 9.823 15.76 23.773 17.377 40.284 1.566 16.145-1.2 34.118-7.88 51.883-.104.261-.313.418-.574.523-4.07 1.306-8.14 1.933-12.158 1.933ZM676.358 45h-1.252v126.285h1.252V45ZM640.299 201.29h70.866v-6.636h-70.866v6.636Z" fill="#1A1A1A"/><path d="m682.829 177.294 1.305-10.659H667.33l1.148 10.763-28.179 17.242h70.866l-28.336-17.346Z" fill="#fff"/><path d="M711.165 195.476h-70.866a.893.893 0 0 1-.835-.627c-.104-.366.052-.784.365-.94l27.71-16.929-1.096-10.241c-.052-.261.052-.47.209-.679a.958.958 0 0 1 .626-.261h16.856c.261 0 .469.104.626.313.156.209.261.418.209.68l-1.253 10.136 27.866 17.033c.314.209.47.575.366.94-.052.314-.418.575-.783.575Zm-67.839-1.724h64.812l-25.779-15.727c-.261-.157-.417-.522-.417-.836l1.2-9.718h-14.925l1.096 9.823c.052.313-.104.627-.417.836l-25.57 15.622ZM643.169 45h-1.252v75.761h1.252V45ZM607.145 150.715h70.866v-6.635h-70.866v6.635Z" fill="#1A1A1A"/><path d="m649.64 126.769 1.357-10.659h-16.856l1.148 10.764-28.179 17.242h70.866l-28.336-17.347Z" fill="#FFDEAD"/><path d="M677.976 144.952H607.11a.894.894 0 0 1-.835-.627c-.104-.366.052-.784.365-.941l27.71-16.928-1.096-10.241c-.052-.261.052-.47.209-.679a.96.96 0 0 1 .626-.262h16.855c.261 0 .47.105.627.314.156.209.261.418.208.679l-1.252 10.136 27.866 17.033c.313.209.47.575.366.941-.053.313-.418.575-.783.575Zm-67.787-1.725h64.812l-25.779-15.726c-.261-.157-.417-.523-.417-.836l1.2-9.719H635.08l1.096 9.823c.053.314-.104.627-.417.836l-25.57 15.622Z" fill="#1A1A1A"/><defs><clipPath id="a"><path fill="#fff" transform="translate(1)" d="M0 0h711v588H0z"/></clipPath></defs></svg>