<svg viewBox="0 0 625 711" fill="none" xmlns="http://www.w3.org/2000/svg"><g clip-path="url(#a)"><path d="M593.915 534.105c-42.083-71.06 27.206-173.078 30.968-386.661.348-20.485.406-41.548-7.062-60.702-8.161-20.947-24.833-38.075-43.761-51.153C523.584.638 455.974-7.637 395.483 6.714c-60.49 14.35-114.034 49.649-156.174 93.569-24.081 25.056-45.209 53.41-74.557 72.622-26.28 17.244-58.175 26.445-81.85 46.871-39.13 33.968-46.25 89.809-45.903 140.383.29 33.505 3.068 68.34 20.492 97.389 25.527 42.531 76.235 63.653 119.186 90.387 34.557 21.526 65.41 47.913 98.347 71.58 39.073 28.065 81.155 52.195 125.38 71.985 26.395 11.805 40.462 15.856 59.911 18.228 54.412 6.481 125.612-11.11 151.313-58.792 5.094-9.374 7.177-17.533 7.756-20.484 7.236-41.143-25.469-96.347-25.469-96.347Z" fill="#F90"/></g><path fill-rule="evenodd" clip-rule="evenodd" d="m59.156 475.237 89.974 21.966-2.016 182.984-45.662 23.691s-14.682 1.954-26.134 0c-11.452-1.953-15.515-4.655-15.515-4.655s-9.363-83.9-9.524-139.885c-.162-55.985 8.877-84.101 8.877-84.101Z" fill="#331C19"/><path fill-rule="evenodd" clip-rule="evenodd" d="M108.834 251.166s-16.814 5.076-29.823 8.563c-9.845 2.632-16.494 3.36-18.194 5.684-2.127 2.906-2.313 13.85-2.598 19.815-.59 13.299-2.829 24.972-3.727 37.565-.544 7.596 2.313 18.497-1.927 21.877-10.766 8.609-35.756 3.11-42.829.736-4.799-1.615-4.205-12.779-5.42-23.842C2.37 303.753.848 264.5 1.947 242.249c.817-16.447 13.66-27.487 19.886-30.852 13.718-7.418 109.748-58.004 148.787-64.694 8.908-1.541 16.702-3.348 23.537-3.641 16.47-.698 35.847 9.876 44.486 14.381a982.212 982.212 0 0 0 22.534 11.341s47.87 24.255 69.822 66.421c4.953 9.511 13.541 28.439 18.363 40.648 12.578 31.838 19.273 77.48 27.642 109.441 8.68 33.107 18.887 52.193 21.13 63.723 2.217 11.322-32.552 24.12-39.424 21.272-4.788-1.981-6.002-11.403-10.917-19.861-2.266-3.9-8.534-10.443-14.778-23.041-7.301-14.721-14.524-35.453-14.524-35.453l-13.576-41.156-45.87 111.754s-71.225 55.079-140.007 40.339c-22.545-4.832-46.887-11.106-58.131-28.485-3.6-5.569-2.76-9.92-.84-16.629 2.509-8.759 6.969-19.318 6.969-19.318l10.654-37.642 17.033-50.867 14.112-98.764Z" fill="#fff"/><path fill-rule="evenodd" clip-rule="evenodd" d="M77.014 523.164c.77-5.229 8.457-15.314 22.391-21.526 17.304-7.707 41.079-12.331 41.079-12.331l12.173 37.379 16.17 141.643-35.624 17.692s-16.791-55.068-33.273-101.203c-10.932-30.636-23.884-55.145-22.916-61.654Z" fill="#DDD2D2"/><path fill-rule="evenodd" clip-rule="evenodd" d="M83.463 512.945c.995-4.289 3.824-5.395 8.95-7.962 7.155-3.557 17.489-7.827 21.972-9.133 23.898-6.936 51.401-13.896 51.401-13.896l-.2 188.911-24.088 11.649-12.84-42.632-26.716-75.854c-7.655-22.914-20.136-43.966-18.479-51.083Z" fill="#BBB5B5"/><path fill-rule="evenodd" clip-rule="evenodd" d="m185.749 440.324 62.791 13.245 19.312 6.612s14.52 19.696 25.906 40.301c11.877 21.488 28.278 40.763 28.278 40.763s-2.81 9.249-10.523 18.274c-7.713 9.025-20.341 17.885-20.341 17.885l3.897 25.083-129.877 68.208s-8.865-28.628-16.39-67.469c-6.344-32.832-11.652-74.031-10.334-100.482.821-16.343 11.086-28.455 21.12-39.017a225.647 225.647 0 0 1 26.161-23.403Z" fill="#fff"/><path fill-rule="evenodd" clip-rule="evenodd" d="m510.607 566.533 16.189-66.579 3.504-4.019 62.63-53.838.505 2.597-29.804 122.829-2.895 5.395-71.31 91.223-2.509-1.615-145.477.497-4.178-3.942 14.262-11.415 109.829-81.846 49.254.713Z" fill="#CACBCD"/><path fill-rule="evenodd" clip-rule="evenodd" d="M10.646 345.888s12.219 3.21 21.944 3.468c5.75.18 11.489-.639 16.96-2.42 0 0 3.654 41.888 6.495 47.102.91 1.669 12.196 6.089 24.022 8.417 13.784 2.697 28.717 3.537 35.077 8.516 2.498 1.95 16.925 25.896 11.706 29.418-1.376.929-3.966-.3-6.603-3.391-3.083-3.595-6.341-9.437-9.948-13.168-4.029-4.161-9.703-4.874-9.703-4.874a51.006 51.006 0 0 1 9.29 16.111c2.02 5.816 5.292 15.168 5.917 20.555.636 5.48-1.392 6.937-2.405 7.403-1.542.682-8.033-14.162-13.41-21.965-7.432-10.759-14.012-15.615-14.012-15.615s6.857 12.536 11.001 25.63c2.745 8.663 3.693 18.848 2.849 21.226-1.496 4.2-4.78 2.855-7.64-1.503-4.468-6.813-9.12-20.721-13.673-30.343-5.396-11.445-9.027-9.391-9.181-9.106-.428.79 3.215 12.354 3.758 18.223 1.099 11.896-.436 21.742-4.109 21.238-4.39-.606-5.265-13.191-8.214-22.91-2.575-8.478-7.108-14.12-12.007-16.482-5.929-2.859-16.98-5.337-21.362-10.381-6.703-7.708-8.2-17.889-10.146-28.841-3.453-19.433-6.606-46.308-6.606-46.308Z" fill="#FFDEAD"/><path fill-rule="evenodd" clip-rule="evenodd" d="M202.632 347.136c1.985-1.984 4.587-1.233 9.174-3.784 7.574-4.208 18.17-11.719 22.742-13.441 8.121-3.056 18.247-3.677 35.003 2.312 4.599 1.645 15.804 6.166 20.842 5.992 9.228-.339.771 3.915.771 3.915s14.752 10.124 18.263 14.644c4.907 6.308 13.441 15.357 10.296 27.438-1.114 4.289-9.305 16.809-11.745 18.593-2.313 1.696-.871-2.439-.948-5.503a6.934 6.934 0 0 0-1.762-4.458l-16.301 14.235-85.958 6.909s3.446-8.131 1.646-15.522c-1.773-7.276-4.687-17.214-4.406-26.79.251-8.686 9.066-20.578 9.066-20.578s-9.401-1.237-6.683-3.962ZM324.692 95.5c7.193-4.15 17.966-7.201 30.216-7.375 8.48-.12 19.404.447 27.121 4.008 7.139 3.295 13.977 10.663 21.201 16.57 7.323 6.023 15.033 10.613 19.303 16.49 4.271 5.877 0 13.873 0 13.873s6.553 6.936 6.627 9.518c.281 12.332 0 24.921-6.939 31.253-6.136 5.611-19.007 5.661-19.007 5.661l-101.376-29.23s-6.714-1.233-7.189-3.73c-.435-2.312 5.327-5.634 6.249-11.087.52-3.083 3.253-12.744 6.352-19.368 3.577-7.649 7.544-12.123 7.544-12.123s-5.57 2.524-2.992-1.395c1.82-2.783 9.887-11.33 12.89-13.064Z" fill="#331C19"/><path fill-rule="evenodd" clip-rule="evenodd" d="M261.052 168.499s17.978 3.592 34.04-9.333c.501-.385 5.782-5.218 5.782-5.218s4.217-.196 7.035-1.375a23.6 23.6 0 0 0 4.583-2.494s-2.922-4.624-2.849-10.335c.081-6.123 3.377-13.411 10.223-15.453 6.036-1.8 16.224 13.78 23.351 14.871a31.73 31.73 0 0 0 12.874-.694s15.002 4.825 20.595 4.752c5.466-.07 12.212-.505 17.986-1.95 4.834-1.206 8.866-2.698 12.335.663 1.661 1.63.559 7.133 1.885 8.863 1.985 2.59 5.654 3.58 6.236 6.443.505 2.497-.281 7.357-1.106 9.731-3.604 10.404-11.826 18.921-20.213 25.873-7.629 6.319-12.042 15.248-15.153 18.593-8.63 9.28-28.524 19.191-40.273 20.694-12.365 1.58-16.363-5.511-16.363-5.511l-2.625 1.133s-2.312 12.085-8.892 20.201c-9.949 12.254-26.813 21.676-37.478 16.108-11.695-6.112-14.228-25.473-15.681-40.744-2.671-27.769 3.708-54.818 3.708-54.818ZM221.959 379.314c6.553-1.01 10.454 8.959 21.328 10.297 3.619.453 7.293.004 10.696-1.307 0 0 8.195 5.646 16.147 5.75 7.952.104 15.662-5.33 15.662-5.33s2.972 12.193 4.818 8.128c1.846-4.066 2.594-5.893 6.213-9.488a21.261 21.261 0 0 1 8.257-4.898s1.696 9.122-1.623 16.863c-2.794 6.521-9.945 14.825-9.467 21.195.224 2.998 2.086 7.095 2.699 10.308.173.937-5.142 4.351-8.947 6.278-2.656 1.345-10.288 12.809-10.288 12.809s-7.474 10.524-11.614 11.264c-7.081 1.272-18.953-8-18.953-8l-2 5.438s3.018 8.505 2.312 15.333c-.72 7.114-8.337 11.692-15.568 9.491-6.295-1.926-17.797-6.127-26.832-15.179-11.325-11.337-18.302-27.36-18.302-27.36a102.98 102.98 0 0 0 14.378-15.052c1.85-2.432 6.422-11.176 6.422-11.176s4.941-1.291 10.156-8.913a21.546 21.546 0 0 1-5.369-10.732c-1.072-5.646-.574-14.112 9.875-15.719Z" fill="#FFDEAD"/><path fill-rule="evenodd" clip-rule="evenodd" d="M320.275 545.92s2.96 1.892 7.809 6.478c5.162 4.89 12.424 12.578 18.98 15.711 12.832 6.127 25.483 6.775 42.174 10.285 9.613 2.019 15.356-.127 22.63.701 11.009 1.253 20.001-9.949 30.702-14.774 10.068-4.54 21.971-2.732 28.335-1.468 9.101 1.811 16.293 12.03 16.96 15.387.891 4.451-4.163 2.019-4.163 2.019l-1.684 2.378-4.348-.563-2.968 2.093-4.132-.544-2.425 1.958-4.14.316-5.608 3.468-10.319.875-7.324 1.503s8.773 6.058 7.293 8.478c-1.731 2.84-6.996 1.033-12.951-.127-5.956-1.16-8.558.82-8.558.82s14.906 3.881 20.754 10.621c3.037 3.499 7.219 10.019 7.088 13.333-.119 3.052-4.444 3.01-4.444 3.01.258.837.28 1.73.062 2.578-1.211 3.935-9.294-.771-15.889-3.954a34.013 34.013 0 0 0-8.318-2.77s12.5 10.451 9.682 12.882c-2.817 2.432-9.52-.104-16.085-3.006-6.992-3.083-14.497-4.836-19.099-2.697-6.168 2.859-17.562 10.297-25.256 12.574-10.546 3.121-23.228 3.796-34.753 5.646-45.596 7.321-90.999 7.707-86.192 7.919 6.915.316-14.648-.956-19.497-1.21-6.322-.336-12.393-7.395-20.125-16.444-7.443-8.705-16.671-19.414-16.671-19.414s14.848-5.823 25.055-12.921c10.207-7.098 15.715-15.472 15.715-15.472s13.591 15.06 19.801 19.78c3.261 2.478 60.868 7.322 91.292 7.962 20.264.42 28.047-10.771 28.047-10.771s-19.798 1.198-34.187-.447-23.374-6.131-23.374-6.131l-26.597-26.112s8.923-6.42 15.607-13.911c6.684-7.492 11.121-16.039 11.121-16.039Z" fill="#FFE1C7"/><path fill-rule="evenodd" clip-rule="evenodd" d="M362.309 470.578s12.812-3.41 21.466-7.584c8.653-4.173 13.159-9.094 13.159-9.094s3.628 8.347 9.637 21.499c4.101 8.944 9.124 21.784 15.584 29.222 6.46 7.437 22.711 5.611 38.635 8.455 23.424 4.188 47.084 11.56 45.484 16.489-.304.952-2.806 2.613-7.709 2.409-6.445-.262-16.455-2.629-25.205-2.956-10.08-.385-21.201 1.01-21.201 1.01s12.72 1.953 17.905 5.603c2.517 1.768 2.112 5.734-.147 6.628-3.153 1.248-11.949.736-20.352.509-15.364-.417-33.026-1.981-38.072-4.891-8.06-4.647-15.688-17.399-22.881-27.152-14.759-20.054-26.303-40.147-26.303-40.147Z" fill="#FFDEAD"/><path d="M527.352 470.513a1.586 1.586 0 0 1-1.565-1.942c.05-.224 5.397-22.085 25.969-21.222a1.588 1.588 0 0 1 1.514 1.653 1.632 1.632 0 0 1-1.649 1.515c-17.974-.844-22.561 17.977-22.742 18.778a1.584 1.584 0 0 1-1.527 1.218ZM512.442 467.545a1.59 1.59 0 0 1-1.55-1.93c2.918-13.068 12.161-34.756 40.928-33.526a1.575 1.575 0 0 1 1.119.503 1.57 1.57 0 0 1 .273 1.759 1.585 1.585 0 0 1-1.534.901c-13.9-.624-31.72 4.239-37.691 31.033a1.588 1.588 0 0 1-1.545 1.26Z" fill="#000"/><path d="M497.024 462.844a1.433 1.433 0 0 1-.262 0 1.579 1.579 0 0 1-1.299-1.823c3.889-23.252 20.348-47.237 54.82-44.952a1.586 1.586 0 0 1 .919 2.765c-.312.275-.72.418-1.135.395-10.303-.697-44.451.312-51.482 42.313a1.586 1.586 0 0 1-1.561 1.302ZM97.093 476.085a6.351 6.351 0 0 1-2.46-.566c-4.216-1.792-6.625-8.918-9.173-16.459-.971-2.871-1.885-5.58-2.856-7.815-3.909-8.991-9.167-17.079-11.795-19.245.084.289.173.597.258.898 1.156 3.965 3.292 11.341 3.854 19.584.748 11.241.081 16.424-2.378 18.497-.736.621-2.016 1.256-3.94.771-4.19-1.029-5.55-7.931-6.991-15.241-.525-2.648-1.018-5.149-1.62-7.191-2.004-6.786-6.664-13.896-10.615-16.185-1.075-.62-3.122-1.391-5.497-2.281-6.892-2.582-16.332-6.124-20.202-12.332-5.608-8.994-11.178-43.272-14.508-72.347a1.585 1.585 0 0 1 3.145-.362c4.144 36.108 9.66 63.992 14.05 71.033 3.303 5.291 12.524 8.751 18.63 11.04 2.605.979 4.667 1.75 5.97 2.509 4.714 2.728 9.787 10.312 12.065 18.023.644 2.185 1.156 4.752 1.688 7.476 1.018 5.16 2.413 12.232 4.626 12.779.77.185 1.021-.031 1.156-.135 2.19-1.838 1.484-12.389 1.253-15.854-.528-7.9-2.606-15.063-3.724-18.913-.948-3.264-1.202-4.143-.142-4.921a3.08 3.08 0 0 1 2.733-.466c6.075 1.645 14.805 21.391 14.894 21.58 1.021 2.358 1.958 5.125 2.949 8.058 2.008 5.938 4.502 13.325 7.412 14.562.359.15 1.234.474 1.6.208 1.541-1.121.813-8.508.47-12.061-.678-6.987-2.783-11.619-5.697-18.031-.455-.998-.925-2.039-1.415-3.133-2.023-4.544-4.475-8.906-6.098-11.792-2.313-4.085-2.594-4.625-1.981-5.615a1.629 1.629 0 0 1 1.357-.771c2.112 0 13.622 12.644 16.848 17.638 1.611 2.501 3.138 5.977 4.753 9.657 2.112 4.817 5.628 12.914 7.817 12.455a1.08 1.08 0 0 0 .825-.57c1.287-2.258-.285-9.7-4.676-22.116-4.155-11.75-7.485-15.299-16.497-23.827a1.59 1.59 0 0 1 .437-2.604 1.593 1.593 0 0 1 1.74.292c9.024 8.536 12.863 12.501 17.308 25.072 5.041 14.258 6.329 21.422 4.444 24.736a4.272 4.272 0 0 1-1.248 1.383 4.282 4.282 0 0 1-1.716.725c-4.657.921-7.902-6.467-11.333-14.29-1.495-3.402-3.041-6.936-4.517-9.213-2.09-3.237-5.397-7.049-8.403-10.182 1.249 2.313 2.61 4.975 3.831 7.708a342.35 342.35 0 0 0 1.403 3.109c2.93 6.44 5.239 11.523 5.967 19.037.721 7.457 1.018 12.89-1.75 14.917a3.699 3.699 0 0 1-2.25.771Z" fill="#000"/><path d="M125.082 441.962c-4.306 0-7.864-5.68-10.793-10.37-.821-1.307-1.592-2.544-2.282-3.492-3.254-4.458-5.848-6.716-12.62-8.285a1.585 1.585 0 0 1 .713-3.083c7.663 1.777 10.885 4.598 14.466 9.507.771 1.041 1.542 2.312 2.405 3.673 2.622 4.181 6.195 9.907 8.982 8.69.077-.035.231-.101.343-.536 1.102-4.239-6.507-18.652-9.961-23.21-3.234-4.274-9.316-5.418-18.502-7.149l-.836-.158a334.493 334.493 0 0 0-4.086-.736c-17.515-3.083-36.422-6.936-39.105-13.352-3.06-7.322-5.612-40.848-5.165-46.775a1.584 1.584 0 1 1 3.16.239c-.385 5.171 2.117 38.593 4.927 45.314 2.24 5.353 27.298 9.788 36.734 11.457 1.596.281 2.995.528 4.12.74l.837.158c9.93 1.869 16.49 3.102 20.46 8.35 2.961 3.97 12.077 19.769 10.47 25.935a3.755 3.755 0 0 1-2.136 2.636 5.266 5.266 0 0 1-2.131.447ZM254.569 658.969c-12.909 0-20.776-1.253-26.462-3.942-5.839-2.763-30.675-33.912-30.921-34.236a1.58 1.58 0 0 1 1.443-2.498c.406.04.781.235 1.047.544 6.842 8.713 25.752 31.415 29.784 33.326 7.709 3.646 20.765 4.443 46.583 2.844 17.091-1.059 38.874-4.104 56.37-6.551 10.793-1.51 20.144-2.817 26.527-3.422 16.536-1.541 25.502-6.936 32.047-10.848 2.413-1.445 4.495-2.697 6.588-3.564 9.42-3.919 17.446-1.364 23.386 1.302l1.734.771c4.051 1.842 9.606 4.366 10.947 3.168a.81.81 0 0 0 .297-.725c-.073-1.356-1.962-4.104-7.05-7.749-7-5.01-15.453-6.606-17.878-6.972a1.575 1.575 0 0 1-1.038-.626 1.574 1.574 0 0 1-.291-1.177c.031-.206.102-.403.21-.581a1.567 1.567 0 0 1 .976-.72c.202-.05.412-.06.617-.029 2.602.386 11.676 2.105 19.25 7.53 3.712 2.659 8.176 6.582 8.369 10.155a3.962 3.962 0 0 1-1.349 3.252c-2.884 2.582-8.207.158-14.37-2.644l-1.72-.77c-5.357-2.405-12.573-4.725-20.872-1.268-1.881.771-3.855 1.973-6.168 3.356-6.803 4.074-16.127 9.657-33.373 11.288-6.317.593-15.619 1.895-26.388 3.398-17.554 2.455-39.398 5.507-56.613 6.575-8.526.539-15.653.813-21.682.813Z" fill="#000"/><path d="M446.486 633.62c-2.957 0-6.26-1.965-10.165-4.289l-1.572-.929c-6.515-3.822-12.651-5.953-18.229-6.327a1.587 1.587 0 0 1 .212-3.164c6.075.408 12.678 2.697 19.62 6.763l1.584.936c4.406 2.617 7.887 4.69 9.999 3.469.07-.039.089-.05.1-.205.131-1.926-3.908-7.395-9.517-11.795-5.685-4.471-19.959-7.261-27.818-7.738a1.588 1.588 0 0 1-1.486-1.679 1.586 1.586 0 0 1 1.679-1.485c6.68.408 22.699 3.002 29.584 8.412 4.467 3.507 11.008 10.266 10.715 14.505a3.319 3.319 0 0 1-1.661 2.721 5.908 5.908 0 0 1-3.045.805Z" fill="#000"/><path d="M451.543 629.392a8.713 8.713 0 0 1-2.282-.327 1.58 1.58 0 0 1-.978-.738 1.586 1.586 0 0 1 .12-1.771 1.596 1.596 0 0 1 1.068-.599c.209-.024.42-.007.622.052 1.292.35 2.355.273 2.722-.197.424-.547.385-2.138-1.137-4.832-2.09-3.7-4.241-7.522-9.136-11.858-3.8-3.372-14.262-6.404-28.019-8.092a1.584 1.584 0 1 1 .386-3.141c8.561 1.064 23.809 3.63 29.73 8.883 5.289 4.69 7.682 8.928 9.795 12.67 2.559 4.532 1.888 7.033.875 8.336-.833 1.055-2.151 1.614-3.766 1.614Z" fill="#000"/><path d="M344.558 621.288c-18.14 0-43.588-2.867-63.84-5.152-7.023-.771-13.106-1.476-17.947-1.927a1.569 1.569 0 0 1-1.07-.566 1.582 1.582 0 0 1 1.367-2.582c4.888.462 10.966 1.156 18.005 1.927 27.256 3.083 68.45 7.707 81.12 3.333 7.709-2.663 17.029-10.189 23.208-15.168 2.463-1.988 4.41-3.557 5.782-4.447 4.537-2.975 16.301-6.52 24.088-8.863l1.927-.578c8.457-2.567 11.598-1.368 19.18 1.541l.471.178c6.499 2.451 13.903 5.846 13.491 10.404a3.895 3.895 0 0 1-.521 1.696 3.904 3.904 0 0 1-1.221 1.287c-2.467 1.661-7.324 1.249-15.746-1.326-5.555-1.695-6.476-1.472-10.921-.385-.747.185-1.592.385-2.559.609a1.586 1.586 0 0 1-1.895-1.189 1.583 1.583 0 0 1 1.19-1.894c.952-.22 1.777-.42 2.517-.601 4.625-1.133 6.209-1.515 12.589.435 9.347 2.856 12.192 2.312 13.059 1.727a.746.746 0 0 0 .355-.644c.061-.647-.59-3.083-11.448-7.16l-.49-.185c-7.254-2.782-9.702-3.722-17.122-1.468l-1.927.578c-7.147 2.154-19.115 5.78-23.263 8.478-1.229.805-3.218 2.408-5.52 4.262-6.348 5.121-15.946 12.856-24.164 15.696-4.128 1.425-10.712 1.984-18.695 1.984ZM253.975 610.456a1.572 1.572 0 0 1-1.21-.566c-.969-1.144-1.915-2.256-2.837-3.338-4.052-4.743-7.875-9.225-11.514-14.863a1.584 1.584 0 0 1 .497-2.148c.345-.223.764-.303 1.168-.223.404.08.76.314.995.652 3.527 5.461 7.111 9.661 11.263 14.528a512.172 512.172 0 0 1 2.848 3.357 1.587 1.587 0 0 1 .223 1.685c-.128.273-.33.504-.583.667a1.59 1.59 0 0 1-.85.249Z" fill="#000"/><path d="M360.582 610.267c-22.831 0-34.988-2.266-41.503-7.402-7.254-5.719-13.387-12.586-18.795-18.644-2.216-2.482-4.305-4.825-6.229-6.798a1.589 1.589 0 0 1-.352-1.75 1.6 1.6 0 0 1 .883-.858 1.593 1.593 0 0 1 1.23.033c.193.087.366.212.51.367 1.969 2.023 4.082 4.389 6.321 6.894 5.323 5.962 11.356 12.717 18.394 18.27 7.27 5.73 23.799 7.568 57.048 6.37a1.66 1.66 0 0 1 1.642 1.541 1.592 1.592 0 0 1-.428 1.143 1.571 1.571 0 0 1-1.113.499c-6.468.216-12.324.335-17.608.335ZM342.843 567.589a1.575 1.575 0 0 1-1.025-.386c-5.933-5.059-21.016-18.929-22.087-21.703a1.582 1.582 0 0 1 2.097-1.967c.376.152.679.442.848.811.917 1.811 12.978 13.453 21.2 20.462a1.583 1.583 0 0 1-1.029 2.787l-.004-.004ZM440.241 592.849a1.586 1.586 0 0 1-1.553-1.33 1.588 1.588 0 0 1 1.052-1.753c3.354-1.121 6.26-1.26 9.336-1.41a52.865 52.865 0 0 0 7.49-.748c3.677-.678 5.196-2.524 5.323-3.603.023-.208.096-.84-.871-1.268-1.091-.478-4.518-.251-7.266-.066-1.874.128-3.812.259-5.455.228-1.892-.035-3.226-.15-4.768-.281-2.089-.182-4.459-.386-9.058-.459a1.583 1.583 0 0 1-1.05-2.682 1.585 1.585 0 0 1 1.073-.482h.023c4.714.073 7.143.281 9.286.466 1.484.128 2.768.239 4.548.27 1.519 0 3.381-.096 5.189-.22 3.735-.246 6.938-.462 8.753.328 1.928.844 2.969 2.582 2.741 4.532-.27 2.312-2.498 5.356-7.894 6.351-2.616.452-5.26.719-7.914.797-2.971.143-5.542.266-8.48 1.249a1.603 1.603 0 0 1-.505.081Z" fill="#000"/><path d="M485.401 582.791c-3.291 0-6.645-2.906-9.655-5.515-1.654-1.433-3.362-2.913-4.533-3.387-6.091-2.466-13.437-2.177-16.02-.886-2.818 1.406-9.031 6.243-11.564 8.397a1.594 1.594 0 0 1-1.747.197 1.566 1.566 0 0 1-.782-.924 1.59 1.59 0 0 1 .102-1.207c.095-.184.225-.348.384-.482 2.452-2.078 8.931-7.176 12.204-8.814 3.612-1.807 11.949-1.926 18.625.771 1.658.671 3.469 2.254 5.424 3.931 2.729 2.366 6.129 5.318 8.225 4.624.567-2.031-8.094-12.277-12.859-14.227-2.517-1.033-8.981-2.062-14.713-2.347-5.288-.262-8.661.239-12.874 1.896-2.085.824-5.115 2.72-8.619 4.913-7.412 4.624-16.636 10.405-24.473 10.817-19.226 1.006-34.136-2.536-46.124-5.395-6.452-1.541-12.026-2.848-17.168-3.252a1.594 1.594 0 0 1-1.081-.553 1.579 1.579 0 0 1-.372-1.155c.01-.209.064-.414.157-.601a1.54 1.54 0 0 1 1.546-.851c5.397.427 11.067 1.772 17.651 3.329 11.787 2.794 26.461 6.262 45.226 5.299 7.015-.385 15.857-5.896 22.958-10.339 3.638-2.278 6.78-4.239 9.135-5.176 5.281-2.081 9.351-2.358 14.193-2.111 5.219.258 12.516 1.248 15.757 2.574 4.899 2.004 14.972 12.435 14.779 17.341a2.977 2.977 0 0 1-2.151 2.855 5.201 5.201 0 0 1-1.631.278Z" fill="#000"/><path d="M480.626 584.583a8.108 8.108 0 0 1-1.854-.251c-2.594-.628-4.853-2.312-7.038-3.946a31.883 31.883 0 0 0-3.103-2.146c-2.221-1.272-5.397-1.125-8.481-.987-.963.043-1.9.085-2.79.085a1.585 1.585 0 1 1 0-3.168c.844 0 1.734-.038 2.648-.081 3.361-.15 7.165-.319 10.176 1.403a34.075 34.075 0 0 1 3.431 2.359c1.927 1.437 3.924 2.928 5.886 3.402 1.603.386 1.8.201 2.201-.998a1.593 1.593 0 0 1 1.394-1.142 1.588 1.588 0 0 1 1.711 1.518c.009.214-.026.427-.103.626-.886 2.652-2.536 3.326-4.078 3.326Z" fill="#000"/><path d="M474.292 585.843a9.419 9.419 0 0 1-3.014-.632c-1.029-.362-1.973-.771-2.895-1.156-3.311-1.38-5.924-2.459-11.255-1.657a1.584 1.584 0 0 1-.474-3.129c6.202-.948 9.478.42 12.947 1.865.868.362 1.758.732 2.733 1.075a6.115 6.115 0 0 0 1.989.455v-1.091a1.584 1.584 0 0 1 3.169 0v.332c.042.832.115 2.385-1.157 3.325a3.301 3.301 0 0 1-2.043.613Z" fill="#000"/><path d="M464.969 587.539a14.822 14.822 0 0 1-2.216-.185 1.588 1.588 0 0 1-1.263-1.792 1.585 1.585 0 0 1 1.737-1.338c3.218.482 3.685-.208 4.378-1.26l.143-.212a1.584 1.584 0 1 1 2.633 1.758l-.131.196c-.987 1.499-2.167 2.833-5.281 2.833ZM487.622 664.402H342.304c-.667-.061-3.276-.385-4.626-1.803-1.568-1.626-1.075-4.108-1.013-4.385.08-.355.278-.672.562-.898l13.453-10.659a1.583 1.583 0 0 1 1.966 2.481l-12.936 10.251c-.034.356.054.714.25 1.013.386.42 1.719.771 2.514.841h144.763a1.577 1.577 0 0 1 1.653 2.539 1.737 1.737 0 0 1-1.268.62ZM510.009 567.454H478.17a1.584 1.584 0 0 1 0-3.168h31.839a1.584 1.584 0 0 1 0 3.168ZM90.68 711a1.58 1.58 0 0 1-.737-2.983l126.782-66.44a1.586 1.586 0 0 1 2.098.689 1.588 1.588 0 0 1-.63 2.117L91.412 710.819c-.226.12-.478.182-.733.181ZM273.784 615.069a1.588 1.588 0 0 1-1.539-1.205 1.58 1.58 0 0 1 .803-1.782l35.848-18.775a1.584 1.584 0 0 1 1.472 2.806l-35.848 18.774c-.227.12-.479.182-.736.182ZM356.458 571.754a1.583 1.583 0 0 1-.74-2.986l58.651-30.729a1.582 1.582 0 0 1 2.099.689 1.583 1.583 0 0 1-.63 2.117l-58.648 30.728a1.57 1.57 0 0 1-.732.181ZM462.714 515.746a1.582 1.582 0 0 1-1.445-2.234 1.58 1.58 0 0 1 .708-.752l34.087-17.858a1.582 1.582 0 0 1 2.098.689 1.587 1.587 0 0 1-.63 2.117l-34.086 17.857a1.57 1.57 0 0 1-.732.181Z" fill="#000"/><path d="M463.373 544.232c-1.8 0-3.732-.116-5.69-.231-2.258-.139-4.594-.301-6.822-.251-1.847 0-3.697.054-5.52.085-6.491.123-12.62.235-17.18-.301l-1.303-.15c-8.353-.959-15.565-1.784-24.75-12.139-9.186-10.354-35.663-50.62-40.809-59.777a1.58 1.58 0 0 1 .659-2.06 1.582 1.582 0 0 1 2.101.519c5.107 9.083 31.303 48.941 40.415 59.226 8.384 9.453 14.721 10.177 22.743 11.094l1.318.154c4.344.509 10.369.386 16.744.282 1.831-.035 3.693-.07 5.547-.089 2.313-.027 4.733.116 7.046.254 5.894.355 11.464.694 12.335-2.142a1.248 1.248 0 0 0-.147-1.156c-.863-1.368-4.178-3.314-15.032-4.821-5.131-.713-12.509-2-18.533-4.081a1.585 1.585 0 0 1-.907-.803 1.585 1.585 0 0 1 .731-2.115 1.585 1.585 0 0 1 1.209-.072c5.782 1.992 12.947 3.237 17.935 3.934 6.792.94 14.89 2.505 17.273 6.262a4.408 4.408 0 0 1 .489 3.777c-1.164 3.784-5.061 4.601-9.852 4.601Z" fill="#000"/><path d="M499.514 533.677c-4.437 0-10.311-.986-16.714-2.185-1.7-.316-3.168-.593-4.24-.771-4.965-.739-13.491-.177-21.751.363-2.552.169-5.081.335-7.482.462a1.583 1.583 0 0 1-.17-3.16c2.39-.127 4.903-.293 7.444-.458 8.418-.555 17.126-1.13 22.426-.34 1.106.166 2.617.447 4.363.771 13.564 2.54 20.668 2.821 21.112.852.254-1.133-2.756-2.767-8.951-4.852-3.149-1.06-11.124-3.641-17.172-4.709-5.084-.902-10.153-1.48-15.519-2.089-3.974-.45-8.094-.917-12.492-1.541a1.583 1.583 0 0 1 .447-3.133c4.371.624 8.453 1.087 12.4 1.542 5.42.612 10.539 1.198 15.719 2.115 6.256 1.106 14.412 3.746 17.631 4.829 5.077 1.707 12.034 4.05 11.028 8.543-.644 2.755-3.646 3.761-8.079 3.761Z" fill="#000"/><path d="M476.61 519.007c-.187 0-.372-.033-.548-.097a69.652 69.652 0 0 0-15.835-3.907 54.774 54.774 0 0 1-5.824-1.06c-2.621-.667-6.456-.987-10.519-1.318-8.638-.713-18.425-1.518-22.873-6.092-5.366-5.519-15.542-29.399-24.67-51.353l-.277-.663a1.583 1.583 0 1 1 2.925-1.21l.274.659c6.044 14.547 18.614 44.813 24.01 50.358 3.62 3.723 13.179 4.513 20.861 5.145 4.198.347 8.165.67 11.04 1.407 1.814.43 3.651.762 5.501.994a73.247 73.247 0 0 1 16.482 4.081 1.588 1.588 0 0 1 1.05 1.776 1.588 1.588 0 0 1-1.597 1.307v-.027ZM33.218 350.789c-11.783 0-25.725-2.451-27.95-7.352-1.926-4.239-2.277-12.867-2.728-23.804-.216-5.175-.455-11.044-.898-16.983C.3 284.72-.116 261.579.027 253.667c.331-18.736 2.004-31.903 21.427-43.719 18.977-11.56 102.598-51.946 126.817-58.67 2.806-.771 5.55-1.58 8.256-2.363 21.012-6.096 39.151-11.36 61.485-2.138 6.167 2.551 14.705 6.551 22.946 10.404 6.939 3.245 13.465 6.312 18.379 8.42 11.132 4.775 25.19.551 39.575-11.888a1.593 1.593 0 0 1 1.163-.416 1.584 1.584 0 0 1 .911 2.809c-15.353 13.28-30.582 17.684-42.898 12.405-4.964-2.127-11.525-5.206-18.471-8.478-8.21-3.854-16.702-7.834-22.815-10.355-21.301-8.797-38.955-3.68-59.392 2.251-2.698.77-5.474 1.587-8.291 2.37C125.081 161 41.972 201.162 23.085 212.65 5.003 223.656 3.5 235.509 3.175 253.725c-.138 7.862.274 30.856 1.608 48.69.447 5.989.69 11.885.906 17.087.42 10.174.77 18.96 2.448 22.628 1.541 3.415 18.502 6.652 32.232 5.137 7.015-.771 11.506-2.67 12.015-5.079.732-3.491.77-6.551.794-11.214.03-3.784.07-8.478.524-15.075.32-4.586.917-10.678 1.542-17.129 1.118-11.364 2.386-24.247 2.463-32.478a1.581 1.581 0 0 1 1.584-1.569 1.575 1.575 0 0 1 1.116.475 1.587 1.587 0 0 1 .453 1.125c-.077 8.37-1.35 21.325-2.475 32.755-.632 6.428-1.23 12.501-1.542 17.041-.447 6.485-.485 11.14-.516 14.882-.039 4.667-.066 8.039-.863 11.842-.84 3.981-5.948 6.601-14.767 7.573-2.485.257-4.98.382-7.479.373Z" fill="#000"/><path d="M56.366 257.694a1.578 1.578 0 0 1-1.423-.882c-.046-.096-4.745-9.522-10.503-13.634a1.588 1.588 0 0 1-.666-1.661 1.587 1.587 0 0 1 1.308-1.221 1.582 1.582 0 0 1 1.196.304c6.414 4.578 11.302 14.397 11.506 14.809a1.588 1.588 0 0 1-.72 2.124 1.606 1.606 0 0 1-.698.161ZM169.49 224.234c-.287 0-.568-.079-.813-.228a1.58 1.58 0 0 1-.753-1.591c.031-.206.102-.404.209-.582 10.666-17.727 21.806-38.864 23.575-61.141a1.555 1.555 0 0 1 .547-1.084 1.558 1.558 0 0 1 1.157-.369 1.586 1.586 0 0 1 1.453 1.703c-1.823 22.933-13.164 44.475-24.018 62.525a1.59 1.59 0 0 1-1.357.767ZM68.014 263.822a1.587 1.587 0 0 1-1.583-1.458 1.586 1.586 0 0 1 1.333-1.691c9.694-1.568 20.587-5.044 32.116-8.728 15.153-4.836 30.837-9.842 47.092-11.815a1.583 1.583 0 1 1 .385 3.144c-15.969 1.927-31.496 6.895-46.509 11.688-11.645 3.719-22.646 7.234-32.576 8.841a2.027 2.027 0 0 1-.258.019ZM77.843 403.484a1.586 1.586 0 0 1-1.5-2.093c4.665-13.672 9.934-29.418 13.665-42.59 4.051-14.289 6.468-31.06 9.529-52.293 1.823-12.663 3.889-27.014 6.699-43.727a1.588 1.588 0 0 1 1.207-1.282 1.588 1.588 0 0 1 1.919 1.806c-2.806 16.675-4.868 31.01-6.692 43.654-3.083 21.353-5.504 38.212-9.613 52.705-3.754 13.241-9.039 29.037-13.715 42.748a1.579 1.579 0 0 1-1.499 1.072ZM104.478 501.307a1.574 1.574 0 0 1-.462-.066c-47.2-14.351-47.951-31.9-47.057-36.936.647-3.657 1.808-7.738 3.47-13.133a1.586 1.586 0 0 1 1.996-1.103 1.593 1.593 0 0 1 .947.799 1.583 1.583 0 0 1 .082 1.236c-1.627 5.283-2.76 9.249-3.38 12.752-1.608 9.044 9.335 22.555 44.859 33.352a1.583 1.583 0 0 1-.458 3.083l.003.016ZM362.29 471.604c-2.833 0-5.161-.648-6.588-2.212-3.11-3.426-4.344-6.598-5.782-10.274-1.703-4.389-3.634-9.364-9.42-16.759-8.916-11.395-13.607-23.38-18.575-36.066-1.878-4.802-3.824-9.773-6.041-14.805a1.581 1.581 0 0 1 2.895-1.276c2.267 5.094 4.194 10.093 6.121 14.929 4.88 12.462 9.486 24.235 18.117 35.268 6.075 7.761 8.183 13.198 9.879 17.565 1.365 3.518 2.444 6.296 5.165 9.287 2.425 2.67 12.682.693 23.348-4.497 10.604-5.16 15.877-10.602 15.449-13.103-.721-4.239-2.698-9.352-5.705-17.09-3.13-8.066-7.42-19.114-12.558-35.103-5.458-16.955-10.851-41.8-15.607-63.707-4.032-18.559-7.841-36.089-10.913-45.191-6.121-18.131-15.145-35.615-19.485-44.02l-1.071-2.081a1.578 1.578 0 0 1 .157-1.798 1.594 1.594 0 0 1 1.109-.568 1.59 1.59 0 0 1 1.551.925l1.068 2.069c4.375 8.478 13.491 26.101 19.659 44.463 3.126 9.249 6.938 26.883 11.004 45.53 4.742 21.839 10.119 46.59 15.527 63.411 5.111 15.9 9.378 26.894 12.496 34.925 3.084 7.919 5.104 13.149 5.879 17.707.936 5.53-8.265 12.139-17.188 16.482-6.588 3.199-14.624 5.989-20.491 5.989ZM280.441 267.182c-5.705 0-10.543-2.27-13.746-6.485-16.023-21.107-12.273-77.072-7.393-91.716a1.587 1.587 0 0 1 2.004-1.002 1.586 1.586 0 0 1 1.003 2.004c-5.354 16.062-7.486 69.858 6.911 88.818 2.845 3.749 7.162 5.545 12.473 5.194 9.124-.605 22.847-8.239 34.006-27.853a1.582 1.582 0 0 1 2.128-.541 1.586 1.586 0 0 1 .624 2.105c-9.852 17.341-23.856 28.609-36.546 29.449-.497.012-.982.027-1.464.027Z" fill="#000"/><path d="M59.584 700.788a1.586 1.586 0 0 1-1.573-1.414c-6.73-62.544-8.835-92.521-9.382-133.647-.56-41.834 1.777-65.511 9.25-93.858a1.598 1.598 0 0 1 1.327-1.174c.207-.028.418-.016.62.037a1.604 1.604 0 0 1 .972.738 1.59 1.59 0 0 1 .166 1.208c-7.401 28.028-9.71 51.496-9.155 93.007.547 41.01 2.644 70.906 9.363 133.334a1.584 1.584 0 0 1-.814 1.558 1.589 1.589 0 0 1-.59.184 1.44 1.44 0 0 1-.184.027ZM141.537 683.794a1.588 1.588 0 0 1-1.542-1.156c-18.598-66.444-37.089-112.498-48.136-140.013-8.222-20.489-11.013-27.746-9.972-30.852 3.542-10.632 50.326-22.593 59.665-24.882a1.58 1.58 0 0 1 1.203.179c.179.107.335.249.46.416a1.6 1.6 0 0 1 .295 1.18 1.59 1.59 0 0 1-1.187 1.308c-31.43 7.707-55.58 17.294-57.433 22.805-.725 2.181 3.966 13.873 9.91 28.671 11.07 27.576 29.599 73.731 48.248 140.344a1.586 1.586 0 0 1-1.099 1.95c-.135.034-.273.05-.412.05Z" fill="#000"/><path d="M132.887 687.678a1.59 1.59 0 0 1-1.542-1.156c-18.228-65.01-35.894-108.987-46.448-135.261-7.87-19.588-10.538-26.524-9.497-29.646.925-2.774 4.217-7.484 6.819-10.948a1.584 1.584 0 0 1 2.532 1.9c-3.427 4.563-5.74 8.227-6.345 10.05-.728 2.181 3.755 13.337 9.429 27.461 10.58 26.339 28.285 70.413 46.559 135.588a1.586 1.586 0 0 1-.141 1.205 1.575 1.575 0 0 1-.953.749 1.646 1.646 0 0 1-.413.058ZM294.965 603.504a1.588 1.588 0 0 1-1.541-1.291l-.097-.52c-1.877-10.02-3.82-20.39-4.544-31.214-1.288-19.176-3.238-39.565-5.35-55.947a1.585 1.585 0 0 1 1.368-1.838 1.602 1.602 0 0 1 1.198.347 1.578 1.578 0 0 1 .575 1.106c2.12 16.439 4.078 36.902 5.366 56.139.717 10.655 2.64 20.929 4.502 30.863l.096.517a1.59 1.59 0 0 1-1.268 1.849 1.48 1.48 0 0 1-.305-.011ZM164.163 671.454a1.59 1.59 0 0 1-.967-.316 1.593 1.593 0 0 1-.574-.84c-4.884-17.931-9.251-36.49-13.692-58.393-7.786-38.332-12.026-72.159-12.604-100.544-.544-26.59 16.008-42.428 29.295-55.149 4.799-4.586 9.636-8.424 14.289-12.135 10.523-8.366 20.46-16.27 26.982-30.829a1.592 1.592 0 0 1 .88-.831 1.602 1.602 0 0 1 1.211.036 1.592 1.592 0 0 1 .831.88 1.581 1.581 0 0 1-.035 1.21c-6.838 15.264-17.068 23.399-27.904 32.016-4.625 3.665-9.374 7.456-14.069 11.946-12.855 12.289-28.848 27.588-28.335 52.794.578 28.193 4.795 61.831 12.543 99.974 4.44 21.826 8.796 40.324 13.691 58.177a1.582 1.582 0 0 1-.835 1.843c-.22.107-.462.163-.707.161Z" fill="#000"/><path d="M203.557 508.76a1.579 1.579 0 0 1-1.156-.501c-17.45-18.628-31.943-26.474-45.566-24.721a1.58 1.58 0 0 1-1.635-.766 1.574 1.574 0 0 1-.152-1.236 1.578 1.578 0 0 1 .79-.964c.19-.099.398-.158.612-.175 14.74-1.899 30.066 6.266 48.283 25.696a1.582 1.582 0 0 1-1.157 2.667h-.019ZM188.632 623.188c-2.37 0-4.286-.508-5.516-1.676-3.827-3.638-13.949-16.956-24.8-37.214-4.444-8.289-7.709-15.091-10.635-22.054a1.57 1.57 0 0 1-.141-.614 1.564 1.564 0 0 1 .109-.62 1.574 1.574 0 0 1 1.481-1.005c.212.001.422.044.617.127a1.591 1.591 0 0 1 .856.89c2.872 6.867 6.113 13.584 10.504 21.781 11.949 22.327 21.716 34.062 24.191 36.412 3.855 3.68 26.08-4.801 38.966-14.867 10.847-8.478 17.153-17.341 14.991-21.094-2.336-4.05-20.329-35.75-29.993-52.795l-5.697-10.019a1.581 1.581 0 0 1 .617-2.123 1.584 1.584 0 0 1 2.139.562l5.693 10.02c9.664 17.025 27.653 48.717 29.985 52.759 3.762 6.528-5.685 17.28-15.804 25.168-9.116 7.152-27.475 16.362-37.563 16.362ZM235.809 484.925c-6.846 0-15.496-3.426-24.142-9.707a79.258 79.258 0 0 1-26.4-33.422 1.58 1.58 0 0 1-.009-1.222 1.584 1.584 0 0 1 2.939.016c5.103 12.385 14.335 24.073 25.332 32.065 9.818 7.137 19.797 10.44 26.053 8.609 6.811-1.984 6.962-9.541 5.886-15.53a1.582 1.582 0 0 1 2.458-1.561c.343.235.581.595.661 1.003 2.482 13.873-4.021 17.934-8.118 19.129a16.645 16.645 0 0 1-4.66.62ZM291.184 578.949a1.586 1.586 0 0 1-1.423-2.292c.162-.324.43-.583.76-.733 13.106-6.008 29.21-30.332 29.681-33.993.196-1.541-1.928-4.061-5.173-7.865a181.048 181.048 0 0 1-16.795-22.697c-2.633-4.201-5.331-9.137-8.191-14.359-6.483-11.853-13.838-25.287-23.293-35.511a1.58 1.58 0 0 1 .164-2.142 1.584 1.584 0 0 1 2.149-.008c9.725 10.509 17.176 24.127 23.748 36.143 2.837 5.179 5.512 10.073 8.094 14.196a178.332 178.332 0 0 0 16.521 22.328c4.048 4.763 6.276 7.384 5.902 10.312-.629 4.948-17.477 30.058-31.496 36.478a1.61 1.61 0 0 1-.648.143ZM303.168 350.832a1.59 1.59 0 0 1-1.394-.833 1.583 1.583 0 0 1 .072-1.622c.112-.169 11.144-16.902 16.189-27.803a1.593 1.593 0 0 1 .891-.824 1.59 1.59 0 0 1 1.712.41 1.578 1.578 0 0 1 .277 1.739c-5.135 11.122-15.951 27.53-16.409 28.224a1.583 1.583 0 0 1-1.338.709ZM315.317 154.769a1.576 1.576 0 0 1-1.075-.42c-6.345-5.888-8.53-17.472-4.502-23.834 1.156-1.842 5.454-7.877 11.71-8.178 4.055-.177 7.818 1.978 11.29 6.467a1.583 1.583 0 0 1-2.502 1.926c-2.806-3.622-5.7-5.364-8.634-5.244-4.733.227-8.229 5.19-9.185 6.705-3.188 5.033-1.157 15.029 3.978 19.823a1.581 1.581 0 0 1-1.08 2.74v.015Z" fill="#000"/><path d="M320.136 143.424h-.077a1.586 1.586 0 0 1-1.508-1.653c.051-1.041.097-4.05-.262-5.515a1.588 1.588 0 0 1 3.084-.751c.532 2.169.385 5.984.351 6.412a1.589 1.589 0 0 1-1.588 1.507ZM333.916 233.671a19.182 19.182 0 0 1-2.699-.181c-9.251-1.356-15.935-9.78-21.069-26.524-1.222-3.973-2.498-10.89-2.848-15.415-.563-7.214.454-13.996 3.631-24.189a1.582 1.582 0 1 1 3.025.941c-3.045 9.776-4.028 16.227-3.5 23.002a82.301 82.301 0 0 0 2.699 14.736c4.737 15.437 10.615 23.164 18.502 24.32 7.509 1.094 21.25-4.023 30.837-9.249 6.552-3.576 12.62-8.262 16.258-12.535.987-1.157 2.109-2.575 3.362-4.147 2.663-3.356 5.978-7.53 9.667-11.353 2.039-2.115 3.808-3.749 5.52-5.333 2.744-2.539 5.338-4.94 8.48-8.863 3.646-4.536 6.633-10.975 7.998-17.222.416-1.927.771-4.239-.069-5.345-.567-.72-1.824-1.11-3.735-1.156a1.584 1.584 0 0 1-1.542-1.622 1.532 1.532 0 0 1 .48-1.12c.151-.144.331-.256.528-.328.196-.073.405-.105.614-.094 2.942.074 4.954.852 6.145 2.37 1.657 2.112 1.303 5.079.67 7.973-1.46 6.702-4.683 13.63-8.615 18.528-3.311 4.124-5.986 6.602-8.819 9.222-1.677 1.541-3.415 3.156-5.396 5.206-3.581 3.715-6.842 7.823-9.467 11.126-1.276 1.603-2.421 3.048-3.427 4.238-3.855 4.555-10.288 9.515-17.153 13.265-7.015 3.799-20.557 9.749-30.077 9.749Z" fill="#000"/><path d="M304.702 237.248a1.581 1.581 0 0 1-1.526-1.156 1.59 1.59 0 0 1 .701-1.781c.86-.52 1.808-1.125 2.826-1.773 3.993-2.531 8.958-5.687 13.73-7.391a1.585 1.585 0 0 1 1.067 2.983c-4.436 1.584-9.251 4.624-13.105 7.083a170.464 170.464 0 0 1-2.88 1.803 1.538 1.538 0 0 1-.813.232ZM362.417 202.345a35.27 35.27 0 0 1-2.236-.077 1.587 1.587 0 0 1-1.375-2.289c.095-.19.227-.36.388-.498a1.594 1.594 0 0 1 1.18-.373c5.971.386 6.322-.832 6.634-1.892.15-.509.277-1.156.432-1.927.478-2.404 1.133-5.691 2.964-8.624 2.675-4.285 7.243-6.343 11.355-7.792a1.588 1.588 0 0 1 2.022.969 1.583 1.583 0 0 1-.969 2.021c-3.778 1.326-7.571 3.033-9.722 6.478-1.541 2.443-2.112 5.395-2.544 7.565-.173.875-.331 1.634-.501 2.216-.979 3.306-3.635 4.223-7.628 4.223Z" fill="#000"/><path fill-rule="evenodd" clip-rule="evenodd" d="M338.634 192.418s4.972 7.01 9.887 12.239c4.914 5.23 11.116 9.804 11.116 9.804s-14.1 8.524-21.416-.659c-7.316-9.183.413-21.384.413-21.384Z" fill="#fff"/><path d="M347.592 219.609c-3.889 0-7.755-1.244-10.607-4.824-7.926-9.95-.027-22.682.312-23.218a1.583 1.583 0 0 1 2.629-.069c.05.069 4.972 6.986 9.748 12.073 4.776 5.087 10.843 9.568 10.905 9.611a1.587 1.587 0 0 1 .644 1.348 1.587 1.587 0 0 1-.764 1.284c-2.96 1.792-7.929 3.795-12.867 3.795Zm-8.734-24.204c-1.681 3.68-4.198 11.384.605 17.407 4.803 6.023 13.279 3.167 17.23 1.372a90.383 90.383 0 0 1-9.328-8.447 126.572 126.572 0 0 1-8.507-10.328v-.004Z" fill="#000"/><path fill-rule="evenodd" clip-rule="evenodd" d="M358.651 168.869c2.251-1.996 5.527-2.474 7.323-1.063 1.797 1.41 1.415 4.169-.836 6.165-2.251 1.997-5.524 2.474-7.324 1.068-1.8-1.407-1.415-4.17.837-6.17Z" fill="#000"/><path d="M378.478 165.031a1.588 1.588 0 0 1-1.503-1.083c-2.436-7.322-12.874-9.31-12.978-9.329a1.598 1.598 0 0 1-1.266-1.224 1.588 1.588 0 0 1 1.214-1.884c.204-.044.414-.047.618-.01.505.093 12.385 2.351 15.419 11.445a1.58 1.58 0 0 1-.086 1.21 1.582 1.582 0 0 1-1.418.875ZM401.714 185.413a1.586 1.586 0 0 1-1.495-1.06c-1.901-5.395-6.553-6.374-6.765-6.412a1.585 1.585 0 0 1-.584-2.839 1.585 1.585 0 0 1 1.158-.275c.27.05 6.649 1.287 9.178 8.478a1.583 1.583 0 0 1-1.492 2.108ZM299.282 156.295c-2.941 0-5.173-.732-6.044-2.081-.366-.57-1.326-2.601 1.781-4.84s4.81-8.343 6.599-14.79c1.206-4.347 2.451-8.863 4.298-13.056 4.883-11.137 14.558-17.075 14.971-17.322a1.58 1.58 0 0 1 2.056.598 1.584 1.584 0 0 1-.418 2.099c-.092.054-9.251 5.692-13.707 15.885-1.757 4.004-2.972 8.389-4.147 12.632-2.024 7.303-3.774 13.607-7.798 16.509a4.164 4.164 0 0 0-.771.693c1.457.837 8.179 1.025 15.387-3.125a1.588 1.588 0 0 1 2.206.557 1.584 1.584 0 0 1-.625 2.187c-4.845 2.794-9.926 4.054-13.788 4.054ZM395.874 104.179a1.588 1.588 0 0 1-1.156-.478c-.158-.161-15.993-16.185-32.467-13.136a1.586 1.586 0 0 1-1.813-1.275 1.58 1.58 0 0 1 1.234-1.84c18.117-3.379 34.622 13.33 35.316 14.039a1.59 1.59 0 0 1 .329 1.725 1.588 1.588 0 0 1-1.462.973l.019-.008ZM348.798 141.301c-5.963 0-10.997-1.985-14.589-5.839a1.58 1.58 0 0 1-.355-1.779 1.588 1.588 0 0 1 1.55-.945 1.599 1.599 0 0 1 1.117.566c4.287 4.602 11.225 5.97 19.524 3.854a1.589 1.589 0 0 1 .771 3.083 32.685 32.685 0 0 1-8.018 1.06ZM222.915 410.069a1.585 1.585 0 0 1-.589-.116c-7.71-3.113-13.665-12.77-12.235-19.876.416-2.054 2.197-8.956 7.709-11.376 3.543-1.542 7.709-.91 12.385 1.927a1.58 1.58 0 0 1 .842 1.623 1.585 1.585 0 0 1-2.488 1.074c-3.731-2.266-6.938-2.851-9.467-1.734-4.132 1.811-5.554 7.426-5.893 9.106-1.122 5.565 4.082 13.8 10.311 16.308a1.584 1.584 0 0 1-.594 3.056l.019.008Z" fill="#000"/><path d="M223.342 398.258a1.588 1.588 0 0 1-1.503-1.087c-.312-.944-1.295-3.649-2.112-4.832-.224-.346-.304-.765-.224-1.169a1.586 1.586 0 0 1 1.815-1.254c.406.068.77.292 1.015.623 1.221 1.769 2.386 5.249 2.517 5.642a1.59 1.59 0 0 1-.091 1.207 1.569 1.569 0 0 1-.919.789c-.161.053-.329.08-.498.081ZM263.427 462.274c-3.211 0-6.745-1.245-10.692-3.722-8.23-5.164-19.493-15.581-25.098-25.5a1.578 1.578 0 0 1 .052-1.838 1.581 1.581 0 0 1 1.756-.55 1.587 1.587 0 0 1 .948.847c5.293 9.356 16.328 19.545 24.026 24.374 7.374 4.624 12.261 4.351 16.883-.975 3.67-4.239 7.709-9.703 10.635-13.7.825-1.125 1.58-2.154 2.239-3.032 1.928-2.59 4.545-3.534 6.638-4.289 1.542-.559 2.899-1.045 3.65-2.031 1.342-1.761.671-3.53-.532-6.266-.647-1.468-1.318-2.987-1.453-4.574-.385-4.424.228-6.232 4.626-13.812 3.92-6.724 7.62-13.071 6.464-24.231a1.572 1.572 0 0 1 .319-1.201 1.575 1.575 0 0 1 1.087-.601c.212-.022.427-.001.631.063a1.569 1.569 0 0 1 .947.803c.096.191.152.399.165.612 1.264 12.185-2.875 19.268-6.876 26.151-4.41 7.564-4.51 8.636-4.24 11.946.088 1.063.628 2.281 1.194 3.568 1.199 2.729 2.699 6.124.155 9.461-1.319 1.73-3.238 2.42-5.096 3.083-1.958.705-3.805 1.375-5.177 3.206-.655.875-1.403 1.896-2.224 3.009-2.972 4.043-7.042 9.573-10.793 13.904-3.037 3.53-6.41 5.295-10.234 5.295Z" fill="#000"/><path d="M238.942 468.166a1.54 1.54 0 0 1-.771-.208 1.59 1.59 0 0 1-.589-2.162c.189-.327 4.66-8.092 9.517-11.996a1.586 1.586 0 0 1 2.198.271 1.586 1.586 0 0 1-.221 2.203c-4.383 3.507-8.7 11.017-8.742 11.094a1.585 1.585 0 0 1-1.392.798Z" fill="#000"/><path fill-rule="evenodd" clip-rule="evenodd" d="M280.541 412.828c.355-2.354 2.363-4.666 4.491-5.163 2.127-.498 3.561 1.001 3.207 3.352-.355 2.351-2.363 4.667-4.487 5.168-2.124.501-3.566-1.002-3.211-3.357Z" fill="#000"/><path d="M294.637 403.283a1.551 1.551 0 0 1-1.117-.466c-2.537-2.536-8.064-3.118-11.734-2.201a1.594 1.594 0 0 1-1.203-.179 1.573 1.573 0 0 1-.724-.977 1.574 1.574 0 0 1 .179-1.202 1.593 1.593 0 0 1 .977-.724c4.541-1.133 11.252-.455 14.74 3.036a1.584 1.584 0 0 1-1.121 2.698l.003.015ZM245.931 391.506a17.396 17.396 0 0 1-10.562-3.41 1.59 1.59 0 0 1-.637-1.681 1.59 1.59 0 0 1 1.345-1.193 1.582 1.582 0 0 1 1.192.342c5.011 3.754 11.298 3.145 15.164 1.48a1.588 1.588 0 0 1 2.034.85 1.583 1.583 0 0 1-.785 2.059 19.969 19.969 0 0 1-7.751 1.553ZM204.875 415.865a3.784 3.784 0 0 1-2.047-.505c-.94-.593-2.205-2.111-.119-5.568 2.729-4.524.231-14.019-1.777-21.646-1.022-3.853-1.985-7.526-2.244-10.32-1.156-12.45 3.967-20.74 9.136-27.206a1.58 1.58 0 0 1 1.066-.612 1.593 1.593 0 0 1 1.585.816 1.579 1.579 0 0 1-.177 1.773c-5.011 6.274-9.505 13.638-8.457 24.937.236 2.535 1.157 6.065 2.151 9.807 2.275 8.628 4.853 18.412 1.43 24.085a5.547 5.547 0 0 0-.62 1.306c1.9.093 8.642-2.917 11.44-7.125a1.586 1.586 0 0 1 2.641 1.753c-2.76 4.158-9.795 8.505-14.008 8.505ZM304.667 407.376a1.584 1.584 0 0 1-1.586-1.529 1.585 1.585 0 0 1 .179-.784c1.156-2.204 3.589-8.682 1.218-12.108a1.57 1.57 0 0 1-.265-.571 1.568 1.568 0 0 1 .203-1.217 1.602 1.602 0 0 1 1.016-.702 1.572 1.572 0 0 1 1.211.241c.176.119.326.272.441.45 1.846 2.67 1.784 6.127 1.156 9.09 4.861-5.14 11.807-14.381 11.433-24.913-.255-7.118-5.011-11.738-11.599-18.131l-1.565-1.542c-4.193-4.096-10.407-9.398-16.247-11.375a1.585 1.585 0 0 1 1.022-2.998c6.387 2.169 13.009 7.784 17.438 12.111l1.561 1.519c6.846 6.647 12.254 11.9 12.555 20.289.628 17.661-16.487 31.252-17.215 31.823a1.592 1.592 0 0 1-.956.347ZM486.681 667.782h-.035a1.843 1.843 0 0 1-1.43-.671c-.385-.481-1.133-1.375.771-6.878l38.469-157.053a19.622 19.622 0 0 1 1.981-4.871 15.646 15.646 0 0 1 3.304-3.723l59.55-52.023c2.096-1.993 3.704-2.532 4.872-1.603.385.323 1.476 1.179.3 5.314L566.44 564.009a26.781 26.781 0 0 1-1.738 4.782 31.299 31.299 0 0 1-2.802 4.516l-70.867 91.176c-2.729 3.226-3.893 3.299-4.352 3.299ZM591.592 444.74l-.158.146-59.662 52.136a12.778 12.778 0 0 0-2.621 2.936 16.376 16.376 0 0 0-1.607 3.973l-38.508 157.192c-.15.431-.289.867-.416 1.287l70.778-91.053a28.923 28.923 0 0 0 2.471-3.98 23.741 23.741 0 0 0 1.503-4.135l28.039-117.789c.057-.231.115-.474.169-.713h.012Z" fill="#000"/><path d="M338.911 660.074a1.583 1.583 0 1 1 0-3.167l148.329-.386a1.584 1.584 0 0 1 0 3.168l-148.329.385ZM507.123 575.331h-21.929a1.657 1.657 0 0 1-1.665-1.584 1.524 1.524 0 0 1 .911-1.458c.187-.081.388-.124.592-.126h22.091a1.584 1.584 0 0 1 0 3.168ZM449.573 598.853l-1.156-1.099-1.033-1.202.312-.324 7.594-7.784a1.582 1.582 0 0 1 1.723-.363 1.59 1.59 0 0 1 .995 1.453 1.601 1.601 0 0 1-.452 1.126l-7.983 8.193ZM440.807 607.088a1.54 1.54 0 0 1-1.206-2.551l1.303.932-1.133-1.106 3.361-3.445a1.588 1.588 0 0 1 2.212-.002 1.584 1.584 0 0 1 .058 2.21l-3.361 3.469c-.33.32-.774.497-1.234.493ZM400.288 648.676a1.59 1.59 0 0 1-1.47-.969 1.584 1.584 0 0 1 .333-1.729l15.033-15.414a1.583 1.583 0 1 1 2.263 2.212l-12.389 12.717 86.262-.386a1.587 1.587 0 0 1 1.585 1.584 1.584 1.584 0 0 1-1.585 1.584l-90.043.408.011-.007Z" fill="#000"/><path fill-rule="evenodd" clip-rule="evenodd" d="M380.56 190.091c1.766-2.162 4.884-3.314 6.973-2.574 2.089.74 2.352 3.083.59 5.256-1.762 2.174-4.884 3.311-6.973 2.571-2.089-.74-2.351-3.095-.59-5.253Z" fill="#000"/><path d="M406.794 150.026a1.509 1.509 0 0 1-.462-.074 1.585 1.585 0 0 1-1.052-1.977c.705-2.312 1.256-4.543.551-5.36-.443-.512-2.005-1.245-7.459-.385-.632.1-1.43.246-2.374.424-7.486 1.391-25.013 4.651-39.074-2.794-13.989-7.403-16.298-18.112-15.739-19.388a1.584 1.584 0 0 1 1.966-.867c.698.297 1.37.649 2.012 1.052 4.687 2.655 18.934 10.733 30.964 7.63a1.587 1.587 0 0 1 1.809 1.174 1.58 1.58 0 0 1-1.038 1.89c-12.061 3.11-25.193-3.43-31.608-6.979 1.515 3.291 5.038 8.424 13.106 12.69 13.086 6.937 29.249 3.923 37.004 2.478.979-.181 1.808-.335 2.463-.439 5.528-.864 8.723-.42 10.342 1.445 1.804 2.081 1.068 5.144.085 8.366a1.586 1.586 0 0 1-1.496 1.114ZM398.708 190.531a1.59 1.59 0 0 1-1.512-1.116 1.585 1.585 0 0 1 .618-1.775c5.82-3.957 9.987-4.74 14.015-5.495a63.44 63.44 0 0 0 3.118-.636c5.231-1.241 8.507-4.073 10.022-8.655 3.041-9.248 5.397-25.345-1.303-29.044a1.606 1.606 0 0 1-.481-.398 1.569 1.569 0 0 1-.343-1.174 1.574 1.574 0 0 1 .595-1.069 1.584 1.584 0 0 1 1.771-.126c11.325 6.273 3.13 31.719 2.775 32.798-1.85 5.638-5.986 9.248-12.288 10.751-1.106.262-2.186.463-3.265.667-3.881.728-7.547 1.414-12.816 5.01a1.552 1.552 0 0 1-.906.262ZM417.549 146.943a1.545 1.545 0 0 1-.948-.316 1.588 1.588 0 0 1-.316-2.22c2.521-3.345 7.212-9.576 6.167-15.584-.528-3.01-5.423-6.717-10.608-10.644-4.055-3.082-8.646-6.551-12.269-10.493a1.584 1.584 0 0 1 2.313-2.139c3.43 3.735 7.902 7.122 11.849 10.108 5.94 4.501 11.07 8.386 11.818 12.617 1.299 7.364-3.932 14.308-6.742 18.043a1.586 1.586 0 0 1-1.264.628ZM307.816 115.609a1.583 1.583 0 0 1-1.376-2.366c.305-.539 7.617-13.241 16.61-18.497 12.789-7.48 19.419-8.023 30.501-7.465a1.584 1.584 0 0 1 1.499 1.661 1.6 1.6 0 0 1-1.661 1.5c-10.677-.544-16.632-.043-28.744 7.036-3.719 2.177-7.215 5.892-9.937 9.326 4.414-2.513 10.693-5.06 18.988-6.093a1.585 1.585 0 0 1 1.491 2.566 1.581 1.581 0 0 1-1.106.575c-16.96 2.112-25 11.121-25.078 11.214a1.594 1.594 0 0 1-1.187.543ZM365.142 124.919c-.13.002-.26-.014-.386-.046-7.524-1.792-17.06-6.867-21.408-14.169a1.591 1.591 0 0 1 .054-1.794 1.584 1.584 0 0 1 2.667.175c3.855 6.509 12.547 11.071 19.42 12.717a1.583 1.583 0 0 1-.366 3.125l.019-.008Z" fill="#000"/><path fill-rule="evenodd" clip-rule="evenodd" d="M309.231 177.266s-1.434 13.006 1.434 25.465c2.868 12.458 10.739 23.429 10.739 23.429l-11.603 5.623s-4.432-9.919-4.625-27.896c-.131-13.769 4.055-26.621 4.055-26.621Z" fill="#000"/><path fill-rule="evenodd" clip-rule="evenodd" d="M278.841 437.476s-6.476 10.432-13.583 5.534c-7.775-5.365-2.992-15.765-2.992-15.765s4.402 3.587 8.866 6.504a40.264 40.264 0 0 0 7.709 3.727Z" fill="#fff"/><path d="M269.193 445.904a8.437 8.437 0 0 1-4.833-1.592c-7.02-4.844-5.397-13.715-3.531-17.726a1.587 1.587 0 0 1 2.44-.567c.042.035 4.394 3.573 8.723 6.413a38.839 38.839 0 0 0 7.366 3.553 1.563 1.563 0 0 1 .975.963 1.606 1.606 0 0 1-.146 1.368c-.162.255-3.963 6.297-9.29 7.411a8.403 8.403 0 0 1-1.704.177Zm-6.167-16.05c-.852 2.955-1.634 8.555 3.145 11.849a5.068 5.068 0 0 0 4.082.921c2.564-.531 4.811-2.824 6.102-4.416a37.83 37.83 0 0 1-6.086-3.133c-2.802-1.83-5.547-3.903-7.255-5.221h.012ZM270.935 395.472c-9.501 0-17.257-5.511-20.178-7.908-3.119-2.563-3.446-3.299-2.903-4.351.574-1.117 1.696-.859 2.444-.689 11.267 2.585 18.232-.409 22.098-3.384a1.585 1.585 0 0 1 1.928 2.513c-3.801 2.921-10.18 5.876-19.855 4.797 3.195 2.313 8.094 5.01 13.749 5.7 6.036.724 11.753-1.017 16.991-5.195a1.591 1.591 0 0 1 1.184-.385 1.583 1.583 0 0 1 .79 2.859c-5.59 4.467-11.167 6.043-16.248 6.043Z" fill="#000"/><path d="M289.823 398.651c-.362 0-.716-.111-1.014-.316-1.156-.832-3.35-5.78-3.631-9.634-.339-4.624 2.182-10.139 6.275-13.726.157-.138.339-.243.536-.309a1.572 1.572 0 0 1 1.209.079 1.585 1.585 0 0 1 .721 2.121 1.58 1.58 0 0 1-.377.49c-3.33 2.921-5.469 7.492-5.207 11.114a18.058 18.058 0 0 0 1.449 5.426 33.354 33.354 0 0 1 4.603-6.413c5.084-5.368 10.141-7.861 15.487-7.618a1.575 1.575 0 0 1 1.12.503 1.595 1.595 0 0 1 .424 1.151 1.585 1.585 0 0 1-1.686 1.51c-4.337-.166-8.631 1.973-13.044 6.632-2.405 2.539-4.078 5.641-4.884 7.133-.605 1.133-.86 1.599-1.596 1.795a1.571 1.571 0 0 1-.385.062ZM212.731 352.836a20.93 20.93 0 0 1-10.331-2.763c-1.487-.902-2.131-1.661-2.15-2.544-.035-1.618 1.592-2 5.153-2.832l.49-.116a26.314 26.314 0 0 0 6.714-3.298c1.639-1.045 3.416-2.312 5.297-3.657 5.049-3.603 10.793-7.707 16.609-9.526 8.045-2.528 19.35-4.474 35.509 2.986a1.59 1.59 0 0 1 .839.89 1.58 1.58 0 0 1-.414 1.725 1.57 1.57 0 0 1-1.151.414 1.586 1.586 0 0 1-.604-.154c-15.176-7.006-25.73-5.199-33.227-2.84-5.354 1.68-10.862 5.615-15.723 9.083-1.927 1.368-3.723 2.659-5.427 3.749a29.29 29.29 0 0 1-7.528 3.665c-.073.023-.32.081-.663.166s-.632.146-.91.216c2.934 1.379 8.515 2.886 13.977.204a1.592 1.592 0 0 1 1.241-.123 1.578 1.578 0 0 1 1.105 1.428 1.585 1.585 0 0 1-.951 1.535 17.68 17.68 0 0 1-7.855 1.792ZM284.373 345.267h-.948a1.587 1.587 0 0 1-1.542-1.641 1.564 1.564 0 0 1 1.025-1.447c.198-.072.407-.105.617-.095 5.196.197 8.029-1.349 9.409-2.674-.967.107-1.941.152-2.914.135-5.327-.143-10.249-1.773-14.593-3.21a1.585 1.585 0 0 1-.189-2.89 1.585 1.585 0 0 1 1.183-.116c4.34 1.437 8.823 2.921 13.684 3.052a24.14 24.14 0 0 0 3.111-.181l.674-.066c.601-.165 2.132-.566 2.999.732.482.721.385 1.696-.278 2.898-.72 1.318-3.731 5.503-12.238 5.503Z" fill="#000"/><path fill-rule="evenodd" clip-rule="evenodd" d="M230.485 435.322s4.699 5.576 9.251 10.331a190.406 190.406 0 0 0 8.905 8.679l-4.95 5.495s-5.165-4.864-8.48-10.991c-3.315-6.127-4.726-13.514-4.726-13.514ZM362.486 470.929s12.882-3.761 21.521-7.981c8.638-4.219 13.032-8.886 13.032-8.886l1.156 2.821a74.998 74.998 0 0 1-13.791 14.119c-8.481 6.621-15.538 9.827-15.538 9.827l-6.38-9.9ZM294.715 575.55s8.318-7.167 14.913-14.678a131.304 131.304 0 0 0 11.475-15.372s-2.05 11.025-7.37 19.738c-5.319 8.713-13.105 16.921-13.105 16.921l-5.913-6.609ZM198.816 619.893s15.804-7.322 25.988-14.331c10.184-7.01 14.705-13.777 14.705-13.777s-7.119 13.738-15.618 22.004a95.218 95.218 0 0 1-18.668 13.962l-6.407-7.858ZM11.001 346.516s10.712 2.451 20.31 2.57a76.808 76.808 0 0 0 18.097-2.104l.817 11.442a128.6 128.6 0 0 1-19.145-1.403c-12.751-1.869-19.713-6.667-19.713-6.667l-.366-3.838Z" fill="#000"/><path d="M414.161 213.787a1.587 1.587 0 0 1-1.535-1.207 1.58 1.58 0 0 1 .803-1.78c13.672-7.11 29.641-21.507 33.461-40.609a1.586 1.586 0 0 1 2.89-.595 1.582 1.582 0 0 1 .217 1.212c-4.039 20.2-20.784 35.356-35.107 42.798a1.558 1.558 0 0 1-.729.181Z" fill="#000"/><path d="M454.546 186.95a1.562 1.562 0 0 1-.713-.169c-5.154-2.609-11.013-5.449-11.892-5.68a1.587 1.587 0 0 1-1.156-1.927 1.573 1.573 0 0 1 1.306-1.193c.208-.029.419-.017.621.037 1.542.385 9.999 4.624 12.551 5.927a1.586 1.586 0 0 1 .82 1.779 1.588 1.588 0 0 1-1.537 1.215v.011ZM441.205 202.731a1.58 1.58 0 0 1-.999-.355c-.25-.204-6.167-5.032-8.283-7.668a1.584 1.584 0 1 1 2.475-1.981c1.9 2.378 7.751 7.148 7.809 7.195a1.584 1.584 0 0 1-1.002 2.809ZM424.203 214.342a1.59 1.59 0 0 1-1.407-.852c-.023-.046-2.313-4.408-3.809-6.817a1.592 1.592 0 0 1 1.709-2.388c.411.096.767.35.99.708 1.572 2.513 3.854 6.848 3.935 7.029a1.573 1.573 0 0 1 .107 1.209 1.594 1.594 0 0 1-.781.93c-.23.119-.485.181-.744.181ZM322.88 351.915a1.59 1.59 0 0 1-1.529-1.162 1.588 1.588 0 0 1 .716-1.782l16.293-9.707a1.594 1.594 0 0 1 1.762.087 1.583 1.583 0 0 1-.139 2.633l-16.293 9.708a1.551 1.551 0 0 1-.81.223ZM330.739 367.171a1.584 1.584 0 0 1-.566-3.06l15.418-5.919a1.592 1.592 0 0 1 1.762.356 1.595 1.595 0 0 1 .444 1.158 1.584 1.584 0 0 1-1.073 1.442l-15.437 5.919a1.634 1.634 0 0 1-.548.104ZM334.968 381.46a1.582 1.582 0 0 1-1.21-2.599 1.587 1.587 0 0 1 1.025-.557l14.22-1.653a1.583 1.583 0 1 1 .385 3.144l-14.235 1.665h-.185ZM214.292 365.911a1.541 1.541 0 0 1-.771-.22c-.409-.231-1.249-.709-1.018-4.123.201-2.94 1.816-12.933 14.243-17.942a1.583 1.583 0 0 1 1.701 2.602c-.148.145-.324.26-.517.338-9.217 3.711-11.695 10.559-12.2 14.424a24.781 24.781 0 0 1 12.631-5.453 1.597 1.597 0 0 1 1.169.324 1.59 1.59 0 0 1 .551 1.672 1.59 1.59 0 0 1-1.334 1.149c-6.939.848-11.121 4.767-12.69 6.239-.493.454-1.063.99-1.765.99ZM242.323 371.907c-2.352 0-4.626-.528-6.449-1.853a1.57 1.57 0 0 1-.447-.45 1.57 1.57 0 0 1-.221-1.222 1.581 1.581 0 0 1 2.526-.891c3.558 2.578 10.365.748 13.915-1.568a1.58 1.58 0 0 1 1.793-.018 1.579 1.579 0 0 1 .661 1.666 1.585 1.585 0 0 1-.723 1.003 21.698 21.698 0 0 1-11.055 3.333Z" fill="#000"/><defs><clipPath id="a"><path fill="#fff" transform="rotate(-90 374 337)" d="M0 0h711v588H0z"/></clipPath></defs></svg>