<svg viewBox="0 0 703 682" fill="none" xmlns="http://www.w3.org/2000/svg"><path d="M332.748 101.565C314.239 182.05 193.715 208.176 43.738 360.29c-14.375 14.599-28.939 29.816-36.735 48.838-8.53 20.8-8.263 44.701-3.569 67.223C15.9 536.468 59.168 589.075 112.878 620.384c53.71 31.309 116.83 42.656 177.635 39.896 34.717-1.547 69.569-7.519 104.072-1.201 30.925 5.627 60.371 20.952 91.603 22.479 51.763 2.374 95.418-33.166 130.035-70.039 22.89-24.468 44.894-51.617 52.3-84.67 10.832-48.408-11.336-98.666-24.016-147.643-10.19-39.418-14.347-79.802-21.887-119.653-8.953-47.267-22.8-93.759-41.189-138.584-10.981-26.749-18.378-39.38-30.83-54.508-34.945-42.208-98.646-78.553-150.136-61.735-10.153 3.279-17.287 7.752-19.741 9.49-33.607 24.813-47.976 87.349-47.976 87.349Z" fill="#F90"/><g clip-path="url(#a)"><path d="m585.318 526.756 9.544-10.062-7.006-6.098-17.329 16.838c1.252-.509 2.504-1.051 3.791-1.525 3.452-1.457 6.769-1.118 9.477.339.067 0 .169.034.236.034.407.169.847.338 1.287.474ZM200.624 339.135c4.535 1.457 10.831 1.423 15.027 3.455 3.047 1.491 5.517 5.76 7.683 8.233 2.674 3.049 5.314 6.098 7.988 9.113 2.268-2.676 4.535-5.386 6.837-8.063 1.929-2.27 4.4-6.776 7.209-8.131 3.249-1.558 10.052-.948 13.64-1.694 4.434-.914 8.8-2.236 12.929-4.099 7.548-3.388 14.216-8.3 20.477-13.653-3.181-1.355-6.329-2.812-9.341-4.472-13.302-7.013-11.068-24.054-8.09-37.098-11.135 7.894-23.895 13.789-37.298 10.943-13.471-2.879-26.197-14.398-35.132-26.256-.948 9.08-3.452 18.125-6.938 26.426-2.776 6.64-7.108 16.16-15.163 17.346-.034 0-.068.033-.068.033-6.668 1.39-13.437 2.169-20.274 2.711 7.819 7.148 16.111 13.721 25.486 18.735a85.924 85.924 0 0 0 15.028 6.471Z" fill="#FFDEAD"/><path d="M317.088 581.741c-23.151.847-45.929 5.793-67.726 13.552 9.071.135 18.142.237 27.212.372l116.261 1.626a41.821 41.821 0 0 0-2.843-1.693c-21.898-11.858-48.298-14.772-72.904-13.857Z" fill="#fff"/><path d="M327.614 577.1c22.846.372 45.997 4.302 66.169 15.381 1.218.677 2.945 1.829 4.535 2.676 1.354-12.196 2.742-24.393 3.825-36.589-2.978-.983-5.889-2.202-8.563-3.795-.068-.033-.135-.101-.203-.169-.102-.068-.169-.135-.271-.203a41.091 41.091 0 0 1-6.363-8.063c-13.403-6.607-29.074-6.844-43.797-7.352-11.237-.407-22.473-.17-33.676.779-1.828.169-3.69.339-5.517.542h-.068c-9.748 1.05-19.495 2.677-28.938 5.251 5.72 4.472 11.44 9.012 16.652 13.959 4.874 4.607 7.344 11.857.711 15.618-.271.271-.643.474-1.117.576-4.163.711-7.683-.78-11.203-2.948-4.197-2.575-8.056-5.59-12.083-8.368-.373 1.728-1.219 3.422-2.133 4.675-2.301 3.185-5.652 4.777-9.206 4.405-.034.271-.101.508-.169.779 0 .034-.034.068-.034.135-.034.068-.034.102-.068.17-.033.068-.067.169-.101.237-.034.068-.102.135-.135.203a.597.597 0 0 1-.136.17c-.034.033-.034.067-.068.101-.812.847-1.658 1.559-2.572 2.135-3.08 5.183-6.295 10.265-9.612 15.313 26.772-10.164 55.338-16.093 84.141-15.618Z" fill="#fff"/><path d="M173.446 215.748c-.068 4.675 2.267 9.113 4.738 12.975 2.978 4.608 6.769 9.215 11.271 12.637-2.708-10.333-3.25-21.174-3.114-32.015-5.517-5.76-12.794-1.051-12.895 6.403ZM537.459 563.989c-.474-1.626-.541-3.151-.27-4.54-4.367 5.251-8.056 11.011-10.865 17.211 5.043-2.27 9.815-4.98 14.283-8.233-1.455-1.016-2.572-2.507-3.148-4.438ZM535.158 550.742c.237-2.067 1.184-4.235 2.843-6.098 3.655-4.133 10.56-6.708 15.4-9.249a351.008 351.008 0 0 1 5.077-2.575c7.818-7.589 15.636-15.212 23.455-22.8-2.809-3.185-8.766-2.609-12.794-3.117-3.418-.441-4.704-.508-7.311.982-3.384 1.931-6.363 5.556-8.664 8.673-.271.779-.948 1.321-2.031 1.22a1649.524 1649.524 0 0 1-28.871-3.32c-2.876 11.078-7.175 24.765-4.975 36.42 5.957.237 11.948.372 17.871-.136ZM228.987 215.138c.135-.576.203-1.186.135-1.796a4.62 4.62 0 0 0-.135 1.796Z" fill="#FFDEAD"/><path d="M238.294 264.228c3.69 3.625 8.699 4.404 13.64 3.422 5.551-1.084 9.173-4.336 11.813-8.775-10.323-1.592-20.646-3.15-30.969-4.743.27 3.625 3.384 7.996 5.516 10.096ZM134.658 537.767c4.637-7.996 11.068-17.55 19.969-21.276a340.26 340.26 0 0 1-26.501-13.891c-7.92-4.607-14.825-10.773-22.406-15.821-.576-.373-1.151-.712-1.727-1.084-.338.135-.744.169-1.184.101-19.19-3.252-35.674 4.676-50.803 15.754-2.37 1.728-4.603-2.202-2.301-3.93 13.775-10.13 28.464-17.21 45.082-17.041-6.261-2.914-12.861-4.98-19.901-6.064-2.877-.441-1.658-4.811 1.218-4.371 10.391 1.593 18.988 5.523 27.111 10.401 5.449-20.361 14.215-40.045 20.375-60.203 4.163-13.687 8.022-27.543 10.29-41.705 1.523-9.52 3.553-21.987-1.287-30.931-1.387-2.575 2.505-4.845 3.926-2.304 4.739 8.741 3.724 19.887 2.505 29.373-1.895 14.195-5.551 28.086-9.578 41.773-6.6 22.36-16.348 44.042-22.237 66.572 6.701 4.336 13.267 9.215 20.409 13.856 23.049 14.907 49.415 25.105 75.172 34.252 11.068-4.167 22.981-8.571 34.997-8.165 11.474.407 18.784 7.826 27.178 14.737 1.76 1.457 3.554 2.88 5.382 4.303 10.12-3.015 20.578-4.912 31.104-6.098 10.695-51.123 21.289-102.348 30.732-153.709.542-2.879 4.874-1.66 4.366 1.22a3978.083 3978.083 0 0 1-10.018 52.478c8.935-17.041 19.36-33.201 31.206-48.447 1.794-2.303 4.975.915 3.215 3.219-14.553 18.735-26.873 38.961-36.892 60.44-.169.373-.406.644-.677.813-5.584 27.882-11.338 55.731-17.16 83.545 1.693-.169 3.385-.304 5.077-.44 12.253-.949 24.539-1.016 36.825-.373 4.366-29.542 10.289-58.813 15.366-88.186 4.129-23.953 10.391-50.175 7.751-74.636-1.693-11.552-7.988-22.631-18.582-28.289-6.363-3.387-13.911-5.115-20.781-7.08-11.406-3.287-23.422-6.031-34.693-10.266-12.556 10.909-26.061 19.074-42.849 21.243-3.283.406-5.415-.305-7.615 1.422-1.828 1.423-3.283 3.896-4.806 5.658-2.945 3.49-5.923 7.013-8.868 10.503-.744.881-2.437.881-3.215 0-3.215-3.659-6.397-7.318-9.612-10.977-1.693-1.965-3.52-4.811-5.585-6.369-2.335-1.728-5.314-1.559-8.394-2.27-19.935-4.743-36.621-16.33-51.378-30.152a1.977 1.977 0 0 1-.575-.881c-17.634 1.152-35.403 1.558-52.022 7.792-10.221 3.862-19.596 10.468-24.64 20.429-2.64 5.251-4.433 11.078-6.329 16.634-.677 1.931-1.286 3.896-1.929 5.828-4.975 28.695 1.083 57.492 12.015 84.121 1.117 2.71-3.283 3.862-4.366 1.219-8.698-21.14-14.147-43.5-13.877-66.165-3.35 10.706-6.566 21.445-9.713 32.185-5.179 17.617-10.323 35.268-14.757 53.088a285.36 285.36 0 0 0-4.536 22.021c-2.267 13.823.779 35.031 14.994 41.705 25.317 10.401 51.683 19.074 76.187 31.44-.846-9.012 5.653-20.666 9.342-27.001Zm55.304-20.497a465.98 465.98 0 0 0 80.588-103.704c1.455-2.54 5.347-.237 3.926 2.304a473.15 473.15 0 0 1-81.298 104.618c-2.099 1.999-5.314-1.185-3.216-3.218Z" fill="#fff"/><path d="M251.867 571.679a1.768 1.768 0 0 1-.271-1.152c-1.151-3.184-5.382-6.504-7.277-8.198-4.265-3.795-8.868-7.149-13.403-10.537-2.301-1.727-.068-5.657 2.302-3.93 5.855 4.371 11.947 8.673 17.092 13.857 1.895 1.897 4.163 4.336 5.347 7.013 2.404.813 4.705-.237 6.194-2.338.846-1.186 2.302-4.065 1.05-5.183-5.382-5.997-11.88-12.061-19.428-15.28-2.674-1.118-.372-5.048 2.301-3.896 7.785 3.287 14.622 9.656 20.173 15.822 4.366 2.676 8.461 5.691 12.624 8.673 3.013 2.134 6.973 5.386 10.932 4.811 6.364-3.659-4.873-11.519-6.938-13.247a820.426 820.426 0 0 0-8.394-6.878c-1.827-1.49-3.655-3.015-5.517-4.505a1.97 1.97 0 0 1-.575-.475c-4.129-3.388-8.258-6.776-12.354-10.163-8.969-7.352-16.618-9.656-28.126-7.623-8.089 1.423-15.907 4.201-23.591 7.081-.304.237-.71.406-1.15.372a1.777 1.777 0 0 1-1.456-.372c-13.775-4.913-27.313-10.198-40.581-16.195-.169.068-.372.17-.609.204-9.376 1.626-15.671 10.773-20.409 18.362-2.065 3.32-6.194 10.198-8.496 16.872 12.253 2.507 24.572 4.946 36.419 8.978.27.034.575.135.846.338 7.006 4.439 13.098 7.013 21.458 5.895 4.129-.542 8.055-.813 12.218-.508 8.394.644 17.127 2.439 24.437 6.776 2.031 1.321 4.603 2.575 6.6.542.88-.881 1.659-2.643 1.659-3.794-4.806-7.928-11.576-14.128-19.936-18.295-2.606-1.287-.304-5.217 2.302-3.93 8.834 4.404 16.077 11.078 21.255 19.413.271.169.474.44.609.813 3.656 3.997 8.394 5.42 12.591 1.456.136-.237.136-.508.102-.779Zm-60.483-29.169c-3.723 2.303-7.412 4.641-11.135 6.945-2.471 1.558-4.739-2.372-2.302-3.896 3.723-2.304 7.412-4.642 11.135-6.946 2.505-1.592 4.773 2.338 2.302 3.897Z" fill="#FFDEAD"/><path d="M654.16 515.44c3.419-4.743 5.754-10.807 6.059-16.668.338-7.013-3.893-13.348-7.447-19.074-6.633-10.706-13.775-21.106-21.187-31.304-8.665-11.925-17.532-23.681-26.095-35.674 1.658 13.822.067 27.306-4.942 40.756-1.015 2.71-5.381 1.524-4.366-1.22 5.923-15.889 7.006-31.744 3.182-48.277a470.704 470.704 0 0 1-9.037-13.586c-12.083-13.687-34.016-12.061-50.532-16.837-1.388 2.134-2.945 4.201-4.807 6.199a68.939 68.939 0 0 1-8.833 7.996c0 .169 0 .372-.034.576-2.776 13.28-15.603 23.715-29.074 23.85-14.791.17-26.806-9.994-30.901-23.85a78.545 78.545 0 0 1-7.176-6.268c-3.486-3.455-6.295-7.318-8.664-11.485-6.566 1.931-14.554 4.032-22.576 6.776-.406.339-.913.474-1.421.508-17.532 6.2-34.726 15.72-36.621 33.71a.994.994 0 0 1-.068.338v.271c-3.385 24.055-4.163 48.041-4.569 72.298-.373 22.157-6.262 49.192 11.033 66.538 9.342 5.421 20.342 5.692 30.868 5.794 9.545.101 19.055.304 28.6.474 19.563.372 39.227.813 58.79-.407-4.806-13.416-.067-29.542 3.419-43.026-6.803-.847-13.572-1.762-20.375-2.676-.034 0-.068.034-.102.034-22.541 7.995-43.763 18.701-63.664 31.981-2.437 1.626-4.705-2.304-2.302-3.896 17.769-11.891 36.689-21.682 56.557-29.407-12.354-1.694-24.708-3.455-37.062-5.183-6.43-.915-12.759-1.66-19.021-1.796h-.44c-7.142-.101-14.215.712-21.323 3.185-2.742.982-3.926-3.422-1.218-4.371 6.803-2.405 13.572-3.286 20.409-3.354a478.44 478.44 0 0 0-3.994-50.716 583.505 583.505 0 0 0-29.751-26.663c-2.234-1.863.982-5.048 3.216-3.218a601.642 601.642 0 0 1 25.553 22.698 473.756 473.756 0 0 0-5.483-30.694c-.609-2.846 3.757-4.065 4.366-1.22a492.188 492.188 0 0 1 10.628 89.847c5.043.204 10.086.78 15.231 1.457 33.71 4.54 67.252 9.656 101.064 13.179 3.215-4.235 7.751-9.317 12.929-11.078 2.166-13.179 4.434-26.324 6.905-39.469a1.895 1.895 0 0 1 .203-1.051c2.437-12.907 5.111-25.781 8.089-38.588.677-2.845 5.043-1.626 4.366 1.22-2.911 12.501-5.517 25.07-7.92 37.673 7.074 9.52 13.708 19.819 21.391 28.933 2.674-4.269 5.517-8.368 8.766-11.824 3.858-4.133 9.443-5.353 14.926-5.556 2.911-.102 2.911 4.404 0 4.54-8.36.339-11.305 3.489-15.772 10.028a525.142 525.142 0 0 0-5.991 9.113c2.708-1.185 5.551-2.066 8.461-2.947 10.154-3.083 20.68-4.743 31.173-6.437 2.843-.441 4.061 3.93 1.218 4.37-7.852 1.254-15.738 2.507-23.489 4.337-8.089 1.931-18.988 4.099-23.997 11.248 2.809 2.439 5.585 4.844 8.394 7.284.948.813.812 2.371 0 3.218-3.283 3.456-6.532 6.911-9.815 10.367 6.803 2.981 13.267 7.589 17.701 13.314 5.077 6.505 4.434 13.145 2.335 20.023 1.456-1.22 2.911-2.439 4.4-3.693a2.01 2.01 0 0 1 1.422-1.22c14.418-12.196 28.668-25.714 38.415-41.4Zm-92.027-82.8-2.437 24.122v.068c.034.711-.271 1.423-1.117 1.897-6.058 3.32-12.151 6.674-18.209 9.994-.846.475-1.625.339-2.268-.067a2.04 2.04 0 0 1-.507-.305c-4.976-3.93-9.951-7.826-14.96-11.756a1.864 1.864 0 0 1-.779-.678c-.474-.576-.541-1.22-.271-1.829l1.219-23.58c0-.271.068-.542.169-.779.237-.881.914-1.559 2.099-1.491 11.609.678 23.184 1.389 34.793 2.067.237 0 .44.067.643.135.948.237 1.76.949 1.625 2.202ZM442.149 587.873c-11.982 1.288-23.523 4.54-34.421 9.622 12.658.169 25.316.339 37.975.542l88.71 1.22c-8.834-2.338-17.701-4.506-26.603-6.437-21.56-4.709-43.593-7.318-65.661-4.947Z" fill="#fff"/><path d="M606.674 553.757c.068-3.998-1.184-7.894-4.941-11.688-3.452-3.49-7.649-6.471-12.151-8.673.203.542.339 1.084.474 1.626 2.674 2.033 5.517 4.642 6.465 7.894.575 1.965.203 2.473.169 4.438-.068 4.811.88 5.827 2.674 9.825.203.44.372.915.541 1.389 2.234-1.592 4.502-3.151 6.736-4.743l.033-.068Z" fill="#FFDEAD"/><path d="M526.155 453.679c4.433 3.49 8.834 6.945 13.267 10.435 5.28-2.914 10.594-5.827 15.874-8.741.711-6.877 1.388-13.721 2.099-20.598-10.053-.61-20.105-1.186-30.157-1.796-.373 6.911-.745 13.789-1.083 20.7ZM519.961 580.217c3.317-8.944 8.224-17.075 14.351-24.359.203-.237.406-.407.643-.542-5.416.44-10.933.339-16.382.135.271.712.576 1.423.914 2.135.102.169.169.372.237.576.237.711.102 1.423-.271 1.931a2.282 2.282 0 0 1-1.421 1.05 2.567 2.567 0 0 1-.711.102c-22.068 1.592-44.271.914-66.372.508-13.809-.271-30.157 1.423-44.406-1.897-1.083 11.891-2.437 23.749-3.757 35.606 1.726-.948 4.095-2.574 5.551-3.218 2.403-1.05 4.874-2.067 7.344-2.948 11.136-3.997 22.813-5.962 34.591-6.538 33.406-1.592 66.541 6.335 98.424 15.754-1.861-8.809-3.723-17.618-5.551-26.392-6.295 4.54-13.064 8.131-20.409 10.909-1.557.542-3.35-1.254-2.775-2.812Z" fill="#fff"/><path d="M585.893 536.885c-.406-2.134-1.286-4.234-2.877-5.759-2.234-2.168-4.84-1.999-7.548-.847-8.089 3.185-15.941 6.844-23.557 11.045-3.181 1.761-7.852 3.523-10.356 6.132-1.591 1.626-3.487 5.759.033 6.267.271-.101.542-.203.813-.339.034 0 .067-.033.101-.033s.068-.034.102-.034c9.951-3.964 19.935-7.962 29.886-11.926 2.708-1.084 3.892 3.32 1.218 4.371-10.018 3.997-20.07 7.995-30.089 11.993-2.267.982-2.403 3.252-1.658 5.353.609 1.66 1.929 2.066 3.655 1.965 10.594-1.355 20.24-6.37 30.123-10.13 2.742-1.05 3.892 3.354 1.219 4.37-8.631 3.287-16.957 7.25-25.926 9.283-.576 2.744.575 5.489 3.756 5.455a128.689 128.689 0 0 0 28.059-8.165c2.674-1.118 3.858 3.252 1.218 4.37-7.378 3.117-14.926 5.455-22.677 7.115.677 2.473 2.099 4.37 5.077 4.37 8.868-1.728 17.262-4.946 25.892-7.521 4.13-2.981 4.4-11.011 2.844-15.042-.779-1.999-2.031-3.693-2.742-5.726-.609-1.795-.846-3.184-.88-4.98-.034-2.1 1.151-3.252 0-5.59-.846-1.728-2.809-3.32-4.4-4.506-.609-.135-1.117-.61-1.286-1.491Z" fill="#FFDEAD"/><path d="M600.785 563.413c.102 1.897-.101 3.828-.541 5.691 1.184-.474 2.233-1.253 3.215-2.303.846-2.338 1.658-4.642 2.268-6.844-1.659 1.152-3.283 2.304-4.942 3.456Z" fill="#3F2600"/><path d="M583.998 372.506c-4.739-3.795-9.342-7.657-11.711-13.383-2.877-6.843-2.775-15.008-2.911-22.292-.271-14.602-1.286-28.221-4.265-42.518-2.403-13.314-7.107-27.577-15.975-38.046-8.191-9.655-25.723-17.21-38.178-12.806-.812.271-1.489.101-1.963-.305-32.255-13.89-64.274 14.229-74.969 42.924-5.754 15.449-6.532 32.152-5.449 48.447.846 12.502 4.095 25.172 1.218 37.47 6.431-2.134 12.794-3.896 18.48-5.556a71.96 71.96 0 0 1-1.625-3.693c-4.061-10.163-3.52-21.58-5.415-32.252-.237-1.389.643-2.372 1.692-2.711a24.273 24.273 0 0 1-.067-2.71c-1.117-.034-2.2-.745-2.234-2.168-.271-12.705 4.535-23.139 12.658-32.693.745-.881 1.726-.915 2.505-.441a23.93 23.93 0 0 1 3.554-3.117c-.609-.982-.643-2.439.609-3.286 8.055-5.59 16.754-10.096 26.061-13.145 10.527-3.455 25.486-3.184 25.859-17.583.067-2.914 4.603-2.914 4.535 0-.169 6.708-2.64 11.383-7.006 14.534 1.286.237 2.505.644 3.689 1.22.305-1.22 1.388-1.559 2.403-1.288.44.034.914.204 1.32.542 16.889 14.06 35.572 32.151 32.256 55.968-.136 1.017-.745 1.491-1.49 1.593.034.847.034 1.694 0 2.507 1.117 0 2.166.745 2.065 2.168l-.102 1.66c7.582-1.83 13.64 3.862 12.388 12.196-1.286 8.538-10.628 18.973-18.345 22.835-.406.982-.88 1.965-1.353 2.947 15.264 4.201 34.083 3.659 46.91 13.518.034-1.999-.034-4.032-.508-5.997-.372-1.524-.981-3.049-1.861-4.336-.846.44-1.895.508-2.775-.203Zm-96.157-115.731c-12.421 3.083-21.695 11.892-29.209 21.886-1.726 2.304-5.652.034-3.926-2.304 8.224-10.943 18.311-20.564 31.917-23.986 2.843-.678 4.061 3.693 1.218 4.404Zm60.009 31.541c-4.129-8.503-10.797-14.94-19.428-18.802-2.673-1.186-.338-5.082 2.302-3.896 9.24 4.133 16.618 11.315 21.052 20.429 1.219 2.608-2.674 4.912-3.926 2.269Z" fill="#1A1A1A"/><path d="M554.145 350.077c2.336-3.354 5.754-10.062 1.523-13.551-1.827-1.491-4.433-.915-6.464-.136-.542 7.928-1.185 15.686-3.148 23.004 3.148-2.71 5.889-6.166 8.089-9.317Z" fill="#FFDEAD"/><path d="M268.282 111.943c-19.766-12.468-53.375-5.489-69.554 9.892-19.969 18.939-30.698 53.766-18.919 79.379.101.237.169.474.203.677 2.132-.169 4.332.339 6.43 1.626l.305-8.469c-.677.067-1.388.169-2.098.237-2.911.305-2.877-4.201 0-4.54 15.467-1.694 27.686-5.082 37.095-18.328 7.987-11.214 13.877-24.258 18.615-37.132 1.015-2.71 5.382-1.524 4.366 1.22-5.449 14.805-12.184 30.355-22.406 42.586-4.332 5.217-9.375 8.673-14.858 11.044a16.477 16.477 0 0 0 3.994 2.846c.237-1.152 1.252-2.134 2.741-1.694 8.935 2.609 18.717 3.388 26.908-1.795 6.701-4.269 9.206-11.79 10.627-19.311 3.25-17.075 3.825-31.779 17.6-43.874 1.591-1.422 3.757-.067 3.926 1.525.474-.169.948-.339 1.422-.44-.914-3.524-2.065-6.979-3.317-10.401-1.015-2.744 3.385-3.93 4.366-1.22 1.591 4.37 3.046 8.809 4.028 13.348 12.624 9.182 16.991 22.699 16.551 38.08-.305 10.096-2.167 20.802.812 30.695 2.504 8.334 10.729 21.919 20.612 22.36.271 0 .508.067.745.169.27-.203.575-.407.846-.61-.576-.813-.745-1.999 0-2.981 12.557-16.093 14.08-40.452 7.277-59.187-7.277-20.225-26.942-46.007-50.6-44.11-1.828.136-2.471-1.558-2.031-2.913a17.793 17.793 0 0 0-2.335-.983c.169 1.626-1.523 3.456-3.351 2.304Zm-28.228 65.251c-4.061 5.047-9.409 8.639-15.535 10.705-2.775.949-3.96-3.455-1.218-4.37 5.415-1.83 9.95-5.082 13.538-9.52 1.828-2.304 5.009.949 3.215 3.185Zm70.806-33.439c7.785 16.33 6.262 33.777 2.403 50.954-.643 2.846-5.009 1.626-4.366-1.22 3.554-15.889 5.246-32.32-1.963-47.464-1.252-2.609 2.674-4.912 3.926-2.27Z" fill="#1A1A1A"/><path d="M130.766 567.479c4.095 2.507 8.36-2.067 11.338-5.895-3.96-.847-7.954-1.661-11.914-2.474-.677 3.253-.643 6.2.576 8.369Z" fill="#3F2600"/><path d="M497.081 407.671c9.883-.135 19.258-6.843 23.184-15.855-7.243 4.336-15.298 7.182-23.556 7.386-8.699.203-16.686-2.236-23.862-6.37 4.739 8.91 13.572 14.941 24.234 14.839Z" fill="#FFDEAD"/><path d="M445.601 329.343c3.012 17.075 2.403 34.354 14.994 47.905 8.868 9.52 20.951 17.312 34.151 17.414 13.775.101 26.738-7.521 36.249-17.244 3.926-4.032 6.667-8.47 8.597-13.146.033-.203.101-.372.236-.542 4.164-10.434 4.434-22.122 5.247-33.811.101-1.456 1.32-2.202 2.436-2.168.034-.847.034-1.694 0-2.507-1.353.203-3.147-.949-2.876-2.812 2.741-19.785-13.099-36.149-27.416-48.447.474 5.59 3.419 11.079 7.886 14.467 2.302 1.727.034 5.691-2.301 3.896-7.04-5.353-10.831-13.823-9.985-22.564a1.77 1.77 0 0 1 .17-1.253c0-.034.033-.068.033-.102a13.908 13.908 0 0 0-3.689-1.22c-2.335 1.694-5.246 2.982-8.631 3.863-13.978 3.692-26.535 7.893-38.55 16.262-1.151.813-2.302.304-2.877-.644a23.93 23.93 0 0 0-3.554 3.117c1.151.677 1.828 2.337.711 3.659-7.379 8.673-11.575 17.955-11.339 29.474.034 1.491-1.15 2.202-2.301 2.168 0 .915 0 1.796.068 2.711 1.184-.339 2.47.034 2.741 1.524Zm25.385 19.04c-.643.678-1.963.915-2.742.339-4.061-2.913-4.908-7.724-1.455-11.485l.203-.203s.034 0 .034-.034c.067-.034.101-.102.169-.136.914-.711 2.098-.542 2.978.17 3.859 3.015 4.028 7.86.813 11.349Zm49.719.373c-.778.542-2.098.339-2.741-.339-3.215-3.489-3.046-8.368.778-11.349.914-.712 2.099-.915 3.013-.17.034.034.101.068.135.102l.034.034c.068.068.135.101.203.203 3.486 3.795 2.674 8.605-1.422 11.519Zm-9.307-27.171c6.532-1.558 13.132-1.253 19.427 1.05 2.708 1.017 1.524 5.387-1.218 4.371-5.585-2.067-11.237-2.473-17.025-1.051-2.809.678-4.027-3.692-1.184-4.37Zm-20.105 26.561c1.896-2.473 1.862-5.217 1.93-8.266.067-2.914 4.569-2.914 4.535 0-.034 2.778 0 5.895-1.117 8.503-.643 1.491-1.929 2.27-2.674 3.693-1.252 2.372-.135 5.692 2.775 5.963 2.877.271 2.911 4.811 0 4.54-4.332-.407-7.987-3.49-8.258-8.165-.169-2.677 1.286-4.303 2.809-6.268Zm-2.335 23.681c7.852-2.236 15.84-2.947 23.963-2.032 2.877.339 2.877 4.844 0 4.54-7.717-.881-15.265-.272-22.745 1.863-2.843.813-4.027-3.557-1.218-4.371Zm-30.868-49.192c6.296-2.337 12.93-2.642 19.428-1.05 2.843.678 1.625 5.048-1.218 4.37-5.788-1.389-11.474-.982-17.025 1.051-2.708 1.016-3.892-3.354-1.185-4.371ZM294.817 204.296c-4.975-1.728-10.153-2.168-15.433-2.134-2.911.034-2.911-4.506 0-4.54 4.535-.034 9.104.271 13.504 1.355-.575-1.931-1.015-3.794-1.252-5.556-2.945-20.564 5.686-43.162-11.474-58.305-.135 5.928-1.388 11.688-4.197 17.074-1.354 2.575-5.28.305-3.926-2.303 3.148-5.997 3.96-12.502 3.486-19.142-.237-1.118-.508-2.236-.778-3.354-.474.136-.948.271-1.422.441.068.575-.135 1.151-.711 1.66-9.003 7.927-12.658 17.041-14.486 28.763-1.523 9.621-1.895 20.361-7.683 28.661-8.427 12.027-24.538 12.502-37.332 8.741-1.354-.406-1.76-1.592-1.523-2.676a14.563 14.563 0 0 1-3.994-2.846c-5.043 2.168-10.492 3.455-16.178 4.302-.813 19.515-2.065 40.418 7.141 58.306 7.142 13.823 22.474 31.677 38.043 36.013 19.834 5.489 39.498-11.281 52.969-23.85 3.148-2.948 6.431-6.031 8.834-9.656 3.418-5.149 4.028-10.265 4.637-16.296.643-6.335 2.877-12.061 4.163-18.193-5.415-3.896-9.646-10.129-12.388-16.465Zm-67.286 3.286c.203-.169.407-.271.61-.372.812-.644 1.963-.779 2.877.169 3.655 3.829 3.553 10.367-.61 13.857-.947.813-2.267.914-3.215 0-3.757-3.625-3.689-10.198.338-13.654Zm41.665 50.683c-4.535 9.69-13.234 15.483-24.268 14.128-8.597-1.05-19.123-12.366-16.347-21.446.406-1.287 1.557-1.761 2.775-1.592 11.88 1.83 23.76 3.625 35.674 5.455.169 0 .338.034.474.067.101 0 .203.034.304.034 1.354.204 1.794 1.288 1.591 2.304a1.89 1.89 0 0 1-.203 1.05Zm-10.12-13.856c-2.911.305-2.877-4.235 0-4.54 3.554-.373 7.581-3.591 6.194-7.487-.44-1.22-1.659-1.999-2.234-3.151-.711-1.558-.982-3.252-1.219-4.946-.676-4.54-.981-9.283-.778-13.857.135-2.913 4.671-2.913 4.535 0-.169 3.591.034 7.217.407 10.774.169 1.762.236 3.862.913 5.522.711 1.728 2.268 2.981 2.945 4.811 2.505 6.674-4.84 12.264-10.763 12.874Zm25.689-15.313c-1.151.609-2.403.237-3.114-.814-3.046-4.438-1.455-10.807 3.08-13.517 1.117-.678 2.2-.237 2.809.542.17.135.339.305.508.508 2.979 4.404 1.354 10.807-3.283 13.281Z" fill="#FFDEAD"/><path d="M97.123 556.874c-10.154-4.167-20.477-8.063-30.733-11.993-.71 4.031-1.827 8.029-2.843 11.993h33.576Z" fill="#fff"/><path d="M285.036 221.033c-.237.542-.339 1.118-.373 1.728a6.299 6.299 0 0 0 .373-1.728Z" fill="#FFDEAD"/><path d="m467.635 336.661-.406.204a.688.688 0 0 0-.169.135s-.034 0-.034.034c-.068.068-.136.102-.203.203-3.453 3.795-2.606 8.605 1.455 11.485.779.542 2.098.339 2.742-.339 3.215-3.489 3.046-8.368-.779-11.349-.812-.576-1.76-.779-2.606-.373ZM521.958 337.034l-.034-.034c-.034-.034-.102-.068-.135-.101-.914-.78-2.133-.542-3.013.169-3.824 2.981-3.994 7.86-.778 11.349.643.678 1.963.915 2.741.339 4.062-2.88 4.908-7.69 1.456-11.485-.102-.101-.169-.135-.237-.237 0 .034 0 .034 0 0ZM496.607 348.383c1.117-2.609 1.083-5.725 1.117-8.503.068-2.914-4.468-2.914-4.535 0-.068 3.049 0 5.793-1.93 8.266-1.523 1.965-2.978 3.591-2.809 6.234.237 4.675 3.926 7.758 8.259 8.164 2.91.272 2.877-4.268 0-4.539-2.911-.271-4.028-3.591-2.776-5.963.745-1.389 2.031-2.168 2.674-3.659ZM477.552 321.586c-6.532-1.559-13.132-1.254-19.428 1.05-2.707 1.016-1.523 5.387 1.219 4.37 5.584-2.066 11.237-2.473 17.024-1.05 2.809.678 4.028-3.693 1.185-4.37ZM530.859 322.636c-6.295-2.338-12.929-2.643-19.427-1.051-2.843.678-1.625 5.048 1.218 4.371 5.788-1.389 11.474-.983 17.025 1.05 2.707 1.016 3.892-3.354 1.184-4.37ZM440.626 322.94c.034 1.423 1.117 2.135 2.234 2.169 1.15.034 2.335-.678 2.301-2.169-.237-11.518 3.96-20.801 11.339-29.474 1.117-1.321.44-2.982-.711-3.659-.779-.441-1.726-.441-2.505.44-8.123 9.554-12.929 19.989-12.658 32.693ZM509.367 267.176c4.366-3.151 6.837-7.826 7.006-14.534.068-2.914-4.434-2.914-4.535 0-.372 14.398-15.366 14.127-25.858 17.583-9.342 3.083-18.007 7.555-26.062 13.145-1.218.847-1.218 2.304-.609 3.286.575.915 1.726 1.457 2.877.644 11.981-8.334 24.572-12.569 38.55-16.262 3.385-.881 6.296-2.168 8.631-3.862ZM547.545 325.21c.745-.101 1.354-.61 1.49-1.592 3.316-23.817-15.367-41.874-32.256-55.968a2.351 2.351 0 0 0-1.32-.542c-1.015-.271-2.098.102-2.403 1.287 0 .034-.034.068-.034.102-.203.407-.27.813-.169 1.254-.88 8.74 2.945 17.21 9.985 22.563 2.335 1.762 4.569-2.168 2.301-3.896-4.467-3.388-7.412-8.876-7.886-14.466 14.351 12.331 30.191 28.661 27.415 48.446-.27 1.864 1.523 3.016 2.877 2.812ZM458.632 278.661c7.514-9.994 16.788-18.803 29.209-21.886 2.809-.711 1.625-5.082-1.218-4.37-13.606 3.388-23.693 13.009-31.917 23.986-1.726 2.304 2.2 4.574 3.926 2.27ZM490.143 376.198c7.48-2.134 15.027-2.744 22.744-1.863 2.877.339 2.877-4.201 0-4.54a60.91 60.91 0 0 0-23.963 2.033c-2.775.813-1.591 5.183 1.219 4.37ZM551.742 286.046c-4.4-9.113-11.812-16.295-21.052-20.429-2.64-1.185-4.942 2.711-2.302 3.897 8.597 3.862 15.299 10.299 19.428 18.802 1.286 2.643 5.179.339 3.926-2.27ZM522.669 456.661c4.975 3.93 9.95 7.826 14.96 11.756.169.135.338.237.507.305.609.406 1.422.508 2.268.067 6.058-3.32 12.151-6.674 18.209-9.994.846-.44 1.151-1.186 1.117-1.897v-.068l2.437-24.122c.135-1.253-.643-1.965-1.625-2.134-.203-.068-.406-.136-.643-.136-11.609-.677-23.184-1.389-34.794-2.066-1.184-.068-1.861.643-2.098 1.49a1.88 1.88 0 0 0-.169.78l-1.219 23.579c-.237.576-.203 1.254.271 1.83.203.237.474.44.779.61Zm32.627-1.288c-5.28 2.914-10.594 5.827-15.874 8.741-4.433-3.49-8.833-6.945-13.267-10.435.372-6.911.71-13.788 1.083-20.7 10.052.61 20.104 1.186 30.157 1.796-.711 6.877-1.388 13.721-2.099 20.598ZM396.795 227.131c-.406 15.991 13.268 29.034 29.48 29.203 2.911.034 2.911-4.505 0-4.539-12.083-.136-23.692-8.911-24.944-21.446-.034-.508-.068-.982-.068-1.49 1.421.406 2.877.677 4.366.779.203.034.406.034.609.068.203 0 .44-.034.643-.068 10.729-.745 19.699-9.723 19.665-20.666 0-.204-.034-.407-.068-.61-1.117-8.097-8.123-9.554-14.757-6.166-7.514 3.862-12.76 11.858-14.384 20.022-4.4-2.845-7.548-7.487-7.886-13.009-.576-8.843 5.483-16.398 13.64-19.142 2.741-.914 1.556-5.285-1.219-4.37-10.188 3.422-17.972 13.009-16.991 24.122.644 7.758 5.45 13.992 11.914 17.312Zm7.819-11.621c2.2-3.828 15.4-17.651 17.396-6.369-.067 8.571-7.276 15.754-15.772 16.059a18.4 18.4 0 0 1-4.704-.915 26.85 26.85 0 0 1 3.08-8.775ZM284.765 229.096c4.637-2.507 6.295-8.877 3.317-13.281a1.82 1.82 0 0 0-.508-.508c-.609-.813-1.692-1.22-2.809-.542-4.569 2.71-6.16 9.079-3.08 13.518.677 1.05 1.929 1.423 3.08.813Zm-.101-6.37c.033-.575.135-1.185.372-1.727a5.834 5.834 0 0 1-.372 1.727ZM230.442 221.236c4.129-3.489 4.265-10.028.609-13.856-.914-.949-2.064-.813-2.877-.17-.203.102-.406.204-.609.373-4.061 3.456-4.095 10.028-.304 13.653.913.915 2.2.813 3.181 0Zm-1.455-6.098a4.62 4.62 0 0 1 .135-1.796c.068.61.034 1.22-.135 1.796ZM269.873 231.501c-.677-1.795-2.234-3.049-2.945-4.811-.677-1.66-.744-3.76-.914-5.522-.372-3.557-.575-7.216-.406-10.773.136-2.914-4.4-2.914-4.535 0-.203 4.573.101 9.316.778 13.856.237 1.694.508 3.388 1.219 4.946.541 1.186 1.794 1.932 2.234 3.151 1.387 3.896-2.674 7.149-6.194 7.487-2.877.305-2.911 4.811 0 4.54 5.889-.576 13.233-6.166 10.763-12.874ZM272.58 129.458c.576-.508.779-1.118.711-1.66-.169-1.592-2.301-2.947-3.926-1.524-13.741 12.094-14.351 26.832-17.6 43.873-1.421 7.487-3.926 15.042-10.628 19.311-8.19 5.183-17.972 4.404-26.907 1.795-1.456-.44-2.471.542-2.742 1.694-.237 1.05.17 2.27 1.523 2.677 12.828 3.76 28.905 3.286 37.333-8.741 5.821-8.267 6.193-19.006 7.683-28.662 1.895-11.688 5.516-20.835 14.553-28.763ZM275.999 113.535c23.692-1.897 43.323 23.885 50.633 44.043 6.803 18.735 5.28 43.094-7.276 59.186-.779.983-.61 2.168 0 2.981.744 1.051 2.2 1.525 3.215.204 14.114-18.092 15.941-44.958 7.581-65.895-8.461-21.174-28.938-47.091-54.119-45.093-1.083.102-1.76.78-2.031 1.593-.508 1.423.169 3.117 1.997 2.981Z" fill="#3F2600"/><path d="M224.519 187.899c6.126-2.066 11.44-5.657 15.535-10.705 1.828-2.236-1.353-5.489-3.215-3.219-3.588 4.438-8.123 7.724-13.538 9.52-2.742.949-1.557 5.319 1.218 4.404ZM244.928 272.393c11.034 1.356 19.732-4.404 24.268-14.127.169-.339.237-.678.237-1.017.203-1.05-.237-2.1-1.591-2.303-.102 0-.203-.034-.305-.034-.169-.034-.338-.034-.473-.068-11.88-1.829-23.76-3.625-35.674-5.454-1.252-.204-2.403.304-2.776 1.592-2.809 9.079 7.751 20.361 16.314 21.411Zm18.819-13.517c-2.674 4.438-6.262 7.69-11.813 8.774-4.941.983-9.95.17-13.64-3.421-2.132-2.067-5.212-6.471-5.483-10.063 10.29 1.559 20.613 3.117 30.936 4.71ZM313.263 194.709c3.859-17.177 5.348-34.625-2.403-50.954-1.252-2.643-5.144-.339-3.926 2.304 7.209 15.143 5.517 31.575 1.963 47.464-.643 2.812 3.723 4.032 4.366 1.186ZM193.178 520.454a470.602 470.602 0 0 0 81.298-104.618c1.455-2.541-2.471-4.81-3.926-2.303-21.865 38.215-48.976 73.076-80.588 103.703-2.098 2.066 1.117 5.251 3.216 3.218ZM189.116 538.58c-3.723 2.303-7.412 4.641-11.135 6.945-2.471 1.524-.203 5.454 2.301 3.896 3.723-2.304 7.413-4.642 11.136-6.945 2.437-1.525.169-5.455-2.302-3.896Z" fill="#3F2600"/><path d="M14.2 561.38h93.618c6.803 3.016 13.539 6.2 20.105 9.69 7.277 5.556 14.486-2.643 18.953-8.402 6.634 1.524 13.234 3.252 19.665 5.42 4.468 2.812 9.138 5.692 14.418 6.641 4.705.847 9.003-.475 13.64-.847 9.85-.78 21.357 1.151 29.92 6.233 3.656 2.406 8.326 3.388 11.812.136 1.084-.983 1.896-2.27 2.471-3.625 2.369 1.728 5.043 2.676 7.751 2.71a423.216 423.216 0 0 1-10.966 16.906c-.44.677-.372 1.49 0 2.168.068.102.101.203.169.271.034.034.034.068.068.068.135.169.271.305.406.44.101.068.237.136.338.203.305.17.61.204.948.204h.169c35.268.474 70.535.982 105.803 1.456l169.128 2.338c12.997.17 25.994.373 38.991.542h.068c.135 0 .237 0 .372-.034.068 0 .135 0 .203-.034.034 0 .068-.033.102-.033.744-.204 1.218-.78 1.421-1.457.136-.407.203-.881.102-1.322-1.76-8.334-3.52-16.702-5.28-25.036 1.455 1.592 3.587 2.609 6.227 2.507.17 0 .373-.034.508-.068h.068c.474-.067.947-.169 1.421-.271 1.117 4.676 4.502 8.165 9.68 8.063.203 0 .373-.033.542-.067h.034c9.003-1.694 17.532-4.981 26.264-7.589a2.15 2.15 0 0 0 .948-.339c.034 0 .034-.034.067-.034.034-.034.068-.034.068-.068.102-.067.203-.169.305-.237 1.354-1.016 2.504-2.337 3.418-3.828 2.911-.136 5.551-1.355 7.649-3.388.305-.102.576-.237.847-.44 3.52-2.914 7.107-5.861 10.695-8.911h83.363c2.91 0 2.91-4.539 0-4.539h-78.083c13.335-11.655 26.231-24.461 35.335-39.13 5.619-7.826 8.529-18.736 5.111-27.951-4.874-13.009-14.419-25.002-22.372-36.284-15.468-21.987-32.222-42.924-46.708-65.623a3.591 3.591 0 0 0-.304-.373c-.034-.034-.034-.068-.068-.068a33.47 33.47 0 0 0-4.671-4.404c-12.794-9.825-31.612-9.317-46.91-13.518.507-.982.947-1.931 1.353-2.947 7.717-3.862 17.025-14.297 18.345-22.835 1.286-8.368-4.806-14.025-12.388-12.196l.102-1.66c.101-1.423-.948-2.168-2.065-2.168-1.15 0-2.335.711-2.437 2.168-.812 11.688-1.083 23.376-5.246 33.811-.068.17-.135.373-.237.542-1.929 4.676-4.67 9.114-8.597 13.145-9.51 9.757-22.473 17.38-36.249 17.245-13.2-.102-25.316-7.928-34.15-17.414-12.625-13.552-11.982-30.83-14.994-47.905-.271-1.491-1.557-1.863-2.674-1.491-1.049.339-1.929 1.322-1.692 2.711 1.895 10.672 1.354 22.089 5.415 32.252a71.097 71.097 0 0 0 1.625 3.693c-5.653 1.66-12.016 3.456-18.48 5.556 2.911-12.298-.372-24.968-1.219-37.47-1.083-16.295-.304-32.998 5.45-48.446 10.695-28.696 42.747-56.815 74.968-42.925.474.407 1.151.61 1.964.305 12.455-4.404 29.987 3.151 38.178 12.806 8.868 10.469 13.572 24.732 15.975 38.046 2.945 14.297 3.96 27.95 4.265 42.518.135 7.284.034 15.415 2.911 22.292 2.403 5.726 7.006 9.588 11.71 13.383.88.711 1.896.643 2.708.203 1.218-.678 1.895-2.304.508-3.422-5.517-4.438-10.357-8.707-11.982-15.923-1.997-8.978-1.185-18.566-1.523-27.679-.372-11.078-1.997-21.716-4.231-32.558-2.707-15.008-8.495-32.049-19.8-42.856-9.206-8.809-26.603-15.348-39.261-11.316-28.397-11.62-59.332 6.505-73.92 31.304-8.63 14.67-12.421 31.507-12.861 48.413-.237 9.113.406 18.159 1.523 27.205 1.185 9.452 2.335 18.803-.643 27.984-18.717 6.776-36.791 17.075-39.329 37.063 0 .034 0 .034-.034.068-.034.136-.034.237-.034.373 0 .067-.034.135-.034.237v.034c-3.621 26.086-4.23 52.105-4.738 78.395-.305 16.804-2.911 34.828 3.181 50.107-9.95-3.692-20.409-4.573-31.07-5.217 4.434-29.915 10.492-59.593 15.603-89.406 4.061-23.682 10.154-49.769 7.547-73.924a1 1 0 0 0-.067-.339v-.271c-2.674-19.65-16.179-30.796-33.982-36.352-18.615-5.793-39.092-9.147-56.286-18.701-12.793-6.742-7.581-25.884-4.806-36.996.034-.169.068-.305.068-.44a226.886 226.886 0 0 0 8.225-6.912c6.566-5.725 14.113-12.332 16.956-20.903 1.862-5.624 1.287-11.722 2.573-17.448.778-3.455 1.997-6.708 2.877-10.129 2.064.914 4.264 1.49 6.566 1.592 2.64.102 2.877-3.557.744-4.37-.237-.102-.474-.136-.744-.17-9.883-.44-18.108-14.026-20.613-22.36-2.978-9.893-1.116-20.564-.812-30.694.44-15.381-3.926-28.899-16.551-38.08-.981-4.54-2.403-8.978-4.027-13.348-.982-2.711-5.382-1.559-4.366 1.219 1.252 3.422 2.403 6.878 3.317 10.401.304 1.118.541 2.236.778 3.354.474 6.674-.338 13.179-3.486 19.142-1.354 2.575 2.538 4.878 3.926 2.303 2.809-5.352 4.062-11.146 4.197-17.074 17.16 15.143 8.529 37.741 11.474 58.305.237 1.762.677 3.625 1.252 5.556-4.4-1.084-8.969-1.389-13.505-1.355-2.91.034-2.91 4.54 0 4.54 5.28-.034 10.459.406 15.434 2.134 2.742 6.336 6.973 12.569 12.32 16.465-1.286 6.166-3.52 11.858-4.163 18.193-.609 5.997-1.184 11.146-4.637 16.296-2.403 3.625-5.652 6.708-8.834 9.656-13.504 12.569-33.135 29.339-52.969 23.85-15.569-4.302-30.901-22.156-38.042-36.013-9.24-17.888-7.988-38.791-7.142-58.306 5.72-.88 11.169-2.134 16.178-4.302 5.517-2.372 10.527-5.827 14.859-11.045 10.187-12.196 16.923-27.746 22.406-42.585 1.015-2.745-3.351-3.93-4.366-1.22-4.739 12.874-10.628 25.917-18.616 37.131-9.443 13.247-21.661 16.635-37.095 18.329-2.877.305-2.911 4.844 0 4.539.711-.067 1.388-.169 2.099-.237-.102 2.812-.237 5.624-.305 8.47-2.098-1.287-4.332-1.796-6.431-1.626a2.574 2.574 0 0 0-.203-.678c-11.812-25.578-1.049-60.44 18.92-79.378 16.179-15.347 49.788-22.326 69.554-9.893 1.827 1.152 3.52-.677 3.317-2.303-.068-.61-.373-1.186-1.05-1.593-21.356-13.416-57.301-6.03-74.901 10.706-21.458 20.395-32.221 57.052-19.766 84.528-3.689 1.999-6.464 6.2-6.803 11.62-.745 12.603 11.305 27.036 21.763 32.829.271.135.508.203.745.271 1.286 3.49 2.809 6.877 4.738 10.198a61.054 61.054 0 0 0 2.099 3.387c-.204 8.572-2.167 17.143-4.942 25.24-1.929 5.658-6.295 19.413-13.708 20.057-.067 0-.135.033-.203.033-.135 0-.27 0-.406.034-25.215 5.251-51.852 1.864-76.458 10.333-17.397 5.997-27.415 17.516-33.508 34.252-13.91 38.351-25.452 78.158-35.165 117.763-2.505 10.197-5.551 21.174-5.348 31.677.237 13.179 5.415 30.355 18.209 36.25.102.034.203.068.338.102l.203.101a953.272 953.272 0 0 0 14.757 5.895c-.71 4.438-2.098 9.148-3.283 13.654H14.1c-2.81.033-2.844 4.539.101 4.539Zm163.984-332.657c-2.471-3.828-4.806-8.266-4.738-12.975.101-7.454 7.378-12.163 12.895-6.437-.136 10.841.406 21.682 3.114 32.015-4.502-3.388-8.326-7.995-11.271-12.603Zm-47.418 338.756c-1.219-2.169-1.253-5.116-.576-8.369 3.96.813 7.954 1.627 11.914 2.474-2.978 3.828-7.277 8.402-11.338 5.895Zm108.51 3.523c-.135-.373-.372-.61-.609-.813-5.179-8.334-12.422-15.009-21.255-19.413-2.607-1.287-4.908 2.609-2.302 3.93 8.36 4.167 15.129 10.401 19.935 18.295 0 1.118-.778 2.879-1.658 3.794-1.997 2.033-4.569.779-6.6-.542-7.311-4.336-16.043-6.166-24.437-6.776-4.163-.305-8.089-.067-12.218.509-8.36 1.118-14.486-1.457-21.459-5.895a3.365 3.365 0 0 0-.846-.339c-11.846-4.032-24.166-6.471-36.418-8.978 2.301-6.674 6.431-13.552 8.495-16.872 4.739-7.589 11.034-16.702 20.409-18.362.237-.034.406-.102.61-.203 13.267 5.962 26.806 11.281 40.581 16.194.372.305.846.474 1.455.372.44 0 .846-.135 1.151-.372 7.683-2.88 15.468-5.658 23.591-7.081 11.507-2.033 19.157.271 28.126 7.623 4.129 3.388 8.258 6.776 12.354 10.163.203.17.372.305.575.475 1.828 1.49 3.655 3.015 5.517 4.506 2.809 2.303 5.584 4.573 8.394 6.877 2.098 1.728 13.301 9.588 6.938 13.247-3.96.576-7.92-2.677-10.932-4.811-4.163-2.948-8.259-5.997-12.625-8.673-5.584-6.166-12.421-12.535-20.172-15.822-2.64-1.118-4.975 2.779-2.302 3.897 7.548 3.184 14.013 9.282 19.428 15.279 1.219 1.118-.203 3.998-1.049 5.183-1.489 2.101-3.791 3.117-6.194 2.338-1.185-2.676-3.452-5.082-5.348-7.013-5.178-5.183-11.236-9.486-17.092-13.856-2.335-1.728-4.603 2.202-2.301 3.93 4.569 3.387 9.172 6.741 13.403 10.536 1.895 1.694 6.126 5.014 7.277 8.199-.034.406.033.813.27 1.152.034.271.034.542 0 .779-4.298 3.964-9.037 2.541-12.692-1.457Zm37.298 24.664c-9.07-.136-18.141-.237-27.212-.373 21.797-7.758 44.542-12.671 67.726-13.551 24.606-.915 50.972 1.998 72.904 13.822a41.433 41.433 0 0 1 2.843 1.694c-38.753-.508-77.507-1.05-116.261-1.592Zm169.163 2.337c-12.659-.169-25.317-.338-37.975-.542 10.898-5.048 22.439-8.3 34.421-9.621 22.067-2.372 44.101.237 65.661 4.912 8.902 1.931 17.769 4.1 26.603 6.437a76154.16 76154.16 0 0 1-88.71-1.186Zm102.993.475c-31.883-9.419-65.018-17.346-98.424-15.754-11.779.576-23.455 2.507-34.591 6.539-2.47.88-4.941 1.897-7.344 2.947-1.456.644-3.825 2.27-5.551 3.219 1.32-11.858 2.674-23.716 3.757-35.607 14.249 3.32 30.597 1.66 44.406 1.897 22.101.441 44.304 1.084 66.372-.508.101 0 .203 0 .338-.034.136 0 .271-.034.373-.068.643-.135 1.117-.542 1.421-1.05.372-.542.508-1.22.271-1.931a1.695 1.695 0 0 0-.135-.373c-.034-.067-.068-.169-.102-.237a29.178 29.178 0 0 1-.914-2.134c5.449.203 10.932.305 16.382-.136-.237.136-.44.305-.643.542-6.127 7.284-11.034 15.415-14.351 24.359-.576 1.559 1.218 3.388 2.775 2.778 7.345-2.778 14.114-6.369 20.409-10.909 1.828 8.877 3.69 17.685 5.551 26.46Zm2.471-80.734c1.083.102 1.76-.44 2.031-1.219 2.267-3.083 5.28-6.708 8.664-8.673 2.572-1.491 3.859-1.423 7.311-.983 4.028.508 9.951-.068 12.794 3.117-7.819 7.589-15.637 15.212-23.456 22.801-1.692.813-3.384 1.693-5.076 2.574-4.874 2.575-11.745 5.116-15.4 9.249-1.659 1.897-2.64 4.066-2.843 6.098-5.924.509-11.914.373-17.803.102-2.2-11.654 2.098-25.375 4.975-36.42 9.511 1.22 19.157 2.338 28.803 3.354Zm22.372-49.836c6.532 9.046 12.828 18.498 20.071 26.9-2.133 3.558-4.163 7.149-6.228 10.503-.44.068-.88.271-1.252.61l-.745.745c-.981-1.355-2.234-2.439-3.926-3.117-2.031-.847-3.655-.44-5.788-.542-2.775-.102-5.212-1.287-7.92-1.558a1386.913 1386.913 0 0 1 5.788-33.541Zm33.068 85.85c-2.234 1.592-4.502 3.15-6.736 4.743a16.694 16.694 0 0 0-.541-1.389c-1.794-3.964-2.742-5.014-2.674-9.825.034-1.965.406-2.44-.169-4.438-.948-3.253-3.791-5.861-6.465-7.894-.135-.542-.305-1.084-.474-1.626 4.502 2.202 8.699 5.183 12.151 8.673 3.757 3.828 5.009 7.69 4.941 11.688 0 .068 0 .068-.033.068Zm-22.643-27.442c-.102-.034-.17-.034-.237-.034-2.742-1.491-6.025-1.796-9.477-.339a473.217 473.217 0 0 1-3.791 1.525l17.329-16.838 7.006 6.098-9.544 10.062a14.348 14.348 0 0 0-1.286-.474Zm-46.809 33.099c-.271 1.389-.203 2.948.27 4.54.576 1.931 1.659 3.456 3.148 4.404-4.468 3.253-9.24 5.963-14.283 8.233 2.843-6.166 6.532-11.925 10.865-17.177Zm24.132 17.99a128.441 128.441 0 0 0 22.677-7.115c2.64-1.118 1.489-5.488-1.219-4.37a128.625 128.625 0 0 1-28.058 8.165c-3.182.068-4.332-2.71-3.757-5.455 8.969-2.066 17.295-6.03 25.926-9.282 2.708-1.017 1.523-5.421-1.218-4.371-9.883 3.761-19.496 8.775-30.123 10.13-1.727.102-3.047-.305-3.656-1.965-.744-2.1-.609-4.37 1.659-5.353 10.018-3.998 20.07-7.995 30.089-11.993 2.674-1.05 1.523-5.454-1.219-4.37-9.95 3.963-19.935 7.961-29.886 11.925-.034 0-.067.034-.101.034s-.068.034-.102.034a7.996 7.996 0 0 0-.812.339c-3.486-.509-1.591-4.642-.034-6.268 2.505-2.609 7.175-4.37 10.357-6.132 7.615-4.201 15.468-7.86 23.557-11.045 2.707-1.152 5.314-1.321 7.547.847 1.591 1.525 2.471 3.625 2.877 5.76.17.847.677 1.355 1.286 1.524 1.591 1.152 3.52 2.778 4.4 4.506 1.151 2.338-.033 3.456 0 5.59.034 1.83.237 3.219.88 4.98.711 2.033 1.963 3.761 2.742 5.726 1.557 3.998 1.286 12.061-2.843 15.042-8.631 2.541-17.058 5.793-25.892 7.521-2.979-.034-4.4-1.931-5.077-4.404Zm38.923-8.3a21.51 21.51 0 0 0 .541-5.692 439.322 439.322 0 0 0 4.942-3.49c-.61 2.237-1.422 4.506-2.268 6.844-.948 1.118-1.997 1.863-3.215 2.338Zm-51.04-232.714c2.031-.78 4.637-1.356 6.465.135 4.23 3.49.812 10.198-1.524 13.552-2.2 3.15-4.975 6.606-8.123 9.316 1.997-7.318 2.64-15.11 3.182-23.003Zm-52.461 62.777c8.224-.203 16.313-3.049 23.556-7.385-3.96 9.045-13.301 15.753-23.184 15.855-10.662.135-19.495-5.929-24.234-14.839 7.176 4.167 15.163 6.606 23.862 6.369Zm-111.658 85.307c.406-24.257 1.184-48.243 4.569-72.297v-.271c.034-.102.068-.204.068-.339 1.929-17.99 19.089-27.476 36.621-33.71.508 0 1.015-.169 1.421-.508 8.022-2.744 16.01-4.845 22.576-6.776 2.335 4.167 5.178 8.03 8.664 11.485a69.353 69.353 0 0 0 7.176 6.268c4.095 13.856 16.11 24.02 30.901 23.851 13.471-.136 26.298-10.571 29.074-23.851.034-.203.067-.407.034-.576a68.704 68.704 0 0 0 8.833-7.995c1.862-1.999 3.419-4.066 4.807-6.2 16.483 4.777 38.449 3.15 50.532 16.837a522.92 522.92 0 0 0 9.037 13.586c3.824 16.533 2.707 32.388-3.182 48.277-1.015 2.745 3.351 3.93 4.366 1.22 5.009-13.45 6.6-26.934 4.942-40.756 8.529 11.993 17.397 23.715 26.095 35.674 7.412 10.198 14.554 20.599 21.188 31.304 3.553 5.726 7.784 12.061 7.446 19.074-.305 5.895-2.64 11.959-6.059 16.669-9.747 15.652-23.997 29.203-38.381 41.467a2.01 2.01 0 0 0-1.422 1.22c-1.455 1.253-2.944 2.473-4.4 3.693 2.099-6.878 2.742-13.518-2.335-20.023-4.468-5.725-10.898-10.333-17.701-13.314 3.283-3.456 6.532-6.911 9.815-10.367.812-.847.948-2.372 0-3.219-2.809-2.439-5.585-4.844-8.394-7.284 5.009-7.182 15.942-9.316 23.997-11.247 7.751-1.864 15.637-3.117 23.489-4.337 2.877-.44 1.658-4.811-1.218-4.37-10.459 1.66-20.985 3.32-31.173 6.437-2.877.881-5.753 1.795-8.461 2.947 1.963-3.049 3.96-6.132 5.991-9.113 4.433-6.539 7.412-9.69 15.772-10.028 2.911-.102 2.911-4.642 0-4.54-5.483.203-11.068 1.423-14.926 5.556-3.249 3.456-6.093 7.555-8.766 11.824-7.683-9.08-14.317-19.413-21.391-28.933 2.403-12.603 5.009-25.172 7.92-37.673.677-2.846-3.689-4.032-4.366-1.22-2.979 12.806-5.653 25.68-8.089 38.588a1.83 1.83 0 0 0-.203 1.051c-2.471 13.111-4.739 26.29-6.905 39.468-5.178 1.762-9.68 6.81-12.929 11.079-33.846-3.524-67.388-8.639-101.064-13.179-5.145-.711-10.222-1.287-15.231-1.457a492.276 492.276 0 0 0-10.628-89.847c-.609-2.845-4.975-1.66-4.366 1.22 2.166 10.198 3.96 20.429 5.483 30.694a579.038 579.038 0 0 0-25.554-22.699c-2.233-1.863-5.449 1.322-3.215 3.219 10.222 8.537 20.138 17.448 29.751 26.663 2.2 16.804 3.554 33.709 3.994 50.716-6.837.068-13.607.949-20.41 3.354-2.741.949-1.557 5.353 1.219 4.371 7.107-2.507 14.181-3.287 21.323-3.185h.44c6.261.102 12.591.881 19.021 1.796 12.354 1.728 24.708 3.489 37.062 5.183-19.868 7.725-38.788 17.516-56.557 29.407-2.403 1.626-.135 5.522 2.302 3.896 19.867-13.28 41.122-23.986 63.664-31.982.034 0 .068-.033.101-.033 6.77.914 13.573 1.795 20.376 2.676-3.486 13.484-8.225 29.61-3.419 43.026-19.563 1.22-39.227.779-58.79.407-9.545-.17-19.056-.407-28.6-.475-10.526-.101-21.526-.372-30.868-5.793-17.329-17.414-11.44-44.483-11.067-66.606Zm1.624 61.863c1.726 2.812 3.791 5.522 6.363 8.063l.034.034c.068.068.169.136.237.203.068.068.135.102.203.17 2.708 1.592 5.585 2.812 8.563 3.794-1.083 12.197-2.471 24.393-3.824 36.589-1.557-.847-3.317-1.998-4.536-2.676-20.172-11.078-43.323-15.008-66.169-15.381-28.803-.474-57.369 5.455-84.242 15.584 3.316-5.048 6.532-10.13 9.612-15.313.88-.576 1.76-1.287 2.572-2.134.034-.034.034-.068.068-.102.034-.068.101-.102.135-.169.034-.068.102-.136.136-.204.033-.067.067-.169.101-.237.034-.068.068-.101.068-.169 0-.034.034-.068.034-.136.067-.271.135-.508.169-.779 3.554.373 6.904-1.186 9.206-4.404.914-1.254 1.726-2.948 2.132-4.675 4.028 2.778 7.886 5.827 12.083 8.368 3.52 2.168 7.006 3.659 11.203 2.947.508-.102.846-.305 1.117-.576 6.634-3.76 4.163-11.01-.711-15.618-5.212-4.946-10.932-9.452-16.652-13.958 9.477-2.575 19.191-4.201 28.939-5.251h.067c1.828-.204 3.69-.373 5.517-.542 11.203-.949 22.44-1.186 33.677-.78 14.825.509 30.495.712 43.898 7.352ZM180.316 311.219c.034 0 .068-.034.068-.034 8.021-1.186 12.388-10.706 15.163-17.346 3.486-8.301 6.025-17.38 6.938-26.426 8.936 11.858 21.696 23.377 35.133 26.256 13.403 2.88 26.163-3.049 37.298-10.943-2.979 13.044-5.179 30.085 8.089 37.098a91.07 91.07 0 0 0 9.342 4.472c-6.262 5.353-12.896 10.265-20.477 13.653-4.129 1.863-8.496 3.185-12.929 4.099-3.588.746-10.391.102-13.64 1.694-2.776 1.322-5.28 5.827-7.21 8.131-2.267 2.677-4.535 5.387-6.836 8.063-2.674-3.049-5.314-6.098-7.988-9.113-2.166-2.473-4.637-6.742-7.683-8.233-4.197-2.032-10.492-1.998-15.028-3.455a90.356 90.356 0 0 1-15.129-6.471c-9.341-5.048-17.668-11.621-25.486-18.735 6.905-.542 13.708-1.321 20.375-2.71ZM49.028 533.159c-14.216-6.64-17.262-27.882-14.994-41.705 1.218-7.385 2.708-14.771 4.535-22.021 4.434-17.82 9.579-35.471 14.757-53.088a2192.863 2192.863 0 0 1 9.714-32.185c-.27 22.665 5.178 45.059 13.877 66.165 1.083 2.677 5.483 1.491 4.366-1.219-10.932-26.595-16.99-55.392-12.015-84.088.643-1.931 1.286-3.896 1.929-5.827 1.895-5.556 3.689-11.383 6.329-16.634 5.043-9.961 14.418-16.567 24.64-20.429 16.618-6.268 34.387-6.641 52.021-7.793.102.305.305.61.576.881 14.756 13.823 31.476 25.409 51.378 30.152 3.114.746 6.058.543 8.394 2.27 2.064 1.559 3.858 4.405 5.584 6.37 3.216 3.658 6.397 7.317 9.612 10.976.745.881 2.437.881 3.216 0 2.944-3.489 5.923-7.013 8.867-10.502 1.524-1.796 2.979-4.235 4.807-5.658 2.233-1.762 4.366-1.016 7.615-1.423 16.788-2.168 30.326-10.299 42.849-21.242 11.305 4.201 23.286 6.979 34.692 10.265 6.871 1.965 14.419 3.693 20.782 7.081 10.56 5.624 16.889 16.736 18.581 28.289 2.606 24.461-3.621 50.683-7.751 74.635-5.077 29.407-11.033 58.678-15.366 88.187-12.252-.644-24.572-.576-36.824.373-1.692.135-3.385.271-5.077.44 5.821-27.814 11.609-55.663 17.16-83.545.271-.204.474-.441.677-.813 10.052-21.48 22.372-41.705 36.892-60.44 1.76-2.27-1.422-5.489-3.215-3.219a327.03 327.03 0 0 0-31.206 48.447 3981.204 3981.204 0 0 0 10.018-52.478c.508-2.846-3.825-4.066-4.366-1.22-9.376 51.496-19.969 102.687-30.665 153.844-10.526 1.186-20.984 3.083-31.104 6.098-1.794-1.423-3.588-2.846-5.382-4.302-8.427-6.912-15.738-14.365-27.178-14.738-11.982-.406-23.929 3.964-34.997 8.165-25.723-9.147-52.123-19.345-75.172-34.251-7.141-4.608-13.674-9.487-20.409-13.857 5.855-22.529 15.637-44.212 22.237-66.572 4.028-13.653 7.683-27.544 9.511-41.705 1.218-9.486 2.233-20.632-2.505-29.373-1.388-2.575-5.314-.271-3.926 2.304 4.84 8.944 2.843 21.411 1.286 30.931-2.268 14.128-6.126 28.018-10.289 41.705-6.16 20.158-14.892 39.842-20.375 60.203-8.09-4.879-16.687-8.808-27.111-10.401-2.843-.44-4.096 3.93-1.219 4.371 7.04 1.084 13.64 3.15 19.902 6.064-16.619-.169-31.308 6.911-45.083 17.041-2.335 1.694-.068 5.658 2.302 3.93 15.129-11.112 31.612-19.006 50.802-15.754.44.068.847.034 1.185-.101.575.372 1.151.711 1.726 1.084 7.616 5.082 14.52 11.214 22.406 15.821 8.665 5.048 17.532 9.622 26.502 13.891-8.902 3.726-15.333 13.28-19.97 21.275-3.689 6.37-10.221 17.99-9.443 26.833-24.403-12.468-50.735-21.107-76.085-31.508Zm17.363 11.688c10.255 3.964 20.578 7.826 30.732 11.994H63.548c1.049-3.93 2.132-7.962 2.843-11.994Z" fill="#3F2600"/></g><defs><clipPath id="a"><path fill="#fff" transform="translate(12 101)" d="M0 0h691v503H0z"/></clipPath></defs></svg>