<svg viewBox="0 0 727 806" fill="none" xmlns="http://www.w3.org/2000/svg"><path d="M616.924 369.476c-86.157-18.359-116.089-146.451-280.896-303.795-15.816-15.08-32.296-30.351-52.717-38.34-22.33-8.74-47.816-8.045-71.756-2.652C147.653 39.016 92.289 86.065 59.819 143.885c-32.47 57.82-43.488 125.333-39.5 190.135 2.245 37 9.212 74.069 3.067 110.975-5.472 33.079-21.31 64.747-22.403 98.082-1.643 55.247 37.01 101.196 76.93 137.483 26.488 23.992 55.82 46.994 91.2 54.326 51.813 10.722 105.034-13.783 157.051-28.147 41.865-11.546 84.864-16.671 127.237-25.397 50.257-10.36 99.604-25.925 147.095-46.308 28.34-12.17 41.685-20.275 57.605-33.816 44.417-37.994 82.086-106.556 63.265-161.182-3.671-10.772-8.564-18.304-10.46-20.892-27.041-35.416-93.982-49.668-93.982-49.668Z" fill="#F90"/><g clip-path="url(#a)"><path fill-rule="evenodd" clip-rule="evenodd" d="M263.004 234.674c5.35-1.829 3.163-20.175 1.518-24.569-1.645-4.393-4.521-17.542-4.521-17.542s-10.299-6.698-9.925-13.798c.114-2.27.709-5.686 2.234-7.368a7.15 7.15 0 0 1 4.715-2.076s29.666-44.596 47.877-36.491c10.359 4.615 27.212 3.061 32.288 14.923 5.437 12.726-1.27 38.708-1.27 38.708s2.481 2.726 1.805 6.029c-.769 3.811-4.808 8.379-6.534 9.913-4.253 3.784-7.938 1.929-7.938 1.929l-5.002 9.223-8.219 9.377c-.843 2.01-1.86 8.092-1.485 11.943.314 3.275 2.006 4.508 2.006 4.508s3.077 7.622 1.043 10.522c-8.694 12.432-28.088 8.453-37.558-1.011-1.511-1.447-14.913-12.9-11.034-14.22ZM202.995 120.78s4.16-18.755 6.326-23.383c5.745-12.238 10.032-22.526 16.86-34.194 3.03-5.164 7.898-10.85 14.044-12.914 6.327-2.11 10.868 2.552 15.763 4.019 2.756.83 6.233-.543 8.694-1.762 6.848-3.389 13.075-5.552 12.6-8.861-.261-1.836-7.551-1.246-7.551-1.246s17.79-7.87 16.198-14.24c-.963-3.852-12.439 5.117-14.465 6.028-1.445.636-8.119-.053-8.119-.053s5.196-2.358 6.386-3.25c5.043-3.784 10.647-7.943 15.068-12.545.234-.247 3.344-3.878 1.959-5.224-3.203-3.215-16.431 8.587-18.204 9.538-1.772.951-8.981 2.853-8.981 2.853s8.232-9.611 12.158-13.818c2.989-3.201 5.939-6.376 3.451-10.107-.983-1.474-3.625 1.34-4.233 1.795-4.682 3.309-13.068 14.488-18.057 16.497 0 0 1.337-4.541 1.431-4.829.742-3.148 4.1-8.647 3.344-11.869-.134-.556-.201-3.423-2.776-1.768a13.705 13.705 0 0 0-4.922 4.816c-2.247 3.972-4.012 9.812-7.242 12.525-7.457 6.223-11.202 3.027-18.726 9.538-14.044 12.144-31.345 39.325-39.023 55.983-2.748 5.96-10.54 20.764-10.54 20.764s6.086.877 7.711 1.279c5.765 1.44 8.266 4.823 13.697 6.993 1.163.482 7.149 7.435 7.149 7.435ZM369.01 341.857c-.669.629-1.164 2.478 1.338-.911 2.762-3.778 4.808-7.656 7.269-11.528 4.896-7.709 16.051-27.897 10.446-37.214-2.909-4.856-7.356-7.026-10.259-11.018-2.059-2.86-2.922-7.214-3.551-11.642-.334-2.331 2.007-3.53 2.007-3.53s-3.13-3.436-5.284-5.499c-2.488-2.377-4.206-4.929-.615-6.53 5.524-2.459 11.115 3.751 14.332 7.89.374.489 6.313 6.028 6.313 6.028s-8.453-13.778-9.363-15.358a19.847 19.847 0 0 1-1.618-3.845c-.475-1.487-1.599-5.359.608-6.069 2.08-.669 4.167 2.09 5.952 3.591a32.787 32.787 0 0 1 7.778 9.96c.448.897 3.023 6.282 4.14 6.282 0 0-.101-7.789-.101-7.897 0-2.933-5.878-18.513.923-17.595 4.207.569 6.146 12.726 6.146 17.415 0 .301.937 9.129 1.612 8.901.956-.314 2.301-4.755 2.468-5.733.421-2.546-.796-15.044 2.715-13.477 2.936 1.306 2.782 5.131 3.03 7.716.668 6.658-2.575 19.646-2.575 19.646s2.876 6.457 2.394 12.833c-.976 13.068-6.347 33.203-11.463 48.582-3.377 10.14-14.499 35.988-14.499 35.988a21.914 21.914 0 0 1-11.061-5.726c-3.785-3.792-6.266-11.126-6.547-14.488-.201-2.231-.188-8.889-2.535-6.772ZM244.011 589.002s-.495 24.187-.495 30.677c0 20.604 2.989 41.528 4.072 62.098.435 8.339.134 26.176.134 26.176s3.678 1.099 5.424.885c6.206-.777 7.356 1.339 13.462 1.339 1.164 0 12.319-3.978 12.319-3.978s3.638-25.956 4.481-33.491c2.354-21.213 4.641-38.936 6.052-60.162.515-7.689 2.475-20.764 2.475-20.764s-10.955-5.935-13.777-6.504c-8.788-1.822-34.147 3.724-34.147 3.724ZM321.113 567.515l-2.542 12.96 3.023 15.466s8.199 0 8.982-.1c7.229-1.146 14.98-.04 22.296.388 22.07 1.3 43.022 7.281 65.259 4.736 6.373-.73 15.301-2.88 19.501-8.708a28.054 28.054 0 0 0 4.829-13.342c.923-17.583-1.298-24.783-10.908-40.028-1.605-2.545-9.082-15.406-9.082-15.406s-9.476 4.515-11.583 6.089c-8.46 6.356-14.927 10.985-22.972 17.891-.669.596-5.698 6.282-5.698 6.282l4.922 3.966s-7.43.79-16.826 1.902c-9.751 1.145-21.615 2.679-29.513 3.965-4.895.851-19.688 3.939-19.688 3.939Z" fill="#FFDEAD"/><path fill-rule="evenodd" clip-rule="evenodd" d="M282.177 198.705c-1.812 1.186-.568.583 1.023 4.803 1.88 4.956 7.765 7.897 12.62 5.841 1.792-.751 7.049-4.254 6.587-6.698-.294-1.514-3.785-1.682-4.821-1.896-3.893-.817-11.918-4.34-15.409-2.05Z" fill="#F2C6C3"/><path fill-rule="evenodd" clip-rule="evenodd" d="M256.911 169.107s-.174-19.847 4.013-34.395a32.39 32.39 0 0 1 8.694-14.642c6.687-6.363 13.616-5.111 21.588-6.444 2.294-.381 5.263-1.138 8.025-1.748 11.777-2.619 18.893-.06 29.519 3.698 1.231.435 3.632 2.009 5.759 2.21 1.424.141 2.755-1.232 3.383-.603.83.831 1.572 1.775.823 3.202-.863 1.661-3.297 3.778-3.063 4.019 3.484 3.496 8.092 4.883 9.945 10.141 4.607 13.088.1 28.48-5.297 40.489-1.304 2.894-4.487 14.301-10.105 10.932-1.625-.978-.261-4.689 0-5.694 1.337-5.244 2.722-12.378 2.247-17.77-1.271-14.38-4.287-17.796-15.616-22.659-4.741-2.01-10.861-3.517-15.99-4.689-3.692-.824-8.406 2.177-11.65 3.53-9.864 4.106-16.325 13.711-21.24 21.374-.783 1.219-3.117 7.093-5.745 9.102-2.521 1.903-5.29-.053-5.29-.053ZM233.611 437.036s.596 13.671.596 18.487c0 10.717 1.337 21.434 1.585 32.151.608 24.234.521 52.915.521 77.162 0 2.592 4.595 7.555 4.595 7.555s-2.421 1.467-2.495 4.18c-.107 3.878 2.354 9.625 4.561 11.467 2.207 1.842 8.106.248 14.68-.315a98.7 98.7 0 0 1 18.183.147c3.933.563 15.65 4.374 15.65 4.374l4.982-4.253.06-8.942s5.257-9.793 6.501-19.009c2.059-15.225 4.086-31.481 6.627-43.196 1.451-6.698 5.578-22.104 5.578-22.104s12.994 6.136 14.766 8.299c10.165 12.358 18.625 20.048 27.072 25.225 0 0 7.557 14.589 12.038 16.846 0 0 .401 6.149 3.237 7.897a33.503 33.503 0 0 0 7.924 3.436s12.607-15.56 24.076-22.941c4.682-2.994 24.256-11.909 24.256-11.909s-.3-6.778-2.788-11.246c-2.294-4.113-4.769-3.744-4.769-3.744s-.24-8.313-2.38-11.595c-2.281-3.516-4.949-4.836-8.621-8.707-5.437-5.747-11.469-19.679-15.589-24.488-6.019-7-16.157-17.764-23.715-26.478-5.35-6.162-9.476-11.889-9.476-11.889l-2.929-10.308-1.572.576c-5.952 2.183-27.098 9.92-33.298 11.989-15.107 5.037-32.168 12.934-48.004 14.696-13.202 1.494-41.852-3.363-41.852-3.363Z" fill="#000"/><path fill-rule="evenodd" clip-rule="evenodd" d="M230.16 771.411c-6.019 3.483-7.156 16.658-3.852 25.373 2.146 5.68 6.293 8.868 11.857 8.312 6.627-.67 12.653-6.899 16.472-11.688 7.61-9.525 8.152-15.406 16.665-23.966.997-.991 7.584-4.173 11.37-8.929 3.785-4.755 4.781-11.138 1.718-12.016-3.344-.958-8.179 6.223-9.837 8.252-5.591 6.839-20.217 25.62-20.217 25.62s-5.35-5.552-6.454-6.028c-5.076-2.177-12.513-7.951-17.722-4.93ZM248.003 723.507l.12-15.185s3.785.147 9.029.67c3.43.368 7.356 1.728 11.723.529 2.194-.603 9.363-2.398 9.363-2.398s0 9.679.241 11.715c.368 2.753 2.461 13.858 2.461 13.858l-8.119-2.009c-3.966-.938-24.818-7.18-24.818-7.18ZM306.667 567.448c-2.494 1.266-4.721 5.961-4.427 10.831.488 7.957 5.35 17.368 8.875 20.208.06.047 3.818-1.34 4.012-1.387l6.755-.669s-2.796-15.406-2.796-17.502c0-1.233 2.675-12.057 2.675-12.057s-11.964-1.018-15.094.576Z" fill="#fff"/><path fill-rule="evenodd" clip-rule="evenodd" d="M247.027 723.862c-4.013 4.996-7.357 24.113-11.262 33.885-.342.858-6.26 13.282-6.26 13.282s13.723 1.722 18.311 5.058c1.15.837 6.935 6.885 6.935 6.885a163.457 163.457 0 0 1 13.141-18.627c4.133-4.903 10.433-8.232 13.329-11.548 1.545-1.775.822-3.972 1.19-5.445 1.425-5.694-1.919-17.033-1.919-17.033a9.683 9.683 0 0 1-6.982 1.172c-3.518-.864-7.544-4.689-9.978-6.029-3.859-2.103-5.35-3.389-8.507-3.643-2.04-.148-5.731-.777-7.998 2.043ZM302.334 563.965l-6.514 14.89s2.006 4.193.923 7.95c-1.297 4.635-6.206 7.582-6.206 7.582s-1.692 12.814-1.338 13.162c.355.348 6.093-3.978 11.65-6.792a36.642 36.642 0 0 1 8.387-2.92 14.095 14.095 0 0 0-1.131-6.524c-1.511-3.724-5.263-10.442-4.868-15.56.341-4.521 3.952-9.739 3.952-9.739l-4.855-2.049Z" fill="#FFD35A"/><path fill-rule="evenodd" clip-rule="evenodd" d="M261.9 232.993c-2.007-2.68-6.146-2.458-10.941-7.268-5.524-5.526-11.771-16.115-14.419-19.183-12.773-14.736-15.676-20.664-22.912-38.775-4.681-11.742-10.841-35.835-10.841-35.835a13.5 13.5 0 0 0 2.093-6.852c-.053-3.932-5.437-11.387-8.58-12.726-6.4-2.747-15.154-6.652-19.635-6.732-4.889-.094-5.35.429-7.356 4.314-2.488 4.775-5.585 11.005-6.019 20.764a81.673 81.673 0 0 0 1.926 19.9c6.734 29.672 19.394 59.525 32.515 84.57 8.648 16.497 16.947 28.855 22.591 48.098 10.279 35.105 10.707 82.983 12.961 119.153.268 4.3.903 13.396.408 20.971-.408 6.096-2.408 11.012.609 13.437 4.942 3.958 9.041 5.613 15.281 5.613 11.777 0 24.263 4.414 35.231 1.822 17.234-4.073 32.462-12.901 47.375-21.2 9.176-5.104 32.442-12.13 32.442-12.13l-7.677-11.675s7.811 1.239 12.192-2.465c8.567-7.247 19.347-28.219 19.347-28.219s-8.935-1.962-13.482-8.808c-4.548-6.845-4.682-18.567-4.682-18.567l-4.353 3.349s5.203-63.37-15.335-83.94c-6.568-6.578-13.911-10.717-22.832-12.532-1.745-.355-17.388-8.822-17.388-8.822s-7.203 19.425-16.331 17.569c-2.769-.555-5.618-.2-8.648-2.418-5.911-4.313-12.098-12.779-16.893-17.502-2.855-2.773-4.721-1.333-6.647-3.911Z" fill="#fff"/><path d="M292.636 228.384a29.525 29.525 0 0 1-19.394-7.193c-10.179-8.628-15.776-24.328-13.937-39.07a1.126 1.126 0 0 1 1.337-1.012 1.158 1.158 0 0 1 1.003 1.3c-1.745 13.992 3.532 28.862 13.128 37 5.351 4.521 14.479 9.082 27.667 5.131 4.608-1.387 7.056-3.838 9.644-6.444.455-.449.903-.904 1.338-1.34 3.457-3.349 7.022-9.189 9.777-16.028a1.162 1.162 0 0 1 2.104.016c.124.268.142.574.049.855-2.909 7.234-6.574 13.215-10.312 16.832a49.73 49.73 0 0 0-1.338 1.34c-2.675 2.679-5.45 5.472-10.626 7.026a36.222 36.222 0 0 1-10.44 1.587Z" fill="#331C19"/><path d="M259.097 193.173a1.18 1.18 0 0 1-.668-.188c-7.23-4.689-10.547-11.3-9.096-18.138a8.235 8.235 0 0 1 4.682-6.029 7.344 7.344 0 0 1 6.687.362 1.167 1.167 0 0 1 .533.721 1.168 1.168 0 0 1-1.307 1.443 1.17 1.17 0 0 1-.429-.154 5.111 5.111 0 0 0-4.588-.221 5.868 5.868 0 0 0-3.344 4.347c-.722 3.429-.669 10.047 8.092 15.7a1.162 1.162 0 0 1 .046 1.927c-.209.147-.46.221-.715.21l.107.02ZM325.065 205.805c-.338 0-.675-.02-1.01-.06a1.163 1.163 0 0 1-1.01-1.299 1.138 1.138 0 0 1 1.297-1.012c5.444.67 11.095-7.046 11.777-10.543.455-2.277.127-4.173-.869-5.063-1.177-1.059-3.284-.67-4.855-.208a1.167 1.167 0 0 1-.903-.066 1.157 1.157 0 0 1 .234-2.151c3.11-.985 5.497-.75 7.102.67 1.605 1.42 2.227 4.112 1.605 7.247-.822 4.052-6.574 12.485-13.368 12.485ZM296.041 192.409a1.168 1.168 0 0 1-.381-2.264c1.19-.415 1.471-.991 1.538-1.775 0-.247-.114-.489-.455-1.011a5.723 5.723 0 0 1-1.07-2.525 8.093 8.093 0 0 1 1.338-5.124 1.158 1.158 0 0 1 1.194-.499 1.171 1.171 0 0 1 .917.915 1.166 1.166 0 0 1-.172.876 5.792 5.792 0 0 0-1.003 3.497c.105.577.348 1.119.709 1.581a3.8 3.8 0 0 1 .836 2.485 4.194 4.194 0 0 1-3.097 3.784 1.251 1.251 0 0 1-.354.06ZM289.573 163.406a1.146 1.146 0 0 1-.728-.254c-.897-.73-3.692-1.936-6.1-.797a1.16 1.16 0 0 1-1.473-.59 1.17 1.17 0 0 1 .484-1.514c3.31-1.56 7.002-.167 8.546 1.085a1.171 1.171 0 0 1-.059 1.855c-.196.139-.43.214-.67.215ZM292.102 211.988a10.768 10.768 0 0 1-2.608-.335c-9.617-2.405-9.403-13.711-9.363-13.825a1.164 1.164 0 0 1 .395-.837 1.174 1.174 0 0 1 .882-.282c.067 0 6.862.67 12.038 1.762a122.063 122.063 0 0 1 9.657 2.465 1.147 1.147 0 0 1 .669.609 1.144 1.144 0 0 1 .033.925c-1.357 3.556-5.43 9.518-11.703 9.518Zm-9.63-12.82c.234 2.679 1.437 8.707 7.59 10.227 6.153 1.521 9.784-4.085 11.062-6.611-1.652-.482-4.735-1.339-8.166-2.009-3.705-.777-8.273-1.346-10.486-1.607ZM277.864 140.037a8.117 8.117 0 0 1-5.966-2.338 1.163 1.163 0 0 1-.25-1.273 1.165 1.165 0 0 1 1.902-.375c4.855 4.877 15.081-2.089 18.612-5.184a1.149 1.149 0 0 1 1.639.107 1.168 1.168 0 0 1-.107 1.641c-3.558 3.122-10.193 7.422-15.83 7.422ZM290.202 140.559a1.168 1.168 0 0 1-.823-1.989 1.16 1.16 0 0 1 .823-.342c1.919 0 4.527-2.123 5.838-4.092a1.165 1.165 0 1 1 1.933 1.293c-1.371 2.063-4.575 5.13-7.771 5.13ZM311.469 138.905a11.241 11.241 0 0 1-8.093-3.142 1.17 1.17 0 0 1-.042-1.662 1.163 1.163 0 0 1 1.661-.012c4.521 4.4 12.038 2.069 15.977-.563a1.164 1.164 0 0 1 1.787 1.201c-.061.303-.239.57-.497.741a20.856 20.856 0 0 1-10.793 3.437ZM319.916 143.433a14.72 14.72 0 0 1-5.223-1.112 1.166 1.166 0 0 1 .829-2.177c5.27 2.009 7.102.395 8.306-.67l.381-.335a1.166 1.166 0 0 1 1.615.167 1.165 1.165 0 0 1-.123 1.621l-.328.282a7.517 7.517 0 0 1-5.457 2.224ZM330.65 180.875h-.188a1.172 1.172 0 0 1-.757-.47 1.16 1.16 0 0 1-.199-.87c.174-1.058.375-2.163.582-3.349 1.752-9.692 3.939-21.749-3.498-29.378a1.164 1.164 0 0 1 .037-1.63 1.162 1.162 0 0 1 1.629.003c8.272 8.486 5.871 21.742 4.119 31.42-.207 1.139-.408 2.238-.575 3.282a1.169 1.169 0 0 1-1.15.992Z" fill="#331C19"/><path d="M336.728 186.461a1.2 1.2 0 0 1-.608-.174 1.179 1.179 0 0 1-.388-1.601c1.518-2.485 2.675-5.948 3.732-9.002.281-.837.555-1.648.822-2.405 4.013-11.259 13.416-37.609-5.771-48.092a1.153 1.153 0 0 1-.592-.694 1.158 1.158 0 0 1 .089-.909 1.16 1.16 0 0 1 1.181-.595c.155.022.304.074.439.155 20.932 11.434 10.7 40.115 6.848 50.906-.268.75-.542 1.547-.816 2.371-1.077 3.168-2.294 6.758-3.946 9.464a1.153 1.153 0 0 1-.99.576ZM335.284 119.46c-3.906 0-8.38-2.719-11.644-4.688-.816-.496-1.551-.945-2.18-1.286-6.56-3.584-17.776-3.115-24.47 1.018a1.171 1.171 0 0 1-1.748-1.284c.074-.303.265-.564.531-.726 7.356-4.514 19.601-5.003 26.804-1.078.669.362 1.424.824 2.274 1.34 3.912 2.378 9.837 5.974 13.007 3.57a1.161 1.161 0 0 1 1.822 1.098c-.037.3-.189.574-.424.764a6.408 6.408 0 0 1-3.972 1.272ZM293.024 124.805a1.148 1.148 0 0 1-1.124-.877c-.24-.958-.414-1.936-.588-2.914a18.756 18.756 0 0 0-1.424-5.238 1.162 1.162 0 0 1 2.079-1.038 20.807 20.807 0 0 1 1.639 5.874c.16.925.321 1.849.548 2.747a1.166 1.166 0 0 1-.842 1.413 1.398 1.398 0 0 1-.288.033ZM257.232 168.544a1.153 1.153 0 0 1-.822-.337 1.158 1.158 0 0 1-.342-.822v-2.271c0-15.794-.06-33.698 12.426-45.46 3.05-2.88 11.891-6.282 16.311-6.282a1.146 1.146 0 0 1 .88.307 1.168 1.168 0 0 1-.408 1.955 1.164 1.164 0 0 1-.472.062c-3.832 0-12.091 3.175-14.713 5.653-11.75 11.072-11.716 28.44-11.69 43.759v2.277a1.156 1.156 0 0 1-1.17 1.159ZM264.534 164.204a1.17 1.17 0 0 1-1.102-.72 1.166 1.166 0 0 1 .273-1.29c3.464-3.469 9.263-13.229 11.583-18.165a1.165 1.165 0 0 1 2.1.991c-2.441 5.205-8.346 15.118-12.038 18.815a1.165 1.165 0 0 1-.816.369ZM263.712 234.687a1.203 1.203 0 0 1-.669-.194 1.179 1.179 0 0 1-.321-1.621c2.722-4.086 1.926-11.045 1.231-17.187a65.863 65.863 0 0 1-.582-7.154 1.168 1.168 0 0 1 1.164-1.165c.308 0 .604.123.823.341.218.219.34.515.34.824.067 2.306.254 4.607.562 6.893.749 6.53 1.592 13.945-1.598 18.754a1.16 1.16 0 0 1-.95.509ZM310.465 240.233a1.15 1.15 0 0 1-.668-.194c-3.906-2.605-2.488-9.531-1.451-14.582.234-1.158.448-2.183.541-2.967a1.16 1.16 0 0 1 .437-.779 1.145 1.145 0 0 1 .861-.232 1.164 1.164 0 0 1 1.009 1.299c-.1.831-.321 1.916-.575 3.148-.849 4.153-2.133 10.436.468 12.177a1.157 1.157 0 0 1-.668 2.13h.046Z" fill="#331C19"/><path d="M293.138 258.814h-.381c-8.447-.281-16.111-10.047-20.692-15.888l-.421-.536c-1.873-2.404-5.35-6.892-8.34-6.892-.308 0-.604-.123-.823-.341a1.168 1.168 0 0 1 .823-1.99c4.113 0 7.912 4.883 10.179 7.797l.408.522c4.334 5.519 11.576 14.736 18.946 14.997 3.097.08 5.872-1.34 8.601-4.354a1.157 1.157 0 0 1 1.638-.087 1.161 1.161 0 0 1 .087 1.641c-3.056 3.389-6.434 5.131-10.025 5.131Z" fill="#331C19"/><path fill-rule="evenodd" clip-rule="evenodd" d="M280.512 175.637a2.158 2.158 0 0 1 1.32-2.002 2.149 2.149 0 0 1 2.351.459 2.158 2.158 0 0 1-2.34 3.525 2.142 2.142 0 0 1-1.165-1.16 2.147 2.147 0 0 1-.166-.822ZM310.412 182.918a2.154 2.154 0 0 1 3.674-1.541 2.158 2.158 0 0 1-3.043 3.057 2.155 2.155 0 0 1-.631-1.516Z" fill="#331C19"/><path d="M316.738 168.383a1.143 1.143 0 0 1-.856-.382 5.348 5.348 0 0 0-5.403-1.339 1.177 1.177 0 0 1-.888-.091 1.173 1.173 0 0 1-.606-1.147 1.17 1.17 0 0 1 .825-1 7.747 7.747 0 0 1 7.778 2.01 1.17 1.17 0 0 1 .202 1.256 1.16 1.16 0 0 1-1.065.693h.013ZM257.165 179.971a1.173 1.173 0 0 1-.923-.456 6.18 6.18 0 0 1-1.164-2.331 1.15 1.15 0 0 1 .923-1.339 1.136 1.136 0 0 1 1.338.924c.16.487.407.941.729 1.34a1.149 1.149 0 0 1 .084 1.287 1.143 1.143 0 0 1-.987.575ZM329.01 196.073a1.164 1.164 0 0 1-.92-1.869c.175-.231.429-.388.713-.442.195-.061.385-.137.569-.228a3.466 3.466 0 0 1 1.839-.442 1.167 1.167 0 0 1 1.003 1.306 1.131 1.131 0 0 1-.44.778 1.127 1.127 0 0 1-.864.22c-.06 0-.381.161-.569.255a4.719 4.719 0 0 1-1.123.402 1.11 1.11 0 0 1-.208.02ZM258.877 232.785a1.114 1.114 0 0 1-.521-.127c-7.484-3.745-11.369-9.324-15.823-15.781-1.498-2.163-3.05-4.394-4.809-6.698-1.759-2.304-3.712-4.407-5.805-6.698-3.859-4.24-7.858-8.627-10.339-13.597a184.649 184.649 0 0 1-10.974-26.411c-2.254-7.033-4.2-14.36-5.765-20.248-1.211-4.568-2.174-8.178-2.675-9.377-.983-2.264 0-4.073.775-5.52.776-1.446 1.291-2.511.729-3.911-4.775-11.95-21.547-19.693-31.953-17.576a1.168 1.168 0 1 1-.455-2.291c11.255-2.23 29.426 6.082 34.568 19.003.99 2.485 0 4.367-.842 5.881-.843 1.513-1.197 2.317-.669 3.489.582 1.34 1.512 4.843 2.796 9.692 1.558 5.861 3.491 13.155 5.731 20.135a182.002 182.002 0 0 0 10.841 26.075c2.34 4.689 6.219 8.949 9.978 13.075 2.006 2.217 4.119 4.521 5.918 6.832 1.799 2.311 3.344 4.582 4.882 6.772 4.294 6.196 8.026 11.547 14.954 15.03a1.165 1.165 0 0 1-.515 2.204l-.027.047Z" fill="#331C19"/><path d="M203.443 121.597a1.149 1.149 0 0 1-.823-.337 1.171 1.171 0 0 1-.341-.822c0-4.929 2.95-13.724 4.682-18.982l.394-1.186c5.665-17.013 11.924-29.967 19.14-39.599 3.812-5.097 6.32-8.453 12.54-11.28 5.397-2.45 8.787-.669 12.078 1.08a18.16 18.16 0 0 0 6.106 2.323c3.183.443 6.019-.924 8.995-2.39.896-.436 1.792-.872 2.675-1.26l1.117-.462c2.006-.804 4.761-1.916 5.577-3.55.334-.67.261-.911.261-.918-.314-.542-2.434-.79-10.781 1.159-2.735.636-3.651.837-4.266.703-2.896-.583-5.15-2.224-7.357-3.818-3.451-2.511-6.179-4.487-10.653-2.25a1.163 1.163 0 0 1-1.61-1.408 1.17 1.17 0 0 1 .566-.675c5.752-2.874 9.631-.047 13.061 2.451 2.007 1.447 4.013 2.934 6.434 3.416.314 0 1.886-.361 3.277-.67 6.407-1.493 11.449-2.465 13.128-.328.475.596.856 1.681 0 3.403-1.204 2.418-4.427 3.717-6.781 4.688l-1.077.443c-.87.368-1.726.79-2.588 1.212-3.184 1.554-6.467 3.155-10.333 2.599a20.479 20.479 0 0 1-6.875-2.566c-3.17-1.68-5.671-3.014-10.031-1.018-5.671 2.58-7.912 5.573-11.63 10.543-7.002 9.438-13.155 22.164-18.732 38.909l-.402 1.192c-1.712 5.118-4.587 13.691-4.587 18.239a1.17 1.17 0 0 1-.342.822 1.153 1.153 0 0 1-.822.337Z" fill="#331C19"/><path d="M267.015 44.482a1.161 1.161 0 0 1-1.165-1.02 1.163 1.163 0 0 1 .878-1.277c5.932-1.494 10.593-5.245 12.586-6.846l.528-.422c2.301-1.782 4.809-4.83 5.264-6.082a6.29 6.29 0 0 0-1.024.194c-2.046.543-4.313 1.97-6.507 3.35-2.193 1.38-4.266 2.679-6.353 3.349-2.087.67-4.528.422-6.815.147a24.554 24.554 0 0 0-3.671-.241 1.215 1.215 0 0 1-1.217-1.119 1.149 1.149 0 0 1 .307-.838 1.175 1.175 0 0 1 .809-.374c1.342-.006 2.683.08 4.013.261 2.006.241 4.16.476 5.838-.053 1.806-.577 3.759-1.816 5.819-3.115 2.347-1.48 4.768-3.008 7.155-3.637.749-.201 3.017-.797 3.812.824 1.458 2.947-5.952 9.102-6.018 9.163l-.495.395c-1.933 1.547-7.056 5.666-13.476 7.28a1.014 1.014 0 0 1-.268.061Z" fill="#331C19"/><path d="M175.241 105.368a1.262 1.262 0 0 1-.462-.094 1.166 1.166 0 0 1-.609-1.527c7.491-17.583 22.618-42.258 33.513-57.744 2.267-3.229 10.151-14.167 16.231-19.344a16.543 16.543 0 0 1 8.52-4.02 16.914 16.914 0 0 0 7.356-3.067c3.632-2.585 4.889-5.164 6.474-8.426a46.212 46.212 0 0 1 3.584-6.37c2.007-2.92 4.568-4.79 6.521-4.79h.074a2.527 2.527 0 0 1 2.14 1.213c.802 1.286.474 4.073-3.645 13.98a46.03 46.03 0 0 0-1.291 3.576c.943-.737 2.321-1.889 4.34-3.69l.462-.403a45.85 45.85 0 0 0 6.206-6.061 105.502 105.502 0 0 1 3.825-4.153c1.338-1.387 4.769-4.548 7.143-4.08a2.286 2.286 0 0 1 1.685 1.48c.936 2.48-.883 5.152-2.006 6.746a55.512 55.512 0 0 1-9.169 10.857c-.174.175-.582.516-1.117.972-2.18 1.848-3.738 3.262-4.681 4.226.71-.12 1.413-.28 2.106-.475 5.009-1.601 9.55-4.555 13.944-7.415l1.478-.965a7.64 7.64 0 0 0 .669-.502c2.635-2.01 5.631-4.072 7.764-3.624a2.415 2.415 0 0 1 1.659 1.253c1.518 2.786-2.18 6.25-5.758 9.277-.361.308-.669.556-.843.73-5.785 5.418-11.79 9.203-20.063 12.672a1.155 1.155 0 0 1-1.265-.247 1.166 1.166 0 0 1-.256-1.265 1.151 1.151 0 0 1 .625-.631c8.025-3.349 13.817-7.02 19.394-12.23.208-.195.535-.47.937-.811 5.176-4.374 5.49-5.881 5.216-6.383-.956-.288-2.929.81-5.979 3.114-.374.288-.669.503-.822.61l-1.472.951c-4.527 2.947-9.195 5.988-14.505 7.683-.041 0-4.281 1.306-5.504.448a1.5 1.5 0 0 1-.562-1.024c-.04-1.3 1.451-2.974 6.393-7.167.488-.416.856-.724 1.017-.871a53.106 53.106 0 0 0 8.787-10.396c.843-1.239 2.294-3.349 1.786-4.688-.388-.168-2.387.73-4.996 3.402-1.625 1.662-2.742 2.928-3.745 4.06a47.693 47.693 0 0 1-6.467 6.322l-.388.342c-5.878 5.238-6.988 5.593-7.737 5.54a1.525 1.525 0 0 1-.93-.463 1.162 1.162 0 0 1-.241-1.031 50.387 50.387 0 0 1 2.161-6.571c3.892-9.377 3.945-11.447 3.791-11.91-1.123 0-2.989 1.086-4.821 3.732a43.41 43.41 0 0 0-3.404 6.061c-1.666 3.423-3.104 6.377-7.223 9.304a19.196 19.196 0 0 1-8.266 3.45 14.155 14.155 0 0 0-7.477 3.51c-5.878 4.996-13.616 15.733-15.843 18.901-10.821 15.406-25.855 39.894-33.271 57.316a1.169 1.169 0 0 1-.983.71ZM234.058 393.311a1.16 1.16 0 0 1-1.15-1.024c-1.464-12.01-2.514-24.167-3.531-35.922-2.167-24.93-4.394-50.711-10.647-75.688-2.28-9.096-8.165-19.606-13.375-28.883-2.414-4.313-4.681-8.392-6.561-12.177-1.598-3.242-3.223-6.463-4.842-9.692-6.774-13.483-13.776-27.462-18.591-42.03-.776-2.358-1.55-4.68-2.321-6.966-5.404-16.076-10.493-31.24-11.041-48.977-.188-6.269 2.193-15.097 5.544-20.536a1.177 1.177 0 0 1 1.615-.392 1.178 1.178 0 0 1 .391 1.618c-3.143 5.097-5.35 13.396-5.196 19.237.535 17.415 5.577 32.405 10.914 48.306l2.334 6.98c4.755 14.434 11.724 28.306 18.458 41.715 1.618 3.229 3.244 6.464 4.842 9.706 1.832 3.731 4.106 7.783 6.514 12.056 5.263 9.378 11.235 20.054 13.589 29.472 6.3 25.158 8.54 51.026 10.7 76.043 1.017 11.742 2.067 23.879 3.525 35.848a1.151 1.151 0 0 1-.585 1.154c-.133.074-.28.122-.432.139l-.154.013ZM272.379 446.447a74.277 74.277 0 0 1-18.204-2.311c-1.812-.448-3.765-.743-5.838-1.051-5.484-.817-11.155-1.661-15.114-5.627-2.007-1.976-1.539-6.028-.917-9.953l.148-.924c.769-5.419.441-11.233.12-16.853-.174-3.021-.348-6.142-.348-9.149.022-.293.154-.567.369-.767a1.168 1.168 0 0 1 1.582 0c.216.2.348.474.37.767 0 2.94.174 6.028.347 9.015.328 5.734.669 11.662-.14 17.315l-.147.964c-.341 2.15-1.043 6.631.261 7.938 3.41 3.422 8.694 4.213 13.816 4.97 2.007.308 4.133.616 6.019 1.098 28.503 7.16 50.526-4.079 72.428-17.234 6.454-3.878 14.579-7.462 24.156-10.657a32.98 32.98 0 0 1 3.886-.931c3.344-.67 7.102-1.433 8.62-3.831-.816-1.293-4.481-5.03-6.514-7.107-2.033-2.076-3.156-3.235-3.571-3.811-3.799-5.358-6.213-13.034-7.356-23.537a140.41 140.41 0 0 0-2.809-14.736c-2.227-9.879-4.528-20.094-3.103-28.661.796-4.809 1.852-9.766 2.962-15.01 2.381-11.22 4.842-22.814 4.842-33.424a1.164 1.164 0 1 1 2.321 0c0 10.851-2.481 22.573-4.889 33.906-1.103 5.224-2.153 10.154-2.942 14.91-1.338 8.118.896 18.085 3.076 27.77a144.355 144.355 0 0 1 2.856 14.997c1.116 10.094 3.397 17.415 6.968 22.439.321.455 1.853 2.009 3.344 3.53 7.122 7.267 7.711 8.272 7.142 9.377-1.852 3.711-6.62 4.689-10.446 5.439a33.437 33.437 0 0 0-3.611.864c-9.416 3.135-17.388 6.658-23.695 10.442-17.495 10.536-35.077 19.833-55.989 19.833Z" fill="#331C19"/><path d="M366.281 345.098a1.168 1.168 0 0 1-1.164-1.165 409.374 409.374 0 0 0-2.675-49.291c-.983-8.869-7.303-29.378-14.258-34.951-6.34-5.084-12.706-7.435-19.488-9.92a120.95 120.95 0 0 1-12.84-5.358 1.17 1.17 0 0 1-.441-1.523 1.168 1.168 0 0 1 1.484-.554c4.096 1.975 8.3 3.715 12.593 5.212 6.949 2.558 13.509 4.969 20.143 10.288 7.537 6.028 14.045 27.073 15.121 36.518a412.277 412.277 0 0 1 2.675 49.565 1.161 1.161 0 0 1-1.15 1.179Z" fill="#331C19"/><path d="M361.085 400.806a12.816 12.816 0 0 1-7.189-2.331 1.166 1.166 0 0 1 1.291-1.935 9.962 9.962 0 0 0 8.185 1.661c8.654-2.043 15.977-14.883 18.385-19.103l.883-1.46c1.023-1.742 3.852-6.564 4.608-8.627l-1.218-.382c-.903-.281-1.752-.556-1.912-.636-3.09-1.548-6.2-3.102-8.32-6.082a37.542 37.542 0 0 1-6.126-15.406 31.48 31.48 0 0 1 0-3.737 24.626 24.626 0 0 0-2.3 2.511c-.669.871-1.926 2.217-3.418 3.845-4.293 4.689-12.292 13.463-12.292 17.027 0 .309-.122.605-.34.824a1.168 1.168 0 0 1-1.646 0 1.168 1.168 0 0 1-.341-.824c0-4.126 6.106-11.153 12.907-18.594 1.445-1.581 2.635-2.887 3.311-3.731 3.952-4.97 5.303-4.307 5.818-4.052.669.328.669.468.669 2.86 0 1.091-.06 3.114 0 3.496a35.2 35.2 0 0 0 5.718 14.454c1.792 2.506 4.514 3.865 7.356 5.305.261.114.936.322 1.652.543 2.742.857 3.03.951 3.03 1.869 0 1.54-1.799 4.889-5.117 10.542l-.835 1.434c-2.528 4.441-10.233 17.937-19.863 20.215-.949.222-1.921.327-2.896.314ZM372.541 338.441a1.165 1.165 0 0 1-.822-2.01c4.434-4.441 11.837-19.083 15.502-29.203 2.394-6.611 2.374-10.128-.08-15.044-1.044-2.09-3.297-3.972-5.471-5.801a39.414 39.414 0 0 1-4.12-3.791c-1.518-1.701-1.966-3.684-2.407-5.606a27.034 27.034 0 0 0-.408-1.695 13.287 13.287 0 0 0-.716-1.815 11.118 11.118 0 0 1-1.17-3.939c-.14-2.183.983-3.087 1.665-3.436 1.966-.984 4.762.121 6.019 1.179 1.685 1.407 2.996 3.724 4.147 5.761.802 1.42 1.631 2.88 2.267 3.349.866.29 1.764.474 2.675.549 3.899.556 10.433 1.487 12.512 7.736a1.17 1.17 0 0 1-.295 1.31 1.161 1.161 0 0 1-1.905-.566c-1.632-4.89-6.835-5.633-10.64-6.169-1.766-.255-3.036-.436-3.799-1.032-.989-.783-1.852-2.304-2.849-4.066-1.056-1.862-2.26-4.018-3.618-5.117-.876-.73-2.675-1.299-3.484-.891-.114.061-.468.235-.401 1.219a9.032 9.032 0 0 0 .97 3.128c.332.692.612 1.409.836 2.144.167.603.3 1.199.441 1.802.401 1.781.749 3.349 1.866 4.574a38.417 38.417 0 0 0 3.879 3.557c2.36 2.009 4.795 4.019 6.059 6.537 2.762 5.533 2.809 9.639.187 16.886-3.244 8.962-10.821 24.783-16.051 30.054a1.16 1.16 0 0 1-.789.396Z" fill="#331C19"/><path d="M388.819 369.098a1.182 1.182 0 0 1-.668-.194 1.166 1.166 0 0 1-.321-1.615c14.438-21.695 25.553-70.329 25.995-81.609.214-5.358-.669-7.656-1.398-9.531a10.278 10.278 0 0 1-.542-7.207c3.525-14.864 1.893-20.852.201-23.25-.288.911-.669 2.901-.669 7.087 0 6.926-2.18 11.728-3.651 12.793a1.547 1.547 0 0 1-1.398.268c-1.177-.395-1.445-1.828-2.428-9.725-.548-4.388-1.17-9.378-2.006-12.285-.956-3.349-1.197-4.206-3.23-5.358a.875.875 0 0 0-.321-.127c-.261.314-.482 2.572.04 5.425 1.057 5.854 1.625 19.713 1.652 20.295a1.212 1.212 0 0 1-.328.858 1.191 1.191 0 0 1-.836.355c-.923 0-1.23-.456-4.32-5.359-2.006-3.262-4.575-7.321-6.534-9.645-4.146-4.923-6.801-6.49-7.524-6.296-.053 0-.167.194-.24.542-.502 2.311 4.768 9.98 7.59 14.066a57.1 57.1 0 0 1 3.21 4.95l.167.275c1.024 1.668 1.9 3.396 1.418 4.688a1.999 1.999 0 0 1-1.297 1.246c-1.672.556-2.776-.723-5.424-3.804-.528-.623-1.137-1.34-1.832-2.124-3.705-4.226-8.982-8.54-12.419-8.653a3.066 3.066 0 0 0-2.341.884c.073.803 3.344 4.086 5.143 5.847a43.45 43.45 0 0 1 3.865 4.16 1.16 1.16 0 0 1 .099 1.325 1.155 1.155 0 0 1-.738.544 1.166 1.166 0 0 1-1.233-.49 41.165 41.165 0 0 0-3.632-3.884c-3.564-3.557-5.738-5.848-5.738-7.69a2.018 2.018 0 0 1 .589-1.46 5.153 5.153 0 0 1 4.059-1.561c5.705.181 12.74 7.897 14.091 9.445.669.797 1.338 1.513 1.853 2.136a27.305 27.305 0 0 0 2.735 2.954 9.927 9.927 0 0 0-1.177-2.378 4.598 4.598 0 0 1-.268-.455c-.441-.878-1.645-2.632-3.043-4.689-4.908-7.147-8.613-12.86-7.951-15.914.347-1.588 1.257-2.13 1.953-2.305 2.675-.669 6.841 3.463 9.864 7.054 2.06 2.451 4.681 6.584 6.728 9.906l.996 1.594c-.247-4.689-.735-12.244-1.424-16.075-.268-1.467-.983-6.35 1.003-7.777a2.389 2.389 0 0 1 2.675 0c2.882 1.601 3.344 3.249 4.28 6.531.936 3.282 1.565 8.373 2.127 12.84.287 2.311.622 5.024.936 6.698.823-1.654 1.913-4.963 1.913-9.732 0-8.902 1.618-9.578 2.227-9.833a1.646 1.646 0 0 1 1.819.402c3.798 3.811 4.146 12.847.996 26.122a8.056 8.056 0 0 0 .455 5.835c.789 2.076 1.779 4.655 1.552 10.462-.455 11.434-11.737 60.785-26.39 82.802a1.145 1.145 0 0 1-.91.636ZM241.088 573.831a1.21 1.21 0 0 1-.522-.12c-7.002-3.51-5.811-19.465-5.029-30.028.181-2.364.334-4.414.334-5.72 0-15.781-.842-31.601-1.658-46.886-.816-15.285-1.652-31.053-1.652-46.76a1.164 1.164 0 0 1 .695-1.156 1.165 1.165 0 0 1 .931 0 1.157 1.157 0 0 1 .633.684c.053.151.074.312.062.472 0 15.647.842 31.401 1.651 46.632.81 15.232 1.659 31.187 1.659 47.027 0 1.394-.154 3.483-.334 5.901-.669 8.708-1.86 24.951 3.751 27.764a1.163 1.163 0 0 1 .515 1.561 1.148 1.148 0 0 1-1.036.629ZM315.508 475.885a1.161 1.161 0 0 1-1.136-.937c-.89-4.435-2.508-9.103-4.227-14.066-2.675-7.703-5.444-15.674-5.444-23.216a1.166 1.166 0 0 1 1.164-1.166 1.164 1.164 0 0 1 1.163 1.166c0 7.154 2.676 14.93 5.351 22.452 1.738 5.017 3.384 9.752 4.307 14.347a1.166 1.166 0 0 1-.917 1.373 1.212 1.212 0 0 1-.261.047ZM296.569 579.632a1.17 1.17 0 0 1-1.135-1.421c.034-.149.097-.29.185-.415 5.35-7.582 7.356-24.943 9.028-38.902.896-7.602 1.672-14.173 2.829-18.4 2.622-9.638 7.062-28.379 8.226-37.074a1.18 1.18 0 0 1 1.304-.998 1.163 1.163 0 0 1 .986.876c.037.152.043.31.017.464-1.183 8.795-5.658 27.683-8.292 37.375-1.111 4.059-1.873 10.55-2.762 18.085-1.766 14.957-3.766 31.903-9.437 39.968a1.176 1.176 0 0 1-.949.442Z" fill="#331C19"/><path d="M291.627 593.222a1.143 1.143 0 0 1-.856-.382 1.203 1.203 0 0 1-.596-.087c-5.122-2.224-11.369-4.387-26.576-4.387h-.127a72.77 72.77 0 0 0-12.848 1.025c-3.397.536-5.437.864-9.416-.717-1.431-.583-2.909-6.028-2.976-6.263-.756-2.806-1.337-6.584.241-8.6 4.193-5.392 23.166-3.959 28.877-3.383 2.007.201 19.896 2.097 27.052 6.156 2.796 1.587 4.2 4.923 3.658 8.707-.475 3.349-2.561 7.053-6.166 7.904a1.198 1.198 0 0 1-.267.027Zm-28.028-7.187c14.044 0 20.959 1.755 27.486 4.581.145.064.277.155.388.268 2.106-.569 3.859-2.987 4.273-5.934.408-2.847-.528-5.218-2.501-6.343-5.477-3.101-19.006-5.144-26.135-5.868-11.497-1.152-24.243-.817-26.818 2.499-1.652 2.13 1.077 9.973 2.006 11.386 3.217 1.253 4.728 1.012 7.952.496a74.54 74.54 0 0 1 13.215-1.058l.134-.027ZM369.364 546.858c-3.344 0-6.019-5.037-8.801-10.362-1.652-3.121-3.524-6.658-4.855-7.422-6.26-3.583-11.596-9.464-16.759-15.164-6.688-7.368-13.596-14.99-22.739-18.031a1.171 1.171 0 0 1-.153-2.15 1.158 1.158 0 0 1 .889-.061c9.691 3.236 16.813 11.086 23.701 18.681 5.27 5.814 10.246 11.3 16.185 14.736 1.919 1.099 3.698 4.461 5.758 8.359 2.059 3.899 4.815 9.116 6.747 9.116a1.162 1.162 0 0 1 .823 1.99 1.16 1.16 0 0 1-.823.341l.027-.033ZM420.459 502.979a1.162 1.162 0 0 1-1.157-1.005c-.93-6.959-4.173-9.759-7.611-12.726a29.117 29.117 0 0 1-5.35-5.56c-2.281-3.302-4.421-6.986-6.688-10.884-3.912-6.745-7.958-13.724-12.8-18.574-1.485-1.48-3.009-2.96-4.554-4.467-4.474-4.341-9.102-8.835-13.035-13.758l-1.805-2.244a86.871 86.871 0 0 1-7.357-9.98 8.14 8.14 0 0 1-.889-3.497c-.101-1.112-.194-2.076-.743-2.625a1.168 1.168 0 0 1 .829-1.969 1.16 1.16 0 0 1 .817.321c1.143 1.145 1.29 2.679 1.417 4.059a6.15 6.15 0 0 0 .562 2.518 83.692 83.692 0 0 0 7.169 9.713l1.819 2.25c3.839 4.816 8.414 9.257 12.834 13.55 1.552 1.508 3.09 3.001 4.581 4.488 5.049 5.064 9.176 12.171 13.168 19.05 2.234 3.858 4.347 7.508 6.581 10.716a27.13 27.13 0 0 0 4.969 5.124c3.611 3.115 7.356 6.337 8.4 14.167a1.178 1.178 0 0 1-.216.88 1.168 1.168 0 0 1-.781.46l-.16-.007Z" fill="#331C19"/><path d="M380.633 557.441a1.17 1.17 0 0 1-1.003-1.802c6.019-9.23 21.173-22.231 32.348-27.824 1.338-.67 2.863-1.493 4.401-2.331 3.899-2.116 7.925-4.307 10.914-5.05.172-.462.214-.963.12-1.447-.28-3.496-2.882-8.848-3.678-9.451-3.477-2.605-5.738-1.781-9.757.054-11.209 5.097-26.597 14.736-36.187 26.471l-.455.556c-3.016 3.69-7.156 8.741-6.34 12.558.348 1.655 1.618 3.008 3.866 4.14a1.165 1.165 0 0 1-.152 2.139c-.292.098-.61.075-.885-.063-2.889-1.44-4.608-3.349-5.109-5.733-1.044-4.91 3.504-10.463 6.821-14.515l.455-.556c9.844-12.057 25.58-21.909 37.023-27.121 3.785-1.721 7.356-3.349 12.111.208 1.846 1.387 5.217 9.538 4.541 12.914a2.482 2.482 0 0 1-1.812 2.103c-2.675.67-6.775 2.887-10.366 4.836-1.565.851-3.09 1.681-4.467 2.371-10.701 5.359-25.681 18.226-31.433 27.02a1.167 1.167 0 0 1-.956.523Z" fill="#331C19"/><path d="M288.751 610.784a1.133 1.133 0 0 1-.669-.201 1.154 1.154 0 0 1-.496-1.194c.03-.15.09-.293.175-.42 7.444-11.186 25.193-12.8 35.799-13.764 17.388-1.581 35.499.288 53.04 2.096 7.858.811 15.991 1.648 23.789 2.137l1.337.087c9.657.609 18.773 1.186 27.761-2.324 4.42-1.722 7.697-5.064 9.73-9.913 4.374-10.443 1.953-25.728-1.063-32.774-4.367-10.201-8.547-17.033-13.843-25.674l-.301-.489a1.174 1.174 0 1 1 2.006-1.219l.301.489c5.35 8.708 9.563 15.613 13.997 25.975 3.27 7.629 5.758 23.403 1.07 34.596-2.287 5.452-6.019 9.216-11.028 11.179-9.463 3.697-18.832 3.101-28.757 2.478l-1.337-.087c-7.845-.496-15.997-1.34-23.882-2.143-17.428-1.802-35.445-3.644-52.586-2.097-10.192.931-27.252 2.485-34.107 12.727a1.164 1.164 0 0 1-.936.535Z" fill="#331C19"/><path d="M387.321 559.504a1.145 1.145 0 0 1-.957-.502 13.588 13.588 0 0 0-4.614-3.905 1.165 1.165 0 0 1 .176-2.108c.279-.103.587-.094.86.025a15.665 15.665 0 0 1 5.491 4.688 1.17 1.17 0 0 1 .016 1.291 1.15 1.15 0 0 1-.317.324 1.137 1.137 0 0 1-.655.187Z" fill="#331C19"/><path d="M316.652 568.533a29.44 29.44 0 0 1-13.375-2.847 1.175 1.175 0 0 1-.6-.674 1.155 1.155 0 0 1 .061-.9 1.15 1.15 0 0 1 .684-.587 1.162 1.162 0 0 1 .898.078c8.286 4.153 17.783 2.512 26.978.924l2.481-.428c3.538-.59 7.357-1.3 11.262-2.01 8.949-1.674 19.094-3.563 28.316-4.414 7.524-.67 13.857-1.031 21.006 1.34a1.15 1.15 0 0 1 .67.583 1.153 1.153 0 0 1 .062.887 1.152 1.152 0 0 1-.582.671 1.162 1.162 0 0 1-.885.062c-6.722-2.243-12.814-1.915-20.064-1.252-9.122.837-18.772 2.639-28.088 4.387-3.952.737-7.758 1.447-11.309 2.01l-2.468.422c-4.821.85-9.958 1.748-15.047 1.748ZM282.993 748.765a1.162 1.162 0 0 1-1.164-1.166c0-5.901-1.037-10.536-2.127-15.445-1.291-5.754-2.615-11.709-2.367-20.095.334-11.46 2.595-26.048 4.587-38.915 1.465-9.431 2.836-18.34 3.344-25.145.442-5.801.669-11.481.856-16.973.482-13.028.943-25.332 4.294-38.755a1.164 1.164 0 0 1 2.254.569c-3.291 13.182-3.745 25.373-4.227 38.273-.201 5.513-.415 11.219-.863 17.06-.528 6.899-1.912 15.848-3.377 25.326-2.006 12.8-4.227 27.314-4.568 38.627-.234 8.132 1.057 13.939 2.314 19.552 1.124 5.044 2.18 9.799 2.18 15.955a1.156 1.156 0 0 1-1.136 1.132ZM248.084 724.927a1.168 1.168 0 0 1-.823-.337 1.155 1.155 0 0 1-.341-.822c0-23.604-.221-48.802-2.883-74.63-2.842-27.683-2.36-41.18-.755-52.915a1.136 1.136 0 0 1 .453-.789 1.131 1.131 0 0 1 .884-.209 1.154 1.154 0 0 1 .781.459 1.164 1.164 0 0 1 .216.881c-1.579 11.587-2.047 24.93.769 52.379 2.675 25.935 2.889 51.206 2.889 74.871a1.158 1.158 0 0 1-1.19 1.112Z" fill="#331C19"/><path d="M321.273 595.56a1.152 1.152 0 0 1-1.136-.918l-.475-2.19c-1.164-5.265-2.267-10.242-1.605-16.223a25.65 25.65 0 0 1 1.471-6.155c.094-.248.261-.831.415-1.34.367-1.286.668-2.123 1.692-1.916a1.266 1.266 0 0 1 .929 1.34c-.024.184-.09.361-.194.516l-.194.669c-.18.61-.374 1.28-.488 1.568a23.156 23.156 0 0 0-1.337 5.552c-.616 5.6.394 10.175 1.564 15.473l.482 2.197a1.167 1.167 0 0 1-.896 1.38c-.074.024-.15.04-.228.047ZM309.075 597.824h-.127a1.173 1.173 0 0 1-1.03-1.286c.321-2.854-1.251-5.975-2.922-9.277-1.478-2.934-3.003-5.968-3.217-9.009a15.16 15.16 0 0 1 2.2-8.755c.314-.502 1.177-2.109 1.478-2.793a1.15 1.15 0 0 1 .568-1.078 1.245 1.245 0 0 1 1.485.188c.361.368.956.991-1.578 4.943a12.916 12.916 0 0 0-1.839 7.368c.187 2.565 1.605 5.358 2.982 8.118 1.746 3.463 3.552 7.046 3.157 10.583a1.165 1.165 0 0 1-1.157.998ZM235.389 800.642a11.127 11.127 0 0 1-7.356-2.88 15.024 15.024 0 0 1-4.869-12.934c1.104-7.737 4.782-14.776 8.347-21.582a108.557 108.557 0 0 0 6.018-12.813 65.021 65.021 0 0 0 2.007-7.683c1.07-4.742 2.173-9.652 4.567-13.255a1.167 1.167 0 0 1 1.616-.325 1.166 1.166 0 0 1 .324 1.618c-2.16 3.241-3.217 7.937-4.24 12.478a66.73 66.73 0 0 1-2.12 7.964 109.3 109.3 0 0 1-6.133 13.095c-3.471 6.638-7.055 13.497-8.105 20.831a12.623 12.623 0 0 0 4.093 10.851 8.737 8.737 0 0 0 8.373 1.942c5.758-1.647 9.59-6.638 13.295-11.46a81.98 81.98 0 0 0 5.303-8.145c1.492-2.505 3.036-5.097 4.802-7.509l.481-.669c2.716-3.711 5.524-7.549 8.935-10.59a18.76 18.76 0 0 1 1.853-1.34c2.849-1.949 8.152-5.572 8.941-10.475a1.172 1.172 0 0 1 .448-.808 1.162 1.162 0 0 1 1.853.704c.03.156.027.317-.007.472-.943 5.888-6.788 9.886-9.925 12.056-.561.358-1.101.747-1.618 1.166-3.23 2.873-5.959 6.611-8.6 10.228l-.482.67c-1.705 2.324-3.223 4.869-4.681 7.327a83.919 83.919 0 0 1-5.424 8.333c-3.785 4.923-8.025 10.462-14.532 12.318a11.54 11.54 0 0 1-3.164.415Z" fill="#331C19"/><path d="M237.015 806a13.518 13.518 0 0 1-6.574-1.654c-4.012-2.237-6.346-6.444-6.346-11.534a1.165 1.165 0 0 1 1.163-1.166 1.166 1.166 0 0 1 1.164 1.166c0 4.286 1.826 7.656 5.143 9.498 3.765 2.089 8.694 1.761 12.894-.865 7.309-4.574 13.148-13.938 18.297-22.197 4.013-6.403 7.437-11.936 10.828-13.798 7.697-4.247 12.84-8.138 8.827-19.645a1.175 1.175 0 0 1 .292-1.299 1.18 1.18 0 0 1 .401-.241 1.166 1.166 0 0 1 1.501.769c4.969 14.261-3.625 18.996-9.905 22.452-2.855 1.574-6.313 7.12-9.971 12.995-5.283 8.479-11.275 18.084-19.04 22.947a16.477 16.477 0 0 1-8.674 2.572ZM275.422 733.005c-4.012 0-7.356-2.459-10.573-4.857a44.816 44.816 0 0 0-4.969-3.349c-3.772-2.103-7.122-1.266-11.369-.201l-.569-1.058v-1.199c4.361-1.092 8.474-2.13 13.055.422a47.296 47.296 0 0 1 5.223 3.53c4.501 3.349 8.025 5.975 13.375 3.302a1.16 1.16 0 0 1 1.582.509 1.155 1.155 0 0 1-.171 1.298 1.167 1.167 0 0 1-.367.276 11.632 11.632 0 0 1-5.217 1.327ZM264.442 711.256a45.637 45.637 0 0 1-7.818-.885 43.412 43.412 0 0 0-7.357-.837c-.308 0-.604-.123-.823-.341a1.167 1.167 0 0 1 .823-1.99c2.6.071 5.188.365 7.738.878 3.344.576 6.507 1.125 9.891.67a35.999 35.999 0 0 0 4.681-1.045c2.294-.617 4.682-1.253 6.775-1.253a1.164 1.164 0 0 1 .823 1.99 1.164 1.164 0 0 1-.823.341c-1.792 0-4.013.596-6.173 1.172a38.123 38.123 0 0 1-4.975 1.105c-.916.121-1.839.186-2.762.195Z" fill="#331C19"/><path d="M254.563 783.274a1.161 1.161 0 0 1-1.104-.797c-.428-1.287-1.658-2.251-2.962-3.269-1.605-1.253-3.424-2.679-3.806-4.97-.742-4.448 1.913-8.219 4.254-11.541a37.475 37.475 0 0 0 2.24-3.409c2.435-4.394 3.866-9.337 5.243-14.106.295-1.039.596-2.077.903-3.102.437-1.621.748-3.273.93-4.943a24.959 24.959 0 0 1 1.645-6.986s1.391-2.947 2.983-3.516c.215-.082.445-.119.675-.108.23.01.455.067.662.168a1.156 1.156 0 0 1 .515 1.561 1.18 1.18 0 0 1-1.197.669 8.02 8.02 0 0 0-1.538 2.204 22.8 22.8 0 0 0-1.471 6.35 34.07 34.07 0 0 1-.997 5.298 298.38 298.38 0 0 0-.903 3.081c-1.418 4.903-2.875 9.967-5.443 14.595a39.406 39.406 0 0 1-2.375 3.624c-2.18 3.101-4.447 6.309-3.858 9.813.234 1.406 1.484 2.384 2.935 3.516 1.452 1.132 3.09 2.411 3.746 4.367a1.168 1.168 0 0 1-1.104 1.534l.027-.033Z" fill="#331C19"/><path d="M254.075 784.754a1.166 1.166 0 0 1-1.164-1.166c0-4.688-12.566-10.047-17.702-11.172-1.191-.261-5.096-.389-5.832.067a1.051 1.051 0 0 1-.646.536c-.139.04-.285.05-.428.03a1.026 1.026 0 0 1-.404-.144 1.264 1.264 0 0 1-.435-1.668c1.124-2.264 8.186-1.112 8.253-1.092 2.562.57 19.521 6.028 19.521 13.443a1.165 1.165 0 0 1-1.163 1.166ZM247.354 771.003a1.135 1.135 0 0 1-.361-.061 19.8 19.8 0 0 1-4.963-2.592c-2.126-1.42-3.965-2.639-8.125-2.639a1.164 1.164 0 0 1-.823-1.989 1.16 1.16 0 0 1 .823-.342c4.862 0 7.176 1.541 9.416 3.028a17.454 17.454 0 0 0 4.401 2.324 1.167 1.167 0 0 1-.368 2.271ZM250.477 762.945a1.16 1.16 0 0 1-.822-.342c-2.936-2.947-8.139-4.019-12.038-4.019a1.168 1.168 0 0 1-.823-1.989 1.16 1.16 0 0 1 .823-.342c4.353 0 10.232 1.226 13.676 4.689a1.167 1.167 0 0 1-.829 2.01l.013-.007ZM255.76 753.319c-.308 0-.604-.123-.822-.341-2.575-2.586-10.212-4.233-13.376-4.233a1.161 1.161 0 0 1-1.154-.696 1.17 1.17 0 0 1 .683-1.567c.151-.053.312-.074.471-.062 3.424 0 11.824 1.735 14.994 4.91a1.165 1.165 0 0 1-.822 2.01l.026-.021ZM258.048 742.375a1.14 1.14 0 0 1-.522-.127c-4.835-2.418-7.898-3.122-13.649-3.122a1.164 1.164 0 0 1-.823-1.989 1.16 1.16 0 0 1 .823-.342c6.099 0 9.536.791 14.712 3.349a1.165 1.165 0 0 1 .515 1.561 1.151 1.151 0 0 1-1.056.67ZM261.171 733.714c-2.201 0-4.294-.864-6.314-1.694-2.956-1.213-5.744-2.358-9.055-1.26a1.16 1.16 0 1 1-.735-2.203c4.139-1.38 7.61.053 10.7 1.306 1.893.784 3.685 1.52 5.43 1.52a1.166 1.166 0 0 1 0 2.331h-.026ZM297.358 583.516a1.156 1.156 0 0 1-.95-1.828c1.07-1.534 3.23-2.01 4.969-2.371.542-.121 1.043-.228 1.451-.362a1.166 1.166 0 0 1 .729 2.217c-.474.154-1.056.281-1.692.415-1.337.295-3.009.67-3.551 1.434a1.164 1.164 0 0 1-.956.495ZM301.478 599.773h-.167a1.154 1.154 0 0 1-.772-.464 1.15 1.15 0 0 1-.212-.876c.382-2.585-1.638-9.411-3.484-10.717a1.17 1.17 0 0 1 .468-2.103c.304-.053.617.017.87.194 2.802 1.956 4.915 9.826 4.454 12.948a1.159 1.159 0 0 1-1.157 1.018ZM294.569 603.651a1.13 1.13 0 0 1-.669-.208c-.929-.669-1.538-2.156-2.24-3.898a14.652 14.652 0 0 0-1.197-2.552 1.16 1.16 0 0 1-.264-.885 1.176 1.176 0 0 1 .463-.799c.127-.095.272-.162.427-.198a1.145 1.145 0 0 1 .907.162c.133.087.246.201.332.334a14.868 14.868 0 0 1 1.485 3.067c.388.965 1.043 2.579 1.418 2.86a1.174 1.174 0 0 1-.662 2.117ZM287.922 575.265a1.127 1.127 0 0 1-.522-.121 1.166 1.166 0 0 1-.515-1.56c7.892-15.815 10.306-38.226 12.433-57.992.528-4.903 1.03-9.605 1.598-13.946.201-1.527.361-3.188.529-4.93.989-10.114 2.22-22.693 11.89-27.535a1.159 1.159 0 0 1 1.503.55 1.163 1.163 0 0 1-.466 1.533c-8.52 4.266-9.677 16.135-10.613 25.68-.168 1.762-.335 3.456-.536 5.004-.561 4.327-1.07 9.009-1.591 13.891-2.154 19.967-4.588 42.594-12.673 58.789a1.154 1.154 0 0 1-1.037.637ZM377.61 533.817a1.136 1.136 0 0 1-.823-.342c-8.346-8.359-16.197-17.81-23.794-26.953-4.013-4.822-8.153-9.806-12.319-14.582-.756-.87-1.552-1.795-2.368-2.759-5.015-5.894-11.262-13.229-18.056-15.499a1.152 1.152 0 0 1-.672-.581 1.173 1.173 0 0 1-.064-.886 1.166 1.166 0 0 1 .58-.673 1.162 1.162 0 0 1 .885-.064c7.403 2.465 13.883 10.047 19.086 16.189.809.958 1.592 1.876 2.348 2.74 4.186 4.795 8.339 9.792 12.352 14.621 7.563 9.11 15.381 18.521 23.654 26.793a1.166 1.166 0 0 1 0 1.648 1.145 1.145 0 0 1-.809.348Z" fill="#331C19"/></g><defs><clipPath id="a"><path fill="#fff" transform="translate(161.999)" d="M0 0h282v806H0z"/></clipPath></defs></svg>