<svg viewBox="0 0 692 710" fill="none" xmlns="http://www.w3.org/2000/svg"><g clip-path="url(#a)"><path d="M172.168 603.655c69.161-41.081 168.452 26.558 376.328 30.231 19.938.339 40.438.396 59.08-6.894 20.387-7.967 37.058-24.241 49.786-42.719 34.017-49.274 42.071-115.275 28.104-174.325-13.967-59.05-48.322-111.319-91.069-152.456-24.387-23.507-51.983-44.132-70.681-72.781-16.784-25.655-25.738-56.79-45.619-79.901-33.06-38.2-87.408-45.15-136.632-44.81-32.609.282-66.513 2.994-94.786 20.003-41.395 24.92-61.951 74.42-87.971 116.348-20.951 33.735-46.633 63.853-69.668 96.006-27.315 38.142-50.8 79.223-70.061 122.394-11.49 25.768-15.432 39.499-17.741 58.485-6.308 53.117 10.813 122.621 57.22 147.71 9.125 4.973 17.066 7.007 19.938 7.572 40.043 7.064 93.772-24.863 93.772-24.863Z" fill="#F90"/></g><g clip-path="url(#b)"><path fill-rule="evenodd" clip-rule="evenodd" d="M254.507 305.161c-.695-6.724-1.439-10.972.543-16.127 3.498-9.093 11.081-18.321 11.065-29.782-.033-11.597-10.75-25.48-10.831-37.235-.158-21.841 13.965-43.312 17.023-64.545 1.917-13.341.901-23.313 2.504-36.827 1.184-9.902 4.541-23.433 7.604-32.922 5.894-18.175 12.124-35.019 23.617-50.032 10.554-13.78 28.913-26.279 45.496-32.764 16.583-6.486 41.135-.75 57.962 3.259 8.338 1.999 16.16 1.95 24.649 3.259 10.516 1.63 19.69 2.172 28.544 8.006 16.491 10.896 26.208 25.323 32.59 43.997 5.535 16.258 4.834 22.124 8.349 38.864 1.325 6.307 5.535 16.986 11.173 26.154 6.719 10.913 15.062 20.369 17.479 27.458 6.583 19.288.418 39.32 4.818 58.913 3.438 15.208 16.871 23.693 25.328 37.223 3.558 5.687 6.964 15.035 7.219 21.695.44 11.716-8.354 23.519-6.773 35.225.63 4.731 4.834 14.519 4.834 14.519s-43.264 16.729-59.532 16.642c-42.677-.255-85.223 1.282-127.9.685-29.332-.397-57.734-2.26-86.278-9.413-9.456-2.379-27.495-5.302-32.851-15.524l-6.632-10.728Z" fill="#331C19"/><path fill-rule="evenodd" clip-rule="evenodd" d="M366.4 348.36c-4.611-5.166-5.583-14.009-7.338-20.641-2.672-10.07-3.411-25.344-5.203-42.329-1.13-10.668-3.955-27.268-3.955-27.268s-17.892-10.369-26.072-21.482c-5.676-7.675-8.566-11.211-11.488-19.989-4.112-12.346-5.649-25.415-7.751-38.337-1.086-6.763-2.765-28.484 4.318-37.001 7.083-8.517 9.337-3.629 17.023-13.145 6.399-7.931 19.869-29.44 25.198-39.75 5.328-10.31 11.95-13.443 24.263-11.988 9.707 1.141 15.209 11.07 24.894 23.216 9.685 12.145 14.041 20.456 31.705 34.29 5.616 4.395 27.669 12.846 34.763 14.416 6.116 1.363 10.163.484 16.241 3.335 3.09 1.461 4.508 9.5 5.16 13.504.652 4.003-1.706 11.021-4.59 17.55-1.7 3.834-6.361 9.391-9.869 11.189-6.301 3.215-12.124 2.949-13.764 8.598-2.809 9.533-1.63 24.84-1.299 32.276.332 7.436 2.749 19.272 4.476 26.751 1.331 5.747 5.361 10.918 5.361 10.918s-.163 8.077-4.85 14.432c-10.288 13.938-24.443 23.167-38.332 33.096-13.536 9.679-26.208 20.934-42.041 26.615-5.177 1.853-12.792 6.296-16.85 1.744Z" fill="#FFEDDE"/><path fill-rule="evenodd" clip-rule="evenodd" d="M253.1 697.969c-1.89-3.259-2.286-15.557-2.286-23.476 0-22.368 3.954-70.445 4.85-92.802.505-12.878-1.429-41.047-1.429-41.047s-7.425-34.937-8.147-62.878c-.972-37.164 5.372-72.02 20.64-106.109 9.142-20.44 20.934-39.652 30.174-60 2.759-6.067 5.665-11.765 10.428-16.528 1.022-1.022 9.604-6.823 9.604-6.823s6.833-.923 14.665-2.482c1.19-.244 11.277-3.748 11.277-3.748s-4.438 12.412-5.03 16.105a161.49 161.49 0 0 0-1.95 37.11c.163 3.129 1.89 11.738 3.427 11.798 1.537.059 4.389-2.716 5.867-5.481 1.477-2.765 8.147-15.529 8.147-15.529s14.34 6.056 21.184 6.42c2.933.152 9.234 1.63 12.335 1.483 7.702-.326 12.553-2.548 19.641-1.135 2.059.423 2.64 3.085 3.596 4.671 3.476 5.812 7.556 11.51 9.701 17.974.223.7 3.009 6.224 5.731 4.519 4.932-3.069 11.238-10.538 14.432-15.209 8.957-13.177 16.007-24.236 25.464-37.077 4.671-6.328 18.467-22.759 18.467-22.759s9.859 8.435 12.303 9.386c2.032.793 6.388 2.319 6.388 2.319s3.4 3.259 4.503 5.676c2.428 5.22-.456 14.308-.717 19.75a309.842 309.842 0 0 0 1.434 49.972c1.781 15.269 6.518 29.554 9.342 44.541 2.586 13.53 5.019 27.104 7.909 40.597 2.01 9.342 6.083 18.386 6.828 28.027 1.971 25.714.852 46.659 2.677 72.243.815 11.439-.771 27.316 3.069 38.022 3.841 10.706 8.463 21.102 11.852 31.971 4.889 15.671 11.206 42.297 11.206 42.297s2.558 28.077 2.558 34.975c0 2.173-15.062 5.861-30.287 5.187-15.225-.673-26.615-2.906-37.359-4.497-21.184-3.107-41.71-4.394-62.867-.353-22.563 4.291-46.919 5.872-70.123 3.764-20.972-1.906-38.022-6.697-59.206-7.355-11.906-.374-23.253.75-35.111.75-4.981-.011-12.596.217-15.187-4.269Z" fill="#79A8C6"/><path fill-rule="evenodd" clip-rule="evenodd" d="M183.884 307.86s1.086-.966 9.326-13.139c3.601-5.307 7.425-10.831 11.825-15.491 5.323-5.628 11.075-11.994 16.762-16.974 3.645-3.189 7.094-5.432 11.228-8.023 4.519-2.83 10.738-5.432 14.861-8.887 7.751-6.458 13.318-11.406 20.13-19.174 5.529-6.295 13.275-17.636 20.303-22.183 7.029-4.546 18.18-3.715 26.122-5.307 4.166-.831 5.61-2.281 4.301-7.49-.841-3.33-3.992-5.432-6.719-7.126-9.233-5.671-23.236-2.858-33.225 0-2.51.717-8.088 4.345-10.788 3.454-1.385-.451-2.781-5.095-3.525-6.219-1.629-2.445-4.53-10.103-4.53-10.103s7.697 2.536 8.148 2.629c6.67 1.33 20.732 2.172 27.571 1.895 6.518-.282 4.22-7.447 4.22-7.447s5.432-.977 7.806-3.72c1.955-2.254.749-6.149 2.091-7.806 1.483-1.847 6.556-6.675 6.105-9.37-.478-2.851-4.101-2.851-6.105-2.851-6.594 0-13.183 2.173-19.777 2.851-2.868.305-9.733 1.244-9.733 1.244s-5.774-1.406-9.234-1.244c-4.172.201-10.978 2.575-10.978 2.575s-5.176-.603-13.367.234c-5.492.543-13.715 2.422-17.442 3.101-8.212 1.521-17.066 2.531-24.649 6.323-12.721 6.366-15.458 20.222-20.787 32.395-6.692 15.306-9.973 26.072-18.728 40.233-4.84 7.827-21.217 28.696-21.217 28.696.297 2.35.437 4.719.419 7.088-.755 12.716 4.003 26.143 13.443 34.638 2.45 2.2 4.889 5.617 8.359 6.317 6.812 1.364 17.784-1.119 17.784-1.119Z" fill="#FFEDDE"/><path fill-rule="evenodd" clip-rule="evenodd" d="M396.373 213.402c-1.16.13-2.326.188-3.493.174-4.519-.32-8.903.869-13.405.869-6.356 0-13.683-.049-19.897-1.298-1.113-.228-8.767-1.977-8.767-1.977s.739 7.159 1.201 8.463c2.064 5.915 8.414 13.579 14.703 15.149 5.601 1.396 11.619 1.021 16.437-1.804 3.351-1.96 5.92-5.621 8.218-8.582 2.298-2.96 5.003-10.994 5.003-10.994ZM351.55 266.281s-3.004 4.53-6.208 10.559c-1.76 3.308-4.259 8.566-4.802 10.277-1.483 4.666-1.787 9.924-2.814 14.72-2.205 10.282-3.259 18.886-2.487 29.473.266 3.802-.468 10.32 1.412 13.78 2.797 5.128 4.541.652 6.703-2.385 2.487-3.481 4.302-7.169 6.518-10.809.7-1.178 3.492-6.002 3.492-6.002s6.057 3.515 9.191 4.639c.304.109 5.915 1.787 5.915 1.787s-.087-3.205-.217-3.889c-1.402-6.953-7.605-12.868-10.636-18.903-1.526-3.052-4.345-13.65-4.725-17.001-.218-1.977 1.135-10.005 1.135-10.005l-2.477-16.241ZM382.935 334.356s2.9-6.518 6.409-13.421c2.444-4.797 16.925-9.267 21.292-11.537 14.052-7.279 25.22-13.58 37.414-23.797 4.622-3.878 10.108-9.587 12.564-15.301 1.015-2.347 4.649-9.288 5.48-9.707.543-.255 2.059 1.885 3.949 4.753 2.982 4.492 2.987 10.777 5.28 13.656.543.641 7.262 7.436 7.262 7.436s-20.098 23.356-27.392 36.936c-5.432 10.13-11.95 18.109-19.473 26.925-2.618 3.047-6.225 8.734-9.956 10.592-.973.488-3.259-1.353-5.579-4.547-2.319-3.194-12.281-23.242-12.281-23.242a84.545 84.545 0 0 1-15.448 1.629c-2.276-.032-9.521-.375-9.521-.375ZM185.948 307.279s-2.949 5.85-5.665 11.119c-5.85 11.331-11.325 18.647-17.594 29.793-2.976 5.285-7.718 17.789-10.32 23.27-.136.304-.201 3.465.038 3.547 0 0 19.484-8.262 25.502-12.493 23.356-16.426 41.439-32.466 64.996-48.527 7.485-5.106 16.838-12.602 25.29-15.975.402-.163 8.289-4.346 8.642-3.998.353.348-9.522 16.045-12.542 21.966-8.626 16.904-14.068 31.298-19.13 49.538-5.394 19.396-5.753 33.036-8.316 52.943-.544 4.047-.283 25.306-.283 25.306a113.644 113.644 0 0 0-16.773 4.824c-9 3.368-25.757 12.075-35.154 16.1-19.788 8.473-27.979 10.673-48.467 17.501-9.62 3.204-28.006 7.381-37.968 8.147-10.863.842-25.676 2.309-36.023-2.134-7.849-3.357-18.36-11.233-21.922-19.555-6.622-15.459-.593-34.763 5.545-49.065 9.728-22.688 20.472-44.833 33.394-66.729 8.691-14.79 19.011-29.728 28.3-43.622 9.158-13.732 18.229-26.371 27.701-39.598 2.081-2.916 8.783-10.32 8.919-10.255.462.163.131 6.812.826 11.782 1.086 7.697 4.041 17.865 8.821 24.225 5.486 7.322 13.943 12.455 22.878 11.852 3.33-.168 9.305.038 9.305.038Z" fill="#fff"/><path fill-rule="evenodd" clip-rule="evenodd" d="M290.948 381.548s.256-4.818 3.314-8.028c3.058-3.211 8.929-4.791 8.929-4.791l181.029-8.148s6.963 1.89 11.548 4.785c4.584 2.896 7.289 8.24 7.289 8.24l1.086 66.268-213.33 132.746.135-191.072Z" fill="#B7A28D"/><path fill-rule="evenodd" clip-rule="evenodd" d="m323.675 392.96 192.597 8.772s7.686 3.944 11.76 7.898c4.074 3.954 4.535 7.925 4.535 7.925l-8.37 97.587-12.346 143.707s1.537 7.371-3.487 10.554c-5.025 3.183-16.616 2.14-16.616 2.14L305.44 655.9l-5.225-2.765-7.436-5.91-4.59-9.44 11.749-152.339 6.594-76.207s.597-7.539 4.889-11.613c4.291-4.074 12.254-4.666 12.254-4.666Z" fill="#C9D6BA"/><path fill-rule="evenodd" clip-rule="evenodd" d="m290.813 642.489 11.949-147.646 7.529-85.11s1.559-5.736 4.171-8.566a9.022 9.022 0 0 1 6.274-2.716l193.912 4.465 12.493 12.835-201.658-11.569s-5.763-.294-9.266 2.884c-3.504 3.178-4.715 9.875-4.715 9.875L295.924 646.85a2.418 2.418 0 0 1-1.363.184 2.414 2.414 0 0 1-1.244-.586c-1.266-1.097-2.504-3.959-2.504-3.959ZM301.589 373.807l183.972-10.809 12.863 9.609-190.583 5.736a14.365 14.365 0 0 0-7.143 3.15c-3.297 2.77-6.034 7.936-6.034 7.936s-.326-5.731 1.401-9.636c1.727-3.905 5.524-5.986 5.524-5.986ZM252.992 539.172s-2.716-7.138-7.181-24.215c-1.087-4.144-6.551-34.22-6.567-34.318-1.972-11.211-2.271-22.514-2.716-33.389a278.27 278.27 0 0 1 9.261-84.132c2.716-10.32 5.877-18.316 9.609-28.337 2.042-5.514 9.087-19.745 11.406-23.694 4.395-7.566 8.441-15.062 12.396-19.239 2.65-2.814 3.916-3.183 10.195-4.579 3.661-.809 6.214-.657 9.777-.152 3.351.483 10.385-2.254 13.672-2.254.418 0 4.926 1.923 4.926 1.923s-6.36 8.294-8.446 11.156c-12.162 16.643-23.183 36.936-31.08 55.909a342.118 342.118 0 0 0-15.568 46.328c-1.401 5.399-2.976 13.519-4.133 18.191-4.492 18.125-7.186 37.435-7.963 61.27-.288 8.446 2.803 30.961 3.351 39.413.348 5.866-.939 20.119-.939 20.119Z" fill="#fff"/><path fill-rule="evenodd" clip-rule="evenodd" d="M524.007 405.611s-.076-1.087 3.178-26.29c1.222-9.424 2.351-18.783 3.862-28.169 1.461-9.12 4.687-16.958 8.109-25.481 1.336-3.351 6.171-10.553 6.171-14.285 0-2.526-8.827-4.09-10.038-4.628-7.702-3.422-16.974-6.762-24.926-9.739-1.804-.674-7.605-1.684-9.582.315-12.748 12.737-13.09 28.424-19.136 44.54-1.885 4.987-4.215 18.403-3.101 18.908 1.797.837 5.746-.543 8.598.375 5.633 1.869 10.863 6.361 13.579 9.31 3.732 4.052 2.808 13.379 3.058 17.572s.266 12.835.266 12.835 7.54.163 12.053 1.543a72.616 72.616 0 0 1 7.909 3.194ZM527.717 470.003c.749-5.79 6.083 13.493 6.42 19.332.761 13.004-1.504 26.757-2.325 39.76-.282 4.715-.233 17.925-.233 17.925s-8.968-9.505-9.636-10.755c-2.906-5.42 3.531-48.706 5.774-66.262Z" fill="#fff"/><path fill-rule="evenodd" clip-rule="evenodd" d="M544.637 314.732s-5.095 9.131-6.567 13.639c-6.393 19.598-11.19 40.342-12.493 60.944-.207 3.607-1.407 16.23-1.407 16.23s6.648 6.263 7.713 10.679c.804 3.341-2.455 39.109-2.716 46.985-.239 8.267 1.744 12.21 2.716 20.347.858 7.061 1.325 14.21 1.575 21.412.543 16.23-.956 32.982-1.689 49.174a256.933 256.933 0 0 0-.277 11.732c0 .853-.168 7.648-.168 7.648s-10.962-.44-18.088-.277c-22.509.5-49.391-1.629-71.014-8.832-6.768-2.254-14.628-6.822-21.059-9.897-1.722-.82-9.158-3.492-9.158-2.781 0 3.982 3.417 5.074 5.855 15.812 2.439 10.739 3.173 19.24 1.63 28.474-.652 3.894-3.547 9.929-5.269 13.405-.988 1.966-3.063 4.15-4.465 5.866-.592.712-4.834 3.672-4.834 4.596 0 .575 28.881 12.688 39.25 16.164 24.573 8.23 60.449 21.081 89.59 28.707 14.242 3.732 32.732 9.017 47.767 6.795 6.159-.912 13.411-3.003 18.071-6.893 7.876-6.561 10.147-16.458 12.493-29.559 3.21-17.925 4.851-40.152 5.155-52.943.673-29.332 2.319-48.305 2.384-73.454.033-10.548 2.363-61.02 2.01-74.491-.543-21.357-.983-42.764-7.832-63.296-4.965-14.943-13.493-29.44-26.333-39.071-6.095-4.568-15.035-8.348-22.048-10.983-5.008-1.901-20.792-6.132-20.792-6.132Z" fill="#fff"/><path fill-rule="evenodd" clip-rule="evenodd" d="M413.803 553.68s.581 1.564-9.63-5.763c-3.026-2.173-6.117-6.089-7.92-9.169-3.97-6.817-5.171-15.024-8.365-22.211-1.303-2.933-5.008-8.12-7.153-10.624-8.979-10.472-23.9-18.028-33.677-27.816-5.372-5.377-10.135-12.227-17.077-15.687-1.63-.804-5.025-1.423-6.752.744-1.173 1.478-1.667 3.672-1.667 5.432 0 8.213 4.448 12.868 8.837 19.163 1.461 2.108 8.365 8.099 9.707 10.283 1.488 2.406 3.144 7.484 3.144 7.484s-12.172-3.986-15.268-5.019c-9.614-3.21-18.006-9.891-27.501-13.459-3.634-1.364-7.952-2.39-11.917-1.592-2.173.435-3.862 2.466-3.422 6.475.44 4.008 4.584 8.908 4.584 8.908s-3.574 8.115-2.65 11.352c.766 2.673 3.215 8.534 3.215 8.534s-3.579 11.097-2.759 16.751c.614 4.345 3.259 9.511 3.759 13.884.749 6.729 1.2 10.092 5.285 15.822 5.404 7.605 17.349 12.96 21.455 14.302 1.841.598 8.148 3.656 10.005 4.237 5.736 1.819 10.141 3.346 15.872 5.269 7.55 2.52 14.703 2.444 22.118 5.659 7.555 3.259 15.377 8.534 22.813 11.831 5.73 2.547 18.278 10.456 18.278 10.456s1.895-3.33 3.09-3.971c4.748-2.542 5.307-5.361 7.393-10.32 4.758-11.287 5.431-26.007.999-36.854-1.841-4.449-4.796-14.101-4.796-14.101Z" fill="#FFEDDE"/><path d="M304.604 180.937a1.441 1.441 0 0 1-1.434-1.325l-.304-3.84a1.442 1.442 0 1 1 2.873-.234l.315 3.846a1.446 1.446 0 0 1-1.32 1.553h-.13ZM376.34 267.117a44.734 44.734 0 0 1-5.225-.304c-19.695-2.336-43.747-19.446-54.757-38.967a96.206 96.206 0 0 1-10.597-28.522 1.41 1.41 0 0 1 .204-1.085c.105-.158.24-.294.398-.399.158-.104.336-.176.522-.211a1.44 1.44 0 0 1 1.695 1.124 92.484 92.484 0 0 0 10.282 27.702c10.614 18.805 33.715 35.307 52.595 37.523 20.918 2.482 47.316-12.222 61.558-27.289a95.773 95.773 0 0 0 14.155-19.413 1.447 1.447 0 0 1 1.964-.568 1.445 1.445 0 0 1 .567 1.963 99.129 99.129 0 0 1-14.589 19.995c-13.916 14.709-37.832 28.451-58.772 28.451ZM464.595 198.318c-.348 0-.684 0-1.027-.043a1.43 1.43 0 0 1-.975-.512 1.443 1.443 0 0 1 .677-2.297 1.45 1.45 0 0 1 .559-.059c3.585.321 7.8-1.591 11.901-5.377 6.355-5.856 10.744-14.71 10.673-21.521-.076-8.18-2.688-14.666-7.001-17.382-3.259-2.026-7.317-1.922-12.059.337a1.434 1.434 0 1 1-1.222-2.596c7.062-3.379 11.95-1.966 14.807-.179 5.22 3.259 8.267 10.472 8.354 19.793.071 7.675-4.595 17.191-11.597 23.666-4.372 4.03-8.978 6.17-13.09 6.17Z" fill="#331C19"/><path d="M467.658 176.374a1.451 1.451 0 0 1-.89-.325 1.43 1.43 0 0 1-.538-.969 1.44 1.44 0 0 1 .309-1.063c1.576-1.977 3.976-4.975 7.751-6.301a1.44 1.44 0 0 1 1.172-.019 1.448 1.448 0 0 1 .704 2.023 1.444 1.444 0 0 1-.93.712c-2.993 1.043-4.992 3.547-6.453 5.372a1.434 1.434 0 0 1-1.125.57ZM368.693 192.93a1.428 1.428 0 0 1-1.157-.592c-6.149-8.332-3.178-12.124-.326-15.79.608-.782 1.238-1.586 1.803-2.466 2.075-3.297 2.292-7.105.625-11.298a1.438 1.438 0 0 1 .809-1.863 1.415 1.415 0 0 1 1.103.009 1.429 1.429 0 0 1 .766.795c2.52 6.349.923 11.064-.87 13.894-.613.961-1.303 1.847-1.96 2.716-2.716 3.46-4.482 5.741.358 12.325a1.445 1.445 0 0 1 .127 1.499 1.44 1.44 0 0 1-1.278.793v-.022ZM424.742 143.768a1.45 1.45 0 0 1-.836-.272c-6.833-4.889-16.024-5.877-24.611-2.678a1.448 1.448 0 1 1-1.01-2.716c9.489-3.53 19.684-2.39 27.294 3.037a1.44 1.44 0 0 1-.837 2.618v.011Z" fill="#331C19"/><path fill-rule="evenodd" clip-rule="evenodd" d="M418.338 169.302c-.054-3.802-2.574-6.784-5.632-6.73-3.058.054-5.465 3.172-5.432 6.958.033 3.786 2.575 6.79 5.616 6.73 3.042-.06 5.492-3.178 5.448-6.958ZM343.625 163.159c-.212-3.802-2.857-6.681-5.899-6.518-3.041.163-5.339 3.406-5.122 7.186.217 3.781 2.841 6.681 5.883 6.486 3.041-.196 5.35-3.384 5.138-7.154Z" fill="#331C19"/><path d="M460.304 145.631h-.054c-17.827-.636-44.714-16.295-56.316-38.609a1.441 1.441 0 1 1 2.552-1.336c11.141 21.428 36.855 36.452 53.851 37.066a1.44 1.44 0 1 1-.039 2.879h.006ZM401.321 123.675c-.151 0-.302-.024-.446-.07-15.849-5.177-23.551-23.677-17.924-43.041a1.442 1.442 0 0 1 1.763-.903 1.444 1.444 0 0 1 1.007 1.707c-5.258 18.125 1.494 34.763 16.072 39.494a1.459 1.459 0 0 1 .908 1.825 1.434 1.434 0 0 1-1.38.988ZM311.203 137.619a1.438 1.438 0 0 1-1.13-2.356 1.44 1.44 0 0 1 .935-.512c13.851-1.879 22.541-17.452 30.961-32.509 9.19-16.48 17.87-32.047 32.693-27.159a1.443 1.443 0 0 1 .913 1.82 1.413 1.413 0 0 1-.715.839 1.42 1.42 0 0 1-1.1.073c-12.552-4.144-20.303 9.778-29.277 25.839-8.745 15.671-17.778 31.89-33.057 33.965a1.187 1.187 0 0 1-.223 0ZM391.81 56.12a1.506 1.506 0 0 1-.402-.059 1.429 1.429 0 0 1-1.031-1.23c-.02-.19-.002-.38.053-.562 2.238-7.68 7.817-18.403 14.747-23.77a1.446 1.446 0 0 1 2.269.763 1.436 1.436 0 0 1-.509 1.519c-6.132 4.747-11.558 14.812-13.742 22.302a1.43 1.43 0 0 1-1.385 1.038ZM272.47 147.917a1.462 1.462 0 0 1-.294-.038 1.44 1.44 0 0 1-1.119-1.7c1.326-6.306 1.63-12.368 1.978-18.783.635-12.042 1.352-25.697 9.424-43.421a1.44 1.44 0 0 1 1.906-.717 1.46 1.46 0 0 1 .723 1.912c-7.855 17.224-8.523 30.016-9.175 42.367-.342 6.518-.668 12.694-2.036 19.223a1.444 1.444 0 0 1-1.407 1.157ZM253.996 306.481a1.425 1.425 0 0 1-1.406-1.157c-2.206-11.233 1.846-18.952 5.757-26.415 2.602-4.959 5.291-10.07 6.111-16.235 1.146-8.718-1.825-15.508-5.274-23.357l-1.049-2.433a1.44 1.44 0 0 1 .753-1.893 1.441 1.441 0 0 1 1.893.752l1.048 2.39c3.465 7.925 6.741 15.404 5.481 24.915-.875 6.681-3.694 12.021-6.41 17.197-3.856 7.35-7.501 14.291-5.491 24.525a1.421 1.421 0 0 1-.208 1.077 1.422 1.422 0 0 1-.911.612 1.802 1.802 0 0 1-.294.022ZM291.638 67.11a1.456 1.456 0 0 1-1.407-1.76c5.019-21.798 23.389-43.623 46.8-55.61 22.4-11.467 46.441-12.858 67.734-3.912a1.424 1.424 0 0 1 .771 1.88 1.442 1.442 0 0 1-1.879.766c-20.494-8.594-43.688-7.241-65.311 3.802-22.683 11.613-40.467 32.688-45.306 53.687a1.44 1.44 0 0 1-1.402 1.146ZM567.254 322.706a1.434 1.434 0 0 1-1.205-.647c-7.719-11.759-4.531-21.553-1.44-31.026 2.271-6.958 4.617-14.122 2.879-22.422-2.917-13.916-8.865-20.032-15.16-26.513-4.449-4.589-9.066-9.337-12.982-17.006-6.045-11.804-5.54-22.499-4.986-33.824.429-9.147.885-18.614-1.76-30.048-1.63-7.132-5.502-12.444-10.402-19.18-5.198-7.159-11.667-16.056-17.142-30.032-2.216-5.698-3.737-13.34-5.497-22.183-6.458-32.732-15.323-77.457-71.357-76.664a1.505 1.505 0 0 1-1.461-1.423 1.447 1.447 0 0 1 1.418-1.466h1.673c56.924 0 66.316 47.484 72.546 79.01 1.722 8.69 3.216 16.224 5.35 21.689 5.334 13.628 11.407 22.004 16.79 29.385 4.888 6.73 9.103 12.537 10.863 20.228 2.716 11.825 2.249 21.928 1.83 30.836-.543 11.407-1.031 21.255 4.672 32.374 3.726 7.289 8.18 11.879 12.493 16.295 6.578 6.784 12.802 13.199 15.888 27.924 1.906 9.044-.544 16.611-2.95 23.9-2.998 9.234-5.855 17.957 1.086 28.544a1.431 1.431 0 0 1-.416 2.029 1.43 1.43 0 0 1-.73.22ZM291.606 182.414a1.443 1.443 0 0 1-1.25-.716 38.343 38.343 0 0 1-2.417-5.014 1.43 1.43 0 0 1 .005-1.096 1.43 1.43 0 0 1 .783-.767 1.447 1.447 0 0 1 1.885.798 35.866 35.866 0 0 0 2.238 4.634 1.427 1.427 0 0 1 .141 1.099 1.41 1.41 0 0 1-.255.505c-.117.15-.263.275-.43.367a1.368 1.368 0 0 1-.7.19ZM125.944 447.967a1.451 1.451 0 0 1-1.228-2.205c7.213-11.624 11.95-27.159 17.382-45.133 5.768-18.978 12.319-40.493 23.22-60.835 4.27-7.969 8.322-14.123 11.586-19.087 4.345-6.567 7.452-11.315 8.191-15.845a1.44 1.44 0 0 1 2.841.451c-.831 5.138-4.101 10.108-8.62 16.974-3.259 4.889-7.252 11.005-11.461 18.859-10.766 20.098-17.268 41.444-22.998 60.293-5.53 18.185-10.32 33.872-17.707 45.827a1.446 1.446 0 0 1-1.206.701Z" fill="#331C19"/><path d="M183.982 308.398a1.438 1.438 0 0 1-1.25-.76 1.446 1.446 0 0 1 .055-1.461c11.89-18.414 24.442-33.612 35.306-42.786 6.48-5.475 12.715-9.348 18.745-13.085 7.311-4.547 14.225-8.838 21.417-15.752 5.149-4.965 9.315-10.283 13.351-15.41 5.747-7.322 10.717-13.645 17.072-17.121 5.942-3.259 14.122-4.134 20.64-4.851 3.656-.402 8.691-.95 9.289-1.841a4.983 4.983 0 0 0-.256-4.954c-2.536-4.443-10.238-7.93-18.734-8.506-6.583-.445-14.122 2.282-20.195 4.476-5.795 2.091-10.358 3.748-13.237 2.585a1.437 1.437 0 0 1-.902-1.328 1.46 1.46 0 0 1 .416-1.025 1.445 1.445 0 0 1 1.573-.324c1.868.755 6.393-.88 11.189-2.618 6.311-2.287 14.16-5.139 21.379-4.65 9.544.652 17.995 4.65 21.032 9.967a7.83 7.83 0 0 1 .336 7.681c-1.135 2.265-5.285 2.716-11.553 3.4-6.268.684-14.122 1.548-19.592 4.525-5.844 3.188-10.635 9.299-16.186 16.36-3.895 4.976-8.327 10.608-13.623 15.698-7.398 7.126-14.764 11.7-21.901 16.127-5.942 3.699-12.075 7.501-18.408 12.846-10.63 9-22.965 23.959-34.714 42.139a1.44 1.44 0 0 1-.538.496 1.446 1.446 0 0 1-.711.172ZM211.347 233.94a1.406 1.406 0 0 1-.755-.212 1.433 1.433 0 0 1-.473-1.977c5.247-8.577 5.975-16.757 6.654-24.677.456-5.143.918-10.456 2.623-15.752a1.441 1.441 0 0 1 2.548-.116c.177.304.237.662.168 1.007-1.602 4.987-2.026 9.902-2.487 15.111-.728 8.251-1.472 16.779-7.062 25.932a1.46 1.46 0 0 1-1.216.684ZM216.11 184.598a1.444 1.444 0 0 1-1.439-1.423 1.418 1.418 0 0 1 .867-1.343c.174-.074.361-.112.55-.113 6.089-.109 10.935-.663 16.263-3.102a1.451 1.451 0 0 1 1.117-.06 1.446 1.446 0 0 1 .952 1.312c.006.192-.027.384-.097.563a1.454 1.454 0 0 1-.777.804c-5.779 2.65-10.945 3.259-17.409 3.362h-.027Z" fill="#331C19"/><path d="M144.607 262.44a1.495 1.495 0 0 1-.858-.282 1.448 1.448 0 0 1-.299-2.015c8.349-11.222 14.666-19.745 18.316-24.872 9.956-13.944 14.041-25.676 17.984-37.023 1.19-3.4 2.303-6.616 3.564-9.837 5.513-14.068 8.147-19.967 14.003-26.11 5.295-5.552 17.082-7.219 25.675-8.452 1.271-.181 2.45-.362 3.536-.543 8.457-1.331 18.875.114 23.704 3.286 4.943 3.232 14.894 20.477 16.839 27.039 1.015 3.422.407 6.388-1.63 8.148-2.037 1.76-5.432 1.999-8.626.483-5.181-2.466-9.233-7.029-12.846-11.07l-.711-.793c-3.802-4.28-6.904-6.035-8.903-6.985a1.447 1.447 0 0 1-.649-1.91 1.443 1.443 0 0 1 1.893-.697c2.216 1.086 5.644 3.014 9.777 7.669l.717.804c3.422 3.802 7.284 8.148 11.95 10.375 2.173 1.016 4.28.999 5.53-.071 1.249-1.07 1.455-2.835.771-5.155-1.928-6.48-11.602-22.78-15.649-25.436-4.182-2.716-14.122-4.036-21.683-2.847-1.087.169-2.303.343-3.585.544-8.18 1.162-19.386 2.759-23.992 7.604-5.502 5.763-8.044 11.488-13.406 25.171-1.238 3.172-2.346 6.36-3.525 9.744-3.802 10.994-8.147 23.455-18.364 37.74-3.721 5.138-10.017 13.677-18.387 24.921a1.453 1.453 0 0 1-1.146.57Z" fill="#331C19"/><path d="M83.832 492.605c-19.886 0-36.567-6.203-45.377-24.666-14.448-30.292 38.663-114.968 49.461-131.627 24.644-38.06 54.861-83.106 59.749-82.269a1.452 1.452 0 0 1 1.168 1.678 1.427 1.427 0 0 1-1.363 1.184c-4.949 2.336-37.555 50.711-57.066 80.852-29.505 45.534-60.064 106.516-49.369 128.944 16.002 33.514 60.89 23.764 101.714 11.999 23.313-6.714 39.652-14.612 54.046-21.575 13.677-6.616 25.486-12.336 39.375-15.003a1.45 1.45 0 0 1 1.461 2.233c-.106.156-.243.29-.401.394a1.459 1.459 0 0 1-.523.209c-13.514 2.585-25.165 8.223-38.663 14.758-14.508 7.023-30.96 14.97-54.496 21.727-20.146 5.844-41.292 11.162-59.716 11.162ZM289.395 177.531a25.37 25.37 0 0 1-4.394-.369c-1.353-.234-2.841-.348-4.579-.478-5.084-.386-12.048-.918-22.086-5.079a1.47 1.47 0 0 1-.776-1.895 1.44 1.44 0 0 1 1.885-.777c9.608 3.987 16.034 4.492 21.183 4.888 1.82.153 3.379.272 4.889.544 5.507.956 11.053-.381 12.455-1.728a1.933 1.933 0 0 0 .776-1.483c-.103-.803-1.151-1.852-2.824-2.813-2.83-1.63-5.144-2.482-8.343-3.656-2.325-.853-4.959-1.819-8.474-3.34a88.354 88.354 0 0 1-9.234-4.682c-2.922-1.657-5.431-3.086-8.978-4.264-8.838-2.939-17.463-.674-27.441 1.966-3.118.815-6.334 1.673-9.701 2.384a1.45 1.45 0 0 1-1.108-.177 1.443 1.443 0 0 1-.65-1.491 1.435 1.435 0 0 1 1.155-1.145c3.297-.706 6.474-1.548 9.565-2.363 10-2.634 19.435-5.122 29.103-1.907 3.775 1.271 6.518 2.836 9.484 4.493a86.94 86.94 0 0 0 8.924 4.551c3.444 1.483 6.035 2.434 8.327 3.259a52.492 52.492 0 0 1 8.799 3.868c2.591 1.499 4.014 3.166 4.232 4.959.119.956-.082 2.412-1.63 3.911-1.863 1.749-6.111 2.824-10.559 2.824Z" fill="#331C19"/><path d="M298.569 169.693a1.442 1.442 0 0 1-1.445-1.308 1.442 1.442 0 0 1 1.184-1.549c5.193-.961 8.105-1.923 8.583-4.188.478-2.265-1.043-2.895-7.724-4.709-1.961-.543-4.205-1.141-6.671-1.934a75.947 75.947 0 0 1-7.12-2.857c-7.714-3.406-15.008-6.616-25.828-1.689a1.438 1.438 0 0 1-1.91-.709 1.457 1.457 0 0 1-.041-1.102 1.443 1.443 0 0 1 .75-.807c12.021-5.465 20.239-1.836 28.191 1.673a72.208 72.208 0 0 0 6.838 2.748c2.423.777 4.617 1.374 6.518 1.896 6.301 1.722 10.864 2.955 9.778 8.077-.956 4.584-6.698 5.66-10.864 6.431a1.378 1.378 0 0 1-.239.027Z" fill="#331C19"/><path d="M304.414 158.58a1.446 1.446 0 0 1-.745-2.716c5.731-3.422 8.789-7.68 8.387-9.103-.152-.544-1.314-.897-3.053-.848-1.629 0-5.795.799-10.206 1.63-7.061 1.298-15.024 2.775-19.711 2.716a1.445 1.445 0 0 1 0-2.89h.26c4.454 0 12.45-1.478 18.886-2.678 4.949-.913 8.827-1.63 10.706-1.662 4.237-.049 5.47 1.575 5.867 2.949 1.042 3.678-4.074 9.001-9.685 12.363a1.357 1.357 0 0 1-.706.239ZM317.499 289.403a1.423 1.423 0 0 1-1.031-.379 1.445 1.445 0 0 1-.46-.998 1.429 1.429 0 0 1 .832-1.36c.171-.079.356-.123.545-.131 10.896-.934 18.858-2.944 25.078-6.377a1.443 1.443 0 0 1 1.955.571 1.439 1.439 0 0 1-.57 1.955c-6.583 3.629-14.91 5.763-26.224 6.719h-.125ZM164.954 370.863a1.436 1.436 0 0 1-1.42-1.14 1.439 1.439 0 0 1 .834-1.619c17.783-7.865 38.158-24.492 53.04-36.632l3.775-3.085c9.826-7.974 28.827-22.645 45.806-31.211l.809-.413c3.053-1.542 6.85-3.46 9.522-4.541a1.43 1.43 0 0 1 1.104.008 1.438 1.438 0 0 1 .768 1.889 1.438 1.438 0 0 1-.785.776c-2.559 1.032-6.296 2.922-9.294 4.438l-.82.412c-16.746 8.447-35.551 22.971-45.279 30.88l-3.802 3.074c-15.008 12.254-35.551 29.017-53.698 37.028a1.295 1.295 0 0 1-.56.136ZM252.758 699.343a1.45 1.45 0 0 1-1.412-1.152c-3.585-17.924-2.493-31.504-.543-56.088.956-11.999 2.172-26.936 3.134-46.42 1.597-31.504-1.771-72.91-4.476-106.185l-.896-11.043a1.428 1.428 0 0 1 .319-1.075 1.424 1.424 0 0 1 .994-.52 1.427 1.427 0 0 1 1.066.352 1.443 1.443 0 0 1 .489 1.01l.896 11.053c2.716 33.357 6.1 74.872 4.487 106.555-.984 19.554-2.173 34.481-3.151 46.496-2.015 25.138-3.02 37.745.494 55.3a1.447 1.447 0 0 1-1.129 1.69c-.09.016-.181.025-.272.027ZM464.052 265.39a1.428 1.428 0 0 1-.831-.26 1.425 1.425 0 0 1-.522-.696c-7.094-19.902-6.268-46.578-4.66-59.206a1.457 1.457 0 0 1 2.166-1.069 1.433 1.433 0 0 1 .702 1.449c-1.57 12.373-2.396 38.484 4.514 57.881a1.445 1.445 0 0 1-.875 1.841 1.5 1.5 0 0 1-.494.06ZM500.64 298.447a1.977 1.977 0 0 1-.489-.081c-5.111-1.869-8.691-5.307-11.906-8.338-3.01-2.863-5.432-5.128-7.833-4.97a1.439 1.439 0 0 1-.185-2.868c3.71-.228 6.627 2.537 10 5.741 2.982 2.847 6.372 6.073 10.907 7.724a1.437 1.437 0 0 1 .925 1.604 1.44 1.44 0 0 1-1.419 1.188ZM524.273 408.18h-.076a1.45 1.45 0 0 1-1.374-1.505c2.031-40.993 11.662-82.601 21.911-94.735a1.445 1.445 0 0 1 2.549.802c.033.382-.086.762-.332 1.056-9.777 11.515-19.278 53.231-21.244 93.007a1.45 1.45 0 0 1-1.434 1.375ZM531.633 569.497a1.45 1.45 0 0 1-1.439-1.379c-.397-9.859.141-20.934.733-32.678.836-16.838 1.782-35.926-.141-54.263a1.435 1.435 0 1 1 2.857-.288c1.955 18.549 1.005 37.756.157 54.698-.586 11.662-1.124 22.688-.727 32.406a1.443 1.443 0 0 1-1.38 1.504h-.06ZM356.596 308.583a1.462 1.462 0 0 1-1.456-1.325c-1.347-17.143-4.693-38.767-6.257-47.8a1.431 1.431 0 0 1 .634-1.467c.159-.103.337-.172.523-.206a1.453 1.453 0 0 1 1.678 1.173c1.576 9.093 4.927 30.831 6.307 48.082a1.44 1.44 0 0 1-.343 1.045 1.43 1.43 0 0 1-.983.492.355.355 0 0 1-.103.006ZM353.565 138.618c-.3 0-.593-.095-.836-.271-6.328-4.519-16.529-5.671-22.759-2.559a1.437 1.437 0 0 1-1.287-2.574c7.207-3.601 18.467-2.374 25.719 2.786a1.437 1.437 0 0 1-.174 2.456 1.469 1.469 0 0 1-.663.162ZM373.396 237.123h-1.048c-21.341-.983-23.259-25.877-23.275-26.138a1.438 1.438 0 0 1 .505-1.184 1.43 1.43 0 0 1 1.239-.315 148.705 148.705 0 0 0 21.792 2.841c11.287.543 23.726-.625 23.84-.635a1.45 1.45 0 0 1 1.546 1.094c.056.224.059.457.007.682-.065.217-5.958 23.655-24.606 23.655Zm-21.221-24.443c.836 5.486 4.584 20.809 20.303 21.537 14.041.641 20.315-14.122 22.135-19.5-7.364.575-14.754.729-22.135.462a153.248 153.248 0 0 1-20.32-2.493l.017-.006ZM412.298 205.076a28.575 28.575 0 0 1-3.308-.18c-16.979-1.841-29.26-17.463-27.381-34.812.913-8.31 4.661-14.312 11.135-17.821 5.606-3.042 13.036-4.09 22.031-3.107 8.995.983 16.236 3.672 21.108 7.794 5.763 4.862 8.24 11.543 7.327 19.826-1.765 16.219-15.285 28.3-30.912 28.3Zm-3.65-53.384c-5.779 0-10.717 1.043-14.508 3.096-5.595 3.042-8.843 8.289-9.641 15.606-1.722 15.752 9.424 29.961 24.828 31.645 15.405 1.684 29.331-9.777 31.042-25.572.793-7.279-1.33-13.113-6.317-17.322-4.443-3.748-11.211-6.214-19.554-7.121a53.42 53.42 0 0 0-5.85-.332Z" fill="#331C19"/><path d="M332.68 197.694a30.182 30.182 0 0 1-3.894-.255c-14.894-1.885-26.23-14.356-26.963-29.641a1.435 1.435 0 0 1 .368-1.045 1.46 1.46 0 0 1 .453-.338 1.467 1.467 0 0 1 1.106-.058 1.41 1.41 0 0 1 .816.745c.08.173.124.359.13.549.674 13.884 10.956 25.209 24.443 26.931a27.573 27.573 0 0 0 20.776-5.839 28.97 28.97 0 0 0 10.739-19.147c2.248-17.643-12.298-23.248-24.878-24.851-7.093-.901-14.948 0-20.51 2.352a1.418 1.418 0 0 1-1.1.012 1.426 1.426 0 0 1-.785-.772 1.45 1.45 0 0 1 .761-1.896c5.975-2.542 14.437-3.509 21.987-2.553 19.647 2.494 29.37 12.466 27.393 28.061a31.878 31.878 0 0 1-11.825 21.053 30.479 30.479 0 0 1-19.017 6.692Z" fill="#331C19"/><path d="M382.446 174.028a1.385 1.385 0 0 1-.837-.272c-6.985-4.981-13.492-3.927-18.386-2.455a1.453 1.453 0 0 1-1.803-.967 1.424 1.424 0 0 1 .47-1.526c.147-.119.315-.207.496-.261 3.259-.978 11.88-3.574 20.896 2.868a1.444 1.444 0 0 1-.836 2.613ZM443.172 170.709a1.448 1.448 0 0 1-1.355-.954 1.45 1.45 0 0 1 .432-1.599l15.795-13.074a1.442 1.442 0 0 1 2.353 1.247 1.435 1.435 0 0 1-.517.974l-15.784 13.069a1.421 1.421 0 0 1-.924.337ZM478.994 362.113a.472.472 0 0 1-.13 0 1.424 1.424 0 0 1-.987-.504 1.426 1.426 0 0 1-.322-1.06c2.428-26.974 9.234-48.886 19.179-61.602 5.432-6.953 13.705-3.694 22.45-.239 2.243.875 4.557 1.793 6.941 2.596 1.424.473 2.917.929 4.454 1.386 7.665 2.308 16.372 4.932 18.05 12.058a1.411 1.411 0 0 1-.564 1.513c-.157.11-.335.186-.522.225a1.439 1.439 0 0 1-1.507-.569 1.435 1.435 0 0 1-.231-.517c-1.31-5.502-8.811-7.773-16.084-9.962-1.553-.473-3.085-.934-4.535-1.412-2.45-.82-4.807-1.744-7.061-2.656-9.321-3.672-15.209-5.66-19.136-.663-9.582 12.325-16.187 33.677-18.582 60.097a1.42 1.42 0 0 1-1.413 1.309ZM531.508 548.574a1.42 1.42 0 0 1-1.086-.483c-3.205-3.607-6.404-7.572-9.511-11.787a1.438 1.438 0 0 1 1.377-2.274c.379.057.719.261.948.568a160.754 160.754 0 0 0 9.337 11.575 1.436 1.436 0 0 1 .363 1.047 1.428 1.428 0 0 1-.488.996 1.47 1.47 0 0 1-.94.358ZM254.708 546.993a1.45 1.45 0 0 1-1.374-1.005c-45.627-144.033 6.328-229.763 23.356-252.625l.391-.543c5.193-7.061 10.864-7.148 16.882-7.219 2.5.031 4.999-.135 7.474-.494a76.988 76.988 0 0 0 3.433-.69c5.562-1.2 11.874-2.564 15.535 2.504a1.448 1.448 0 0 1-.362 1.965 1.442 1.442 0 0 1-1.979-.276c-2.564-3.552-7.431-2.482-12.58-1.374a80.328 80.328 0 0 1-3.569.712 50.02 50.02 0 0 1-7.914.543c-5.975.07-10.25.114-14.595 6.04l-.407.543c-16.839 22.564-68.12 107.299-22.911 250.024a1.42 1.42 0 0 1-.091 1.096 1.42 1.42 0 0 1-.844.707 1.33 1.33 0 0 1-.445.092Z" fill="#331C19"/><path d="M250.803 492.806a1.438 1.438 0 0 1-1.391-1.086c-3.509-13.493 3.715-58.804 8.756-80.39 11.227-48.077 32.275-93.377 57.766-124.262a1.444 1.444 0 0 1 2.029-.199 1.443 1.443 0 0 1 .198 2.029c-25.219 30.565-46.061 75.431-57.185 123.089-5.654 24.242-11.879 67.06-8.772 79.016a1.454 1.454 0 0 1-1.037 1.759 2.64 2.64 0 0 1-.364.044ZM387.465 336.013c-14.492 0-26.855-3.194-35.366-9.342a1.442 1.442 0 1 1 1.683-2.342c11.521 8.322 31.591 10.907 53.688 6.915a1.444 1.444 0 0 1 1.665 1.721 1.427 1.427 0 0 1-1.16 1.109 115.306 115.306 0 0 1-20.51 1.939ZM468.223 305.357a1.412 1.412 0 0 1-1.054-.462 1.471 1.471 0 0 1 .082-2.048 77.91 77.91 0 0 0 15.046-18.403 1.451 1.451 0 0 1 2.654.327 1.44 1.44 0 0 1-.139 1.096 81.562 81.562 0 0 1-15.584 19.093 1.449 1.449 0 0 1-1.005.397ZM178.387 308.953c-8.609 0-15.752-2.45-21.352-7.284-11.738-10.201-14.204-29.158-14.204-43.253a1.437 1.437 0 0 1 1.437-1.528 1.438 1.438 0 0 1 1.436 1.528c0 13.497 2.303 31.591 13.216 41.074 6.453 5.595 15.328 7.605 26.387 6.062a1.476 1.476 0 0 1 1.63 1.233 1.454 1.454 0 0 1-1.223 1.63 53.148 53.148 0 0 1-7.327.538ZM152.733 329.729c-24.986 0-28.37-20.939-30.673-35.192-.342-2.135-.668-4.15-1.043-5.943a1.446 1.446 0 0 1 2.618-1.112c.105.161.178.342.212.531.369 1.836.706 3.884 1.086 6.062 2.472 15.279 5.834 36.203 34.655 32.281a1.435 1.435 0 0 1 1.067.28 1.431 1.431 0 0 1 .557.953 1.435 1.435 0 0 1-.28 1.067 1.444 1.444 0 0 1-.953.557 53.398 53.398 0 0 1-7.246.516Z" fill="#331C19"/><path d="M382.82 335.622a1.476 1.476 0 0 1-.456-.07 1.443 1.443 0 0 1-.912-1.82c3.856-11.553 6.203-15.964 26.295-24.15 20.091-8.185 46.12-26.615 55.827-47.761.16-.346.45-.614.808-.745a1.434 1.434 0 0 1 1.799 1.951c-10.027 21.847-36.751 40.836-57.343 49.217-19.885 8.11-21.287 12.292-24.649 22.395a1.458 1.458 0 0 1-1.369.983ZM368.291 333.162a1.436 1.436 0 0 1-1.33-.88 1.416 1.416 0 0 1-.11-.549c0-4.307-2.124-7.604-5.062-12.2-1.374-2.134-2.922-4.568-4.481-7.441-5.334-9.87-6.741-17.854-5.807-32.862a1.413 1.413 0 0 1 .965-1.282c.181-.059.372-.082.561-.065a1.43 1.43 0 0 1 1.272.973c.06.18.084.369.07.558-1.005 16.165.967 22.971 5.464 31.304 1.51 2.792 3.037 5.176 4.389 7.262 3.075 4.812 5.508 8.598 5.508 13.753a1.43 1.43 0 0 1-.89 1.322 1.455 1.455 0 0 1-.549.107Z" fill="#331C19"/><path d="M482.9 287.655a1.502 1.502 0 0 1-.875-.299c-7.311-5.606-10.146-12.879-12.221-18.202-2.243-5.763-3.259-7.724-6.132-7.213a1.448 1.448 0 0 1-1.468-2.233c.215-.317.548-.536.924-.608 5.432-.983 7.246 3.645 9.338 9.017 2.058 5.268 4.627 11.835 11.287 16.941a1.454 1.454 0 0 1-.853 2.597Z" fill="#331C19"/><path d="M424.943 361.716c-3.802 0-6.958-6.36-11.314-15.138-5.806-11.668-12.976-26.197-21.971-24.764a1.432 1.432 0 0 1-1.63-1.189 1.453 1.453 0 0 1 1.19-1.63c11.064-1.754 18.788 13.813 25.013 26.323 2.998 6.029 6.735 13.536 8.729 13.536 4.247-.104 16.072-17.626 26.501-33.096 9.37-13.884 19.989-29.614 29.223-39.652a1.428 1.428 0 0 1 1.001-.463c.189-.008.378.022.556.088.178.065.341.165.48.294a1.435 1.435 0 0 1 .462.997 1.431 1.431 0 0 1-.386 1.029c-9.077 9.896-19.641 25.529-28.946 39.342-14.747 21.857-23.356 34.22-28.821 34.361l-.087-.038ZM339.182 348.729a3.679 3.679 0 0 1-.679-.06c-1.119-.195-1.678-1.341-1.863-1.722-3.139-6.561-6.48-45.295 7.881-70.944a1.442 1.442 0 0 1 2.692.861c-.021.188-.08.37-.171.535-13.933 24.883-10.489 64.095-7.751 68.44 2.558-.239 6.197-8.251 8.886-14.122 3.449-7.605 6.714-14.791 10.728-16.046a4.285 4.285 0 0 1 3.568.462 1.446 1.446 0 0 1-.42 2.605 1.444 1.444 0 0 1-1.073-.134 1.38 1.38 0 0 0-1.212-.19c-2.786.869-6.219 8.42-8.978 14.498-3.841 8.446-7.187 15.817-11.608 15.817ZM312.507 520.584a1.47 1.47 0 0 1-1.086-.462c-3.14-3.438-8.691-7.686-13.58-11.406-3.731-2.868-7.246-5.568-9.462-7.686-4.345-4.199-5.839-10.543-3.308-14.183 5.28-7.604 14.981-2.433 27.251 4.096 10.983 5.861 24.671 13.145 39.983 14.291a1.445 1.445 0 0 1-.201 2.879c-15.931-1.195-29.874-8.642-41.14-14.628-12.585-6.714-19.874-10.255-23.524-4.997-1.505 2.172-.669 6.996 2.938 10.461 2.097 2.016 5.557 4.672 9.234 7.48 4.97 3.802 10.603 8.147 13.927 11.765a1.44 1.44 0 0 1 .244 1.56 1.445 1.445 0 0 1-1.33.852l.054-.022ZM574.718 673.504c-14.123 0-30.961-4.383-49.092-9.717-5.019-1.478-123.121-36.252-124.723-46.789a1.44 1.44 0 0 1 2.84-.44c1.815 5.746 65.11 27.56 122.697 44.464 39.951 11.738 64.013 14.736 76.685-2.922 12.021-16.741 14.031-91.661 15.492-146.348.217-7.686.407-15.019.613-21.781 2.537-80.765 1.016-121.764-23.85-148.83-13.145-14.324-31.716-19.261-42.813-22.205a72.651 72.651 0 0 1-7.604-2.271 1.437 1.437 0 0 1-.791-1.876 1.439 1.439 0 0 1 1.877-.791 69.933 69.933 0 0 0 7.224 2.173c11.407 3.037 30.483 8.11 44.203 23.053 25.584 27.848 27.159 69.33 24.612 150.877-.218 6.752-.408 14.085-.614 21.771-1.548 58.119-3.493 130.481-16.035 147.96-7.175 9.962-17.789 13.672-30.721 13.672Z" fill="#331C19"/><path d="M406.383 619.116c-.221 0-.438-.052-.635-.152-7.181-3.487-13.58-6.985-19.799-10.369-6.855-3.732-13.329-7.262-19.657-10.109-5.524-2.477-11.82-4.014-18.506-5.643-7.637-1.863-16.295-3.971-25.621-7.909-17.838-7.534-24.052-13.004-28.278-19.391-2.618-3.971-3.156-7.371-3.721-10.978a39.728 39.728 0 0 0-1.727-7.566c-4.193-12.156-2.07-18.544.168-25.318l.419-1.265a1.431 1.431 0 0 1 1.839-1.001 1.44 1.44 0 0 1 .982 1.329c.005.197-.031.392-.106.573l-.418 1.277c-2.172 6.572-4.046 12.238-.163 23.47a43.102 43.102 0 0 1 1.831 8.072c.543 3.422 1.005 6.366 3.291 9.832 3.917 5.936 9.81 11.069 26.98 18.315 9.12 3.862 17.658 5.932 25.197 7.779 6.801 1.662 13.238 3.226 19.011 5.812 6.426 2.878 12.944 6.447 19.853 10.206 6.176 3.357 12.564 6.849 19.679 10.32a1.449 1.449 0 0 1 .724 1.596 1.441 1.441 0 0 1-1.348 1.12h.005ZM578.319 585.722a1.523 1.523 0 0 1-.679-.163c-17.621-9.554-37.207-10.016-59.89-10.554-18.414-.445-39.282-.934-63.481-6.225-14.177-3.101-24.046-8.218-31.243-11.95-6.295-3.259-10.461-5.431-13.639-4.416a1.438 1.438 0 0 1-1.814-.928 1.44 1.44 0 0 1 .929-1.815c4.302-1.401 9.147 1.114 15.855 4.59 7.061 3.667 16.719 8.691 30.526 11.7 23.9 5.226 44.649 5.72 62.926 6.16 23.064.543 42.971 1.026 61.194 10.901a1.434 1.434 0 0 1-.684 2.716v-.016Z" fill="#331C19"/><path d="M413.276 555.439a1.457 1.457 0 0 1-.543-.092c-7.811-2.998-16.556-13.069-20.146-20.689a82.669 82.669 0 0 1-3.259-8.566c-2.379-7.002-5.074-14.927-10.527-20.304-7.816-7.724-16.431-14.166-24.019-19.875-6.029-4.514-11.227-8.414-14.302-11.727l-1.553-1.689c-5.465-5.937-9.777-10.647-13.362-9.392a3.57 3.57 0 0 0-2.173 2.363c-1.331 3.677.255 10.239 3.949 16.295 2.243 3.71 5.258 6.518 8.148 9.261 4.122 3.884 8.033 7.556 9.06 13.14a1.444 1.444 0 0 1-2.836.543c-.863-4.655-4.258-7.854-8.196-11.559-3.047-2.857-6.192-5.833-8.647-9.875-4.183-6.882-5.829-14.253-4.205-18.777a6.416 6.416 0 0 1 3.96-4.101c5.383-1.901 10.25 3.427 16.431 10.146l1.543 1.679c2.895 3.128 8.011 6.958 13.927 11.406 7.289 5.465 16.349 12.271 24.323 20.098 5.926 5.855 8.729 14.122 11.222 21.423a78.187 78.187 0 0 0 3.123 8.267c3.802 8.017 12.314 16.838 18.587 19.223a1.45 1.45 0 0 1 .826 1.868 1.43 1.43 0 0 1-1.331.934ZM301.899 539.682a1.426 1.426 0 0 1-1.271-.75c-2.515-4.611-5.111-8.506-7.398-11.949a102.496 102.496 0 0 1-6.138-10.011c-2.634-5.171-1.917-7.719 1.266-16.605a1.417 1.417 0 0 1 1.83-.88 1.45 1.45 0 0 1 .875 1.847c-3.135 8.788-3.46 10.32-1.407 14.34a103.482 103.482 0 0 0 5.975 9.712c2.324 3.481 4.953 7.436 7.539 12.161a1.45 1.45 0 0 1-.581 1.961 1.412 1.412 0 0 1-.69.174Z" fill="#331C19"/><path d="M405.992 620.414c-.309 0-.609-.1-.857-.284a1.445 1.445 0 0 1 .048-2.356c21.292-14.307 13.775-52.525 5.877-65.675a1.444 1.444 0 0 1 .5-1.977 1.444 1.444 0 0 1 1.977.5c9.435 15.714 15.611 54.534-6.746 69.526a1.332 1.332 0 0 1-.799.266ZM431.228 632.071a1.441 1.441 0 0 1-1.19-.625 1.448 1.448 0 0 1 .392-2.004c15.795-10.614 16.995-37.772 12.808-53.671a1.424 1.424 0 0 1 .147-1.089 1.448 1.448 0 0 1 .874-.666 1.424 1.424 0 0 1 1.088.148 1.417 1.417 0 0 1 .666.874c4.411 16.718 2.993 45.387-13.965 56.794a1.47 1.47 0 0 1-.82.239ZM563.365 706.882a1.45 1.45 0 0 1-1.45-1.434c0-2.759-1.836-30.629-2.444-33.611a.12.12 0 0 1-.033-.055 1.445 1.445 0 0 1-.131-.912 1.445 1.445 0 0 1 1.295-1.172c.314-.026.629.052.895.221 1.808 1.087 3.313 35.187 3.313 35.529a1.45 1.45 0 0 1-.425 1.017 1.458 1.458 0 0 1-1.02.417ZM518.537 574.391h-.098a1.46 1.46 0 0 1-1.347-1.543c1.233-18.343 4.15-48.006 6.969-76.68 3.487-35.447 6.784-68.983 6.594-77.772-2.715-1.151-16.838-2.064-34.572-3.226-6.155-.402-13.037-.847-20.5-1.363l-95.468-6.665c-41.612-2.912-59.08-2.874-62.329.163-4.285 3.987-4.888 11.488-5.361 17.523l-.043.434c-.418 5.264-1.879 26.073-4.481 63.552a1.439 1.439 0 1 1-2.868-.196c2.596-37.512 4.068-58.304 4.481-63.584l.033-.435c.499-6.186 1.173-14.665 6.279-19.413 3.606-3.346 14.562-4.41 64.496-.928l95.473 6.664c7.474.544 14.329.956 20.478 1.38 32.905 2.135 37.12 2.58 37.239 5.432.37 8.071-2.998 42.367-6.577 78.717-2.83 28.658-5.736 58.293-6.958 76.587a1.457 1.457 0 0 1-1.44 1.353Z" fill="#331C19"/><path d="M495.556 672.76c-4.416 0-9.707-.299-15.883-.63-2.716-.141-5.551-.31-8.614-.462-16.295-.798-38.25-2.477-59.489-4.106-10.863-.826-21.39-1.63-30.683-2.292-28.196-1.972-70.661-7.138-75.262-8.219-10.516-2.477-11.787-6.833-10.934-21.678 1.086-19.369 4.269-58.728 4.307-59.124l.304-4.558 1.467-.179 1.434.093-.331 4.856c-.033.423-3.211 39.744-4.308 59.081-.863 15.122.641 16.8 8.691 18.712 4.421 1.043 47.37 6.219 74.806 8.148 9.288.651 19.842 1.455 30.694 2.292 21.233 1.629 43.177 3.302 59.412 4.095 3.069.158 5.943.315 8.642.462 21.808 1.2 29.397 1.26 30.168-5.671.13-1.271.32-2.911.543-4.888a1.425 1.425 0 0 1 .521-.983 1.405 1.405 0 0 1 1.071-.305 1.446 1.446 0 0 1 .966.526 1.422 1.422 0 0 1 .31 1.055 397.062 397.062 0 0 1-.543 4.889c-.772 7.126-6.426 8.886-17.289 8.886ZM299.552 487.287h-.108a1.432 1.432 0 0 1-.988-.5 1.436 1.436 0 0 1-.343-1.053c3.465-44.78 5.975-71.553 7.523-79.57 2.656-13.954 11.265-14.524 26.246-14.318 5.975.082 50.949 1.825 94.968 3.726 86.744 3.77 87.141 4.378 87.733 5.318 3.905 6.111 9.326 9.397 14.09 12.297 1.265.772 2.482 1.499 3.601 2.244a1.433 1.433 0 0 1 .617 1.483 1.454 1.454 0 0 1-.613.92 1.44 1.44 0 0 1-1.606.003 84.837 84.837 0 0 0-3.487-2.173c-4.927-2.987-10.478-6.377-14.715-12.726-9.913-1.494-164.087-7.963-180.621-8.186-15.285-.201-21.238.76-23.356 11.982-1.488 7.795-4.069 35.198-7.469 79.25a1.435 1.435 0 0 1-1.472 1.303Z" fill="#331C19"/><path d="M295.25 648.535a5.764 5.764 0 0 1-2.172-.544c-2.548-1.162-6.73-4.774-6.057-15.953.69-11.596 1.831-25.257 3.14-41.08.717-8.691 1.488-17.925 2.254-27.577a1.404 1.404 0 0 1 .483-.994 1.4 1.4 0 0 1 1.054-.331 1.417 1.417 0 0 1 1.32 1.548c-.76 9.684-1.526 18.908-2.238 27.598-1.309 15.791-2.444 29.451-3.145 40.999-.407 6.964 1.19 10.288 2.613 11.841a4.723 4.723 0 0 0 2.906 1.63l-.044 1.374.098.06 1.005 1.027a1.638 1.638 0 0 1-1.217.402ZM531.84 418.75a1.895 1.895 0 0 1-.261 0 1.448 1.448 0 0 1-.927-.599 1.437 1.437 0 0 1-.23-1.079c.206-1.168-.831-3.097-2.836-5.269-4.481-4.889-11.553-8.925-13.074-8.783a1.286 1.286 0 0 1-1.857-.451 1.524 1.524 0 0 1 .543-2.054c1.434-.956 4.4.033 8.821 2.939 1.271.826 12.319 8.267 11.26 14.123a1.45 1.45 0 0 1-1.439 1.173Z" fill="#331C19"/><path d="M295.935 651.517a4.89 4.89 0 0 1-3.205-1.19c-2.173-1.852-3.08-5.584-2.662-11.092l5.677-71.764a1.442 1.442 0 0 1 2.533-.821 1.432 1.432 0 0 1 .34 1.049l-5.665 71.754c-.44 5.888.825 7.935 1.629 8.636a1.944 1.944 0 0 0 1.63.543 1.488 1.488 0 0 1 1.705 1.087 1.436 1.436 0 0 1-1.043 1.711c-.309.061-.624.09-.939.087ZM303.517 488.96h-.119a1.442 1.442 0 0 1-.981-.503 1.44 1.44 0 0 1-.333-1.05c2.254-27.653 5.116-62.329 5.974-70.45 1.63-15.209 5.747-18.354 9.973-19.494l.353-.104c6.062-1.743 82.377.397 163.935 2.988 16.523.543 28.413.869 30.417.896a1.453 1.453 0 0 1 1.451 1.434 1.484 1.484 0 0 1-1.489 1.445c-2.14 0-13.449-.359-30.488-.902-50.814-1.629-156.575-4.964-163.049-3.08l-.397.104c-2.026.543-6.23 1.667-7.854 17.023-.853 8.093-3.71 42.731-5.975 70.379a1.454 1.454 0 0 1-1.418 1.314Z" fill="#331C19"/><path d="M297.38 486.016a1.43 1.43 0 0 1-1.434-1.412c-.267-14.361-.544-28.788-.772-41.602-.407-21.298-.733-38.12-.76-43.318v-.391c-.049-5.877-.109-13.938 4.345-18.848 3.118-3.449 13.351-5.345 60.651-6.154l90.215-1.516a6331.14 6331.14 0 0 0 18.75-.375c8.05-.173 14.851-.315 20.239-.347 14.122-.103 15.6.646 15.855 2.509.451 3.449.652 12.091.641 27.213a1.43 1.43 0 0 1-.888 1.332 1.443 1.443 0 0 1-1.985-1.332c0-14.014-.169-22.628-.543-26.289-1.087-.31-4.346-.609-13.037-.544-5.388.044-12.178.196-20.211.359-5.66.119-11.95.255-18.761.375l-90.221 1.521c-39.369.673-55.784 2.129-58.543 5.198-3.688 4.079-3.645 11.189-3.601 16.909v.402c.032 5.171.358 21.982.76 43.269.245 12.835.516 27.257.766 41.613a1.44 1.44 0 0 1-.399 1.023 1.427 1.427 0 0 1-1.008.438l-.059-.033Z" fill="#331C19"/><path d="M290.443 485.484a1.447 1.447 0 0 1-1.455-1.418c-.511-40.081-.891-90.264.287-101.785 1.358-13.368 9.843-14.666 23.558-15.671 5.627-.418 48.038-2.449 89.536-4.242 81.851-3.547 82.274-2.982 82.932-2.135 4.188 5.432 9.418 8.061 14.035 10.364 1.19.598 2.336 1.168 3.417 1.76a1.45 1.45 0 0 1 .628 1.985 1.44 1.44 0 0 1-.887.703 1.435 1.435 0 0 1-1.121-.151c-1.054-.587-2.173-1.146-3.33-1.722-4.758-2.379-10.151-5.068-14.665-10.728-9.696-.597-154.804 5.899-170.322 7.061-14.606 1.087-19.815 2.385-20.902 13.08-1.162 11.407-.793 61.466-.26 101.465a1.457 1.457 0 0 1-1.429 1.45l-.022-.016ZM291.405 594.793a1.456 1.456 0 0 1-1.44-1.407c-.206-7.974-.201-15.975-.195-25.241v-14.997a1.449 1.449 0 0 1 .88-1.347 1.445 1.445 0 0 1 1.107-.005 1.454 1.454 0 0 1 .891 1.335v15.014c0 9.234.001 17.24.191 25.165a1.44 1.44 0 0 1-.848 1.358c-.173.078-.359.12-.548.125h-.038Z" fill="#331C19"/><path d="M502.78 375.725a.618.618 0 0 1-.136 0 1.43 1.43 0 0 1-1.241-1.006 1.425 1.425 0 0 1-.057-.558c.049-.495-.152-1.934-2.906-4.509-4.481-4.166-11.407-7.506-13.036-7.316a1.439 1.439 0 0 1-1.831-.359 1.459 1.459 0 0 1 .228-2.031c.478-.375 1.95-1.554 8.61 2.031 1.271.685 12.292 6.806 11.776 12.455a1.445 1.445 0 0 1-1.407 1.293Z" fill="#331C19"/><path d="M294.142 485.261a1.45 1.45 0 0 1-1.439-1.439c-.315-50.836-.429-84.23-.283-91.628.277-14.492 3.933-17.789 7.838-19.207l.321-.119c5.557-2.173 77.434-6.361 154.261-10.587 15.583-.858 26.843-1.477 28.663-1.629a1.474 1.474 0 0 1 1.564 1.309 1.447 1.447 0 0 1-1.314 1.564c-1.864.168-12.553.755-28.789 1.63-47.864 2.623-147.487 8.104-153.402 10.39l-.375.136c-1.836.668-5.665 2.053-5.942 16.562-.136 7.371 0 40.738.293 91.557a1.45 1.45 0 0 1-1.434 1.45l.038.011Z" fill="#331C19"/><path fill-rule="evenodd" clip-rule="evenodd" d="M202.303 94.648a14.353 14.353 0 0 0 9.076-6.197c3.52-5.367 4.802-15.959 4.802-15.959s.185 10.386 3.699 15.84c3.514 5.453 10.635 5.746 10.635 5.746s-6.409.864-10.021 5.975c-3.612 5.111-4.346 16.007-4.346 16.007s-.543-9.647-3.987-14.883c-3.443-5.236-9.858-6.529-9.858-6.529Z" fill="#fff"/><path d="M216.121 117.532a1.45 1.45 0 0 1-1.428-1.358c0-.092-.593-9.343-3.765-14.177-3.074-4.671-8.864-5.931-8.924-5.942a1.441 1.441 0 0 1-.778-2.36c.223-.252.527-.419.859-.47a13.1 13.1 0 0 0 8.088-5.562c3.287-5.03 4.552-15.242 4.574-15.345a1.482 1.482 0 0 1 1.499-1.26 1.432 1.432 0 0 1 1.374 1.412c0 .103.228 10.043 3.477 15.073 3.074 4.77 9.413 5.095 9.478 5.1a1.427 1.427 0 0 1 1.369 1.375 1.464 1.464 0 0 1-1.233 1.494c-.06 0-5.856.858-9.033 5.393-3.33 4.764-4.101 15.209-4.112 15.285a1.446 1.446 0 0 1-1.445 1.342Zm-9.576-22.868a16.795 16.795 0 0 1 6.79 5.758 23.171 23.171 0 0 1 2.781 6.725c.7-2.83 1.732-5.78 3.21-7.893a15.633 15.633 0 0 1 5.899-4.948 13.576 13.576 0 0 1-6.551-5.193c-1.38-2.173-2.276-4.932-2.863-7.604-.776 2.716-1.835 5.6-3.259 7.734a15.79 15.79 0 0 1-6.007 5.421Z" fill="#331C19"/><path fill-rule="evenodd" clip-rule="evenodd" d="M554.256 142.458a14.381 14.381 0 0 0 9.077-6.192c3.509-5.366 4.796-15.958 4.796-15.958s.19 10.385 3.699 15.839c3.509 5.453 10.635 5.746 10.635 5.746s-6.409.869-10.005 6.008c-3.596 5.138-4.378 16.007-4.378 16.007s-.543-9.663-3.998-14.888c-3.454-5.226-9.826-6.562-9.826-6.562Z" fill="#fff"/><path d="M568.08 165.337a1.424 1.424 0 0 1-1.423-1.352c0-.093-.592-9.332-3.77-14.172-3.074-4.671-8.853-5.926-8.913-5.942a1.461 1.461 0 0 1-1.152-1.456 1.443 1.443 0 0 1 1.228-1.374 13.11 13.11 0 0 0 8.088-5.568c3.259-5.019 4.562-15.241 4.562-15.334a1.374 1.374 0 0 1 1.51-1.276 1.443 1.443 0 0 1 1.369 1.412c0 .103.228 10.049 3.476 15.09 3.08 4.763 9.408 5.089 9.484 5.095a1.438 1.438 0 0 1 .136 2.862c-.06 0-5.855.869-9.033 5.399-3.33 4.759-4.101 15.209-4.112 15.285a1.42 1.42 0 0 1-1.45 1.331Zm-9.582-22.851a16.805 16.805 0 0 1 6.79 5.746 23.59 23.59 0 0 1 2.781 6.73c.706-2.83 1.727-5.774 3.205-7.892a15.526 15.526 0 0 1 5.899-4.937 13.646 13.646 0 0 1-6.518-5.209c-1.391-2.135-2.287-4.927-2.863-7.605-.782 2.749-1.841 5.611-3.259 7.746a15.747 15.747 0 0 1-6.035 5.421Z" fill="#331C19"/><path fill-rule="evenodd" clip-rule="evenodd" d="M514.1 34.916a11.007 11.007 0 0 0 6.996-4.775c2.716-4.139 3.699-12.32 3.699-12.32s.152 8.018 2.862 12.228c2.711 4.21 8.202 4.437 8.202 4.437s-4.943.669-7.718 4.628c-2.776 3.96-3.379 12.352-3.379 12.352s-.429-7.452-3.085-11.477-7.577-5.073-7.577-5.073Z" fill="#fff"/><path d="M524.762 52.9a1.443 1.443 0 0 1-1.434-1.353c0-.065-.434-7.115-2.841-10.771-2.281-3.46-6.643-4.438-6.692-4.449a1.436 1.436 0 0 1-1.13-1.455 1.443 1.443 0 0 1 1.228-1.374 9.576 9.576 0 0 0 5.975-4.145c2.504-3.802 3.471-11.624 3.487-11.7a1.369 1.369 0 0 1 .478-.95 1.35 1.35 0 0 1 1.016-.316 1.446 1.446 0 0 1 1.369 1.418c0 .065.184 7.659 2.629 11.461 2.259 3.509 7.018 3.802 7.061 3.802a1.45 1.45 0 0 1 1.369 1.375 1.436 1.436 0 0 1-1.244 1.493c-.038 0-4.378.658-6.73 4.025-2.097 2.993-2.96 9.413-3.123 11.63a1.424 1.424 0 0 1-1.418 1.31Zm-6.681-17.969a13.135 13.135 0 0 1 4.807 4.264 16.723 16.723 0 0 1 1.858 4.145 17.44 17.44 0 0 1 2.216-5.052 11.995 11.995 0 0 1 4.057-3.596 10.747 10.747 0 0 1-4.568-3.867 16.74 16.74 0 0 1-1.966-4.796 20.607 20.607 0 0 1-2.173 4.888 12.744 12.744 0 0 1-4.231 4.014Z" fill="#331C19"/></g><defs><clipPath id="a"><path fill="#fff" transform="translate(0 60)" d="M0 0h692v574H0z"/></clipPath><clipPath id="b"><path fill="#fff" transform="translate(36)" d="M0 0h587v710H0z"/></clipPath></defs></svg>