<svg viewBox="0 0 693 629" fill="none" xmlns="http://www.w3.org/2000/svg">
<g clip-path="url(#clip0_73_9)">
<path d="M172.168 543.655C241.329 502.574 340.62 570.213 548.496 573.886C568.434 574.225 588.934 574.282 607.576 566.992C627.963 559.025 644.634 542.751 657.362 524.273C691.379 474.999 699.433 408.998 685.466 349.948C671.499 290.898 637.144 238.629 594.397 197.492C570.01 173.985 542.414 153.36 523.716 124.711C506.932 99.0564 497.978 67.921 478.097 44.8095C445.037 6.61068 390.689 -0.339708 341.465 -0.000665231C308.856 0.281871 274.952 2.99422 246.679 20.0029C205.284 44.9226 184.728 94.4229 158.708 136.351C137.757 170.086 112.075 200.204 89.0404 232.357C61.7254 270.499 38.2401 311.58 18.9787 354.751C7.48951 380.519 3.54713 394.25 1.23802 413.236C-5.06978 466.353 12.0514 535.857 58.4588 560.946C67.5826 565.919 75.5237 567.953 78.396 568.518C118.439 575.582 172.168 543.655 172.168 543.655Z" fill="#FF9900"/>
</g>
<g clip-path="url(#clip1_73_9)">
<path fill-rule="evenodd" clip-rule="evenodd" d="M78.7576 318.202C84.2818 313.881 101.097 316.281 101.097 316.281C101.097 316.281 129.917 294.66 160.416 282.164C179.393 274.475 195.003 270.39 205.568 269.669C211.729 269.277 217.841 268.311 223.824 266.785L238.234 251.648L338.628 247.806L352.555 261.98C352.555 261.98 363.603 264.385 370.327 265.585C380.897 267.269 389.793 268.469 401.31 272.075C419.803 277.838 426.769 285.286 426.769 285.286L476.966 317.002C476.966 317.002 481.29 319.165 484.168 325.892C488.014 335.503 490.897 349.44 496.421 367.698C503.866 392.688 513.952 424.163 517.314 449.632C522.838 489.996 512.989 508.981 502.903 522.192C493.06 535.408 479.849 541.413 463.518 527.239C449.108 514.744 438.79 483.991 429.173 460.443C424.151 447.931 418.376 435.734 411.88 423.921L408.034 525.797L155.376 524.597L151.293 453.716C151.293 453.716 137.362 499.849 114.786 522.666C96.5298 540.924 70.1135 539.24 59.7858 521.945C56.6606 516.897 51.6204 494.312 51.1364 476.77C49.9369 439.048 59.307 386.188 67.7091 352.072C71.7918 333.824 74.1962 321.823 78.7576 318.202Z" fill="white"/>
<path fill-rule="evenodd" clip-rule="evenodd" d="M210.613 67.1216C223.824 54.3896 259.611 30.5996 283.865 35.4049C312.685 40.9314 327.817 41.1946 341.99 52.2475C346.794 56.0897 355.917 71.948 359.762 90.4485C363.366 108.228 362.161 133.218 360.241 145.471C356.4 170.209 317.731 152.197 317.731 152.197L204.852 170.219C204.852 170.219 193.083 141.387 193.804 112.075C194.525 95.7171 200.764 76.4955 210.613 67.1216Z" fill="#CF9978"/>
<path fill-rule="evenodd" clip-rule="evenodd" d="M201.969 160.588C209.892 152.898 224.303 158.904 243.532 155.061C259.626 151.94 276.199 138.966 276.199 138.966C276.199 138.966 287.248 141.366 294.692 139.203C305.499 136.082 314.627 128.15 319.909 120.945C325.67 113.013 327.353 105.807 332.636 107.007C342.727 109.171 348.73 122.387 350.408 134.877C350.65 137.761 352.812 144.729 354.012 144.972C370.322 146.651 371.547 163.709 364.818 177.409C360.015 187.257 352.812 188.941 352.812 188.941C352.812 188.941 351.371 210.805 347.551 225.463C343.468 240.116 336.981 248.285 336.981 248.285L338.181 272.796C338.181 272.796 334.819 285.049 328.574 296.102C322.329 307.155 315.126 309.555 313.206 317.002C312.001 321.329 310.081 340.308 306.719 350.403C303.115 361.935 289.668 380.194 289.668 380.194C289.668 380.194 282.223 370.825 274.536 347.998C272.616 341.993 270.933 322.771 268.749 317.245C267.071 312.676 258.663 305.713 252.66 297.302C247.136 289.854 241.37 275.196 241.37 275.196L240.17 251.89C240.17 251.89 234.646 246.627 228.401 234.111C222.156 221.595 216.137 202.394 216.137 202.394C211.885 200.216 208.062 197.287 204.852 193.747C199.328 187.736 191.157 171.162 201.969 160.588Z" fill="#FDE7D5"/>
<path fill-rule="evenodd" clip-rule="evenodd" d="M103.738 209.605C107.578 201.915 125.593 192.762 130.875 190.62C139.761 187.02 146.49 195.668 146.49 195.668L154.655 195.189L165.941 189.662C165.941 189.662 174.106 176.446 178.673 175.004C186.354 172.604 204.368 161.551 208.214 161.788C214.217 162.03 210.845 169.478 207.251 173.804C203.411 178.609 198.607 180.531 192.362 187.02C186.117 193.262 182.035 203.336 182.035 203.336L176.773 224.237C180.161 223.037 183.388 221.423 186.38 219.432C192.167 215.589 198.391 210.063 205.594 208.621C211.602 207.421 220.725 209.821 219.047 215.589C217.127 222.316 189.027 238.895 182.782 248.264C176.773 257.154 170.534 270.128 164.525 276.617C156.602 285.265 149.157 287.191 144.112 296.318C140.992 301.844 133.784 327.071 133.784 327.071C133.784 327.071 117.212 330.198 106.426 324.44C95.8564 318.65 91.053 304.018 91.053 304.018C91.053 304.018 97.761 281.202 99.655 258.138C101.575 239.637 97.4927 221.616 103.738 209.605Z" fill="#FDE7D5"/>
<path fill-rule="evenodd" clip-rule="evenodd" d="M429.652 117.608C432.535 113.524 437.817 114.003 439.501 124.092C441.658 136.829 439.738 160.614 439.738 160.614L448.866 165.178L459.672 184.162C459.672 184.162 465.196 185.841 468.558 188.005C471.92 190.168 472.883 192.81 472.883 192.81C472.883 192.81 493.06 200.979 491.855 210.352C489.934 225.969 469.758 254.564 469.521 267.775C469.279 280.028 472.152 300.934 472.152 300.934C472.152 300.934 466.149 309.824 455.579 313.666C445.009 317.508 429.883 316.297 429.883 316.297C429.883 316.297 428.2 288.928 424.596 275.212C420.034 257.912 412.827 252.869 411.39 245.18C409.465 234.606 407.786 223.316 407.544 215.384C407.544 206.494 415.962 198.326 415.962 198.326C415.962 198.326 421.75 166.13 422.444 160.125C424.37 144.251 426.059 122.871 429.652 117.608Z" fill="#FDE7D5"/>
<path opacity="0.4275" fill-rule="evenodd" clip-rule="evenodd" d="M213.975 163.951C235.593 152.419 314.611 140.887 350.392 149.777C359.278 151.94 360.241 158.198 361.204 166.356C362.403 177.167 361.204 191.093 357.842 197.109C351.834 207.92 319.651 212.247 307.861 207.199C301.616 204.567 297.533 196.867 292.972 193.262C290.088 190.862 286.006 191.341 284.806 191.341C277.598 191.583 271.595 205.278 265.834 211.762C260.073 218.247 251.913 218.252 251.913 218.252C251.913 218.252 224.056 220.415 213.965 212.005C203.874 203.594 205.32 176.925 205.32 176.925C205.32 176.925 211.334 165.393 213.975 163.951Z" fill="#A4D6FF"/>
<path fill-rule="evenodd" clip-rule="evenodd" d="M244.479 345.598C244.479 345.598 251.203 318.687 264.651 316.523C266.092 316.281 268.496 317.002 269.696 321.087C272.1 328.534 273.058 342.95 276.904 355.209C280.024 365.777 286.989 379.472 289.873 379.236C292.03 379.236 293.713 373.972 296.118 370.583C299.716 365.535 303.799 360.251 306.682 350.882C310.044 340.071 310.286 324.45 313.169 317.481C314.847 313.881 318.956 315.081 320.85 315.323C327.816 316.281 336.224 340.308 336.224 340.308C336.224 340.308 333.593 352.082 330.221 361.693C327.096 371.062 323.255 378.272 322.534 386.431C320.135 417.184 320.85 465.959 320.85 465.959L318.693 525.308H255.286C255.286 525.308 254.565 490.949 254.807 456.827C255.044 430.158 256.485 403.731 254.323 392.199C250.482 368.667 244.479 345.598 244.479 345.598Z" fill="#A8C6DB"/>
<path fill-rule="evenodd" clip-rule="evenodd" d="M91.0058 305.949C91.0058 305.949 96.53 319.407 107.315 324.692C118.101 329.976 133.974 327.323 133.974 327.323L125.556 380.904C125.556 380.904 112.587 380.904 101.06 370.572C89.2906 360.24 78.9629 339.34 78.9629 339.34L91.0058 305.949Z" fill="#A8C6DB"/>
<path fill-rule="evenodd" clip-rule="evenodd" d="M430.615 317.003C430.615 317.003 445.262 317.245 455.831 313.397C462.383 310.912 468.234 306.873 472.883 301.628L481.769 338.629C481.769 338.629 473.125 360.014 461.114 371.062C449.102 382.109 433.976 383.078 433.976 383.078L430.615 317.003Z" fill="#A8C6DB"/>
<path d="M433.95 384.157C433.498 384.156 433.062 383.985 432.73 383.677C432.398 383.37 432.193 382.95 432.156 382.499C432.156 382.204 429.741 352.414 428.789 329.813C427.773 305.297 424.969 282.17 421.655 270.901C421.065 268.796 418.498 264.017 416.204 259.811C413.91 255.606 411.837 251.764 411.111 249.574C408.307 241.363 406.471 230.447 405.498 216.215C404.972 206.668 410.059 201.478 415.452 195.999C417.93 193.473 420.503 190.862 422.607 187.699L423.28 186.746C425.28 183.878 428.305 179.541 431.883 179.378C432.935 179.325 434.439 179.63 435.818 181.288C440.895 187.767 437.612 194.557 434.718 200.547C433.066 203.957 431.514 207.173 431.43 210.12C431.43 210.773 432.424 211.963 433.224 212.921C433.942 213.712 434.566 214.582 435.087 215.515C437.159 219.894 438.506 224.637 439.338 230.484C439.372 230.718 439.36 230.957 439.303 231.186C439.245 231.415 439.143 231.631 439.002 231.821C438.861 232.011 438.684 232.171 438.481 232.293C438.278 232.414 438.054 232.494 437.82 232.529C437.586 232.563 437.347 232.552 437.118 232.494C436.889 232.436 436.673 232.334 436.483 232.193C436.294 232.052 436.133 231.875 436.012 231.672C435.891 231.469 435.81 231.244 435.776 231.011C434.992 225.537 433.745 221.121 431.846 217.115C431.446 216.45 430.98 215.826 430.457 215.252C429.226 213.773 427.826 212.094 427.826 210.094C427.926 206.32 429.725 202.599 431.467 198.999C434.261 193.209 436.67 188.246 433.014 183.572C432.519 182.983 432.167 183.009 432.03 182.999C430.236 183.078 427.426 187.099 426.243 188.82L425.569 189.773C423.312 193.157 420.624 195.894 418.025 198.536C413 203.652 408.654 208.068 409.081 216C410.033 229.895 411.806 240.511 414.515 248.432C415.147 250.332 417.288 254.28 419.361 258.101C421.991 262.901 424.422 267.433 425.111 269.922C428.542 281.596 431.335 304.507 432.377 329.676C433.329 352.203 435.713 381.925 435.739 382.22C435.758 382.456 435.731 382.694 435.658 382.919C435.586 383.145 435.47 383.354 435.316 383.534C435.163 383.714 434.975 383.863 434.764 383.971C434.553 384.078 434.323 384.143 434.087 384.162L433.95 384.157Z" fill="#331C19"/>
<path d="M415.962 199.388C415.896 199.393 415.829 199.393 415.762 199.388C415.29 199.333 414.858 199.092 414.562 198.72C414.267 198.347 414.13 197.872 414.184 197.399C414.826 191.609 416.409 184.383 417.688 178.572C418.351 175.556 418.919 172.951 419.24 171.103C420.534 163.482 421.139 157.645 421.776 151.466C422.202 147.35 422.644 143.092 423.312 138.018L423.48 136.66C424.854 125.039 426.858 114.149 432.219 113.176C433.126 112.995 434.063 113.026 434.956 113.266C435.849 113.506 436.675 113.949 437.37 114.56C440.89 117.612 442.41 125.302 442.031 138.066C441.795 145.608 441.553 153.398 441.069 161.193C441.056 161.429 440.996 161.661 440.893 161.875C440.79 162.088 440.645 162.279 440.467 162.436C440.289 162.592 440.082 162.712 439.857 162.788C439.633 162.864 439.395 162.894 439.159 162.877C438.682 162.847 438.236 162.629 437.919 162.271C437.603 161.913 437.441 161.444 437.47 160.966C437.954 153.229 438.196 145.466 438.427 137.955C438.88 122.939 436.481 118.56 435.013 117.286C434.724 117.025 434.377 116.837 434.001 116.739C433.624 116.641 433.23 116.636 432.851 116.723C432.051 116.87 429.22 118.776 427.063 137.087L426.895 138.492C426.232 143.513 425.795 147.745 425.369 151.834C424.727 158.077 424.117 163.94 422.802 171.714C422.465 173.646 421.886 176.288 421.223 179.346C419.966 185.072 418.398 192.199 417.777 197.799C417.725 198.242 417.511 198.649 417.175 198.943C416.84 199.237 416.408 199.395 415.962 199.388Z" fill="#331C19"/>
<path d="M481.048 340.671C480.651 340.672 480.265 340.541 479.95 340.299C479.635 340.057 479.409 339.718 479.307 339.334C475.014 323.234 463.828 274.438 468.553 261.827C471.136 255.116 475.724 244.732 479.417 236.389C480.953 232.916 482.363 229.721 483.479 227.147C484.157 225.61 484.852 224.136 485.52 222.71C488.43 216.478 490.95 211.094 489.482 207.668C487.556 203.178 477.602 196.02 475.919 195.451C471.241 193.651 468.106 199.215 465.017 205.567C464.623 206.383 464.254 207.146 463.907 207.794C463.381 208.736 462.75 209.762 462.055 210.841C460.477 213.262 458.73 216.015 458.588 218.131C458.557 218.496 458.605 218.863 458.727 219.208C458.85 219.553 459.044 219.868 459.298 220.131C459.623 220.48 460.016 220.76 460.451 220.953C460.887 221.147 461.358 221.25 461.834 221.257C466.227 221.484 472.446 213.283 475.392 208.004C475.625 207.586 476.014 207.276 476.474 207.145C476.934 207.013 477.428 207.069 477.847 207.302C478.265 207.534 478.574 207.923 478.706 208.384C478.838 208.844 478.781 209.338 478.549 209.757C477.66 211.336 469.605 225.447 461.713 224.852C460.761 224.831 459.823 224.618 458.954 224.226C458.085 223.835 457.304 223.273 456.657 222.573C456.07 221.946 455.62 221.203 455.336 220.392C455.053 219.581 454.942 218.719 455.011 217.863C455.211 214.847 457.247 211.683 459.041 208.889C459.677 207.899 460.287 206.957 460.745 206.104C461.066 205.494 461.413 204.773 461.797 203.999C464.533 198.373 469.105 188.962 477.155 192.067C479.675 192.909 490.45 200.741 492.812 206.278C494.917 211.183 492.081 217.241 488.803 224.263C488.14 225.668 487.467 227.121 486.799 228.621C485.694 231.184 484.273 234.41 482.732 237.874C479.049 246.179 474.487 256.521 471.941 263.137C467.921 273.875 477.728 319.344 482.811 338.434C482.872 338.663 482.887 338.902 482.856 339.136C482.825 339.371 482.748 339.597 482.629 339.802C482.51 340.007 482.352 340.187 482.164 340.33C481.976 340.474 481.761 340.579 481.532 340.639C481.373 340.672 481.21 340.683 481.048 340.671Z" fill="#331C19"/>
<path d="M446.467 251.295H446.309C445.833 251.252 445.394 251.023 445.087 250.657C444.781 250.291 444.632 249.818 444.672 249.342C445.409 240.716 450.896 228.384 456.905 221.847C457.056 221.644 457.249 221.475 457.47 221.352C457.691 221.228 457.935 221.152 458.187 221.129C458.439 221.107 458.693 221.137 458.933 221.219C459.173 221.301 459.392 221.432 459.578 221.604C459.763 221.776 459.911 221.986 460.01 222.219C460.109 222.452 460.159 222.703 460.155 222.956C460.151 223.209 460.093 223.459 459.987 223.688C459.88 223.918 459.726 224.123 459.535 224.289C454.079 230.221 448.908 241.837 448.239 249.653C448.199 250.097 447.996 250.511 447.668 250.814C447.341 251.118 446.913 251.289 446.467 251.295Z" fill="#331C19"/>
<path d="M449.066 224.453C447.861 224.476 446.681 224.116 445.693 223.426C442.757 221.321 442.184 216.531 443.994 209.152C444.673 206.378 445.125 203.526 445.572 200.768C447.087 191.183 448.645 181.294 460.635 182.804C461.992 183.009 463.317 183.391 464.575 183.941C473.272 188.152 474.345 191.099 474.209 192.462C474.167 192.909 473.96 193.323 473.629 193.625C473.297 193.927 472.865 194.094 472.417 194.094C471.969 194.094 471.537 193.927 471.206 193.625C470.875 193.323 470.668 192.909 470.626 192.462C470.478 192.152 469.337 190.262 462.981 187.167C462.043 186.779 461.061 186.507 460.056 186.357C452.022 185.304 450.791 190.789 449.129 201.326C448.687 204.157 448.224 207.084 447.508 210.005C445.52 218.121 447.229 220.079 447.798 220.484C449.018 221.352 451.754 220.574 455.105 218.379C455.506 218.142 455.983 218.07 456.436 218.176C456.889 218.283 457.283 218.56 457.536 218.951C457.79 219.342 457.882 219.815 457.795 220.272C457.708 220.73 457.447 221.135 457.068 221.405C453.943 223.463 451.27 224.453 449.066 224.453Z" fill="#331C19"/>
<path d="M458.951 185.457C458.578 185.456 458.213 185.34 457.908 185.123C457.604 184.906 457.374 184.599 457.252 184.246C455.216 178.399 448.392 163.561 440.879 163.561C440.711 163.561 440.542 163.561 440.353 163.561C437.512 163.74 435.618 167.051 434.992 170.051C434.55 172.504 434.55 176.741 434.55 181.23C434.525 181.691 434.324 182.126 433.989 182.443C433.654 182.761 433.21 182.938 432.748 182.938C432.286 182.938 431.842 182.761 431.507 182.443C431.172 182.126 430.971 181.691 430.946 181.23C430.946 176.572 430.946 172.177 431.472 169.372C432.367 164.888 435.376 160.266 440.095 159.972C451.933 158.919 459.788 180.572 460.64 183.041C460.735 183.312 460.764 183.602 460.724 183.887C460.683 184.172 460.576 184.443 460.409 184.677C460.243 184.912 460.023 185.103 459.767 185.235C459.512 185.367 459.228 185.436 458.941 185.436L458.951 185.457Z" fill="#331C19"/>
<path d="M438.48 209.836C436.376 209.836 434.439 208.421 433.098 205.878C432.272 204.215 431.993 202.252 431.751 200.52L431.709 200.247C431.639 199.774 431.76 199.292 432.045 198.908C432.331 198.524 432.756 198.269 433.229 198.199C433.702 198.13 434.184 198.251 434.568 198.536C434.952 198.821 435.206 199.247 435.276 199.72L435.318 199.999C435.523 201.463 435.76 203.115 436.307 204.21C436.833 205.215 437.68 206.289 438.612 206.205C439.138 206.142 442.01 205.3 444.967 194.452C445.667 192.068 446.209 188.504 446.787 184.731C447.172 182.188 447.577 179.541 448.055 177.046C448.164 176.595 448.442 176.203 448.832 175.951C449.222 175.7 449.694 175.608 450.15 175.695C450.605 175.783 451.01 176.042 451.279 176.42C451.549 176.798 451.662 177.266 451.596 177.725C451.123 180.178 450.728 182.778 450.344 185.278C449.734 189.189 449.208 192.873 448.434 195.452C445.951 204.552 442.779 209.394 439.001 209.805C438.828 209.826 438.654 209.837 438.48 209.836Z" fill="#331C19"/>
<path d="M78.7577 340.671C78.5437 340.67 78.3316 340.631 78.1315 340.555C77.6852 340.387 77.3238 340.049 77.1265 339.615C76.9292 339.181 76.9122 338.686 77.0793 338.239C85.9707 314.202 93.5836 292.533 96.6825 270.869C98.8501 255.29 98.7291 244.7 98.6291 235.358C98.6028 233.384 98.5818 231.463 98.5818 229.568V227.884C98.5502 219.989 98.5186 211.836 104.59 205.252C110.993 198.341 125.409 190.377 133.085 188.409C139.866 186.635 146.485 191.909 149.015 196.209C154.592 206.02 152.393 216.141 142.307 227.173C142.023 227.494 141.697 227.878 141.345 228.299C138.909 231.2 135.226 235.568 130.738 233.889C130.083 233.659 129.488 233.283 128.999 232.79C128.509 232.297 128.138 231.699 127.913 231.042C126.529 227.668 127.387 222.094 130.017 217.173C132.927 211.762 132.516 210.331 130.98 205.099L130.833 204.573C130.766 204.345 130.745 204.108 130.771 203.872C130.797 203.637 130.868 203.409 130.982 203.202C131.095 202.994 131.249 202.811 131.433 202.663C131.617 202.515 131.829 202.405 132.056 202.338C132.283 202.272 132.521 202.251 132.756 202.277C132.991 202.302 133.219 202.374 133.426 202.487C133.633 202.601 133.816 202.754 133.965 202.939C134.113 203.123 134.223 203.335 134.289 203.562L134.442 204.062C136.062 209.61 136.799 212.141 133.19 218.857C130.838 223.226 130.428 227.678 131.233 229.647C131.364 229.963 131.58 230.357 131.89 230.452C134.1 231.279 136.794 228.073 138.577 225.952C138.956 225.499 139.309 225.084 139.629 224.726C148.531 214.983 150.578 206.241 145.89 197.988C143.928 194.651 138.688 190.651 133.979 191.872C126.955 193.683 112.934 201.499 107.226 207.694C102.117 213.21 102.144 220.326 102.175 227.836V229.536C102.175 231.431 102.175 233.336 102.217 235.294C102.322 244.768 102.443 255.5 100.239 271.348C97.0823 293.385 89.4115 315.244 80.4465 339.481C80.3205 339.829 80.091 340.129 79.789 340.342C79.487 340.555 79.127 340.669 78.7577 340.671Z" fill="#331C19"/>
<path d="M129.202 215.763C126.181 215.805 123.192 215.153 120.463 213.857C120.06 213.63 119.759 213.256 119.624 212.814C119.488 212.371 119.528 211.893 119.735 211.478C119.941 211.064 120.299 210.745 120.734 210.587C121.17 210.43 121.649 210.445 122.073 210.631C126.713 212.957 132.153 211.931 132.211 211.921C132.679 211.828 133.165 211.925 133.562 212.19C133.958 212.456 134.233 212.868 134.326 213.336C134.419 213.805 134.322 214.291 134.056 214.688C133.791 215.084 133.379 215.359 132.911 215.452C131.687 215.67 130.445 215.774 129.202 215.763Z" fill="#331C19"/>
<path d="M131.838 255.611C131.379 255.611 130.938 255.436 130.604 255.122C130.27 254.809 130.068 254.379 130.038 253.922C129.086 238.453 124.53 230.795 118.758 221.095C118.542 220.685 118.491 220.208 118.617 219.762C118.742 219.316 119.034 218.936 119.432 218.699C119.83 218.463 120.304 218.388 120.755 218.491C121.206 218.594 121.601 218.867 121.857 219.252C127.644 228.969 132.632 237.363 133.637 253.701C133.652 253.937 133.62 254.174 133.543 254.398C133.466 254.623 133.346 254.829 133.189 255.007C133.032 255.184 132.842 255.329 132.629 255.433C132.416 255.537 132.184 255.597 131.948 255.611H131.838Z" fill="#331C19"/>
<path d="M142.308 246.274C141.522 246.305 140.739 246.16 140.017 245.848C139.295 245.537 138.652 245.067 138.135 244.474C135.789 241.727 135.826 236.248 138.256 226.7C138.305 226.46 138.402 226.233 138.541 226.032C138.68 225.831 138.858 225.66 139.065 225.53C139.272 225.4 139.504 225.313 139.745 225.275C139.987 225.237 140.233 225.249 140.47 225.309C140.707 225.37 140.929 225.477 141.123 225.626C141.317 225.775 141.479 225.962 141.599 226.175C141.718 226.388 141.793 226.624 141.819 226.867C141.845 227.11 141.822 227.356 141.75 227.59C139.088 238.022 140.061 241.174 140.871 242.127C141.129 242.427 141.597 242.758 142.713 242.653C146.516 242.29 157.581 227.642 161.653 218.71C161.884 218.184 162.179 217.616 162.479 216.953C164.42 212.884 168.445 204.415 166.635 200.668C166.356 200.084 165.783 199.263 164.089 198.873C154.471 196.631 149.652 197.878 149.605 197.889C149.145 198.019 148.653 197.96 148.236 197.727C147.819 197.494 147.512 197.104 147.382 196.644C147.252 196.184 147.31 195.691 147.544 195.274C147.777 194.857 148.167 194.55 148.626 194.42C148.858 194.357 154.245 192.878 164.904 195.357C165.965 195.557 166.966 195.998 167.83 196.647C168.693 197.296 169.395 198.135 169.881 199.099C172.444 204.4 168.245 213.226 165.736 218.5C165.43 219.142 165.157 219.716 164.936 220.205C161.437 227.858 149.547 245.622 143.049 246.243C142.797 246.259 142.55 246.274 142.308 246.274Z" fill="#331C19"/>
<path d="M154.655 240.242C153.901 240.262 153.151 240.118 152.456 239.821C152.048 239.606 151.737 239.241 151.589 238.804C151.441 238.366 151.467 237.888 151.66 237.469C151.854 237.049 152.201 236.72 152.63 236.548C153.059 236.377 153.537 236.377 153.966 236.548C155.813 237.416 163.284 233.869 166.256 231.49C176.153 223.521 180.193 215.052 179.751 203.173C179.483 197.873 179.03 192.941 176.595 191.11C175.158 190.057 172.912 189.904 169.755 190.678C164.078 192.041 155.671 196.926 155.587 196.994C155.175 197.208 154.698 197.255 154.253 197.126C153.807 196.997 153.429 196.702 153.196 196.301C152.962 195.9 152.892 195.425 152.999 194.974C153.106 194.523 153.383 194.131 153.772 193.878C154.135 193.668 162.716 188.683 168.913 187.199C173.18 186.146 176.405 186.494 178.757 188.252C182.471 191.02 183.045 196.589 183.376 203.047C183.86 216.042 179.283 225.679 168.54 234.332C167.409 235.195 159.732 240.242 154.655 240.242Z" fill="#331C19"/>
<path d="M182.513 204.452C182.15 204.453 181.796 204.343 181.498 204.136C181.104 203.866 180.832 203.451 180.743 202.981C180.655 202.512 180.756 202.026 181.024 201.631C181.998 200.112 182.888 198.541 183.692 196.925C186.122 192.288 189.148 186.515 194.43 182.715C209.729 171.63 209.908 167.051 209.598 165.909C209.298 164.93 208.893 164.293 208.419 164.077C207.309 163.551 204.889 164.646 202.548 165.688L200.969 166.372C198.799 167.347 196.682 168.435 194.625 169.63C191.552 171.425 188.354 172.994 185.054 174.325C179.599 176.43 173.959 178.593 167.245 190.583C167.13 190.791 166.975 190.973 166.789 191.121C166.603 191.268 166.39 191.377 166.162 191.442C165.934 191.507 165.695 191.527 165.459 191.499C165.224 191.472 164.996 191.399 164.788 191.283C164.581 191.168 164.399 191.013 164.251 190.827C164.104 190.641 163.995 190.427 163.93 190.199C163.865 189.971 163.845 189.732 163.873 189.496C163.9 189.261 163.973 189.033 164.089 188.825C170.891 176.667 176.768 173.646 183.744 170.962C186.887 169.687 189.934 168.189 192.862 166.477C195.028 165.224 197.256 164.082 199.538 163.056L201.038 162.398C204.247 160.967 207.278 159.614 209.871 160.819C211.329 161.488 212.386 162.867 213.028 164.93C214.375 169.872 208.966 176.635 196.508 185.657C191.915 188.983 189.227 194.12 186.854 198.647C185.985 200.387 185.023 202.079 183.971 203.715C183.803 203.944 183.583 204.13 183.33 204.258C183.077 204.386 182.797 204.452 182.513 204.452Z" fill="#331C19"/>
<path d="M125.835 381.999H125.629C125.157 381.943 124.725 381.703 124.43 381.33C124.134 380.957 123.998 380.482 124.051 380.009C124.14 379.193 133.711 298.086 145.438 289.607C150.131 286.307 161.558 277.906 166.661 271.017C169.402 267.438 171.507 263.495 173.732 259.322C175.837 255.343 178.041 251.227 180.835 247.469C186.233 240.421 193.409 234.258 200.359 228.637C201.811 227.468 203.7 226.168 205.704 224.794C210.482 221.51 217.027 217.015 217.547 213.742C217.597 213.457 217.584 213.164 217.509 212.885C217.433 212.606 217.298 212.347 217.111 212.126C215.006 209.199 210.045 208.826 203.516 211.073C199.507 212.51 195.356 215.342 191.347 218.073C186.312 221.5 181.114 225.047 175.889 226.037C175.652 226.095 175.404 226.104 175.163 226.064C174.921 226.023 174.69 225.934 174.484 225.802C174.278 225.669 174.101 225.496 173.964 225.293C173.827 225.09 173.733 224.861 173.687 224.62C173.642 224.38 173.645 224.132 173.698 223.893C173.751 223.654 173.852 223.428 173.995 223.229C174.138 223.03 174.32 222.862 174.53 222.736C174.74 222.61 174.973 222.528 175.216 222.494C179.704 221.647 184.37 218.463 189.316 215.094C193.525 212.236 197.86 209.273 202.322 207.673C213.475 203.857 218.184 207.489 219.999 209.989C220.474 210.596 220.818 211.296 221.008 212.044C221.198 212.791 221.231 213.57 221.104 214.331C220.336 219.105 213.644 223.7 207.741 227.752C205.799 229.089 203.963 230.347 202.627 231.437C195.845 236.916 188.858 242.911 183.686 249.632C181.056 253.153 178.951 257.148 176.884 261.011C174.685 265.127 172.417 269.385 169.518 273.18C164.12 280.47 152.325 289.149 147.511 292.538C140.471 297.623 131.269 347.729 127.608 380.409C127.555 380.844 127.346 381.245 127.02 381.538C126.694 381.83 126.273 381.994 125.835 381.999Z" fill="#331C19"/>
<path d="M61.2274 527.118H-2.90109C-3.36216 527.093 -3.79619 526.892 -4.11376 526.557C-4.43132 526.222 -4.60828 525.777 -4.60828 525.315C-4.60828 524.853 -4.43132 524.409 -4.11376 524.074C-3.79619 523.738 -3.36216 523.538 -2.90109 523.513H61.2274C61.6884 523.538 62.1224 523.738 62.44 524.074C62.7575 524.409 62.9345 524.853 62.9345 525.315C62.9345 525.777 62.7575 526.222 62.44 526.557C62.1224 526.892 61.6884 527.093 61.2274 527.118Z" fill="#331C19"/>
<path d="M460.635 527.118H111.182C110.721 527.093 110.287 526.892 109.97 526.557C109.652 526.222 109.475 525.777 109.475 525.315C109.475 524.854 109.652 524.409 109.97 524.074C110.287 523.739 110.721 523.538 111.182 523.513H460.393C460.884 523.509 461.357 523.695 461.714 524.031C462.072 524.367 462.286 524.828 462.313 525.318C462.327 525.548 462.294 525.778 462.216 525.995C462.138 526.211 462.016 526.41 461.859 526.578C461.703 526.746 461.513 526.881 461.303 526.974C461.092 527.067 460.865 527.116 460.635 527.118Z" fill="#331C19"/>
<path d="M691.221 527.118H500.241C499.78 527.093 499.346 526.892 499.028 526.557C498.711 526.222 498.534 525.777 498.534 525.315C498.534 524.853 498.711 524.409 499.028 524.074C499.346 523.738 499.78 523.538 500.241 523.513H691.221C691.683 523.538 692.117 523.738 692.434 524.074C692.752 524.409 692.929 524.853 692.929 525.315C692.929 525.777 692.752 526.222 692.434 526.557C692.117 526.892 691.683 527.093 691.221 527.118Z" fill="#331C19"/>
<path d="M584.878 573.446C582.052 573.446 579.259 573.383 576.549 573.246C559.329 572.293 539.589 568.509 534.291 562.293C533.76 561.728 533.354 561.057 533.099 560.324C532.844 559.592 532.747 558.813 532.813 558.04C532.828 557.911 532.856 557.784 532.897 557.661L569.604 448.711C569.773 447.706 570.83 441.237 571.483 433.858C571.951 425.863 572.193 416.047 572.193 415.963V385.72C572.218 385.259 572.418 384.825 572.754 384.507C573.089 384.189 573.533 384.012 573.995 384.012C574.457 384.012 574.901 384.189 575.236 384.507C575.571 384.825 575.772 385.259 575.797 385.72V415.995C575.797 416.137 575.55 425.995 575.076 434.121C574.35 442.322 573.14 449.385 573.129 449.459C573.112 449.549 573.089 449.639 573.061 449.727L536.391 558.588C536.435 559.107 536.662 559.594 537.032 559.961C540.899 564.509 557.598 568.588 576.738 569.651C597.394 570.672 623.431 567.583 629.492 560.84C629.886 560.467 630.19 560.009 630.38 559.501C630.571 558.994 630.643 558.449 630.592 557.909L596.773 449.448C596.747 449.353 596.726 449.259 596.71 449.169C596.694 449.08 595.731 442.295 595.016 434.169C594.532 425.995 594.532 416.568 594.532 416.473V385.946C594.532 385.469 594.721 385.011 595.059 384.674C595.396 384.336 595.854 384.146 596.331 384.146C596.808 384.146 597.266 384.336 597.604 384.674C597.941 385.011 598.131 385.469 598.131 385.946V416.473C598.131 416.568 598.13 425.89 598.609 433.911C599.256 441.248 600.114 447.506 600.256 448.516L634.075 556.977C634.101 557.062 634.123 557.148 634.138 557.235C634.292 558.322 634.194 559.431 633.853 560.474C633.512 561.518 632.937 562.47 632.17 563.256C625.946 570.177 604.612 573.446 584.878 573.446Z" fill="#331C19"/>
<path d="M585.525 390.647C584.183 390.647 572.435 390.515 572.435 385.962C572.435 381.409 584.183 381.272 585.525 381.272C589.46 381.272 598.614 381.73 598.614 385.962C598.614 390.194 589.46 390.647 585.525 390.647ZM577.159 385.962C579.878 386.739 582.698 387.102 585.525 387.041C589.765 387.041 592.706 386.478 594.174 385.962C592.706 385.436 589.765 384.878 585.525 384.878C582.697 384.815 579.877 385.181 577.159 385.962Z" fill="#331C19"/>
<path d="M197.944 613.141C176.373 613.141 159.411 606.862 159.101 598.667V489.038C159.088 488.793 159.125 488.548 159.209 488.318C159.294 488.088 159.424 487.877 159.593 487.699C159.762 487.521 159.965 487.379 160.19 487.282C160.415 487.185 160.658 487.135 160.903 487.135C161.148 487.135 161.391 487.185 161.616 487.282C161.841 487.379 162.044 487.521 162.213 487.699C162.382 487.877 162.512 488.088 162.597 488.318C162.681 488.548 162.718 488.793 162.705 489.038V598.599C162.879 603.178 175.858 609.831 199.075 609.531C225.055 609.273 237.156 602.857 237.156 598.599V489.038C237.143 488.793 237.179 488.548 237.264 488.318C237.349 488.088 237.479 487.877 237.648 487.699C237.816 487.521 238.02 487.379 238.245 487.282C238.47 487.185 238.713 487.135 238.958 487.135C239.203 487.135 239.446 487.185 239.671 487.282C239.896 487.379 240.099 487.521 240.268 487.699C240.436 487.877 240.567 488.088 240.652 488.318C240.736 488.548 240.773 488.793 240.76 489.038V598.599C240.76 607.046 224.024 612.889 199.112 613.136L197.944 613.141Z" fill="#331C19"/>
<path d="M199.828 545.14C186.328 545.14 163.683 544.282 163.683 538.529C163.683 532.776 186.307 531.924 199.828 531.924C209.072 531.924 217.789 532.45 224.361 533.35C233.999 534.703 235.972 536.403 235.972 538.529C235.951 544.282 213.307 545.14 199.828 545.14ZM168.261 538.529C171.717 539.819 182.224 541.535 199.828 541.535C217.432 541.535 227.965 539.819 231.395 538.529C227.944 537.245 217.432 535.529 199.828 535.529C182.224 535.529 171.67 537.245 168.213 538.529H168.261Z" fill="#331C19"/>
<path d="M197.834 605.215C178.131 605.215 163.741 599.804 163.42 592.183V538.771C163.445 538.31 163.646 537.875 163.981 537.558C164.316 537.24 164.761 537.063 165.222 537.063C165.684 537.063 166.128 537.24 166.463 537.558C166.799 537.875 166.999 538.31 167.024 538.771V592.109C167.193 596.094 178.704 601.825 199.065 601.583C220.941 601.346 232.589 595.92 232.589 592.109V539.013C232.576 538.768 232.613 538.523 232.697 538.293C232.782 538.062 232.912 537.852 233.081 537.674C233.25 537.496 233.453 537.354 233.678 537.257C233.903 537.16 234.146 537.11 234.391 537.11C234.636 537.11 234.879 537.16 235.104 537.257C235.329 537.354 235.532 537.496 235.701 537.674C235.87 537.852 236 538.062 236.085 538.293C236.169 538.523 236.206 538.768 236.193 539.013V592.109C236.193 599.578 220.936 604.962 199.107 605.204L197.834 605.215Z" fill="#331C19"/>
<path d="M199.828 495.644C189.305 495.644 179.462 495.117 172.044 494.217C161.279 492.886 159.117 491.249 159.117 489.038C159.117 486.828 161.279 485.191 172.044 483.854C179.457 482.938 189.327 482.428 199.828 482.428C210.24 482.428 220.073 482.954 227.517 483.854C238.361 485.191 240.539 486.828 240.539 489.038C240.539 491.249 238.377 492.886 227.607 494.217C220.173 495.139 210.308 495.644 199.828 495.644ZM163.899 489.038C168.203 490.459 181.093 492.038 199.828 492.038C218.563 492.038 231.432 490.459 235.746 489.038C231.395 487.617 218.51 486.038 199.828 486.038C181.145 486.038 168.182 487.617 163.878 489.038H163.899Z" fill="#331C19"/>
<path d="M289.641 629C268.565 629 252.597 623.058 252.287 615.005V559.435C252.312 558.974 252.512 558.54 252.848 558.222C253.183 557.904 253.627 557.727 254.089 557.727C254.551 557.727 254.995 557.904 255.33 558.222C255.665 558.54 255.866 558.974 255.891 559.435V614.936C256.064 619.321 268.633 625.647 290.814 625.389C315.653 625.131 327.222 619 327.222 614.936V558.956C327.209 558.711 327.245 558.466 327.33 558.236C327.415 558.006 327.545 557.795 327.714 557.617C327.882 557.439 328.086 557.297 328.311 557.2C328.536 557.103 328.779 557.053 329.024 557.053C329.269 557.053 329.512 557.103 329.737 557.2C329.962 557.297 330.165 557.439 330.334 557.617C330.502 557.795 330.633 558.006 330.718 558.236C330.802 558.466 330.839 558.711 330.826 558.956V614.936C330.826 623.095 314.763 628.747 290.841 628.995L289.641 629Z" fill="#331C19"/>
<path d="M291.072 588.631C276.341 588.42 258.769 587.141 258.769 582.262C258.769 580.509 260.037 578.699 269.244 577.293C276.477 576.304 283.772 575.836 291.072 575.893C319.178 575.893 323.376 579.883 323.376 582.262C323.376 584.009 322.108 585.825 312.901 587.225C305.668 588.217 298.373 588.687 291.072 588.631ZM263.488 582.252C266.934 583.42 276.399 584.815 291.115 585.025C306.188 585.025 315.647 583.399 318.873 582.204C315.542 580.92 305.556 579.499 291.088 579.499C276.257 579.499 266.866 581.062 263.488 582.252Z" fill="#331C19"/>
<path d="M289.415 621.795C272.19 621.795 259.106 616.895 258.769 610.215V582.736C258.794 582.274 258.994 581.84 259.33 581.523C259.665 581.205 260.109 581.028 260.571 581.028C261.033 581.028 261.477 581.205 261.812 581.523C262.147 581.84 262.348 582.274 262.373 582.736V610.105C262.515 612.984 272.295 618.405 290.567 618.158C309.507 617.916 320.03 613.242 320.03 610.105V582.957C320.03 582.479 320.219 582.022 320.557 581.684C320.894 581.346 321.352 581.157 321.829 581.157C322.306 581.157 322.764 581.346 323.101 581.684C323.439 582.022 323.628 582.479 323.628 582.957V610.105C323.628 616.826 310.37 621.51 290.63 621.758L289.415 621.795Z" fill="#331C19"/>
<path d="M291.551 565.561C281.492 565.561 272.006 565.035 264.845 564.135C254.418 562.798 252.281 561.098 252.281 558.956C252.281 556.814 254.418 555.108 264.845 553.772C272.006 552.856 281.497 552.345 291.551 552.345C303.357 552.345 330.82 552.987 330.82 558.956C330.82 561.098 328.684 562.798 318.262 564.135C311.096 565.056 301.61 565.561 291.551 565.561ZM256.985 558.956C261.099 560.377 273.521 561.956 291.551 561.956C309.581 561.956 322.008 560.377 326.117 558.956C322.003 557.53 309.586 555.951 291.551 555.951C273.516 555.951 261.099 557.53 256.985 558.956Z" fill="#331C19"/>
<path d="M584.804 508.86C562.128 508.86 558.745 505.018 558.745 502.733C558.745 500.449 562.128 496.602 584.804 496.602C607.479 496.602 610.862 500.444 610.862 502.733C610.862 505.023 607.474 508.86 584.804 508.86ZM563.023 502.733C565.469 503.786 572.772 505.254 584.804 505.254C596.836 505.254 604.139 503.812 606.585 502.733C604.139 501.681 596.836 500.207 584.804 500.207C572.772 500.207 565.48 501.654 563.023 502.733Z" fill="#331C19"/>
<path d="M584.804 565.562C548.349 565.562 542.509 557.898 541.967 557.025C541.829 556.804 541.74 556.557 541.706 556.299C541.673 556.041 541.695 555.778 541.773 555.53L558.608 501.95C558.667 501.712 558.773 501.489 558.921 501.293C559.069 501.098 559.255 500.935 559.468 500.814C559.681 500.694 559.916 500.618 560.159 500.591C560.402 500.564 560.648 500.587 560.882 500.659C561.116 500.731 561.333 500.849 561.52 501.008C561.706 501.166 561.859 501.361 561.968 501.58C562.076 501.8 562.139 502.039 562.152 502.283C562.165 502.528 562.128 502.772 562.044 503.002L545.555 555.551C547.539 557.082 556.078 561.93 584.825 561.93C610.694 561.93 619.953 557.088 622.4 555.404L607.569 503.223C607.467 502.773 607.541 502.3 607.777 501.903C608.013 501.505 608.392 501.213 608.836 501.087C609.28 500.961 609.756 501.01 610.165 501.225C610.575 501.439 610.886 501.802 611.036 502.239L626.167 555.577C626.248 555.867 626.255 556.171 626.189 556.464C626.123 556.757 625.985 557.03 625.788 557.256C625.041 558.109 617.565 565.562 584.804 565.562Z" fill="#331C19"/>
<path d="M138.561 262.822C138.248 262.822 137.941 262.739 137.669 262.584C137.397 262.428 137.17 262.205 137.011 261.935C136.852 261.665 136.766 261.359 136.761 261.045C136.756 260.732 136.832 260.423 136.983 260.148C143.049 249.138 149.215 240.716 159.606 235.411C159.816 235.303 160.046 235.238 160.282 235.219C160.517 235.2 160.754 235.227 160.979 235.3C161.204 235.372 161.413 235.489 161.593 235.642C161.773 235.795 161.921 235.982 162.029 236.193C162.137 236.403 162.202 236.633 162.221 236.868C162.24 237.104 162.212 237.341 162.14 237.566C162.067 237.791 161.951 238 161.798 238.18C161.645 238.36 161.458 238.508 161.248 238.616C152.956 242.874 147.042 249.406 140.15 261.912C139.991 262.192 139.76 262.424 139.48 262.584C139.201 262.744 138.883 262.827 138.561 262.822Z" fill="#331C19"/>
<path d="M434.05 384.757C431.667 384.754 429.289 384.544 426.942 384.13C424.001 383.604 422.802 381.909 422.318 380.588C420.05 374.456 428.689 363.403 430.415 361.298C430.564 361.115 430.748 360.962 430.956 360.85C431.164 360.737 431.392 360.667 431.627 360.643C431.863 360.619 432.1 360.641 432.327 360.709C432.553 360.777 432.764 360.888 432.948 361.038C433.131 361.187 433.284 361.371 433.396 361.579C433.508 361.787 433.578 362.015 433.603 362.251C433.627 362.486 433.605 362.724 433.537 362.951C433.469 363.177 433.358 363.388 433.208 363.572C427.947 369.998 424.743 376.788 425.695 379.362C425.858 379.809 426.221 380.356 427.574 380.604C438.243 382.467 448.092 379.762 456.852 372.572C473.335 359.082 483.5 336.197 481.248 325.518C480.559 322.244 478.844 320.255 475.987 319.481C475.759 319.418 475.546 319.31 475.359 319.165C475.173 319.019 475.017 318.838 474.9 318.632C474.784 318.426 474.709 318.199 474.68 317.964C474.651 317.729 474.669 317.491 474.732 317.263C474.795 317.035 474.903 316.821 475.049 316.635C475.194 316.448 475.375 316.292 475.581 316.176C475.787 316.059 476.014 315.984 476.249 315.955C476.483 315.926 476.722 315.944 476.95 316.007C481.095 317.155 483.789 320.186 484.757 324.776C487.54 337.987 475.319 362.098 459.114 375.362C451.501 381.604 443.089 384.757 434.05 384.757Z" fill="#331C19"/>
<path d="M481.411 537.092C480.291 537.092 479.172 537.006 478.065 536.834C462.282 534.403 449.25 516.423 442.889 501.77C437.717 489.623 434.818 473.143 432.893 462.232C432.461 459.759 432.072 457.558 431.72 455.743C428.237 437 425.406 410.636 422.875 387.372L422.092 380.146C422.04 379.674 422.177 379.2 422.472 378.829C422.768 378.457 423.198 378.217 423.67 378.162C423.904 378.132 424.142 378.15 424.369 378.214C424.597 378.278 424.809 378.387 424.994 378.534C425.178 378.681 425.332 378.863 425.445 379.071C425.558 379.278 425.629 379.506 425.653 379.741L426.437 386.972C428.947 410.168 431.788 436.447 435.245 455.053C435.597 456.874 435.992 459.095 436.428 461.596C438.317 472.338 441.163 488.575 446.177 500.328C453.943 518.223 466.975 531.466 478.597 533.255C485.473 534.308 491.813 531.566 497.442 525.081C515.688 504.028 520.402 473.285 511.453 433.674C504.05 400.657 493.144 365.014 485.184 338.987C483.637 333.929 482.216 329.297 480.975 325.192C480.905 324.966 480.882 324.728 480.904 324.492C480.927 324.257 480.996 324.028 481.107 323.819C481.218 323.61 481.37 323.425 481.552 323.274C481.735 323.124 481.945 323.011 482.172 322.942C482.398 322.873 482.635 322.849 482.871 322.872C483.106 322.894 483.335 322.963 483.544 323.075C483.753 323.186 483.938 323.337 484.088 323.52C484.239 323.702 484.352 323.913 484.421 324.139C485.657 328.234 487.051 332.866 488.63 337.919C496.606 363.998 507.538 399.72 514.967 432.868C524.185 473.654 519.176 505.47 500.162 527.429C494.675 533.808 488.24 537.092 481.411 537.092Z" fill="#331C19"/>
<path d="M128.349 383.73C119.184 383.73 110.219 380.309 102.112 373.656C85.8023 360.314 69.4084 332.676 74.2277 320.639C75.3799 317.76 78.2525 314.439 85.3866 314.965C85.6227 314.982 85.853 315.046 86.0644 315.153C86.2758 315.259 86.4641 315.406 86.6186 315.586C86.773 315.765 86.8905 315.973 86.9644 316.198C87.0383 316.423 87.0671 316.661 87.0492 316.897C87.005 317.37 86.7791 317.808 86.419 318.118C86.0589 318.428 85.5927 318.587 85.1183 318.56C79.1048 318.092 77.9526 321.018 77.5738 321.976C73.7857 331.45 88.0961 357.508 104.406 370.872C113.571 378.388 123.872 381.43 134.179 379.619C135.647 379.362 136.041 378.751 136.215 378.251C137.267 375.309 133.448 367.872 127.371 360.961C127.082 360.598 126.944 360.138 126.985 359.676C127.026 359.214 127.243 358.785 127.592 358.479C127.94 358.173 128.393 358.013 128.857 358.032C129.32 358.051 129.758 358.248 130.08 358.582C135.636 364.898 141.466 374.167 139.614 379.446C139.124 380.84 137.888 382.604 134.805 383.172C132.673 383.543 130.513 383.73 128.349 383.73Z" fill="#331C19"/>
<path d="M84.1084 537.255C83.777 537.255 83.4402 537.255 83.1035 537.255C74.9539 537.039 67.6304 534.013 63.0163 528.944C41.5402 505.67 51.5575 424.731 51.9679 421.299C56.8976 381.825 65.8153 349.082 73.8859 322.26C74.0255 321.802 74.3411 321.418 74.7634 321.193C75.1857 320.968 75.68 320.92 76.1377 321.06C76.5954 321.199 76.9789 321.515 77.2038 321.938C77.4288 322.36 77.4768 322.855 77.3373 323.313C69.3087 349.992 60.4436 382.556 55.5402 421.768C51.9153 450.284 49.3583 508.87 65.6469 526.507C69.6086 530.86 75.9957 533.46 83.1719 533.65C94.1204 534.023 105.306 528.992 114.692 519.718C133.169 501.238 146.222 461.558 149.778 449.837C149.926 449.389 150.244 449.017 150.662 448.801C151.081 448.584 151.567 448.54 152.018 448.677C152.469 448.815 152.848 449.123 153.074 449.536C153.301 449.95 153.357 450.436 153.23 450.89C149.605 462.816 136.304 503.202 117.233 522.281C107.442 531.965 95.7093 537.255 84.1084 537.255Z" fill="#331C19"/>
<path d="M128.954 489.154C128.752 489.154 128.551 489.12 128.36 489.054C128.137 488.976 127.931 488.855 127.755 488.698C127.578 488.54 127.435 488.349 127.332 488.136C127.229 487.923 127.17 487.692 127.157 487.455C127.143 487.219 127.177 486.983 127.255 486.76C134.673 465.485 134.531 444.711 134.379 422.711C134.284 408.41 134.179 393.626 136.299 378.499C136.334 378.265 136.414 378.039 136.536 377.836C136.657 377.633 136.817 377.456 137.007 377.314C137.198 377.173 137.414 377.071 137.643 377.013C137.873 376.955 138.111 376.943 138.346 376.978C138.58 377.012 138.805 377.093 139.008 377.214C139.211 377.336 139.389 377.496 139.53 377.686C139.671 377.877 139.773 378.093 139.831 378.322C139.889 378.552 139.901 378.791 139.866 379.025C137.762 393.889 137.883 408.542 137.983 422.711C138.135 445.032 138.283 466.112 130.654 487.975C130.527 488.323 130.295 488.623 129.991 488.835C129.687 489.046 129.325 489.157 128.954 489.154Z" fill="#331C19"/>
<path d="M154.892 526.161C154.434 526.16 153.994 525.985 153.661 525.671C153.327 525.357 153.126 524.928 153.098 524.471C151.52 500.018 148.274 415.216 149.01 361.909C149.016 361.435 149.208 360.983 149.545 360.65C149.881 360.317 150.336 360.13 150.809 360.13H150.836C151.314 360.138 151.769 360.335 152.103 360.679C152.436 361.022 152.62 361.483 152.614 361.961C151.878 415.173 155.139 499.828 156.691 524.239C156.722 524.717 156.561 525.187 156.246 525.546C155.93 525.905 155.485 526.124 155.008 526.155L154.892 526.161Z" fill="#331C19"/>
<path d="M406.839 526.639H406.676C406.201 526.596 405.762 526.367 405.455 526.001C405.148 525.635 404.999 525.162 405.04 524.687C408.67 483.591 408.781 453.143 408.886 423.705C408.933 410.052 408.981 397.162 409.359 383.278C409.373 382.8 409.575 382.348 409.922 382.019C410.269 381.691 410.731 381.514 411.209 381.528C411.686 381.541 412.138 381.743 412.466 382.09C412.794 382.437 412.971 382.9 412.958 383.378C412.585 397.215 412.537 410.089 412.49 423.715C412.385 453.232 412.274 483.759 408.628 525.008C408.586 525.453 408.38 525.868 408.049 526.169C407.718 526.471 407.287 526.639 406.839 526.639Z" fill="#331C19"/>
<path d="M441.179 493.481C440.834 493.479 440.497 493.379 440.208 493.193C439.918 493.006 439.687 492.741 439.543 492.428C435.281 483.233 431.583 473.517 428.01 464.122C422.339 449.227 416.962 435.174 409.622 423.174C409.373 422.766 409.295 422.276 409.406 421.811C409.518 421.346 409.809 420.944 410.217 420.694C410.624 420.445 411.114 420.367 411.579 420.478C412.044 420.59 412.445 420.882 412.695 421.289C420.229 433.558 425.643 447.779 431.372 462.838C434.929 472.175 438.606 481.833 442.815 490.912C442.914 491.127 442.97 491.359 442.98 491.595C442.989 491.831 442.952 492.067 442.871 492.289C442.789 492.511 442.665 492.715 442.504 492.888C442.344 493.062 442.151 493.202 441.937 493.302C441.701 493.418 441.442 493.479 441.179 493.481Z" fill="#331C19"/>
<path d="M338.386 275.559C337.931 275.558 337.494 275.384 337.161 275.074C336.828 274.764 336.625 274.339 336.592 273.885C336.529 273.054 335.145 253.495 335.629 247.89C335.671 247.414 335.899 246.974 336.265 246.666C336.63 246.359 337.103 246.209 337.578 246.25C338.054 246.292 338.494 246.52 338.802 246.886C339.109 247.252 339.258 247.724 339.217 248.2C338.76 253.527 340.17 273.427 340.185 273.627C340.217 274.104 340.06 274.573 339.748 274.934C339.435 275.295 338.993 275.517 338.518 275.554L338.386 275.559Z" fill="#331C19"/>
<path d="M241.596 275.317C241.495 275.325 241.393 275.325 241.291 275.317C241.055 275.277 240.83 275.19 240.628 275.063C240.426 274.935 240.252 274.768 240.115 274.572C239.977 274.376 239.881 274.155 239.83 273.922C239.779 273.688 239.775 273.447 239.818 273.212C240.912 266.896 239.707 259.527 238.392 253.211C238.344 252.979 238.342 252.741 238.386 252.508C238.431 252.276 238.52 252.055 238.65 251.857C238.78 251.659 238.947 251.489 239.142 251.356C239.338 251.223 239.558 251.13 239.789 251.082C240.02 251.034 240.259 251.032 240.491 251.076C240.723 251.12 240.945 251.21 241.142 251.34C241.34 251.47 241.51 251.637 241.643 251.832C241.776 252.028 241.869 252.248 241.917 252.479C243.306 259.143 244.548 266.89 243.369 273.817C243.297 274.236 243.08 274.616 242.756 274.89C242.432 275.164 242.021 275.316 241.596 275.317Z" fill="#331C19"/>
<path d="M291.809 280.033C270.859 280.033 247.699 263.806 238.045 252.074C227.807 240.011 224.755 231.947 219.699 218.595L218.537 215.531C218.366 215.085 218.381 214.589 218.576 214.152C218.771 213.716 219.132 213.375 219.578 213.205C220.025 213.035 220.521 213.049 220.957 213.244C221.393 213.44 221.734 213.8 221.904 214.247L223.066 217.321C227.986 230.311 230.958 238.153 240.807 249.764C250.53 261.575 274.479 278.149 294.997 276.286C316.363 274.564 334.509 250.227 341.122 237.6C347.535 225.163 348.619 214.231 350.771 192.462C351.129 188.815 351.523 184.873 351.97 180.583C352.035 180.116 352.276 179.692 352.644 179.398C353.012 179.104 353.479 178.963 353.949 179.004C354.184 179.028 354.412 179.099 354.62 179.211C354.828 179.324 355.012 179.477 355.161 179.661C355.31 179.844 355.422 180.056 355.489 180.283C355.556 180.51 355.578 180.748 355.553 180.983C355.106 185.267 354.717 189.199 354.354 192.846C352.249 214.373 351.055 226.226 344.315 239.29C337.376 252.532 318.22 278.059 295.308 279.901C294.147 279.989 292.981 280.033 291.809 280.033Z" fill="#331C19"/>
<path fill-rule="evenodd" clip-rule="evenodd" d="M267.055 227.384C267.055 227.384 280.503 227.384 290.352 226.421C300.201 225.7 313.406 221.857 313.406 221.857C313.406 221.857 311.486 251.411 290.594 251.648C270.896 251.648 267.055 227.384 267.055 227.384Z" fill="white"/>
<path d="M290.615 253.453C269.602 253.453 265.319 227.921 265.277 227.663C265.233 227.404 265.247 227.139 265.316 226.886C265.385 226.633 265.509 226.398 265.678 226.198C265.847 225.997 266.058 225.836 266.296 225.726C266.534 225.615 266.793 225.558 267.055 225.557C267.187 225.557 280.534 225.557 290.178 224.605C299.759 223.905 312.775 220.142 312.906 220.105C313.184 220.024 313.477 220.011 313.761 220.067C314.045 220.124 314.311 220.248 314.537 220.429C314.762 220.611 314.941 220.844 315.057 221.109C315.174 221.374 315.225 221.663 315.205 221.952C315.184 222.284 312.943 253.195 290.615 253.453ZM269.275 229.189C270.654 234.826 275.731 249.869 290.599 249.869C306.077 249.69 310.281 231.231 311.307 224.326C306.924 225.489 297.87 227.7 290.488 228.242C283.075 228.942 273.521 229.121 269.275 229.189Z" fill="#331C19"/>
<path d="M198.844 166.946C198.677 166.946 198.51 166.923 198.35 166.877C197.893 166.747 197.506 166.442 197.274 166.028C197.041 165.614 196.982 165.124 197.108 164.667C197.192 164.372 199.212 157.466 207.551 156.635C207.787 156.611 208.024 156.634 208.251 156.703C208.477 156.771 208.687 156.883 208.87 157.033C209.053 157.183 209.205 157.367 209.317 157.576C209.428 157.784 209.498 158.013 209.522 158.248C209.545 158.483 209.522 158.721 209.454 158.948C209.385 159.174 209.273 159.385 209.123 159.568C208.974 159.751 208.789 159.903 208.581 160.014C208.373 160.126 208.144 160.196 207.909 160.219C202.08 160.803 200.633 165.456 200.575 165.651C200.464 166.024 200.236 166.352 199.924 166.585C199.612 166.818 199.233 166.945 198.844 166.946Z" fill="#331C19"/>
<path d="M215.175 204.194C214.997 204.196 214.819 204.171 214.648 204.12C208.772 202.347 199.486 193.994 198.25 181.672C198.202 181.197 198.345 180.722 198.648 180.353C198.95 179.983 199.387 179.749 199.862 179.701C200.337 179.654 200.812 179.797 201.181 180.1C201.551 180.402 201.785 180.839 201.832 181.315C202.937 192.367 211.402 199.383 215.69 200.668C216.106 200.791 216.464 201.06 216.698 201.426C216.931 201.792 217.025 202.23 216.96 202.66C216.896 203.089 216.679 203.481 216.349 203.763C216.019 204.045 215.598 204.198 215.164 204.194H215.175Z" fill="#331C19"/>
<path d="M353.517 190.767C353.098 190.769 352.691 190.624 352.368 190.357C352.044 190.091 351.824 189.719 351.744 189.307C351.665 188.896 351.732 188.469 351.934 188.101C352.136 187.734 352.459 187.448 352.849 187.294C360.936 184.057 365.834 173.846 367.102 165.161C367.97 159.261 366.67 153.624 363.724 150.424C361.725 148.266 359.068 147.266 355.801 147.503C355.564 147.522 355.326 147.493 355.101 147.419C354.876 147.344 354.668 147.225 354.489 147.07C354.31 146.914 354.164 146.724 354.06 146.511C353.955 146.298 353.894 146.066 353.88 145.829C353.864 145.593 353.894 145.356 353.969 145.132C354.045 144.907 354.163 144.7 354.319 144.522C354.474 144.343 354.663 144.197 354.875 144.092C355.087 143.987 355.317 143.924 355.553 143.908C359.868 143.608 363.629 145.019 366.365 147.977C370.095 152.003 371.7 158.619 370.669 165.672C369.248 175.377 363.603 186.862 354.185 190.625C353.974 190.716 353.747 190.764 353.517 190.767Z" fill="#331C19"/>
<path d="M225.423 159.382C221.62 159.393 217.825 159.019 214.096 158.266C213.864 158.219 213.644 158.126 213.448 157.994C213.252 157.861 213.084 157.692 212.953 157.494C212.69 157.095 212.596 156.608 212.691 156.14C212.787 155.672 213.064 155.26 213.463 154.997C213.862 154.733 214.349 154.639 214.817 154.735C242.47 160.356 274.794 141.671 288.868 121.128C288.997 120.923 289.166 120.746 289.364 120.607C289.563 120.468 289.788 120.371 290.026 120.322C290.263 120.273 290.508 120.272 290.745 120.319C290.983 120.367 291.209 120.462 291.409 120.599C291.609 120.736 291.779 120.912 291.91 121.116C292.04 121.321 292.128 121.549 292.168 121.789C292.207 122.028 292.198 122.273 292.141 122.508C292.084 122.744 291.98 122.966 291.835 123.16C278.687 142.345 251.692 159.382 225.423 159.382Z" fill="#331C19"/>
<path d="M287.032 141.013C286.763 141.013 286.506 141.013 286.221 141.013C285.985 141.01 285.752 140.961 285.535 140.867C285.318 140.774 285.121 140.639 284.956 140.469C284.791 140.3 284.661 140.1 284.574 139.88C284.486 139.661 284.443 139.426 284.446 139.19C284.449 138.953 284.499 138.72 284.592 138.503C284.685 138.285 284.82 138.089 284.99 137.924C285.159 137.759 285.359 137.629 285.578 137.541C285.798 137.454 286.033 137.41 286.269 137.413H286.316H287.048C303.999 137.413 321.503 122.445 326.312 103.676C326.43 103.213 326.728 102.816 327.139 102.573C327.55 102.33 328.04 102.26 328.503 102.378C328.966 102.497 329.362 102.794 329.605 103.206C329.849 103.617 329.919 104.108 329.8 104.57C324.607 124.845 305.535 141.013 287.032 141.013Z" fill="#331C19"/>
<path d="M351.35 145.572C350.892 145.57 350.453 145.394 350.119 145.081C349.786 144.767 349.585 144.339 349.556 143.882C348.293 123.408 344.705 114.744 335.35 109.544C334.932 109.313 334.622 108.924 334.49 108.464C334.358 108.004 334.414 107.51 334.645 107.092C334.877 106.673 335.265 106.363 335.725 106.231C336.185 106.099 336.678 106.155 337.097 106.386C349.071 113.044 351.981 124.618 353.154 143.65C353.183 144.128 353.021 144.597 352.705 144.955C352.388 145.313 351.942 145.531 351.465 145.561L351.35 145.572Z" fill="#331C19"/>
<path d="M199.565 152.777C199.166 152.777 198.779 152.644 198.464 152.401C198.149 152.157 197.923 151.815 197.823 151.429C186.133 106.47 192.525 76.6906 217.942 57.7427C218.131 57.5872 218.349 57.4716 218.583 57.4029C218.818 57.3342 219.063 57.3138 219.306 57.343C219.549 57.3722 219.783 57.4504 219.994 57.5728C220.206 57.6952 220.39 57.8593 220.536 58.0552C220.683 58.251 220.787 58.4745 220.845 58.7121C220.902 58.9497 220.91 59.1964 220.87 59.4374C220.829 59.6783 220.739 59.9085 220.607 60.1139C220.475 60.3193 220.302 60.4956 220.099 60.6323C195.677 78.8485 189.879 106.565 201.306 150.519C201.366 150.748 201.381 150.986 201.348 151.22C201.316 151.455 201.238 151.68 201.118 151.884C200.998 152.088 200.839 152.267 200.65 152.409C200.461 152.551 200.246 152.655 200.017 152.714C199.87 152.755 199.718 152.777 199.565 152.777Z" fill="#331C19"/>
<path d="M223.429 50.4528C222.021 50.4581 220.615 50.3613 219.221 50.1633C218.747 50.0935 218.322 49.8386 218.036 49.4546C217.751 49.0706 217.63 48.5891 217.7 48.1159C217.77 47.6427 218.025 47.2165 218.408 46.9313C218.792 46.646 219.274 46.525 219.747 46.5948C228.991 47.9211 239.129 43.9631 249.851 39.7525C265.356 33.6786 281.381 27.3943 295.708 37.5472C296.097 37.8264 296.359 38.2488 296.437 38.7216C296.515 39.1944 296.402 39.6788 296.123 40.0683C295.844 40.4577 295.422 40.7204 294.949 40.7983C294.477 40.8763 293.992 40.7633 293.603 40.4841C280.866 31.4681 266.434 37.1208 251.145 43.1157C241.917 46.7264 232.447 50.4528 223.429 50.4528Z" fill="#331C19"/>
<path d="M305.967 43.4529H305.74C305.504 43.4256 305.276 43.3517 305.069 43.2356C304.862 43.1196 304.679 42.9636 304.533 42.7766C304.386 42.5897 304.277 42.3756 304.214 42.1466C304.15 41.9176 304.133 41.6782 304.162 41.4424C304.162 41.3897 304.788 36.1317 303.11 32.579C303.009 32.3647 302.952 32.1327 302.941 31.8963C302.93 31.6598 302.966 31.4236 303.046 31.2009C303.127 30.9783 303.25 30.7737 303.409 30.5988C303.569 30.4239 303.761 30.2821 303.975 30.1815C304.19 30.081 304.421 30.0236 304.658 30.0127C304.894 30.0017 305.13 30.0375 305.353 30.1179C305.575 30.1983 305.78 30.3218 305.955 30.4812C306.13 30.6407 306.271 30.8331 306.372 31.0473C308.476 35.5527 307.761 41.6318 307.729 41.8897C307.673 42.3192 307.464 42.7139 307.14 43.0012C306.816 43.2885 306.4 43.4489 305.967 43.4529Z" fill="#331C19"/>
<path d="M350.871 68.9274C350.452 68.9252 350.046 68.7776 349.724 68.5098C349.402 68.2419 349.182 67.8705 349.103 67.4589C346.472 53.6322 330.331 41.8687 317.078 44.153C316.845 44.1931 316.606 44.1869 316.376 44.1346C316.145 44.0824 315.927 43.9852 315.733 43.8486C315.54 43.712 315.376 43.5386 315.249 43.3385C315.123 43.1383 315.038 42.9152 314.997 42.6819C314.957 42.4486 314.964 42.2098 315.016 41.9789C315.068 41.748 315.165 41.5297 315.302 41.3364C315.438 41.1431 315.612 40.9786 315.812 40.8523C316.012 40.726 316.235 40.6404 316.468 40.6003C331.688 37.9686 349.613 50.9374 352.644 66.7852C352.73 67.2539 352.629 67.7378 352.361 68.132C352.093 68.5261 351.68 68.7987 351.213 68.8905C351.1 68.913 350.986 68.9253 350.871 68.9274Z" fill="#331C19"/>
<path d="M361.683 133.555H361.504C361.028 133.508 360.591 133.273 360.288 132.903C359.985 132.533 359.842 132.058 359.889 131.582C362.135 108.86 360.141 89.1279 354.275 76.0328C354.079 75.5966 354.065 75.1006 354.235 74.6539C354.406 74.2073 354.746 73.8466 355.182 73.6512C355.618 73.4557 356.114 73.4416 356.561 73.6119C357.007 73.7821 357.368 74.1229 357.563 74.5591C363.682 88.2437 365.781 108.597 363.471 131.929C363.428 132.374 363.221 132.787 362.891 133.087C362.56 133.388 362.129 133.555 361.683 133.555Z" fill="#331C19"/>
<path d="M288.673 526.161H288.468C287.995 526.104 287.564 525.862 287.268 525.489C286.972 525.115 286.836 524.64 286.89 524.166C288.005 514.403 288.142 469.88 288.252 434.106C288.331 408.279 288.4 385.978 288.779 381.72C289.357 375.815 291.746 372.809 294.771 369.004C298.035 365.103 300.759 360.78 302.868 356.151C306.972 347.503 308.04 338.403 308.981 330.361C309.539 325.592 310.07 321.087 311.191 317.439C312.659 313.029 316.137 309.287 319.204 305.986C319.972 305.155 320.719 304.35 321.403 303.565C328.432 295.218 340.075 274.422 336.403 262.017C336.267 261.559 336.319 261.066 336.547 260.647C336.775 260.227 337.16 259.915 337.618 259.78C338.076 259.645 338.568 259.697 338.988 259.925C339.407 260.153 339.719 260.538 339.854 260.996C344.158 275.517 330.863 297.923 324.139 305.918C323.408 306.75 322.634 307.581 321.845 308.434C319.025 311.471 315.826 314.913 314.621 318.539C313.606 321.834 313.122 325.976 312.559 330.777C311.586 339.087 310.455 348.503 306.135 357.667C303.904 362.549 301.03 367.11 297.591 371.23C294.729 374.836 292.856 377.215 292.367 382.057C291.977 386.141 291.909 408.373 291.841 434.106C291.725 471.838 291.593 514.634 290.457 524.566C290.405 525.004 290.196 525.408 289.867 525.702C289.539 525.995 289.114 526.159 288.673 526.161Z" fill="#331C19"/>
<path d="M290.846 383.678C290.563 383.678 290.283 383.611 290.031 383.482C289.778 383.353 289.56 383.166 289.394 382.936C289.121 382.567 282.728 373.741 276.241 359.561C271.906 350.419 270.801 341.003 269.828 332.692C269.26 327.892 268.776 323.745 267.75 320.418C266.739 316.881 263.541 313.518 260.752 310.549C259.879 309.628 259.032 308.734 258.269 307.86C249.478 297.417 235.698 276.238 239.644 262.911C239.78 262.453 240.091 262.068 240.511 261.84C240.93 261.612 241.423 261.56 241.88 261.695C242.338 261.831 242.723 262.143 242.951 262.562C243.179 262.982 243.231 263.475 243.096 263.932C239.581 275.817 253.271 296.328 260.984 305.512C261.694 306.328 262.509 307.191 263.351 308.081C266.44 311.349 269.944 315.05 271.18 319.397C272.295 323.008 272.827 327.513 273.384 332.282C274.326 340.313 275.394 349.414 279.487 358.045C285.801 371.888 292.214 380.73 292.282 380.82C292.477 381.089 292.594 381.407 292.619 381.738C292.645 382.069 292.579 382.401 292.428 382.697C292.278 382.993 292.048 383.242 291.765 383.416C291.483 383.59 291.157 383.682 290.825 383.683L290.846 383.678Z" fill="#331C19"/>
<path d="M234.373 355.088C234.037 355.089 233.707 355.001 233.415 354.835C232.216 354.119 232.152 353.635 231.721 341.872C231.442 334.256 231.1 324.771 230.216 319.713C229.517 315.739 228.754 312.439 228.012 309.25C227.007 304.934 226.065 300.86 225.634 296.27C225.187 291.47 226.37 285.886 227.517 280.481C228.301 276.796 229.043 273.307 229.232 270.275C229.685 262.991 232.021 256.98 236.809 250.801C236.953 250.614 237.133 250.457 237.338 250.339C237.543 250.221 237.769 250.145 238.004 250.114C238.238 250.084 238.476 250.1 238.705 250.162C238.933 250.224 239.147 250.33 239.334 250.475C239.521 250.619 239.678 250.799 239.796 251.004C239.914 251.209 239.99 251.436 240.02 251.67C240.05 251.905 240.034 252.143 239.972 252.371C239.911 252.6 239.804 252.814 239.66 253.001C235.283 258.669 233.241 263.906 232.821 270.517C232.615 273.812 231.847 277.423 231.037 281.249C229.943 286.386 228.817 291.691 229.217 295.944C229.622 300.292 230.5 304.065 231.516 308.439C232.231 311.534 233.047 315.034 233.757 319.108C234.683 324.403 235.035 334.024 235.335 341.74C235.451 344.898 235.577 348.324 235.725 350.488C238.545 348.456 240.686 344.845 244.611 337.977C245.511 336.398 246.463 334.414 247.468 332.314C251.819 323.229 257.753 310.771 268.27 315.35C268.709 315.54 269.053 315.897 269.228 316.342C269.403 316.787 269.395 317.283 269.204 317.721C269.014 318.159 268.657 318.504 268.213 318.679C267.768 318.854 267.272 318.846 266.834 318.655C260.058 315.708 255.707 323.45 250.719 333.866C249.667 336.029 248.704 338.077 247.741 339.761C242.954 348.135 240.323 352.751 235.114 354.946C234.88 355.044 234.627 355.092 234.373 355.088Z" fill="#331C19"/>
<path d="M347.777 353.403C347.489 353.405 347.205 353.34 346.946 353.213C341.837 351.066 339.207 346.455 334.419 338.081C333.456 336.392 332.478 334.35 331.447 332.187C326.454 321.77 322.103 314.028 315.326 316.976C314.888 317.166 314.392 317.175 313.948 317C313.503 316.824 313.147 316.48 312.956 316.041C312.766 315.603 312.757 315.107 312.932 314.662C313.107 314.218 313.452 313.861 313.89 313.67C324.412 309.091 330.342 321.565 334.693 330.634C335.698 332.739 336.65 334.713 337.55 336.292C341.501 343.213 343.642 346.818 346.43 348.819C346.583 346.655 346.704 343.208 346.82 340.045C347.104 332.323 347.451 322.713 348.398 317.412C348.877 314.665 349.356 312.149 349.808 309.786C350.918 303.996 351.881 298.97 352.218 293.586C352.586 289.638 351.234 285.448 349.808 281.017C348.619 277.332 347.399 273.543 347.178 269.78C346.73 262.595 341.943 254.321 337.971 249.421C337.81 249.238 337.689 249.025 337.613 248.794C337.537 248.563 337.509 248.319 337.529 248.077C337.55 247.835 337.62 247.599 337.734 247.384C337.848 247.17 338.004 246.98 338.193 246.827C338.382 246.674 338.6 246.561 338.833 246.495C339.067 246.428 339.312 246.41 339.553 246.44C339.794 246.47 340.027 246.549 340.237 246.672C340.447 246.794 340.63 246.958 340.775 247.153C345.073 252.469 350.276 261.522 350.771 269.559C350.971 272.869 352.128 276.448 353.239 279.911C354.717 284.496 356.243 289.238 355.811 293.864C355.464 299.423 354.485 304.538 353.354 310.465C352.902 312.812 352.428 315.307 351.949 318.034C351.066 323.086 350.724 332.565 350.44 340.176C350.013 351.95 349.95 352.434 348.751 353.15C348.455 353.321 348.119 353.408 347.777 353.403Z" fill="#331C19"/>
<path d="M255.523 525.918C255.076 525.917 254.646 525.75 254.316 525.449C253.985 525.149 253.778 524.737 253.734 524.292C252.592 512.629 253.002 488.275 253.439 462.49C253.918 434.169 254.412 404.889 252.776 392.199C252.25 387.32 250.982 382.783 249.619 377.988C249.146 376.325 248.678 374.657 248.241 372.967C247.883 371.488 247.52 370.067 247.162 368.646C245.353 361.493 243.48 354.098 242.664 343.098C242.647 342.862 242.676 342.625 242.75 342.4C242.824 342.175 242.941 341.967 243.096 341.787C243.25 341.608 243.438 341.461 243.649 341.354C243.861 341.248 244.091 341.184 244.327 341.166C244.563 341.149 244.8 341.178 245.025 341.252C245.249 341.326 245.457 341.443 245.636 341.598C245.816 341.752 245.963 341.94 246.07 342.152C246.176 342.363 246.24 342.593 246.258 342.829C247.052 353.519 248.799 360.435 250.656 367.762C251.019 369.193 251.377 370.625 251.734 372.093C252.161 373.725 252.624 375.372 253.081 377.014C254.412 381.751 255.791 386.646 256.343 391.783C258 404.699 257.506 434.116 257.022 462.564C256.59 488.239 256.18 512.492 257.301 523.95C257.324 524.185 257.301 524.423 257.232 524.649C257.163 524.876 257.051 525.086 256.901 525.269C256.751 525.452 256.566 525.603 256.358 525.715C256.149 525.826 255.921 525.895 255.685 525.918H255.523Z" fill="#331C19"/>
<path d="M319.178 526.882H319.041C318.565 526.845 318.122 526.622 317.811 526.259C317.499 525.897 317.343 525.427 317.378 524.95C318.12 514.829 318.488 490.796 318.878 465.359C319.372 433.016 319.883 399.568 321.224 386.978C321.961 379.346 325.591 370.104 328.243 363.351C331.331 356.13 333.33 348.198 334.435 338.898C334.492 338.423 334.734 337.99 335.11 337.695C335.485 337.399 335.963 337.265 336.437 337.321C336.911 337.378 337.344 337.621 337.639 337.996C337.935 338.372 338.069 338.849 338.013 339.324C336.866 348.972 334.777 357.219 331.636 364.588C329.006 371.241 325.496 380.22 324.797 387.362C323.471 399.815 322.96 433.153 322.471 465.433C322.082 490.928 321.713 515.008 320.961 525.234C320.921 525.681 320.716 526.097 320.386 526.401C320.057 526.706 319.626 526.877 319.178 526.882Z" fill="#331C19"/>
<path d="M425.569 287.086C425.321 287.086 425.075 287.035 424.848 286.935C424.62 286.836 424.416 286.69 424.248 286.507C416.741 278.407 402.325 272.496 381.407 268.938L380.586 268.796C377.466 268.175 374.42 267.743 371.474 267.296C363.887 266.19 356.716 265.143 349.124 261.432C348.912 261.329 348.722 261.184 348.565 261.007C348.409 260.83 348.288 260.624 348.211 260.4C348.134 260.177 348.102 259.94 348.117 259.704C348.131 259.468 348.192 259.237 348.296 259.024C348.399 258.812 348.544 258.622 348.721 258.465C348.898 258.309 349.104 258.188 349.327 258.111C349.551 258.034 349.787 258.002 350.023 258.017C350.259 258.031 350.49 258.092 350.703 258.195C357.795 261.659 364.692 262.664 371.994 263.732C374.983 264.169 378.076 264.622 381.249 265.254L382.012 265.385C403.73 269.069 418.84 275.385 426.89 284.059C427.128 284.316 427.287 284.637 427.346 284.983C427.405 285.329 427.362 285.684 427.221 286.006C427.081 286.327 426.85 286.601 426.556 286.793C426.263 286.985 425.92 287.086 425.569 287.086Z" fill="#331C19"/>
<path d="M146.969 293.096C146.602 293.097 146.244 292.985 145.942 292.777C145.641 292.568 145.41 292.272 145.281 291.928C145.153 291.585 145.132 291.21 145.222 290.855C145.312 290.499 145.508 290.179 145.785 289.938C162.5 275.375 197.707 268.917 198.055 268.854C201.313 268.316 204.597 267.942 207.893 267.733C213.617 267.285 218.142 266.938 224.729 263.727C224.941 263.624 225.172 263.563 225.408 263.548C225.644 263.534 225.88 263.566 226.104 263.643C226.328 263.72 226.534 263.84 226.711 263.997C226.888 264.154 227.032 264.344 227.136 264.556C227.24 264.769 227.3 265 227.315 265.236C227.329 265.472 227.297 265.708 227.22 265.932C227.143 266.155 227.023 266.362 226.866 266.539C226.71 266.716 226.52 266.86 226.307 266.964C219.115 270.475 214.049 270.87 208.177 271.322C205.284 271.548 202.285 271.78 198.707 272.406C189.858 273.949 161.59 280.975 148.2 292.654C147.86 292.952 147.42 293.11 146.969 293.096Z" fill="#331C19"/>
<path d="M230.311 375.746C230.021 375.747 229.735 375.677 229.478 375.543C229.22 375.409 228.999 375.215 228.833 374.978C227.091 372.483 224.913 368.904 222.609 365.119C217.547 356.798 211.245 346.45 206.299 342.15C204.41 340.529 201.038 339.277 197.807 338.066C192.694 336.161 187.869 334.382 187.669 330.55C187.501 327.324 190.073 323.981 193.325 319.75C195.608 316.792 198.192 313.434 200.117 309.692C201.527 306.865 203.479 303.449 205.541 299.839C209.977 292.086 215.012 283.291 218.031 274.828C220.304 268.301 225.55 261.611 235.567 252.48C235.92 252.158 236.386 251.99 236.863 252.012C237.34 252.034 237.789 252.245 238.111 252.598C238.432 252.951 238.6 253.418 238.578 253.895C238.556 254.372 238.345 254.821 237.992 255.143C228.449 263.843 223.493 270.091 221.43 276.028C218.273 284.807 212.954 294.133 208.672 301.628C206.63 305.197 204.705 308.565 203.326 311.323C201.222 315.376 198.555 318.871 196.182 321.955C193.604 325.303 191.168 328.466 191.268 330.376C191.341 331.824 196.003 333.534 199.065 334.703C202.606 336.024 206.267 337.392 208.656 339.44C214.017 344.114 220.231 354.282 225.676 363.256C227.949 366.998 230.101 370.525 231.774 372.93C231.962 373.2 232.073 373.516 232.095 373.844C232.116 374.173 232.047 374.501 231.895 374.793C231.743 375.085 231.514 375.329 231.233 375.5C230.952 375.671 230.629 375.761 230.3 375.762L230.311 375.746Z" fill="#331C19"/>
<path d="M254.544 511.502C254.146 511.502 253.758 511.37 253.443 511.126C253.128 510.882 252.903 510.541 252.803 510.155C252.219 507.923 246.489 494.06 240.465 479.38C231.684 458.053 221.725 433.884 219.904 427.274L219.252 425C216.327 414.81 213.559 405.189 208.319 396.226C207.441 394.826 206.473 393.415 205.499 392.015C203.803 389.65 202.245 387.19 200.833 384.646C200.733 384.452 200.622 384.262 200.496 384.046C199.754 382.767 198.633 380.841 199.275 378.909C199.97 376.483 202.927 376.115 204.694 375.893C204.978 375.862 205.22 375.83 205.436 375.788C211.818 375.009 217.931 375.751 223.85 375.046C234.167 373.993 242.138 360.783 244.337 356.751C244.573 356.344 244.957 356.045 245.41 355.919C245.862 355.792 246.346 355.847 246.758 356.073C247.17 356.298 247.478 356.676 247.615 357.125C247.753 357.574 247.709 358.06 247.494 358.477C244.406 364.146 235.919 377.457 224.234 378.63C218.2 379.351 211.913 378.63 206.02 379.346C205.894 379.378 205.547 379.42 205.152 379.473C204.563 379.541 203.005 379.736 202.679 380.078C202.595 380.462 203.374 381.794 203.626 382.23C203.795 382.52 203.947 382.757 204.052 382.999C205.394 385.408 206.873 387.738 208.482 389.978C209.487 391.436 210.487 392.894 211.418 394.383C216.916 403.778 219.873 414.073 222.73 424.026L223.387 426.311C225.155 432.721 235.488 457.832 243.811 478.012C251.177 495.849 255.691 506.902 256.301 509.25C256.422 509.712 256.354 510.202 256.113 510.615C255.873 511.027 255.479 511.327 255.017 511.45C254.862 511.487 254.703 511.504 254.544 511.502Z" fill="#331C19"/>
<path d="M346.309 377.672C345.978 377.67 345.653 377.577 345.371 377.403C345.089 377.228 344.86 376.979 344.71 376.684C344.56 376.388 344.495 376.056 344.52 375.726C344.546 375.395 344.663 375.078 344.857 374.809C346.872 372.03 349.661 367.235 352.607 362.177C358.131 352.666 364.392 341.882 369.385 337.529C371.784 335.476 375.446 334.108 378.981 332.792C382.059 331.645 386.705 329.913 386.784 328.471C386.884 326.571 384.448 323.407 381.87 320.049C379.497 316.97 376.803 313.47 374.73 309.433C373.347 306.66 371.421 303.291 369.385 299.728C365.097 292.233 359.768 282.885 356.627 274.138C354.101 267.196 348.524 259.758 340.054 252.032C339.879 251.873 339.737 251.68 339.637 251.466C339.536 251.252 339.479 251.02 339.468 250.784C339.457 250.548 339.492 250.312 339.573 250.089C339.653 249.867 339.776 249.662 339.935 249.487C340.095 249.312 340.287 249.171 340.501 249.07C340.715 248.969 340.947 248.912 341.183 248.901C341.419 248.89 341.655 248.926 341.878 249.006C342.1 249.086 342.304 249.209 342.479 249.369C351.392 257.485 357.289 265.406 360.015 272.906C363.05 281.38 368.075 290.175 372.51 297.933C374.572 301.544 376.524 304.954 377.945 307.797C379.86 311.528 382.443 314.886 384.727 317.844C387.983 322.055 390.551 325.408 390.382 328.644C390.182 332.445 385.353 334.25 380.244 336.155C376.998 337.366 373.641 338.618 371.742 340.245C367.207 344.197 360.841 355.166 355.722 363.977C352.728 369.135 349.897 374.014 347.767 376.94C347.599 377.169 347.379 377.354 347.126 377.481C346.872 377.608 346.593 377.674 346.309 377.672Z" fill="#331C19"/>
<path d="M320.372 510.297C320.053 510.298 319.739 510.215 319.463 510.054C319.187 509.894 318.959 509.663 318.802 509.386C318.645 509.108 318.565 508.793 318.57 508.474C318.575 508.155 318.665 507.843 318.83 507.57C336.534 478.049 349.808 441.221 353.465 428.005L353.77 426.916C356.832 416.073 359.72 405.831 365.413 396.104C366.365 394.573 367.365 393.12 368.37 391.657C369.989 389.406 371.476 387.061 372.821 384.636C372.91 384.457 373.057 384.193 373.231 383.904C373.484 383.467 374.257 382.136 374.141 381.72C373.847 381.409 372.289 381.193 371.7 381.146C371.311 381.099 370.963 381.051 370.695 380.999C365.081 380.341 358.689 381.035 352.586 380.304C344.021 379.251 336.45 372.804 330.079 361.114C329.863 360.696 329.82 360.211 329.957 359.762C330.095 359.312 330.403 358.935 330.815 358.709C331.227 358.484 331.711 358.429 332.163 358.555C332.615 358.682 333 358.981 333.235 359.388C337.213 366.682 343.873 375.609 353.012 376.725C358.899 377.43 365.15 376.725 371.258 377.441C371.59 377.504 371.847 377.535 372.137 377.567C373.904 377.788 376.872 378.151 377.577 380.662C378.198 382.514 377.051 384.441 376.335 385.715C376.214 385.93 376.098 386.12 376.019 386.283C374.601 388.845 373.036 391.323 371.332 393.704C370.358 395.12 369.39 396.525 368.485 397.968C363.056 407.252 360.225 417.279 357.232 427.895L356.927 428.979C353.244 442.332 339.807 479.585 321.913 509.423C321.754 509.689 321.528 509.91 321.257 510.063C320.987 510.216 320.682 510.297 320.372 510.297Z" fill="#331C19"/>
<path d="M121.752 329.75C117.175 329.75 112.024 329.113 107.336 327.066C95.2355 321.755 91.5527 309.807 89.8376 304.065L89.764 303.834C89.6949 303.607 89.671 303.369 89.6938 303.134C89.7165 302.898 89.7855 302.669 89.8966 302.46C90.0077 302.252 90.1589 302.067 90.3415 301.916C90.5241 301.766 90.7346 301.653 90.9608 301.583C91.1871 301.514 91.4248 301.49 91.6603 301.513C91.8958 301.536 92.1245 301.605 92.3334 301.716C92.5422 301.827 92.7271 301.979 92.8775 302.161C93.0279 302.344 93.1409 302.554 93.21 302.781L93.2837 303.018C94.9936 308.644 98.1765 319.118 108.783 323.76C119.574 328.497 133.863 324.676 134.005 324.634C134.459 324.531 134.934 324.607 135.333 324.846C135.731 325.086 136.022 325.469 136.145 325.918C136.268 326.366 136.213 326.845 135.992 327.254C135.77 327.663 135.4 327.971 134.957 328.113C130.639 329.194 126.204 329.744 121.752 329.75Z" fill="#331C19"/>
<path d="M438.832 318.691C436.213 318.704 433.597 318.491 431.014 318.055C430.781 318.013 430.559 317.926 430.36 317.799C430.161 317.671 429.988 317.506 429.853 317.312C429.718 317.118 429.622 316.899 429.571 316.668C429.52 316.437 429.515 316.198 429.557 315.965C429.598 315.732 429.685 315.51 429.813 315.31C429.94 315.111 430.105 314.939 430.299 314.803C430.493 314.668 430.712 314.572 430.943 314.521C431.174 314.47 431.413 314.466 431.646 314.507C435.681 315.228 456.515 317.934 471.015 300.475C471.162 300.28 471.347 300.117 471.559 299.996C471.771 299.875 472.005 299.798 472.248 299.77C472.49 299.742 472.736 299.763 472.97 299.833C473.203 299.902 473.421 300.019 473.609 300.175C473.796 300.331 473.95 300.523 474.062 300.741C474.173 300.958 474.239 301.196 474.255 301.439C474.272 301.683 474.239 301.927 474.159 302.158C474.079 302.388 473.952 302.6 473.788 302.781C462.592 316.255 447.955 318.691 438.832 318.691Z" fill="#331C19"/>
<path d="M243.138 220.373C230.542 220.373 217.884 216.747 213.191 213.489C204.978 207.699 203.605 184.188 203.768 176.409C203.785 175.934 203.986 175.484 204.329 175.154C204.671 174.825 205.129 174.643 205.604 174.646C206.082 174.655 206.537 174.854 206.868 175.199C207.199 175.543 207.381 176.005 207.372 176.483C207.12 188.257 209.719 206.636 215.264 210.531C220.63 214.247 242.775 219.794 257.585 214.631C263.583 212.484 267.392 206.768 271.069 201.241C275.226 194.999 279.156 189.104 285.964 188.82C292.346 188.504 296.228 193.225 299.99 197.767C302.915 201.304 305.935 204.968 310.17 206.441C322.345 210.584 348.235 203.957 354.701 197.936C358.673 194.252 360.725 175.488 358.615 162.145C357.679 156.219 356.174 153.572 355.169 153.103C348.893 150.177 326.396 147.171 296.034 149.661C260.547 152.45 224.518 159.661 212.218 166.503C211.799 166.735 211.306 166.791 210.846 166.659C210.386 166.526 209.998 166.217 209.766 165.798C209.534 165.379 209.479 164.886 209.611 164.426C209.743 163.966 210.052 163.577 210.471 163.345C225.087 155.251 264.43 148.529 295.744 146.066C324.954 143.671 348.951 146.219 356.69 149.835C359.32 151.066 361.12 154.908 362.172 161.582C364.055 173.504 363.014 195.146 357.158 200.599C350.103 207.173 322.597 214.499 308.997 209.878C303.799 208.062 300.3 203.825 297.212 200.089C293.724 195.878 290.72 192.257 286.122 192.43C281.134 192.641 277.862 197.557 274.068 203.252C270.275 208.947 265.908 215.505 258.753 218.026C254.018 219.715 248.573 220.373 243.138 220.373Z" fill="#331C19"/>
<path d="M287.227 210.926C286.871 210.925 286.523 210.818 286.227 210.62C280.766 206.978 278.493 203.02 279.471 198.857C279.815 197.639 280.29 196.462 280.887 195.346C282.686 191.662 284.922 187.036 281.692 178.014C281.612 177.792 281.577 177.556 281.588 177.32C281.6 177.083 281.657 176.852 281.758 176.638C281.859 176.424 282.001 176.232 282.176 176.073C282.351 175.914 282.556 175.792 282.778 175.712C283.001 175.632 283.237 175.597 283.473 175.608C283.709 175.619 283.94 175.677 284.154 175.778C284.368 175.879 284.56 176.021 284.718 176.196C284.877 176.371 285 176.576 285.08 176.799C288.826 187.246 285.995 193.067 284.128 196.92C283.654 197.801 283.269 198.727 282.976 199.683C282.381 202.231 284.144 204.899 288.237 207.626C288.559 207.84 288.804 208.152 288.935 208.516C289.066 208.88 289.076 209.277 288.964 209.648C288.852 210.018 288.623 210.343 288.312 210.573C288.001 210.803 287.624 210.927 287.237 210.926H287.227Z" fill="#331C19"/>
<path fill-rule="evenodd" clip-rule="evenodd" d="M247.12 182.451C246.878 178.609 249.283 175.246 252.166 175.004C255.044 175.004 257.427 177.888 257.69 181.973C257.927 185.815 255.528 189.178 252.645 189.42C249.761 189.42 247.12 186.299 247.12 182.451Z" fill="#331C19"/>
<path fill-rule="evenodd" clip-rule="evenodd" d="M310.528 176.446C310.528 172.604 312.685 169.235 315.568 169.235C318.451 169.235 320.83 172.362 320.83 176.204C320.83 180.046 318.672 183.415 315.789 183.415C312.906 183.415 310.528 180.288 310.528 176.446Z" fill="#331C19"/>
<path d="M221.398 219.573C221.034 219.573 220.679 219.463 220.379 219.256C220.079 219.049 219.849 218.756 219.72 218.415C217.09 211.573 214.406 200.652 212.912 193.388C212.85 193.151 212.837 192.904 212.874 192.662C212.91 192.419 212.996 192.187 213.125 191.979C213.255 191.771 213.425 191.591 213.626 191.451C213.827 191.311 214.055 191.213 214.295 191.163C214.535 191.114 214.782 191.114 215.022 191.164C215.262 191.213 215.489 191.311 215.69 191.451C215.891 191.591 216.062 191.771 216.191 191.979C216.32 192.187 216.406 192.42 216.442 192.662C217.905 199.788 220.525 210.473 223.082 217.126C223.166 217.348 223.206 217.584 223.199 217.821C223.192 218.058 223.137 218.292 223.04 218.508C222.942 218.724 222.802 218.919 222.629 219.081C222.456 219.243 222.252 219.369 222.03 219.452C221.829 219.531 221.615 219.572 221.398 219.573Z" fill="#331C19"/>
<path d="M236.314 164.793C235.948 164.792 235.591 164.68 235.291 164.471C234.99 164.262 234.76 163.967 234.631 163.624C234.502 163.282 234.481 162.908 234.569 162.553C234.657 162.198 234.851 161.878 235.125 161.635C243.385 154.377 252.487 152.577 263.73 155.977C264.177 156.125 264.549 156.443 264.766 156.861C264.983 157.28 265.027 157.767 264.889 158.218C264.752 158.669 264.444 159.048 264.03 159.274C263.617 159.501 263.132 159.557 262.678 159.43C252.729 156.425 244.727 157.983 237.493 164.346C237.166 164.632 236.748 164.791 236.314 164.793Z" fill="#331C19"/>
<path d="M303.084 155.424C302.676 155.427 302.28 155.291 301.959 155.039C301.639 154.787 301.414 154.434 301.32 154.037C301.227 153.64 301.271 153.224 301.445 152.855C301.619 152.486 301.913 152.188 302.279 152.008C310.265 148.008 319.814 144.84 330.015 151.64C330.212 151.771 330.382 151.939 330.513 152.136C330.645 152.332 330.737 152.553 330.784 152.784C330.83 153.016 330.831 153.255 330.785 153.487C330.74 153.719 330.649 153.94 330.518 154.137C330.387 154.334 330.219 154.504 330.022 154.635C329.826 154.767 329.606 154.859 329.374 154.906C329.142 154.953 328.903 154.953 328.671 154.907C328.439 154.862 328.218 154.771 328.021 154.64C321.035 149.982 314.048 150.15 303.883 155.229C303.636 155.357 303.362 155.423 303.084 155.424Z" fill="#331C19"/>
<path d="M403.472 97.9963C403.126 97.9976 402.786 97.899 402.494 97.7123C402.202 97.5257 401.97 97.2588 401.825 96.9437C401.257 95.6647 400.668 94.4068 400.084 93.1594C398.629 90.1968 397.345 87.1531 396.238 84.0434C396.087 83.5897 396.123 83.0947 396.337 82.6673C396.551 82.2399 396.926 81.9151 397.38 81.7643C397.833 81.6136 398.328 81.6492 398.755 81.8634C399.182 82.0776 399.507 82.4528 399.658 82.9065C400.715 85.8828 401.944 88.7949 403.341 91.6278C403.935 92.9015 404.535 94.1805 405.114 95.4805C405.236 95.7548 405.287 96.0552 405.263 96.3545C405.24 96.6537 405.141 96.9423 404.978 97.1939C404.814 97.4455 404.59 97.6521 404.326 97.7951C404.062 97.938 403.767 98.0126 403.467 98.0122L403.472 97.9963Z" fill="#331C19"/>
<path d="M428.205 87.4229C427.766 87.4235 427.342 87.2631 427.013 86.9722C426.685 86.6812 426.474 86.2798 426.421 85.8439C426.379 85.4965 425.448 77.2595 425.448 70.7435C425.473 70.2822 425.674 69.8481 426.009 69.5304C426.344 69.2127 426.788 69.0356 427.25 69.0356C427.712 69.0356 428.156 69.2127 428.491 69.5304C428.826 69.8481 429.027 70.2822 429.052 70.7435C429.052 77.0595 429.988 85.3544 429.999 85.4334C430.052 85.907 429.916 86.3825 429.621 86.7562C429.325 87.1299 428.894 87.3714 428.421 87.4282C428.349 87.4318 428.277 87.43 428.205 87.4229Z" fill="#331C19"/>
<path d="M453.185 91.0277C452.881 91.0274 452.582 90.95 452.316 90.8027C452.05 90.6555 451.825 90.4431 451.663 90.1855C451.502 89.928 451.408 89.6336 451.39 89.3298C451.373 89.0261 451.433 88.7229 451.565 88.4487C453.985 83.7818 456.99 79.4431 460.509 75.5378C460.666 75.3608 460.856 75.2166 461.069 75.1133C461.282 75.01 461.513 74.9497 461.749 74.9357C461.986 74.9218 462.222 74.9546 462.446 75.0321C462.669 75.1097 462.876 75.2305 463.052 75.3878C463.229 75.545 463.374 75.7356 463.477 75.9486C463.58 76.1616 463.64 76.3928 463.654 76.6291C463.668 76.8654 463.635 77.1022 463.558 77.3258C463.48 77.5495 463.36 77.7556 463.202 77.9326C459.925 81.5965 457.114 85.652 454.832 90.0066C454.684 90.3166 454.45 90.5776 454.158 90.7586C453.866 90.9396 453.529 91.033 453.185 91.0277Z" fill="#331C19"/>
<path d="M464.717 108.329C464.256 108.332 463.811 108.157 463.475 107.841C463.138 107.525 462.936 107.092 462.91 106.632C462.883 106.171 463.035 105.717 463.333 105.365C463.632 105.013 464.054 104.789 464.512 104.739C464.728 104.702 466.427 104.387 477.034 101.892C477.264 101.838 477.503 101.829 477.736 101.867C477.969 101.905 478.193 101.989 478.394 102.113C478.595 102.237 478.769 102.4 478.908 102.592C479.046 102.784 479.145 103.001 479.199 103.231C479.253 103.461 479.262 103.7 479.224 103.933C479.186 104.167 479.102 104.391 478.978 104.592C478.853 104.793 478.691 104.967 478.499 105.106C478.307 105.244 478.09 105.343 477.86 105.397C465.407 108.329 464.938 108.329 464.717 108.329Z" fill="#331C19"/>
</g>
<defs>
<clipPath id="clip0_73_9">
<rect width="692" height="574" fill="white"/>
</clipPath>
<clipPath id="clip1_73_9">
<rect width="668" height="599" fill="white" transform="translate(25 30)"/>
</clipPath>
</defs>
</svg>
