<svg viewBox="0 0 692 765" fill="none" xmlns="http://www.w3.org/2000/svg"><g clip-path="url(#a)"><path d="M172.169 585.655c69.16-41.081 168.452 26.558 376.328 30.231 19.937.339 40.437.396 59.079-6.894 20.388-7.967 37.058-24.241 49.787-42.719 34.017-49.274 42.07-115.275 28.103-174.325-13.967-59.05-48.322-111.319-91.069-152.456-24.386-23.507-51.983-44.132-70.681-72.781-16.783-25.655-25.738-56.79-45.619-79.902C445.037 48.611 390.689 41.66 341.465 42c-32.609.283-66.513 2.995-94.786 20.004-41.395 24.92-61.951 74.42-87.971 116.348-20.951 33.735-46.633 63.853-69.667 96.006-27.315 38.142-50.8 79.223-70.062 122.394-11.49 25.768-15.432 39.499-17.74 58.485-6.309 53.117 10.813 122.621 57.22 147.71 9.124 4.973 17.065 7.007 19.937 7.572 40.044 7.064 93.773-24.863 93.773-24.863Z" fill="#F90"/></g><g clip-path="url(#b)"><path fill-rule="evenodd" clip-rule="evenodd" d="M288.943 217.453c-.84-6.106-2.533-18.995-2.533-18.995s2.594-8.427 2.111-16.679c-.483-8.251-1.805-17.869-3.248-22.238-1.55-4.633-4.506-15.229-4.506-15.229s-6.836-1.019-8.158-2.205c-7.184-6.454-10.353-8.242-9.783-18.481.103-1.853 1.722-6.055 2.687-7.667.822-1.367 3.787-3.128 4.887-4.717 4.25-6.129 5.94-16.215 8.107-23.215 6.738-21.73 19.263-54.206 48.001-49.203 15.857 2.752 23.862 15.414 33.918 25.987 5.852 6.143 12.529 8.974 16.432 17.04 3.16 6.574 2.784 12.972 4.478 19.806 1.346 5.379 5.494 6.407 8.321 10.438 3.364 4.8 3.935 10.948 2.988 16.614-1.434 8.566-12.766 12.189-12.766 12.189s-3.146 11.805-4.302 15.071a162.2 162.2 0 0 1-6.496 15.09s-1.137 16.335-.256 20.297c.789 3.548 10.636 7.903 10.636 7.903s3.11 7.645 1.968 11.889c-1.921 7.134-8.993 12.879-13.096 16.6-11.759 10.655-30.358 12.18-45.013 8.52-7.025-1.752-13.652-3.193-19.624-7.455-3.745-2.668-8.428-4.577-11.736-7.876-1.031-.973-2.799-1.936-3.017-3.484Z" fill="#FFEDDE"/><path fill-rule="evenodd" clip-rule="evenodd" d="M349.312 153.958s-7.848 1.469-14.994 1.26c-7.146-.208-17.495-1.96-17.495-1.96s.576 3.54 1.917 6.125c1.341 2.585 4.367 5.875 7.958 7.83 3.365 1.853 9.383 3.549 12.994 1.297 1.777-1.112 4.459-3.618 6.45-7.037a40.522 40.522 0 0 0 3.17-7.515Z" fill="#fff"/><path fill-rule="evenodd" clip-rule="evenodd" d="M267.815 113.309a63.65 63.65 0 0 1-2.733-9.461c-.822-4.457-1.917-11.962-2.868-18.629-2.265-15.84-5.263-27.121-.863-42.493 1.563-5.472 7.141-15.864 11.656-19.621 8.353-6.95 16.052-7.71 26.614-9.817 6.687-1.335 15.355-9.8 21.885-11.12C333.863-.3 342.69 3.266 354.495 7.983c9.69 3.868 18.808 12.046 25.941 19.157 5.392 5.384 12.176 9.558 15.541 17.026 4.083 9.058 3.768 19.176 2.45 28.725-.882 6.393-1.93 14.478-3.504 20.755-.881 3.535-4.552 19.375-4.552 19.375s1.392-.727-4.283-.727c-.928 0-3.792.463-4.942-2.432-1.151-2.896-3.091-13.9-5.379-19.292-2.288-5.393-9.573-8.562-13.095-10.762-4.065-2.535-8.172-7.38-10.571-11.495-4.353-7.45-4.799-19.921-16.159-17.068-4.39 1.099-15.156 3.869-19.894 2.924-4.738-.945-10.979-2.64-15.397.667-5.912 4.43-5.791 8.187-7.156 14.992-1.619 8.076-3.452 16.98-5.475 24.889-2.024 7.908-3.936 12.365-7.254 15.83-4.176 4.374-8.292 2.345-10.264 2.062-.655-.079-2.687.7-2.687.7Z" fill="#C89286"/><path fill-rule="evenodd" clip-rule="evenodd" d="M286.637 194.728c.515-1.793-5.806 2.483-9.676 4.304-3.87 1.821-10.162 4.281-15.777 6.523-12.53 4.995-26.674 10.165-39.375 15.141-4.678 1.853-8.845 4.169-13.588 5.74-17.671 5.875-32.019 15.752-45.198 28.901-5.272 5.263-13.194 14.028-17.797 20.385-15.258 21.019-21.249 30.619-34.507 52.686-5.782 9.622-21.165 29.502-25.847 35.238-4.683 5.736-7.936 10.702-8.817 14.988-.762 3.785 5.071 10.799 6.598 14.362 2.52 5.861 13.49 18.068 18.098 22.599 8.706 8.558 18.91 11.55 25.305 13.705 5.406 1.816 11.448 3.613 15.212 2.895 3.248-.62 10.566-9.437 12.45-11.628 8.033-9.359 15.263-18.013 23.203-27.511 2.464-2.951 7.671-9.548 8.32-8.9 2.785 2.78 4.497 18.5 5.267 22.331 1.007 5.031 7.263 31.74 9.402 41.34 2.344 10.535 5.847 24.027 7.764 34.655 1.935 10.734 2.278 18.601 4.408 29.243 2.715 13.561 2.52 29.591 2.784 36.711.265 7.121.265 16.855.775 19.922a124.695 124.695 0 0 0 4.98 19.644s-3.249 43.837-6.822 61.577c-1.392 7.033-5.183 23.165-3.819 30.54.626 3.392 10.543 7.76 13.759 8.919 3.216 1.158 28.655 10.063 42.925 12.435 4.009.667 25.843 5.175 31.05 6.022 12.255 2.039 38.702 5.018 48.219 5.44 15.258.676 32.837-1.233 47.951-3.387 12.789-1.826 23.486-4.235 36.196-6.347 7.648-1.274 18.919-3.447 26.609-4.981 15.314-3.057 25.565-2.779 40.451-6.486 4.381-1.093 4.516-6.838 3.922-10.498-1.012-6.269-2.288-14.362-2.725-20.927-.278-4.17-8.144-54.016-9.847-64.232-2.594-15.543 4.915-11.026 3.17-26.718-2.061-18.532-2.72-37.374-3.536-56.059-.58-13.403-.817-26.69 1.178-39.987.553-3.706-13.921-32.982-19.55-52.482-1.828-6.31-.037-21.456-.037-21.456s37.941 37.208 52.479 33.358c14.539-3.85 26.6-11.068 37.245-19.922 5.235-4.36 13.741-10.688 16.948-17.091 2.167-4.327.343-6.662-2.915-11.962-3.257-5.3-10.209-15.97-14.385-24.694-8.121-16.947-12.674-26.816-20.883-43.179-3.021-6.023-7.828-18.069-10.835-24.092-5.973-11.92-11.824-27.093-21.597-36.85-4.376-4.369-7.56-9.762-12.729-13.63-4.381-3.281-8.817-6.811-13.764-8.803-2.636-1.052-13.653-5.004-23.319-7.561-6.64-1.756-12.812-3.859-15.926-4.661-12.859-3.299-22.581-7.13-34.702-10.155-8.743-2.182-21.662-9.452-29.342-12.546-.543-.218 4.135 7.111.492 15.173-3.643 8.061-12.418 14.39-20.298 16.141-8.914 1.978-19.397 1.459-23.968.546-14.061-2.807-29.774-6.393-39.208-18.953-2.998-4.049-7.852-10.642-6.371-15.766Z" fill="#fff"/><path fill-rule="evenodd" clip-rule="evenodd" d="M78.027 385.861s-2.51 3.049-3.671 4.443c-3.346 4.008-16.706 23.04-19.615 28.878-6.465 12.902-11.235 22.238-6.799 37.063 5.638 18.796 10.808 25.945 17.634 41.794 7.137 16.623 20.173 38.106 29.816 53.511 8.52 13.602 18.367 30.851 27.536 43.93 8.437 12.046 18.187 22.701 28.173 33.654 6.033 6.634 14.85 15.358 23.077 18.949 3.43 1.496 9.606 2.284 14.966 1.927 5.675-.38 10.618-1.951 17.49-1.798 12.571.283 18.79 4.591 26.21 7.07 1.944.644 10.594 2.011 12.488.463 1.048-.852 2.037-.194 2.561-3.409.524-3.216-8.353-8.924-8.353-8.924s9.564 2.706 10.84 2.887c2.469.352 13.648 1.144 10.511-5.096-2.575-5.143-7.49-6.561-12.529-9.118-5.04-2.558-9.931-6.051-12.483-7.464-.835-.463-6.497-3.442-5.611-3.794 1.685-.672 11.184 2.21 14.335 2.316 1.174.047 6.784.802 12.237.732 5.453-.069 11.578-3.275 9.221-7.051-2.358-3.776-18.562-6.764-26.015-10.536-2.594-1.315-14.219-5.304-14.219-5.304s8.052-4.216 8.79-4.633c7.949-4.666 16.622-1.534 24.655-6.88.886-.589 5.517-3.359 4.311-5.166-1.207-1.807-4.089-2.78-5.778-2.78-5.824.065-10.381 1.047-15.68.57-5.3-.477-10.042 0-13.541 1.599-15.871 7.361-29.426 16.803-45.765 10.53-3.197-1.232-5.657-2.678-8.033-5.267-7.373-8.034-11.049-13.723-16.283-23.128-8.697-15.627-16.497-36.809-23.393-53.335-5.332-12.768-10.237-29.915-15.778-42.535-2.093-4.754-9.035-19.514-9.035-19.514a104.601 104.601 0 0 1 8.135-11.152c1.039-1.246 8.473-9.761 8.473-9.761s-5.48-2.062-5.953-2.317c-4.539-2.469-9.022-4.128-13.337-7-8.26-5.5-13.254-11.481-18.191-18.18-2.367-3.16-11.397-16.174-11.397-16.174Z" fill="#FFEDDE"/><path fill-rule="evenodd" clip-rule="evenodd" d="M376.148 489.774c0-5.824.241-15.4 2.265-24.091 3.007-12.973 9.281-25.82 18.928-36.42 16.242-17.809 43.097-25.676 59.682-25.676 18.664 0 43.426 8.775 59.649 27.001 12.53 14.107 19.746 37.036 19.746 49.702 0 29.021-45.278 81.253-78.383 81.253-16.79 0-37.969-3.803-54.415-18.42-15.982-14.228-27.472-39.042-27.472-53.349Z" fill="#FF986D"/><path fill-rule="evenodd" clip-rule="evenodd" d="M519.007 433.942s7.958 11.267 10.343 16.818c2.543 5.921 4.947 12.972 5.834 19.579.324 2.432 1.503 12.045 1.503 12.045s-3.012 5.245-5.527 9.637c-3.615 6.315-7.323 12.564-11.968 18.272-5.401 6.635-10.673 10.475-19.003 13.251-8.469 2.816-14.339.463-23.128.926-3.736.181-9.36 1.909-14.293 2.9-6.176 1.242-11.685 1.946-15.857 4.026-3.28 1.636-8.96 4.675-11.921 6.89-3.852 2.881-12.065 5.263-16.618 7.088a12.678 12.678 0 0 0-5.341 4.364l-6.719-3.502a14.211 14.211 0 0 0 1.522 7.051c1.856 3.623 6.96 8.451 6.96 8.451a39.284 39.284 0 0 0 7.458 7.987c4.594 3.665 10.933 6.676 10.933 6.676s6.343 6.065 11.731 7.677c3.634 1.089 11.225 2.279 17.17 3.943 6.789 1.89 14.177 5.008 18.437 5.351 7.777.616 10.77-4.731 18.362-7.914 4.966-2.075 9.81-5.971 14.033-9.316 6.297-4.99 11.671-9.887 17.774-14.858 9.178-7.473 19.824-14.594 29.086-21.947 10.052-7.982 19.43-14.362 28.015-23.808 6.525-7.195 13.202-16.79 15.861-26.756 1.416-5.286 2.418-10.656 1.801-16.215-1.392-12.454-8.78-23.99-14.478-33.932-3.666-6.398-10.998-21.96-13.073-26.102-.223-.464-4.292-11.81-4.292-11.81-.172 0-6.52 6.399-8.748 8.252-7.791 6.486-18.785 14.904-28.404 18.504-4.52 1.686-17.453 6.472-17.453 6.472Z" fill="#FFEDDE"/><path fill-rule="evenodd" clip-rule="evenodd" d="M506.992 765c.079-2.339.144-4.633.144-6.097 0-14.01-9.235-67.386-9.235-67.386s-9.281 2.576-12.71 2.576c-4.251 0-9.653 1.144-13.82 1.853-11.054 1.853-20.469 3.669-31.588 5.518-20.339 3.386-41.932 8.27-62.549 10.234-12.066 1.144-30.461 1.524-37.556 1.075-9.114-.575-19.862-1.195-28.846-2.692-12.376-2.057-23.592-5.203-36.159-6.996-15.026-2.14-30.047-7.533-44.442-11.119-4.525-1.13-15.379-6.078-15.379-6.078s-1.578 6.166-1.624 6.486c-1.42 9.896-3.466 19.667-4.882 29.54-1.967 13.75-4.223 27.723-4.223 41.548 0 .463-.032.992-.088 1.552L506.992 765Z" fill="#98A7BA"/><path d="M413.119 551.597a1.4 1.4 0 0 1-.747-.218 80.67 80.67 0 0 1-27.407-29.253 80.506 80.506 0 0 1-9.921-38.81c0-44.634 36.525-80.947 81.418-80.947 35.82 0 67.055 22.812 77.728 56.772 1.453 4.633 3.249 13.853 3.713 23.234a1.395 1.395 0 0 1-1.304 1.437 1.304 1.304 0 0 1-1.012-.326 1.287 1.287 0 0 1-.427-.972c-.464-9.145-2.176-18.101-3.578-22.553-10.311-32.806-40.493-54.85-75.107-54.85-43.375 0-78.666 35.086-78.666 78.205a77.784 77.784 0 0 0 9.589 37.494 77.95 77.95 0 0 0 26.477 28.262 1.389 1.389 0 0 1-.742 2.525h-.014ZM241.42 657.283c-2.652 0-5.926-.485-9.824-1.454a56.311 56.311 0 0 1-5.328-1.779c-4.64-1.705-10.399-3.823-17.564-4.485-3.508-.334-7.351.204-11.43.769-7.888 1.084-16.835 2.316-26.223-2.275-13.741-6.713-37.672-35.169-49.654-53.131-20.882-31.305-39.273-63.059-50.995-84.19-10.543-18.995-20.2-42.053-24.594-58.741-4.316-16.359 9.62-36.559 24.376-57.949 2.121-3.077 4.256-6.172 6.34-9.266a1.396 1.396 0 0 1 1.486-.792 1.402 1.402 0 0 1 .969.653 1.386 1.386 0 0 1-.177 1.672 792.154 792.154 0 0 1-6.358 9.266c-14.385 20.848-27.973 40.552-23.982 55.698 4.348 16.484 13.922 39.292 24.349 58.106 11.699 21.085 30.024 52.77 50.879 83.996 11.522 17.258 35.453 45.774 48.581 52.19 8.636 4.225 16.771 3.109 24.641 2.02 4.242-.584 8.256-1.14 12.066-.783 7.522.695 13.726 2.975 18.26 4.633 1.968.723 3.662 1.348 5.04 1.691 7.425 1.853 12.729 1.821 14.149-.074a1.489 1.489 0 0 0 .38-1.316c-.222-.959-1.564-2.645-6.687-5.253a70.424 70.424 0 0 1-8.705-5.398 48.755 48.755 0 0 0-6.534-4.068c-2.45-1.186-5.17-1.668-8.047-2.172-2.784-.492-5.657-.997-8.404-2.197a1.375 1.375 0 0 1-.912-.735 1.384 1.384 0 0 1 .327-1.655 1.397 1.397 0 0 1 1.685-.121c2.45 1.066 5.16 1.543 7.782 2.007 2.938.518 5.973 1.051 8.771 2.409a50.79 50.79 0 0 1 6.91 4.28 66.46 66.46 0 0 0 8.38 5.203c5.072 2.586 7.574 4.768 8.112 7.079a4.203 4.203 0 0 1-.859 3.582c-1.29 1.728-3.693 2.58-7.206 2.58Z" fill="#5B2714"/><path d="M254.264 647.971c-.464 0-.988 0-1.508-.051-5.313-.356-13.355-4.118-21.871-8.098-2.274-1.061-4.547-2.127-6.747-3.113a1.392 1.392 0 0 1-.927-1.914 1.388 1.388 0 0 1 1.485-.806c.201.031.392.105.56.218 2.219.991 4.506 2.061 6.794 3.127 7.889 3.706 16.089 7.529 20.882 7.844 3.328.236 5.899-.38 6.836-1.617a1.92 1.92 0 0 0 .186-1.937c-.683-1.922-6.163-4.758-10.994-7.255l-.747-.385a57.207 57.207 0 0 1-7.74-4.836 61.75 61.75 0 0 0-6.738-4.332c-3.221-1.77-7.537-3.118-11.713-4.42a86.399 86.399 0 0 1-9.328-3.285 1.392 1.392 0 1 1 1.123-2.502 85.497 85.497 0 0 0 9.026 3.169c4.307 1.339 8.757 2.729 12.219 4.633a63.83 63.83 0 0 1 7.016 4.504 53.806 53.806 0 0 0 7.425 4.633l.743.384c6.032 3.127 11.276 5.828 12.325 8.775a4.647 4.647 0 0 1-.59 4.512c-1.373 1.793-4.079 2.752-7.717 2.752Z" fill="#5B2714"/><path d="M254.807 625.418c-1.002 0-2.046-.037-3.132-.111-5.495-.38-11.773-1.941-17.314-3.322-5.309-1.32-10.33-2.552-12.251-2.098a1.392 1.392 0 0 1-1.347-2.008c.147-.295.395-.527.697-.656 2.59-.64 7.425.574 13.569 2.098 5.425 1.353 11.602 2.887 16.836 3.243 6.288.436 11.068-.495 12.836-2.474a2.172 2.172 0 0 0 .598-1.941c-.287-1.598-4.348-2.817-9.049-4.23-2.668-.797-5.689-1.705-8.951-2.914-2.576-.959-5.137-1.974-7.671-2.979-7.467-2.96-14.525-5.759-21.3-6.861a1.395 1.395 0 0 1-.759-.604 1.383 1.383 0 0 1-.179-.951 1.394 1.394 0 0 1 1.402-1.156c7.077 1.154 14.265 4.003 21.876 7.024 2.515.996 5.053 2.001 7.615 2.956 3.174 1.181 6.153 2.071 8.78 2.863 6.246 1.853 10.376 3.109 10.965 6.361a4.895 4.895 0 0 1-.113 2.282 4.893 4.893 0 0 1-1.14 1.98c-2.07 2.284-6.255 3.498-11.968 3.498Z" fill="#5B2714"/><path d="M225.981 602.262a1.392 1.392 0 0 1-1.243-1.887c.106-.275.298-.51.546-.67 8.72-5.096 12.381-6.514 19.597-7.598 5.676-.853 17.491-2.627 17.379-7.765a.564.564 0 0 0-.195-.463c-1.229-1.14-6.269-.876-11.137-.616-4.348.227-9.281.486-13.949.046-4.26-.408-9.834 2.381-16.289 5.601-11.364 5.671-25.523 12.727-40.553 5.865-6-2.733-15.017-10.424-31.676-45.912-6.497-13.848-12.822-30.837-18.934-47.256-9.165-24.62-17.819-47.873-25.987-57.954a1.39 1.39 0 0 1 1.182-2.404 1.397 1.397 0 0 1 .953.676c8.446 10.433 17.17 33.89 26.418 58.727 6.098 16.378 12.4 33.316 18.85 47.062 16.275 34.682 24.753 42.044 30.321 44.578 13.848 6.315 26.781-.13 38.187-5.823 6.831-3.406 12.762-6.315 17.774-5.88 4.482.422 9.281.172 13.545-.055 6.432-.339 11.082-.584 13.161 1.348a3.304 3.304 0 0 1 1.072 2.418c.167 7.552-12.771 9.493-19.718 10.536-6.469.973-9.699 2.047-18.613 7.255-.212.115-.45.174-.691.171ZM205.08 765c.965-17.142 4.371-43.439 10.334-79.812a1.388 1.388 0 0 0-1.157-1.386 1.395 1.395 0 0 0-1.553.923c-5.995 36.549-9.416 62.971-10.381 80.256l2.757.019ZM507.785 765c-.955-22.725-4.668-55.711-7.93-73.599a1.391 1.391 0 0 0-1.597-1.103 1.393 1.393 0 0 0-1.109 1.594c3.249 17.776 6.933 50.527 7.889 73.108h2.747Z" fill="#5B2714"/><path d="M219.892 587.548a1.395 1.395 0 0 1-1.285-.885c-4.59-12.008-4.854-22.238-5.216-36.41-.283-10.962-.636-24.597-3.086-43.601-3.248-25.055-7.207-41.442-11.815-60.414-3.378-13.899-7.206-29.651-11.337-51.426a1.393 1.393 0 0 1 2.701-.514c4.121 21.673 7.936 37.402 11.309 51.282 4.641 19.046 8.622 35.503 11.871 60.692 2.464 19.139 2.821 32.857 3.104 43.879.371 14.408.613 23.929 5.035 35.507a1.356 1.356 0 0 1-.339 1.483 1.364 1.364 0 0 1-.454.282 1.295 1.295 0 0 1-.488.125ZM110.093 451.288a1.4 1.4 0 0 1-1.233-.844 1.388 1.388 0 0 1 .244-1.472c.228-.251 1.43-1.854 2.696-3.526 9.393-12.444 12.688-16.382 14.103-16.85a1.395 1.395 0 0 1 1.55.93 1.386 1.386 0 0 1-.678 1.673c-1.434.867-9.675 11.787-12.775 15.896-2.13 2.822-2.696 3.563-2.937 3.804-.261.25-.609.39-.97.389ZM469.13 405.992h-.125a1.392 1.392 0 0 1-1.249-1.492c1.703-19.31 5.569-36.902 11.847-53.775a1.392 1.392 0 0 1 2.576.954c-6.181 16.637-10 33.997-11.685 53.066a1.39 1.39 0 0 1-1.364 1.247ZM500.161 677.654a1.387 1.387 0 0 1-1.35-1.125c-.552-2.984-.849-5.921-1.188-9.322a315.698 315.698 0 0 0-.701-6.454c-1.856-15.001-5.281-38.74-9.916-68.646a1.384 1.384 0 0 1 .552-1.592c.168-.111.359-.185.558-.216a1.386 1.386 0 0 1 1.482.805c.083.184.125.384.122.586 4.641 29.933 8.075 53.696 9.926 68.725.293 2.372.511 4.517.71 6.519.334 3.34.627 6.227 1.156 9.099a1.389 1.389 0 0 1-1.1 1.598 1.412 1.412 0 0 1-.251.023Z" fill="#5B2714"/><path d="M352.412 714.223c-4.214 0-8.571-.093-13.115-.292-33.073-1.455-110.486-15.618-129.47-31.171-2.645-2.172-1.573-10.748 1.67-27.969.418-2.237.803-4.276 1.086-5.948a1.39 1.39 0 0 1 1.587-1.126 1.39 1.39 0 0 1 1.123 1.584c-.287 1.687-.673 3.744-1.095 5.995-1.327 7.042-4.427 23.522-2.617 25.347 17.105 14.029 91.771 28.961 127.828 30.545 34.91 1.529 59.218-3.289 84.959-8.399 11.434-2.27 23.262-4.633 36.66-6.579l5.615-.82c21.69-3.155 30.669-4.462 32.92-7.682 1.248-1.783.631-4.707-.395-9.543l-.464-2.159a1.389 1.389 0 0 1 1.621-1.836 1.385 1.385 0 0 1 1.075 1.284l.464 2.145c1.133 5.37 1.884 8.923-.046 11.68-2.928 4.17-10.952 5.36-34.772 8.803l-5.619.82c-13.328 1.95-25.119 4.29-36.526 6.555-22.557 4.504-44.038 8.766-72.489 8.766ZM139.43 433.474c-3.072 0-6.07-.889-8.979-1.751a68.81 68.81 0 0 0-2.785-.797c-17.935-4.67-31.69-15.483-44.586-35.058l-1.392-2.084c-2.44-3.66-4.752-7.117-6.552-11.12-.562-1.237-2.167-4.785 2.455-11.369 1.67-2.372 4.557-6.06 8.213-10.73 5.76-7.348 12.929-16.498 18.855-25.018 5.568-7.996 10.794-16.502 16.353-25.509 12.58-20.385 25.592-41.474 42.572-56.856 21.509-19.481 41.124-27.798 66.49-37.411 3.61-1.39 7.694-2.831 12.005-4.373 15.777-5.657 35.444-12.699 45.143-20.117a1.385 1.385 0 0 1 1.084-.436 1.39 1.39 0 0 1 .586 2.614c-10.037 7.677-29.913 14.797-45.885 20.519-4.297 1.538-8.353 2.998-11.954 4.36-25.082 9.507-44.47 17.716-65.622 36.874-16.706 15.122-29.602 36.039-42.08 56.262-5.569 9.039-10.845 17.578-16.432 25.634-5.973 8.604-13.165 17.791-18.948 25.167-3.49 4.452-6.496 8.302-8.13 10.614-3.712 5.3-2.603 7.779-2.232 8.589 1.74 3.892 3.986 7.251 6.367 10.814l1.392 2.103c12.502 18.963 25.76 29.424 42.985 33.913.928.241 1.908.529 2.882.816 2.993.894 6.093 1.811 9.026 1.612 1.791-.116 4.747-3.155 6.701-5.166.928-.959 1.74-1.788 2.418-2.344 2.543-2.08 7.248-7.996 12.691-14.825 13.824-17.393 32.753-41.211 47.44-44.143a1.39 1.39 0 0 1 1.62 1.074 1.39 1.39 0 0 1-1.081 1.617c-13.699 2.734-33.032 27.057-45.825 43.152-5.773 7.26-10.33 12.972-13.101 15.289-.589.463-1.341 1.26-2.19 2.135-2.515 2.586-5.648 5.801-8.492 5.996-.339-.056-.678-.047-1.012-.047ZM519.93 434.633a1.397 1.397 0 0 1-1.261-1.219 1.392 1.392 0 0 1 .936-1.482 93.297 93.297 0 0 0 32.994-15.586c25.236-18.606 24.971-23.697 22.001-28.414a76.068 76.068 0 0 0-1.123-1.723 299.265 299.265 0 0 1-17.745-30.462c-6.84-13.435-14.613-30.517-20.284-42.998-3.072-6.751-5.722-12.579-7.383-15.984l-2.32-4.758c-8.636-17.925-18.423-38.236-38.34-53.099-8.984-6.708-27.598-11.781-47.297-17.142-22.358-6.097-47.695-13.009-65.658-23.92a1.384 1.384 0 0 1-.797-.852 1.386 1.386 0 0 1 1.102-1.807 1.4 1.4 0 0 1 1.124.315c17.634 10.711 42.776 17.568 64.967 23.628 20.822 5.68 38.809 10.587 48.215 17.605 20.456 15.266 30.832 36.805 39.171 54.109l2.292 4.744c1.68 3.442 4.339 9.289 7.425 16.053 5.666 12.458 13.421 29.522 20.233 42.892a295.9 295.9 0 0 0 17.587 30.193c.511.774.905 1.39 1.161 1.775 4.468 7.102 2.213 13.713-22.702 32.083a95.965 95.965 0 0 1-33.973 16.039 1.537 1.537 0 0 1-.325.01ZM477.483 407.441a1.382 1.382 0 0 1-1.002-.431 54.26 54.26 0 0 0-6.599-5.948 1.398 1.398 0 0 1-.705-1.525 1.386 1.386 0 0 1 .705-.929 1.395 1.395 0 0 1 1.661.267 57.232 57.232 0 0 1 6.938 6.254 1.396 1.396 0 0 1 .242 1.477 1.391 1.391 0 0 1-1.24.84v-.005Z" fill="#5B2714"/><path d="M341.748 231.792a70.702 70.702 0 0 1-9.128-.598c-22.534-2.923-46.902-16.433-47.681-35.711a1.383 1.383 0 0 1 .368-.981 1.382 1.382 0 0 1 1.482-.367 1.378 1.378 0 0 1 .775.714c.075.165.116.343.122.523.691 17.142 23.569 30.286 45.287 33.103 17.634 2.293 38.516-1.853 44.21-20.265a1.393 1.393 0 0 1 2.626.806c-5.206 16.878-21.773 22.776-38.061 22.776Z" fill="#5B2714"/><path d="M286.864 198.963c-.205 0-.408-.045-.594-.13a1.392 1.392 0 0 1-.65-1.853c2.952-6.185 1.11-25.074-1.137-36.512a1.404 1.404 0 0 1 .09-1.164 1.41 1.41 0 0 1 .398-.447 1.404 1.404 0 0 1 1.148-.225 1.392 1.392 0 0 1 1.061 1.307c1.554 7.909 4.752 30.189.928 38.218a1.397 1.397 0 0 1-1.244.806ZM369.851 205.667a1.39 1.39 0 0 1-1.351-1.112c-2.816-14.543-.928-33.974-.83-34.794a1.39 1.39 0 0 1 1.503-1.227 1.387 1.387 0 0 1 1.23 1.501c-.084.806-1.944 19.847.798 33.996.064.357-.014.725-.217 1.026a1.394 1.394 0 0 1-1.133.61Z" fill="#5B2714"/><path d="M333.455 192.694c-.306 0-.612 0-.928-.023-14.112-.63-32.303-10.507-42.308-22.97-7.475-9.312-9.165-17.791-10.52-24.606-.366-1.853-.714-3.604-1.146-5.184a1.394 1.394 0 0 1 2.65-.723c.464 1.677.817 3.47 1.193 5.375 1.299 6.518 2.909 14.635 9.967 23.424 9.565 11.911 26.883 21.344 40.285 21.946 12.237.533 29.281-11.503 35.894-22.238 6.237-10.109 7.945-19.648 9.601-28.873l.437-2.427a1.395 1.395 0 0 1 .514-1.044 1.389 1.389 0 0 1 1.129-.288 1.391 1.391 0 0 1 1.062 1.827l-.436 2.414c-1.606 9.053-3.462 19.287-9.959 29.841-6.96 11.332-24.251 23.549-37.435 23.549Z" fill="#5B2714"/><path d="M279.472 145.619h-.079c-4.343-.255-9.253-2.933-12.817-6.991-3.661-4.17-5.481-9.266-5.105-14.363.413-5.721 3.226-10.438 7.151-12.008 3.026-1.214 6.335-.394 9.328 2.316a1.385 1.385 0 0 1-.045 1.82 1.394 1.394 0 0 1-1.811.214c-2.205-1.988-4.432-2.599-6.465-1.798-2.909 1.173-5.104 5.05-5.429 9.665-.316 4.346 1.258 8.733 4.436 12.351 3.049 3.47 7.332 5.852 10.906 6.06a1.396 1.396 0 0 1 1.106 1.396 1.39 1.39 0 0 1-1.176 1.338ZM333.265 137.877a1.389 1.389 0 0 1-.956-2.363c3.712-3.558 4.598-5.128.849-10.127-2.181-2.915-4.409-7.492-2.608-12.741a1.387 1.387 0 0 1 1.229-1.152 1.397 1.397 0 0 1 1.44.876 1.39 1.39 0 0 1-.07 1.165c-1.133 3.304-.386 6.741 2.213 10.193 4.692 6.254 3.364 9.414-1.146 13.746a1.392 1.392 0 0 1-.951.403ZM297.704 100.053a1.39 1.39 0 0 1-1.119-2.08c.159-.275.406-.487.702-.602.441-.139 10.849-3.368 19.634-.964a1.395 1.395 0 0 1 1.23 1.152 1.388 1.388 0 0 1-1.954 1.494c-8-2.192-17.977.903-18.098.926a1.37 1.37 0 0 1-.395.074ZM346.388 97.899a1.395 1.395 0 0 1-1.286-1.168 1.393 1.393 0 0 1 .859-1.51c10.339-3.382 17.68-.644 17.987-.528a1.39 1.39 0 0 1-.984 2.567c-.065-.028-6.785-2.488-16.149.57-.138.045-.282.069-.427.069Z" fill="#5B2714"/><path d="M275.04 130.511a1.391 1.391 0 0 1-1.243-.788c-1.332-2.84-2.506-3.706-2.516-3.706a1.389 1.389 0 0 1-.338-1.9 1.35 1.35 0 0 1 1.856-.375c.176.116 1.791 1.242 3.476 4.828a1.398 1.398 0 0 1-.101 1.309 1.396 1.396 0 0 1-1.148.641l.014-.009ZM380.579 107.591a1.39 1.39 0 0 1-1.345-1.075c-.928-4.169-2.566-10.882-3.249-12.342a1.377 1.377 0 0 1-.223-.553 1.38 1.38 0 0 1 .306-1.125 1.402 1.402 0 0 1 1.057-.496 1.396 1.396 0 0 1 1.348 1.007c1.035 2.2 3.206 11.823 3.452 12.912a1.388 1.388 0 0 1-1.044 1.64 1.33 1.33 0 0 1-.302.032ZM255.671 74.4a1.39 1.39 0 0 1-.928-2.367c2.32-2.186 2.784-7.626 3.322-13.926.622-7.362 1.392-16.526 5.606-24.263 7.74-14.233 21.811-22.855 32.02-19.607a1.388 1.388 0 0 1 .983.636 1.385 1.385 0 0 1-.643 2.023 1.397 1.397 0 0 1-1.171-.046c-8.989-2.85-21.643 5.19-28.771 18.305-3.935 7.232-4.641 15.706-5.281 23.165-.603 7.149-1.081 12.791-4.177 15.696a1.39 1.39 0 0 1-.96.385ZM267.931 114.286a1.389 1.389 0 0 1-1.276-.862c-.237-.579-5.736-14.362-4.544-26.922a1.39 1.39 0 0 1 1.48-1.038 1.39 1.39 0 0 1 1.258 1.298c-1.132 11.883 4.298 25.481 4.353 25.639a1.385 1.385 0 0 1-.633 1.716 1.396 1.396 0 0 1-.638.169ZM388.64 25.37c-4.557 0-12.334-1.543-18.947-6.287-13.24-9.498-45.974-28.924-63.905-4.369a1.396 1.396 0 0 1-1.513.73 1.397 1.397 0 0 1-.942-.686 1.38 1.38 0 0 1-.09-1.16c.07-.188.18-.359.322-.5 13.648-18.69 38.336-17.323 67.729 3.752 7.012 5.031 16.177 6.31 19.346 5.61a1.395 1.395 0 0 1 1.865.998 1.39 1.39 0 0 1-1.276 1.685c-.852.165-1.72.241-2.589.227ZM278.381 100.841a1.394 1.394 0 0 1-1.295-1.15 1.387 1.387 0 0 1 .831-1.518c9.536-3.299 11.467-14.061 13.332-24.462 2.047-11.425 4.177-23.253 17.263-22.378a1.386 1.386 0 0 1 1.285 1.46 1.438 1.438 0 0 1-1.461 1.279c-10.604-.686-12.381 8.95-14.386 20.12-1.907 10.656-4.074 22.748-15.133 26.575-.14.048-.288.073-.436.074ZM377.076 84.654c-18.511 0-24.883-12.908-29.607-22.466-2.547-5.156-4.747-9.613-8.009-10.53-1.963-.552-4.418.13-7.509 2.08a1.394 1.394 0 0 1-1.712-.54 1.386 1.386 0 0 1 .246-1.777c3.791-2.39 6.961-3.173 9.745-2.4 4.441 1.251 6.891 6.213 9.745 11.958 4.896 9.915 10.966 22.238 30.164 20.816a1.391 1.391 0 0 1 1.007 2.207 1.393 1.393 0 0 1-.803.531c-1.145.08-2.234.12-3.267.12ZM391.002 114.976a1.103 1.103 0 0 1-.25-.023 1.39 1.39 0 0 1-1.105-1.593c1.035-5.676 2.237-11.24 3.397-16.619 5.648-26.148 10.525-48.73-8.585-63.814a1.384 1.384 0 0 1-.687-.944 1.382 1.382 0 0 1 .275-1.134 1.392 1.392 0 0 1 2.12-.072c20.451 16.146 15.406 39.496 9.564 66.543-1.156 5.356-2.353 10.897-3.378 16.531a1.395 1.395 0 0 1-1.351 1.125ZM311.218 44.842a1.394 1.394 0 0 1-1.393-1.297c-.199-3.637-3.197-11.254-8.302-16.1a1.393 1.393 0 0 1-.535-1.595 1.393 1.393 0 0 1 2.429-.392c5.875 5.56 8.933 14 9.151 17.934a1.35 1.35 0 0 1-.345.993 1.358 1.358 0 0 1-.95.453l-.055.004ZM320.656 54.71a1.392 1.392 0 0 1-1.392-1.301c-.19-3.706 1.559-7.774 4.576-10.656 2.645-2.53 5.786-3.771 8.896-3.465a1.388 1.388 0 0 1 .622 2.345c-.239.23-.551.368-.882.388-2.274-.222-4.678.746-6.734 2.715-2.455 2.344-3.884 5.615-3.712 8.53a1.388 1.388 0 0 1-1.3 1.44l-.074.005Z" fill="#5B2714"/><path d="M379.781 142.047a1.393 1.393 0 0 1-1.278-1.173 1.39 1.39 0 0 1 .861-1.505c.464-.153 11.981-3.934 12.613-14.849.283-4.818-.97-8.608-3.351-10.137-1.559-.996-3.531-.968-5.569.107a1.39 1.39 0 0 1-1.28-2.428c2.905-1.529 5.94-1.519 8.353 0 3.248 2.103 4.951 6.699 4.603 12.606-.594 10.193-9.406 15.674-14.525 17.305a1.434 1.434 0 0 1-.427.074Z" fill="#5B2714"/><path fill-rule="evenodd" clip-rule="evenodd" d="M360.059 115.504c-.06-2.779-1.991-4.98-4.315-4.924-2.325.055-4.177 2.316-4.098 5.096.079 2.78 1.991 4.98 4.316 4.929 2.325-.051 4.158-2.349 4.097-5.101ZM311.556 115.922c-.06-2.78-1.99-4.981-4.315-4.93-2.325.051-4.177 2.34-4.098 5.096.079 2.757 1.996 4.981 4.316 4.934 2.32-.046 4.158-2.33 4.097-5.1Z" fill="#5B2714"/><path d="M383.717 129.677a1.4 1.4 0 0 1-.613-.144 1.389 1.389 0 0 1-.622-1.853 19.169 19.169 0 0 1 3.541-4.874 1.39 1.39 0 0 1 1.768.233 1.392 1.392 0 0 1 .088 1.778 16.565 16.565 0 0 0-2.946 4.077 1.398 1.398 0 0 1-1.216.783ZM333.557 170.711h-.199c-15.24-.176-18.15-17.536-18.177-17.712a1.392 1.392 0 0 1 .994-1.53c.214-.061.44-.07.658-.026a92.074 92.074 0 0 0 16.241 1.853 129.59 129.59 0 0 0 16.006-1.052 1.338 1.338 0 0 1 1.178.408c.15.157.261.347.323.555.063.207.077.427.039.64-.018.167-3.206 16.864-17.063 16.864Zm-15.212-16.178c1.147 4.137 4.836 13.315 15.04 13.435h.167c9.17 0 12.767-8.802 13.922-12.754-4.787.543-9.6.819-14.418.824a91.594 91.594 0 0 1-14.711-1.505Z" fill="#5B2714"/><path fill-rule="evenodd" clip-rule="evenodd" d="M415.133 139.754a11.143 11.143 0 0 0 7.044-4.791c2.729-4.17 3.713-12.375 3.713-12.375s.148 8.052 2.877 12.278c2.728 4.225 8.251 4.457 8.251 4.457s-4.975.671-7.764 4.656c-2.789 3.984-3.402 12.402-3.402 12.402s-.464-7.482-3.104-11.531c-2.641-4.049-7.615-5.096-7.615-5.096ZM446.271 73.507a8.584 8.584 0 0 0 5.434-3.706c2.107-3.207 2.877-9.545 2.877-9.545s.112 6.213 2.218 9.47c2.107 3.257 6.367 3.442 6.367 3.442s-3.838.515-5.991 3.591c-2.153 3.076-2.622 9.572-2.622 9.572s-.343-5.778-2.399-8.9c-2.056-3.123-5.884-3.924-5.884-3.924ZM223.071 117.001a6.674 6.674 0 0 0 4.213-2.872c1.634-2.488 2.233-7.413 2.233-7.413s.088 4.813 1.721 7.343c1.634 2.53 4.933 2.664 4.933 2.664s-2.975.398-4.641 2.78c-1.665 2.381-2.032 7.413-2.032 7.413s-.265-4.476-1.856-6.899c-1.592-2.423-4.571-3.016-4.571-3.016Z" fill="#fff"/><path d="M424.507 557.536h-.144c-6.116-.046-11.43-3.113-12.066-6.987-.213-1.232-.18-4.29 4.678-6.022 2.033-.732 3.666-1.251 5.105-1.715 4.213-1.348 6.761-2.159 13.299-6.314 8.864-5.629 15.314-8.409 22.275-9.586 2.701-.463 5.402-1.14 8.019-1.802 3.87-.982 7.527-1.914 11.253-2.187a68.351 68.351 0 0 1 9.406.13c4.85.301 9.43.584 14.256-1.205 15.379-5.689 22.762-18.833 29.899-31.546 5.935-10.563 11.541-20.538 21.291-24.846a1.388 1.388 0 0 1 1.625.784 1.388 1.388 0 0 1-.516 1.727c-8.915 3.933-14.298 13.523-20.001 23.679-7.039 12.532-15.017 26.732-31.342 32.778-5.369 1.988-10.237 1.687-15.379 1.39a64.11 64.11 0 0 0-9.035-.125c-3.489.255-7.03 1.149-10.78 2.103-2.668.677-5.429 1.39-8.241 1.854-6.641 1.125-12.59 3.706-21.231 9.196-6.844 4.341-9.666 5.244-13.944 6.611-1.425.463-3.026.968-5.022 1.687-1.201.43-3.178 1.389-2.904 2.997.334 1.941 3.786 4.633 9.401 4.703 3.536.051 7.578-1.2 11.444-2.391 5.188-1.598 10.088-3.109 14.385-1.946a1.393 1.393 0 0 1 .774 1.632 1.387 1.387 0 0 1-1.493 1.018c-3.499-.926-8.042.463-12.84 1.918-4.07 1.191-8.219 2.465-12.172 2.465Z" fill="#5B2714"/><path d="M431.588 557.995a24.356 24.356 0 0 1-4.826-.464 1.393 1.393 0 0 1-.881-1.582 1.394 1.394 0 0 1 1.433-1.109c7.346 1.519 14.191-1.186 21.44-4.04a144.023 144.023 0 0 1 5.615-2.132 1.393 1.393 0 0 1 1.573 1.865 1.39 1.39 0 0 1-.645.725c-1.856.644-3.68 1.39-5.518 2.094-5.856 2.284-11.856 4.643-18.191 4.643Z" fill="#5B2714"/><path d="M437.389 572.816a20.761 20.761 0 0 1-6.14-.811c-3.656-1.145-6.496-2.989-9.772-5.097-1.973-1.283-4.01-2.603-6.455-3.928-6.929-3.739-11.138-11.912-10.149-16.443a1.39 1.39 0 0 1 2.233-1.035 1.397 1.397 0 0 1 .547 1.033 1.39 1.39 0 0 1-.098.591c-.687 3.132 2.691 10.16 8.775 13.435 2.543 1.39 4.724 2.78 6.645 4.04 3.114 2.02 5.801 3.767 9.096 4.795 4.492 1.39 10.752.38 16.817-.607 5.221-.847 10.158-1.653 14.274-1.079a1.388 1.388 0 0 1 1.174 1.543 1.389 1.389 0 0 1-1.549 1.172c-3.713-.519-8.442.255-13.458 1.075-4.033.644-8.158 1.316-11.94 1.316Z" fill="#5B2714"/><path d="M468.392 583.897c-.176 0-.351-.033-.515-.097-1.977-.797-12.2-2.678-18.836-3.762a225.357 225.357 0 0 0-6.399-.927c-2.32-.319-4.432-.616-6.214-.926-8.246-1.506-15.671-6.588-23.374-16.002a1.39 1.39 0 0 1 2.13-1.738c7.365 9.002 14.07 13.64 21.741 15.039 1.745.32 3.824.607 6.098.926 2.032.278 4.218.584 6.464.927.162.028 16.307 2.669 19.416 3.92a1.387 1.387 0 0 1 .325 2.303 1.397 1.397 0 0 1-.836.342v-.005Z" fill="#5B2714"/><path d="M481.882 594.641c-5.373 0-9.308-1.682-13.457-3.465-.928-.389-1.856-.792-2.835-1.186-3.671-1.478-7.996-2.27-13.978-3.368l-3.499-.649c-7.397-1.39-11.09-4.415-15.364-7.918l-1.49-1.209a1.391 1.391 0 0 1 1.722-2.14l1.508 1.227c4.148 3.396 7.425 6.079 14.135 7.344l3.485.644c6.139 1.13 10.58 1.945 14.511 3.521.997.403 1.953.815 2.891 1.213 4.06 1.738 7.573 3.244 12.385 3.244h.075c3.355 0 5.629-1.446 9.072-3.619.928-.565 1.856-1.177 2.947-1.816.765-.463 1.689-.987 2.71-1.575 4.371-2.52 10.357-5.977 14.153-9.113a605.494 605.494 0 0 0 7.383-6.208c5.151-4.36 10.989-9.299 17.17-14.27 2.321-1.853 5.935-4.424 10.534-7.677 14.59-10.322 36.637-25.917 46.146-39.806 12.469-18.217 15.026-31.171 9.118-46.209-2.39-6.083-5.712-11.977-9.559-18.796-5.805-10.309-13.035-23.128-19.379-41.354a1.389 1.389 0 0 1 1.365-2.038 1.403 1.403 0 0 1 1.005.589c.115.165.193.352.229.55 6.26 17.99 13.123 30.165 19.179 40.904 3.893 6.913 7.258 12.885 9.745 19.144 6.288 16.011 3.648 29.679-9.411 48.762-9.787 14.293-32.075 30.059-46.827 40.492-4.377 3.099-8.158 5.773-10.4 7.575-6.139 4.948-11.968 9.877-17.105 14.228-2.784 2.349-5.285 4.471-7.425 6.226-3.972 3.285-10.074 6.806-14.534 9.378-1.011.583-1.921 1.107-2.677 1.556-1.049.626-2 1.223-2.887 1.779-3.568 2.252-6.385 4.026-10.525 4.04h-.116Z" fill="#5B2714"/><path d="M512.862 517.368a1.679 1.679 0 0 1-.255-.023 1.393 1.393 0 0 1-1.1-1.598c7.425-40.099-17.555-95.129-65.25-109.982a1.404 1.404 0 0 1-.976-.635 1.39 1.39 0 0 1 1.214-2.13c.201.005.398.054.579.142 49.069 15.289 74.763 71.871 67.134 113.1a1.391 1.391 0 0 1-1.346 1.126Z" fill="#5B2714"/><path d="M380.338 509.437a1.398 1.398 0 0 1-.85-.461 1.388 1.388 0 0 1 .822-2.287c73.97-1.561 134.9-35.447 149.662-52.385a1.395 1.395 0 0 1 1.807.017 1.389 1.389 0 0 1 .267 1.785c-18.186 20.849-82.662 51.867-151.68 53.331h-.028ZM485.887 457.01c-8.817 0-19.699-2.697-31.091-5.518-8.715-2.164-17.732-4.401-26.289-5.56-21.88-2.914-41.263 1.46-41.458 1.501a1.386 1.386 0 0 1-1.168-.051 1.406 1.406 0 0 1-.717-.923 1.394 1.394 0 0 1 .692-1.533c.178-.096.374-.153.575-.166.2-.046 20.034-4.54 42.443-1.547 8.705 1.158 17.791 3.414 26.585 5.596 13.922 3.457 27.101 6.718 36.141 4.93 8.441-1.673 13.968-5.18 16.432-10.42 4.223-8.992-1.857-20.362-1.917-20.473a1.387 1.387 0 0 1 .552-1.853 1.395 1.395 0 0 1 1.857.547c.278.514 6.803 12.685 1.99 22.942-2.854 6.079-9.039 10.105-18.385 11.958a32.121 32.121 0 0 1-6.242.57ZM482.091 525.554a1.388 1.388 0 0 1-1.007-2.316c3.147-3.387 6.246-6.949 9.249-10.383 6.659-7.635 12.947-14.825 18.265-18.531 12.065-8.386 22.78-6.255 23.23-6.162a1.388 1.388 0 0 1 .357 2.397 1.389 1.389 0 0 1-.918.29c-.093 0-10.061-1.941-21.101 5.726-5.039 3.503-11.22 10.587-17.763 18.069-3.012 3.461-6.126 7.033-9.281 10.452a1.406 1.406 0 0 1-1.031.458ZM219.641 765c1.425-20.886 5.732-60.762 9.073-72.997a1.395 1.395 0 0 0-1.015-1.502 1.392 1.392 0 0 0-1.64.774c-3.383 12.394-7.74 52.71-9.169 73.725h2.751ZM493.4 765h2.784c-.928-21.395-3.856-54.841-7.23-70.569a1.388 1.388 0 0 0-1.629-1.057 1.392 1.392 0 0 0-1.058 1.631c3.323 15.585 6.233 48.73 7.133 69.995ZM359.753 765c1.977-9.669 5.499-21.27 8.747-25.592a1.388 1.388 0 0 0-.675-2.361 1.407 1.407 0 0 0-1.14.258 1.38 1.38 0 0 0-.384.458c-3.592 4.776-7.318 17.142-9.342 27.237h2.794Z" fill="#5B2714"/></g><defs><clipPath id="a"><path fill="#fff" transform="translate(0 42)" d="M0 0h692v574H0z"/></clipPath><clipPath id="b"><path fill="#fff" transform="translate(45)" d="M0 0h562v765H0z"/></clipPath></defs></svg>