<svg viewBox="0 0 574 821" fill="none" xmlns="http://www.w3.org/2000/svg"><g clip-path="url(#a)"><path d="M30.345 250.168C71.425 319.329 3.787 418.621.114 626.497c-.34 19.937-.396 40.437 6.893 59.079 7.968 20.388 24.242 37.058 42.72 49.787 49.274 34.017 115.275 42.07 174.325 28.103 59.05-13.967 111.319-48.322 152.456-91.069 23.507-24.386 44.132-51.983 72.781-70.681 25.655-16.783 56.79-25.738 79.901-45.619 38.199-33.06 45.15-87.408 44.811-136.632-.283-32.609-2.995-66.513-20.004-94.786-24.92-41.395-74.42-61.951-116.348-87.971-33.735-20.951-63.853-46.633-96.006-69.667-38.142-27.315-79.223-50.801-122.394-70.062-25.768-11.49-39.499-15.432-58.485-17.74-53.117-6.309-122.621 10.813-147.71 57.22-4.973 9.124-7.007 17.065-7.572 19.937-7.064 40.044 24.863 93.772 24.863 93.772Z" fill="#F90"/></g><g clip-path="url(#b)"><path d="M81.702 567.418a48.065 48.065 0 0 0 10.67 10.92c6.503 4.686 15.614 7.808 15.614 7.808l-17.955 39.528s-8.59-6.233-17.179-11.185c-5.46-3.117-10.925-4.159-13.788-7.797-3.645-4.425-1.825-17.69 4.422-26.014 6.764-9.361 18.216-13.26 18.216-13.26ZM240.963 672.751l20.036 38.752-37.203 22.371s-13.04-8.584-17.179-18.699c-4.138-10.114.783-19.77.783-19.77l33.563-22.654Z" fill="#FFEDDE"/><path d="M194.383 24.875c9.638-10.403 37.985-6.233 37.985-6.233s5.465-11.446 12.751-13.032c11.713-2.601 18.476 7.802 18.476 7.802s7.807-2.861 18.216.516c8.85 2.862 20.297 10.403 23.16 22.892 1.304 5.462 6.509 37.45 16.135 51.235 9.888 14.563 24.203 11.186 29.669 30.95.26 1.303 1.037 8.324.776 10.664-.516 7.282-3.118 13.526-1.82 21.328 1.044 7.021 9.372 9.361 5.726 10.665-9.887 3.898-14.054 1.037-14.054 1.037 1.825 7.281 7.546 10.924 10.931 18.988a111.99 111.99 0 0 1 3.123 11.701c1.299 7.802-14.315 33.55-13.533 40.055.261 3.122 2.603 3.899 2.864 6.499.521 4.687-9.366 2.086-9.366 2.086a17.26 17.26 0 0 1-2.863 6.233 14.755 14.755 0 0 1-5.466 3.904l-172.266-94.646s4.683-10.403 2.863-15.865c-3.124-9.101-13.04-16.903-10.409-30.168 2.835-15.084 17.694-16.387 25.762-30.69 5.465-9.881 4.944-22.625 8.328-34.332 2.863-8.845 9.627-17.945 13.012-21.588Z" fill="#BE8256"/><path d="M167.577 153.36s10.41 4.42 24.986 8.84c13.527 4.165 30.705 8.063 42.413 8.324 24.724.782 31.227-14.302 31.227-14.302s9.372 4.159 20.818 8.839c10.67 4.426 23.16 8.324 31.228 25.233 8.067 16.908 8.85 68.138 8.85 68.138l2.834 46.555-3.645 60.63s-13.272 9.633-20.818-2.34c-7.286-11.962-8.589-44.997-8.589-44.997l-6.237-.261-1.82 36.673s-12.235-4.42-44.788-4.941c-32.554-.521-85.354 3.122-85.354 3.122l-.522-9.361a42.527 42.527 0 0 1-11.713 2.834c-7.807.521-16.651-1.304-20.036-5.723-2.834-3.905-10.148-17.946-13.793-50.46-3.64-32.768-3.901-84.009-1.559-95.449 4.161-22.887 13.788-25.499 24.197-30.429 15.404-7.542 32.321-10.925 32.321-10.925Z" fill="#fff"/><path d="m365.35 187.953 3.907-2.6 114.239-9.633 2.835 1.824-30.938 121.986-5.466 3.898-112.419 18.467-3.124-1.819-102.793-6.505-.516-1.297 8.584-3.123 57.261-15.344 42.941 2.079 25.489-107.933Z" fill="#B4B9C8"/><path d="M157.951 352.068s50.741-5.723 83.273-4.946c32.531.776 47.101 7.802 47.101 7.802l-1.825 33.551s-13.011 7.547-46.32 2.085c-33.308-5.462-86.657-23.408-86.657-23.408l4.428-15.084ZM322.444 326.315c7.807-7.281 15.092-1.298 15.092-1.298l9.854-4.408 14.31-2.833s4.688-4.947 7.29-5.723c4.683-1.559 2.864 4.159 2.864 4.159l11.185-1.819s7.807-7.542 10.931-8.063c8.589-1.304 2.081 6.233 2.081 6.233a106.448 106.448 0 0 1 11.191-2.346c7.285-1.037 14.832-1.298 16.396 0 1.565 1.297-1.304 4.425-5.987 5.983-4.683 1.559-11.968 1.819-16.912 4.687-3.645 2.334-33.052 6.76-36.692 9.36-13.272 10.143-21.079 23.669-21.079 23.669l-10.149 9.361-6.236 3.122s-9.638-2.833-10.931-10.664c-2.608-15.112-1.043-22.139 6.792-29.42ZM191.781 289.903s20.557-3.123 47.878-11.18c18.477-5.462 41.387-15.605 56.989-17.951 12.757-2.08 26.029-2.833 33.314-2.08 6.503.522 8.328 2.08 10.931 3.644a91.65 91.65 0 0 1 5.72 3.643l-1.82 5.978a41.725 41.725 0 0 0-7.546-2.601 29.306 29.306 0 0 0-7.285 0 40.29 40.29 0 0 1 7.546 6.488 28.216 28.216 0 0 1 4.683 8.319l-1.298 7.287-2.603-1.043s-3.645 2.833-14.576-.261c-3.124-.782-12.472-2.601-16.135-2.34-5.465.261-14.049 2.862-19.514 3.644-4.428.515-10.149-.522-14.055.776-20.818 6.505-40.071 17.69-40.071 17.69l-34.873 16.382s-6.764-6.76-8.589-15.866c-1.826-9.106 1.304-20.529 1.304-20.529ZM200.109 81.573c3.64-3.4 6.503 0 12.229 1.564 4.944 1.298 12.75.782 16.651-1.303 6.236-3.4 12.235-9.361 16.657-15.606 3.645-5.201 5.987-11.7 10.67-11.7 4.944-.261 8.067 2.34 12.229 3.898 2.602 1.042 6.508.521 8.589 2.833 3.645 4.165 1.559 16.127 0 27.573-1.82 13.004.782 15.605-10.409 35.89-8.589 15.345-14.055 13.526-14.055 13.526l-1.82 6.233a30.201 30.201 0 0 0 6.77 6.505c4.161 3.117 9.105 6.233 9.105 6.233s-8.589 15.09-33.308 14.047c-13.533-.521-33.569-6.233-47.363-10.925-11.452-3.898-18.216-7.02-18.216-7.02s22.899-8.324 30.445-20.547c7.546-12.222 5.205-32.513 5.205-32.513s-12.229-10.364-3.379-18.688Z" fill="#FFEDDE"/><path d="M153.007 365.328s1.298-1.819 4.944-1.819c6.236-.261 17.694 1.558 30.445 4.419 17.433 4.165 38.773 15.345 54.387 17.685 31.227 4.686 44.788-3.898 44.788-3.898a71.339 71.339 0 0 1-.26 9.882c-.522 4.68-2.081 7.802-.783 13.786.522 2.34 2.347 5.984 3.124 8.585.782 2.833-.777 8.324.522 11.701 9.105 21.849 24.202 44.996 37.73 73.096 13.794 28.609 26.544 60.063 35.15 85.562 5.726 16.908 10.409 30.434 11.192 40.316.521 5.978-2.835 19.266-7.291 26.009-5.721 8.839-12.473 12.743-22.899 20.285-7.807 5.463-18.477 14.563-27.321 21.329-8.844 6.765-17.439 15.605-25.762 22.886-4.428 3.644-8.85 8.579-13.04 8.84-3.124.26-6.508-1.819-10.148-4.16-7.807-5.462-15.875-14.307-20.302-24.189a52.704 52.704 0 0 1-4.944-27.046c.261-3.122 4.683-6.233 12.75-13.004 8.59-7.287 19.52-17.169 29.408-24.711 11.191-8.579 20.296-14.302 20.296-14.302s-15.092-22.892-36.431-51.241c-8.845-11.962-20.036-23.147-28.348-34.565a278.272 278.272 0 0 1-18.998-30.95 561.829 561.829 0 0 0-7.285 75.425c-.777 30.168 2.602 63.979-3.901 84.265-2.602 8.324-8.067 15.866-12.229 18.988-5.987 4.68-13.272 5.984-23.42 3.4-13.272-3.644-30.451-13.265-46.325-23.153-5.466-3.4-16.652-7.021-24.458-9.633-5.987-1.819-9.372-2.601-11.453-5.984-2.602-4.419-2.602-27.827.522-36.151 6.236-17.163 21.079-21.322 21.079-21.322l27.843 8.318s-3.646-18.206-9.106-39.008c-6.236-23.929-14.315-52.799-12.756-83.227 1.565-29.131 11.974-53.581 20.303-73.096 7.228-19.272 12.977-33.318 12.977-33.318Z" fill="#FFBD65"/><path d="M41.625 548.963c5.465-8.063 14.576-13.525 21.34-12.222 5.465.776 9.11 7.797 9.11 7.797L45.01 612.427s-8.068 39.013-22.638 46.294c-11.713 5.723-19.52-7.021-20.297-11.44-1.825-13.787-.521-27.567 3.64-39.274 1.304-3.4 3.124-9.106 4.428-11.707 4.943-9.633 10.409-13.032 16.39-21.583 6.248-8.602 12.235-21.606 15.092-25.754ZM162.373 711.503c1.043-3.898 13.794-7.542 13.794-7.542l17.955 71.266s24.719 32.248 24.203 40.311c-.261 2.34-7.807 6.505-13.273 2.833-6.508-4.42-13.532-15.344-15.097-18.699-1.82-3.4-5.205-8.324-7.025-15.084-2.863-11.185-4.422-26.79-8.583-39.273-5.21-15.084-13.794-26.27-11.974-33.812Z" fill="#fff"/><path d="M173.825 706.823c4.422-5.463 35.151-11.962 35.151-11.962s-3.402 11.962 1.825 20.546c3.119 4.941 10.404 6.499 14.832 9.1 3.401 1.819 4.683 5.463 4.683 5.463a175.18 175.18 0 0 0-6.764 35.89c-1.565 19.77.516 43.178.516 43.178s-7.025 18.699-18.471 4.42a91.079 91.079 0 0 1-14.576-29.392c-3.402-12.222-3.646-27.045-7.286-39.267-3.123-10.665-8.589-17.691-10.669-24.19-1.843-5.723-1.327-11.446.759-13.786ZM48.655 549.734c7.025-7.287 16.396-10.403 22.378-5.723 4.167 3.4 6.769 9.882 8.589 15.084a363.67 363.67 0 0 1 3.124 8.324 27.016 27.016 0 0 0-12.75 5.978c-4.945 3.904-9.372 11.707-10.932 16.387-5.465 17.685 5.205 20.025 5.205 20.025l-18.71 23.668s-9.887 18.467-21.6 22.371c-8.067 2.833-16.39-3.643-16.39-12.749 0-5.978 0-22.626 3.118-32.247 4.428-14.047 13.533-21.068 21.34-32.775 6.22-8.839 11.163-23.141 16.628-28.343Z" fill="#FF8D5C"/><path d="M154.566 364.806h-.504a1.826 1.826 0 0 1-.777-1.558 51.496 51.496 0 0 0 3.402-19.503 1.224 1.224 0 0 1 .792-1.226c.163-.062.338-.088.512-.078a1.392 1.392 0 0 1 1.298 1.304c.261 7.542-1.559 15.865-3.64 20.546-.039.26-.561.515-1.083.515ZM145.722 629.839a1.74 1.74 0 0 1-1.304-1.042c-4.161-34.593-7.285-50.459-13.794-75.165l-1.559-5.723c-7.807-29.652-15.092-57.74-10.148-93.11 2.835-21.067 16.135-51.756 24.979-72.042 3.402-7.802 5.987-14.047 7.286-17.951a1.237 1.237 0 0 1 2.242-.129c.149.28.184.606.099.911-1.298 3.904-4.161 10.143-7.546 17.946-8.844 20.285-22.111 50.719-24.979 71.526-4.944 34.854 2.08 61.378 9.887 92.067l1.565 5.723c6.503 24.711 9.638 40.832 13.788 75.425.782.782.261 1.564-.516 1.564ZM200.886 675.89a.945.945 0 0 1-.777-.26 1.255 1.255 0 0 1-.29-1.405 1.26 1.26 0 0 1 .29-.414c12.473-12.466 12.473-36.412 12.473-69.447 0-13.033 0-27.828.776-43.694a22.504 22.504 0 0 1 .261-3.898c.783-15.605 2.342-57.231 10.67-76.496a1.178 1.178 0 0 1 1.138-.699 1.166 1.166 0 0 1 .949 1.741c-8.068 18.699-9.639 60.064-10.415 75.425a17.565 17.565 0 0 1-.255 3.899c-.783 15.866-.783 30.428-.783 43.438 0 33.551.261 57.996-13.272 71.261-.244.272-.505.549-.765.549ZM88.987 625.675a.942.942 0 0 1-.776-.261l-.783-.521c-10.93-7.537-20.296-11.962-24.724-14.302-1.038-.522-1.82-.782-2.342-1.043a1.162 1.162 0 0 1 .155-2.143c.293-.098.613-.075.889.064.718.294 1.414.643 2.08 1.042a158.253 158.253 0 0 1 25.24 14.563l.783.521a.98.98 0 0 1 .529.713.973.973 0 0 1-.268.845c0 .261-.261.522-.783.522Z" fill="#331C19"/><path d="M19.508 658.188a11.62 11.62 0 0 1-5.204-1.042c-4.162-1.819-7.025-5.978-7.807-11.186-1.56-11.44-.26-23.662 4.161-37.709 2.603-8.585 8.068-14.823 13.272-20.807 3.402-3.899 7.03-8.063 9.639-13.033 1.82-3.122 3.401-6.233 4.943-9.106 5.982-11.961 11.708-23.147 24.458-24.184 10.67-1.042 14.576 9.1 18.71 20.807.521 1.298 1.043 2.601 1.559 3.899.782 2.085 4.688 7.287 8.328 10.142 3.64 2.856 11.452 7.027 16.918 9.367a1.156 1.156 0 0 1 .583.673 1.165 1.165 0 0 1-1.626 1.406c-5.727-2.34-13.789-6.765-17.434-9.632-3.906-3.123-8.068-8.585-9.11-11.186-.517-1.303-1.038-2.601-1.56-3.904-4.161-11.18-7.546-20.025-16.396-19.266-11.447 1.037-16.651 11.186-22.638 22.887-1.56 3.122-3.124 6.233-4.944 9.361-2.835 4.941-6.508 9.366-9.887 13.265-5.205 6.233-10.149 11.967-12.751 20.03-4.167 13.781-5.465 25.748-4.167 36.667.522 4.165 2.863 7.548 6.236 9.106 3.64 1.559 8.068 1.043 12.23-1.819 5.204-3.399 11.968-12.743 18.476-22.098 5.987-8.579 12.23-17.425 17.434-21.589.521-.516 1.304-.255 1.825.26.522.516.261 1.304-.26 1.825-4.944 3.898-10.931 12.466-16.918 21.067-7.025 9.883-13.533 18.983-18.993 22.626a16.042 16.042 0 0 1-9.077 3.173Z" fill="#331C19"/><path d="M183.191 683.415c-14.054 0-31.488-9.633-52.045-22.099-9.105-5.457-18.477-8.579-25.762-11.18-8.59-2.833-15.092-4.941-15.614-9.633-.521-3.637-3.124-22.365 2.342-36.667 4.683-12.749 17.955-21.328 22.383-20.03 3.639 1.042 24.458 8.063 27.06 9.366a1.165 1.165 0 0 1 .522 1.559 1.168 1.168 0 0 1-1.56.521c-2.347-1.303-22.904-8.063-26.805-9.367-2.602-.776-14.837 6.505-19.276 18.473-5.204 13.78-2.602 31.986-2.08 35.63.521 3.116 6.502 5.202 14.054 7.542 7.546 2.601 16.912 5.462 26.284 11.18 23.936 14.568 43.456 25.232 57.505 20.806 7.03-2.079 12.75-8.057 17.439-18.206a1.171 1.171 0 0 1 .674-.582 1.165 1.165 0 0 1 1.407 1.625c-4.944 10.664-11.192 16.908-18.709 19.509-2.614 1.292-5.199 1.553-7.819 1.553ZM307.84 626.457c-.522 0-1.038-.261-1.038-.782-6.508-18.727-25.246-41.875-43.201-64.24-14.049-17.424-28.914-35.63-37.73-51.756a1.166 1.166 0 0 1 .519-1.562 1.166 1.166 0 0 1 1.562.519c8.844 15.866 23.42 34.072 37.469 51.496 18.216 22.371 36.953 45.779 43.462 64.761a1.16 1.16 0 0 1-.782 1.564h-.261ZM287.021 382.757a1.228 1.228 0 0 1-1.298-1.303l.261-4.159c1.82-22.892 3.118-40.832 3.118-59.559a1.302 1.302 0 0 1 1.82-1.282 1.305 1.305 0 0 1 .782 1.282c0 18.982-1.298 36.928-3.118 59.82l-.261 4.159a1.732 1.732 0 0 1-1.304 1.042ZM374.201 626.978c-.522 0-1.304-.522-1.304-1.043-.522-10.403-4.683-25.748-11.708-43.433a955.945 955.945 0 0 1-3.401-8.584c-10.931-28.088-30.967-80.106-68.442-145.626a1.163 1.163 0 0 1 .548-1.511 1.166 1.166 0 0 1 1.538.469c37.731 65.803 57.766 117.82 68.697 145.914 1.304 3.117 2.342 5.978 3.402 8.579 7.024 17.945 11.446 33.811 11.968 44.198 0 .26-.522.782-1.298 1.042v-.005ZM230.293 731.794a.949.949 0 0 1-.782-.26 1.602 1.602 0 0 1-.261-1.825c1.304-1.558 7.03-4.941 18.477-11.962 3.123-1.824 6.236-3.904 9.893-5.983a1.167 1.167 0 0 1 .887-.062 1.156 1.156 0 0 1 .734 1.47 1.154 1.154 0 0 1-.584.671 244.493 244.493 0 0 0-9.887 5.984c-9.366 5.462-16.657 9.882-17.695 11.446-.26.261-.521.521-.782.521ZM208.953 695.637c-.521 0-1.037-.26-1.037-.776a1.253 1.253 0 0 1 .516-1.564s10.93-4.941 31.488-21.844c.521-.521 1.304-.26 1.825.255.522.516.261 1.304-.26 1.825-20.819 17.424-31.749 22.099-32.01 22.365a.806.806 0 0 0-.522-.261Z" fill="#331C19"/><path d="M277.134 725.029h-.522c-5.465-.782-20.557-10.925-28.347-24.966-7.285-12.744-11.452-30.434-5.726-35.375.782-.782 2.086-1.819 3.906-3.4 10.409-9.361 34.584-31.465 51.263-40.05a1.16 1.16 0 0 1 1.626 1.407 1.165 1.165 0 0 1-.582.673c-16.136 8.584-40.339 30.434-50.748 39.795-1.82 1.558-3.124 2.833-3.9 3.399-3.646 3.117-1.826 18.467 6.236 32.508 7.546 13.265 21.601 23.148 26.545 23.929 2.08.522 11.452-7.542 20.818-16.126 9.371-8.324 20.818-18.467 34.09-28.61a238.633 238.633 0 0 1 10.67-7.802c15.092-10.664 27.066-19.266 29.408-36.152.776-5.201 1.037-8.845-.261-15.344-.261-.782.261-1.303 1.037-1.303.522-.255 1.304.26 1.304 1.042a42.476 42.476 0 0 1 .261 16.127c-2.602 17.945-15.614 27.045-30.451 37.709-3.401 2.601-7.024 4.942-10.669 7.803-13.267 10.143-24.719 20.291-33.83 28.61-12.501 10.664-18.743 16.126-22.128 16.126ZM214.418 819.442h-1.298c-9.638-1.304-20.041-25.499-21.34-29.131-3.906-11.186-4.944-19.77-5.726-27.051-1.043-9.101-2.081-16.903-7.807-27.828-4.422-8.324-9.366-18.467-8.067-25.227 1.304-6.233 5.987-7.542 15.613-10.142 1.043-.261 2.342-.782 3.646-1.043 4.422-1.303 7.807-2.601 10.67-3.4 5.72-2.079 8.844-3.122 10.148-1.037a.943.943 0 0 1 .261.777v.521c-3.402 18.206 2.834 21.328 9.887 24.971l1.82 1.037c6.509 3.123 9.638 4.681 8.329 10.925a31.984 31.984 0 0 1-1.044 4.159c-1.298 5.202-3.118 13.033-4.683 27.052a135.737 135.737 0 0 0 0 31.21c.261 2.601.522 4.941.522 7.021.261 4.941-1.043 11.706-5.205 15.089a8.608 8.608 0 0 1-5.726 2.097Zm-6.763-124.065c-1.304 0-4.428 1.042-7.03 2.085-2.835 1.037-6.503 2.34-10.926 3.638-1.303.26-2.602.781-3.645 1.042-9.105 2.601-12.751 3.638-13.794 8.324-1.298 5.978 3.907 16.121 7.807 23.408 5.987 11.18 7.03 19.265 8.068 28.609.782 7.282 1.82 15.605 5.726 26.785 2.081 6.233 12.229 26.53 19.514 27.573a6.275 6.275 0 0 0 5.205-1.564c2.834-2.601 4.428-7.803 4.428-13.265 0-2.08-.261-4.159-.522-6.76-.522-7.542-1.559-17.685 0-31.732 1.559-14.302 3.402-22.365 4.683-27.567.261-1.564.782-2.833 1.043-4.164.777-4.159-.522-4.941-7.03-8.319l-1.82-1.042c-7.546-3.4-15.092-7.021-11.707-27.051Z" fill="#331C19"/><path d="M209.736 821a22.682 22.682 0 0 1-4.162-.521c-4.688-1.298-14.837-13.265-21.339-29.647-3.646-9.633-5.987-20.807-7.807-29.912-1.043-5.723-2.085-10.404-3.124-14.042-.522-1.303-1.043-2.833-1.565-4.164-1.298-3.123-2.602-6.233-4.161-9.361-2.342-5.202-4.683-10.404-6.237-15.606-2.602-9.105 5.46-11.706 11.186-13.525.783-.261 1.826-.521 2.602-.782a1.231 1.231 0 0 1 .975.031 1.24 1.24 0 0 1 .567 1.699 1.231 1.231 0 0 1-.759.61c-.783.261-1.82.521-2.602.782-7.025 2.34-11.453 4.159-9.639 10.664 1.56 5.202 3.901 10.404 5.982 15.345 1.304 3.122 2.834 6.505 4.167 9.633.521 1.563 1.037 2.833 1.559 4.425 1.043 3.638 2.081 8.579 3.124 14.302 1.82 9.366 3.9 20.286 7.546 29.652 6.236 16.382 16.396 27.046 19.775 28.088 3.645 1.043 7.291.522 11.452-1.819a1.163 1.163 0 1 1 1.043 2.08 20.852 20.852 0 0 1-8.583 2.068ZM64.79 611.633h-.521c-6.236-2.085-9.372-7.802-8.328-15.865 1.559-12.744 13.04-27.573 25.762-28.871a1.179 1.179 0 1 1 .26 2.341c-11.713 1.042-22.11 15.083-23.68 26.79-.523 3.899-.262 10.664 6.768 13.259a1.271 1.271 0 0 1 .777 1.564c0 .522-.521.782-1.037.782ZM16.645 661.05c-4.422 0-7.806-2.346-10.67-4.947a18.038 18.038 0 0 1-5.204-11.18c-1.56-10.403-.777-20.03 2.602-32.774.783-2.833 1.565-5.717 2.602-8.839 2.603-8.585 8.068-14.824 13.273-20.807 3.401-3.904 7.024-8.064 9.638-13.033 1.565-2.601 2.834-5.202 4.427-7.802 6.764-12.744 13.04-24.711 26.284-26.009 11.708-1.043 14.831 10.403 14.831 10.403.261.522-.26 1.298-.782 1.559-.522.26-1.298-.261-1.56-.782 0-.255-2.601-9.361-12.234-8.579-11.968 1.042-17.955 12.466-24.458 24.705-1.304 2.601-2.834 5.462-4.422 8.063-2.835 4.941-6.509 9.367-9.893 13.265-5.205 6.233-10.148 11.962-12.75 20.031-1.038 3.116-1.82 5.978-2.603 8.839-3.118 12.223-3.9 21.85-2.341 31.732.521 4.159 2.08 7.542 4.427 9.882 5.72 5.723 11.969 5.463 18.471-.26a1.287 1.287 0 1 1 1.826 1.818c-4.178 3.151-8.079 4.715-11.464 4.715ZM265.682 110.953c-.516 0-1.038-.26-1.038-.776-.261-.521.261-1.303.777-1.564 1.304-.261 3.124-1.558 3.401-2.601.261-.521 0-.782 0-1.297-.26-.522-.521-.782-.782-1.304-1.559-2.079-3.64-4.94-1.82-10.142a1.236 1.236 0 1 1 2.342.781c-1.559 4.16 0 5.979 1.304 8.064.26.515.782 1.037 1.037 1.558a3.195 3.195 0 0 1 .261 3.4c-.777 2.079-3.64 3.638-5.205 3.898l-.277-.017ZM250.068 139.053c-.952.04-1.906-.048-2.835-.261-10.409-1.558-21.856-9.361-30.184-21.062-.522-.521-.261-1.303.261-1.824.521-.522 1.298-.261 1.82.26 8.067 11.186 18.709 18.467 28.625 20.025 5.465.782 9.638-.776 12.75-4.941.522-.515 1.043-.515 1.826-.255.516.516.516 1.037.261 1.819-3.646 4.159-7.58 6.239-12.524 6.239ZM208.953 103.162c-2.6 0-5.202-1.299-7.806-3.898-3.402-3.4-5.466-7.803-5.466-11.186.261-3.643 2.342-7.02 5.205-8.324 1.564-.782 5.204-1.297 9.111 2.34a1.282 1.282 0 0 1 .281 1.403 1.282 1.282 0 0 1-1.189.797 1.293 1.293 0 0 1-.912-.375c-2.348-2.085-4.428-2.6-6.509-1.825-2.081.777-3.645 3.4-3.645 6.234 0 2.6 1.825 6.499 4.688 9.36 2.081 2.086 4.422 3.4 6.237 3.123a1.22 1.22 0 0 1 .946.357 1.232 1.232 0 0 1 .358.946 1.424 1.424 0 0 1-1.304 1.037l.005.011Z" fill="#331C19"/><path d="M206.611 93.801c-.521 0-1.037-.26-1.037-.782-.782-2.08-2.086-2.861-2.347-2.861a1.125 1.125 0 0 1-.595-.742 1.124 1.124 0 0 1 .178-.933 1.135 1.135 0 0 1 1.721-.144 11.348 11.348 0 0 1 3.124 3.898 1.252 1.252 0 0 1-.522 1.564h-.522ZM220.145 84.695a29.508 29.508 0 0 1-4.423-.515c-.782 0-1.043-.783-1.043-1.304 0-.782.783-1.042 1.298-1.042 12.473 2.346 20.303-6.233 26.545-14.302a38.87 38.87 0 0 0 2.835-4.165c4.422-6.5 8.85-12.999 17.694-8.579a1.17 1.17 0 0 1 .584.671 1.163 1.163 0 0 1-1.622 1.409c-6.508-3.4-9.887.782-14.576 7.802-1.037 1.558-2.08 2.862-3.118 4.16-4.139 5.983-11.945 15.865-24.174 15.865ZM254.496 96.663c.777-1.564.261-3.644-.782-4.165-1.304-.516-2.835.26-3.646 1.825-.811 1.564-.261 3.637.782 4.159 1.044.782 2.864.005 3.646-1.82ZM246.428 85.454c-.521 0-.782-.26-1.043-.782a1.245 1.245 0 0 1 .522-1.558c4.683-2.34 9.887-2.08 12.75-1.042.522.26 1.043 1.042.783 1.563-.261.522-1.044 1.037-1.565.777-2.342-.777-7.025-.777-10.925 1.042h-.522ZM278.177 85.454a.956.956 0 0 1-.782-.26c-.782-.522-2.602-.782-5.205 0-.521.26-1.304-.26-1.559-.782-.255-.521.255-1.298.777-1.558 4.167-1.304 6.509-.261 7.285.52.522.522.783 1.038.261 1.82a2.566 2.566 0 0 1-.777.26Z" fill="#331C19"/><path d="M259.179 116.687c-3.906 0-7.546-.26-7.546-.26s.521 9.632 7.024 9.106c6.503-.527 8.85-9.367 8.85-9.367s-4.428.521-8.328.521Z" fill="#fff"/><path d="M258.136 126.819a6.39 6.39 0 0 1-4.162-1.559c-3.124-2.833-3.401-8.584-3.645-8.584a1.568 1.568 0 0 1 .261-1.043c.26-.255.521-.255 1.043-.255 0 0 3.64.255 7.285.255a76.343 76.343 0 0 0 8.068-.515c.521 0 .782 0 1.037.515.207.306.3.676.261 1.043 0 .521-2.602 9.633-9.888 10.143h-.26Zm-5.205-9.066c.261 1.558 1.043 4.159 2.602 5.717a3.919 3.919 0 0 0 2.835 1.043c3.906-.261 5.987-4.42 7.025-6.76-2.07.234-4.154.321-6.237.26a44.18 44.18 0 0 1-6.225-.26ZM275.575 95.88c.776-1.558.776-3.4-.261-4.159-.782-.782-2.342 0-3.124 1.559-.782 1.558-.782 3.4.261 4.159 1.043.76 2.37 0 3.124-1.558ZM142.337 304.986a1.961 1.961 0 0 1-1.043-.515c-.522-.522-.261-1.304.261-1.819 10.67-8.069 26.283-10.67 44.222-13.526 11.713-1.824 24.985-3.904 39.295-7.802 21.339-5.984 33.308-10.149 42.934-13.265 5.987-2.08 11.192-3.905 17.439-5.723 10.931-3.123 24.458-4.941 40.333-4.941h.261c7.546 0 10.67 1.558 15.613 4.419 1.304.782 2.835 1.559 4.683 2.601a1.16 1.16 0 0 1 .244 1.917 1.17 1.17 0 0 1-.844.282 1.166 1.166 0 0 1-.437-.119c-1.826-1.037-3.402-1.819-4.944-2.601-4.944-2.601-7.291-4.159-14.054-4.159h-.522c-15.614 0-29.147 1.558-39.811 4.941-6.236 1.819-11.452 3.643-17.439 5.462-9.638 3.122-21.595 7.281-42.935 13.265-14.315 3.899-27.587 6.233-39.556 8.063-18.476 2.834-33.047 5.202-43.195 13.005a.566.566 0 0 1-.505.515Z" fill="#331C19"/><path d="M344.272 272.739a.955.955 0 0 1-.783-.26c-1.819-1.559-9.887-2.834-14.309-2.341-.522 0-1.304-.521-1.304-1.042a1.188 1.188 0 0 1 1.043-1.298c4.944-.521 13.794 1.037 16.135 2.862a1.598 1.598 0 0 1 .261 1.819c-.261 0-.522.26-1.043.26Z" fill="#331C19"/><path d="M341.409 284.701c-.516 0-1.038-.261-1.038-.776-4.167-9.888-10.409-13.033-18.216-17.17l-1.304-.521a1.168 1.168 0 0 1-.583-.673 1.165 1.165 0 0 1 1.626-1.406l1.299.521c8.067 4.159 15.097 7.542 19.52 18.206a1.133 1.133 0 0 1-.783 1.558c0 .261-.261.261-.521.261Z" fill="#331C19"/><path d="M341.408 286.004a.943.943 0 0 1-.776-.261c-1.826-1.563-3.907-3.399-6.237-5.201-4.944-3.644-10.148-5.984-13.794-7.542a24.774 24.774 0 0 1-2.602-1.303 1.166 1.166 0 0 1 1.043-2.086c.758.396 1.54.744 2.342 1.043a71.811 71.811 0 0 1 14.054 7.803c2.603 1.818 4.944 3.637 6.503 5.462a1.246 1.246 0 0 1 .29 1.404 1.24 1.24 0 0 1-.29.415c.25.005-.272.266-.533.266ZM339.589 291.982a18.593 18.593 0 0 1-2.081-.515 1.167 1.167 0 0 1-.524-1.561 1.164 1.164 0 0 1 1.562-.524 8.445 8.445 0 0 0 1.564.521c.783 0 1.038.782 1.038 1.303-.516.261-.777.776-1.559.776Z" fill="#331C19"/><path d="M141.815 347.382c-7.285 0-13.272-2.34-17.955-7.541-7.546-8.585-15.613-67.623-16.396-105.593-.521-30.695 1.826-52.018 14.576-63.203 6.237-5.462 17.173-9.361 29.924-13.786 8.589-3.117 17.433-6.233 25.762-10.143 15.874-7.542 25.512-16.642 25.24-39.274a1.228 1.228 0 0 1 1.304-1.297c.174-.011.347.015.51.077a1.216 1.216 0 0 1 .715.711c.062.162.089.336.079.509.255 26.53-13.533 35.376-26.544 41.614-8.329 3.904-17.44 7.027-26.023 10.143-11.974 4.165-23.16 8.063-29.147 13.265-11.968 10.403-14.054 31.21-13.794 61.384.522 40.31 9.111 96.753 15.614 104.034 10.931 12.466 29.929 6.76 65.579-9.888 17.694-8.318 29.146-13.52 42.158-19.764 5.987-2.861 12.229-5.723 19.775-9.361 18.476-8.845 23.681-8.845 29.407-8.845a29.806 29.806 0 0 0 4.683-.261 71.355 71.355 0 0 0 9.638-1.818 38.572 38.572 0 0 1 6.77-1.298l1.819-.266c4.683-.516 7.025-.777 13.273 1.042 10.93 2.862 16.917 3.644 17.694 1.819-.522-1.297-7.025-4.68-19.775-9.882-2.081-.782-3.402-1.298-3.906-1.558a1.163 1.163 0 1 1 1.043-2.08c.521.255 2.08.776 3.9 1.558 12.751 5.202 20.042 8.585 21.079 11.702.261.781 0 1.303 0 1.824-2.08 3.638-9.638 2.601-20.557-.521-5.726-1.558-8.068-1.303-12.473-1.043l-1.82.261a37.577 37.577 0 0 0-6.236 1.303 44.962 44.962 0 0 1-10.148 2.08c-1.639.21-3.292.297-4.944.26-5.205 0-10.148 0-28.347 8.585-7.286 3.4-13.794 6.499-19.781 9.361-13.04 6.233-24.458 11.701-42.152 19.764-20.62 8.845-37.532 16.126-50.544 16.126ZM326.838 259.214a1.736 1.736 0 0 1-1.304-1.043c-.777-7.02-1.298-14.302-1.559-22.099-1.298-23.668-2.602-48.113-18.709-60.341-5.726-4.159-13.533-7.281-22.111-10.664-10.409-4.159-21.34-8.318-29.147-15.084a1.287 1.287 0 0 1-.292-1.409c.065-.158.16-.301.281-.421a1.275 1.275 0 0 1 .918-.377c.17.001.339.036.495.103.157.066.299.163.418.285 7.546 6.76 17.955 10.664 28.347 14.824 8.59 3.399 16.657 6.505 22.644 10.924 16.912 12.744 18.216 37.71 19.514 62.16.522 7.803.783 15.084 1.56 22.099.26.522 0 1.043-1.038 1.043h-.017Z" fill="#331C19"/><path d="M298.474 261.815a1.65 1.65 0 0 1-1.304-1.559c1.304-6.233.521-12.743-.522-19.509-1.037-8.585-2.341-18.467.522-30.168a1.267 1.267 0 0 1 1.565-.782 1.09 1.09 0 0 1 .892 1.072c0 .169-.04.336-.116.487-2.834 11.185-1.559 20.551-.516 29.391 1.038 7.021 1.82 13.786.256 20.546.26.261-.256.522-.777.522ZM318.51 370.008a15.272 15.272 0 0 1-5.987-1.037 18.57 18.57 0 0 1-11.186-10.924c-4.428-11.702-5.205-26.27-5.726-39.013a1.178 1.178 0 0 1 1.891-1.014c.242.184.403.454.45.753.522 12.466 1.299 27.051 5.466 38.492a15.616 15.616 0 0 0 9.638 9.366 15.874 15.874 0 0 0 14.054-1.824c7.807-4.936 14.31-13.033 18.709-18.201.777-1.042 1.56-1.824 2.081-2.606 1.298-1.819 2.602-3.117 3.64-4.42 4.428-5.463 5.987-7.542 14.315-11.962 4.422-2.34 9.105-3.122 13.794-3.643 2.01-.244 4.007-.59 5.981-1.037a54.815 54.815 0 0 0 3.907-.782c4.943-.782 8.583-1.564 13.533-5.202a20.868 20.868 0 0 1 5.981-2.833c3.124-1.303 4.428-1.819 4.167-3.122a1.521 1.521 0 0 0-1.043-.261c-4.422-.776-15.875 2.862-17.173 3.904-.522.521-1.304.261-1.826-.26-.521-.522-.26-1.304.261-1.819 1.826-1.304 15.875-5.723 20.297-3.905 1.304.522 1.565 1.559 1.825 2.08.522 3.4-2.602 4.68-5.726 5.984a51.748 51.748 0 0 0-5.465 2.601c-5.726 3.898-9.638 4.68-14.571 5.723l-3.906.776a58.04 58.04 0 0 1-5.987 1.043c-4.422.781-8.844 1.303-13.04 3.399-7.801 4.159-9.365 5.978-13.527 11.18a46.357 46.357 0 0 1-3.645 4.426c-.522.781-1.299 1.558-2.081 2.6-4.422 5.463-11.191 13.781-19.276 18.699a18.331 18.331 0 0 1-9.825 2.839Z" fill="#331C19"/><path d="M384.349 325.794a1.326 1.326 0 0 1-1.304-1.037c-.261-.782.261-1.304 1.043-1.564 3.124-.516 4.683-3.638 5.987-5.978.289-.639.636-1.25 1.038-1.825a23.644 23.644 0 0 0 1.82-2.34c3.123-3.4 4.427-5.462 3.906-5.978a1.986 1.986 0 0 0-1.304-.521c-2.602 0-6.764 2.833-10.925 7.281-4.428 4.68-6.237 4.941-10.409 5.462-.783 0-1.826.261-2.835.261-.782 0-1.304-.261-1.304-1.043 0-.782.261-1.297 1.043-1.297.931-.203 1.883-.29 2.835-.261 4.161-.521 5.205-.521 8.844-4.68 3.646-3.905 8.59-8.064 12.473-8.064h.255a3.714 3.714 0 0 1 3.124 1.559c2.086 2.34-1.298 5.983-3.901 9.105-.782.777-1.303 1.559-1.825 2.08a4.372 4.372 0 0 0-.777 1.558c-1.304 2.601-3.401 6.233-7.807 7.282h.023Z" fill="#331C19"/><path d="M359.109 331.001c-.522 0-1.304-.522-1.304-1.043a1.185 1.185 0 0 1 1.043-1.298c5.72-.266 7.285-3.904 7.807-5.468a.912.912 0 0 1 .255-.515c0-.261.261-.261.261-.782 2.347-4.159 3.401-7.021 2.835-8.324a.567.567 0 0 0-.516-.521c-1.565-.516-3.907 2.085-5.727 4.164-2.086 2.341-4.167 4.42-6.236 4.941-2.14.423-4.322.597-6.503.522-1.565 0-3.124.26-4.428.26-5.465.516-10.409 4.681-10.409 4.681-.516.521-1.298.26-1.82-.261-.521-.521-.26-1.297.261-1.819.261-.26 5.465-4.68 11.708-5.201a28.265 28.265 0 0 1 4.688-.261 50.67 50.67 0 0 0 6.237-.521c1.304-.261 3.401-2.341 4.943-4.165 2.603-2.833 5.466-5.978 8.59-4.936a2.84 2.84 0 0 1 2.08 2.08c1.043 2.601-1.037 7.021-3.124 10.403a.8.8 0 0 0-.255.516.797.797 0 0 1-.261.521c-1.043 1.819-3.123 6.766-10.148 7.027h.023Z" fill="#331C19"/><path d="M372.375 316.954a1.728 1.728 0 0 1-1.298-1.043c0-.776.26-1.297 1.043-1.297l10.664-1.825c.782 0 1.304.261 1.304 1.043 0 .782-.261 1.303-1.043 1.303l-1.298.255-9.372 1.564Z" fill="#331C19"/><path d="M336.987 322.416c-1.044 0-2.342-.261-2.864-.782-1.559-1.558-.521-4.68-.26-5.202l29.407-126.926a6.808 6.808 0 0 1 6.503-5.463l111.382-9.36c.516 0 3.901 0 5.204 1.819 1.304 1.818.261 5.201 0 5.723l-29.668 114.953a10.817 10.817 0 0 1-2.834 4.686c-2.081 1.819-5.466 2.34-5.727 2.34l-51.263 8.324a1.418 1.418 0 0 1-1.559-1.042c0-.782.255-1.304 1.038-1.304l51.524-8.318s2.834-.521 4.427-1.824a7.195 7.195 0 0 0 2.081-3.4l29.923-114.959c.522-1.043.783-3.123.261-3.644-.516-.776-2.08-.776-3.124-.776l-111.376 9.361c-.516 0-2.081.26-2.835 1.042-1.037.777-1.559 2.601-1.559 2.601L336 317.192c-.516 1.297-.516 2.34-.255 2.601.261.26 2.081.26 3.402 0l18.709-3.123 4.422-.782c.522 0 1.304.261 1.304 1.043.261.521-.261 1.298-.782 1.558l-1.82.522h-.55l-2.342.521-18.709 3.122c-.312-.238-1.349-.238-2.392-.238Z" fill="#331C19"/><path d="m333.08 321.113-4.944-.255-94.702-5.983c-.783 0-2.835-.261-3.907-1.304-.26-.521-.521-.782-.26-1.297.261-1.819 2.863-2.601 3.906-2.833l63.237-17.17h.255l42.68 1.564c.782 0 1.304.522 1.043 1.298 0 .782-.522 1.303-1.304 1.043l-42.419-1.564-62.97 17.169a3.704 3.704 0 0 0-1.565.521c.521 0 .782.261 1.304.261l99.663 6.233c.782 0 1.304.521 1.043 1.303.244.51-.278 1.014-1.06 1.014ZM247.466 154.142h-.261a1.268 1.268 0 0 1-.777-1.564c1.299-4.419 4.423-13.786 4.683-14.301a1.236 1.236 0 0 1 2.342.776s-3.402 9.633-4.683 14.307c-.122.24-.309.44-.54.578-.23.139-.495.209-.764.204ZM401.782 320.858c-.521 0-1.037-.266-1.037-.782a1.156 1.156 0 0 1 .34-1.341c.128-.104.277-.18.437-.223a55.189 55.189 0 0 1 11.452-3.122c1.298-.255 2.341-.516 3.64-.776 3.123-.782 4.949-2.08 5.465-3.122 0-.261.261-.261 0-.522-.261-.26-2.602-1.037-6.503.261a1.226 1.226 0 0 1-.974-.032 1.23 1.23 0 0 1-.648-.727 1.236 1.236 0 0 1 .84-1.581c5.204-1.819 8.85-.782 9.638 1.042.261.516.261 1.298-.255 2.601-1.044 1.819-3.646 3.638-7.03 4.42-1.299.261-2.342.521-3.64.782-3.124.776-6.77 1.298-11.192 3.117l-.533.005Z" fill="#331C19"/><path d="m334.384 318.251-99.147-6.233c-.782 0-1.298-.521-1.043-1.303 0-.776.521-1.297 1.304-1.037l99.147 6.233c.782 0 1.298.522 1.043 1.303a1.692 1.692 0 0 1-1.304 1.037ZM335.166 313.05l-39.294-2.34a1.137 1.137 0 0 1-1.044-1.037 1.43 1.43 0 0 1 .783-1.303l30.966-11.441h.522l11.707.516c.783 0 1.304.521 1.043 1.303 0 .782-.521 1.037-1.304 1.037l-11.446-.516-25.246 9.361 33.313 2.08c.777 0 1.299.521 1.038 1.303.261.521-.516 1.037-1.038 1.037ZM159.771 288.344c-.522 0-1.038-.26-1.038-.782-1.304-3.399-2.347-17.424-3.645-33.029-.261-4.68-.522-8.324-.782-10.403a1.178 1.178 0 1 1 2.341-.261c.261 2.08.522 5.723.782 10.404.783 11.706 2.342 29.13 3.402 32.508a1.159 1.159 0 0 1-.782 1.563h-.278ZM155.349 224.881c-.522 0-1.044-.261-1.044-.776-2.834-10.404-12.229-28.871-21.855-36.673a1.299 1.299 0 1 1 1.559-2.08c10.415 8.33 19.775 27.596 22.638 37.71.261.521-.261 1.303-.777 1.558-.261.261-.261.261-.521.261ZM278.954 78.457h-.261a1.268 1.268 0 0 1-.777-1.564c.777-2.834 2.081-11.18-1.304-14.302a1.291 1.291 0 0 1 .003-1.822 1.289 1.289 0 0 1 1.823.003c4.944 4.68 2.081 16.12 2.081 16.642-.522.521-.783 1.043-1.565 1.043ZM261.26 388.475c-17.695 0-34.584-6.233-49.183-11.441-6.764-2.6-13.272-4.941-18.998-6.233-23.421-5.983-35.65-7.542-39.034-4.68-.522.521-1.299.261-1.82-.261-.522-.521-.261-1.297.261-1.819 4.422-3.643 15.874-2.34 41.114 4.16 5.987 1.563 12.473 3.904 19.277 6.504 22.377 8.319 47.878 17.425 73.64 6.233a1.172 1.172 0 0 1 .888-.064 1.175 1.175 0 0 1 .674.583 1.172 1.172 0 0 1 .064.888 1.152 1.152 0 0 1-.583.673 64.382 64.382 0 0 1-26.3 5.457Z" fill="#331C19"/><path d="M288.847 422.037h-.521a1.243 1.243 0 0 1-.522-1.559c1.82-4.159.522-7.02-.782-9.882-.522-1.303-1.299-2.833-1.559-4.42-.522-3.904 0-8.063.776-12.228.302-1.279.477-2.585.522-3.898a1.568 1.568 0 0 1 .261-1.043c.782-4.941.26-6.499-.261-6.76a1.16 1.16 0 0 1 .155-2.143 1.166 1.166 0 0 1 .888.064c2.602 1.297 2.081 5.978 1.559 9.1 0 .521 0 .782-.261 1.043-.255 1.297-.255 2.6-.516 4.159-.521 3.904-1.043 8.063-.782 11.446a23.273 23.273 0 0 0 1.298 3.898c1.304 2.862 2.835 6.766.783 11.968-.261-.012-.522.255-1.038.255ZM213.375 466.761a.958.958 0 0 1-.776-.26c-8.85-7.282-20.036-11.18-27.066-12.466-.783 0-1.038-.782-1.038-1.298 0-.782.777-1.043 1.298-1.043 7.286 1.304 18.999 5.463 28.104 13.033a1.595 1.595 0 0 1 .261 1.819c0 .215-.522.215-.783.215ZM232.113 463.401h-.522c-.516-.261-1.037-1.043-.776-1.564 1.559-4.42 1.819-10.143 1.819-15.605-.053-2.43.034-4.861.261-7.281.522-5.984 1.82-10.143 3.124-14.823a133.735 133.735 0 0 0 4.683-20.292c0-.776.782-1.037 1.304-1.037.777 0 1.037.782 1.037 1.304a147.64 147.64 0 0 1-4.682 20.546c-1.304 4.68-2.603 8.579-3.124 14.302a63.204 63.204 0 0 0-.261 7.281c0 5.462-.261 11.707-1.82 16.387 0 .504-.522.782-1.043.782ZM257.359 398.363c-2.347 0-4.167-1.825-4.167-4.426a4.332 4.332 0 0 1 4.167-4.419c2.341 0 4.161 1.818 4.161 4.419 0 2.341-1.82 4.426-4.161 4.426Zm0-6.233a1.825 1.825 0 1 0 1.82 1.819c-.233-1.049-1.043-1.831-1.82-1.831v.012ZM175.906 381.193c-2.341 0-7.024-1.818-7.546-3.399-.522-1.298-.261-9.883 3.402-13.781a1.29 1.29 0 0 1 1.822-.003 1.286 1.286 0 0 1 .003 1.822c-2.602 2.833-3.124 9.633-2.863 11.185.782.777 3.901 1.819 5.205 1.819 1.298-9.882 2.834-12.222 3.645-13.004a1.292 1.292 0 0 1 1.41-.292 1.286 1.286 0 0 1 .41 2.111c-.522.521-1.82 2.601-3.124 12.228a1.7 1.7 0 0 1-1.82 1.558.805.805 0 0 0-.544-.244ZM223.796 395.501c-1.565 0-3.646-1.042-5.726-2.085-3.646-1.819.776-14.562.776-14.823.261-.521 1.044-1.037 1.565-.782.522.255 1.038 1.043.777 1.564-1.298 3.638-2.602 10.664-2.081 11.707 1.043.515 3.906 2.079 4.689 1.818v-.26c.255-2.833 1.298-9.106 2.341-10.925a1.161 1.161 0 0 1 1.562-.518 1.16 1.16 0 0 1 .519 1.561c-.782 1.558-1.82 7.281-2.081 10.142a2.148 2.148 0 0 1-1.304 2.08c-.005.261-.527.521-1.037.521Z" fill="#331C19"/><path d="M282.078 397.32c-.45.069-.91-.023-1.298-.261-.522-.521-1.304-1.297-.783-3.122.783-3.638 1.038-7.542.783-9.361 0-.782.255-1.303 1.037-1.303.522 0 1.304.261 1.304 1.043a31.14 31.14 0 0 1-.782 10.403v.521c.782 0 2.834-1.042 4.422-2.079.521-.261 1.304-.261 1.565.255.26.515.26 1.303-.261 1.564-1.565.782-4.173 2.34-5.987 2.34ZM168.36 376.252c-.261 0-6.509-1.042-11.713-1.558-.777 0-1.038-.521-1.038-1.303 0-.782.516-1.037 1.299-1.037 5.465.516 11.713 1.558 11.713 1.558.777 0 1.037.782 1.037 1.298a1.7 1.7 0 0 1-1.298 1.042ZM217.021 390.039h-.261a43.17 43.17 0 0 1-6.237-2.08c-8.589-2.861-23.42-7.802-32.792-9.106-.776 0-1.037-.782-1.037-1.297 0-.782.777-1.043 1.298-1.043 9.888 1.298 24.464 6.233 33.308 9.1 2.835 1.043 4.944 1.564 6.237 2.086a1.264 1.264 0 0 1 .782 1.558 2.216 2.216 0 0 1-1.298.782ZM245.646 397.841c-4.944 0-19.276-4.941-19.775-5.201-.499-.261-1.043-1.043-.782-1.559.26-.515 1.043-1.042 1.559-.782.26 0 14.576 4.941 18.998 4.941a1.32 1.32 0 0 1 .977.349 1.315 1.315 0 0 1 .413.952 1.3 1.3 0 0 1-.413.951 1.3 1.3 0 0 1-.977.349Z" fill="#331C19"/><path d="M266.203 399.139h-.521c-.777 0-1.299-.521-1.038-1.297 0-.782.522-1.304 1.298-1.043 4.944.261 13.794-3.4 13.794-3.4a1.17 1.17 0 0 1 1.512.548 1.166 1.166 0 0 1-.469 1.537c-.521.017-9.11 3.655-14.576 3.655ZM288.325 355.445h-.26c-28.104-6.759-60.635-4.941-105.917-2.6-7.801.26-15.874.782-24.197 1.303-.522 0-1.304-.521-1.304-1.043a1.19 1.19 0 0 1 1.043-1.303c8.589-.255 16.657-.776 24.203-1.298 45.276-2.34 78.068-3.898 106.432 2.834a1.088 1.088 0 0 1 .777 1.558c.261.278-.255.549-.777.549ZM235.498 172.088c-22.899 0-51.025-10.925-67.659-17.43l-.522-.261c-.522-.255-1.038-1.037-.782-1.558.255-.521 1.043-1.037 1.564-.782l.522.261c25.762 10.142 79.372 30.949 96.284 4.164a1.134 1.134 0 0 1 1.82 1.298c-6.248 10.664-17.955 14.308-31.227 14.308ZM198.805 327.097a.97.97 0 0 1-.783-.261c-11.707-8.324-10.925-30.428-7.546-37.194a1.17 1.17 0 0 1 2.087 1.043c-3.124 6.499-3.402 26.79 6.763 34.332.522.522.783 1.037.261 1.559 0 .521-.261.521-.782.521ZM326.838 367.407h-.261c-7.024-2.079-11.713-7.02-13.04-14.562-1.819-10.404 2.863-23.408 8.068-27.307.522-.521 1.298-.26 1.82.255.521.516.261 1.304-.261 1.825-4.683 3.4-8.844 15.344-7.024 24.966.782 4.68 3.401 10.403 11.191 12.744a1.269 1.269 0 0 1 .777 1.564c-.233 0-.748.515-1.27.515ZM329.179 41.523a1.228 1.228 0 0 1-1.226-.792 1.237 1.237 0 0 1-.078-.511c0-14.041-6.502-25.499-17.955-31.987a1.168 1.168 0 0 1 1.043-2.085c12.473 7.026 19.277 19.266 19.277 34.072.255.782-.261 1.303-1.044 1.303h-.017Z" fill="#331C19"/><path d="M313.827 13.174a.96.96 0 0 1-.783-.26c-.521-.522-.521-1.043-.26-1.82.26-.26 5.204-7.026 11.191-10.924.522-.26 1.304-.26 1.559.26.255.522.261 1.298-.255 1.559-5.465 3.643-10.415 10.142-10.67 10.403-.261.521-.521.782-.782.782ZM321.634 23.838a1.98 1.98 0 0 1-1.044-.52c-.521-.522-.26-1.304.261-1.82.261-.26 8.589-6.505 14.316-8.324.521-.26 1.298.261 1.559.777.26.515-.261 1.303-.783 1.564-5.465 1.558-13.527 7.802-13.527 7.802-.261.26-.539.521-.782.521ZM325.795 35.54c-.516 0-1.037-.261-1.037-.777a1.157 1.157 0 0 1 .339-1.34 1.17 1.17 0 0 1 .437-.224c.522-.26 11.192-3.898 16.918-3.898a1.304 1.304 0 0 1 0 2.6c-5.205.256-15.875 3.638-16.135 3.9-.261-.262-.261-.262-.522-.262Z" fill="#331C19"/><path d="M413.235 246.209c1.037-3.643 4.161-5.978 6.503-5.202 2.602.782 3.645 4.426 2.602 7.803-1.038 3.643-4.161 5.984-6.503 5.202-2.602-.522-3.645-4.159-2.602-7.803Z" fill="#fff"/><path d="M416.874 255.57a1.972 1.972 0 0 1-1.298-.255c-3.124-1.042-4.683-5.201-3.402-9.366 1.304-4.42 4.944-7.021 8.068-5.984 3.124 1.037 4.683 5.202 3.402 9.367-1.304 3.898-3.906 6.238-6.77 6.238Zm2.087-13.259c-1.826 0-3.646 1.819-4.428 4.42-.782 2.833 0 5.723 1.82 6.499 1.825.521 4.167-1.298 4.949-4.42.777-2.833 0-5.723-1.825-6.499h-.516ZM271.669 56.346h-.25a1.256 1.256 0 0 1-.777-1.558c1.038-3.643 4.423-8.584 9.106-10.403 3.645-1.564 7.285-1.043 10.93 1.037a1.169 1.169 0 0 1 .287 1.961 1.172 1.172 0 0 1-1.33.124 9.012 9.012 0 0 0-8.844-.782c-4.167 1.819-7.03 6.233-7.807 8.84a2.218 2.218 0 0 1-1.315.782ZM307.579 108.624h-.261c-13.04-3.399-11.707-17.424-10.409-31.21 0-1.298.261-2.862.261-4.16.521-5.983-1.038-10.403-4.423-11.966-2.602-1.298-6.236-.516-8.328 1.564a1.287 1.287 0 0 1-2.101-.422 1.284 1.284 0 0 1 .281-1.403c3.124-2.833 7.546-3.638 11.192-1.819 2.341 1.303 6.503 4.68 5.72 14.308 0 1.297-.261 2.833-.261 4.159-1.298 13.786-2.341 25.748 8.59 28.609a1.264 1.264 0 0 1 .782 1.558 1.16 1.16 0 0 1-1.043.782Z" fill="#331C19"/><path d="M325.534 77.414c-12.75-1.558-15.613-15.605-18.992-30.69v-.52c-4.689-21.85-16.136-28.332-24.203-31.471-11.192-4.16-23.16-.783-31.488 8.323a1.288 1.288 0 0 1-2.185-.913 1.283 1.283 0 0 1 .365-.905c9.105-9.883 22.111-13.265 34.09-8.846 13.788 4.941 21.856 15.605 25.762 33.29v.521c3.124 14.824 5.726 27.567 16.651 28.899.783 0 1.044.782 1.044 1.303a.962.962 0 0 1-.289.746.951.951 0 0 1-.755.263ZM231.075 32.157c-.521 0-1.303-.516-1.303-1.037-.522-10.143 4.422-21.068 11.713-25.227 3.639-2.085 9.366-3.4 16.651 1.298.188.19.304.44.326.707a1.135 1.135 0 0 1-1.624 1.112c-4.944-3.4-9.888-3.638-14.055-1.298-6.503 3.644-10.931 13.526-10.409 22.887a2.65 2.65 0 0 1-1.299 1.558ZM360.429 161.684c-8.067-1.042-10.67-5.201-11.968-9.366-1.565-4.681-.521-9.882 1.038-15.084 2.08-7.803 2.08-22.365-6.237-30.428a56.978 56.978 0 0 0-11.452-8.324c-5.987-3.4-11.192-6.5-15.353-16.127a1.163 1.163 0 0 1 2.081-1.037c3.906 8.84 8.589 11.44 14.315 15.084a58.245 58.245 0 0 1 11.968 8.579c9.888 9.633 8.85 25.754 7.025 32.774-1.298 4.681-2.342 9.633-1.038 13.526 1.038 3.4 2.835 6.76 9.888 7.542.782 0 1.037.776 1.037 1.297-.028 1.043-.544 1.564-1.304 1.564ZM153.784 158.551c-.261 0-.777-.261-.777-.521a1.272 1.272 0 0 1-.289-.415 1.24 1.24 0 0 1 0-.99c.067-.156.166-.297.289-.414 5.205-4.681 5.981-10.664 2.602-17.946a33.127 33.127 0 0 0-3.906-6.505 41.394 41.394 0 0 1-4.944-8.839c-3.123-7.542-1.559-19.51 8.329-27.573 1.82-1.558 3.402-2.6 4.944-3.898 5.204-4.165 8.589-6.766 10.67-9.888 3.645-5.457 4.683-10.92 5.987-18.7.515-2.6 1.037-5.462 1.559-8.844 3.123-15.345 13.011-40.832 42.934-37.194.783 0 1.044.782 1.044 1.303 0 .782-.783 1.043-1.299 1.043-28.109-3.4-37.475 20.546-40.338 35.369a71.034 71.034 0 0 0-1.582 8.817c-1.564 8.324-2.341 13.786-6.236 19.77-2.342 3.643-5.726 6.233-11.192 10.664a53.889 53.889 0 0 0-4.943 3.898c-9.105 7.282-10.409 17.946-7.807 24.711 1.304 3.117 3.124 5.718 4.683 8.319a30.588 30.588 0 0 1 3.906 7.026c3.906 8.324 2.602 15.344-3.124 20.807h-.51ZM346.352 243.087a.943.943 0 0 1-.776-.26c-9.638-8.319-3.646-18.206 0-24.706.777-1.042 1.298-2.34 1.82-3.122 4.422-8.845 7.806-16.903 6.236-26.009-1.043-6.233-4.428-10.924-7.552-15.605-4.683-6.76-9.638-13.786-7.024-24.705a1.264 1.264 0 0 1 1.565-.782 1.081 1.081 0 0 1 .892 1.072c0 .169-.04.335-.116.486-2.341 9.888 2.081 16.127 6.509 22.892 3.402 4.941 6.764 9.882 8.068 16.382 1.819 9.888-2.081 18.466-6.509 27.312-.522 1.037-1.038 2.079-1.82 3.399-3.645 6.233-8.589 14.829-.521 21.589a1.602 1.602 0 0 1 .26 1.819c-.249-.022-.51.238-1.032.238ZM327.36 252.714a1.302 1.302 0 0 1-.525-2.527 1.32 1.32 0 0 1 .525-.074c1.559 0 3.118-.782 4.422-2.345 2.602-3.4 2.835-9.101 1.043-15.339-.261-.522.255-1.304.777-1.564.521-.261 1.304.26 1.564.782 2.081 7.02 1.56 13.52-1.303 17.424-1.82 2.34-4.162 3.643-6.503 3.643ZM288.847 167.147a.95.95 0 0 1-.782-.261c-7.807-6.505-7.547-19.266-6.237-26.009a1.171 1.171 0 0 1 .419-.827 1.19 1.19 0 0 1 .888-.268 1.179 1.179 0 0 1 1.035 1.356c-1.038 5.717-1.559 17.685 5.465 23.668a1.605 1.605 0 0 1 .261 1.819 1.036 1.036 0 0 1-1.049.522Z" fill="#331C19"/></g><defs><clipPath id="a"><path fill="#fff" transform="rotate(90 248 326)" d="M0 0h692v574H0z"/></clipPath><clipPath id="b"><path fill="#fff" d="M0 0h487v821H0z"/></clipPath></defs></svg>