<svg viewBox="0 0 264 59" fill="none" xmlns="http://www.w3.org/2000/svg"><g clip-path="url(#a)"><path d="M76.286 2.338V0H59.94v2.338h7.896l-12.01 42.079L44.37 2.337h7.117V0H30.58v2.338h6.45L25.132 44.417 13.678 2.337h7.117V0H0v2.338h5.227L20.684 59h2.669L37.81 8.126l.333-1.892L51.377 59h2.557L70.17 2.338h6.116zm6.005 11.911s-.11 0 0 0c-8.451 0-13.455 5.232-13.455 15.028v8.35c0 9.684 5.004 15.028 13.456 15.028 8.451 0 13.344-5.232 13.455-15.029v-8.349c-.11-9.684-5.004-15.028-13.456-15.028zm6.784 27.608c0 8.015-2.224 9.24-6.895 9.24-4.56 0-6.894-1.225-6.894-9.018V24.936c0-7.904 2.335-9.017 6.894-9.017 4.67 0 6.895 1.224 6.895 9.24v16.698zm69.392-28.276h-2.113L144.9 50.317h-3.559v1.559h10.787v-1.559h-5.115l3.558-11.132h9.786l3.114 11.132h-4.115v1.559h13.011v-1.559h-3.558l-10.342-36.736zm-7.562 24.045l4.559-14.583h.334l4.003 14.583h-8.896zm-15.235 12.58V15.919h3.558V14.36H129.22l-10.565 29.723-10.008-29.723H98.75v1.559h3.447v34.287h-3.336v1.558h10.453v-1.558h-4.893V17.7l11.788 35.289h1.668l12.344-34.955v32.172h-3.781v1.558h13.233v-1.558h-4.003c.222-4.008 0 0 0 0zm56.825-34.287h5.338v24.713L182.265 14.36h-9.119v1.559h3.225v34.287h-3.225v1.558h10.342v-1.558h-5.449V19.147l19.794 33.396v-.11.11h1.668V15.807h3.559V14.25h-10.565v1.67zm14.568 25.604c-2.002 0-3.558 1.78-3.558 4.007 0 2.227 1.556 4.008 3.558 4.008s3.559-1.781 3.559-4.008c0-2.226-1.668-4.007-3.559-4.007zm25.688-20.26c0-.112-.111-.112-.111-.223-.222-.223-.333-.446-.556-.557-.445-.334-1.223-.557-2.224-.557-2.669 0-4.003 1.336-5.115 3.117-.779 1.225-1.557 2.783-2.113 3.674 0-.557-.111-1.558-.779-3.117-.778-2.115-1.556-2.894-1.668-2.894h-6.338v1.558h4.003v24.713h-4.003v1.559h14.456v-1.559h-5.782V29.945c.667-1.558 1.557-3.562 3.002-5.677 1.446-1.781 2.224-2.338 3.003-2.338.333 0 .333 1.67.333 2.45v.444c0 3.563 1.112 4.565 2.336 4.565 1.334 0 2.335-.89 2.335-4.564.222-1.336-.111-2.672-.779-3.563.112 0 0 0 0 0zm28.024 25.826c-.667 0-.778-.78-.778-.78V20.706h-4.782v21.04c-.111.11-3.114 6.01-7.451 6.01-2.224 0-2.891-1.224-2.891-2.56v-24.49h-8.897v1.558h4.226v20.483s-.222 6.568 7.006 6.568c4.893 0 7.562-4.453 8.118-5.232v.111c-.111 2.56.778 4.23 2.113 4.23h6.672v-1.558l-3.336.223z" fill="#714400"/></g><defs><clipPath id="a"><path fill="#fff" d="M0 0h264v59H0z"/></clipPath></defs></svg>