<svg viewBox="0 0 603 750" fill="none" xmlns="http://www.w3.org/2000/svg"><g clip-path="url(#a)"><path d="M46.085 215.895c42.083 71.06-27.206 173.078-30.969 386.661-.347 20.485-.405 41.548 7.062 60.702 8.162 20.947 24.833 38.075 43.761 51.153 50.477 34.951 118.087 43.226 178.577 28.875 60.49-14.351 114.034-49.649 156.175-93.569 24.08-25.056 45.208-53.41 74.556-72.622 26.28-17.244 58.175-26.445 81.85-46.871 39.131-33.968 46.251-89.809 45.903-140.383-.289-33.505-3.068-68.34-20.491-97.389-25.528-42.532-76.235-63.653-119.186-90.387-34.558-21.526-65.411-47.913-98.347-71.58C325.903 102.42 283.82 78.29 239.596 58.5c-26.396-11.805-40.462-15.856-59.912-18.228-54.412-6.481-125.611 11.11-151.312 58.792-5.094 9.374-7.178 17.533-7.757 20.484-7.235 41.143 25.47 96.347 25.47 96.347z" fill="#F90"/></g><g clip-path="url(#b)"><path d="M159.091 723.883h200.077l-20.356-112.056H180.078a2031.28 2031.28 0 00-45.636 112.056h24.649zm137.131-49.508l22.45-1.729c3.932-.301 3.9 5.816 0 6.117l-22.45 1.729c-3.932.301-3.9-5.816 0-6.117zm-73.252 0c9.602 1.257 18.44.242 27.95.498 9.712.26 17.151 4.051 27.027.823 3.754-1.225 5.349 4.681 1.623 5.897-7.997 2.616-14.563 1.857-22.628.293-10.951-2.117-22.715.082-33.972-1.371-3.854-.554-3.882-6.675 0-6.163v.023zm-42.791 2.061a123.355 123.355 0 0124.264-3.131c3.942-.119 3.928 5.998 0 6.112a115.112 115.112 0 00-22.637 2.917c-3.84.873-5.459-5.024-1.627-5.898zm-9.922 26.06c7.997-6.241 19.66-5.34 29.184-4.851 13.827.709 26.794-1.33 40.524-1.682 14.055-.357 28.147 2.025 42.225 2.176 14.489.155 28.965-.567 43.436-1.372 3.941-.214 3.914 5.903 0 6.113a596.1 596.1 0 01-74.802-.457c-12.208-.86-23.89 1.55-36.024 1.902-11.161.324-30.543-5.029-40.209 2.496-3.054 2.382-7.434-1.916-4.334-4.325z" fill="#FFF5EE"/><path d="M344.436 374.745c-11.106 7.873-24.096 13.29-37.401 13.62-13.685.343-26.062-4.165-36.994-11.508 2.323 38.289 69.85 35.423 74.395-2.112zm-214.68 173.378a18.474 18.474 0 013.351 3.383 191.17 191.17 0 0118.559-15.631c-19.958-13.491-34.036-32.108-47.122-52.677-4.732 5.587-9.684 11.037-14.946 16.299 9.098 15.041 18.196 30.086 27.291 45.133a18.29 18.29 0 0112.867 3.493zm-41.859.215a4186.303 4186.303 0 01-18.637-30.339c-10.676 10.122-20.008 21.84-19.885 37.384-.58 14.461 5.899 22.955 15.455 32.108 1.495-4.243 2.13-8.097 2.89-12.979.338-2.158.703-4.193 2.221-5.944 2.575-2.939 6.182-3.589 8.436-6.976 2.13-3.201 3.2-6.908 5.565-10.058a8.598 8.598 0 013.955-3.196z" fill="#FFDEAD"/><path d="M372.354 294.884c.137-1.993 1.797-2.967 3.352-2.931.064-.557.119-1.115.16-1.673a3.148 3.148 0 01-1.687-2.478c-2.035-17.3-9.479-34.938-19.268-49.33a54.322 54.322 0 00-14.325-14.301c-3.47.951-7.187.915-10.754.348a43.201 43.201 0 01-4.238-.915c-.05 1.829-1.495 3.603-3.704 2.817a78.074 78.074 0 01-30.428-19.659 23.407 23.407 0 00-8.024 1.915c.855 1.326.841 3.237-.915 4.27a89.035 89.035 0 00-43.619 68.285 3.198 3.198 0 01-3.2 2.917 260.327 260.327 0 00-.279 7.772 2.466 2.466 0 011.688.609c.467.407.764.975.831 1.59 4.083 23.061 3.228 46.354 20.278 64.646 11.956 12.802 28.311 23.376 46.157 23.518 18.623.142 36.121-10.14 48.973-23.294a55.067 55.067 0 0011.618-17.725 2.24 2.24 0 01.302-.745c5.615-14.081 5.994-29.863 7.082-45.636zm-98.079 24.949c-.859.914-2.647 1.229-3.703.457-5.51-3.909-6.639-10.406-1.971-15.517.093-.092.191-.179.293-.261a.286.286 0 01.041-.036c.078-.064.155-.137.238-.192 1.248-.974 2.825-.723 4.041.228 5.181 4.042 5.414 10.621 1.061 15.321zm7.243-30.294a38.84 38.84 0 00-23.008 1.441c-3.708 1.371-5.29-4.549-1.628-5.898a44.747 44.747 0 0126.263-1.44c3.832.928 2.2 6.826-1.627 5.902v-.005zm20.195 32.003c2.579-3.346 2.515-7.049 2.588-11.169.069-3.936 6.186-3.936 6.118 0-.069 3.749 0 7.942-1.527 11.453-.869 2.025-2.62 3.086-3.603 4.965-1.683 3.2-.174 7.671 3.763 8.042 3.936.37 3.913 6.487 0 6.117-5.857-.553-10.809-4.714-11.147-11.009-.174-3.548 1.764-5.733 3.808-8.385v-.014zm-5.185 43.63c-6.552-6.707.265-13.867 7.27-15.6 7.681-1.897 19.812-1.828 26.3 3.749.29.179.547.406.759.672.251.251.456.543.608.864 8.509 12.792-27.031 18.42-34.937 10.328v-.013zm44.927-44.869c-1.061.755-2.853.458-3.703-.457-4.353-4.704-4.115-11.288 1.042-15.311 1.216-.946 2.83-1.243 4.078-.21.065.046.124.105.188.16a.472.472 0 01.059.05c.102.082.2.169.293.261 4.682 5.12 3.548 11.612-1.957 15.521v-.014zm12.057-29.319a38.828 38.828 0 00-23.007-1.44c-3.832.914-5.451-4.974-1.628-5.898a44.74 44.74 0 0126.263 1.441c3.671 1.371 2.076 7.26-1.628 5.897z" fill="#FFDEAD"/><path d="M274.321 183.006c-35.503 1.591-55.187 34.001-57.13 66.63-.915 15.494 3.946 32.131 8.637 47.035 2.1-.561 4.313-.537 6.401.069-.055-.334-.105-.672-.16-1.006-.416-2.331 1.582-3.845 3.374-3.822.051-2.597.151-5.189.279-7.772-1.582.069-3.118-.914-2.926-2.917 2.922-30.681 20.049-57.898 46.637-73.565 1.646-.97 3.2-.233 4.001 1.01a23.408 23.408 0 018.024-1.916 77.617 77.617 0 01-12.162-16.778c-1.87-3.47 3.411-6.552 5.281-3.086 8.495 15.773 22.033 27.591 38.937 33.626a3.054 3.054 0 012.076 3.081c1.396.376 2.811.681 4.238.915 3.566.576 7.284.603 10.754-.348-8.568-5.907-18.536-9.601-29.052-13.016-3.731-1.212-2.126-7.114 1.628-5.898 17.479 5.674 34.013 12.18 45.201 27.518 11.481 15.741 19.66 35.706 21.947 55.027.315 2.697-2.506 3.507-4.431 2.478a41.126 41.126 0 01-.16 1.673c1.495.037 2.899 1.006 2.743 2.931l-.027.398c4.801-.983 9.341 1.165 12.491 4.814l.458-.814a3.117 3.117 0 01-2.099-3.603c7.142-35.925 9.039-71.714-16.286-101.143-21.769-25.3-61.639-37.123-88.524-12.426-2.231 2.048-5.303-.046-5.271-2.332a46.17 46.17 0 00-1.998-.544c.301 1.697-.668 3.681-2.881 3.781zm-26.944 34.746a68.599 68.599 0 00-16.858 38.61c-.398 3.881-6.52 3.908-6.118 0a75.744 75.744 0 0118.673-42.944c2.579-2.967 6.886 1.376 4.303 4.325v.009zm54.313-26.023c15.852-6.757 33.071-5.682 47.739 3.516 3.333 2.089.261 7.379-3.086 5.281-12.651-7.937-27.735-9.414-41.566-3.516-3.585 1.522-6.699-3.749-3.087-5.29v.009z" fill="#26241B"/><path d="M381.741 325.831c2.99-3.658 6.15-7.805 7.046-12.523 1.129-5.943-4.028-14.63-10.782-11.429-.736 11.237-1.563 22.274-4.348 32.679a77.443 77.443 0 008.084-8.727z" fill="#FFDEAD"/><path d="M292.943 549.796c9.808-6.748 20.118-11.58 32.13-9.559 5.244.402 9.834 3.2 14.667 5.029 10.205 3.909 20.575 4.306 31.306 2.985 16.25-3.095 32.244-7.699 48.26-11.846 2.108-38.051-.407-78.791 15.871-114.195 1.646-3.575 6.913-.457 5.281 3.086-13.223 28.766-13.415 61.514-14.325 93.092 19.66-7.009 38.75-15.087 56.86-25.534l-4.837-13.258-16.488-45.092c-4.028-11.023-6.785-23.733-12.647-33.923-6.154-14.489-31.763-18.498-45.489-22.453a406.31 406.31 0 00-49.7-11.064 179.847 179.847 0 01-3.064 2.744c1.482 51.387-90.31 55.205-86.831 2.56v-.041a100.472 100.472 0 01-4.572-3.937 5141.665 5141.665 0 00-50.725 13.972c-8.454 2.395-17.498 4.293-25.604 7.68-11.979 4.993-20.827 17.268-28.691 27.011-15.774 20.326-29.614 41.476-45.672 61.176 14.718 23.353 30.474 44.246 55.008 57.774l21.705-18.548c-11.655-16.148-21.663-33.617-31.201-51.072-1.893-3.456 3.393-6.542 5.281-3.086 7.823 14.319 15.966 28.643 25.069 42.249l-6.071-39.872c-.586-3.854 5.308-5.486 5.898-1.623l8.01 52.828c.281.5.37 1.085.252 1.646 2.807 18.501 5.613 37.004 8.417 55.511h76.896a2.928 2.928 0 01-.407-1.111c-1.815-11.571 6.781-17.185 15.413-23.129zm52.97-32.665a738.154 738.154 0 0046.852-89.718c1.577-3.603 6.858-.485 5.281 3.086a738.154 738.154 0 01-46.852 89.718c-2.053 3.36-7.343.283-5.281-3.082v-.004zm-117.182-11.256a430.284 430.284 0 01-31.658-101.573c-.691-3.854 5.203-5.486 5.898-1.623a423.944 423.944 0 0031.041 100.123c1.609 3.562-3.663 6.657-5.281 3.077v-.004z" fill="#fff"/><path d="M127.739 597.307c-.096.283-.192.567-.306.832a32.459 32.459 0 0013.205 7.539c-.188-5.413-.915-10.625-3.521-15.654a54.692 54.692 0 00-1.312-2.382c0 .767-.074 1.533-.22 2.286-.836 4.124-4.041 6.455-7.846 7.379z" fill="#FFD08B"/><path d="M225.947 302.524a3.26 3.26 0 01-.609.402c-1.961 1.518-3.145 4.361-3.42 6.775-.306 2.661.458 4.942 1.505 7.361 1.513 3.52 3.959 6.602 6.401 9.519 2.441 2.916 5.112 5.97 8.102 8.54-3.096-9.971-3.53-20.647-4.696-31.089-2.976-2.487-5.455-2.597-7.283-1.508zm268.696 222.214l-9.519-26.06c-18.851 10.762-38.722 19.06-59.192 26.27-.113 3.31-.255 6.599-.425 9.866 14.772-3.827 30.405-8.686 45.685-9.038 3.942-.083 3.928 6.03 0 6.117-16.249.352-33.025 6.016-48.653 9.989-16.634 4.229-33.217 9.116-50.093 12.317a3.317 3.317 0 01-.554.05 2.082 2.082 0 01-.26.059c-10.155 1.308-20.287 1.217-30.108-1.929-5.396-1.728-11.074-5.756-16.785-6.08a3.298 3.298 0 01-.576-.087 2.362 2.362 0 01-.238 0c-8.477-1.546-15.847 1.339-22.98 5.664-5.944 3.603-17.525 9.83-17.603 17.995 9.912-8.133 29.221-15.27 32.975-17.158 3.511-1.769 6.602 3.506 3.091 5.28-5.871 2.954-12.002 5.226-17.978 7.946-2.373 1.079-21.302 10.365-16.236 14.296l.036.032a9.439 9.439 0 012.039-1.828c4.184-2.744 9.748-3.717 14.371-5.555a163.9 163.9 0 0017.731-8.454c3.461-1.883 6.547 3.397 3.086 5.281a177.575 177.575 0 01-16.46 7.96 159.62 159.62 0 01-7.439 2.898c-2.505.901-10.205 2.382-9.999 6.03.151 2.743 3.904 3.521 5.994 3.479 2.487-.045 4.956-.749 7.316-1.563 4.64-1.619 8.929-4.156 13.607-5.66 6.401-2.062 12.802-3.027 19.532-2.158 7.398.946 13.58 4.97 20.68 6.89 10.142 2.743 21.554 1.371 31.521-1.312.181-.051.366-.085.554-.101.114 0 .233-.027.347-.032 17.1.107 34.201-.058 51.301-.494 19.903-.512 42.389 1.418 58.378-12.49 11.499-14.442 2.327-33.457-3.146-48.42z" fill="#FFDEAD"/><path d="M310.432 354.816c-2.67.146-13.259 1.372-9.578 6.044 2.77 3.525 11.019 2.533 14.768 1.989.718-.105 12.144-2.986 10.909-4.522-3.653-3.648-11.334-3.749-16.099-3.511z" fill="#E693A0"/><path d="M119.07 560.06a210884.115 210884.115 0 00-41.035-67.869l-12.272 8.28a4145.678 4145.678 0 0029.235 47.739 45.04 45.04 0 017.772 2.843 109.174 109.174 0 0116.3 9.007z" fill="#FFD08B"/><path d="M127.328 563.146c0 1.125 0 2.41.077 3.754.058.253.07.515.037.772.21 3.169.846 6.483 2.885 8.435.359.383.848.618 1.372.659.116.002.232.011.347.027.098-.041.201-.067.306-.078.755-.137.375-.1.357-.091.147-.07.3-.126.457-.169.096-.046.179-.101.279-.142 6.529-2.501 2.716-11.484-.26-14.886-3.937-4.499-6.946-9.802-12.615-10.712 2.112 3.499 4.226 6.994 6.342 10.484 0 .027.022.059.036.086.06.101.11.207.151.316.224.482.304 1.019.229 1.545zm-31.91 8.17c-3.36-2.044-.284-7.315 3.086-5.28a101.227 101.227 0 0128.046 25.296c1.806-.49 3.077-1.422 3.16-3.754.064-1.783-.407-3.557-.86-5.303a8.35 8.35 0 01-2.117-1.225c-3.429-2.744-4.695-7.256-5.189-11.746-5.167-4.014-28.385-20.285-32.317-14.684-3.109 4.142-4.206 9.962-7.686 13.715-3.927 4.248-7.366 5.089-8.015 11.988-1.051 11.123-14.457 24.688.48 32.391a87.874 87.874 0 0013.342 4.988c2.524.69 16.35 3.63 13.415-2.83-6.282-6.149-14.384-9.637-22.07-13.693-3.484-1.828-.389-7.118 3.09-5.28 7.824 4.115 15.907 7.799 22.437 13.848.235-.025.473-.025.708 0 2.922.325 5.405-4.435 4.33-6.967a67.174 67.174 0 00-23.748-18.535c-3.562-1.673-.457-6.94 3.086-5.28a71.162 71.162 0 0125.006 19.512c.124.091.238.194.343.307 2.007 1.038 3.438.914 5.404-.457 1.372-.915 2.144-1.756 2.611-3.05a93.812 93.812 0 00-26.542-23.961z" fill="#FFDEAD"/><path d="M1063.05 580.167c3.93 0 3.94-6.117 0-6.117h-51.73c.31-1.589.27-3.225-.11-4.798a11.44 11.44 0 00-2.1-4.318c3.42-12.166-7.71-16.916-20.011-18.411-2.446-11.8-12.066-14.991-22.806-16.143a962.643 962.643 0 009.039-25.086c.193.006.386-.003.577-.028 2.693-.411 5.349-.548 7.795-1.892 3.151-1.728 4.943-4.86 6.241-8.092.165-.285.286-.594.357-.915.078-.27.114-.535.178-.804.18-.726.322-1.46.426-2.2 4.75-23.17 7.448-46.76 10.484-70.196 3.13-24.162 9.1-48.671 10.54-72.966.69-11.695-.45-23.893-6.16-34.326-6.141-11.224-16.913-17.83-28.023-23.485a382.543 382.543 0 00-88.752-31.953c-21.759-4.919-43.985-7.411-66.197-9.249-2.551-9.893-4.188-20.033-5.715-30.256 13.355-6.945 29.399-24.985 31.672-39.419 1.138-7.209-1.514-13.797-5.944-17.83 2.876-19.311 5.66-38.486 5.459-58.062-.023-2.085-1.756-3.054-3.37-2.931a2.828 2.828 0 00-1.985.891 2.81 2.81 0 00-.758 2.04c.192 18.47-2.286 36.52-4.988 54.72-4.71-1.591-10.187-.786-15.189 3.607a31.725 31.725 0 01-11.372-14.982c.156-5.486.375-10.931.595-16.394.183-4.535 1.595-11.064.242-15.508-2.172-7.136-12.039-13.821-17.155-19a2.817 2.817 0 00-3.923-.21c-1.308 1.032-1.911 3.003-.402 4.535 6.131 6.208 15.751 12.54 15.449 21.684-.274 8.151-.667 16.298-.914 24.455a4.025 4.025 0 00.457 2.67 38.439 38.439 0 0016.488 19.704c.134.073.273.137.416.192 1.998.846 3.79-.713 4.092-2.491 10.328-9.295 19.258 5.257 16.003 15.26-1.916 5.884-6.182 11.119-10.137 15.764-3.201 3.776-6.762 7.772-10.717 11.123 3.799-11.26 3.484-23.833 4.138-35.546.123-2.158-1.665-3.122-3.338-2.912a3.045 3.045 0 00-2.78 2.912c-.581 10.433-.302 21.579-3.169 31.683-3.392 11.965-12.482 21.511-20.858 30.302-15.848 16.637-37.063 36.868-62.023 31.775-21.105-4.307-39.851-24.368-53.554-39.935-9.433-10.721-14.023-21.209-15.327-35.414-1.092-11.887-1.636-23.837-2.437-35.743-.64-9.358-1.289-18.744-1.751-28.094-.068-1.431-.457-3.351-.32-4.923.197.32 1.504-2.017 2.442-3.036 2.167-2.355 6.159-5.267 7.475-8.229 2.986-6.73.293-16.83 1.473-24.117.685-4.243 3.497-4.74 8.23-7.452 6.04-3.475 12.162-6.835 18.412-9.925 1.751-.87 1.866-2.611 1.111-3.928a3.14 3.14 0 00-4.202-1.371c-6.584 3.26-13.044 6.807-19.4 10.515-2.839 1.65-7.599 3.484-9.286 6.547-4.078 7.397-.311 18.415-1.792 26.626-.105 0-.677 1.011-1.989 2.286-1.907 1.865-3.727 3.927-5.487 5.944-2.515 2.926-3.013 3.767-2.94 7.772.183 10.46 1.189 20.962 1.902 31.399.27 3.991.485 8.001.7 12.015.53 9.944 1.056 19.919 2.359 29.717 1.692 12.737 7.05 22.727 15.335 32.41 9.849 11.516 22.642 25.209 37.109 34.197.019.167.051.332.096.494.8 2.697 1.696 5.354 2.62 7.991-18.129 4.115-36.368 7.805-54.099 13.433a314.634 314.634 0 00-6.502-2.931c-2.954-1.28-6.186-2.364-9.341-1.088-2.355.951-3.26 2.524-3.338 4.316-25.147-9.706-49.764-20.83-77.458-18.448-2.51.215-4.202 3.255-2.163 5.221 13.781 13.286 29.377 20.889 46.573 27.829-2.323 3.393-2.286 7.877-1.486 12.02-5.747.726-11.86 2.916-14.736 8.055-1.02 1.829-1.184 4.005-.869 6.264-3.905 1.623-7.7 6.354-8.628 9.386-1.586 5.17.457 11.557 2.515 16.737-16.606 47.127-30.735 95.405-41.178 144.274a3.01 3.01 0 00.197 1.952 2.86 2.86 0 001.939 1.829c2.944.914 5.907 1.746 8.879 2.537-1.372 12.966-2.57 25.95-3.42 38.966-.663 10.177-2.259 20.674-2.913 31.015h-43.317c6.021-9.834 5.761-21.103 2.551-32.46-5.029-17.734-12.519-35.011-18.842-52.32a54940.653 54940.653 0 00-19.235-52.608c-4.632-12.664-7.888-27.404-14.632-39.14-6.021-14.172-25.174-17.857-38.324-22.004a418.182 418.182 0 00-56.87-13.716 60.475 60.475 0 0011.166-17.418c10.42-5.194 23.012-19.293 24.768-30.796.74-4.869-1.006-9.889-4.115-13.487-3.11-3.598-7.691-5.797-12.492-4.814l.028-.398c.132-1.925-1.271-2.894-2.744-2.931-1.472-.036-3.2.938-3.351 2.931-1.088 15.773-1.468 31.546-7.073 45.627l-.302.745a55.095 55.095 0 01-11.618 17.725c-12.853 13.153-30.351 23.435-48.974 23.294-17.831-.142-34.2-10.694-46.156-23.518-17.05-18.287-16.195-41.604-20.278-64.646a2.473 2.473 0 00-2.52-2.199c-1.792 0-3.79 1.491-3.374 3.822.055.334.105.672.16 1.006a11.913 11.913 0 00-6.401-.068c-4.691-14.905-9.561-31.546-8.637-47.036 1.943-32.629 21.627-65.039 57.13-66.63 2.213-.1 3.201-2.084 2.904-3.771a2.675 2.675 0 00-2.904-2.346c-33.949 1.527-55.854 28.496-61.524 60.152-3.813 21.277 1.207 42.308 7.585 62.666-3.164 2.935-5.125 7.493-4.627 12.801 1.134 12.111 14.883 27.244 25.577 32.218.174.077.352.139.535.188a73.026 73.026 0 0012.377 18.502c-17.081 4.613-34.154 9.281-51.167 14.145-7.705 2.199-15.939 3.959-23.319 7.183-12.436 5.445-21.608 17.775-29.848 27.984-21.297 27.431-39.152 56.508-63.659 81.337l-4.71-7.772c-.813-1.344-2.793-2.034-4.183-1.092l-17.347 11.708c-1.372.914-1.998 2.693-1.097 4.188 2.322 3.859 4.677 7.699 7.018 11.548-12.295 11.489-22.902 25.059-22.756 42.72-.293 7.26 1.015 13.285 3.52 18.667H2.955c-3.937 0-3.942 6.117 0 6.117h47.35c3.2 4.654 7.283 8.947 12.007 13.359l.068.05c-3.392 9.473-1.175 19.435 8.541 24.432 7.983 3.657 18.874 8.933 27.89 7.283 5.135-.942 8.373-4.965 8.231-9.51 2.775-.516 4.796-2.638 6.456-5.029a11.258 11.258 0 002.03-5.207 10.09 10.09 0 006.465-1.609c.54-.343 1.038-.7 1.513-1.066a38.355 38.355 0 0019.428 9.652c1.929.343 3.873-.814 3.873-2.949 0-6.954-.375-13.505-3.201-20.007-1.413-3.264-3.315-6.322-5.199-9.358l.06-.046h139.188c.384 1.495 1.372 2.967 3.201 4.389.613.481 1.38.721 2.158.677a9.173 9.173 0 004.714 9.5c6.104 3.292 14.087.791 20.081-1.372 7.8-2.834 16.103-7.433 24.658-6.766 9.561.741 17.631 6.638 27.15 7.941 9.647 1.322 19.45.215 28.805-2.263 19.204.115 38.489 0 57.702-.699 18.7-.663 37.14-.215 52.54-11.393h48.84a117.756 117.756 0 000 4.901c.503 19.051 13.886 37.526 33.254 40.616.105.007.211.007.316 0 .163.043.33.074.498.092 42.691 3.447 85.044 1.184 127.566-3.201 38.064-3.922 75.995-7.822 114.306-5.829 20.831 18.352 45.786 35.007 74.779 31.011 14.142-1.916 23.56-12.024 30.56-24.464 11.161 3.315 22.523 2.039 33.744-.699h.032c10.145-1.372 21.672-3.617 30.908-8.01 5.665-2.693 9.604-9.793 7.264-15.17a13.786 13.786 0 006.14-6.328 13.776 13.776 0 001.04-8.759 5.237 5.237 0 00-1.02-2.354 13.87 13.87 0 001.69-1.829h54.47zM388.787 313.308c-.914 4.719-4.056 8.879-7.046 12.523a77.446 77.446 0 01-8.084 8.737c2.785-10.406 3.613-21.442 4.349-32.68 6.753-3.205 11.91 5.486 10.781 11.42zm-158.972 13.259c-2.451-2.917-4.897-5.998-6.401-9.519-1.043-2.418-1.829-4.7-1.505-7.36.275-2.414 1.459-5.258 3.42-6.776.218-.11.422-.245.608-.402 1.866-1.088 4.326-.983 7.293 1.508 1.166 10.443 1.6 21.118 4.696 31.089-3-2.556-5.661-5.61-8.111-8.526v-.014zm77.22 61.784c13.306-.329 26.295-5.747 37.401-13.62-4.545 37.535-72.072 40.402-74.395 2.112 10.928 7.356 23.31 11.864 36.994 11.521v-.013zm-152.713 28.715c7.865-9.742 16.712-22.018 28.691-27.01 8.13-3.388 17.174-5.285 25.605-7.681a3543.332 3543.332 0 0150.724-13.971 97.163 97.163 0 004.572 3.936v.041c-3.479 52.645 88.313 48.828 86.832-2.56a78.654 78.654 0 003.063-2.743 406.14 406.14 0 0149.701 11.064c13.716 3.954 39.321 7.964 45.489 22.452 5.861 10.191 8.619 22.9 12.647 33.923l16.487 45.092c1.616 4.414 3.228 8.833 4.838 13.259-18.111 10.437-37.186 18.525-56.861 25.533.915-31.577 1.102-64.325 14.325-93.092 1.632-3.552-3.658-6.661-5.281-3.086-16.277 35.405-13.762 76.145-15.87 114.196-16.003 4.147-32.006 8.751-48.26 11.846-10.736 1.321-21.101.914-31.306-2.986-4.833-1.828-9.424-4.645-14.668-5.029-12.03-2.021-22.322 2.812-32.129 9.56-8.633 5.943-17.228 11.553-15.413 23.138.058.394.197.772.407 1.111h-76.873a276167.74 276167.74 0 01-8.418-55.511 2.37 2.37 0 00-.251-1.646l-8.011-52.837c-.59-3.877-6.483-2.231-5.898 1.623l6.049 39.894c-9.103-13.606-17.247-27.929-25.07-42.249-1.888-3.456-7.174-.37-5.281 3.086 9.538 17.456 19.547 34.925 31.201 51.073l-21.704 18.548c-24.535-13.529-40.291-34.422-55.009-57.775 16.058-19.709 29.898-40.858 45.672-61.185v-.014zm-49.778 66.132c13.086 20.573 27.164 39.185 47.122 52.677a191.296 191.296 0 00-18.536 15.631 17.566 17.566 0 00-16.218-6.858 145880.02 145880.02 0 00-27.291-45.133c5.24-5.28 10.191-10.73 14.923-16.317zm28.902 93.115c-.101.041-.183.096-.279.142-.157.042-.31.099-.458.169 0 0 .398-.046-.356.091a1.083 1.083 0 00-.307.078 2.88 2.88 0 00-.347-.027 2.107 2.107 0 01-1.372-.659c-2.039-1.952-2.674-5.267-2.885-8.435 0-.26 0-.516-.036-.772-.06-1.345-.069-2.629-.078-3.754.042-.329.02-.662-.064-.983a2.626 2.626 0 00-.165-.562 2.473 2.473 0 00-.151-.316c0-.027-.022-.059-.036-.087a4708.77 4708.77 0 01-6.342-10.483c5.67.915 8.687 6.213 12.615 10.712 2.976 3.401 6.803 12.385.261 14.886zm-67.67-75.847l12.258-8.275c13.68 22.621 27.359 45.246 41.036 67.874a109.154 109.154 0 00-16.304-9.012 45.045 45.045 0 00-7.773-2.843 4801.892 4801.892 0 01-29.23-47.744h.013zM49.39 555.383c-.123-15.544 9.209-27.262 19.885-37.384a4718.901 4718.901 0 0018.637 30.339 8.606 8.606 0 00-3.955 3.2c-2.369 3.164-3.434 6.858-5.565 10.058-2.254 3.388-5.861 4.037-8.436 6.977-1.518 1.742-1.883 3.776-2.222 5.943-.759 4.883-1.394 8.737-2.89 12.98-9.57-9.158-16.048-17.652-15.467-32.113h.013zm64.57 43.433a2.436 2.436 0 00-.343-.307 71.138 71.138 0 00-25.006-19.512c-3.539-1.66-6.648 3.607-3.086 5.28a67.182 67.182 0 0123.748 18.534c1.075 2.533-1.408 7.315-4.33 6.968a3.36 3.36 0 00-.709 0c-6.529-6.049-14.63-9.715-22.436-13.848-3.479-1.829-6.574 3.442-3.09 5.28 7.686 4.055 15.788 7.544 22.07 13.693 2.935 6.46-10.891 3.52-13.415 2.83a87.878 87.878 0 01-13.342-4.988c-14.937-7.685-1.532-21.268-.48-32.392.65-6.898 4.088-7.74 8.015-11.987 3.48-3.767 4.572-9.601 7.686-13.715 3.932-5.601 27.15 10.67 32.317 14.684.494 4.49 1.76 9.021 5.189 11.745a8.323 8.323 0 002.117 1.226c.457 1.746.915 3.52.86 5.303-.083 2.332-1.372 3.264-3.16 3.753a101.258 101.258 0 00-28.046-25.296c-3.37-2.048-6.447 3.237-3.086 5.281a93.817 93.817 0 0126.542 24.002c-.457 1.294-1.226 2.117-2.611 3.05-1.98 1.293-3.411 1.44-5.436.402l.032.014zm26.692 6.857a32.455 32.455 0 01-13.204-7.539c.114-.265.21-.548.306-.832 3.804-.914 7.009-3.255 7.846-7.383.146-.754.219-1.519.22-2.286.457.786.914 1.577 1.312 2.382 2.588 5.042 3.315 10.25 3.507 15.663l.013-.005zm1.738-31.628c.603-2.127.781-4.353.523-6.549a16.822 16.822 0 00-2.023-6.252c-1.047-1.829-2.569-3.337-3.973-4.915 6.25-6.181 13.182-11.74 20.218-16.979a118.924 118.924 0 005.354 3.012 2.933 2.933 0 002.488.183 3.192 3.192 0 001.216-.663l21.11-18.031 7.608 50.19-52.521.004zm296.999 11.599a1580.46 1580.46 0 01-51.301.494c-.123 0-.233 0-.347.032a4.405 4.405 0 00-.457.078h-.092c-9.967 2.679-21.38 4.055-31.521 1.312-7.1-1.921-13.282-5.944-20.68-6.89-6.749-.869-13.118.096-19.533 2.158-4.677 1.504-8.966 4.041-13.607 5.66-2.336.814-4.805 1.518-7.315 1.563-2.09.041-5.844-.736-5.994-3.479-.206-3.657 7.498-5.129 9.999-6.03a161.84 161.84 0 007.439-2.899 177.312 177.312 0 0016.46-7.959c3.461-1.884.375-7.164-3.086-5.281a163.9 163.9 0 01-17.731 8.454c-4.623 1.828-10.187 2.798-14.371 5.554a9.417 9.417 0 00-2.039 1.829l-.037-.032c-5.066-3.932 13.863-13.217 16.236-14.296 5.976-2.743 12.108-4.992 17.978-7.946 3.512-1.774.421-7.05-3.09-5.28-3.754 1.888-23.063 9.024-32.975 17.158.077-8.166 11.659-14.392 17.603-17.995 7.132-4.325 14.503-7.21 22.98-5.665.079.005.158.005.238 0 .189.047.381.076.576.087 5.71.325 11.389 4.353 16.784 6.081 9.822 3.145 19.954 3.237 30.109 1.929.088-.014.175-.034.26-.059.186-.001.371-.018.553-.051 16.877-3.2 33.46-8.087 50.094-12.316 15.628-3.973 32.403-9.638 48.653-9.99 3.928-.086 3.941-6.199 0-6.117-15.28.334-30.913 5.212-45.686 9.039.168-3.27.31-6.559.426-9.866 20.47-7.21 40.341-15.508 59.192-26.27l9.519 26.06c5.487 14.963 14.631 33.977 3.109 48.42-15.97 13.935-38.457 12.006-58.36 12.518l.014-.005zm540.741-87.322a11.02 11.02 0 01-2.671.649 610.982 610.982 0 005.487-17.346c1.541 2.904 2.286 5.99 1.857 9.213-.133.626-.247 1.262-.38 1.892-.855 2.204-1.993 4.664-4.307 5.606l.014-.014zM736.561 273.657c24.813 2.519 45.521-16.29 61.583-32.885 4.705-4.865 9.57-9.976 13.763-15.517 2.766 17.61 6.3 34.805 14.274 51.008 1.738 3.529 7.014.434 5.281-3.086a117.487 117.487 0 01-6.908-17.721 705.193 705.193 0 0119.66 1.93c19.826 11.269 12.144 31.116-.983 45.046-15.303 16.244-35.663 25.831-57.02 31.262-17.301 4.398-37.877 7.846-55.402 2.597-18.902-5.655-16.044-20.546-7.905-33.763a52.952 52.952 0 01.128 16.916c-.622 3.849 5.271 5.486 5.898 1.627 3.086-19.201-4.358-35.088-10.146-52.631 5.738 2.734 11.687 4.604 17.777 5.217zm-20.676 4.841c1.925 5.313 3.827 10.589 5.272 15.942-.245.19-.462.413-.645.663-9.638 13.442-17.713 33.375.348 43.703 19.135 10.972 46.897 5.874 66.979.786 25.499-6.465 51.163-19.307 66.699-41.316 9.561-13.542 11.143-28.601 1.345-39.446a369.64 369.64 0 0138.786 7.228 382.272 382.272 0 0153.436 17.451c16.917 6.945 40.331 14.872 50.843 30.856 9.952 15.137 7.552 35.152 4.572 52.013-2.25 12.664-4.307 25.319-6.026 38.07-3.242 24.021-5.788 48.238-9.977 72.139-9.633-15.48-36.079-25.501-49.892-28.802-15.861-3.786-32.586-4.892-48.854-4.805-10.878.055-21.947 1.678-31.736 6.35 5.217-16.376 10.168-32.849 15.847-49.074 29.692-26.938 60.989-56.197 100.942-66.164 3.813-.955 2.199-6.858-1.628-5.898-37.118 9.263-67.043 34.66-94.988 59.892 10.058-27.578 23.556-58.063 49.604-72.121 3.47-1.866.384-7.151-3.086-5.281-27.85 15.005-41.073 46.724-51.932 74.818a435.03 435.03 0 00-4.234 11.48c-.228.342-.37.734-.411 1.143-6.539 18.567-12.039 37.489-18.097 56.234a3.006 3.006 0 00-.425 1.294c-3.841 11.818-7.938 23.545-12.666 35.043-11.814-6.487-23.574-13.062-35.073-20.171-39.079-24.158-77.902-51.045-110.045-84.122-10.516-16.459-1.495-37.306-8.463-55.059-.197-.503-.375-.987-.558-1.476l10.155 3.927c1.545.599 3.351-.668 3.763-2.135 1.792-6.401 3.586-12.81 5.381-19.229.458-1.706-.594-3.173-2.135-3.758l-25.792-9.862a27.57 27.57 0 00-6.236-8.526c16.085-4.705 32.554-8.079 48.927-11.782v-.005zm-25.147 48.325l-11.495-4.449a125.095 125.095 0 01-3.402-14.835c-.073-.435-.178-.846-.265-1.267l18.893 7.224-3.731 13.327zm-119.962-52.992c20.118.073 38.759 6.967 57.359 14.273a10.514 10.514 0 00-5.268 7.402 17.23 17.23 0 00-9.825 1.202c-15.491-6.099-29.578-12.385-42.266-22.877zm-21.115 222.616c6.177-28.491 13.603-56.782 22.029-84.757 7.133 29.26 18.779 56.426 45.266 73.552 3.315 2.144 6.401-3.146 3.09-5.281-28.059-18.15-38.16-48.699-44.73-80.007a1287.795 1287.795 0 0112.272-37.297 103.656 103.656 0 0048.352 55.37 6099.503 6099.503 0 0033.756 40.428c-.557 13.57-1.879 27.134-3.566 40.649a222.741 222.741 0 01-116.469-2.657zm151.374-1.586c10.721 12.156 22.015 23.773 33.5 35.203-21.489-5.486-43.436-6.78-65.529-7.269 2.771-19.069 5.318-38.298 6.456-57.55a2442.536 2442.536 0 0025.573 29.616zm8.129 121.611c-42.362 4.362-84.564 6.62-127.108 3.228-10.356-1.765-18.445-8.147-23.602-17.236-6.475-11.43-4.755-23.349-3.324-35.761 2.341-20.285 2.926-40.786 4.951-61.135a229.377 229.377 0 00105.162 0c-.759 5.712-1.555 11.41-2.387 17.094-13.886-.237-27.799-.306-41.639-1.056-3.932-.215-3.923 5.902 0 6.113 41.045 2.226 82.73-1.706 122.381 11.324 4.493 4.414 8.995 8.818 13.506 13.213 19.697 19.238 38.864 39.455 59.206 58.062-35.856-1.17-71.441 2.492-107.146 6.168v-.014zm187.485 25.419c-29.066 4.01-54.41-16.001-74.445-34.508-21.719-20.116-42.408-41.485-63.555-62.177-29.344-28.725-56.663-58.483-83.214-89.562l-.458-.535a1744.54 1744.54 0 01-8.916-10.515 5652.244 5652.244 0 01-25.376-30.39 2.745 2.745 0 00-.827-.955 2.642 2.642 0 00-1.289-.764c-22.743-12.344-39.445-32.546-47.095-57.321a3.338 3.338 0 00-.457-.915 3.393 3.393 0 00-.242-.996l-.206-.485c-.06-.302-.18-.59-.352-.846-1.513-3.689-3.022-8.101-2.743-12.005a5.704 5.704 0 011.371-3.402 39.861 39.861 0 013.288-3.159 64.518 64.518 0 002.848 5.921c4.833 7.429 9.982 14.629 14.814 22.072 2.14 3.288 7.435.224 5.281-3.086-4.832-7.429-9.981-14.629-14.814-22.072-1.426-2.675-4.846-8.961-3.68-12.098 1.371-3.694 7.366-4.855 11.353-5.166 5.902 12.376 13.785 22.352 22.861 32.657 2.606 2.958 6.918-1.372 4.321-4.325-9.017-10.214-16.73-20.116-22.459-32.524-.874-3.155-2.259-8.229.306-10.867 2.652-2.744 7.416-3.201 10.887-1.934.26.528.566 1.033.914 1.508 8.321 12.632 13.758 27.029 23.428 38.756 2.51 3.04 6.813-1.308 4.325-4.32-9.299-11.279-14.461-25.365-22.472-37.522a6.757 6.757 0 01-.864-1.481 4.332 4.332 0 01-.265-.832c-.631-2.743 1.586-4.91 4.81-5.44 4-.654 8.134.192 10.859 3.323a173.941 173.941 0 0121.183 32.872c1.751 3.525 7.032.43 5.281-3.086a180.61 180.61 0 00-21.805-33.69c-.81-1.125-2.529-3.031-2.497-4.298a.56.56 0 00-.041-.274c.214.151.47.23.732.229 1.102.169 2.172.505 3.173.996 2.359 1.015 4.691 2.09 7.023 3.173.365.317.812.523 1.289.595.869.402 1.733.804 2.602 1.197 7.462 6.492 7.869 13.945 9.345 23.23a41.816 41.816 0 002.524 8.686c0 .032 0 .064.032.096 1.87 4.755 4.147 9.359 5.249 14.415 3.695 16.916-3.159 34.289 7.055 49.802.129.215.282.414.457.594 30.177 31.088 66.298 56.636 102.739 79.792 18.636 11.855 37.771 22.795 57.263 33.169 20.442 10.876 41.342 22.343 54.007 42.482 2.089 3.323 7.384.26 5.281-3.086-10.919-17.373-27.498-28.853-45.137-38.697-6.356-3.547-12.739-7.031-19.112-10.515 4.823-11.717 9.007-23.659 12.944-35.692 19.514-12.669 47.373-9.798 69.278-6.602 12.062 1.76 24 4.828 34.923 10.351 5.697 2.885 14.142 7.735 19.958 13.839-9.245 31.82-21.033 62.492-33.542 93.156-6.255 15.329-11.371 31.577-19.066 46.244-6.625 12.774-13.731 24.921-29.075 27.001v-.014zm97.256-63.818c-8.966-.539-18.06.256-26.976 1.152-3.882.389-3.919 6.506 0 6.113 3.479-.348 26.615-3.141 33.321-.846.15.08.32.143.49.187.75.339 1.23.759 1.32 1.29.99 4.572-2.545 7.996-6.683 8.883a2.343 2.343 0 00-.265 0c-11.051-.224-22.235.553-33.057 2.834-3.85.814-2.222 6.707 1.627 5.898 10.059-2.126 20.507-2.798 30.808-2.624 3.736 2.985-2.615 7.667-4.897 8.599-2.601 1.07-5.436 1.751-8.138 2.519-6.443 1.829-13.036 3.658-19.693 4.522h-.064a3.12 3.12 0 00-.745.091c-9.789 2.392-19.487 3.548-29.208 1.025 5.487-11.243 9.419-23.596 13.26-33.27 6.401-16.111 12.871-32.122 19.029-48.233 3.919.261 7.979.517 11.637 1.98 3.831 1.527 5.898 4.279 7.009 7.772-5.87-.251-11.752.016-17.576.796-3.877.585-2.231 6.478 1.628 5.897 7.599-1.138 37.998-3.008 36.548 9.825-12.466-.763-24.925-1.961-37.403-.846-3.891.348-3.927 6.465 0 6.113 12.802-1.139 25.563.151 38.343.914 1.42 1.875 1.44 4.421.46 6.52-.15.206-.27.43-.36.667a6.49 6.49 0 01-3.55 2.858c-.04 0-.07.036-.11.05a49.081 49.081 0 00-6.755-.672v-.014z" fill="#382A31"/><path d="M269.739 304.014a2.885 2.885 0 00-.553.283 2.436 2.436 0 00-.279.229 3.59 3.59 0 00-.292.26c-4.669 5.112-3.539 11.608 1.97 15.517 1.056.75 2.844.457 3.704-.457 4.352-4.704 4.115-11.283-1.047-15.311a3.277 3.277 0 00-3.503-.521zm73.381.512a.568.568 0 00-.06-.05c-.059-.06-.128-.105-.187-.16-1.249-1.034-2.863-.736-4.079.21-5.157 4.023-5.395 10.607-1.042 15.311.85.914 2.642 1.235 3.703.457 5.487-3.909 6.639-10.401 1.971-15.517a4.028 4.028 0 00-.293-.26l-.013.009zm-34.229 17.313c1.505-3.511 1.459-7.703 1.527-11.452.069-3.937-6.049-3.937-6.117 0-.073 4.115 0 7.822-2.588 11.169-2.044 2.652-4.005 4.837-3.809 8.398.339 6.296 5.29 10.456 11.147 11.009 3.914.371 3.891-5.746 0-6.117-3.891-.37-5.445-4.828-3.763-8.042.983-1.879 2.735-2.939 3.603-4.965zm-25.746-38.193a44.748 44.748 0 00-26.263 1.44c-3.657 1.372-2.08 7.265 1.628 5.898a38.832 38.832 0 0123.008-1.44c3.827.923 5.459-4.974 1.627-5.898zm72 1.44a44.748 44.748 0 00-26.263-1.44c-3.823.915-2.204 6.821 1.627 5.898a38.832 38.832 0 0123.008 1.44c3.699 1.362 5.294-4.526 1.628-5.898zm-119.432-.96a3.198 3.198 0 003.2-2.916 89.026 89.026 0 0143.619-68.285c1.756-1.034 1.77-2.945.915-4.271-.8-1.243-2.355-1.979-4.001-1.01-26.601 15.668-43.729 42.884-46.637 73.566-.215 2.02 1.322 2.985 2.904 2.916zm140.153 6.154c1.925 1.029 4.746.219 4.43-2.478-2.286-19.321-10.452-39.286-21.947-55.027-11.188-15.338-27.721-21.844-45.201-27.518-3.754-1.216-5.359 4.686-1.628 5.898 10.517 3.415 20.484 7.109 29.052 13.016a54.307 54.307 0 0114.339 14.283c9.789 14.392 17.233 32.03 19.267 49.33a3.144 3.144 0 001.688 2.496z" fill="#382A31"/><path d="M284.494 182.11c26.885-24.688 66.755-12.874 88.523 12.427 25.326 29.429 23.429 65.217 16.287 101.143a3.108 3.108 0 002.098 3.602c1.537.567 3.393.082 3.8-1.975 4.115-20.761 7.974-42.934 3.726-63.978-3.594-17.83-12.967-34.682-25.709-47.593-24.567-24.898-65.694-33.077-93.05-7.951a2.71 2.71 0 00-.947 1.994c-.032 2.286 3.041 4.38 5.272 2.331zm12.034 183.075c7.906 8.092 43.437 2.464 34.937-10.314a3.07 3.07 0 00-.608-.864 2.917 2.917 0 00-.759-.672c-6.488-5.564-18.618-5.646-26.3-3.749-6.982 1.733-13.84 8.892-7.27 15.599zm13.905-10.369c4.764-.261 12.441-.137 16.098 3.511 1.235 1.536-10.191 4.417-10.909 4.522-3.749.544-11.997 1.536-14.768-1.989-3.699-4.695 6.908-5.898 9.579-6.044zm40.761 165.405a738.08 738.08 0 0046.852-89.718c1.563-3.57-3.704-6.688-5.281-3.086a738.08 738.08 0 01-46.852 89.718c-2.062 3.365 3.228 6.442 5.281 3.086z" fill="#382A31"/><path d="M291.462 206.739a78.063 78.063 0 0030.428 19.659c2.209.786 3.658-.978 3.704-2.816a3.06 3.06 0 00-2.076-3.082c-16.917-6.035-30.442-17.853-38.937-33.626-1.87-3.465-7.151-.384-5.281 3.086a77.599 77.599 0 0012.162 16.779zm54.881-6.232c3.347 2.099 6.401-3.2 3.086-5.28-14.668-9.199-31.887-10.273-47.739-3.516-3.612 1.541-.498 6.812 3.087 5.281 13.831-5.889 28.914-4.412 41.566 3.515zm-103.292 12.911a75.75 75.75 0 00-18.673 42.944c-.402 3.909 5.72 3.881 6.118 0a68.603 68.603 0 0116.881-38.619c2.583-2.948-1.724-7.292-4.326-4.325zm101.248 394.537c-.238-1.303-1.692-2.245-2.949-2.245H178.34a2.401 2.401 0 00-2.885 1.513 2081.052 2081.052 0 00-48.379 118.905c-.704 1.892 1.102 3.872 2.949 3.872h232.796c2.126 0 3.297-1.948 2.949-3.872-7.16-39.391-14.317-78.782-21.471-118.173zM159.091 723.883h-24.649a2069.905 2069.905 0 0145.636-112.056h158.734l20.356 112.056H159.091zm69.64-218.004c1.619 3.58 6.89.457 5.281-3.086a424.004 424.004 0 01-31.041-100.123c-.695-3.868-6.589-2.232-5.898 1.623a430.291 430.291 0 0031.658 101.586z" fill="#382A31"/><path d="M325.621 696.777c-14.462.781-28.938 1.504-43.436 1.371-14.078-.151-28.17-2.533-42.225-2.176-13.716.352-26.697 2.391-40.524 1.682-9.542-.489-21.187-1.371-29.184 4.851-3.1 2.423 1.257 6.721 4.325 4.325 9.666-7.548 29.048-2.172 40.209-2.496 12.134-.352 23.816-2.743 36.024-1.902a596.1 596.1 0 0074.802.457c3.918-.21 3.946-6.336.009-6.112zm-143.815-14.452a115.082 115.082 0 0122.651-2.917c3.927-.114 3.941-6.231 0-6.112a123.366 123.366 0 00-24.279 3.14c-3.831.874-2.213 6.771 1.628 5.889zm41.164-1.856c11.257 1.476 23.021-.723 33.972 1.371 8.065 1.564 14.631 2.323 22.628-.292 3.726-1.217 2.13-7.123-1.623-5.898-9.876 3.228-17.315-.563-27.027-.823-9.51-.256-18.367.759-27.95-.498-3.882-.49-3.854 5.632 0 6.14zm73.252.023l22.45-1.729c3.9-.301 3.932-6.4 0-6.117l-22.45 1.728c-3.9.302-3.932 6.419 0 6.118zm101.682-532.41c1.874-12.344 12.395-22.777 25.458-21.945 18.243 1.17 18.289 21.547 12.802 34.074-6.638 15.156-17.411 24.555-17.767 41.75-.078 3.936 6.035 3.936 6.117 0 .307-14.781 9.415-23.193 15.706-35.903 5.487-11.059 8.632-24.605 1.532-35.738-14.353-22.516-46.463-5.541-49.751 16.125-.581 3.859 5.313 5.518 5.903 1.637zm28.535 72.921a8.782 8.782 0 00-.882-.151 5.31 5.31 0 00-.713.055c-2.629.288-4.819 2.286-4.81 5.098 0 2.912 2.61 5.559 5.532 5.486a5.486 5.486 0 005.217-4.627 5.061 5.061 0 00-.96-3.817 5.315 5.315 0 00-3.384-2.044z" fill="#382A31"/></g><defs><clipPath id="a"><path fill="#fff" transform="rotate(90 282 321)" d="M0 0h711v588H0z"/></clipPath><clipPath id="b"><path fill="#fff" d="M0 0h536v730H0z"/></clipPath></defs></svg>