<svg viewBox="0 0 723 796" fill="none" xmlns="http://www.w3.org/2000/svg"><path d="M332.748 143.565C314.239 224.05 193.715 250.176 43.738 402.29c-14.375 14.599-28.939 29.816-36.735 48.838-8.53 20.8-8.263 44.701-3.569 67.223C15.9 578.468 59.168 631.075 112.878 662.384c53.71 31.309 116.83 42.656 177.635 39.896 34.717-1.547 69.569-7.519 104.073-1.201 30.924 5.627 60.37 20.952 91.602 22.479 51.763 2.374 95.419-33.166 130.035-70.039 22.89-24.468 44.894-51.617 52.3-84.67 10.832-48.408-11.336-98.666-24.016-147.643-10.19-39.418-14.347-79.802-21.887-119.653-8.953-47.267-22.799-93.759-41.189-138.584-10.981-26.749-18.377-39.38-30.83-54.508-34.945-42.208-98.646-78.553-150.136-61.735-10.153 3.279-17.287 7.752-19.741 9.49-33.607 24.813-47.976 87.349-47.976 87.349z" fill="#F90"/><g clip-path="url(#a)"><path fill-rule="evenodd" clip-rule="evenodd" d="M350.067 297.352c-8.368-3.431-11.193-14.176-15.817-21.808-6.076-10.014-10.291-19.421-12.611-30.983-5.418-27.013 5.038-54.486 7.869-81.301.397-3.81-.919-8.471-2.27-14.176-.748-3.124-1.957-7.938-3.891-9.475-1.6-1.293-2.621-1.701-4.335-2.92-3.324-2.336-7.488-5.67-9.207-9.435-2.207-4.843-2.593-11.007.454-15.917 1.333-2.143 3.971-3.765 4.68-6.311 3.909-13.887 5.673-27.513 14.898-39.256 6.847-8.738 14.262-14.13 24.281-18.86 11.085-5.238 23.975-6.91 35.395-1.91 17.95 7.865 20.537 27.87 30.363 42.584 6.774 10.138 19.17 16.058 16.514 30.228-.709 3.771-4.323 11.194-7.545 13.258-2.524 1.616-8.816 3.907-8.816 3.907s-5.713 16.971-5.815 22.431c-.13 7.105-.357 17.187.908 24.252 2.11 11.755 5.31 18.656 2.899 30.535-2.145 10.604-7.863 20.158-12.652 29.724-9.077 18.145-22.176 38.28-39.956 48.663-4.567 2.67-10.308 8.834-15.346 6.77zM169.921 528.928s-30.391 42.198-39.57 61.409c-7.376 15.458-6.927 23.889-13.934 39.307-3.801 8.37-4.76 15.004-7.539 23.05-4.721 13.682-10.666 28.737-15.471 43.769-2.332 7.315-5.48 22.148-7.823 35.253-2.74 15.309-5.793 48.26-7.217 55.064-1.135 5.336 21.638 7.474 26.023 7.525 9.673.096 30.93-.624 32.729-4.168 3.659-7.213 10.41-23.776 13.519-31.09 8.918-20.981 17.065-40.526 22.364-62.788 3.523-14.799 4.328-28.964 13.19-42.051 5.247-7.746 9.644-13.524 16.163-20.09 9.922-9.94 22.397-20.77 32.967-30.053 6.41-5.63 19.345-20.458 19.345-20.458a15.557 15.557 0 002.485-6.538c1.912-12.685-5.963-24.161-15.386-31.652-14.96-11.908-34.374-20.079-53.702-20.062-6.025 0-18.143 3.573-18.143 3.573zm313.115 34.05s11.176 6.805 22.352 14.42c18.347 12.475 41.613 29.628 52.761 40.299 11.596 11.097 28.037 27.03 36.779 40.826 8.51 13.416 12.577 28.176 17.814 42.97 7.165 20.232 16.361 37.696 25.018 52.785 6.808 11.908 21.559 32.826 24.27 36.336 5.435 7.036 33.79 5.466 46.674 4.712 1.299-.074 11.703-1.979 12.356-3.476 1.135-2.609-5.673-18.055-6.11-19.846-4.771-20.062-11.624-38.559-17.848-58.184-4.357-13.756-10.382-28.777-17.922-45.3-4.669-10.206-12.679-22.681-16.928-32.74-3.404-8.013-5.77-12.946-8.408-20.017-1.895-5.103-6.632-15.712-12.203-24.076-3.132-4.7-9.582-14.459-12.328-19.205-6.031-10.417-10.512-18.105-17.235-28.057-6.513-9.639-14.285-22.347-20.809-30.75-4.267-5.489-14.183-18.814-14.183-18.814s-7.75.641-13.985 2.835c-11.664 4.122-26.408 11.783-34.243 17.351-7.942 5.671-7.063 4.888-13.434 10.672-4.987 4.536-11.29 9.282-15.477 14.646-3.602 4.61-6.609 10.003-9.95 14.834-1.776 2.574-6.961 7.779-6.961 7.779z" fill="#FFEDDE"/><path fill-rule="evenodd" clip-rule="evenodd" d="M380.913 153.433c-2.196-1.083-5.991-.867-9.554-.873-3.217 0-6.195-.34-8.221.873-1.134.675-4.011 3.215-2.728 5.138.941 1.417 3.472 3.011 5.105 3.011 4.698 0 12.067.844 16.595-.97 4.703-1.888.76-6.215-1.197-7.179z" fill="#fff"/><path fill-rule="evenodd" clip-rule="evenodd" d="M328.027 152.628c0-.669-2.905 2.592-5.77 6.612-2.087 2.943-4.379 6.929-4.379 6.929a89.49 89.49 0 00-14.149 4.593c-19.822 8.727-42.742 17.947-59.705 30.62-9.956 7.451-19.442 15.973-27.396 25.754-11.692 14.386-16.452 30.62-21.127 48.198-1.049 3.969-2.104 14.885-3.006 18.746-4.664 20.034-9.197 34.895-12.391 55.876-.601 3.969-6.036 19.982-3.642 26.367 1.521 4.048 4.851 5.568 8.447 8.647 6.349 5.432 15.658 13.756 22.631 15.571 10.308 2.687 20.049 1.292 29.671-2.098a15.146 15.146 0 006.654-4.798c1.419-1.701 2.877-6.708 4.011-6.14.482.238 2.774 13.109 1.509 16.897-1.656 4.973-11.153 19.052-11.153 19.052s1.985 3.232 2.405 5.325c1.135 5.596 1.47 14.68 6.456 18.559 16.396 12.741 39.032 21.677 58.122 29.451 9.565 3.896 19.856 9.186 30.272 10.485 25.342 3.17 47.825-6.646 72.248-10.893 7.943-1.383 16.248-1.094 24.213-2.415a288.798 288.798 0 0042.385-10.49c5.764-1.923 7.193-10.695 9.281-15.31 6.241-13.847 9.957-28.618 19.782-40.742 7.569-9.356 18.183-15.4 28.656-20.98 2.944-1.571 10.512-2.03 12.481-5.466 2.133-3.708-1.038-26.446-1.628-44.796-.568-18.077-.687-50.681-1.975-68.741-.567-8.137-1.288-15.939-4.777-23.413-2.927-6.271-6.807-14.606-11.346-19.749-8.754-9.918-20.225-18.486-31.77-25.409-12.702-7.615-24.196-12.197-36.688-20.311-6.36-4.134-27.759-14.964-27.759-14.964s-3.727-9.107-8.692-12.821c-4.964-3.714-3.806-.947-5.31.93-1.616 2.019-.329 16.83-.204 19.223.403 7.609 1.294 17.578 1.294 17.578s-1.01 2.665-1.873 5.931c-3.324 12.639-7.505 26.168-15.686 39.386-8.595 13.886-21.314 27.41-29.778 38.121-4.641 5.875-10.609 18.225-10.609 18.225s-4.499-8.018-6.337-10.808c-2.451-3.714-10.047-13.297-13.258-20.266-4.539-9.866-12.436-18.411-13.247-29.332-.568-7.287-.76-9.022-.375-18.639.386-9.616 3.915-24.042 4.942-31.243 1.134-7.904 1.134-21.315 1.134-21.315s-2.564-3.005-2.564-5.937z" fill="#fff"/><path fill-rule="evenodd" clip-rule="evenodd" d="M166.948 527.765c-1.367 4.157 5.753.131 13.452 3.402 7.698 3.272 20.661 8.171 27.747 11.795 11.914 6.078 36.082 18.241 36.082 18.241s6.28 10.774 10.404 11.687c18.79 4.304 30.703-6.833 43.894-17.822 17.967-14.958 36.875-35.519 59.886-42.493 13.944-4.225 29.427 4.536 37.363 7.734 2.434.981 6.939-.76 6.939-.76s32.45 25.635 40.784 35.502c3.33 3.941 18.54 19.092 20.225 20.98 4.612 5.143 8.51 7.343 10.149 7.162 3.404-.358 10.632-3.862 12.13-4.389 1.095-.386 12.214-6.238 12.214-6.238l-14.058-10.887s16.827-15.071 22.846-20.906c9.304-9.021 19.856-19.676 28.967-27.427 6.672-5.671 11.539-8.903 19.941-13.104 4.686-2.337 22.619-6.011 22.619-6.011s-7.653-9.543-7.704-9.6c-5.106-5.103-9.202-10.133-14.449-15.168-6.808-6.504-21.371-24.008-21.371-24.008s-5.906 2.353-7.897 1.786c-3.404-.97-7.029-.465-10.519-.913-23.867-3.079-47.711-3.289-71.777-2.744-32.7.742-65.576 1.395-98.288.913-17.876-.261-35.622-2.269-53.486-2.269-12.175 0-24.395-.652-36.575-1.372-8.17-.476-19.091-.856-26.517 3.658-13.383 8.148-29.597 35.643-29.597 35.643s-27.169 28.658-33.404 47.608z" fill="#fff"/><path fill-rule="evenodd" clip-rule="evenodd" d="M387.232 483.775c-6.807-2.608-20.423 3.437-27.577 4.049-13.553 1.134-27.231-1.134-34.765 4.604-2.162 1.645-3.047 8.064-5.061 12.35-2.014 4.287 3.938 6.368 3.938 6.368l4.992-2.92 3.12 5.353s-10.212 3.572-10.024 7.371c.136 2.886-.25 2.631-.25 2.631s-7.131 4.134-5.27 6.515c1.781 2.268 6.081 3.34 6.081 3.34s-.408 2.058.834 2.835c4.096 2.478 14.751 4.264 14.751 4.264s8.044 4.072 15.215 5.937c7.069 1.837 15.318 1.82 20.991-1.134.108-.057 10.387-9.532 10.745-9.787 5.106-3.703 9.536-10.059 12.776-14.868 5.265-7.813 5.934-14.028.21-24.212-.692-1.225-.085-4.36-1.078-5.364-2.984-3.039-5.724-5.84-9.628-7.332zm-99.263 42.295c-2.366-2.404-3.716-4.264-9.73-9.724-4.124-3.743-10.898-2.444-15.703.096-8.606 4.536-12.481 9.571-15.131 17.816-1.804 5.557-1.27 15.679-2.377 21.956-1.106 6.277-3.108 10.716-.89 16.443 2.314 5.954 9.315 11.438 14.239 15.157 3.092 2.336 3.864 3.584 7.512 4.803 3.239 1.083 17.019-.136 24.803-2.654 3.461-1.134 5.179-4.655 5.179-4.655s7.438-1.979 9.77-5.041c3.046-4.015-5.43-10.66-5.43-10.66l4.335-4.332 2.604 10.014s4.538-.477 5.588-1.826c3.88-4.956 7.375-12.163 7.704-18.877.255-5.37-5.441-14.176-9.162-16.631-8.964-5.863-15.715-4.179-23.311-11.885zM539.58 384.125s-8.271 2.688-12.186 3.805c-9.775 2.79-20.077 5.489-30.141 4.649-4.068-.334-13.094-.958-13.094-.958s.998 25.789.425 29.633c-.573 3.845-16.543 11.602-27.946 20.98-21.558 17.703-50.049 28.67-50.049 28.67s2.729 2.755 3.297 3.266c2.49 2.268 5.468 4.536 7.488 7.258 3.534 4.712 9.384 15.463 9.384 15.463l.686 6.044s20.026-4.06 26.919-6.152c12.578-3.828 27.532-9.073 39.644-14.176 8.113-3.402 14.019-6.044 20.543-10.343 3.637-2.392 8.589-5.103 11.522-9.231 4.176-5.914 6.241-9.577 8.204-16.841 2.456-9.072 4.277-21.949 4.277-30.79 0-9.095 1.027-31.277 1.027-31.277zm-358.12-1.69s-1.316 2.183-2.785 28.595c-.568 10.53-1.481 20.221 1.946 30.49 3.772 11.34 11.13 23.702 17.201 33.699 5.049 8.312 12.696 18.576 18.96 26.083 2.433 2.92 9.343 10.955 9.343 10.955s1.872-5.67 2.077-6.969c.658-4.292 2.19-9.135 4.873-12.605 4.005-5.177 10.393-7.938 16.361-9.254 1.402-.306 10.955-1.026 10.955-1.026s-5.361-10.49-6.24-12.668c-4.578-11.114-7.648-26.792-12.385-37.838-4.476-10.433-7.477-8.982-7.097-20.26a78.02 78.02 0 011.674-12.633 41.764 41.764 0 01-11.574 2.773c-9.888 1.049-15.964-1.673-20.344-3.403-10.285-4.128-22.965-15.939-22.965-15.939z" fill="#FFEDDE"/><path fill-rule="evenodd" clip-rule="evenodd" d="M312.607 107.373s-5.872-24.824-7.29-32.048c-.913-4.633-1.997-9.073-1.622-13.864 1.1-14 8.612-24.598 17.831-34.59 5.746-6.236 11.635-10.71 19.436-15.4 7.165-4.304 16.146-9.033 23.941-9.685 7.607-.635 13.808 1.214 21.291 4.02 4.363 1.634 6.462 5.512 10.927 6.998 6.683 2.228 14.977.754 20.82 4.927 9.355 6.68 16.333 15.486 18.092 26.906 1.055 6.884 2.366 20.906 1.787 27.784-.244 2.92-.942 9.141-1.191 10.95-.811 5.863-.755 19.789-9.009 20.708-7.29.811-13.19-8.069-16.237-13.887-3.5-6.68-4.034-11.198-6.808-18.145-2.036-5.103-2.99-10.632-6.484-15.122-4.249-5.461-10.876-4.22-16.747-3.244-3.404.567-6.15.981-9.985.431-5.384-.771-7.807-4.536-13.423-3.402-4.391.879-9.281 9.418-11.965 13.2a60.097 60.097 0 01-11.346 11.834c-3.971 3.08-8.419 2.121-9.979 7.57-1.56 5.45-1.322 7.684-2.122 13.246-.17 1.236.318 8.25-.834 10.967-1.152 2.716-9.083-.154-9.083-.154z" fill="#E8B98D"/><path fill-rule="evenodd" clip-rule="evenodd" d="M421.703 295.792c-10.842.794-21.32 3.527-29.66 7.372-43.025 19.954-45.175 66.637-45.175 91.984 0 9.889 2.836 37.94.465 53.465-5.304 34.498-18.387 59.93-18.387 59.93s.823 6.016 6.468 5.908c4.777-.09 27.344-5.54 27.344-5.54s11.613-5.551 38.987-8.584c25.529-2.836 65.967-2.614 90.26-17.731 13.848-8.619 28.933-27.218 35.741-43.957 7.103-17.459 5.634-32.973 5.634-40.441 0-19.16-11.233-44.081-22.177-59.096-12.248-16.812-36.308-31.317-57.458-39.25-9.985-3.765-21.206-4.853-32.042-4.06zm31.497 13.683c2.536.743 16.765 7.048 28.746 17.998 4.221 3.85 23.442 23.622 27.669 35.048 0 0 24.735 53.386-4.04 88.519-1.197 1.463-13.791 21.105-33.693 27.269-22.301 6.901-52.647-.119-64.107-8.993-9.196-7.122-41.754-32.809-45.601-68.793-.601-5.67-7.942-24.059 5.202-55.229 12.113-28.68 38.34-33.755 40.984-37.395 1.684-2.314 27.276-3.584 44.84 1.576zm-90.254 133.417s9.763 13.467 22.539 24.099c11.142 9.265 25.53 15.627 25.683 18.281.04.697-25.53 7.332-31.203 7.575-5.673.244-29.5 8.126-29.5 8.126s7.114-22.596 9.077-32.888c1.963-10.292 3.404-25.193 3.404-25.193z" fill="#79A8C6"/><path fill-rule="evenodd" clip-rule="evenodd" d="M332.214 514.639c-.568-1.985-2.565-3.272-3.824-4.899-.306-.392-1.135-1.702-1.895-1.39-1.032.414-2.332 2.359-3.126 3.136-2.053 2.024-3.926 4.185-5.962 6.237-5.106 5.104-9.492 10.853-14.297 16.217-2.785 3.108-6.076 5.75-8.901 8.733-2.093 2.217-7.188 5.29-7.171 8.857 0 5.353 4.368 11.596 8.691 14.459.607.397 3.331 2.835 4.153 2.478 3.75-1.503 6.768-6.033 9.35-8.874 4.113-4.536 8.509-8.738 12.691-13.166 1.594-1.702 4.022-3.522 5.202-5.501.686-1.134-1.997-2.665-2.689-3.26-1.26-1.089-1.464-2.212-2.366-3.436-1.067-1.458-3.12-1.917-4.646-2.626a1.6 1.6 0 01-.993-1.661c.567-3.618 3.307-3.816 4.89-6.277 1.583-2.461 1.004-4.536 3.818-6.328 1.441-.93 7.472-1.304 7.075-2.699zm7.097-12.208l.238-.335-.238.335z" fill="#C6CCD3"/><path d="M295.69 580.21a21.893 21.893 0 01-6.87-1.134c-2.922-1.083-6.286-3.742-7.943-5.67-.959-1.134-2.014-2.166-3.075-3.215-1.946-1.934-3.971-3.935-5.446-6.396a36.256 36.256 0 01-3.001-7.116 48.998 48.998 0 00-1.77-4.678 1.483 1.483 0 01.746-1.92 1.481 1.481 0 011.943.684 51.414 51.414 0 011.878 4.967 33.34 33.34 0 002.74 6.538c1.293 2.154 3.092 3.935 4.992 5.829 1.135 1.1 2.23 2.205 3.234 3.402 1.43 1.661 4.414 3.969 6.751 4.854 1.94.72 6.944 1.497 9.208.363a1.348 1.348 0 00.805-.823c.823-2.767-1.894-4.984-4.998-7.201-3.455-2.472-6.371-7.337-7.477-9.322-2.173-3.924-2.899-7.802-2.774-14.833.007-.388.167-.757.443-1.029.277-.271.65-.423 1.038-.423a1.475 1.475 0 011.446 1.503c-.13 7.309.783 10.427 2.406 13.348 1.622 2.92 4.147 6.588 6.405 8.21 3.046 2.178 7.812 5.574 6.32 10.592a4.335 4.335 0 01-2.321 2.62c-1.476.63-3.076.921-4.68.85z" fill="#5B2714"/><path d="M270.688 594.658c-2.564 0-5.287-.567-6.541-1.219-1.951-.981-3.585-2.517-5.162-4.003-.766-.715-1.521-1.435-2.304-2.064-1.134-.919-2.382-1.798-3.625-2.688-2.541-1.809-5.174-3.68-7.273-6.027a15.894 15.894 0 01-3.404-6.521c-1.134-4.14-.238-8.591.653-12.889.38-1.826.732-3.55.913-5.171.213-2.362.3-4.734.261-7.105 0-3.703 0-7.536.913-11.142 2.553-10.207 15.414-24.814 27.283-23.283 5.985.777 9.82 4.99 13.53 9.073 1.231 1.349 2.394 2.631 3.62 3.759 1.225 1.129 4.692 2.892 7.511 4.338 2.105 1.077 3.92 2.007 4.975 2.71a1.482 1.482 0 01.338 2.004 1.483 1.483 0 01-1.983.452c-.907-.607-2.74-1.548-4.68-2.541-3.285-1.701-6.689-3.402-8.17-4.791-1.316-1.219-2.575-2.603-3.801-3.969-3.5-3.845-6.807-7.479-11.72-8.114-10.048-1.31-21.729 11.816-24.032 21.065-.811 3.255-.823 6.906-.828 10.433a68.898 68.898 0 01-.278 7.423c-.193 1.757-.568 3.634-.959 5.443-.817 3.969-1.662 8.046-.698 11.494a12.864 12.864 0 002.735 5.353c1.878 2.103 4.368 3.872 6.779 5.591 1.294.924 2.576 1.831 3.767 2.789.84.675 1.657 1.446 2.479 2.218 1.419 1.343 2.894 2.727 4.459 3.515 2.111 1.055 7.376 1.134 8.147.374a1.472 1.472 0 011.044-.432 1.472 1.472 0 011.044 2.519c-.982 1.032-2.939 1.406-4.993 1.406z" fill="#5B2714"/><path d="M277.592 593.842h-.227c-5.435-.182-9.519-4.185-13.122-7.718-1.208-1.19-2.354-2.307-3.5-3.254a91.82 91.82 0 00-1.793-1.424c-3.716-2.909-8.339-6.532-8.929-11.975a1.48 1.48 0 112.938-.318c.46 4.202 4.369 7.264 7.812 9.969.641.499 1.265.986 1.85 1.468 1.248 1.026 2.434 2.189 3.693 3.402 3.404 3.306 6.865 6.731 11.148 6.873 3.551.09 14.671-2.234 16.384-5.449a1.485 1.485 0 01.872-.72 1.465 1.465 0 011.572.471 1.463 1.463 0 01.331 1.08 1.465 1.465 0 01-.165.552c-2.65 5.013-15.471 7.043-18.864 7.043z" fill="#5B2714"/><path d="M287.798 587.667a10.734 10.734 0 01-3.664-.567c-4.17-1.542-7.847-4.502-11.092-7.111l-.368-.3c-.817-.658-1.623-1.282-2.406-1.894-5.23-4.088-9.746-7.621-12.197-14.743a1.48 1.48 0 112.797-.958c2.161 6.3 6.161 9.424 11.227 13.382.789.618 1.6 1.253 2.428 1.916l.375.301c3.216 2.591 6.546 5.262 10.262 6.645 2.752 1.015 8.794-.385 12.039-1.134l.34-.085c4.079-.947 6.524-2.415 7.075-4.235.55-1.821-.715-4.446-3.665-7.559a1.478 1.478 0 01.057-2.092 1.478 1.478 0 012.093.056c3.824 4.043 5.242 7.457 4.346 10.445-.897 2.988-3.972 5.047-9.236 6.238l-.341.079c-2.865.709-6.762 1.616-10.07 1.616z" fill="#5B2714"/><path d="M309.306 576.706h-.227c-1.997-.107-3.563-1.525-4.181-3.793-1.226-4.491-1.992-7.292.158-10.87.21-.322.535-.55.91-.637a1.48 1.48 0 011.626 2.162c-1.503 2.495-1.004 4.321.091 8.313.227.839.63 1.826 1.555 1.871 1.321.119 3.324-1.548 4.788-5.262.612-1.571 1.339-3.096 2.053-4.593 2.837-5.977 4.409-9.838.942-13.711a1.474 1.474 0 01.613-2.376 1.48 1.48 0 011.588.409c4.953 5.534 2.196 11.34-.476 16.942-.681 1.435-1.379 2.904-1.969 4.406-2.099 5.274-5.202 7.139-7.471 7.139zm35.741-49.269c-2.372 0-4.737-.063-7.086-.125-1.878-.051-3.75-.102-5.588-.119-6.297-.051-9.911-1.134-11.347-3.487-.601-.959-1.094-2.592 0-4.928 1.81-3.844 8.357-5.103 13.123-5.67 5.554-.703 8.731-1.372 12.753-2.217l1.452-.306c1.004-.21 2.15-.431 3.37-.664 4.34-.839 9.741-1.877 12.419-3.221a1.477 1.477 0 011.09-.026 1.477 1.477 0 01.907 1.813 1.479 1.479 0 01-.675.856c-3.041 1.525-8.431 2.563-13.185 3.476-1.197.232-2.326.453-3.319.657l-1.452.307c-4.09.862-7.319 1.542-12.992 2.268-7.846.975-10.211 2.705-10.818 3.969-.607 1.264-.295 1.917-.182 2.098.386.612 2.025 2.053 8.896 2.104 1.86 0 3.75.068 5.673.119 7.375.198 15.034.408 21.944-1.475.743-.198 1.588-.357 2.456-.51 1.504-.272 3.058-.567 4.079-1.134a1.478 1.478 0 011.953.589 1.48 1.48 0 01-.489 1.98c-1.458.833-3.268 1.134-5.015 1.474-.783.136-1.538.272-2.207.454-5.1 1.406-10.427 1.718-15.76 1.718z" fill="#5B2714"/><path d="M352.422 537.417c-3.642 0-7.375-.267-11.233-.567l-5.463-.369c-5.844-.352-12.481-.749-17.752-3.311-3.018-1.463-3.302-3.578-3.199-4.707.249-2.807 3.233-5.273 5.968-6.044a1.478 1.478 0 011.685 1.055 1.478 1.478 0 01-.885 1.78c-1.89.527-3.711 2.177-3.824 3.459-.063.663.459 1.264 1.549 1.786 4.76 2.308 11.068 2.688 16.639 3.022l5.497.369c11.801.862 21.122 1.531 31.872-4.616a1.484 1.484 0 012.135 1.674 1.485 1.485 0 01-.665.895c-7.744 4.457-14.887 5.574-22.324 5.574zm75.776-32.781a1.477 1.477 0 01-1.449-1.273 1.475 1.475 0 011.041-1.624c2.593-.755 6.275-1.701 10.677-2.836 11.153-2.835 26.437-6.742 40.796-11.828 12.271-4.343 23.878-10.558 31.543-14.85.851-.477 1.804-.942 2.836-1.429 7.149-3.448 17.945-8.665 21.678-37.26.947-7.258 1.35-16.495 1.855-28.193.255-5.925.567-12.543.947-19.976a1.414 1.414 0 011.515-1.39 1.484 1.484 0 011.02.488 1.456 1.456 0 01.375 1.066c-.402 7.422-.686 14.028-.941 19.948-.511 11.766-.919 21.06-1.878 28.448-3.971 30.183-15.607 35.808-23.323 39.534-.964.465-1.86.896-2.66 1.349-7.761 4.344-19.522 10.638-32.003 15.061-14.489 5.103-29.841 9.038-41.051 11.907-4.368 1.134-8.016 2.047-10.586 2.796a1.485 1.485 0 01-.392.062z" fill="#5B2714"/><path d="M397.597 522.736a1.48 1.48 0 01-.09-2.954c1.968-.125 5.383-2.722 8.997-5.478 2.184-1.661 4.448-3.402 6.854-4.956a24.787 24.787 0 018.702-3.402c3.631-.822 4.493-1.015 3.404-7.371a1.487 1.487 0 01.215-1.152 1.47 1.47 0 01.985-.635 1.488 1.488 0 011.138.28 1.47 1.47 0 01.578 1.019c1.39 8.268-.664 9.64-5.673 10.774a21.8 21.8 0 00-7.738 3.028c-2.315 1.508-4.539 3.192-6.683 4.831-4.323 3.294-7.738 5.897-10.598 6.073l-.091-.057z" fill="#5B2714"/><path d="M362.736 549.307a42.078 42.078 0 01-4.8-.289c-5.577-.635-13.122-3.294-19.686-6.94a1.488 1.488 0 01-.813-1.477 1.489 1.489 0 011.098-1.28 1.478 1.478 0 011.151.171c6.24 3.476 13.371 5.999 18.585 6.589 12.821 1.485 17.178-3.107 22.227-8.409a51.329 51.329 0 015.14-4.905c7.739-6.158 19.079-23.135 13.656-31.272a1.475 1.475 0 01.449-1.993 1.48 1.48 0 012.013.354c6.717 10.082-5.906 28.562-14.279 35.224a49.262 49.262 0 00-4.84 4.633c-4.504 4.735-9.139 9.594-19.901 9.594z" fill="#5B2714"/><path d="M358.696 544.119a55.328 55.328 0 01-8.265-.794c-.868-.13-1.702-.255-2.491-.352a299.511 299.511 0 00-3.778-.448c-3.404-.391-6.882-.799-10.371-1.434-3.205-.567-7.233-1.446-9.917-2.903-.227-.125-2.235-1.265-2.677-3.074a2.653 2.653 0 01.368-2.171 1.477 1.477 0 012.525 1.531c.295.476.71.867 1.203 1.134 2.309 1.259 6.042 2.047 9.031 2.591 3.404.624 6.689 1.004 10.178 1.406 1.265.148 2.53.295 3.801.454.817.096 1.702.227 2.57.363 5.044.754 11.346 1.701 17.485-1.412a1.482 1.482 0 011.907.692 1.482 1.482 0 01-.574 1.945 23.855 23.855 0 01-10.995 2.472zm-35.724-32.123c-.86 0-1.709-.194-2.485-.567-3.63-1.701-2.133-6.572-.811-10.858a39.668 39.668 0 001.282-4.815c1.061-6.35 8.885-9.134 15.692-8.505a1.48 1.48 0 011.339 1.605 1.496 1.496 0 01-.532.993 1.5 1.5 0 01-1.073.345c-5.503-.499-11.738 1.446-12.481 6.039a42.405 42.405 0 01-1.373 5.199c-.919 2.983-2.065 6.697-.749 7.315a3.215 3.215 0 002.757-.079c1.407-.618 5.01-3.085 7.943-12.56a1.482 1.482 0 011.858-.978 1.485 1.485 0 01.978 1.857c-3.024 9.736-6.887 13.2-9.593 14.391a6.744 6.744 0 01-2.752.618zm-77.949 35.706a1.46 1.46 0 01-1.044-.431c-2.269-2.268-3.648-4.876-4.953-7.371a40.278 40.278 0 00-2.615-4.536 107.252 107.252 0 00-2.474-3.402c-4.822-6.499-10.291-13.853-8.509-22.874l.062-.324c3.115-16.228 12.265-26.009 25.768-27.535 16.055-1.82 19.357 7.321 22.256 15.389 1.077 2.989 2.189 6.079 3.891 8.631.806 1.213 1.753 2.381 2.672 3.515 2.644 3.255 5.373 6.618 5.373 11.522a1.477 1.477 0 01-1.478 1.389 1.482 1.482 0 01-1.478-1.389c0-3.855-2.184-6.549-4.714-9.639-.959-1.18-1.952-2.404-2.837-3.731-1.9-2.835-3.075-6.113-4.209-9.271-2.899-8.052-5.418-15.021-19.142-13.45-16.338 1.848-21.558 16.551-23.203 25.153l-.062.352c-1.549 7.729 3.279 14.232 7.942 20.526.874 1.174 1.702 2.325 2.525 3.459a43.753 43.753 0 012.836 4.837c1.26 2.404 2.445 4.678 4.425 6.651a1.48 1.48 0 01-1.049 2.524l.017.005z" fill="#5B2714"/><path d="M260.55 483.775a1.48 1.48 0 01-1.231-.658c-6.473-9.702-9.701-20.776-12.821-31.481-1.254-4.304-2.553-8.755-4.04-13.042-2.224-6.385-8.419-20.345-8.51-20.487a1.478 1.478 0 012.701-1.196c.255.567 6.309 14.215 8.572 20.713 1.509 4.338 2.837 8.829 4.085 13.167 3.058 10.496 6.24 21.343 12.447 30.671a1.48 1.48 0 01-1.231 2.268l.028.045zm-34.538 30.331a1.488 1.488 0 01-1.134-.567l-.42-.511c-6.241-7.57-17.797-21.655-24.486-31.436-9.894-14.448-20.361-31.754-23.044-50.466-1.214-8.505 0-19.426 1.174-29.99.766-6.907 1.492-13.428 1.492-18.854a1.477 1.477 0 011.478-1.388 1.479 1.479 0 011.478 1.388c0 5.591-.732 12.191-1.509 19.183-1.135 10.376-2.349 21.11-1.186 29.247 2.593 18.145 12.856 35.071 22.557 49.236 6.615 9.639 18.154 23.69 24.332 31.226l.42.516a1.48 1.48 0 01-1.152 2.416z" fill="#5B2714"/><path d="M217.825 403.166c-2.245.04-4.489-.17-6.688-.624-11.704-2.744-17.672-8.199-25.932-15.746a32.845 32.845 0 00-2.707-2.11c-3.205-2.353-7.199-5.279-7.59-9.168-.568-5.625.834-12.027 2.065-17.675l.499-2.313c.993-4.69 1.895-9.351 2.791-14 1.935-9.992 3.932-20.317 6.808-30.558 2.122-7.598 3.512-15.616 4.856-23.373 1.663-9.611 3.404-19.557 6.53-28.919 7.858-23.356 20.736-40.752 41.755-56.402 12.532-9.334 61.673-34.022 77.371-37.991a1.48 1.48 0 01.732 2.835c-15.483 3.935-63.96 28.272-76.339 37.492-20.503 15.27-33.063 32.224-40.716 55.002-3.075 9.129-4.777 18.962-6.422 28.465-1.356 7.825-2.758 15.917-4.919 23.662-2.837 10.128-4.811 20.414-6.734 30.325-.902 4.667-1.81 9.345-2.803 14.051l-.505 2.331c-1.185 5.432-2.53 11.59-2.008 16.75.255 2.58 3.659 5.103 6.394 7.077 1.024.72 2.01 1.492 2.956 2.313 8.975 8.205 14.143 12.599 24.61 15.049 6.961 1.633 22.539-.38 28.332-4.587 4.306-3.136 5.775-9.073 7.193-14.811a56.538 56.538 0 012.27-7.734c1.634-4.009 3.222-8.239 4.839-12.526 3.086-8.188 6.274-16.66 9.951-24.139a1.486 1.486 0 011.938-.599 1.484 1.484 0 01.717 1.898c-3.614 7.371-6.808 15.758-9.838 23.883-1.628 4.31-3.228 8.568-4.867 12.594a55.15 55.15 0 00-2.156 7.332c-1.469 5.965-3.137 12.718-8.323 16.495-4.935 3.606-15.788 5.721-24.06 5.721zm314.488-15.271a1.482 1.482 0 01-1.453-1.282 1.477 1.477 0 011.061-1.621c6.428-1.769 10.167-3.175 11.12-4.173 1.628-1.701.317-15.979-.641-26.407-.823-8.936-1.668-18.173-1.668-25.516 0-9.113-.278-19.625-.517-28.919-.243-9.458-.459-17.623-.346-22.437.239-10.003-1.293-21.905-3.806-29.616-8.703-26.696-34.539-43.577-61.157-57.838a967.804 967.804 0 01-10.507-5.71c-10.002-5.472-23.702-12.962-36.098-19.341a1.476 1.476 0 011.35-2.626c12.43 6.396 26.153 13.898 36.166 19.37 4.176 2.268 7.778 4.253 10.484 5.705 27.164 14.561 53.55 31.85 62.57 59.538 2.649 8.12 4.198 20.13 3.971 30.62-.108 4.74.102 12.877.346 22.29.239 9.299.517 19.846.517 28.981 0 7.201.839 16.37 1.656 25.244 1.526 16.637 2.269 26.174-.164 28.715-1.419 1.485-5.033 2.931-12.481 4.984a1.52 1.52 0 01-.403.039z" fill="#5B2714"/><path d="M234.079 411.989h-.199a1.472 1.472 0 01-1.23-1.086 1.49 1.49 0 01-.035-.576c.602-4.417 2.054-10.955 2.116-11.227a1.498 1.498 0 011.765-1.134 1.48 1.48 0 011.134 1.764c0 .068-1.486 6.691-2.07 10.983a1.475 1.475 0 01-1.481 1.276zm13.865-94.921a1.47 1.47 0 01-1.095-.488c-9.264-10.28-20.542-24.235-25.659-41.03a82.376 82.376 0 00-1.192-3.51c-1.191-3.346-2.422-6.805-2.422-10.417a1.48 1.48 0 012.955 0c0 3.108 1.135 6.317 2.27 9.424.437 1.225.873 2.439 1.236 3.641 4.942 16.239 15.97 29.86 25.025 39.913a1.483 1.483 0 01-.114 2.087 1.464 1.464 0 01-1.004.38zm224.182-21.786a1.477 1.477 0 01-1.478-1.434 1.48 1.48 0 01.168-.732c4.476-8.505 9.077-21.218 13.508-33.512 3.75-10.382 7.29-20.192 10.716-27.467a1.48 1.48 0 011.966-.706 1.476 1.476 0 01.706 1.965c-3.364 7.15-6.881 16.892-10.609 27.218-4.47 12.389-9.077 25.199-13.672 33.886a1.478 1.478 0 01-1.305.782zM286.715 551.989a1.47 1.47 0 01-1.364-.91 1.47 1.47 0 01.32-1.607c4.658-4.661 9.548-9.816 14.274-14.794 4.726-4.979 9.644-10.207 14.364-14.885 1.135-1.134 2.502-2.574 3.972-4.133 2.314-2.439 4.935-5.206 7.375-7.519a1.476 1.476 0 012.093.051 1.476 1.476 0 01-.051 2.092c-2.371 2.268-4.964 4.996-7.256 7.411-1.492 1.577-2.876 3.039-4.028 4.191-4.675 4.666-9.57 9.832-14.313 14.827-4.743 4.996-9.645 10.156-14.331 14.845a1.453 1.453 0 01-1.055.431zm13.275 18.82a1.481 1.481 0 01-1.37-.911 1.476 1.476 0 01.326-1.613c2.491-2.466 6.167-6.679 9.724-10.773 2.644-3.028 5.242-5.999 7.302-8.205l10.467-11.182 2.156 2.019-10.462 11.176c-2.042 2.189-4.612 5.137-7.233 8.137-3.591 4.111-7.307 8.363-9.871 10.904a1.47 1.47 0 01-1.039.448zm57.583-278.929a1.47 1.47 0 01-1.327-.816c-3.189-6.374-7.688-13.189-12.447-20.413-9.043-13.694-18.387-27.847-20.702-41.728-2.785-16.699 3.648-46.673 5.758-56.522l.125-.567a1.46 1.46 0 01.639-.935 1.456 1.456 0 011.114-.199 1.48 1.48 0 011.135 1.758l-.119.567c-2.088 9.713-8.431 39.272-5.736 55.416 2.207 13.263 11.381 27.155 20.254 40.588 4.81 7.286 9.355 14.176 12.622 20.702a1.468 1.468 0 01-.201 1.631 1.488 1.488 0 01-.457.354c-.204.104-.429.16-.658.164z" fill="#5B2714"/><path d="M361.068 331.119h-.091c-1.997-.119-4.732-.664-6.405-2.563a5.678 5.678 0 01-1.339-4.253c.216-3.192.408-5.67.567-7.797.21-2.75.38-4.961.522-7.507.057-1.077.091-2.268.125-3.465.119-4.014.255-8.562 1.328-12.854 2.933-11.727 9.735-19.954 18.324-29.486 10.212-11.341 28.286-33.948 34.935-58.302.647-2.382 1.504-4.775 2.406-7.315 1.815-5.103 3.693-10.354 3.693-15.242a1.484 1.484 0 01.89-1.45 1.488 1.488 0 011.667.345 1.49 1.49 0 01.399 1.105c0 5.398-1.963 10.91-3.864 16.234-.885 2.484-1.702 4.831-2.337 7.1-6.808 24.949-25.223 47.982-35.594 59.498-8.583 9.532-14.875 17.142-17.655 28.227-.992 3.969-1.134 8.364-1.236 12.225a120.438 120.438 0 01-.131 3.539c-.142 2.574-.312 4.802-.527 7.57a786.302 786.302 0 00-.568 7.779 2.706 2.706 0 00.613 2.098c.777.885 2.326 1.441 4.363 1.565a1.475 1.475 0 11-.091 2.949h.006z" fill="#5B2714"/><path d="M370.213 320.396a1.091 1.091 0 01-.198 0 1.481 1.481 0 01-1.271-1.661c.689-5.349 1-10.74.93-16.132-.136-8.001 2.774-15.14 9.168-22.466 12.589-14.431 18.098-21.445 21.831-27.813.198-.338.523-.583.902-.681a1.475 1.475 0 011.645 2.178c-3.835 6.543-9.429 13.671-22.126 28.255-5.883 6.742-8.566 13.252-8.436 20.476.072 5.54-.249 11.079-.958 16.574a1.479 1.479 0 01-1.487 1.27zm-40.666-70.493c-4.317 0-7.766-4.457-10.603-8.12-1.628-2.109-3.477-4.491-4.697-4.831-4.959-1.384-9.27 2.353-13.434 5.959a43.053 43.053 0 01-5.106 4.021c-2.184 1.361-3.591.952-4.391.368-2.519-1.837-1.498-7.632-.664-10.921a66.322 66.322 0 013.693-11c.522-1.208 1.01-2.421 1.504-3.635.987-2.432 2.008-4.95 3.222-7.371l1.464-2.903c2.734-5.404 5.565-11.001 7.443-16.62 1.106-3.317 1.991-6.805 2.837-10.207 1.214-4.814 2.473-9.798 4.413-14.487.205-.494.397-1.067.613-1.702.902-2.693 2.269-6.764 6.32-11.023a1.47 1.47 0 011.638-.425 1.472 1.472 0 01.847.804 1.481 1.481 0 01-.341 1.657c-3.596 3.788-4.793 7.337-5.673 9.929-.238.714-.454 1.355-.681 1.899-1.86 4.497-3.091 9.368-4.283 14.085-.868 3.442-1.77 6.998-2.91 10.422-1.946 5.824-4.822 11.517-7.608 17.011l-1.458 2.887c-1.135 2.324-2.161 4.785-3.126 7.161a171.599 171.599 0 01-1.526 3.692 63.813 63.813 0 00-3.54 10.563c-1.203 4.724-.896 7.406-.465 7.808a3.127 3.127 0 001.083-.487 41.651 41.651 0 004.749-3.748c4.538-3.924 9.678-8.381 16.157-6.572 2.167.601 4.056 3.039 6.241 5.869 2.791 3.6 5.973 7.683 9.156 6.861a1.474 1.474 0 11.738 2.835 6.316 6.316 0 01-1.612.221zm105.703 2.455c-2.547 0-4.686-3.079-7.114-6.583-2.269-3.283-4.856-7.009-7.88-8.562-4.425-2.268-8.782.289-13.729 8.057a1.485 1.485 0 01-2.01.402 1.48 1.48 0 01-.486-1.99c2.15-3.402 8.697-13.665 17.587-9.1 3.681 1.894 6.49 5.942 8.963 9.509 1.543 2.234 3.909 5.608 4.805 5.29 2.383-.765 2.548-9.362 2.695-16.943l.063-3.135c.204-8.67-2.366-23.249-3.745-31.04-.334-1.894-.612-3.453-.783-4.536l-.096-.624c-1.379-8.908-4.607-29.769-13.457-40.293a1.473 1.473 0 01-.34-1.08 1.49 1.49 0 01.525-1.004 1.473 1.473 0 011.08-.339 1.47 1.47 0 011.004.523c9.384 11.154 12.703 32.588 14.115 41.745l.097.618c.164 1.061.442 2.597.771 4.469 1.498 8.477 3.971 22.681 3.79 31.623l-.062 3.124c-.205 10.615-.352 18.287-4.749 19.699-.337.112-.689.17-1.044.17zM238.538 425.649a1.954 1.954 0 01-.306 0 1.488 1.488 0 01-1.135-1.752c.789-3.726 2.899-6.805 5.106-10.025 3.302-4.792 6.723-9.748 5.73-17.289-1.481-11.29 0-17.249.953-21.202.182-.731.346-1.389.465-2.001a1.485 1.485 0 01.626-.942 1.474 1.474 0 011.641-.005 1.474 1.474 0 01.632 1.514c-.124.652-.3 1.355-.493 2.143-.913 3.731-2.303 9.368-.891 20.107 1.135 8.67-2.774 14.346-6.24 19.353-2.06 2.988-4.011 5.812-4.675 8.959a1.47 1.47 0 01-1.413 1.14z" fill="#5B2714"/><path d="M414.957 191.243a1.475 1.475 0 01-1.463-1.315c-1.555-13.938-1.43-28.086.34-39.835a1.49 1.49 0 01.582-.968 1.483 1.483 0 011.64-.079 1.475 1.475 0 01.7 1.484c-1.736 11.505-1.85 25.386-.324 39.074a1.482 1.482 0 01-1.31 1.633l-.165.006zm-86.709-4.768a1.484 1.484 0 01-1.272-.725 1.48 1.48 0 01-.157-1.118l.13-.516c2.735-10.621 3.404-13.15.187-31.3a1.498 1.498 0 01-.02-.6 1.48 1.48 0 011.801-1.188 1.473 1.473 0 011.13 1.272c3.313 18.785 2.558 21.706-.233 32.553l-.136.51a1.474 1.474 0 01-1.43 1.112z" fill="#5B2714"/><path d="M372.454 188.578h-.601c-21.803-.357-34.233-16.642-38.578-23.628a80.42 80.42 0 01-9.645-22.268 1.47 1.47 0 01.044-1.214 1.478 1.478 0 011.56-.806 1.482 1.482 0 011.233 1.249 77.419 77.419 0 009.338 21.491c4.073 6.572 15.754 21.893 36.093 22.227 16.254.267 27.435-11.119 34.039-20.713 8.703-12.69 11.46-24.78 12.895-33.892a1.482 1.482 0 112.922.454c-1.367 8.692-4.244 21.785-13.378 35.11-6.932 10.06-18.738 21.99-35.922 21.99z" fill="#5B2714"/><path d="M420.665 135.838a1.476 1.476 0 11-.108-2.948c6.904-.533 14.603-8.551 14.574-18.485 0-4.593-1.378-7.848-3.755-8.931-2.094-.947-4.913-.097-7.739 2.347a1.475 1.475 0 01-1.677.274 1.489 1.489 0 01-.769-.887 1.48 1.48 0 01.512-1.621c3.739-3.232 7.715-4.252 10.898-2.801 3.472 1.582 5.469 5.812 5.486 11.607.034 11.851-9.077 20.81-17.309 21.44l-.113.005zm-50.725-4.819c-.291 0-.575-.087-.817-.25-2.507-1.667-3.886-3.402-4.203-5.375-.454-2.768 1.31-5.036 2.836-7.037 2.139-2.773 2.462-5.778 1.135-9.396a1.482 1.482 0 01.906-1.817 1.482 1.482 0 011.868.796c1.702 4.588 1.208 8.625-1.407 12.016-1.413 1.814-2.695 3.464-2.451 4.961.176 1.083 1.135 2.223 2.928 3.402a1.482 1.482 0 01.059 2.42 1.48 1.48 0 01-.882.291l.028-.011zm28.435-33.898c-6.014 0-13.049-.566-15.528-2.869a1.48 1.48 0 112.031-2.154c2.491 2.347 15.057 2.296 22.381 1.7a1.465 1.465 0 011.594 1.362 1.479 1.479 0 01-1.356 1.587c-1.395.12-5.026.374-9.122.374zm-52.925.131c-4.261 0-8.351-.306-10.399-.487a1.48 1.48 0 01.261-2.943c9.02.805 19.765.567 21.382-1.174a1.481 1.481 0 012.178 2.002c-1.912 2.07-7.812 2.602-13.422 2.602z" fill="#5B2714"/><path d="M425.147 123.041a1.473 1.473 0 01-1.402-2.013c1.543-3.936 5.106-6.652 5.248-6.765a1.48 1.48 0 011.781 2.359c-.028 0-3.046 2.342-4.277 5.483a1.476 1.476 0 01-1.35.936zm-103.026-16.875a1.484 1.484 0 01-1.475-1.378 62.857 62.857 0 01.431-13.32c.148-1.19.295-2.347.386-3.595a1.483 1.483 0 011.581-1.298 1.48 1.48 0 011.369 1.52c-.102 1.298-.249 2.5-.397 3.736a59.115 59.115 0 00-.42 12.758 1.465 1.465 0 01-.816 1.422 1.46 1.46 0 01-.557.149l-.102.006zm118.746-36.738c-.365 0-.717-.136-.987-.38-3.047-2.733-3.62-8.109-4.34-14.919-.755-7.06-1.606-15.06-5.463-21.808-6.99-12.22-19.045-19.546-27.436-16.688a1.48 1.48 0 01-.959-2.795c9.701-3.3 23.294 4.61 30.964 18.02 4.165 7.28 5.106 15.973 5.832 22.96.63 5.93 1.175 11.056 3.404 13.041a1.475 1.475 0 01.393 1.629 1.482 1.482 0 01-1.38.951l-.028-.011zm-8.51 34.594a1.477 1.477 0 01-1.384-2.001c.051-.137 5.066-13.564 3.704-25.143a1.484 1.484 0 011.292-1.707 1.48 1.48 0 011.647 1.367c1.441 12.305-3.659 25.953-3.875 26.526a1.491 1.491 0 01-1.384.958zM313.476 25.664c-.698.01-1.395-.048-2.082-.17a1.48 1.48 0 01-.942-.625 1.476 1.476 0 011.509-2.273c2.984.567 11.579-.81 18.075-5.67 27.492-20.69 50.956-22.5 64.368-4.922a1.478 1.478 0 01-.315 2.028 1.482 1.482 0 01-2.04-.236c-17.405-22.806-47.904-3.754-60.215 5.495-6.411 4.785-14.069 6.373-18.358 6.373zm109.793 73.419c-12.51 0-16.265-13.081-19.596-24.694-3.267-11.386-6.013-21.201-15.317-20.413a1.483 1.483 0 01-1.606-1.344 1.47 1.47 0 01.79-1.443c.173-.09.361-.145.555-.162 11.619-.98 15.091 10.967 18.415 22.551 3.5 12.203 6.808 23.725 18.54 22.455a1.48 1.48 0 01.318 2.937c-.697.076-1.398.113-2.099.113zM317.645 81.58c-.76 0-1.537 0-2.337-.063a1.487 1.487 0 01-.919-2.58 1.466 1.466 0 011.072-.374c17.899.97 25.047-9.77 30.811-18.384 5.225-7.813 10.161-15.196 21.127-8.596a1.473 1.473 0 01.505 2.025 1.49 1.49 0 01-.908.671 1.478 1.478 0 01-1.118-.167c-8.186-4.922-11.346-.97-17.15 7.712-5.616 8.392-13.224 19.755-31.083 19.755z" fill="#5B2714"/><path d="M312.624 109.131a1.476 1.476 0 01-1.446-1.179c-1.033-5.035-2.179-9.934-3.291-14.675-5.894-25.153-10.983-46.877 8.346-62.85a1.468 1.468 0 011.088-.36 1.478 1.478 0 011.349 1.625 1.48 1.48 0 01-.554 1.003c-17.916 14.806-13.253 34.708-7.375 59.902 1.135 4.763 2.269 9.685 3.307 14.742a1.479 1.479 0 01-1.134 1.747 1.767 1.767 0 01-.29.045zm72.379-66.427a1.388 1.388 0 01-.261 0 1.482 1.482 0 01-1.197-1.702c1.412-7.87 5.151-15.31 10.268-20.373a1.487 1.487 0 011.045-.43 1.477 1.477 0 011.037 2.522c-4.691 4.667-8.135 11.517-9.44 18.798a1.473 1.473 0 01-1.452 1.185zm-8.334 12.128h-.046a1.487 1.487 0 01-1.435-1.525c.085-2.722-1.316-5.738-3.659-7.882-1.946-1.786-4.176-2.625-6.297-2.387a1.482 1.482 0 01-1.657-1.882 1.493 1.493 0 01.744-.896 1.48 1.48 0 01.572-.16c2.973-.35 6.042.772 8.641 3.148 2.95 2.705 4.72 6.595 4.612 10.15a1.478 1.478 0 01-1.475 1.434z" fill="#5B2714"/><path d="M322.581 138.872h-.114c-8.509-.658-16.179-10.286-16.06-20.215.073-5.993 2.331-10.711 5.9-12.316 1.617-.726 4.969-1.4 9.236 2.268a1.484 1.484 0 01-.257 2.508 1.488 1.488 0 01-1.173.049 1.491 1.491 0 01-.505-.322c-1.583-1.373-3.926-2.802-6.087-1.821-2.428 1.089-4.102 4.968-4.159 9.64-.102 8.318 6.377 16.693 13.327 17.226a1.478 1.478 0 01.951 2.555 1.477 1.477 0 01-1.059.394v.034z" fill="#5B2714"/><path d="M318.763 126.267a1.478 1.478 0 01-1.424-1.077c-.817-2.892-3.631-5.523-3.665-5.552a1.478 1.478 0 01.961-2.521 1.48 1.48 0 011.047.35c.142.13 3.455 3.215 4.499 6.923a1.463 1.463 0 01-.502 1.559c-.152.12-.327.209-.513.261a1.448 1.448 0 01-.403.057z" fill="#5B2714"/><path fill-rule="evenodd" clip-rule="evenodd" d="M341.881 111.156c0-2.631 1.787-4.763 3.971-4.763s3.971 2.132 3.971 4.763-1.787 4.763-3.971 4.763-3.971-2.132-3.971-4.763zm48.75.022c0-2.631 1.787-4.763 3.971-4.763s3.971 2.132 3.971 4.763-1.787 4.763-3.971 4.763-3.971-2.132-3.971-4.763z" fill="#5B2714"/><path d="M376.249 162.665c-.669 0-1.367 0-2.093-.029-1.135 0-2.417-.039-3.784 0-2.071 0-9.14-.108-11.131-3.498-.522-.885-.908-2.348.21-4.27 2.638-4.536 4.97-4.349 8.827-4.009l1.623.136c1.637.095 3.279.072 4.913-.068 2.371-.159 4.419-.295 6.553.8 2.269 1.134 3.84 3.56 3.846 5.834a4.357 4.357 0 01-2.468 3.97c-1.883.958-3.982 1.134-6.496 1.134zm-4.64-3.011c.919 0 1.781 0 2.598.028 3.166.057 5.446.102 7.188-.794a1.399 1.399 0 00.857-1.338c0-1.134-.982-2.569-2.236-3.215-1.401-.72-2.916-.618-5.003-.476a35.23 35.23 0 01-5.328.062l-1.667-.136c-3.739-.329-4.312-.38-6.008 2.546-.488.833-.295 1.162-.222 1.287.727 1.236 4.408 2.132 8.51 2.041l1.311-.005zm23.095 330.682a1.469 1.469 0 01-1.072-.46c-5.855-6.152-10.212-5.67-16.867-4.309-1.94.391-3.971.873-6.064 1.372-5.248 1.247-10.683 2.54-15.664 2.625a1.48 1.48 0 010-2.954c4.663-.079 9.934-1.332 15.034-2.546 2.11-.504 4.187-.998 6.167-1.395 7.205-1.446 12.832-1.922 19.589 5.172a1.484 1.484 0 01-.051 2.092c-.29.27-.675.415-1.072.403zm54.372-7.508c-29.557 0-60.448-17.011-79.425-46.973-13.309-21.025-18.823-45.232-15.539-68.151 3.302-23.01 15.074-41.961 33.143-53.392 18.069-11.431 40.28-13.932 62.473-7.06 22.126 6.85 41.641 22.205 54.951 43.231 13.309 21.031 18.829 45.232 15.539 68.152-3.302 23.004-15.074 41.96-33.143 53.397a70.545 70.545 0 01-37.999 10.796zm-23.748-176.42a67.685 67.685 0 00-36.473 10.399c-17.332 10.955-28.621 29.179-31.77 51.316-3.188 22.228 2.179 45.72 15.108 66.15 26.664 42.108 77.501 57.928 113.344 35.258 17.326-10.955 28.622-29.179 31.799-51.316 3.177-22.137-2.179-45.714-15.114-66.15-12.929-20.413-31.866-35.349-53.328-41.989a79.531 79.531 0 00-23.566-3.668z" fill="#5B2714"/><path d="M351.644 512.53a1.477 1.477 0 01-1.36-2.157 1.48 1.48 0 01.742-.679c11.914-5.477 36.172-12.542 44.92-13.608 5.747-.715 11.143-1.367 16.22-1.974 40.921-4.944 61.458-7.422 77.904-17.827 19.51-12.333 32.383-32.599 36.241-57.066 3.857-24.468-1.788-50.347-15.919-72.677-29.138-46.037-85.666-62.742-125.996-37.237-26.607 16.818-39.565 50.217-35.548 91.627 2.053 21.128 3.301 53.023-9.463 85.956-1.458 3.754-2.933 7.57-4.771 12.072a1.474 1.474 0 01-.802.801 1.489 1.489 0 01-1.133-.001 1.487 1.487 0 01-.801-.801 1.488 1.488 0 01.001-1.133c1.827-4.485 3.296-8.284 4.749-12.032 12.537-32.321 11.301-63.774 9.275-84.601-4.124-42.562 9.327-76.969 36.91-94.411 41.709-26.378 100.064-9.26 130.075 38.155 14.517 22.937 20.321 49.474 16.339 74.724-3.983 25.25-17.338 46.304-37.574 59.102-17.019 10.773-37.772 13.263-79.135 18.258-5.072.613-10.467 1.259-16.209 1.973-8.453 1.044-32.66 8.137-44.046 13.371a1.439 1.439 0 01-.619.165zm-49.821 22.97a1.487 1.487 0 01-1.404-1.014 1.478 1.478 0 01.519-1.651 122.186 122.186 0 0021.995-22.727 1.477 1.477 0 012.036-.255 1.482 1.482 0 01.335 2.024c-10.887 14.562-22.126 22.982-22.602 23.334a1.502 1.502 0 01-.879.289z" fill="#5B2714"/><path d="M348.956 503.139a5.379 5.379 0 01-3.904-1.378c-1.219-1.179-.709-3.158 2.695-13.761 2.094-6.51 4.698-14.613 6.241-21.888 1.617-7.649 2.076-15.083 2.411-20.509.425-6.856.567-9.425 2.638-9.776 1.594-.272 2.604 1.179 5.979 5.982 3.824 5.449 10.212 14.561 19.113 22.347 8.153 7.139 16.294 11.862 21.683 14.986 5.39 3.125 7.517 4.361 6.961 6.34-.629 2.228-4.538 3.255-15.97 5.211-1.197.21-2.326.402-3.313.567-9.554 1.746-21.558 4.145-29.466 7.201l-2.712 1.061c-4.919 1.956-9.174 3.617-12.356 3.617zm-1.543-3.277c2.019 1.162 7.505-.987 12.815-3.073l2.735-1.072c8.158-3.141 20.31-5.574 29.988-7.372a132.88 132.88 0 013.353-.567c3.654-.618 10.824-1.848 13.128-2.943-.999-.754-3.081-1.961-5.106-3.135-5.486-3.181-13.78-7.99-22.126-15.31-9.156-8.024-15.68-17.317-19.583-22.868a129.144 129.144 0 00-2.752-3.811c-.21 1.486-.357 3.884-.493 6.084-.341 5.518-.806 13.076-2.474 20.941-1.571 7.422-4.198 15.605-6.314 22.176-1.441 4.423-3.041 9.391-3.171 10.95zm161.05-53.511a1.482 1.482 0 01-1.044-.437l-124.487-124.48a1.478 1.478 0 01.061-2.031 1.484 1.484 0 012.032-.056l124.487 124.475a1.484 1.484 0 01.317 1.612 1.48 1.48 0 01-1.366.911v.006zm-5.259 9.107a1.47 1.47 0 01-1.044-.431L375.08 328.011a1.48 1.48 0 012.094-2.086L504.253 452.94a1.471 1.471 0 01-.223 2.27 1.48 1.48 0 01-.821.248h-.005zm-6.717 8.142a1.49 1.49 0 01-1.044-.431L368.21 335.842a1.481 1.481 0 012.094-2.087l127.227 127.339a1.483 1.483 0 01-.225 2.272c-.242.162-.527.25-.819.251v-.017zm-8.527 5.858a1.482 1.482 0 01-1.05-.437l-2.836-2.835-120.306-120.319a1.477 1.477 0 011.066-2.462 1.48 1.48 0 011.027.376L489.026 466.94a1.477 1.477 0 01.32 1.61 1.474 1.474 0 01-1.369.908h-.017zm-9.673 4.706l-6.569-6.566-112.624-112.613a1.477 1.477 0 01.025-2.067 1.482 1.482 0 012.068-.025l119.137 119.076-2.037 2.195zm-9.968 4.65a1.473 1.473 0 01-1.049-.431l-110.843-110.85a1.487 1.487 0 01-.065-2.151 1.475 1.475 0 011.089-.434 1.47 1.47 0 011.064.493l6.87 6.872 103.978 103.972a1.471 1.471 0 01-.223 2.269 1.472 1.472 0 01-.821.248v.012zm-12.555 2.733c-.35 0-.689-.131-.947-.369l-5.673-5.67-94.232-94.224a1.481 1.481 0 012.088-2.092l99.797 99.797a1.518 1.518 0 01.051 2.093 1.502 1.502 0 01-1.084.465zm-13.791-.04a1.47 1.47 0 01-1.044-.437L355.4 395.545a1.599 1.599 0 01-.096-2.189 1.35 1.35 0 01.974-.481 1.367 1.367 0 011.017.385l2.462 2.461 83.26 83.257a1.474 1.474 0 01-.225 2.272c-.242.163-.527.25-.819.251v.006zm-18.636-3.402a1.482 1.482 0 01-1.044-.437l-61.991-61.988a1.478 1.478 0 01.025-2.067 1.485 1.485 0 012.068-.025l61.98 61.977a1.483 1.483 0 01.338 1.62 1.488 1.488 0 01-1.376.92zm96.098-66.281a1.473 1.473 0 01-1.05-.431l-5.673-5.67-98.498-98.494a1.478 1.478 0 01.442-2.479 1.483 1.483 0 011.652.393L520.49 409.318a1.477 1.477 0 01.319 1.61 1.477 1.477 0 01-1.369.908l-.005-.012zm-1.804 11.971a1.469 1.469 0 01-1.044-.437L403.31 310.088a1.483 1.483 0 01.062-2.031 1.477 1.477 0 012.032-.056l113.271 113.27a1.479 1.479 0 01-1.044 2.524zm-4.045 11.181a1.476 1.476 0 01-1.05-.436L392.378 314.391a1.48 1.48 0 012.094-2.086L514.63 432.453a1.474 1.474 0 01-.225 2.272c-.242.163-.527.25-.819.251zm-12.759-86.29a1.499 1.499 0 01-1.044-.431l-25.807-25.761a1.478 1.478 0 012.087-2.092l25.808 25.76a1.479 1.479 0 01-1.044 2.524zm13.468 27.353a1.276 1.276 0 01-.896-.374l-.21-.21-65.906-65.929a1.591 1.591 0 01-.085-2.172 1.382 1.382 0 012.003-.091l4.419 4.418 61.657 61.653a1.604 1.604 0 01.107 2.189 1.562 1.562 0 01-1.089.516zm4.039 19.149a1.474 1.474 0 01-1.05-.431l-88.008-88.009a1.483 1.483 0 01.062-2.031 1.482 1.482 0 012.032-.056l88.008 88.004c.206.206.346.47.402.756a1.474 1.474 0 01-.627 1.515 1.475 1.475 0 01-.819.252z" fill="#5B2714"/><path d="M386.018 453.915a1.471 1.471 0 01-1.456-1.749c.054-.286.192-.549.395-.757l108.676-112.001a1.481 1.481 0 012.122 2.059l-108.676 112a1.455 1.455 0 01-1.061.448zm-6.977-7.706a1.47 1.47 0 01-1.452-1.744c.053-.285.189-.548.391-.756l108.675-112.006a1.478 1.478 0 011.035-.431 1.478 1.478 0 011.093 2.489L380.101 445.784a1.454 1.454 0 01-1.06.425zm-5.628-7.915a1.48 1.48 0 01-1.36-.899 1.471 1.471 0 01.299-1.602l106.519-110.004a1.479 1.479 0 012.538 1.002c.006.391-.143.769-.416 1.05L374.479 437.846a1.467 1.467 0 01-1.066.448zm37.199 33.8a1.485 1.485 0 01-1.061-2.511l100.415-103.331a1.483 1.483 0 012.483 1.025c.017.378-.113.748-.361 1.034L411.673 471.647a1.485 1.485 0 01-1.061.447zm-8.266-5.596a1.484 1.484 0 01-1.474-1.449 1.464 1.464 0 01.413-1.052l104.216-107.804a1.479 1.479 0 012.15-.092 1.48 1.48 0 01-.028 2.15L403.435 466.078a1.478 1.478 0 01-1.089.42zm-8.482-5.812a1.472 1.472 0 01-1.366-.9 1.47 1.47 0 01.306-1.607l107.654-110.803a1.48 1.48 0 011.038-.447 1.48 1.48 0 011.376.893 1.48 1.48 0 01-.298 1.612L394.925 460.243a1.473 1.473 0 01-1.061.443zm-26-32.758a1.473 1.473 0 01-1.055-2.506l103.984-106.784a1.48 1.48 0 012.121 2.059L368.925 427.486a1.475 1.475 0 01-1.061.442zm-5.009-9.061a1.478 1.478 0 01-1.364-.904 1.482 1.482 0 01.303-1.608l99.967-102.797a1.483 1.483 0 011.038-.447 1.49 1.49 0 011.05.418 1.475 1.475 0 01.028 2.087L363.91 418.419a1.47 1.47 0 01-1.055.448zm-3.693-10.604a1.48 1.48 0 01-1.061-2.506l94.09-96.832a1.481 1.481 0 012.483 1.025c.016.378-.113.748-.362 1.033l-94.089 96.81a1.499 1.499 0 01-1.061.47zm-2.576-12.173a1.488 1.488 0 01-1.364-.905 1.478 1.478 0 01.303-1.607l9.145-9.419 76.055-78.381a1.474 1.474 0 011.049-.468 1.474 1.474 0 011.067.422 1.49 1.49 0 01.33 1.632 1.487 1.487 0 01-.33.484l-1.174 1.196-84.026 86.598a1.48 1.48 0 01-1.055.448zm-.607-13.627l-1.169-.918-1.055-1.032 74.217-76.487a1.491 1.491 0 011.054-.509 1.49 1.49 0 011.095.417 1.48 1.48 0 01-.028 2.15l-74.114 76.379zm.607-15.259a1.48 1.48 0 01-1.055-2.506l57.202-58.971a1.48 1.48 0 012.122 2.058l-57.208 58.972a1.485 1.485 0 01-1.061.447zm86.391 115.108a1.46 1.46 0 01-1.353-2.028c.074-.179.183-.341.321-.478l76.383-78.818a1.482 1.482 0 112.122 2.059l-76.384 78.817a1.458 1.458 0 01-1.089.448zm-11.653-2.234l-2.167-2.019 86.999-89.659a1.48 1.48 0 012.127 2.053l-86.959 89.625zm-10.631-3.856a1.471 1.471 0 01-1.366-.899 1.478 1.478 0 01.305-1.607l94.096-96.702a1.48 1.48 0 012.121 2.059l-94.101 96.707a1.457 1.457 0 01-1.055.442zm-59.325-126.266a1.48 1.48 0 01-1.366-.9 1.473 1.473 0 01.305-1.607l36.558-37.673a1.48 1.48 0 012.117 2.064l-1.833 1.888-34.72 35.78a1.469 1.469 0 01-1.061.448zm94.397 132.407a1.48 1.48 0 01-1.061-2.506l62.7-64.642c.132-.152.294-.275.475-.363a1.495 1.495 0 011.17-.05 1.482 1.482 0 01.954 1.403 1.486 1.486 0 01-.477 1.069l-62.7 64.641a1.474 1.474 0 01-1.061.448zm18.176-3.912a1.48 1.48 0 01-1.066-2.501l40.915-42.572a1.467 1.467 0 011.053-.511 1.483 1.483 0 011.433.907 1.489 1.489 0 01-.012 1.17 1.468 1.468 0 01-.347.486l-40.909 42.567a1.476 1.476 0 01-1.067.454zm-94.628 5.732a1.462 1.462 0 01-.674-.161 1.479 1.479 0 01-.727-1.784c1.027-3.09 5.781-5.437 9.979-7.513a38.008 38.008 0 003.642-1.939 1.483 1.483 0 011.994.449 1.48 1.48 0 01-.354 2.012 40.36 40.36 0 01-3.972 2.126c-3.126 1.548-7.846 3.879-8.51 5.801a1.475 1.475 0 01-1.378 1.009zM378.269 97.87a1.481 1.481 0 01-1.231-.658c-1.702-2.563-2.009-5.143-1.742-6.572a1.479 1.479 0 012.668-.571c.222.322.307.72.237 1.105-.119.669 0 2.443 1.299 4.4a1.48 1.48 0 01-1.231 2.296zM167.13 534.292a1.473 1.473 0 01-1.344-.867c-3.211-7.134 10.245-25.273 28.173-48.249a1252.38 1252.38 0 004.856-6.237 1.48 1.48 0 012.343 1.803 838.97 838.97 0 01-4.868 6.237c-12.163 15.588-30.544 39.125-27.798 45.215.079.177.123.368.129.562a1.452 1.452 0 01-.403 1.055 1.461 1.461 0 01-.47.334 1.45 1.45 0 01-.618.147z" fill="#5B2714"/><path d="M242.793 562.094a1.528 1.528 0 01-.692-.17c-2.303-1.219-4.777-2.541-7.375-3.924-21.32-11.386-53.51-28.584-65.917-26.928a1.477 1.477 0 01-.577-.03 1.467 1.467 0 01-.899-.687 1.46 1.46 0 01-.181-.548 1.486 1.486 0 01.288-1.093 1.478 1.478 0 01.977-.568c13.281-1.804 44.751 14.992 67.699 27.217a910.425 910.425 0 007.375 3.913 1.476 1.476 0 01.748 1.666 1.483 1.483 0 01-1.44 1.123l-.006.029zm229.9 22.465a7.174 7.174 0 01-1.639-.175c-1.651-.38-5.248-4.032-15.216-14.806-2.978-3.22-5.792-6.237-7.42-7.859a958.852 958.852 0 01-4.669-4.615c-10.853-10.774-25.711-25.517-41.596-36.183a1.464 1.464 0 01-.625-.942 1.489 1.489 0 01.225-1.108 1.487 1.487 0 01.943-.624 1.489 1.489 0 011.108.225c16.117 10.841 31.095 25.692 42.027 36.539 1.639 1.622 3.194 3.17 4.658 4.599 1.701 1.644 4.538 4.712 7.522 7.938 4.595 4.973 12.294 13.292 13.803 13.966 3.262.709 10.535-2.931 16.396-5.874 3.823-1.928 7.125-3.589 9.4-4.134a1.49 1.49 0 011.116.176 1.476 1.476 0 01.099 2.452 1.468 1.468 0 01-.523.241c-1.94.471-5.253 2.138-8.765 3.902-6.116 3.107-12.424 6.282-16.844 6.282z" fill="#5B2714"/><path d="M470.861 583.885a1.467 1.467 0 01-1.384-.97c-3.092-8.415 11.46-21.394 29.886-37.815 7.375-6.589 15.028-13.399 21.808-20.232 28.899-29.106 50.956-31.64 57.032-31.754a1.531 1.531 0 011.498 1.458 1.47 1.47 0 01-.893 1.377 1.487 1.487 0 01-.565.12c-5.787.079-26.868 2.54-54.979 30.857-6.836 6.89-14.512 13.734-21.932 20.346-15.477 13.795-31.481 28.062-29.081 34.588a1.484 1.484 0 01-.179 1.354 1.48 1.48 0 01-1.211.631v.04z" fill="#5B2714"/><path d="M579.174 498.172a1.298 1.298 0 01-.216 0 1.482 1.482 0 01-1.254-1.673c.108-2.387-10.433-13.223-18.897-21.933-8.737-8.981-18.642-19.171-25.098-27.693a1.473 1.473 0 01.286-2.067 1.476 1.476 0 012.068.286c6.348 8.375 16.186 18.491 24.866 27.416 14.37 14.777 20.173 21.122 19.703 24.416a1.481 1.481 0 01-1.458 1.248zm-441.63 292.884a1.48 1.48 0 01-1.35-2.07l1.486-3.402c10.53-24.065 22.466-51.345 30.244-76.516 1.884-6.095 3.291-12.718 4.658-19.126 2.456-11.561 5.003-23.515 10.489-33.738 7.761-14.465 16.413-21.978 27.362-31.487a529.23 529.23 0 007.534-6.623c10.984-9.889 20.73-19.977 30.153-29.736l5.106-5.29a1.488 1.488 0 011.047-.469 1.472 1.472 0 011.068.419 1.473 1.473 0 01.448 1.056 1.487 1.487 0 01-.441 1.058l-5.106 5.279c-9.463 9.793-19.243 19.92-30.306 29.877a499.853 499.853 0 01-7.574 6.657c-10.722 9.311-19.192 16.665-26.698 30.654-5.287 9.849-7.783 21.598-10.212 32.961-1.373 6.47-2.802 13.161-4.72 19.376-7.829 25.329-19.799 52.694-30.363 76.833l-1.486 3.402a1.484 1.484 0 01-1.339.885zm-59.064-.862a1.293 1.293 0 01-.215 0 1.482 1.482 0 01-.982-.588 1.472 1.472 0 01-.266-1.113c1.47-9.935 2.678-20.153 3.846-30.053 2.468-20.912 4.8-40.667 9.384-57.236 2.837-10.207 6.683-20.101 10.427-29.69 2.167-5.557 4.408-11.301 6.411-17.011 3.585-10.207 7.375-21.094 10.597-31.754.369-1.23.778-2.744 1.243-4.508 2.161-8.125 5.775-21.728 14.126-35.938 8.181-13.915 16.135-25.375 27.141-41.235 2.53-3.64 5.208-7.502 8.073-11.658a1.483 1.483 0 012.067-.366 1.486 1.486 0 01.366 2.067c-2.836 4.156-5.548 8.018-8.078 11.664-10.972 15.809-18.898 27.217-27.022 41.047-8.124 13.83-11.698 27.218-13.814 35.196-.482 1.803-.891 3.357-1.271 4.616-3.262 10.722-7.046 21.626-10.637 31.878-2.02 5.767-4.272 11.534-6.45 17.119-3.716 9.521-7.557 19.364-10.331 29.401-4.539 16.353-6.842 36.001-9.299 56.794-1.168 9.906-2.377 20.152-3.852 30.132a1.485 1.485 0 01-1.463 1.236zm583.272 1.672a1.47 1.47 0 01-1.208-.623c-29.994-42.369-40.887-66.462-47.593-84.443-2.065-5.545-3.789-10.938-5.457-16.155-2.621-8.199-4.885-15.309-7.704-20.509-9.146-16.92-12.481-20.532-18.591-27.087-1.475-1.594-3.115-3.351-5.027-5.506a263.834 263.834 0 00-38.328-34.958c-10.887-8.086-20.06-14.374-28.15-19.931-9.787-6.714-18.234-12.509-26.035-19.001a1.472 1.472 0 01-.526-1.002 1.482 1.482 0 01.339-1.079 1.493 1.493 0 012.082-.187c7.688 6.401 16.09 12.163 25.813 18.831 8.113 5.568 17.309 11.908 28.241 19.999a266.881 266.881 0 0138.777 35.366c1.895 2.138 3.517 3.878 4.981 5.455 6.24 6.736 9.701 10.45 19.022 27.699 2.956 5.466 5.259 12.668 7.942 21.014 1.657 5.183 3.365 10.536 5.413 16.013 6.632 17.805 17.433 41.683 47.229 83.774a1.477 1.477 0 01.104 1.529 1.481 1.481 0 01-1.307.801h-.017z" fill="#5B2714"/><path d="M721.525 793.176a1.483 1.483 0 01-1.396-.986c-3.812-10.774-8.311-25.755-13.076-41.609-7.177-23.861-15.318-50.903-22.256-67.086-5.021-11.686-11.193-23.146-16.64-33.256-3.602-6.691-6.717-12.475-8.958-17.3-1.588-3.403-3.313-7.769-5.14-12.362-2.768-6.974-5.633-14.176-8.39-19.143-4.987-8.993-8.079-13.671-12.356-20.152a1135.671 1135.671 0 01-5.106-7.768c-2.984-4.622-6.008-9.702-8.924-14.618-4.221-7.1-8.584-14.437-12.77-20.221-2.003-2.761-4.323-6.237-7.012-10.206-6.808-10.139-15.318-22.755-23.709-31.652a1.468 1.468 0 01-.418-1.06 1.48 1.48 0 01.462-1.041 1.48 1.48 0 011.632-.266c.177.082.337.198.469.343 8.566 9.072 17.133 21.796 24.02 32.026 2.672 3.969 4.981 7.405 6.95 10.127 4.266 5.886 8.663 13.285 12.917 20.413 2.905 4.893 5.906 9.946 8.868 14.522a497.842 497.842 0 005.106 7.745c4.311 6.532 7.426 11.256 12.481 20.345 2.836 5.104 5.746 12.43 8.555 19.489 1.804 4.537 3.517 8.857 5.072 12.214 2.201 4.746 5.293 10.485 8.878 17.136 5.475 10.167 11.675 21.683 16.747 33.494 7.024 16.337 15.176 43.463 22.37 67.398 4.759 15.82 9.253 30.761 13.048 41.473a1.48 1.48 0 01-.896 1.888 1.5 1.5 0 01-.528.113zm-383.853-307.7c-24.458 0-48.642-10.013-61.838-20.016l-1.078-.816c-6.479-4.928-19.964-15.174-27.725-16.03a1.477 1.477 0 01-1.339-1.044 1.485 1.485 0 01.523-1.615 1.476 1.476 0 011.139-.279c8.573.953 21.99 11.137 29.195 16.615l1.072.816c9.559 7.241 32.904 19.415 60.028 19.415.205-.022.413-.022.618 0a1.478 1.478 0 010 2.954h-.595zm-4.737 30.308a1.498 1.498 0 01-.789-.227c-3.007-1.905-4.816-5.341-4.493-8.551a1.477 1.477 0 011.614-1.267 1.48 1.48 0 011.33 1.562c-.21 2.092 1.078 4.457 3.132 5.761a1.477 1.477 0 01.63 1.66 1.471 1.471 0 01-1.424 1.062zm28.036-5.103a1.482 1.482 0 01-1.27-2.23c.177-.3.454-.528.783-.645 24.394-8.505 50.009-10.138 63.755-11.023 3.625-.233 6.49-.42 8.322-.658 30.97-4.043 47.196-7.371 61.475-16.398 19.289-12.192 32.723-33.455 36.876-58.331 4.226-25.403-1.203-51.657-15.318-73.924-17.428-27.541-54.043-57.021-99.848-49.525a1.47 1.47 0 01-1.494-.679 1.473 1.473 0 01.056-1.64 1.492 1.492 0 01.962-.595c47.223-7.751 84.882 22.556 102.792 50.863 14.484 22.879 20.06 49.865 15.715 75.982-4.272 25.709-18.194 47.699-38.192 60.344-14.75 9.327-31.259 12.729-62.672 16.835-1.934.255-4.839.442-8.51.675-13.615.878-38.935 2.512-62.972 10.87a1.591 1.591 0 01-.46.079zm-10.728-8.914a1.287 1.287 0 01-.385-.062 1.356 1.356 0 01-.865-.637 1.362 1.362 0 01-.134-1.064l.085-.272c2.043-6.351 6.808-21.224 8.345-28.386 1.873-8.857 4.063-21.888 4.063-29.452a1.472 1.472 0 011.477-1.571 1.48 1.48 0 011.478 1.571c0 7.797-2.224 21.066-4.124 30.053-1.555 7.309-6.195 21.746-8.425 28.68a1.701 1.701 0 01-1.515 1.14z" fill="#5B2714"/><path d="M437.043 481.967a1.553 1.553 0 01-.312-.034c-24.809-5.37-47.507-21.826-62.263-45.153-13.31-21.026-18.83-45.232-15.539-68.146 3.302-23.01 15.074-41.961 33.143-53.398 14.183-8.959 30.93-12.474 48.477-10.138a1.479 1.479 0 01-.386 2.931c-16.866-2.234-32.944 1.134-46.52 9.702-17.331 10.955-28.621 29.185-31.77 51.317-3.188 22.227 2.179 45.72 15.108 66.15 14.342 22.681 36.354 38.643 60.391 43.848a1.485 1.485 0 01.661 2.532 1.481 1.481 0 01-.973.389h-.017zM464.286 36.58a1.48 1.48 0 01-1.43-1.09c-2.978-10.937-9.292-20.883-16.072-25.34a1.477 1.477 0 01-.369-2.01 1.48 1.48 0 011.992-.462c7.46 4.904 14.092 15.264 17.303 27.036a1.49 1.49 0 01-.142 1.123 1.465 1.465 0 01-.896.691c-.126.034-.256.05-.386.051z" fill="#5B2714"/><path d="M449.706 13.558a1.456 1.456 0 01-1.044-.431 1.477 1.477 0 010-2.092c2.269-2.268 6.808-5.29 9.837-7.292l.743-.494a1.487 1.487 0 011.109-.22 1.476 1.476 0 01.531 2.676l-.749.499c-2.74 1.82-7.33 4.87-9.383 6.923a1.485 1.485 0 01-1.044.43zm6.762 9.503a1.478 1.478 0 01-1.405-1.04 1.481 1.481 0 01.566-1.653c.255-.176 6.24-4.31 9.077-5.613a1.472 1.472 0 011.619.259 1.48 1.48 0 01.471 1.026 1.468 1.468 0 01-.859 1.396c-2.598 1.197-8.589 5.325-8.652 5.365a1.48 1.48 0 01-.817.26zm4.879 9.714a1.482 1.482 0 01-1.23-2.278c.191-.299.482-.518.822-.62 1.86-.527 7.244-2.478 7.295-2.5a1.482 1.482 0 011.792 2.007 1.481 1.481 0 01-.782.771c-.227.08-5.531 2.007-7.494 2.569a1.66 1.66 0 01-.403.05z" fill="#5B2714"/></g><defs><clipPath id="a"><path fill="#fff" transform="translate(77)" d="M0 0h646v796H0z"/></clipPath></defs></svg>