<svg viewBox="0 0 712 649" fill="none" xmlns="http://www.w3.org/2000/svg"><g clip-path="url(#a)"><path d="M534.605 71.585c-71.06 42.082-173.078-27.206-386.661-30.969-20.485-.347-41.548-.405-60.701 7.062-20.948 8.162-38.076 24.833-51.154 43.761C1.138 141.916-7.137 209.526 7.214 270.017c14.35 60.49 49.649 114.034 93.569 156.175 25.056 24.08 53.41 45.208 72.622 74.556 17.244 26.28 26.445 58.175 46.871 81.85 33.968 39.131 89.809 46.251 140.383 45.903 33.505-.289 68.34-3.068 97.389-20.491 42.532-25.528 63.653-76.235 90.387-119.186 21.526-34.558 47.913-65.411 71.58-98.347C648.08 351.403 672.21 309.32 692 265.096c11.805-26.396 15.856-40.462 18.228-59.912 6.481-54.412-11.11-125.611-58.792-151.312-9.374-5.094-17.533-7.178-20.484-7.757-41.143-7.235-96.347 25.47-96.347 25.47z" fill="#F90"/></g><g clip-path="url(#b)"><path fill-rule="evenodd" clip-rule="evenodd" d="M356.039 267.45c0-.523-2.972-2.377-3.653-2.801-3.234-1.985-6.743-8.777-6.743-8.777s-5.121-5.942-7.131-8.773c-2.01-2.832-3.758-6.243-5.601-10.85-.835-2.094-3.195-12.168-3.195-12.168s-5.042-.75-7.812-4.214c-2.058-2.565-3.815-7.787-4.671-10.815-.586-2.037.437-6.544 1.14-8.673 1.442-4.323 4.881-3.695 7.721-7.01 5.243-6.108 9.547-12.621 14.31-19.104 6.393-8.695 16.408-13.913 25.977-18.323 10.487-4.834 24.47-12.975 36.399-9.009 2.77.925 3.272 3.743 5.134 5.602 2.058 2.046 4.334 4.052 5.912 6.513 4.23 6.649 5.422 16.098 7.306 23.606 1.664 6.64 8.463 24.365 8.463 24.365s3.317-.074 5.327 2.478a12.387 12.387 0 012.355 8.647c-.161 1.745-1.63 6.164-2.499 7.604-2.342 3.926-5.615 6.444-9.963 7.525-1.804.459-5.191.354-5.191.354s-2.486 3.822-3.159 4.938c-1.748 2.901-3.81 6.749-5.903 9.363-1.634 2.041-5.541 7.329-5.541 7.329s-3.609 3.141-6.288 5.047c-2.953 2.112-6.37 3.634-9.329 5.746-2.381 1.701-4.924 3.948-7.777 4.668-3.99.99-6.734 2.098-10.719 1.605-3.421-.436-8.346-2.059-11.684-3.014-1.189-.341-3.22-.55-3.185-1.859zm107.36-40.406s9.176-6.706 12.855-9.89a335.515 335.515 0 0025.51-24.763c4.933-5.326 8.302-9.968 12.833-15.627 4.973-6.203 8.853-11.608 13.651-17.987 11.95-15.914 20.641-29.7 31.631-43.888 5.636-7.268 15.359-18.501 21.196-25.626 4.283-5.235 9.766-14.004 12.847-20.133 2.01-4.027 2.766-10.405 1.617-15.007-1.15-4.603-5.244-6.27-7.241-10.296-2.7-5.392-3.657-14.528-2.818-20.408.467-3.316 2.836-4.847 4.806-8.19 1.971-3.34 2.006-6.294 4.58-7.581 2.276-1.139 3.592 1.867 3.592 1.867a9.624 9.624 0 014.103-.436c3.167.475 2.805 1.622 2.805 1.622s1.713-.218 4.326.773c.948.366 2.486 2.412 2.486 2.412a6.08 6.08 0 014.369.559c.927.475 2.273 2.18 2.273 2.18s7.24 1.576 10.565 4.093c4.505 3.425 5.501 8.359 5.764 11.304.437 5.021-1.901 11.473-2.421 14.972-.874 5.759-3.933 12.9-5.681 18.44-3.692 11.78-8.581 21.517-13.484 31.791-7.052 14.768-14.096 28.392-22.341 42.505-2.329 3.988-5.917 9.214-8.46 13.393-2.543 4.18-12.44 17.765-18.619 26.577-7.978 11.369-15.542 24.108-23.158 35.796-5.34 8.228-10.614 15.522-16.473 23.318-3.059 4.066-19.816 23.318-25.226 30.076-3.897 4.86-11.474 11.779-15.18 16.713-2.975 3.961-8.214 10.906-8.214 10.906s-4.4 1.331-5.952.991c-4.5-.991-7.668-9.995-8.848-13.677-3.627-11.312-5.536-23.698-3.369-35.551 1.018-5.593 1.914-11.159 3.583-16.617.022-.105 2.093-4.611 2.093-4.611zm-193.681 66.564s-11.474-14.291-16.25-19.963c-11.911-14.205-25.09-27.528-36.468-42.16-14.73-18.964-25.855-38.548-39.029-58.616-9.735-14.833-16.783-23.921-26.654-38.631-7.385-11.012-15.731-29.103-21.437-40.023-2.53-4.834-7.162-16.338-9.176-21.42-5.073-12.853-9.395-21.765-12.012-35.337-1.084-5.672-2.46-13.612-.074-19.1 2.184-4.99 14.419-8.237 14.419-8.237s.918-1.915 2.762-2.277a34.34 34.34 0 014.282-.471 3.18 3.18 0 012.399-2.338 9.084 9.084 0 013.574-.192 9.247 9.247 0 013.255-1.745 9.833 9.833 0 013.762-.062s3.544-3.145 5.873.214c1.822 2.618 2.91 4.956 4.37 7.766 1.433 2.691 2.857 4.218 3.417 7.32.874 4.747-1.311 13.769-2.845 18.192-1.669 4.8-5.003 6.88-7.363 10.942-2.084 3.616.398 12.739 2.142 16.325 6.519 13.393 13.75 19.47 22.839 31.18 4.702 6.059 11.059 13.794 15.447 20.067 3.023 4.328 5.767 8.486 9.031 12.652 14.577 18.641 27.472 39.22 41.572 54.82 8.394 9.288 20.384 21.321 30.22 29.086 3.841 3.054 10.36 9.074 10.36 9.074s10.728 37.549 5.012 54.276c-2.145 6.269-3.128 11.888-7.865 16.935-1.145 1.209-5.563 1.723-5.563 1.723zm14.377 269.798l.93 22.41a11.521 11.521 0 002.185 5.331c2.084 2.91 6.769 5.362 10.12 6.195 1.91.48 3.574 2.042 5.541 2.618 7.109 2.02 14.262 3.992 21.546 5.196 14.21 2.382 28.454 5.396 42.756 7.176 17.614 2.203 36.704-.1 53.837-3.904 7.983-1.772 16.133-2.84 23.5-6.544 6.349-3.167 12.99-6.784 17.941-11.731 1.193-1.183 2.622-4.119 2.622-4.119l-1.154-20.91s1.796-6.714.8-9.187c-1.097-2.749-7.044-3.752-9.46-4.228-11.186-2.233-23.124-4.89-34.594-4.89-7.363 0-14.559 1.396-21.87 1.963-10.539.798-21.109 1.178-31.644 1.95-17.29 1.261-34.082 3.817-51.246 5.863-9.901 1.196-31.81 6.811-31.81 6.811z" fill="#FFEDDE"/><path fill-rule="evenodd" clip-rule="evenodd" d="M389.588 236.593s-2.967.066-4.496.066c-3.299 0-13.624.048-16.884-.624-5.746-1.169-10.085-2.958-10.994-2.051-.729.711.94 4.175 1.019 5.1.493 5.432 6.025 12.774 11.622 14.022 5.93 1.308 12.165-2.151 16.032-7.631 2.447-3.468 3.701-8.882 3.701-8.882z" fill="#fff"/><path fill-rule="evenodd" clip-rule="evenodd" d="M279.607 649c1.582-14.667 2.241-26.494 3.902-41.445.874-7.765 1.822-26.577 1.14-34.399-2.683-30.796-.306-55.898-1.079-87.013-.848-33.88 4.881-67.62 1.936-101.352-1.482-17.071-18.698-50.571-18.698-50.571s-4.841 15.958-6.274 20.478c-6.017 18.855-8.626 36.956-10.815 56.661-2.08 18.598-1.42 40.542-2.386 52.71-.965 12.167-4.221 38.491-5.597 42.19-1.687 4.516-2.355 9.441-3.819 14.039-5.781 18.127-12.619 45.45-15.73 56.906-3.112 11.456-3.146 25.142-3.291 31.747-.131 5.82-.249 21.246-.633 24.666-.625 5.584-1.093 10.505-1.87 15.365l63.214.018zm177.22-206.622a816.985 816.985 0 003.906 97.823c1.311 12.848 5.13 49.432 5.13 49.432s-1.284 12.024-.673 23.38c.359 6.504-.087 14.065 1.272 20.391 1.114 5.182 2.132 10.383 3.203 15.587h59.085c-.354-7.294 0-14.558.559-22.11.73-9.829 1.534-15.884.538-25.739-2.211-21.879-9.045-36.175-16.496-56.382-1.922-5.205-5.444-15.592-6.938-20.941-7.153-25.853-5.244-57.237-8.801-83.64-1.092-8.027-1.691-13.712-3.312-21.285-3.495-16.199-8.708-33.815-12.907-50.65-2.211-8.852-4.226-17.608-4.964-26.027-.739-8.42-1.905-18.594-1.905-18.594s-12.073 33.156-15.005 48.046c-4.483 22.916-2.238 47.526-2.692 70.709z" fill="#A56403"/><path fill-rule="evenodd" clip-rule="evenodd" d="M360.614 274.081l-8.093-1.745s-13.663-6.98-17.041-8.76c-5.999-3.211-13.834-9.855-18.789-14.488-7.118-6.675-15.805-11.343-22.757-18.275-3.959-3.962-9.473-8.926-14.039-11.884a49.03 49.03 0 00-4.968-2.439s2.42 4.363 3.01 5.942c1.822 4.93 2.185 11.936 2.465 17.163.336 6.164-1.648 17.014-3.308 23.004-1.787 6.43-3.321 8.014-4.37 14.396-1.857 11.06-4.566 14.707-4.566 14.707s-8.857-10.532-12.422-14.977c-.359-.436-5.711-6.4-6.616-6.069-1.188.437 1.595 10.907 1.822 11.81 2.508 9.877 8.267 19.348 11.414 28.933 2.923 8.93 2.211 13.646 3.447 22.843.651 4.798 4.479 16.141 5.501 20.879 1.438 6.753 1.801 11.081 1.311 20.269-.362 6.723-2.377 27.41-3.351 44.019-.345 6.068-2.596 27.484-2.023 34.089.786 8.978-1.128 18.005-1.412 27.166-.292 9.484-1.49 22.564-1.595 28.763-.03 2.391-1.271 25.242-2.184 33.278-.472 4.227-1.595 9.955.249 13.96 1.485 3.224 21.161 10.436 21.161 10.436 10.912 3.235 22 5.848 33.209 7.826 37.766 6.448 73.544 1.178 110.939-5.152 5.09-.851 14.485-1.776 20.016-2.526 6.633-.873 13.271-1.108 21.52-3.194 3.387-.872 5.725-.981 8.927-2.451 3.382-1.545 2.01-6.911 1.875-12.05-.135-5.139-1.346-18.724-2.255-31.576-1.56-21.896-2.276-46.79-4.028-68.494-1.342-16.678-1.879-32.283-2.399-48.961-.874-27.554-1.311-52.382 3.875-79.548 1.705-8.978 6.179-17.494 9.329-25.958.997-2.674 2.032-5.383 3.142-8.018.053-.114 1.997-5.567 1.91-5.571-1.036-.122-1.857 1.479-2.469 1.976-3.784 3.019-11.614 13.184-11.614 13.184s-4.121-2.373-6.118-6.204c-2.08-4.057-2.897-9.885-3.268-14.218-.485-5.488-4.597-15.705-5.515-21.254-1.498-9.114-.712-17.145.512-21.508.249-.872 3.08-7.155 2.49-7.892-.528-.663-2.752 2.16-3.495 2.618-5.484 3.219-9.854 8.633-14.459 13.053-11.702 11.216-25.47 18.126-39.129 26.175-9.408 5.536-21.337 7.853-31.588 8.756-3.373.297-7.166-.157-10.565-.528-.931-.104-5.012-1.003-3.688-1.505z" fill="#fff"/><path fill-rule="evenodd" clip-rule="evenodd" d="M379.823 272.022a33.846 33.846 0 00-4.156-1.2c-1.337-.244-4.317 1.113-4.317 1.113s-5.523-7.098-8.866-9.092c-5.981-3.564-11.636-4.698-18.404-6.042-5.746-1.13-8.232-4.084-13.166-6.889-3.058-1.745-12.326-5.527-16.027-4.297-1.276.436-1.009 1.287-.664 1.745 2.674 3.665 8.468 8.224 12.235 10.78 2.04 1.374 5.278 3.791 7.345 5.096 4.876 3.088 9.482 5.998 15.027 7.826 2.53.873 5.296 1.907 7.926 2.308.673.109 2.696.14 3.168.737.249.314-3.199 7.779-3.976 8.756-.778.977-3.771 9.977-7.616 13.729-1.626 1.601-4.296 3.861-6 5.331-1.927 1.654-3.963 2.945-5.768 4.756-.266.27-1.796.65-1.647 1.16.463 1.701 8.014 1.003 9.429.711 7.564-1.531 10.173-1.544 16.941-4.943 3.679-1.845 7.206-7.852 8.39-11.404 1.079-3.267 2.158-7.979 2.158-7.979l4.785-1.204s2.22 8.197 3.933 11.57c3.648 7.259 11.553 11.159 18.85 12.054 2.228.27 7.275-.24 8.551-.48 1.276-.24 3.522-.515 2.919-1.309-2.045-2.596-6.554-4.576-9.102-6.723-4.369-3.664-6.069-6.177-8.119-11.364-.476-1.218-3.106-10.418-4.317-11.566-1.21-1.147 9.465-3.56 12.55-5.108 8.573-4.311 10.6-5.602 18.942-10.305a90.037 90.037 0 009.748-6.544c3.985-3.027 4.623-4.284 3.907-5.196-.564-.728-1.189-1.02-3.994-.462s-6.389 2.905-10.146 4.315c-5.576 2.054-12.567 3.093-18.449 4.135-3.01.52-6.34 2.57-9.119 4.11-5.366 3.028-12.951 11.875-12.951 11.875z" fill="#A56403"/><path fill-rule="evenodd" clip-rule="evenodd" d="M343.219 187.182c-5.209.646-10.247.332-14.857 3.181-2.023 1.239-3.461 5.13-3.461 5.13s3.745 1.863 4.955 5.51c1.211 3.647 2.159 7.77 4.396 11.661 1.643 2.845 3.059 5.781 6.734 7.002a22.756 22.756 0 0014.856.096c5.143-1.684 8.477-5.414 13.747-7.281 1.826-.646 7.288-1.701 9.342-1.03 4.806 1.588 7.266 5.131 10.6 8.83a18.234 18.234 0 0013.895 5.829c5.143-.223 11.685-3.835 16.456-9.428 4.772-5.593 8.879-9.598 8.879-9.598s-.944-4.742-3.378-7.316c-4.701-4.969-13.598-7.817-18.972-7.713-12.016.249-23.836 5.174-35.979 1.588-4.614-1.361-8.04-3.337-12.619-4.576-2.998-.82-11.309-2.291-14.594-1.885zm3.574 8.368c.594.397 6.939.872 9.211 1.261 6.008.999 9.456 2.909 10.701 6.932.196.628-6.913 8.633-7.511 8.913-4.418 2.067-13.454 1.125-13.66 1.003a15.637 15.637 0 01-5.462-4.363c-2.272-2.958-2.7-10.252-2.228-10.71 2.434-2.421 8.394-3.394 8.949-3.032v-.004zm42.821 6.862c5.148-2.997 16.648-2.696 17.042-2.159.314.436 7.52 1.387 8.791 6.243.162.636-1.114 5.841-5.108 9.388-.498.436-9.276 2.757-9.927 2.692-5.082-.533-10.924-5.611-11.291-6.025-4.859-5.82-.088-9.803.48-10.139h.013z" fill="#F90"/><path fill-rule="evenodd" clip-rule="evenodd" d="M323.578 195.764c-.332.296-2.67-14.043-3.024-17.276-1.053-9.908-.625-13.895 1.87-23.48.831-3.197 3.378-11.936 5.06-14.881 4.199-7.394 15.468-17.254 22.552-22.149 4.994-3.463 10.652-5.496 18.098-6.382 8.342-.986 12.161.096 15.731.619 3.569.524 8.302 3.364 11.089 4.171 3.968 1.117 4.96 1.592 9.316 1.946 4.357.353 10.369-.179 13.218.872 6.301 2.356 8.988 2.212 13.847 7.268 1.748 1.841 7.459 9.72 8.25 11.88a76.794 76.794 0 014.247 19.034c.931 10.937-3.552 22.808-6.799 32.933-1.411 4.385-3.032 8.726-4.701 13.014-.092.24-1.622 4.651-2.133 4.594-.511-.057-1.429-2.587-1.603-2.928a57.73 57.73 0 00-4.3-6.801s-.931-8.725-3.059-11.661c-4.487-6.156-11.54-12.63-15.145-19.383-1.227-2.295-1.494-12.146-4.95-14.135-3.09-1.745-6.917 5.043-10.924 8.594-4.007 3.551-7.629 5.105-12.716 7.927-8.695 4.847-18.701 2.256-27.847 5.597-10.845 3.953-17.972 13.289-26.077 20.627z" fill="#714400"/><path fill-rule="evenodd" clip-rule="evenodd" d="M473.654 649a154.028 154.028 0 00-.651-6.291c-2.255-18.127-5.51-32.885-5.654-37.776-.075-2.731-2.329-20.687-2.329-20.687s-12.89 7.198-17.841 7.416c-11.872.55-28.918 6.832-40.794 7.543-12.143.737-20.716.327-32.907.873-16.016.745-32.061-.6-47.729-4.001-5.868-1.269-9.936-1.169-15.73-2.809-5.432-1.523-11.973-2.779-17.343-4.799-.586-.214-7.551-1.972-7.551-1.972s-5.789 50.829-6.48 58.228c-.135 1.348-.244 2.783-.367 4.258l195.376.017z" fill="#BACCD6"/><path d="M267.826 293.015a1.2 1.2 0 01-1.009-.541c-4.16-6.37-11.645-14.663-20.314-24.252-15.136-16.774-33.982-37.641-49.254-63.062-11.916-19.836-20.899-32.497-28.839-43.661-4.081-5.754-7.939-11.185-11.701-16.922-19.965-30.412-30.867-56.413-36.075-68.899-.848-2.016-1.534-3.647-2.054-4.799a175.272 175.272 0 01-9.644-27.659c-2.678-10.182-4.806-21.377-.288-27.079 2.093-2.617 6.358-4.362 9.788-5.771l1.31-.541c2.972-1.248 5.851.13 7.704 3.721 1.853 3.59 2.504 6.592 1.984 9.087-1.045 4.987-3.99 6.758-6.476 6.684-2.591-.04-5.575-2.181-6.393-6.832a1.182 1.182 0 01.196-.894 1.185 1.185 0 01.774-.489 1.203 1.203 0 011.386.977c.585 3.312 2.468 4.83 4.076 4.847h.04c1.879 0 3.434-1.828 4.05-4.799.407-1.941-.192-4.463-1.747-7.495-.726-1.409-2.286-3.616-4.65-2.617l-1.367.54c-2.998 1.222-7.11 2.898-8.809 5.044-4.37 5.55-.804 19.17.729 24.993a173.944 173.944 0 009.495 27.28c.542 1.2 1.228 2.84 2.076 4.877 5.217 12.425 16.049 38.291 35.9 68.493 3.74 5.706 7.594 11.116 11.662 16.853 7.936 11.221 16.967 23.911 28.909 43.831 15.154 25.225 33.908 46 48.974 62.691 8.739 9.667 16.286 18.017 20.537 24.553a1.186 1.186 0 01-.996 1.841h.026z" fill="#5B3D3A"/><path d="M125.925 43.08a1.196 1.196 0 01-1.171-.959c-1.005-5.043-2.95-7.91-4.807-10.697-1.813-2.696-3.53-5.235-4.242-9.327a1.181 1.181 0 01.193-.895 1.203 1.203 0 01.772-.493 1.218 1.218 0 011.399.969c.624 3.603 2.119 5.833 3.867 8.415 1.905 2.836 4.068 6.056 5.177 11.561a1.2 1.2 0 01-1.188 1.427zm4.653-13.214c-1.603 0-3.137-.96-4.548-2.875a1.195 1.195 0 011.144-1.89 1.199 1.199 0 01.787.473c.996 1.348 1.94 1.993 2.797 1.893.856-.1 2.735-1.104 5.138-6.675 1.534-3.525-.105-6.4-3.238-9.894-1.214-1.361-3.666-2.225-5.545-1.977a3.15 3.15 0 00-2.56 1.693 1.203 1.203 0 01-.691.593 1.19 1.19 0 01-.908-.07 1.194 1.194 0 01-.533-1.605 5.562 5.562 0 014.369-2.98c2.7-.353 5.908.803 7.664 2.758 3.151 3.525 5.794 7.477 3.644 12.433-2.228 5.157-4.544 7.818-7.056 8.097a4.182 4.182 0 01-.464.026z" fill="#5B3D3A"/><path d="M142.328 9.986a1.158 1.158 0 01-.908-.437c-2.076-2.447-4.593-3.821-6.769-3.751-1.499.07-2.783.872-3.836 2.36a1.2 1.2 0 01-2.161-.478 1.2 1.2 0 01.194-.892c1.482-2.103 3.448-3.28 5.681-3.381 2.892-.131 6.161 1.592 8.704 4.594a1.203 1.203 0 01-.905 1.985zm-4.216 18.044c-.97 0-2.185-.358-3.312-1.715a1.184 1.184 0 01.157-1.675 1.192 1.192 0 011.687.144c.729.873 1.341.899 1.748.829 2.062-.336 4.775-4.262 5.741-6.797.136-.37.232-.753.288-1.143a1.197 1.197 0 01.892-.99 1.204 1.204 0 011.481 1.334 7.496 7.496 0 01-.437 1.632c-.939 2.465-4.011 7.726-7.585 8.328a4.508 4.508 0 01-.66.053z" fill="#5B3D3A"/><path d="M136.447 5.54a1.204 1.204 0 01-1.109-.736 1.184 1.184 0 010-.917c.06-.146.149-.277.261-.388 2.036-2.011 4.995-2.517 8.302-1.453a1.185 1.185 0 01.765 1.505 1.195 1.195 0 01-1.503.777c-1.713-.559-4.116-.873-5.882.872a1.18 1.18 0 01-.834.34zm9.399 19.645c-.15 0-.298-.03-.437-.087a5.244 5.244 0 01-2.01-1.562 1.21 1.21 0 01.157-1.692 1.214 1.214 0 011.691.174c.279.372.643.67 1.062.873a1.198 1.198 0 01.748 1.099 1.2 1.2 0 01-.088.458 1.2 1.2 0 01-1.123.737z" fill="#5B3D3A"/><path d="M276.876 220.927a1.155 1.155 0 01-.761-.279c-15.629-12.935-28.402-24.867-39.059-36.454-7.428-8.062-17.238-21.15-22.04-27.982-8.477-12.084-13.948-19.658-21.511-30.159l-4.51-6.265c-8.459-11.726-15.49-20.16-21.738-27.606-9.307-11.116-16.023-19.152-20.725-30.538-5.038-12.176.704-18.502 2.587-20.151 3.771-3.312 5.89-9.956 6.48-20.326.262-4.672-1.219-6.566-2.945-8.773a18.987 18.987 0 01-2.242-3.36c-.336-.697-.642-1.378-.944-2.023-1.31-2.915-2.211-4.738-3.395-4.634-.528.153-3.255 2.182-1.748 8.172a26.48 26.48 0 001.958 5.056c1.848 3.926 3.592 7.648-1.608 13.476a1.202 1.202 0 01-1.691.096 1.177 1.177 0 01-.404-.823 1.175 1.175 0 01.304-.865c4.155-4.655 3.058-6.98 1.232-10.863a29.181 29.181 0 01-2.111-5.506c-1.201-4.768-.096-7.613 1.036-9.161.834-1.126 2.001-1.92 2.906-1.977 2.901-.183 4.186 2.71 5.715 6.025.284.628.585 1.309.918 1.972a16.022 16.022 0 001.97 2.936c1.748 2.256 3.762 4.799 3.448 10.374-.625 11.047-3.006 18.232-7.289 21.988-1.581 1.387-6.384 6.736-1.957 17.45 4.557 11.033 11.19 18.943 20.349 29.902 6.257 7.473 13.344 15.949 21.848 27.746l4.5 6.278c7.568 10.505 13.043 18.105 21.525 30.18 4.758 6.784 14.52 19.772 21.847 27.747 10.583 11.513 23.286 23.366 38.824 36.231a1.196 1.196 0 01-.769 2.116z" fill="#5B3D3A"/><path d="M360.326 275.316a.957.957 0 01-.214 0c-19.698-3.543-34.52-16.552-40.86-22.11a68.674 68.674 0 00-2.272-1.959c-1.962-1.579-3.985-3.141-6.118-4.799-3.959-3.054-8.45-6.509-13.475-10.832a428.943 428.943 0 01-6.69-5.929c-7.761-6.98-15.097-13.581-20.253-14.593a1.208 1.208 0 01-.763-1.839 1.172 1.172 0 011.231-.504c5.798 1.13 13.379 7.949 21.41 15.156a363.671 363.671 0 006.646 5.89c4.986 4.288 9.443 7.726 13.376 10.754 2.154 1.657 4.199 3.228 6.169 4.82.599.476 1.386 1.169 2.356 2.011 6.178 5.432 20.654 18.136 39.701 21.565a1.194 1.194 0 011.017 1.286 1.193 1.193 0 01-1.231 1.083h-.03zM117.033 23.122a1.196 1.196 0 01-1.075-.685 1.389 1.389 0 01-.026-1.043c.481-1.17 3.596-2.408 3.635-2.417a1.2 1.2 0 011.525.729 1.19 1.19 0 01-.721 1.522c-.796.318-1.552.726-2.254 1.217-.12.243-.317.439-.56.559-.163.079-.342.12-.524.118zm359.282 273.985a1.25 1.25 0 01-.665-.192 1.203 1.203 0 01-.345-1.658c4.269-6.544 11.505-14.536 19.869-23.806 14.419-15.968 32.373-35.835 47.523-61.077 11.968-19.915 20.974-32.615 28.948-43.818 4.064-5.737 7.909-11.147 11.649-16.844 19.847-30.229 30.661-56.086 35.905-68.52.847-2.032 1.542-3.673 2.08-4.864a173.221 173.221 0 009.503-27.284c1.521-5.82 5.108-19.444.721-24.989-1.691-2.146-5.811-3.83-8.822-5.052l-1.311-.55c-2.377-.99-3.932 1.222-4.658 2.618-1.568 3.054-2.184 5.576-1.747 7.5.624 2.984 2.232 4.764 4.094 4.799 1.608-.027 3.496-1.536 4.077-4.86a1.191 1.191 0 011.385-.96 1.188 1.188 0 01.97 1.383c-.822 4.66-3.802 6.792-6.393 6.827-2.482-.07-5.427-1.701-6.475-6.692-.516-2.474.152-5.536 1.979-9.083 1.826-3.547 4.737-4.969 7.703-3.73l1.311.545c3.439 1.405 7.708 3.146 9.792 5.78 4.519 5.716 2.395 16.893-.288 27.084a175.684 175.684 0 01-9.613 27.65c-.524 1.178-1.206 2.801-2.054 4.8-5.243 12.494-16.128 38.49-36.101 68.894-3.819 5.745-7.664 11.172-11.75 16.931-7.939 11.164-16.931 23.824-28.839 43.661-15.293 25.438-33.304 45.41-47.794 61.452-8.302 9.192-15.481 17.149-19.663 23.519a1.184 1.184 0 01-.991.536z" fill="#5B3D3A"/><path d="M616.079 49.533a1.037 1.037 0 01-.231 0 1.191 1.191 0 01-.94-1.41c1.097-5.505 3.26-8.724 5.174-11.556 1.748-2.583 3.238-4.799 3.871-8.407a1.21 1.21 0 011.39-.981 1.197 1.197 0 01.961 1.387c-.712 4.101-2.438 6.644-4.23 9.336-1.883 2.78-3.814 5.672-4.806 10.693a1.191 1.191 0 01-1.189.938zm-4.649-13.214a3.303 3.303 0 01-.437-.035c-2.525-.284-4.837-2.932-7.065-8.097-2.141-4.956.489-8.904 3.653-12.442a9.345 9.345 0 017.66-2.744 5.53 5.53 0 014.369 2.984 1.19 1.19 0 01-.529 1.6 1.206 1.206 0 01-1.612-.523 3.113 3.113 0 00-2.543-1.693c-1.896-.253-4.339.624-5.554 1.972-3.133 3.49-4.767 6.37-3.242 9.895 2.412 5.575 4.252 6.579 5.134 6.683.883.105 1.805-.545 2.81-1.902a1.206 1.206 0 011.991.095 1.184 1.184 0 01-.068 1.327c-1.438 1.916-2.959 2.88-4.567 2.88z" fill="#5B3D3A"/><path d="M599.672 16.443a1.189 1.189 0 01-.769-.288 1.182 1.182 0 01-.14-1.689c2.552-3.001 5.864-4.742 8.704-4.589 2.241.1 4.208 1.26 5.68 3.372a1.18 1.18 0 01.209.894 1.169 1.169 0 01-.497.773 1.2 1.2 0 01-1.661-.284c-1.053-1.505-2.355-2.299-3.84-2.373-2.29-.079-4.698 1.309-6.773 3.76a1.213 1.213 0 01-.913.424zm4.234 18.057a3.9 3.9 0 01-.656-.057c-3.933-.646-6.991-6.727-7.59-8.324a8.237 8.237 0 01-.437-1.64 1.199 1.199 0 012.373-.336c.054.389.15.77.288 1.138.966 2.544 3.688 6.461 5.738 6.806.397.066 1 .048 1.747-.833a1.2 1.2 0 011.974.203 1.185 1.185 0 01.087.91c-.046.15-.121.289-.221.41-1.119 1.36-2.316 1.723-3.303 1.723z" fill="#5B3D3A"/><path d="M605.558 11.988a1.19 1.19 0 01-.844-.34c-1.748-1.745-4.168-1.431-5.877-.873a1.176 1.176 0 01-1.499-.759 1.193 1.193 0 01.066-.913 1.195 1.195 0 01.699-.592c3.299-1.077 6.244-.563 8.302 1.435a1.203 1.203 0 01-.388 1.954 1.18 1.18 0 01-.459.088zm-9.399 19.641a1.196 1.196 0 01-1.106-.729 1.207 1.207 0 01.655-1.57c.423-.198.79-.498 1.067-.873a1.213 1.213 0 011.686-.161 1.205 1.205 0 01.433.816 1.197 1.197 0 01-.275.88 5.335 5.335 0 01-2.01 1.558 1.158 1.158 0 01-.45.079z" fill="#5B3D3A"/><path d="M464.08 228.239a1.211 1.211 0 01-1.146-1.517c.062-.236.195-.448.381-.608 16.045-13.214 29.079-25.342 39.872-37.082 7.328-7.988 17.072-20.967 21.848-27.751 8.442-12.019 13.886-19.557 21.411-30.01l4.627-6.422c8.499-11.805 15.59-20.269 21.848-27.746 9.176-10.955 15.796-18.877 20.353-29.901 4.431-10.71-.376-16.063-1.953-17.45-4.282-3.753-6.668-10.947-7.293-21.984-.31-5.576 1.687-8.132 3.452-10.379a16.124 16.124 0 001.966-2.94c.337-.685.638-1.34.931-1.976 1.516-3.312 2.735-6.182 5.68-6.016.901.052 2.076.846 2.911 1.976 1.136 1.54 2.241 4.362 1.044 9.161a29.266 29.266 0 01-2.119 5.506c-1.822 3.878-2.924 6.212 1.223 10.863a1.192 1.192 0 01.19 1.315 1.182 1.182 0 01-.282.373 1.182 1.182 0 01-.863.303 1.194 1.194 0 01-.823-.399c-5.209-5.828-3.47-9.54-1.608-13.476a26.913 26.913 0 001.953-5.06c1.49-5.964-1.228-8.015-1.831-8.167-1.105-.03-1.988 1.723-3.316 4.624-.306.65-.612 1.309-.953 2.029a18.59 18.59 0 01-2.237 3.368c-1.748 2.203-3.207 4.092-2.95 8.764.59 10.374 2.709 17.014 6.48 20.33 1.879 1.653 7.634 7.975 2.587 20.155-4.701 11.378-11.422 19.414-20.725 30.538-6.226 7.421-13.279 15.854-21.729 27.581l-4.623 6.426c-7.52 10.444-12.96 17.974-21.411 29.989-4.807 6.831-14.612 19.911-22.027 27.986-10.863 11.822-23.984 24.033-40.104 37.313a1.189 1.189 0 01-.764.284z" fill="#5B3D3A"/><path d="M389.155 275.315a1.198 1.198 0 01-1.191-1.059 1.195 1.195 0 01.92-1.301c18.182-4.245 37.264-17.699 51.854-28.946 1.477-1.125 3.972-3.49 6.856-6.234 8.857-8.389 16.525-15.382 20.615-15.766a1.2 1.2 0 011.362 1.074 1.192 1.192 0 01-1.143 1.303c-3.592.341-12.987 9.236-19.187 15.125-2.941 2.784-5.475 5.192-7.035 6.396-14.787 11.386-34.144 25.02-52.775 29.382a1.418 1.418 0 01-.276.026zM624.966 29.57a1.125 1.125 0 01-.533-.127 1.227 1.227 0 01-.542-.55 10.75 10.75 0 00-2.25-1.208 1.203 1.203 0 01-.725-1.54 1.195 1.195 0 011.525-.715c.03 0 3.159 1.252 3.622 2.416a1.268 1.268 0 01-.026 1.052 1.189 1.189 0 01-1.071.672zM279.41 649c.952-8.486 2.066-17.207 3.119-25.417.997-7.709 1.927-14.994 2.622-21.403 1.311-11.565.765-22.904.245-33.863h-.8l-1.595.127c.533 11.369 1.036 22.11-.227 33.492-.708 6.391-1.643 13.668-2.622 21.377-1.066 8.289-2.184 17.132-3.159 25.739l2.417-.052zm188.205-33.361c1.477 10.47 2.971 21.193 4.12 33.361h2.395c-1.158-12.316-2.67-23.122-4.156-33.693-1.258-8.978-2.438-17.45-3.399-26.669-.665-6.378-1.263-14.396-1.678-22.502a1.124 1.124 0 00-.372-.844 1.132 1.132 0 00-.878-.286 1.171 1.171 0 00-.832.39 1.191 1.191 0 00-.3.867c.407 8.162 1.005 16.207 1.678 22.628.975 9.254 2.163 17.752 3.422 26.748zM262.509 296.928c-1.989 0-3.881-.785-5.681-2.338-5.589-4.877-8.962-16.718-9.294-25.364a1.195 1.195 0 011.149-1.244 1.199 1.199 0 011.246 1.148c.319 8.289 3.574 19.383 8.477 23.663 1.477 1.308 3.01 1.875 4.583 1.723 5.729-.546 7.638-10.392 8.91-16.905a35.02 35.02 0 011.14-4.891c5.842-16.046 10.535-50.689-1.695-56.989a1.182 1.182 0 01-.636-.695 1.185 1.185 0 01.068-.938 1.191 1.191 0 011.665-.478c13.829 7.115 9.276 42.243 2.844 59.912a37.899 37.899 0 00-1.035 4.528c-1.407 7.216-3.527 18.118-11.038 18.833a6.606 6.606 0 01-.703.035z" fill="#5B3D3A"/><path d="M477.525 298.119a9.315 9.315 0 01-3.295-.637c-6.467-2.417-8.302-13.458-9.373-20.042l-.249-1.544c-.725-4.14-1.83-8.141-2.901-12.01-2.735-9.873-5.318-19.196-1.848-30.29l.148-.436c1.171-3.787 2.622-8.498 7.429-10.907a1.198 1.198 0 011.07 2.142c-3.893 1.937-5.143 5.942-6.244 9.463l-.136.436c-3.259 10.422-.769 19.418 1.862 28.942a125.565 125.565 0 012.945 12.237l.267 1.562c.943 5.671 2.674 16.264 7.865 18.192a5.942 5.942 0 004.972-.118c3.36-1.688 6.371-6.98 8.94-15.766a1.197 1.197 0 012.299.676c-2.797 9.567-6.118 15.203-10.164 17.223a7.911 7.911 0 01-3.587.877zm-204.363 71.503c-.157 0-.312-.031-.456-.092a1.176 1.176 0 01-.644-.647 1.206 1.206 0 01-.089-.456c0-8.149-2.399-16.77-4.714-25.124-.931-3.412-1.827-6.636-2.565-9.825-.437-1.85-.638-4.362-.874-7.259-.411-4.969-.935-11.16-2.827-15.841-.665-1.623-1.578-3.52-2.622-5.715-3.684-7.604-9.246-19.099-10.526-33.819a1.19 1.19 0 01.636-1.177 1.21 1.21 0 01.452-.132c.158-.018.319-.003.472.042a1.174 1.174 0 01.839 1.049c1.241 14.279 6.475 25.094 10.299 32.986 1.079 2.233 2.018 4.166 2.7 5.85 2.036 5.026 2.569 11.404 2.993 16.539.24 2.818.437 5.235.839 6.919.712 3.15 1.608 6.347 2.543 9.737 2.355 8.503 4.807 17.285 4.807 25.74a1.197 1.197 0 01-.778 1.15c-.155.058-.32.084-.485.075z" fill="#5B3D3A"/><path d="M354.405 578.941c-7.022 0-13.393-.24-18.711-.69-36.005-3.001-71.844-15.164-74.391-20.94-1.7-3.826-1.023-9.057-.477-13.254.153-1.151.298-2.242.376-3.215 1.097-13.057 1.683-26.372 2.259-39.263v-.293c1.822-41.008 8.15-142.221 13.236-181.415a1.169 1.169 0 01.454-.796 1.177 1.177 0 01.887-.233 1.185 1.185 0 01.8.451 1.18 1.18 0 01.244.884c-5.09 39.119-11.408 140.232-13.231 181.218v.288c-.572 12.9-1.166 26.25-2.263 39.351a72.34 72.34 0 01-.38 3.329c-.516 3.896-1.141 8.725.28 11.975 1.507 3.377 33.68 16.268 72.416 19.505 19.471 1.623 53.47.437 80.749-5.012 10.675-2.125 22.005-3.643 31.99-4.982 13.685-1.824 29.188-3.901 30.15-6.614 1.048-3.019-.407-20.723-1.696-36.336-.935-11.343-1.822-22.08-1.931-28.602-.28-15.753-1.442-31.035-2.569-45.807-1.281-16.779-2.622-34.146-2.622-52.16 0-3.027-.026-6.578-.061-10.47-.171-17.699-.389-41.951 2.045-56.422 1.747-10.356 6.117-20.94 9.94-30.298 2.758-6.705 5.139-12.499 6.091-17.014a1.21 1.21 0 01.169-.45 1.21 1.21 0 01.776-.535 1.18 1.18 0 01.481.001c.159.032.309.097.442.19a1.181 1.181 0 01.498.798c.025.16.017.323-.023.48-.997 4.721-3.413 10.619-6.218 17.424-3.797 9.227-8.101 19.689-9.801 29.784-2.399 14.266-2.185 38.391-2.01 56.016.039 3.926.078 7.46.078 10.47 0 17.922 1.311 35.241 2.592 51.981 1.131 14.807 2.302 30.102 2.573 45.938.114 6.448.997 17.137 1.932 28.449 1.678 20.426 2.691 34.063 1.564 37.331-1.359 3.926-11.933 5.501-32.073 8.197-9.962 1.309-21.236 2.836-31.84 4.947-20.079 4.071-43.766 5.794-62.725 5.794z" fill="#5B3D3A"/><path d="M458.334 335.158a1.193 1.193 0 01-1.101-.716c-5.03-11.809-9.443-38.657-9.443-57.477a1.193 1.193 0 011.197-1.195 1.196 1.196 0 011.198 1.195c0 18.227 4.404 45.17 9.25 56.535a1.185 1.185 0 01-.638 1.566 1.17 1.17 0 01-.463.092zM379.25 601.129c-40.475 0-80.125-6.797-94.33-13.882a1.198 1.198 0 111.079-2.137c22.425 11.194 130.104 24.304 177.216-1.881a1.2 1.2 0 011.689 1.376 1.2 1.2 0 01-.531.714c-20.86 11.596-53.252 15.81-85.123 15.81zM375.837 649h2.421a45.79 45.79 0 011.179-6.108c2.557-9.427 2.259-19.592 1.962-29.408-.039-1.61-.087-3.185-.113-4.729a1.218 1.218 0 00-1.224-1.178 1.206 1.206 0 00-1.18 1.226c.038 1.562.081 3.144.127 4.747.284 9.645.581 19.631-1.883 28.714a50.399 50.399 0 00-1.289 6.736zm-158.375 0c1.683-10.113 1.936-21.272 2.185-32.253.223-9.82.437-19.1 1.63-27.38 2.185-15.203 6.943-30.865 11.557-45.999 3.374-11.042 6.852-22.463 9.251-33.518 5.719-26.324 6.681-51.562 7.533-73.833.489-13.053.922-24.322 2.237-33.78 4.064-29.129 11.304-54.096 15.254-66.403a1.178 1.178 0 00-.072-.913 1.179 1.179 0 00-.292-.366 1.174 1.174 0 00-.409-.226 1.222 1.222 0 00-1.508.781c-3.976 12.368-11.26 37.518-15.341 66.791-1.333 9.598-1.748 20.91-2.268 34.029-.843 22.166-1.796 47.304-7.481 73.423-2.377 10.954-5.842 22.327-9.176 33.321-4.64 15.226-9.429 30.975-11.645 46.362-1.201 8.424-1.415 17.764-1.643 27.65-.262 11.046-.511 22.249-2.219 32.318l2.407-.004zm276.733-225.604c2.128 12.015 3.058 26.433 4.024 41.693 1.459 22.799 2.971 46.384 8.709 64.057 2.726 8.398 5.479 16.028 8.14 23.405 6.79 18.86 12.672 35.154 13.602 52.631.437 8.633.048 16.141-.349 23.414-.354 6.439-.704 12.992-.437 20.404h2.399c-.245-7.364.105-13.878.437-20.269.402-7.338.812-14.916.349-23.676-.952-17.83-6.877-34.277-13.738-53.315-2.652-7.36-5.396-14.973-8.123-23.336-5.645-17.389-7.139-40.817-8.594-63.467-.979-15.331-1.91-29.81-4.047-41.96-2.556-14.449-5.92-26.053-9.176-37.27-5.44-18.759-10.574-36.515-10.985-64.706a1.2 1.2 0 00-1.217-1.184 1.203 1.203 0 00-1.186 1.214c.437 28.519 5.602 46.41 11.086 65.344 3.233 11.168 6.576 22.698 9.106 37.021zM339.71 310.016c-2.15 0-3.828-.231-4.772-.681a2.101 2.101 0 01-1.245-1.361c-.332-1.309.935-2.207 3.998-4.363 3.592-2.521 9.023-6.325 12.646-11.482 2.237-3.198 3.618-6.544 4.955-9.829 2.185-5.357 4.094-9.986 9.097-11.561 4.282-1.335 6.611-.201 7.822.982 2.184 2.15 2.565 6.295 1.04 11.342a110.41 110.41 0 00-1.185 4.463c-1.673 6.749-3.399 13.734-12.374 17.926-6.699 3.168-14.73 4.564-19.982 4.564zm-3.137-2.618c2.936.676 13.165.105 22.105-4.079 7.935-3.717 9.39-9.571 11.068-16.347.372-1.509.756-3.053 1.211-4.567 1.227-4.066 1.061-7.5-.437-8.961-1.342-1.309-3.688-.947-5.419-.401-3.932 1.239-5.549 5.187-7.603 10.182-1.31 3.224-2.818 6.871-5.217 10.291-3.858 5.502-9.495 9.458-13.226 12.072-.887.624-1.862 1.3-2.482 1.806v.004z" fill="#5B3D3A"/><path d="M372.704 285.027h-.699a1.217 1.217 0 01-.464-.105 1.209 1.209 0 01-.634-.683 1.197 1.197 0 011.224-1.598c2.954.144 5.178-.873 6.236-2.871 1.092-2.098.734-4.912-.874-7.006a2.4 2.4 0 00-2.185-.825 2.622 2.622 0 00-2.102 1.309 1.211 1.211 0 01-1.612.532 1.191 1.191 0 01-.533-1.597 5.03 5.03 0 014.015-2.648 4.845 4.845 0 014.309 1.745c2.185 2.81 2.648 6.662 1.123 9.598-1.425 2.653-4.256 4.149-7.804 4.149z" fill="#5B3D3A"/><path d="M402.225 307.887c-4.37 0-10.846-.873-16.028-5.135-7.258-5.964-8.494-11.578-9.473-16.072a32.725 32.725 0 00-.848-3.329 1.195 1.195 0 01.756-1.513 1.201 1.201 0 011.517.754c.363 1.174.666 2.365.908 3.569.953 4.363 2.037 9.31 8.661 14.746 7.205 5.915 17.867 4.86 21.231 3.786-.568-.436-1.367-.959-2.101-1.457-3.754-2.513-10.05-6.736-13.083-12.73-1.376-2.696-2.154-5.462-2.849-7.896-1.699-6.016-2.731-9.65-10.264-8.725a1.2 1.2 0 01-.275-2.382c9.565-1.139 11.155 4.497 12.846 10.47.691 2.443 1.403 4.965 2.675 7.46 2.761 5.44 8.739 9.441 12.282 11.831 2.482 1.663 3.601 2.422 3.767 3.456.036.399-.064.798-.284 1.134-.953 1.221-4.759 1.745-5.908 1.85a32.015 32.015 0 01-3.53.183z" fill="#5B3D3A"/><path d="M379.944 272.724a1.201 1.201 0 01-1.125-.802 1.19 1.19 0 01.383-1.327c1.843-1.479 3.578-3.054 5.243-4.615 3.33-3.054 6.773-6.208 11.129-8.512 4.125-2.181 9.041-3.014 13.808-3.843a76.328 76.328 0 007.865-1.636 32.432 32.432 0 005.292-2.313c4.243-2.111 9.053-4.515 13.502-2.617a1.195 1.195 0 01-.944 2.181c-3.426-1.457-7.525.589-11.488 2.57a34.589 34.589 0 01-5.706 2.456 80.665 80.665 0 01-8.097 1.697c-4.579.785-9.307 1.614-13.109 3.608-4.085 2.155-7.266 5.069-10.631 8.158-1.713 1.566-3.496 3.189-5.392 4.712a1.214 1.214 0 01-.73.283zm-9.036-.165a1.155 1.155 0 01-.948-.471c-7.866-10.349-14.927-11.954-22.39-13.664a63.587 63.587 0 01-9.154-2.591 35.642 35.642 0 01-4.767-2.657c-5.287-3.264-12.515-7.713-19.615-5.912a1.2 1.2 0 01-1.252-.441 1.2 1.2 0 01-.226-.885 1.19 1.19 0 01.467-.785c.126-.094.269-.162.421-.201 8.079-2.059 16.141 2.897 21.459 6.186a32.18 32.18 0 004.369 2.456 60.568 60.568 0 008.814 2.496c7.55 1.745 15.359 3.516 23.761 14.554a1.205 1.205 0 01-.227 1.679 1.272 1.272 0 01-.712.236zm-25.78 68.815a27.471 27.471 0 01-8.936-1.43 1.212 1.212 0 01-.688-.605 1.182 1.182 0 01-.059-.914 1.19 1.19 0 01.606-.687 1.2 1.2 0 01.915-.059c16.875 5.763 38.216-8.228 50.914-23.676a1.2 1.2 0 012.123.632c.033.316-.062.631-.262.878-11.094 13.493-28.647 25.861-44.613 25.861z" fill="#5B3D3A"/><path d="M346.915 258.144c-.299 0-.588-.112-.808-.314-10.395-9.563-17.382-24.081-17.382-36.135a1.202 1.202 0 012.398 0c0 11.417 6.673 25.237 16.605 34.373a1.198 1.198 0 01.306 1.316 1.19 1.19 0 01-.442.553 1.19 1.19 0 01-.677.207zm27.209 11.169a41.56 41.56 0 01-4.518-.24c-.407-.04-.831-.083-1.241-.149a1.196 1.196 0 01-.561-2.135c.125-.094.269-.163.421-.202.153-.038.312-.046.467-.023l1.154.135c5.01.544 10.077.121 14.926-1.247a1.185 1.185 0 011.482.816 1.199 1.199 0 01-.822 1.479 41.063 41.063 0 01-11.308 1.566zm29.923-12.661a1.192 1.192 0 01-1.12-.752 1.191 1.191 0 01.294-1.316c10.29-9.676 15.088-21.224 16.307-24.531a1.2 1.2 0 012.214-.086c.133.288.146.617.036.915-1.267 3.429-6.239 15.413-16.919 25.439a1.106 1.106 0 01-.812.331z" fill="#5B3D3A"/><path d="M329.271 225.29a1.17 1.17 0 01-.205 0c-9.067-1.549-12.532-11.269-13.153-16.762-.511-4.589.909-9.008 3.697-11.534 1.591-1.44 4.396-2.945 8.739-2.007a1.196 1.196 0 11-.498 2.343c-2.709-.585-4.933-.101-6.633 1.426-2.185 1.99-3.347 5.724-2.928 9.502.551 4.829 3.518 13.35 11.182 14.676a1.199 1.199 0 011.018 1.283 1.192 1.192 0 01-1.219 1.094v-.021zm93.027 9.418a7.954 7.954 0 01-2.56-.401 1.196 1.196 0 01-.734-1.523 1.21 1.21 0 011.529-.737c3.382 1.178 9.805-1.645 13.017-7.037 2.622-4.393 3.142-9.798 1.311-13.144-1.267-2.286-3.535-3.49-6.729-3.565a1.194 1.194 0 01-1.106-1.205 1.191 1.191 0 011.141-1.172h.026c5.121.122 7.59 2.674 8.739 4.799 2.246 4.053 1.7 10.426-1.311 15.513-3.002 5.013-8.682 8.472-13.323 8.472z" fill="#5B3D3A"/><path d="M327.719 212.298a1.177 1.177 0 01-1.07-.668c-.664-1.309-2.421-2.552-3.732-3.198a1.194 1.194 0 01.625-2.261c.156.011.31.053.45.124.83.436 3.631 1.954 4.807 4.271.071.14.114.293.125.45a1.174 1.174 0 01-.288.869 1.199 1.199 0 01-.917.413zm97.075 9.432a1.2 1.2 0 01-.848-.349 1.206 1.206 0 010-1.698c1.005-.985 3.273-2.224 5.68-2.643a1.18 1.18 0 01.466.009 1.198 1.198 0 01.92.955 1.209 1.209 0 01-.97 1.392c-2.015.344-3.789 1.374-4.396 1.985a1.22 1.22 0 01-.852.349zM322.17 188.159a1.204 1.204 0 01-1.18-.99l-.402-2.208c-1.747-9.161-4.107-21.677 3.496-36.72a1.203 1.203 0 011.17-.701 1.19 1.19 0 01.84.426 1.183 1.183 0 01.271.901 1.19 1.19 0 01-.149.456c-7.249 14.314-4.968 26.385-3.299 35.193l.437 2.23a1.19 1.19 0 01-.97 1.391c-.07.015-.142.022-.214.022zm-.935-45.829a1.206 1.206 0 01-1.154-.872 1.198 1.198 0 01.115-.908 1.19 1.19 0 01.729-.554c4.706-1.256 9.941-6.343 15.477-11.735 6.231-6.042 13.305-12.918 21.166-15.754 11.824-4.262 26.217-3.416 35.773 2.121a1.175 1.175 0 01.56.722 1.175 1.175 0 01-.123.905 1.203 1.203 0 01-1.634.436c-8.992-5.196-22.556-5.977-33.755-1.937-7.371 2.661-14.244 9.332-20.309 15.221-5.773 5.606-11.221 10.907-16.526 12.325a1.225 1.225 0 01-.319.03zm111.904 59.676a1.085 1.085 0 01-.506-.118 1.193 1.193 0 01-.573-1.588c12.934-27.144 13.983-51.701 2.823-67.367-6.554-9.192-16.604-14.026-26.917-12.909a1.2 1.2 0 01-1.31-1.051 1.194 1.194 0 011.057-1.309c11.199-1.209 22.079 3.983 29.132 13.899 11.658 16.399 10.71 41.833-2.622 69.771a1.188 1.188 0 01-.445.492 1.19 1.19 0 01-.639.18zm-58.508 20.788a1.188 1.188 0 01-.874-.401c-4.208-4.62-2.473-7.578.035-10.078 1.678-1.675 3.347-4.206 1.311-8.9a1.195 1.195 0 011.518-1.548c.288.101.527.309.667.58 1.997 4.581 1.411 8.359-1.787 11.556-2.002 1.998-2.989 3.447.039 6.797.157.17.262.381.301.609a1.186 1.186 0 01-1.175 1.385h-.035zm-11.785-38.692a1.13 1.13 0 01-.633-.187c-3.496-2.182-9.434-2.696-14.109-1.191a1.186 1.186 0 01-1.562-1.23 1.194 1.194 0 01.823-1.039c5.375-1.745 12.003-1.147 16.119 1.435a1.196 1.196 0 01.081 1.969 1.203 1.203 0 01-.719.243zm44.027 2.391a1.03 1.03 0 01-.502-.114c-4.606-2.133-10.395-1.505-13.843 0a1.197 1.197 0 01-1.382-1.934c.125-.111.271-.195.43-.247 3.932-1.701 10.53-2.421 15.804.035a1.191 1.191 0 01.66 1.341 1.197 1.197 0 01-1.167.936v-.017zm-33.622 67.957c-.289 0-.586 0-.874-.022-14.276-.781-15.975-20.042-15.997-20.238a1.211 1.211 0 01.406-.995 1.251 1.251 0 011.036-.266c.096 0 9.263 1.902 17.168 2.408 4.938.301 9.892.194 14.812-.319a1.24 1.24 0 011.036.376 1.204 1.204 0 01.28 1.064c-.044.166-4.134 17.992-17.867 17.992zm-14.28-18.86c.712 4.297 3.561 15.902 13.519 16.456 10.09.519 14.494-10.279 15.818-14.484a89.92 89.92 0 01-13.484.161 146.363 146.363 0 01-15.853-2.155v.022zm-27.839-45.533a1.166 1.166 0 01-.734-.257 1.209 1.209 0 01-.306-.354 1.203 1.203 0 01-.108-.91c.043-.152.115-.293.213-.416 3.753-4.755 8.184-7.704 12.466-10.562 5.244-3.516 10.225-6.819 13.45-13.188a1.202 1.202 0 012.145 1.082c-3.496 6.928-8.984 10.57-14.262 14.091-4.129 2.753-8.403 5.597-11.916 10.06a1.197 1.197 0 01-.948.454zm30.849-16.015a1.195 1.195 0 01-1.164-1.156 1.189 1.189 0 011.094-1.222c15.914-.903 30.12-10.034 36.202-23.261a1.2 1.2 0 011.586-.576 1.199 1.199 0 01.599 1.575c-6.445 14.021-21.463 23.698-38.247 24.64h-.07zm62.184 24.322a1.199 1.199 0 01-1.202-1.196c0-7.05-4.155-12.045-8.193-16.865-.979-1.178-1.949-2.334-2.831-3.491l-.494-.641c-3.933-5.174-8.875-11.591-8.875-18.445a1.2 1.2 0 011.2-1.127 1.197 1.197 0 011.199 1.127c0 6.034 4.636 12.111 8.377 16.988l.502.654a104.418 104.418 0 002.757 3.403c4.108 4.921 8.761 10.471 8.761 18.406a1.196 1.196 0 01-1.201 1.187z" fill="#5B3D3A"/><path d="M428.271 207.534a1.187 1.187 0 01-1.179-.991c-1.438-8.437-11.23-12.154-16.207-12.939-5.68-.899-11.824.065-17.758.994-5.217.825-10.618 1.684-15.857 1.309-5.401-.384-9.255-1.924-13.332-3.568-4.976-1.999-10.115-4.062-18.71-4.128-6.279-.052-17.15.873-19.427 7.474a1.186 1.186 0 01-.597.727 1.208 1.208 0 01-.94.07 1.194 1.194 0 01-.726-1.57c2.621-7.621 13.2-9.161 21.708-9.096 9.049.07 14.419 2.217 19.584 4.302 3.902 1.57 7.581 3.054 12.602 3.407 5.02.354 10.238-.48 15.328-1.274 6.117-.964 12.427-1.963 18.501-.999 5.567.873 16.521 5.118 18.19 14.899a1.194 1.194 0 01-.539 1.212c-.132.083-.28.14-.435.166a1.771 1.771 0 01-.206.005zm-26.313 19.662h-.712c-6.721-.231-11.213-4.759-15.176-8.751-2.337-2.352-4.553-4.577-6.724-5.279-6.293-2.02-10.57.654-15.512 3.743s-10.645 6.666-19.078 5.113c-13.388-2.46-15.787-20.303-15.874-21.058a1.199 1.199 0 012.377-.301c0 .17 2.267 16.861 13.93 19.008 7.511 1.37 12.527-1.745 17.373-4.799 4.99-3.128 10.146-6.352 17.522-4.009 2.727.872 5.139 3.311 7.69 5.88 3.653 3.678 7.783 7.853 13.546 8.041 9.818.34 16.788-7.391 21.752-14.148.093-.127.211-.235.347-.316a1.18 1.18 0 01.911-.135c.153.039.297.107.424.202a1.166 1.166 0 01.481.779 1.18 1.18 0 01-.223.888c-5.196 7.08-12.493 15.142-23.054 15.142z" fill="#5B3D3A"/><path d="M350.66 215.5a18.094 18.094 0 01-2.958-.249 14.145 14.145 0 01-10.221-7.416c-1.66-3.145-1.988-6.609-.847-9.048 2.91-6.269 13.737-5.013 16.975-4.48 7.332 1.199 12.37 3.926 13.825 7.49.573 1.361.874 3.521-.97 6.029-2.342 3.207-8.415 7.674-15.804 7.674zm-2.653-19.278c-4.116 0-7.978.929-9.211 3.564-.821 1.784-.515 4.428.804 6.928a11.735 11.735 0 008.495 6.177c7.909 1.309 14.485-3.804 16.425-6.474.961-1.309 1.189-2.535.699-3.717-1.105-2.678-5.68-4.999-11.994-6.033a32.932 32.932 0 00-5.218-.445zm54.947 23.409c-.236 0-.463 0-.695-.026-8.446-.563-12.597-4.581-15.258-8.023-2.373-3.054-2.023-5.545-1.311-7.098 1.861-4.044 8.079-6.147 13.41-6.43 8.997-.493 16.242 2.862 17.605 8.119.59 2.29-.315 5.099-2.482 7.708-2.949 3.543-7.301 5.75-11.269 5.75zm-2.185-19.235c-.502 0-1.031 0-1.555.044-5.37.284-10.142 2.404-11.361 5.039-.629 1.383-.284 2.94 1.031 4.642 2.508 3.232 6.074 6.596 13.546 7.102 3.841.271 7.786-2.264 9.953-4.855 1.648-1.994 2.395-4.084 2.006-5.598-.996-3.8-6.598-6.374-13.615-6.374h-.005zm-.803-80.368a1.332 1.332 0 01-.345-.043 1.195 1.195 0 01-.848-1.02 1.195 1.195 0 01.044-.464c.804-2.744.594-6.574-1.381-8.555a1.16 1.16 0 01-.357-.842 1.178 1.178 0 01.357-.842 1.184 1.184 0 011.301-.262c.144.061.276.15.385.262 2.762 2.762 2.967 7.596 1.993 10.907a1.19 1.19 0 01-1.149.859z" fill="#5B3D3A"/><path fill-rule="evenodd" clip-rule="evenodd" d="M317.067 115.164c1.14.14 5.545-4.729 6.117-5.964.319-.667-30.215-31.262-32.413-31.035-1.621.157-8.879 10.44-9.39 14.793 0 0 33.541 21.962 35.686 22.206z" fill="#A56403"/><path d="M317.067 116.364h-.145c-2.184-.262-26.042-15.758-36.201-22.407a1.2 1.2 0 01-.538-1.138c.538-4.468 7.865-15.584 10.487-15.837h.061c3.649 0 33.1 30.975 33.331 31.285a1.412 1.412 0 01.223 1.439c-.467 1.017-5.034 6.658-7.218 6.658zm-34.371-23.969c12.309 8.054 31.631 20.435 34.406 21.548.978-.502 3.661-3.299 4.666-4.716-3.495-4.302-27.48-27.921-30.984-29.806-1.486 1.008-7.061 8.878-8.088 12.966v.008z" fill="#5B3D3A"/><path fill-rule="evenodd" clip-rule="evenodd" d="M331.771 101.758c1.372.344 7.397-3.926 7.38-4.672-.044-1.453-18.073-39.443-20.1-42.427-1.377-1.994-14.04 7.626-14.009 9.022-.013-.004 25.724 37.824 26.729 38.077z" fill="#A56403"/><path d="M331.888 102.962a1.476 1.476 0 01-.402-.044c-.572-.148-1.451-.357-27.445-38.574a1.272 1.272 0 01-.218-.641c-.057-2.347 10.084-9.266 13.191-10.27 1.433-.436 2.438-.279 3.002.546 1.556 2.268 20.275 40.847 20.336 43.072 0 .676-.437 1.308-1.792 2.377-.048.044-4.426 3.534-6.672 3.534zm-25.479-39.368c9.434 13.86 23.399 34.094 25.807 36.929 1.311-.37 4.697-2.617 5.654-3.655-1.311-3.796-17.207-37.2-19.663-41.293-2.071.214-10.072 5.916-11.798 8.019z" fill="#5B3D3A"/><path fill-rule="evenodd" clip-rule="evenodd" d="M348.772 90.607c.826 1.902 7.381-.772 7.053-2.81-.328-2.037-5.244-30.974-6.284-33.81-1.039-2.835-14.524 2.282-13.353 5.157 0 .013 11.754 29.561 12.584 31.463z" fill="#A56403"/><path d="M350.188 92.457c-1.695 0-2.311-.899-2.526-1.379-.817-1.902-12.112-30.267-12.584-31.485-.24-.567-.336-1.496.559-2.617 2.102-2.618 9.557-5.51 12.895-4.939 1.39.232 1.927.969 2.137 1.553 1.144 3.133 6.287 33.715 6.34 34.029.349 2.181-2.692 3.887-4.807 4.51a7.413 7.413 0 01-2.014.328zm-.367-2.421c.332.083 1.363.022 2.727-.58 1.363-.603 2.036-1.31 2.093-1.532-.595-3.53-5.288-30.944-6.218-33.522-.332-.197-2.674-.166-6.257 1.265-3.273 1.309-4.776 2.687-4.855 3.141.101.196 11.413 28.553 12.51 31.228zm52.649 119.6a1.165 1.165 0 01-.437-.082c-2.766-1.096-5.755-1.122-8.866-.092a1.194 1.194 0 01-1.516-.746 1.204 1.204 0 01.76-1.518 15.004 15.004 0 0110.487.131 1.193 1.193 0 01.326 2.032 1.195 1.195 0 01-.763.275h.009zm-42.857-3.228a1.235 1.235 0 01-.677-.205c-2.098-1.418-5.986-2.268-9.351-1.147a1.197 1.197 0 01-1.45-1.669c.142-.284.389-.501.69-.604 4.295-1.431 8.953-.253 11.457 1.435a1.203 1.203 0 01.033 1.94 1.202 1.202 0 01-.702.241v.009z" fill="#5B3D3A"/></g><defs><clipPath id="a"><path fill="#fff" transform="rotate(-180 355.75 314.25)" d="M0 0h711v588H0z"/></clipPath><clipPath id="b"><path fill="#fff" transform="translate(106)" d="M0 0h530v649H0z"/></clipPath></defs></svg>