<svg viewBox="0 0 627 783" fill="none" xmlns="http://www.w3.org/2000/svg"><g clip-path="url(#a)"><path d="M595.915 534.105c-42.083-71.06 27.206-173.078 30.968-386.661.348-20.485.406-41.548-7.062-60.702-8.161-20.947-24.832-38.075-43.761-51.153C525.584.638 457.974-7.637 397.483 6.714c-60.49 14.35-114.034 49.649-156.174 93.569-24.081 25.056-45.209 53.41-74.557 72.622-26.28 17.244-58.175 26.445-81.85 46.871-39.13 33.968-46.25 89.809-45.903 140.383.29 33.505 3.068 68.34 20.492 97.389 25.527 42.531 76.235 63.653 119.186 90.387 34.557 21.526 65.41 47.913 98.347 71.58 39.073 28.065 81.155 52.195 125.38 71.985 26.396 11.805 40.462 15.856 59.911 18.228 54.412 6.481 125.612-11.11 151.313-58.792 5.094-9.374 7.177-17.533 7.756-20.484 7.236-41.143-25.469-96.347-25.469-96.347z" fill="#F90"/></g><g clip-path="url(#b)"><path fill-rule="evenodd" clip-rule="evenodd" d="M574.354 699.652s2.398 10.906 3.219 14.265c2.484 10.078 2.277 18.829 1.114 28.129-.257 2.097-2.049 13.202 0 14.572 1.791 1.191 9.722 1.94 11.971 1.376 17.646-4.408 11.614-22.523 13.156-34.855.614-4.921 4.04-21.311 4.04-21.311l-7.709-11.369s-8.245 5.884-14.506 9.457a14.17 14.17 0 01-7.623 1.791c-.85-.029-3.662-2.055-3.662-2.055zm-109.011-98.588c-.657-2.14-5.84 10.399-6.425 12.125-3.769 10.698-8.373 22.823-1.121 33.172 2.328 3.323 4.119 8.002 8.973 7.389 3.191-.393 6.996-3.438 6.996-3.438s.528-11.469 2.32-16.825c.607-1.897 6.489-15.491 6.489-15.491s-14.684-8.559-17.232-16.932zm48.205-365.798c2.969-1.904-6.874-11.212-9.166-13.28-9.273-8.388-15.333-13.38-27.362-17.382-.456-.149-6.824-6.568-8.487-6.625-2.035-.065.628 6.24.628 6.24s-10.444 1.619-9.566 5.135c.6 2.404 6.753 5.956 12.928 10.492 6.361 4.672 12.735 10.299 12.735 10.299s-1.256 4.85 7.403 6.312c7.824 1.305 14.312 3.038 20.887-1.191zm27.626-10.385c-3.341-3.331-.621-12.082 3.362-14.735 2.391-1.591 2.142 5.435 2.142 5.934.05.991 0 3.894.399 2.967 2.906-7.268 4.747-15.206 8.117-22.552.892-1.947 4.34-6.826 6.96-7.403 2.62-.578-1.071 10.769-.821 10.769 1.378 0 3.969-4.229 4.461-5.513 1.364-3.566 3.434-5.941 6.211-8.559.228-.214 5.082-3.616 5.418-2.617 1.206 3.623-2.042 6.419-2.434 9.985a12.179 12.179 0 01-1.128 3.68s6.596-10.349 12.771-8.295c1.12.378-3.441 7.19-3.57 7.418-2.441 5.292-5.254 9.75-8.337 14.707a72.903 72.903 0 00-6.882 13.658c-.664 1.697-.414 5.756-1.785 7.132-7.345 7.453-19.537-1.234-24.884-6.576z" fill="#FFDEAD"/><path fill-rule="evenodd" clip-rule="evenodd" d="M541.467 216.772c-.785.142-1.792 2.275-1.877 1.483-.114-.984 5.711-9.115 6.339-10.876 2.498-7.503 3.662-14.736 2.769-22.752-2.063-18.544-12.135-46.83-26.762-58.485-6.717-5.363-14.94-8.608-23.821-4.172-19.516 9.75-37.391 48.328-31.188 70.003 3.298 11.554 17.482 22.552 24.35 32.808 8.073 12.125 15.954 30.89 31.68 34.82 18.432 4.636 21.009-12.724 21.009-26.903 0-3.359.713-16.49-2.499-15.926zm-379.374-7.225s3.191-5.043 3.376-5.649c1.314-4.379 0-15.548 0-15.548s-5.318-.877-8.052-2.397c-5.496-3.024-10.058-6.59-9.137-13.009 1.342-9.421 11.857-6.519 11.857-6.519s8.466-14.193 12.749-21.839c9.744-17.381 33.901-30.54 53.417-22.416 6.032 2.51 6.603 10.17 7.61 15.769 3.484 19.35 4.205 32.595 2.72 47.401-.607 6.07-3.277 17.602-7.289 22.616-4.997 6.227-15.997 5.756-15.997 5.756s4.726 12.332 3.477 21.489c-.907 6.619-6.425 10.392-11.965 12.354-13.527 4.771-41.024-21.661-41.024-21.661l-1.742-16.347zM17.746 148.944s-2.813-3.33-.086-23.358c1.77-13.08 4.19-24.171 3.92-37.38-.336-16.482-8.724-28.415-15.091-43.05C5.418 42.688-.65 31.933 2.127 29.843c3.041-2.275 8.345 5.15 11.8 8.623a41.369 41.369 0 016.781 9.322s-.949-10.378-1.541-11.676c-3.57-7.724-3.648-10.698-5.975-18.815-.607-2.14-1.9-5.285 1.042-6.262 4.775-1.597 6.46 3.93 9.358 8.317 2.542 3.851 8.231 21.853 8.231 21.853s1.007-9.472.935-17.282c-.064-6.133-.278-7.446.15-10.434 0-.25 1.428-6.605 3.084-6.42 2.391.265 3.07 5.115 3.19 5.657 1.571 6.747 1.543 13.266 2.47 20.105.293 2.14 2.47 7.917 2.47 7.917a57.031 57.031 0 005.975-12.388c1.078-3.424 2.649-7.368 4.12-9.672 1.034-1.626.27-4.992 2.705-3.88 2.141.956 2.491 5.856 2.384 7.639-.428 7.51-3.855 20.156-3.855 20.156L51.64 56.482a15.504 15.504 0 007.096-3.174c3.926-3.36 8.488-7.546 11.422-3.865 2.634 3.288-2.706 8.059-4.947 10.22-7.453 7.204-15.84 17.26-18.282 27.616-3.426 14.536-.628 25.904.05 40.818.285 6.126 2.456 18.658 2.456 18.658s-20.895 6.069-25.699 4.158a59.41 59.41 0 00-5.989-1.969zm246.698 282.815s4.069-5.364 6.289-8.687c5.975-8.951 20.702-12.218 20.702-12.218s18.217 23.536 26.198 29.242c3.255 2.325 5.611 2.96 9.423 4.23 5.611 1.868 21.058-9.073 26.933-10.249 1.428-.279 4.426-.2 4.933 1.84.592 2.375-5.397 6.79-5.397 6.79s17.218-4.693 14.991-.214c-2.727 5.463-11.95 7.431-17.132 9.507a43.552 43.552 0 00-4.997 2.903s9.28-.913 16.325-1.662c5.854-.621 9.837-1.619 8.638 2.56-1.242 4.358-15.298 6.541-19.195 7.026-.336.042-10.437 1.932-10.437 1.932s8.031 3.666 8.795 3.902c2.563.763 18.474 4.664 16.461 8.687-2.013 4.022-4.569 3.951-10.087 2.817-4.597-.949-12.213-2.461-14.805-3.616-1.627-.713-11.157-3.431-12.913-1.683-1.756 1.747 3.719 7.845 6.189 13.48 2.356 5.392 1.777 10.363-2.77 12.182-2.141.855-3.212-5.613-7.238-11.162-4.198-5.77-9.78-9.779-10.558-11.497-2.049-4.501-1.428-7.318-5.661-10.606-9.373-7.325-22.343-14.635-33.315-21.939-6.168-4.044-11.372-13.565-11.372-13.565zM82.585 557.493s-8.159 5.078-7.445 12.838c.714 7.981 10.358 19.557 10.358 19.557l12.742 3.744s1.428-8.323 1.342-9.436c-.35-5.513.15-22.695.15-22.695l-17.147-4.008zm163.742 106.705s-4.283 14.222-5.232 18.145c-1.042 4.336-2.62 8.722-3.491 13.066-.314 1.576 7.281 7.203 8.045 7.774.45.328 7.274 4.158 8.809 3.566 4.419-1.762 14.577-9.222 14.577-9.222s7.088-18.173 4.897-19.806c-8.366-6.276-27.605-13.523-27.605-13.523z" fill="#FFDEAD"/><path fill-rule="evenodd" clip-rule="evenodd" d="M518.196 194.769c1.427-3.773 0-.114 8.23-3.916 1.878-.87 3.755-1.961 5.547-3.01 5.547-3.252 4.997 3.567 3.02 7.332-2.52 4.736-19.731 7.232-16.797-.406zm-308.618-10.513c-4.904 3.067 9.109 9.614 11.914 9.2 2.227-.321 9.858-7.738 6.032-10.106-1.199-.749-3.612.121-4.897.25-4.247.399-9.437-1.598-13.049.656z" fill="#F2C6C3"/><path fill-rule="evenodd" clip-rule="evenodd" d="M163.792 127.512c.621.62-4.775 7.132-4.911 7.317a44.769 44.769 0 00-3.305 5.856c-1.271 2.753-8.117 10.698-9.366 17.652-.956 5.299 3.484 10.228 3.484 10.228s3.398-1.569 4.747-1.569c2.141 0 4.997.927 7.046.093 6.274-2.561 9.215-14.222 11.6-19.621.756-1.726 7.409-10.82 6.531-12.175-1.185-1.819-11.307-5.42-13.955-6.298l-1.871-1.483zm-24.978 16.504c.036-2.974 5.568-6.633 5.797-2.853.499 8.159-5.918 13.316-5.797 2.853zm55.816-16.005s6.175 4.993 11.471 4.194c6.582-1.006 13.007-7.931 18.482-8.559 8.023-.906 7.588 9.144 7.588 9.144s4.219-1.648 5.068-2.718c3.027-3.83 5.083-8.23 3.213-13.087-2.856-7.411-9.123-2.775-14.549-3.324-3.026-.307-4.283-3.709-6.724-4.087-3.691-.577-9.73 6.419-12.257 8.488-1.956 1.626-12.292 9.949-12.292 9.949z" fill="#FFE9C4"/><path fill-rule="evenodd" clip-rule="evenodd" d="M475.222 186.189c8.609-.928-1.164-14.136.65-21.397 2.041-8.167 14.598-9.429 18.867-17.117 2.676-4.815 4.061-12.696 4.818-17.995.164-1.148-1.927-7.311-1.927-7.311s16.318 6.69 20.744 6.134c1.256-.157 11.714-2.047 14.084-6.704 2.37-4.658 1.614-7.132.714-10.071a12.339 12.339 0 00-4.933-6.419c-1.527-.913-2.855 2.097-4.997 4.194a15.71 15.71 0 01-4.882 3.038s-11.636-6.847-16.083-7.246c-6.803-.621-11.365 4.5-17.696 5.292-17.368 2.14-29.846 10.77-36.628 28.072-5.789 14.793-2.141 26.768 6.517 39.741 3.084 4.615 13.242 13.623 13.242 13.623s4.026-5.456 7.51-5.834z" fill="#F2C6C3"/><path fill-rule="evenodd" clip-rule="evenodd" d="M446.654 144.223c-1.892-.942-7.852 1.333-9.63 1.982-10.893 3.88-11.193 13.552-12.999 23.765-5.825 32.994 3.476 73.976-15.212 104.131-8.773 14.164-20.973 28.757-34.5 38.564-11.301 8.195-23.857 11.682-32.966 21.696-6.467 7.132-13.185 13.886-16.654 25.676a35.156 35.156 0 00-.385 18.544c1.242 4.95 9.151 7.132 15.29 10.655a20.75 20.75 0 017.731 8.309c2.085 4.166-5.653 14.586.714 13.466 5.154-.913 10.308-8.487 8.459-12.546-4.226-9.271-12.656-20.391-2.798-28.6 5.175-4.315 13.113-5.941 19.274-8.501 12.335-5.143 23.364-11.633 33.229-20.684 12.764-11.718 27.933-28.657 32.823-45.775 2.391-8.373 2.855-17.63 5.825-25.747 2.855-7.945 9.501-13.48 12.135-21.261 2.228-6.676 3.57-14.101 4.055-25.512.714-17.453-.286-38.828-.286-38.828s-9.472-19.257-13.641-31.746l-.464-7.588z" fill="#F2C6C3"/><path fill-rule="evenodd" clip-rule="evenodd" d="M464.386 387.468s-4.091 9.985-5.568 14.663c-3.077 9.75-6.825 22.467-13.77 30.006-7.446 8.116-15.191 14.756-20.495 24.47-1.428 2.632-5.882 6.469-3.384 8.131 5.204 3.466 9.637 2.197 14.991 4.993 5.711 2.96 12.35 9.985 17.846 14.221 2.949 2.297 12.6 7.133 17.097 6.22 5.382-1.077 9.409-9.757 10.979-14.393 2.634-7.981 13.342-19.421 21.473-33.65 5.082-8.908 8.501-19.749 10.336-28.936 1.428-7.053 1.942-13.943 2.413-21.097.107-1.533.607-5.991.607-5.991s-9.58-1.819-11.872-1.533c-4.59.57-13.67-.713-20.116-.521a90.679 90.679 0 00-20.537 3.417z" fill="#fff"/><path fill-rule="evenodd" clip-rule="evenodd" d="M516.204 385.77s-1.199 18.166-1.706 22.602c-.964 8.452-1.642 20.477.942 28.871 1.806 5.849 4.483 10.05 7.688 15.263 3.37 5.471 6.975 10.848 9.473 16.754 2.97 7.011 7.403 20.862 13.941 25.762 3.927 2.938 11.793-4.615 14.377-5.842 7.674-3.63 25.049-7.203 33.408-10.249 9.009-3.281 9.395-5.748 16.419-11.968 2.977-2.646-4.883-5.869-6.825-7.845-5.71-5.706-11.421-11.355-15.147-18.544-4.198-8.138-7.624-11.968-8.923-21.061-.429-2.975-1.714-21.625-1.714-21.625s-13.049-4.051-18.795-4.893c-4.655-.713-12.293-3.623-16.968-4.13-5.547-.599-26.17-3.095-26.17-3.095z" fill="#fff"/><path fill-rule="evenodd" clip-rule="evenodd" d="M119.605 429.327a69.87 69.87 0 001.778 14.978c1.592 7.025 5.061 15.69 6.703 19.399 7.56 17.103 16.84 34.306 27.761 49.448 8.21 11.34 23.065 40.197 23.065 40.197a28.87 28.87 0 01-.664 6.754c-.585 2.14.507 5.164 1.214 7.054.042.114 1.634 2.796.977 2.924-15.654 3.124-35.763-13.643-51.132-5.106-6.425 3.566-4.226 16.461-4.383 22.11-.115 4.144.799 14.264 2.141 18.208.671 2.026 8.766 1.691 10.558 2.34 6.96 2.532 8.095 1.633 15.084 4.279 20.216 7.624 40.832 14.079 62.104 17.617 10.294 1.711 22.843 1.519 30.696-7.396 7.388-8.388 10.265-13.865 9.073-24.25-2.477-21.489-20.074-86.343-20.074-86.343s-11.678-42.886-22.593-67.97c-2.748-6.305-6.475-26.717-6.475-26.717s-40.389.149-50.99 1.669c-10.6 1.519-34.843 10.805-34.843 10.805z" fill="#79A8C6"/><path fill-rule="evenodd" clip-rule="evenodd" d="M200.605 417.002c2.192 4.394 5.154 12.011 6.154 16.811 3.019 14.471 6.974 28.6 10.957 42.793 2.142 7.596 5.354 21.29 10.708 27.98 7.424 9.272 17.382 15.384 25.863 23.857 2.391 2.397 8.994 12.667 8.994 12.667a31.153 31.153 0 00-4.447 10.642c-.714 3.666 1.206 8.195 0 12.838-2.598 9.728-6.146 22.188-8.395 36.766-2.249 14.579-3.162 31.19-3.162 31.19a36.254 36.254 0 004.283 4.992c7.852 7.846 25.034 11.79 36.699 8.459 7.359-2.097 4.761-8.231 6.995-14.307 4.569-12.382 6.232-23.415 11.144-35.662 3.505-8.751 7.952-22.673 12.556-32.694 4.876-10.577 9.787-17.281 8.745-27.68-1.699-17.003-13.813-30.39-22.279-44.22-6.539-10.698-11.815-21.097-21.787-35.39-7.974-11.411-15.847-20.163-23.193-29.841-8.416-11.091-15.776-22.36-15.776-22.36s-4.768 1.17-6.425 1.477c-8.787 1.59-17.66 5.228-25.57 9.486-2.534 1.347-12.064 2.196-12.064 2.196z" fill="#79A8C6"/><path fill-rule="evenodd" clip-rule="evenodd" d="M103.08 554.44c-4.226 3.352-4.319 11.64-4.94 16.818-1.35 11.255-2.142 24.749 8.523 31.139 2.142 1.298 15.155 7.932 16.183 7.247 1.157-.77 4.176-4.543 4.176-4.543s-3.348-15.87-2.099-23.38c.222-1.327 2.763-11.711 5.34-16.568.971-1.826 3.848-1.74 3.848-1.74a9.24 9.24 0 00-4.997-3.945c-3.934-1.241-9.794-1.134-14.634-2.367-5.461-1.377-9.751-3.966-11.4-2.661zm143.097 78.854c-4.09-2.139-7.267 15.413-6.51 19.764 2.141 12.281 13.663 18.087 23.799 23.536 2.235 1.205 4.997 2.646 7.431 3.181 9.994 2.218 15.598-.763 17.026-5.884.885-3.16-1.578-8.195-.6-13.109.264-1.305 6.546-14.849 3.655-15.57-3.391-.841-9.409 2.768-13.392 2.432-13.57-1.119-20.087-8.466-31.409-14.35z" fill="#BACCD6"/><path fill-rule="evenodd" clip-rule="evenodd" d="M226.59 715.522c1.984-.129 7.081 10.598 8.523 12.688 7.674 11.14 11.15 27.63 20.345 37.494 5.432 5.827 15.804 5.563 23.192 4.729 1.178-.129 11.365-6.255 12.014-3.167 1.963 9.272-7.852 8.923-11.714 9.786-3.312.713-10.115.356-13.563.057-23.121-1.997-23.949-30.362-37.327-44.705-2.384-2.575-8.659-16.412-1.47-16.882zM56.194 546.538c-4.233-1.562-7.752-1.427-10.3 4.036-2.999 6.42-3.706 14.03-6.19 20.684-4.383 11.782-11.828 21.996-15.348 34.306-1.327 4.643-4.647 16.789 1.578 20.52a3.733 3.733 0 003.905-.143s.057-12.225.507-13.787c1.285-4.407 3.94-11.768 5.71-16.012a94.461 94.461 0 015.518-11.568c1.806-3.053 3.905-6.205 5.383-9.415 3.39-7.36 1.313-15.691 4.447-23.001.578-1.291 6.432-5.014 4.79-5.62zm53.31-212.969c2.47 7.261 1.692 13.609 2.305 20.991 1.271 15.205-.221 29.798-.221 44.997 0 3.231 1.685 7.767 2.77 13.701 1.049 5.706 0 14.264 3.148 16.14.15.093 15.505-6.419 16.583-6.569 11.378-1.626 16.575-4.336 28.882-4.6 11.892-.257 29.846 1.897 41.539-1.334 6.346-1.747 13.97-5.706 20.101-7.474 5.604-1.605 19.538-5.656 19.538-5.656s-5.846-13.202-6.703-16.041c-2.627-8.758-6.132-11.704-6.132-11.704s0-35.361.222-45.967c.542-28.857 1.734-58.769-9.637-87.163-1.035-2.596-7.032-9.022-7.032-9.022a10.152 10.152 0 01-4.568 5.706c-4.997 2.767-13.449 3.958-16.904 3.095-8.516-2.14-13.856-7.296-21.494-11.112-.928-.464-7.617-6.626-7.617-6.626s-.035 23.387-.371 28.037c-1.049 14.657-5.461 30.298-15.126 41.559-8.909 10.364-19.931 20.349-30.275 28.964-3.183 2.675-10.393 6.027-9.008 10.078z" fill="#fff"/><path fill-rule="evenodd" clip-rule="evenodd" d="M166.69 196.41a10.072 10.072 0 00-5.604 2.232c-3.184 2.553-11.421 10.698-11.421 10.698a79.46 79.46 0 00-12.85.3c-14.919 1.983-34.892-5.449-48.12-11.262-8.01-3.523-24.27-4.572-28.618-13.316-2.634-5.271-4.283-15.277-4.283-15.277s1.142-17.474-1.57-21.539c-1.992-2.996-9.01 1.276-17.847 2.182-11.264 1.12-22.086-2.91-24.45 1.12-2.048 3.502-2.79 12.296-1.534 17.338 1.135 4.579 4.197 5.592 4.197 5.592s-1.392 17.331 1.707 26.625c2.063 6.19 7.723 6.155 12.977 11.832 11.522 12.467 26.598 25.583 38.191 32.537 5.81 3.481 28.418 18.102 29.982 18.758.6.257-.657 4.151-3.948 5.57-5.31 2.297-14.077 2.518-15.076 3.238-4.962 3.566-9.859 12.075-17.482 16.404-6.632 3.752-11.065 2.732-17.375 5.706-4.69 2.204-8.181 9.493-10.444 12.874-3.969 5.955-1.3 18.758.171 25.348 4.683 21.054 3.926 47.158 15.234 65.238 3.198 5.107 9.83 8.916 9.83 8.916l1.57-15.285s10.822-12.124 14.926-13.116c3.334-.827 13.2-3.972 21.908-4.194 7.703-.199 16.64 1.798 16.64 1.798s-2.077-15.77-2.42-28.686c-.171-6.419-1.106-15.149-1.106-15.149s15.512-9.6 19.588-12.317c8.402-5.592 15.869-11.262 20.915-19.914 4.184-7.132 9.859-20.077 11.979-33.343 4.19-26.225.314-56.494.314-56.494l4.019-14.414zm45.993 17.188s-2.391 7.689-.678 14.143c1.785 6.762 8.295 11.64 11.222 21.397 5.068 16.846 7.852 45.468 7.852 59.59 0 21.397.136 67.343.136 67.343a15.487 15.487 0 013.276 4.222c1.428 3.01 1.471 12.289 1.471 12.289s10.45 13.373 12.435 17.83c2.084 4.686 17.346 22.346 17.346 22.346s5.989-11.155 9.644-13.759c1.571-1.126 20.381-10.192 20.638-11.468.278-1.427-4.769-3.281-6.632-7.054-1.728-3.516-2.142-10.384-3.412-11.24-2.734-1.812-9.33-.371-9.33-.371s-1.342-6.491-2.563-11.982c-.614-2.775-7.203-12.96-7.203-12.96s-2.013-37.544-4.754-56.729c-2.141-15.214-2.22-38.443-8.395-52.843-3.112-7.247-17.603-14.614-17.603-14.614s17.518-5.328 13.877-10.777c-1.428-2.09-8.759.378-11.464-.97-4.283-2.14-15.883-16.404-15.883-16.404l-9.98 2.011z" fill="#fff"/><path fill-rule="evenodd" clip-rule="evenodd" d="M144.868 161.533l-4.669-7.589s6.81-11.283 4.69-14.464c-1.342-2.011-6.803 3.773-6.803 3.773s-.571-11.697 2.641-19.493c2.77-6.725 7.853-14.92 11.022-17.73 8.923-7.924 25.956-14.7 39.098-14.55a37.14 37.14 0 0120.701 6.911s19.224.328 25.948 1.427c10.908 1.811 15.341 5.499 14.534 11.411a42.755 42.755 0 01-5.982 16.461c-.828 1.384-11.785 11.776-14.055 10.256-.157-.099-.45-5.035-.45-5.035s5.304-1.804 7.031-4.693c2.142-3.609 2.956-9.272 1.921-11.119-2.063-3.602-11.886-2.14-15.355-3.466-2.784-1.049-3.855-5.913-7.01-5.913-4.547 0-8.438 6.74-11.772 9.272-7.224 5.413-15.626 16.525-24.784 18.052-6.197 1.034-16.89-7.632-16.89-7.632l-10.372 13.316-9.444 20.805z" fill="#79A8C6"/><path fill-rule="evenodd" clip-rule="evenodd" d="M82.913 556.894s-23.385-14.885-28.646-10.698c-5.84 4.671-4.376 12.174-5.511 18.936-2.856 17.274-23.129 42.971-19.495 61.123.8 3.973 7.424 2.361 10.75-.136 4.883-3.651 8.902-5.313 12.471-10.484 3.02-4.379 5.568-12.303 9.587-15.313 2.805-2.14 7.617-5.841 12.85-8.266a26.417 26.417 0 0111.15-2.204s-.372-3.723-1.214-5.706c-1.37-3.202-5.454-6.376-5.71-8.116-.572-3.417-1.171-6.334-.136-10.114a46.707 46.707 0 013.904-9.022zm154.598 137.331s-6.604 7.917-9.437 16.297c-1.107 3.274-1.086 5.492-.472 7.354 2.449 7.332 10.351 11.853 13.728 19.57 3.376 7.718 8.33 24.664 14.277 30.626 4.454 4.458 16.839 5.364 25.948 3.823 4.283-.713 7.038-1.355 8.944-4.529 2.327-3.887-1.149-8.188-4.997-14.264-3.712-5.87-7.752-13.552-9.172-17.417-1.835-5.043-4.74-18.209-5.711-26.796-.871-7.945.392-11.497-5.368-12.46-5.761-.963-11.115 7.845-17.468 7.845-5.468-.05-10.272-10.049-10.272-10.049z" fill="#FFD35A"/><path fill-rule="evenodd" clip-rule="evenodd" d="M452.343 481.884s.756 16.718 1.135 21.283c.614 7.396.264 17.117 1.185 24.506 3.212 25.676 7.352 43.55 10.75 69.012 2.228 16.653 19.574 32.687 34.179 16.475 2.613-2.91 8.995-5.071 10.38-8.765l4.283-11.412s4.597 21.675 7.852 26.639c5.404 8.252 9.765 10.82 14.363 17.831 5.903 9.022 11.999 22.423 19.024 32.951 3.904 5.848 11.3 26.553 11.3 26.553s12.421 6.419 20.701 2.703c7.517-3.381 11.822-5.142 12.35-10.306.956-9.222-8.795-25.341-12.671-35.333-6.046-15.584-5.546-14.479-9.53-22.267-5.439-10.648-12.085-18.979-11-29.242 3.405-32.352 14.277-56.923 18.032-89.389.128-1.126 9.18-33.421 4.997-34.113-2.899-.485-8.874 3.723-11.258 4.814-6.924 3.174-14.527 5.071-21.708 7.639-4.404 1.569-9.28 4.393-13.27.399-4.997-5.035-8.452-17.738-12.75-27.166-4.283-9.315-9.408-15.349-12.378-21.789-.421-.913-5.354-17.51-5.354-17.51s-24.135 35.169-29.453 45.796c-3.419 6.833-4.033 15.299-11.478 19.015-4.562 2.282-6.903-.878-10.958-1.89-2.763-.699-8.723-6.434-8.723-6.434z" fill="#8FBAEF"/><path fill-rule="evenodd" clip-rule="evenodd" d="M462.837 590.123s-8.481 1.426-11.022 3.566c-4.747 4.073-6.018 16.975-6.018 22.994 0 7.482-3.326 25.555-2.634 37.687.714 11.818 7.189 17.253 19.017 17.253 2.627 0 7.852-2.76 9.894-7.931 2.291-5.777 1.271-14.043 1.271-14.043s-4.233 4.015-8.609 2.303c-4.669-1.833-8.295-7.603-8.945-12.774-1.178-9.414 8.445-39.077 8.445-39.077l-1.399-9.978zm142.898 115.229c-8.388 10.997 2.191 33.963-6.817 45.646-1.721 2.232-5.882 5.592-9.23 6.233-5.354 1.02-12.072-3.637-12.072-3.637s-.221 2.953-.428 4.158c-.714 4.151-1.635 13.145.229 18.28 1.941 5.335 8.858 8.052 15.483 5.57 5.775-2.139 10.351-6.305 14.155-11.19 2.613-3.359 2.856-17.61 4.74-26.197 2.777-12.624 6.425-20.633 3.991-26.232-1.778-4.13-7.024-16.597-10.051-12.631z" fill="#fff"/><path fill-rule="evenodd" clip-rule="evenodd" d="M482.21 237.398s-21.486 5.749-30.459 14.714c-8.852 8.844-10.708 23.622-14.349 40.04-4.226 19.215-10.201 37.937-10.201 37.937s-5.468 13.38-6.117 22.274c-.514 7.004 2.855 11.625 5.239 15.206 7.06 10.584 24.921-.828 31.595-6.17 1.021-.813 8.052-7.039 8.052-7.039.45 3.664.486 7.368.108 11.041-.8 6.59-6.118 16.318-3.505 21.539 1.506 3.01 6.981-.549 13.334-1.369 6.004-.778 18.66-1.577 21.03-1.427 14.427 1.027 29.268 1.469 43.545 4.144 11.2 2.104 26.412 11.754 38.012 9.436 4.954-.992 2.142-12.025 2.891-15.691 1.392-6.94 6.296-34.235 6.296-34.235s9.145 7.846 10.194 8.93c4.226 4.222 15.426 8.994 21.53 2.895 6.367-6.362 8.095-11.917 6.039-20.12-5.247-20.975-16.069-49.212-22.936-69.831-2.599-7.782-4.997-23.045-13.67-26.511-4.783-1.911-16.761-6.29-16.761-6.29s.107-6.548-1.735-7.775c-.714-.485-4.098 2.611-8.009 3.467-4.64 1.012-9.994-.15-11.915-.471-4.361-.713-10.572-6.291-10.572-6.291a12.734 12.734 0 00-1.956 9.565c1.357 6.554 3.969 15.341 3.969 15.341s-5.71 2.561-8.052 3.145c-7.624 1.905-14.726-1.383-14.726-1.383s2.191-12.767.199-17.745c-.913-2.29-4.404-2.753-6.424-2.411-5.582.927-5.247 3.566-14.006 3.409-2.812-.043-14.327-2.853-14.327-2.853l-2.313 4.529z" fill="#FFD35A"/><path d="M522.136 221.657c-10.437 0-21.287-4.072-25.87-10.256a1.239 1.239 0 01.257-1.733 1.253 1.253 0 011.734.257c4.448 5.998 17.947 11.04 30.218 8.672 6.853-1.312 15.704-5.392 18.831-17.352 2.141-8.202.335-21.846-2.277-31.047a1.24 1.24 0 01.874-1.454 1.245 1.245 0 011.51.777c2.705 9.514 4.569 23.7 2.291 32.359-2.712 10.298-10.086 17.117-20.758 19.157a36.44 36.44 0 01-6.81.62zm15.969-69.083a1.252 1.252 0 01-1.128-.713l-1.428-3.174c-3.248-7.232-5.818-12.945-11.564-18.544a1.239 1.239 0 01.867-2.105c.324-.006.638.115.874.337 6.075 5.948 8.731 11.846 12.093 19.314l1.428 3.159a1.239 1.239 0 01-.534 1.602c-.182.1-.387.152-.594.153l-.014-.029zm-14.841 25.712a1.261 1.261 0 01-1.038-.608 1.222 1.222 0 01-.136-.939c.041-.157.112-.305.21-.435.714-.999 1.057-1.826.428-3.124-.221-.471-.999-.849-1.827-1.256-1.221-.592-2.606-1.269-3.348-2.71a8.043 8.043 0 01-1.064-4.343 1.373 1.373 0 011.243-1.363 1.15 1.15 0 01.857.285 1.137 1.137 0 01.377.821v.285a5.745 5.745 0 00.786 3.174c.371.713 1.277 1.155 2.241 1.626 1.114.542 2.377 1.163 2.977 2.411a5.084 5.084 0 01-.714 5.706 1.227 1.227 0 01-.992.47zm-30.774-14.007a1.238 1.238 0 01-1.111-.672 1.23 1.23 0 01-.074-.948c1.428-4.436 5.126-6.24 8.167-7.331a1.243 1.243 0 11.835 2.339c-3.777 1.341-5.761 3.067-6.639 5.756a1.237 1.237 0 01-1.178.856zm28.326-16.169a1.244 1.244 0 01-1.191-.919 1.236 1.236 0 01.57-1.392c1.699-.984 6.196-1.826 7.559-1.548a1.233 1.233 0 01.964 1.462 1.21 1.21 0 01-.175.444c-.088.134-.202.25-.335.34a1.197 1.197 0 01-.918.179 16.44 16.44 0 00-5.825 1.27 1.21 1.21 0 01-.649.164z" fill="#331C19"/><path d="M526.776 201.088c-6.475 0-11.107-5.099-11.343-5.363a1.238 1.238 0 01-.04-1.602c.121-.151.277-.272.454-.353.093-.035 9.08-4.115 10.772-4.992 2.02-1.006 8.38-4.993 8.445-4.993a1.23 1.23 0 011.535.176c.131.132.23.291.292.466 1.471 4.208 2.142 12.945-5.761 15.848a12.554 12.554 0 01-4.354.813zm-8.224-5.82c2.092 1.755 6.546 4.615 11.722 2.703 5.889-2.139 5.325-8.294 4.69-11.183-2.042 1.255-5.711 3.481-7.239 4.279-1.285.607-6.453 2.967-9.173 4.201zm-36.827 10.121a13.72 13.72 0 01-6.425-1.99c-3.434-1.883-7.931-7.631-7.188-12.36.335-2.14 1.856-4.9 7.217-5.941a1.226 1.226 0 01.919.194 1.225 1.225 0 01.508.79 1.244 1.244 0 01-.978 1.426c-3.162.614-4.932 1.919-5.239 3.888-.536 3.437 3.24 8.316 5.96 9.799 4.398 2.418 7.024 2.29 8.766-.428a1.253 1.253 0 011.713-.371 1.245 1.245 0 01.543.779c.034.159.037.324.008.484-.03.16-.091.313-.179.449a6.427 6.427 0 01-5.625 3.281z" fill="#331C19"/><path d="M478.941 195.768a1.437 1.437 0 01-.386-.058 3.694 3.694 0 00-1.72-.221 1.233 1.233 0 01-.924-.225 1.251 1.251 0 01-.493-.812 1.233 1.233 0 01.226-.923 1.236 1.236 0 01.812-.493 6.258 6.258 0 012.856.314 1.242 1.242 0 01.832 1.372 1.241 1.241 0 01-1.218 1.046h.015zm4.897-39.599a1.241 1.241 0 01-.456-2.389c9.015-3.609 14.184-11.754 14.184-22.353 0-3.33-1.257-9.985-4.705-14.549a1.24 1.24 0 011.171-1.944c.32.04.612.202.814.453 4.119 5.477 5.204 12.888 5.204 16.04 0 11.662-5.711 20.648-15.748 24.656a1.29 1.29 0 01-.464.086z" fill="#331C19"/><path d="M468.533 153.58a1.238 1.238 0 01-1.224-1.042 1.243 1.243 0 01.832-1.375c10.707-3.567 21.551-12.803 21.551-25.363a1.231 1.231 0 01.327-.937 1.243 1.243 0 012.15.937c0 13.801-11.672 23.865-23.25 27.716a1.202 1.202 0 01-.386.064zm10.694 27.994a1.245 1.245 0 01-.956-.442 20.893 20.893 0 01-4.676-13.387 1.242 1.242 0 012.484 0 18.39 18.39 0 004.098 11.797 1.228 1.228 0 01.177 1.32 1.231 1.231 0 01-1.127.712zm40.468-51.815c-4.026 0-8.409-1.491-12.6-4.401a1.247 1.247 0 01-.314-1.726 1.245 1.245 0 01.8-.513 1.238 1.238 0 01.928.206c6.06 4.201 12.428 5.121 17.061 2.454 3.805-2.19 5.825-6.519 5.404-11.583a1.225 1.225 0 01.289-.905 1.25 1.25 0 01.846-.436 1.218 1.218 0 01.911.28 1.208 1.208 0 01.423.854c.507 6.041-1.977 11.255-6.631 13.937a14.08 14.08 0 01-7.117 1.833zm-1.757-16.012a1.215 1.215 0 01-.835-.328c-4.783-4.387-14.405-10.699-25.163-3.695a1.248 1.248 0 01-1.381-.017 1.231 1.231 0 01-.519-.797 1.239 1.239 0 01.544-1.268c12.613-8.224 23.921 0 28.197 3.951a1.237 1.237 0 01.299 1.353 1.245 1.245 0 01-1.142.787v.014z" fill="#331C19"/><path d="M512.313 116.243a1.241 1.241 0 01-.05-2.475c9.116-.378 11.771-5.434 12.492-7.588a1.232 1.232 0 011.089-.85c.164-.01.327.012.482.065a1.241 1.241 0 01.785 1.569c-1.842 5.506-7.352 8.972-14.748 9.272l-.05.007zm-66.066 39.134a1.237 1.237 0 01-1.235-1.105c-1.371-12.688 5.768-30.704 20.095-38.878 1.77-1.013 10.936-5.991 17.175-4.75a1.241 1.241 0 01-.486 2.432c-4.454-.891-11.814 2.39-15.461 4.465-13.264 7.574-20.109 24.827-18.853 36.467a1.24 1.24 0 01-.266.91 1.247 1.247 0 01-.833.452l-.136.007zm22.386 37.901a1.228 1.228 0 01-.585-.142c-7.196-3.83-20.902-22.824-20.902-30.748a1.24 1.24 0 011.243-1.241 1.242 1.242 0 011.242 1.241c0 6.933 13.184 25.149 19.588 28.529a1.243 1.243 0 01.506 1.676 1.224 1.224 0 01-1.092.685zm91.08 31.532a1.255 1.255 0 01-.879-.364 1.25 1.25 0 01-.363-.877c0-4.522 5.753-12.125 8.837-16.176l.6-.799c1.285-1.712 2.441-4.729 2.034-5.292.043.085-.956 0-4.397 3.102-4.647 4.059-8.516 9.358-12.257 14.486a339.034 339.034 0 01-2.705 3.659 1.255 1.255 0 01-.824.547 1.245 1.245 0 01-1.454-1.087 1.236 1.236 0 01.293-.944 322.66 322.66 0 002.684-3.637c3.819-5.235 7.774-10.649 12.435-14.728 3.213-2.853 5.147-3.902 6.639-3.766a2.19 2.19 0 011.585.906c1.949 2.674-2.006 8.187-2.042 8.245l-.607.805c-2.484 3.281-8.337 10.991-8.337 14.693a1.241 1.241 0 01-1.242 1.227z" fill="#331C19"/><path d="M564.724 232.506a1.245 1.245 0 01-1.09-.642 1.23 1.23 0 01-.102-.942c2.477-8.501 5.56-14.457 10.379-22.48 2.077-3.46 6.582-10.349 8.98-13.915.3-.45.578-.842.835-1.206a11.723 11.723 0 001.978-3.723 7.5 7.5 0 00-2.485.663c-3.64 1.94-8.08 6.769-10.593 10.535a1.243 1.243 0 11-2.07-1.37c2.605-3.901 7.31-9.122 11.493-11.354.043 0 3.755-1.805 5.468-.392a2.258 2.258 0 01.571 2.603 14.065 14.065 0 01-2.334 4.465l-.8 1.162c-2.477 3.688-6.953 10.534-8.916 13.808-4.711 7.846-7.724 13.658-10.122 21.896a1.251 1.251 0 01-1.192.892z" fill="#331C19"/><path d="M559.142 209.754a1.188 1.188 0 01-.557-.136 1.241 1.241 0 01-.625-.715 1.238 1.238 0 01.069-.946l.899-1.798c3.248-6.526 6.318-12.688 10.551-18.594.05-.078 5.389-7.274 8.487-5.748 1.892.949 1.242 3.837.471 6.248a54.07 54.07 0 01-1.242 3.423 86.55 86.55 0 01-3.105 6.861 1.228 1.228 0 01-.715.689 1.239 1.239 0 01-1.665-1.323c.022-.169.079-.332.167-.478a94.808 94.808 0 003.013-6.669 45.655 45.655 0 001.177-3.266 9.549 9.549 0 00.65-3.167c-1.021.364-3.455 2.396-5.218 4.864-4.112 5.756-7.139 11.832-10.351 18.266l-.899 1.804a1.241 1.241 0 01-1.107.685z" fill="#331C19"/><path d="M546.4 219.781a1.053 1.053 0 01-.393-.064 1.241 1.241 0 01-.785-1.569c1.977-5.927 8.302-19.97 10.443-24.071 1.842-3.566 4.997-6.512 7.025-6.626a1.903 1.903 0 011.77.842c.949 1.426.207 4.536-.043 5.456-.393 1.426-1.021 3.145-1.699 4.992-1.285 3.517-2.748 7.496-2.748 10.114a1.242 1.242 0 01-2.484 0c0-3.053 1.549-7.254 2.905-10.97.657-1.775 1.271-3.444 1.635-4.771.274-.992.415-2.016.421-3.045-.971.47-3.07 2.275-4.576 5.17-2.141 4.059-8.345 17.888-10.294 23.722a1.243 1.243 0 01-1.177.82z" fill="#331C19"/><path d="M547.213 216.522a1.25 1.25 0 01-.878-.363 1.233 1.233 0 01-.364-.878 20.603 20.603 0 00-1.156-6.704 1.248 1.248 0 011.266-1.632 1.233 1.233 0 011.089.847 22.987 22.987 0 011.285 7.489 1.242 1.242 0 01-1.242 1.241zm-5.968 10.549a1.241 1.241 0 01-.878-.357c-2.42-2.425-2.141-6.897-1.563-10.962a1.226 1.226 0 011.428-1.049 1.26 1.26 0 01.824.494 1.235 1.235 0 01.225.933c-.271 1.911-1.007 6.982.864 8.851a1.239 1.239 0 010 1.754 1.227 1.227 0 01-.9.336z" fill="#331C19"/><path d="M557.628 234.56c-1.754-.007-3.5-.22-5.204-.635-5.604-1.334-10.736-4.636-12.742-8.202a1.241 1.241 0 012.141-1.22c1.678 2.953 6.268 5.827 11.172 6.997 4.719 1.12 9.08.564 12.285-1.569a1.256 1.256 0 011.382.003c.136.09.252.207.342.343a1.224 1.224 0 01.184.933 1.231 1.231 0 01-.53.789 16.2 16.2 0 01-9.03 2.561zm-44.222-1.134a1.27 1.27 0 01-.999-.499c-7.339-9.907-17.847-17.745-25.171-22.781-2.391-1.647-5.868-3.466-7.138-3.566-.164 1.698.564 2.482 2.02 3.866.849.806 1.927 1.747 3.098 2.774 3.619 3.181 8.124 7.132 9.994 10.513a1.24 1.24 0 01-1.446 1.782 1.242 1.242 0 01-.738-.598c-1.628-2.995-5.947-6.79-9.416-9.835-1.199-1.049-2.306-2.012-3.177-2.853-1.584-1.505-3.219-3.053-2.727-6.341a2.008 2.008 0 011.207-1.562c2.484-1.077 8.566 2.989 9.737 3.809 7.438 5.107 18.196 13.109 25.755 23.294a1.254 1.254 0 01-.257 1.74 1.314 1.314 0 01-.742.257z" fill="#331C19"/><path d="M492.433 230.159a1.24 1.24 0 01-.949-.449c-3.762-4.522-8.481-8.488-13.049-12.325l-2.413-2.032a48.51 48.51 0 00-6.518-4.201l-.421-.221c-2.905-1.577-5.653-3.067-4.518-6.134 1.213-3.274 7.138-2.568 7.773-2.489a21.959 21.959 0 016.96 2.253 1.247 1.247 0 01.792 1.263 1.24 1.24 0 01-1.52 1.104 1.235 1.235 0 01-.478-.227 19.772 19.772 0 00-6.089-1.961c-1.899-.257-4.769-.05-5.111.884-.343.934.414 1.491 3.376 3.096l.421.228a50.607 50.607 0 016.939 4.486l2.399 2.018c4.654 3.916 9.458 7.953 13.363 12.646a1.233 1.233 0 01-.164 1.74 1.187 1.187 0 01-.793.321z" fill="#331C19"/><path d="M487.572 234.688a1.236 1.236 0 01-1.092-.649c-3.969-7.325-14.156-13.865-19.631-17.381a944.04 944.04 0 00-1.963-1.213c-2.249-1.362-4.183-2.539-6.061-4.8-1.513-1.818-1.006-3.209-.564-3.88 1.357-2.047 5.504-2.382 6.632-2.054a1.239 1.239 0 01.739.601 1.242 1.242 0 01.096.947 1.232 1.232 0 01-.593.738 1.226 1.226 0 01-.942.096c-.714-.164-3.376.257-3.869 1.056-.143.228.314.799.407.913 1.613 1.94 3.305 2.967 5.44 4.279a83.38 83.38 0 012.013 1.248c8.416 5.4 16.725 11.355 20.48 18.288a1.233 1.233 0 01-.487 1.648 1.249 1.249 0 01-.605.163zm-17.425-30.312a1.142 1.142 0 01-.564-.136c-1.428-.713-4.954-4.322-4.026-6.647.564-1.426 2.141-1.719 4.775-.941a1.242 1.242 0 01.883 1.559 1.248 1.248 0 01-.624.748 1.234 1.234 0 01-.972.068c-.9-.264-1.521-.207-1.699-.314a7.959 7.959 0 002.784 3.323 1.237 1.237 0 01.652 1.395 1.237 1.237 0 01-1.216.945h.007z" fill="#331C19"/><path d="M503.334 236.863a76.305 76.305 0 01-10.522-.906l-1.036-.128c-3.64-.407-7.002-.92-8.137-2.746a1.252 1.252 0 011.366-1.871c.323.079.602.282.775.566.593.948 4.897 1.426 6.311 1.59l1.099.136c5.711.792 17.646 2.453 21.951-2.732.215-.231.511-.372.827-.392a1.238 1.238 0 011.314 1.082c.04.314-.042.631-.228.886-2.991 3.567-8.438 4.515-13.72 4.515z" fill="#331C19"/><path d="M435.296 372.176c-3.298 0-6.931-.713-9.223-2.974-9.158-9.158-6.539-21.254-3.769-29.549 3.227-9.671 12.493-18.544 21.458-27.167 3.134-3.002 6.375-6.112 9.28-9.179 11.379-12.039 17.804-21.397 25.699-34.506 1.706-2.853 2.456-8.673 3.062-13.351.25-1.976.486-3.766.75-5.107.507-2.518.15-4.993-.221-7.646-.579-4.037-1.171-8.202 1.563-12.31a1.246 1.246 0 011.724-.346 1.246 1.246 0 01.346 1.723c-2.213 3.316-1.713 6.846-1.178 10.584.386 2.731.793 5.549.207 8.48-.264 1.298-.485 3.024-.714 4.935-.628 4.907-1.427 11.027-3.39 14.315-7.953 13.237-14.449 22.723-25.984 34.948-2.934 3.109-6.197 6.233-9.352 9.272-8.823 8.366-17.867 17.053-20.894 26.132-2.763 8.331-4.904 18.922 3.177 27.01 2.798 2.803 9.187 2.503 12.556 1.662 11.243-2.81 22.536-12.924 28.79-20.734 14.712-18.372 25.163-35.875 36.077-60.417 3.827-8.558 10.936-24.592 12.486-35.39a135.615 135.615 0 00.985-18.843 1.24 1.24 0 012.083-.816c.229.212.37.504.394.816 0 5.884-.072 12.695-1.007 19.2-1.592 11.133-8.802 27.338-12.671 36.039-11.007 24.749-21.558 42.408-36.406 60.959-6.81 8.466-18.296 18.637-30.131 21.589a24.95 24.95 0 01-5.697.671zm177.049-8.901c-9.994 0-21.708-10.983-25.798-15.755-10.658-12.417-14.706-19.507-23.086-37.416l-2.72-5.784c-7.338-15.498-16.475-34.784-18.453-47.657a61.413 61.413 0 00-2.52-9.101c-2.569-7.796-5.489-16.64-.949-23.43a1.241 1.241 0 011.72-.342 1.234 1.234 0 01.53.784 1.246 1.246 0 01-.187.928c-3.862 5.791-1.271 13.672 1.242 21.29a62.973 62.973 0 012.62 9.5c1.92 12.51 11.35 32.43 18.239 46.973l2.727 5.784c8.273 17.673 12.256 24.656 22.721 36.859 5.968 6.961 18.503 17.075 26.712 14.486 4.105-1.284 6.896-3.787 8.288-7.446 3.17-8.309-1.206-21.789-6.61-30.797-5.497-9.137-12.507-17.581-19.274-25.748-9.437-11.361-19.202-23.115-25.184-37.087-2.428-5.649-2.185-12.332-1.964-18.23.15-3.994.286-7.774-.613-9.736a1.238 1.238 0 01.632-1.596 1.24 1.24 0 011.623.562c1.142 2.496 1 6.376.836 10.862-.207 5.635-.443 12.018 1.763 17.161 5.839 13.629 15.49 25.241 24.82 36.467 6.839 8.237 13.92 16.753 19.502 26.054 4.405 7.332 10.787 22.516 6.811 32.958-1.678 4.4-4.997 7.403-9.866 8.929a11.878 11.878 0 01-3.562.528z" fill="#331C19"/><path d="M423.554 341.137a1.11 1.11 0 01-.478-.1 1.245 1.245 0 01-.673-.67 1.224 1.224 0 01.002-.949c5.996-14.343 12.913-40.483 16.418-57.771 3.07-15.342 7.274-36.375 35.614-42.53a1.243 1.243 0 011.474.945 1.227 1.227 0 01-.168.932 1.22 1.22 0 01-.778.541c-26.755 5.834-30.774 25.926-33.708 40.597-3.526 17.402-10.507 43.749-16.561 58.242a1.238 1.238 0 01-1.142.763zm198.778-8.923a1.244 1.244 0 01-1.164-.806l-2.441-6.469c-4.062-10.698-8.266-21.817-11.422-32.38-1.135-3.773-2.434-8.559-3.783-13.551-2.72-10.043-5.804-21.433-8.024-25.997-5.439-11.184-10.35-12.032-15.098-12.838-.92-.157-1.82-.314-2.698-.535a1.246 1.246 0 01-.765-.561 1.227 1.227 0 01-.141-.937 1.257 1.257 0 011.506-.906c.821.207 1.663.35 2.52.499 5.118.885 10.914 1.876 16.904 14.208 2.327 4.771 5.303 15.783 8.187 26.432 1.342 4.992 2.634 9.75 3.769 13.508 3.141 10.47 7.332 21.525 11.379 32.209l2.449 6.477a1.243 1.243 0 01-.714 1.597 1.302 1.302 0 01-.464.05zm-92.08-76.714a35.087 35.087 0 01-10.75-1.926 1.238 1.238 0 01-.702-1.543 1.238 1.238 0 011.494-.803c4.997 1.676 14.277 3.687 19.616-1.669a1.248 1.248 0 011.76.003 1.242 1.242 0 01-.004 1.758c-3.169 3.16-7.338 4.18-11.414 4.18zm47.542 143.258c-2.298 0-6.595-.934-15.105-3.894l-.578-.2c-15.612-4.8-31.073-6.291-47.435-7.845l-6.217-.614a155.952 155.952 0 00-34.087.2 23.93 23.93 0 00-2.934.849c-4.64 1.512-8.059 2.453-9.686.834-1.792-1.79-1.128-5.313-.714-7.639l.135-.756a26.818 26.818 0 011.878-5.777 23.756 23.756 0 001.784-5.577c.225-2.099.273-4.213.143-6.319-.093-2.818-.185-5.706.486-8.431a1.239 1.239 0 011.506-.905 1.238 1.238 0 01.906 1.505c-.592 2.367-.514 4.992-.421 7.745a38.775 38.775 0 01-.164 6.754 25.836 25.836 0 01-1.942 6.163 24.554 24.554 0 00-1.727 5.249l-.15.806c-.25 1.369-.85 4.565 0 5.428.792.634 5.425-.871 7.138-1.427a22.508 22.508 0 013.398-.949 158.35 158.35 0 0134.643-.206l6.211.606c16.49 1.598 32.066 3.102 47.927 7.974l.657.228c12.642 4.336 14.784 3.787 15.112 3.623 2.242-2.254 1.963-5.549 1.664-9.036a25.284 25.284 0 01-.058-5.642c.472-3.309 1.207-6.547 1.914-9.686 1.206-5.327 2.341-10.356 2.341-15.74a1.24 1.24 0 012.12-.878c.233.233.364.548.364.878 0 5.663-1.221 11.062-2.406 16.282-.713 3.089-1.427 6.291-1.877 9.493a23.066 23.066 0 00.079 5.086c.314 3.716.671 7.924-2.463 11.062-.428.435-1.085.756-2.442.756z" fill="#331C19"/><path d="M468.754 491.363c-7.709 0-14.783-6.277-21.087-11.868a83.508 83.508 0 00-6.696-5.571 55.817 55.817 0 00-13.712-6.946 8.313 8.313 0 00-1.892 0c-1.906.092-4.069.199-5.054-1.277-1.285-1.919.599-5.435 2.819-8.951l.207-.321c5.697-9.158 12.835-16.739 19.082-22.98 7.723-7.717 10.457-16.547 13.356-25.897 1.67-5.385 3.39-10.955 6.146-16.454a1.24 1.24 0 012.328.13 1.247 1.247 0 01-.108.975c-2.663 5.321-4.362 10.791-5.996 16.076-2.991 9.657-5.818 18.772-13.963 26.917-6.132 6.134-13.149 13.594-18.717 22.538l-.214.336c-3.041 4.807-2.949 6.012-2.856 6.269.314.278 2.042.199 2.856.157a8.34 8.34 0 012.791.142 58.705 58.705 0 0114.348 7.268 83.823 83.823 0 016.924 5.706c6.425 5.706 13.678 12.203 21.066 11.126 6.003-.856 8.359-7.724 10.636-14.364 1.092-3.174 2.142-6.17 3.57-8.431a123.272 123.272 0 019.28-12.36c4.176-5.092 8.487-10.356 11.421-16.19 6.525-13.03 9.83-30.141 9.83-50.853a1.24 1.24 0 011.242-1.241 1.242 1.242 0 011.242 1.241c0 21.105-3.398 38.586-10.094 51.966-3.041 6.076-7.445 11.454-11.707 16.646a121.777 121.777 0 00-9.094 12.125c-1.264 2.026-2.249 4.886-3.291 7.924-2.406 7.004-5.126 14.978-12.635 16.012-.671.102-1.349.152-2.028.15z" fill="#331C19"/><path d="M548.962 496.035a10.064 10.064 0 01-1.741-.157c-7.489-1.363-10.965-12.553-13.506-20.684-.757-2.446-1.428-4.557-2.049-6.019-2.056-4.708-4.997-9.272-7.852-13.687-4.026-6.277-8.188-12.767-10.144-19.97-2.57-9.543-1.099-19.899.321-29.913.821-5.784 1.671-11.768 1.671-17.353a1.237 1.237 0 011.242-1.241 1.242 1.242 0 011.242 1.241c0 5.763-.864 11.833-1.699 17.702-1.385 9.772-2.856 19.864-.379 28.915 1.849 6.875 5.911 13.201 9.83 19.321 2.891 4.493 5.875 9.143 8.009 14.029.714 1.59 1.364 3.759 2.142 6.269 2.349 7.567 5.561 17.923 11.571 19.015 3.306.606 5.968-1.27 8.781-3.26.906-.642 1.82-1.284 2.762-1.861 3.391-2.062 7.481-3.238 11.422-4.38 1.806-.52 3.569-1.034 5.261-1.619 2.434-.863 5.29-1.604 8.316-2.396 10.201-2.675 21.765-5.706 25.32-14.571-.171-.535-2.512-1.897-3.398-2.411a12.182 12.182 0 01-1.998-1.312 93.095 93.095 0 01-17.133-21.397 82.944 82.944 0 01-9.28-26.617 32.946 32.946 0 01-.128-6.726c.164-3.195.307-6.205-.771-8.359a1.243 1.243 0 012.22-1.113c1.371 2.739 1.199 6.22 1.035 9.593a30.642 30.642 0 00.093 6.198 80.062 80.062 0 009.066 25.705 90.413 90.413 0 0016.647 20.84c.492.356 1.007.68 1.542.97 2.398 1.391 5.389 3.124 4.454 5.47-4.019 10.028-16.761 13.366-26.998 16.048-2.976.777-5.775 1.512-8.116 2.332-1.721.607-3.569 1.134-5.404 1.669-3.798 1.099-7.724 2.225-10.829 4.116-.892.542-1.756 1.155-2.62 1.768-2.677 1.912-5.432 3.845-8.902 3.845zm48.656 187.206a1.245 1.245 0 01-1.114-.713c-4.104-8.202-7.138-17.067-10.043-25.676-2.906-8.608-5.904-17.317-9.944-25.398-1.028-2.04-2.256-4.193-3.527-6.419-4.476-7.845-9.551-16.725-8.145-25.191 3.163-18.929 6.853-34.848 10.772-51.708 2.02-8.737 4.119-17.767 6.225-27.581 1.606-7.496 6.16-32.765 6.21-33.022a1.258 1.258 0 01.499-.842 1.254 1.254 0 01.955-.218 1.237 1.237 0 01.816.539 1.247 1.247 0 01.172.963c-.043.257-4.612 25.562-6.232 33.101-2.106 9.828-4.205 18.872-6.232 27.616-3.905 16.825-7.588 32.708-10.708 51.566-1.263 7.589 3.57 16.069 7.853 23.536 1.292 2.275 2.548 4.465 3.569 6.548 4.119 8.223 7.138 17.117 10.079 25.676 2.941 8.558 5.89 17.288 9.916 25.333a1.238 1.238 0 01-.557 1.662 1.175 1.175 0 01-.564.228zm-70.421-55.702a1.263 1.263 0 01-1.035-.557c-1.941-2.917-7.417-11.697-8.773-15.092-2.341-5.834-4.797-24.249-4.033-56.908.307-13.187 1.563-44.07 2.313-62.528.242-5.977.421-10.463.492-12.26.15-4.28-1.285-10.77-2.798-17.674-.964-4.393-1.963-8.929-2.613-13.152a1.256 1.256 0 011.974-1.204 1.246 1.246 0 01.496.819c.636 4.144 1.621 8.644 2.577 12.995 1.549 7.061 3.02 13.73 2.856 18.301-.065 1.798-.25 6.284-.493 12.268-.714 18.451-2.006 49.319-2.313 62.485-.714 32.302 1.606 50.318 3.855 55.924 1.192 2.981 6.268 11.234 8.566 14.643a1.253 1.253 0 01-1.071 1.94zm55.245 74.988c-6.503 0-13.12-3.295-14.819-4.386-2.563-1.655-5.818-9.458-9.923-20.684l-.785-2.14c-3.919-10.441-16.419-30.383-23.857-41.238a1.25 1.25 0 01-.205-.933 1.251 1.251 0 012.254-.494c7.51 10.963 20.138 31.125 24.135 41.774l.785 2.14c1.799 4.892 6.553 17.894 8.938 19.428 1.741 1.119 10.201 5.278 16.797 3.616 5.096-1.291 12.135-8.053 12.406-9.679a1.247 1.247 0 011.449-.998 1.243 1.243 0 011 1.448c-.579 3.124-8.766 10.249-14.277 11.632-1.274.33-2.583.503-3.898.514z" fill="#331C19"/><path d="M492.811 613.559c-.656 0-1.327 0-2.005-.057-15.37-.934-24.121-19.97-27.969-31.239-6.018-17.581-11.179-63.598-11.179-88.939a1.242 1.242 0 012.484 0c0 25.155 5.09 70.766 11.036 88.14 3.655 10.699 11.857 28.715 25.777 29.563 6.703.407 12.036-1.269 15.848-4.992 4.369-4.28 6.532-11.176 6.253-20.056a1.23 1.23 0 01.728-1.169c.148-.066.309-.103.471-.108a1.197 1.197 0 01.904.317 1.177 1.177 0 01.374.881c.3 9.593-2.141 17.175-7.003 21.911-3.876 3.765-9.28 5.748-15.719 5.748zm92.6 164.705c-3.398 0-6.317-1.034-8.295-3.01-3.926-3.922-2.334-12.674-1.178-19.064.286-1.576.543-2.981.664-4.065 1.428-12.953 2.627-26.589 0-38.465a124.655 124.655 0 00-3.569-12.645 1.252 1.252 0 01.018-.978 1.234 1.234 0 01.722-.661 1.24 1.24 0 011.601.819 130.747 130.747 0 013.677 12.938c2.691 12.239 1.485 26.111 0 39.227-.129 1.134-.393 2.596-.714 4.236-.999 5.521-2.513 13.866.5 16.868 2.084 2.09 5.71 2.789 9.879 1.933 5.668-1.17 10.601-4.757 12.278-8.944 3.206-8.016 4.034-16.069 4.905-24.592.406-3.958.828-8.045 1.506-12.124a29.426 29.426 0 012.42-6.933c1.427-3.188 2.755-6.191 2.32-9.272-.607-4.279-5.925-11.326-8.481-14.728l.85-.927.992-.713c3.027 4.022 8.402 11.169 9.094 16.054.536 3.78-1.006 7.261-2.505 10.627a26.593 26.593 0 00-2.242 6.341c-.664 3.987-1.085 8.038-1.485 11.961-.849 8.316-1.734 16.917-5.068 25.262-1.977 4.921-7.638 9.122-14.084 10.442a19.381 19.381 0 01-3.805.413z" fill="#331C19"/><path d="M587.996 758.679c-4.283 0-8.117-1.69-10.365-4.728a1.25 1.25 0 01.257-1.741 1.265 1.265 0 011.741.264c2.228 3.003 6.489 4.337 11.108 3.466 5.389-1.005 8.43-8.487 9.487-11.654 1.777-5.327 1.428-11.561 1.156-17.595-.414-8.166-.835-16.611 3.727-23.458a1.247 1.247 0 011.724-.346 1.246 1.246 0 01.346 1.723c-4.112 6.162-3.727 13.836-3.32 21.96.314 6.255.643 12.731-1.285 18.501-1.192 3.566-4.69 12.053-11.378 13.309a17.687 17.687 0 01-3.198.299zm-125.795-87.42a11.75 11.75 0 01-1.313-.071 15.427 15.427 0 01-11.708-8.181c-4.625-9.272-2.512-23.158-.649-35.425.949-6.277 1.856-12.204 1.856-17.118 0-12.246 4.169-19.835 11.75-21.397a1.218 1.218 0 01.935.173 1.218 1.218 0 01.528.79 1.242 1.242 0 01-.971 1.427c-8.494 1.726-9.765 12.61-9.765 18.943 0 5.107-.914 11.119-1.885 17.495-1.806 11.904-3.854 25.405.414 33.943a12.84 12.84 0 009.766 6.889 8.567 8.567 0 007.924-3.323c1.977-2.461 2.398-7.639 2.705-11.412.079-.948.143-1.826.236-2.603.1-.913.199-2.004.314-3.195.392-4.144.878-9.272 1.791-12.838a58.035 58.035 0 013.648-9.864 67.863 67.863 0 002.577-6.326 1.21 1.21 0 01.616-.722 1.215 1.215 0 01.947-.063 1.24 1.24 0 01.786 1.569 69.76 69.76 0 01-2.656 6.555 54.998 54.998 0 00-3.512 9.464c-.864 3.381-1.342 8.43-1.727 12.489-.107 1.205-.215 2.31-.315 3.23-.092.756-.157 1.612-.235 2.532-.35 4.33-.792 9.714-3.241 12.774a11.02 11.02 0 01-8.816 4.265z" fill="#331C19"/><path d="M466.563 653.314a8.436 8.436 0 01-3.12-.592c-4.997-1.94-7.581-8.087-8.273-11.062-1.756-7.624-.657-16.34.571-22.309.785-3.809 2.377-7.453 3.919-10.97 1.542-3.516 2.934-6.704 3.569-9.985a1.267 1.267 0 011.428-.977 1.233 1.233 0 01.97 1.427c-.713 3.566-2.255 7.082-3.747 10.491s-3.034 6.926-3.762 10.477c-1.185 5.706-2.242 14.065-.586 21.254.657 2.853 3.077 7.846 6.761 9.272 2.198.863 4.682.371 7.381-1.426a1.244 1.244 0 011.885 1.264 1.243 1.243 0 01-.493.79 11.776 11.776 0 01-6.503 2.346z" fill="#331C19"/><path d="M458.946 672.564a16.43 16.43 0 01-5.054-.806 17.18 17.18 0 01-10.579-9.842c-3.277-7.91-.835-26.539.621-37.673.343-2.589.621-4.735.757-6.169.135-1.434.15-2.974.185-4.757.165-9.087.414-22.823 13.563-22.823a1.242 1.242 0 110 2.482c-9.908 0-10.886 9.236-11.093 20.391-.035 1.84-.064 3.566-.192 4.935-.129 1.37-.422 3.631-.764 6.262-1.335 10.171-3.819 29.107-.793 36.375a14.698 14.698 0 009.023 8.43 13.617 13.617 0 0011.379-1.319 1.265 1.265 0 01.949-.149 1.26 1.26 0 01.944 1.025 1.252 1.252 0 01-.587 1.263 15.97 15.97 0 01-8.359 2.375zM587.339 783a18.913 18.913 0 01-4.155-.456c-2.855-.628-8.109-3.566-7.709-10.292a1.158 1.158 0 01.387-.88 1.16 1.16 0 01.919-.283 1.235 1.235 0 011.164 1.313c-.372 6.283 5.525 7.667 5.775 7.724 8.03 1.776 16.197-2.939 19.766-8.295 4.069-6.098 5.44-18.244 6.425-27.102.271-2.333.514-4.494.778-6.334a17.925 17.925 0 011.849-5.306 27.48 27.48 0 002.555-7.603c.971-5.749-.364-8.987-3.155-12.945a1.25 1.25 0 01-.207-.928c.028-.16.088-.314.175-.452a1.253 1.253 0 011.264-.556 1.238 1.238 0 01.802.509c3.099 4.394 4.676 8.217 3.57 14.786a29.522 29.522 0 01-2.763 8.244 16.23 16.23 0 00-1.635 4.601c-.264 1.826-.499 3.958-.763 6.262-1.085 9.628-2.442 21.61-6.839 28.201-3.491 5.263-10.522 9.792-18.203 9.792zM486.858 619.508a20.888 20.888 0 01-14.762-5.642c-8.566-8.009-10.472-22.452-9.644-30.212a1.212 1.212 0 01.452-.84 1.221 1.221 0 01.918-.258 1.244 1.244 0 011.1 1.362c-.778 7.261.935 20.748 8.866 28.137 4.618 4.279 10.657 5.812 17.981 4.521a1.254 1.254 0 01.97.169 1.236 1.236 0 01.318 1.778 1.247 1.247 0 01-.852.493c-1.765.32-3.554.485-5.347.492zm49.89 4.5a12.77 12.77 0 01-5.711-1.333 1.24 1.24 0 01-.553-1.659 1.24 1.24 0 011.66-.552 10.4 10.4 0 007.31.713 8.574 8.574 0 005.553-4.415 1.24 1.24 0 011.656-.531 1.238 1.238 0 01.564 1.644 11.044 11.044 0 01-7.138 5.705c-1.09.287-2.213.431-3.341.428zM346.48 405.262a1.25 1.25 0 01-1.11-.682 1.218 1.218 0 01-.128-.465 1.216 1.216 0 01.06-.479c2.955-8.851-2.142-11.319-9.188-14.735-2.955-1.426-6.017-2.91-8.673-5.035-9.751-7.796-5.154-27.103.05-35.248 10.394-16.325 21.201-22.381 32.652-28.785 12.749-7.133 25.934-14.522 41.467-36.532 12.985-18.394 18.31-32.48 20.359-53.841.714-7.318.485-16.989.257-27.238-.464-20.748-.942-42.194 5.875-50.304 10.351-12.31 18.902-7.845 19.274-7.667a1.246 1.246 0 01-.258 2.289 1.25 1.25 0 01-.949-.106c-.307-.157-7.224-3.566-16.19 7.075-6.21 7.396-5.711 29.32-5.289 48.656.228 10.32.442 20.07-.272 27.538-2.07 21.838-7.517 36.238-20.78 55.032-15.854 22.459-29.896 30.326-42.288 37.259-11.643 6.526-21.708 12.124-31.766 27.951-4.833 7.581-8.723 25.483-.593 31.981 2.442 1.954 5.376 3.373 8.21 4.743 6.931 3.366 14.098 6.839 10.457 17.745a1.232 1.232 0 01-1.177.848z" fill="#331C19"/><path d="M351.413 410.947a1.246 1.246 0 01-1.007-.514 1.234 1.234 0 01-.217-.925 1.258 1.258 0 01.503-.808c8.102-5.812 4.947-11.775 1.299-18.672-3.105-5.855-6.617-12.496-1.563-18.815 4.868-6.076 13.606-8.922 21.315-11.411 2.006-.649 3.926-1.277 5.661-1.933 16.79-6.291 46.764-29.392 57.822-58.991a1.24 1.24 0 012.319-.109 1.227 1.227 0 01.008.972c-11.293 30.326-42.032 53.998-59.25 60.453-1.77.663-3.726 1.298-5.767 1.961-7.382 2.411-15.705 5.136-20.145 10.627-4.041 5.05-1.2 10.421 1.813 16.105 3.669 6.925 7.852 14.771-2.042 21.853-.221.147-.484.22-.749.207zm105.078-161.638a1.187 1.187 0 01-.557-.135 1.245 1.245 0 01-.625-.715 1.246 1.246 0 01.068-.947c2.856-5.706 4.283-19.364 4.283-25.384a1.242 1.242 0 012.484 0c0 5.863-1.377 20.106-4.575 26.496a1.253 1.253 0 01-.444.492 1.25 1.25 0 01-.634.193zm3.954-48.456h-.057a1.253 1.253 0 01-1.185-1.298 74.784 74.784 0 00-1.292-16.283 1.24 1.24 0 01.985-1.455 1.244 1.244 0 011.457.984 77.52 77.52 0 011.327 16.868 1.239 1.239 0 01-1.235 1.184zm-227.003-59.341a1.242 1.242 0 01-1.235-1.105l-.114-1.02c-.442-4.144-.899-8.423-3.955-14.265a1.24 1.24 0 01.514-1.676 1.254 1.254 0 011.678.521c3.284 6.226 3.769 10.755 4.233 15.127l.114 1.013a1.25 1.25 0 01-1.099 1.37l-.136.035zm-21.344 73.092c-6.56 0-14.87-1.284-20.366-4.993a1.248 1.248 0 01-.527-.793 1.237 1.237 0 01.191-.933 1.242 1.242 0 011.721-.335c5.511 3.695 14.319 4.793 20.658 4.515 9.844-.364 15.334-4.044 18.346-12.31 4.076-11.191 3.998-21.041 3.948-26.326v-1.198a1.224 1.224 0 01.359-.877 1.23 1.23 0 01.876-.364 1.233 1.233 0 011.235 1.234v1.177c.05 5.449.135 15.598-4.091 27.202-3.369 9.237-9.722 13.552-20.587 13.944-.564.05-1.121.057-1.763.057z" fill="#331C19"/><path d="M211.221 228.291a1.245 1.245 0 01-1.228-1.056c-.714-4.786.749-9.372 2.47-13.63a1.233 1.233 0 011.133-.798c.164-.004.327.025.48.085a1.229 1.229 0 01.801 1.132c.003.164-.026.327-.087.48-1.585 3.923-2.963 8.131-2.313 12.324a1.258 1.258 0 01-.584 1.259c-.14.086-.296.143-.458.168l-.214.036zm-48.207-16.633a1.24 1.24 0 01-.628-.171 1.243 1.243 0 01-.576-.757 1.229 1.229 0 01.134-.941c3.333-5.655 3.512-14.827 2.22-21.396a1.244 1.244 0 01.978-1.427 1.236 1.236 0 011.427.977c1.285 6.526 1.428 16.504-2.512 23.152a1.27 1.27 0 01-1.043.563zm-2.82-24.242h-.164c-3.805-.485-8.345-3.345-10.801-6.797a9.727 9.727 0 01-1.884-7.76c.649-3.024 2.006-5.192 4.033-6.419 2.427-1.498 5.675-1.691 9.937-.585a1.245 1.245 0 01.759.567 1.237 1.237 0 01-1.373 1.829c-3.527-.92-6.225-.813-8.017.3-1.428.891-2.405 2.475-2.912 4.843a7.458 7.458 0 001.484 5.813c2.049 2.852 5.961 5.37 9.095 5.777a1.24 1.24 0 01.823.469c.1.129.173.276.215.433.043.156.054.32.033.481a1.24 1.24 0 01-1.228 1.049z" fill="#331C19"/><path d="M160.551 177.566a1.299 1.299 0 01-.535-.121c-1.021-.493-2.078-.906-3.113-1.313l.222-1.241.456-1.155-.456 1.155.713-1.07c1.1.428 2.221.871 3.291 1.384a1.259 1.259 0 01.579 1.662 1.255 1.255 0 01-1.157.699zm5.454-17.118a1.22 1.22 0 01-.764-.256 1.242 1.242 0 01-.214-1.741c2.905-3.737 4.49-7.517 6.168-11.532.849-2.019 1.72-4.101 2.791-6.241a1.239 1.239 0 011.635-.542 1.241 1.241 0 01.549 1.662c-1.028 2.061-1.884 4.108-2.712 6.083-1.742 4.173-3.391 8.103-6.504 12.125a1.232 1.232 0 01-.949.442zm-16.718 8.809a1.241 1.241 0 01-1.056-.585l-.457-.713c-1.428-2.218-3.006-4.736-3.441-7.347a1.245 1.245 0 011.021-1.426c.324-.05.655.029.921.22.267.19.449.477.506.8.35 2.14 1.799 4.408 3.077 6.419l.471.749a1.248 1.248 0 01-.392 1.712 1.238 1.238 0 01-.65.171z" fill="#331C19"/><path d="M145.403 161.533c-.111 0-.221-.014-.328-.043a1.251 1.251 0 01-.871-1.526c8.309-29.999 41.032-59.134 70.035-62.358a1.27 1.27 0 011.371 1.099 1.23 1.23 0 01-.266.912 1.24 1.24 0 01-.833.457c-27.619 3.067-59.963 31.924-67.916 60.546a1.234 1.234 0 01-1.192.913z" fill="#331C19"/><path d="M145.118 162.581a1.234 1.234 0 01-.714-.214c-4.562-3.06-5.797-8.601-6.896-13.487l-.107-.485c-2.62-11.633 1.042-24.506 5.34-32.68 6.096-11.59 18.859-20.555 34.157-23.978 13.799-3.096 26.798-1.042 35.643 5.627a1.24 1.24 0 01.249 1.733 1.248 1.248 0 01-1.741.25c-8.145-6.141-20.702-8.088-33.608-5.193-14.591 3.267-26.741 11.761-32.509 22.717-4.09 7.781-7.581 19.97-5.111 30.982l.107.485c.999 4.436 2.142 9.464 5.854 11.968a1.249 1.249 0 01.342 1.726 1.25 1.25 0 01-1.006.549z" fill="#331C19"/><path d="M179.668 135.771c-4.119 0-8.474-1.676-13.171-5.906a1.247 1.247 0 01-.092-1.754 1.243 1.243 0 011.756-.086c12.214 10.998 21.415 2.768 32.009-6.754l2.484-2.218a97.277 97.277 0 0124.599-16.147c7.852-3.452 16.168-3.66 21.223-.514a10.17 10.17 0 014.875 8.559c0 .15.421 14.264-15.262 24.585a1.244 1.244 0 01-.935.18 1.231 1.231 0 01-.785-.537 1.238 1.238 0 01-.178-.93 1.24 1.24 0 01.535-.782c14.526-9.536 14.155-22.281 14.148-22.409a7.708 7.708 0 00-3.705-6.583c-4.319-2.682-11.921-2.404-18.917.713a95.085 95.085 0 00-23.956 15.691l-2.463 2.211c-6.982 6.283-14.077 12.681-22.165 12.681z" fill="#331C19"/><path d="M251.68 109.253a1.232 1.232 0 01-1.234-1.169c-.329-5.549-8.531-6.519-17.647-7.09a549.61 549.61 0 00-18.167-.799 1.241 1.241 0 01-1.214-1.27 1.28 1.28 0 011.271-1.212c.093 0 9.187.229 18.26.8 8.231.513 19.495 1.219 19.988 9.421a1.242 1.242 0 01-1.164 1.312l-.093.007zm-47.734 23.515c-2.969 0-7.138-.478-9.208-4.579a1.245 1.245 0 01-.069-.947 1.25 1.25 0 011.571-.786 1.223 1.223 0 01.718.621c1.106 2.218 3.262 3.209 6.988 3.209a1.23 1.23 0 011.235 1.241 1.22 1.22 0 01-.359.877 1.214 1.214 0 01-.402.269c-.15.063-.311.095-.474.095zm34.379-3.894a1.243 1.243 0 01-1.107-.713c-2.855-5.706-8.109-4.607-16.418-2.14-7.239 2.14-15.441 4.558-19.445-3.445a1.224 1.224 0 01-.068-.946 1.241 1.241 0 01.624-.715 1.243 1.243 0 011.664.549c2.855 5.706 8.152 4.657 16.518 2.182 7.217-2.139 15.384-4.55 19.36 3.409a1.242 1.242 0 01-.168 1.366 1.213 1.213 0 01-.382.296c-.176.1-.375.154-.578.157zm2.398-8.394a1.248 1.248 0 01-1.192-.899c-.714-2.511-1.756-4.094-3.17-4.836-1.413-.742-3.319-.67-5.832.179-6.424 2.196-10.622-2.853-12.135-5.079a1.25 1.25 0 01.343-1.719 1.243 1.243 0 011.72.343c1.478 2.218 4.64 5.706 9.28 4.108 3.184-1.077 5.711-1.091 7.781 0 2.07 1.091 3.491 3.145 4.404 6.348a1.238 1.238 0 01-.849 1.533 1.416 1.416 0 01-.35.022zm-99.545 35.554h-.107a1.254 1.254 0 01-.853-.436 1.228 1.228 0 01-.289-.912c.171-1.926 1.135-3.987 2.141-6.163 1.463-3.145 2.984-6.419 1.592-8.48-.257-.392-.435-.471-.464-.471-.878 0-2.713 3.217-3.498 4.579l-.635 1.084a1.24 1.24 0 01-.759.572 1.233 1.233 0 01-.94-.137 1.235 1.235 0 01-.428-1.697l.606-1.056c1.549-2.696 3.313-5.755 5.575-5.827a3.106 3.106 0 012.613 1.584c2.142 3.245.257 7.31-1.428 10.898-.92 1.975-1.791 3.844-1.927 5.328a1.241 1.241 0 01-1.199 1.134zm56.329-4.451a1.236 1.236 0 01-1.035-.563 1.244 1.244 0 01-.181-.934 1.241 1.241 0 01.538-.785c3.412-2.233 8.281-.892 9.858-.186a1.245 1.245 0 01.629 1.641 1.252 1.252 0 01-1.642.62c-1.428-.649-5.197-1.497-7.489 0a1.238 1.238 0 01-.678.207zm30.938-2.282a1.239 1.239 0 01-.75-2.226c1.428-1.084 3.776-1.597 6.289-1.426a1.232 1.232 0 011.128 1.334 1.197 1.197 0 01-.419.859 1.188 1.188 0 01-.916.275c-2.248-.186-3.876.364-4.59.906-.21.17-.471.268-.742.278zm2.299 13.323a1.254 1.254 0 01-1.071-.613 1.235 1.235 0 01.229-1.534c.107-.1 2.655-2.425 5.539-3.003a1.229 1.229 0 01.938.175 1.232 1.232 0 01.526.795 1.26 1.26 0 01-.35 1.127 1.25 1.25 0 01.714 1.163 1.24 1.24 0 01-1.235 1.198h-.043a14.327 14.327 0 00-4.833.628 1.317 1.317 0 01-.414.064zm-29.996 3.067a1.244 1.244 0 01-1.171-.835 1.253 1.253 0 01.364-1.348 1.253 1.253 0 01-.714-.998 1.228 1.228 0 01.274-.91 1.232 1.232 0 01.84-.445c2.984-.293 6.196 1.219 6.332 1.283a1.247 1.247 0 01.664 1.427 1.302 1.302 0 01-1.243.949 16.287 16.287 0 00-4.947.834c-.13.034-.265.049-.399.043zm21.987 8.145a1.24 1.24 0 01-.607-2.325c1.535-.863 1.478-1.684 1.185-2.447a3.241 3.241 0 00-.978-.92 5.928 5.928 0 01-1.92-2.047 10.089 10.089 0 01-.714-5.456 1.237 1.237 0 01.867-1.071 1.248 1.248 0 01.945.09 1.236 1.236 0 01.651 1.209 7.84 7.84 0 00.499 4.144c.308.462.709.853 1.178 1.148a4.857 4.857 0 011.799 2.012c.5 1.291.871 3.73-2.284 5.499a1.25 1.25 0 01-.621.164zm-3.092 21.532c-10.771 0-12.849-11.504-12.849-11.618a1.256 1.256 0 01.885-1.403 1.24 1.24 0 01.593-.024c3.062.564 6.166.87 9.28.913 4.904.171 10.965-1.69 11.029-1.712a1.237 1.237 0 011.113.214 1.227 1.227 0 01.479 1.035c-.193 4.186-2.485 12.217-9.787 12.574l-.743.021zm-9.936-10.299c.963 2.853 3.662 8.202 10.586 7.788 5.083-.249 6.71-5.641 7.21-8.487a40.146 40.146 0 01-9.994 1.334 64.68 64.68 0 01-7.802-.635zM58.293 408.465a2.675 2.675 0 01-1.235-.364c-16.211-8.658-17.789-29.834-18.838-43.849-.222-2.903-.407-5.406-.714-7.432-.593-4.108-1.728-8.665-2.934-13.487-4.24-16.967-9.052-36.203 6.739-48.028 2.926-2.197 6.838-3.053 10.622-3.887 4.104-.899 7.988-1.748 10.386-4.144 1.17-1.17 2.42-2.568 3.755-4.051 5.447-6.077 12.235-13.637 20.195-13.637a1.242 1.242 0 011.147 1.715 1.237 1.237 0 01-1.147.76c-6.853 0-13.228 7.132-18.346 12.838-1.364 1.519-2.648 2.953-3.848 4.151-2.912 2.903-7.331 3.88-11.614 4.814-3.52.77-7.139 1.569-9.666 3.445-14.462 10.841-9.872 29.242-5.817 45.447 1.22 4.885 2.377 9.507 2.983 13.736.3 2.14.486 4.65.714 7.603 1 13.288 2.492 33.293 16.954 41.524v-1.312c-.05-4.044-.15-12.467 5.468-24.364 3.434-7.282 10.237-16.404 22.736-30.433 8.38-9.422 19.531-16.019 30.31-22.41 6.275-3.716 12.757-7.553 18.503-11.861 18.489-13.85 28.247-37.708 28.989-70.908a129.63 129.63 0 00-1.898-25.676c-.957-5.949-1.535-9.543.963-12.318a1.243 1.243 0 01.854-.413 1.242 1.242 0 01.895.313 1.238 1.238 0 01.093 1.748c-1.635 1.826-1.313 4.322-.357 10.277a133.352 133.352 0 011.935 26.126c-.764 33.999-10.858 58.484-29.982 72.834-5.846 4.386-12.392 8.259-18.724 12.011-10.615 6.29-21.594 12.795-29.718 21.924-12.335 13.865-19.016 22.788-22.35 29.842-5.375 11.411-5.276 19.421-5.233 23.279 0 2.14.043 3.367-.963 3.973-.26.15-.557.224-.857.214z" fill="#331C19"/><path d="M118.991 429.405a4.756 4.756 0 01-2.491-.628c-2.435-1.426-2.663-5.848-2.913-10.484-.143-2.646-.285-5.385-.878-6.768-2.984-6.94-2.277-13.395-1.535-20.22.399-3.093.626-6.205.679-9.322 0-8.216-.643-16.533-1.264-24.571s-1.271-16.404-1.271-24.692a1.24 1.24 0 011.242-1.241 1.244 1.244 0 011.243 1.227c0 8.174.635 16.476 1.256 24.499.621 8.024 1.271 16.455 1.271 24.764a87.934 87.934 0 01-.714 9.592c-.714 6.491-1.378 12.632 1.342 18.979.771 1.783.921 4.615 1.078 7.603.171 3.253.407 7.71 1.713 8.495 1.635.984 5.389-.856 7.402-1.84l1.043-.5c7.138-3.28 14.783-4.678 21.536-5.905 9.48-1.719 19.117-1.469 28.454-1.22 8.395.221 17.09.45 25.449-.806 5.918-.884 11.878-3.566 18.189-6.376 7.916-3.566 16.104-7.211 24.456-7.211a1.246 1.246 0 11.064 2.49c-7.852 0-15.761 3.566-23.435 6.989-6.189 2.767-12.585 5.627-18.846 6.569-8.566 1.284-17.368 1.055-25.884.827-9.194-.242-18.717-.485-27.933 1.184-6.938 1.263-14.112 2.568-20.944 5.706l-.992.471c-2.085 1.02-4.869 2.389-7.317 2.389z" fill="#331C19"/><path d="M244.057 405.091a1.254 1.254 0 01-1.114-.713 23.107 23.107 0 00-2.362-3.202c-1.864-2.34-4.191-5.25-5.311-8.281-.821-2.225-.586-4.472-.4-6.276a7.804 7.804 0 000-3.053c-1.564-4.029-4.105-5.221-4.219-5.27a1.27 1.27 0 01-.714-1.12c0-.3-.321-30.034.514-45.803 1.121-21.312-1.313-50.219-6.367-75.431-1.607-8.074-3.284-11.098-6.068-16.105a174.97 174.97 0 01-3.734-7.011 1.223 1.223 0 01-.128-.466 1.22 1.22 0 01.301-.9 1.23 1.23 0 01.384-.295 1.226 1.226 0 01.946-.071 1.237 1.237 0 01.717.62c1.428 2.853 2.627 4.992 3.684 6.918 2.898 5.221 4.647 8.366 6.339 16.825 5.082 25.405 7.531 54.54 6.425 76.044-.75 14.336-.55 40.311-.507 44.933a12.716 12.716 0 014.79 6.234c.485 1.241.328 2.681.171 4.208-.179 1.711-.364 3.48.257 5.163.978 2.654 3.169 5.392 4.925 7.589a25.192 25.192 0 012.613 3.645 1.246 1.246 0 01-.55 1.669 1.328 1.328 0 01-.592.149zm-47.064-160.717c-17.133 0-31.652-16.683-33.622-19.036a1.227 1.227 0 01-.281-.908 1.26 1.26 0 01.445-.84 1.227 1.227 0 011.367-.148c.144.076.271.18.375.305 2.334 2.796 23.378 26.96 43.98 14.671a1.25 1.25 0 011.706.428 1.25 1.25 0 01-.429 1.705 26.068 26.068 0 01-13.541 3.823z" fill="#331C19"/><path d="M159.03 262.268a1.247 1.247 0 01-1.16-.762 1.253 1.253 0 01-.096-.479c0-15.441-2.142-19.214-11.122-32.708-2.256-3.381-5.439-4.993-9.116-6.797l-.442-.214a7.203 7.203 0 00-1.621-.421c-1.67-.321-3.961-.763-4.618-2.724a2.307 2.307 0 01.157-1.812c1.128-2.197 5.896-3.816 12.014-5.706a35.393 35.393 0 004.005-1.369c1.427-.885 3.526-2.924 5.775-5.093 4.39-4.236 8.93-8.608 12.206-8.608a1.22 1.22 0 01.876.359 1.214 1.214 0 01.359.875 1.227 1.227 0 01-.359.877 1.236 1.236 0 01-.876.364c-2.277 0-7.017 4.579-10.486 7.916-2.441 2.361-4.554 4.394-6.182 5.414-.671.413-2.034.841-4.583 1.633-2.755.849-10.079 3.117-10.55 4.493.192.464 1.656.714 2.734.949.779.111 1.54.324 2.262.635l.436.214c3.833 1.904 7.445 3.708 10.072 7.638 9.152 13.716 11.543 17.966 11.543 34.085a1.242 1.242 0 01-1.228 1.241zm67.096-1.369a1.24 1.24 0 01-1.235-1.241c0-5.185 2.577-16.903 8.566-20.477a27.62 27.62 0 014.761-1.89c5.847-1.968 11.065-4.036 10.893-7.545-.428.121-.956.32-1.235.427a7.559 7.559 0 01-1.12.357 18.65 18.65 0 01-6.182-.157c-4.019-.663-8.117-5.542-12.078-10.256-2.542-3.024-5.176-6.155-7.075-7.132a1.252 1.252 0 01-.556-1.662 1.255 1.255 0 011.67-.556c2.356 1.177 5.033 4.357 7.852 7.731 3.498 4.165 7.46 8.887 10.587 9.4 1.766.349 3.577.402 5.361.157.128 0 .371-.128.649-.228 1.542-.585 2.706-.949 3.569-.485.378.243.664.604.814 1.027 1.628 6.526-6.81 9.365-12.399 11.248a27.241 27.241 0 00-4.283 1.661c-4.483 2.682-7.339 12.66-7.339 18.352a1.24 1.24 0 01-1.22 1.269z" fill="#331C19"/><path d="M136.231 211.287c-7.674 0-15.127-.242-23.115-2.018-6.11-1.355-11.814-3.873-17.325-6.305-3.733-1.655-7.595-3.359-11.514-4.657a212.883 212.883 0 00-4.547-1.427c-6.875-2.09-15.434-4.693-20.16-9.414-2.612-2.611-3.097-6.569-3.569-10.399-.32-2.603-.62-5.057-1.549-6.904a1.247 1.247 0 01.557-1.662 1.26 1.26 0 011.67.556c1.114 2.226 1.428 4.993 1.785 7.71.421 3.41.857 6.94 2.856 8.944 4.283 4.279 12.513 6.79 19.124 8.801 1.634.492 3.198.97 4.611 1.427 4.026 1.341 7.945 3.067 11.736 4.743 5.396 2.382 10.986 4.85 16.854 6.148 9.208 2.047 17.796 1.997 26.876 1.94h4.497a1.24 1.24 0 01.878 2.118 1.24 1.24 0 01-.878.364h-4.483l-4.304.035zM99.51 266.284c-.3-.001-.588-.11-.813-.307-8.01-7.004-16.947-11.676-26.413-16.632-6.574-3.438-13.377-6.997-19.766-11.412-6.525-4.486-10.958-9.728-15.655-15.27-2.484-2.939-5.054-5.977-7.96-8.88a37.817 37.817 0 00-4.818-3.652c-3.098-2.139-6.289-4.322-7.51-6.597-2.783-5.214-2.762-13.187-2.74-20.22a84.092 84.092 0 00-.322-9.678 1.235 1.235 0 011.071-1.384 1.23 1.23 0 01.949.228 1.21 1.21 0 01.479.849c.31 3.319.424 6.653.342 9.985 0 6.747-.035 14.393 2.449 19.05.928 1.748 4.005 3.859 6.717 5.706a38.934 38.934 0 015.176 3.937c2.976 2.974 5.582 6.056 8.102 9.03 4.583 5.42 8.908 10.534 15.162 14.835 6.253 4.3 12.999 7.845 19.51 11.226 9.18 4.8 18.666 9.771 26.897 16.96a1.244 1.244 0 01.421.85 1.222 1.222 0 01-.307.898 1.214 1.214 0 01-.97.478z" fill="#331C19"/><path d="M13.677 175.533a3.007 3.007 0 01-1.706-.535c-3.57-2.375-3.74-12.838-3.74-14.977 0-4.28 1.056-7.311 3.248-9.272 3.776-3.438 10.043-2.853 16.118-2.304 3.348.307 6.81.635 9.63.228a19.769 19.769 0 004.847-1.79c4.076-1.89 9.159-4.237 12.728.514 2.341 3.116 4.575 18.793 1.056 22.309-.756.756-1.641.606-7.773-1.291-1.492-.463-3.355-1.034-3.791-1.084-7.274-.82-25.456.785-28.554 6.419a1.246 1.246 0 01-.714 1.512 3.61 3.61 0 01-1.349.271zm7.139-25.027c-3.12 0-5.875.457-7.653 2.076-1.642 1.497-2.441 3.944-2.441 7.467 0 4.486.842 11.69 2.641 12.888a.83.83 0 01.079-.185c3.976-7.96 25.884-8.473 31.13-7.896a34.83 34.83 0 014.283 1.177c1.714.528 4.44 1.377 5.54 1.562 1.756-2.988.435-16.097-1.542-18.722-2.206-2.931-5.14-1.869-9.701.242a21.05 21.05 0 01-5.54 1.997c-3.105.45-6.717.115-10.208-.206-2.255-.193-4.511-.4-6.603-.4h.015zm39.711 242.275a1.219 1.219 0 01-.714-.214 1.232 1.232 0 01-.343-1.712c9.93-14.885 24.592-17.93 43.545-17.93a1.24 1.24 0 01.876.364 1.234 1.234 0 01.359.877 1.224 1.224 0 01-.359.877 1.23 1.23 0 01-.876.364c-18.167 0-32.173 2.853-41.489 16.818a1.221 1.221 0 01-1 .556zm216.539-2.532a1.236 1.236 0 01-1.128-.713 21.976 21.976 0 01-1.706-6.961 14.796 14.796 0 00-1.264-5.207 53.461 53.461 0 00-4.454-7.524c-2.313-3.295-2.784-4.279-3.805-15.441-.885-9.707-2.484-30.177-3.769-46.617-.593-7.56-1.107-14.179-1.428-18.344l-.3-3.816c-1.649-21.189-2.641-33.978-23.806-44.555a1.218 1.218 0 01-.384-.295 1.22 1.22 0 01-.173-1.366 1.238 1.238 0 011.203-.68c.163.012.322.057.467.13 22.415 11.191 23.507 25.27 25.17 46.574l.307 3.766c.336 4.158.857 10.784 1.428 18.344 1.292 16.404 2.891 36.902 3.769 46.588 1 10.869 1.428 11.454 3.362 14.264a54.091 54.091 0 014.648 7.845 17.244 17.244 0 011.513 6.027 19.331 19.331 0 001.499 6.234 1.246 1.246 0 01-.621 1.64 1.299 1.299 0 01-.528.107z" fill="#331C19"/><path d="M267.971 428.991a1.243 1.243 0 01-1.178-1.626c2.67-7.995 14.841-14.264 19.952-16.589a21.47 21.47 0 012.656-.871c2.07-.592 5.204-1.483 5.468-2.81.221-1.084-.486-1.597-2.856-2.689-1.62-.713-3.291-1.512-4.054-3.045-.764-1.533-.864-3.267-1.007-5.035-.193-2.461-.378-4.786-1.956-5.706-5.539-3.324-17.132 6.333-25.406 15.605a105.472 105.472 0 00-5.66 6.947 1.247 1.247 0 01-1.735.25 1.243 1.243 0 01-.25-1.734 115.401 115.401 0 015.789-7.132c4.512-5.085 19.917-21.254 28.554-16.083 2.67 1.598 2.927 4.821 3.155 7.66.122 1.598.243 3.11.75 4.115.378.764 1.649 1.341 2.855 1.905 2.071.948 4.897 2.253 4.283 5.427-.564 2.81-4.283 3.866-7.231 4.715-.783.186-1.554.424-2.306.713-3.754 1.705-16.197 7.845-18.624 15.106a1.233 1.233 0 01-1.199.877zM47.985 140.4a1.248 1.248 0 01-1.242-1.213c-.05-2.068-.45-5.392-.957-9.593-1.428-11.996-3.633-30.12-.443-42.693 2.02-8.003 8.567-15.798 14.327-22.68 1.635-1.962 3.191-3.816 4.533-5.55a26.27 26.27 0 011.87-2.09c1.792-1.86 3.641-3.787 3.327-5.87-.178-1.169-.664-1.426-.82-1.533-.45-.25-1.614-.52-4.284.592-1.37.571-2.491 1.805-3.669 3.117a19.875 19.875 0 01-2.748 2.675c-1.792 1.334-4.148 2.14-6.646 3.01-3.69 1.276-7.51 2.596-8.738 5.577a1.219 1.219 0 01-1.613.67 1.236 1.236 0 01-.678-1.611c1.649-4.016 6.203-5.585 10.222-6.983 2.306-.792 4.49-1.548 5.968-2.653.87-.704 1.671-1.49 2.391-2.347 1.314-1.426 2.67-2.96 4.555-3.744 2.812-1.17 4.918-1.32 6.424-.464a4.316 4.316 0 012.056 3.324c.5 3.295-1.991 5.884-3.99 7.96a24.201 24.201 0 00-1.7 1.883c-1.356 1.754-2.933 3.644-4.596 5.627-5.597 6.676-11.936 14.264-13.828 21.703-3.07 12.125-.92 29.956.507 41.781.514 4.279.921 7.638.978 9.828a1.247 1.247 0 01-1.206 1.277zm-30.489 8.765a1.235 1.235 0 01-1.235-1.17c-.606-11.261.25-20.048 1.157-29.356 1.292-13.28 2.627-27.01-.657-48.663a1.24 1.24 0 011.042-1.426 1.228 1.228 0 011.428 1.04c3.326 21.961 1.977 35.847.67 49.27-.899 9.215-1.748 17.916-1.148 28.986a1.24 1.24 0 01-1.171 1.305l-.086.014z" fill="#331C19"/><path d="M16.125 65.355a1.243 1.243 0 01-1.142-.764c-.47-1.112-1.056-2.646-1.713-4.336-1.492-3.88-3.362-8.701-4.704-11.055-.828-1.427-1.578-2.853-2.313-4.187-1.492-2.745-2.898-5.342-4.747-8.095C-.2 34.394-.307 31.47.456 30.008a2.14 2.14 0 011.878-1.27h.071c6.475 0 15.783 13.922 15.87 14.057.185.278.82 1.427 1.548 2.739-.714-3.88-1.984-9.208-2.855-12.332-.5-1.804-1.15-3.95-1.813-6.176C11.293 14.188 10.87 11.72 12.228 10.7a5.448 5.448 0 014.169-.856 6.02 6.02 0 013.776 1.962c2.72 3.858 4.997 10.234 6.967 15.862.878 2.496 1.713 4.843 2.498 6.74.193.456.414 1.134.664 1.89a32.306 32.306 0 001.121 3.202c.229-1.426.471-3.609.657-6.419.15-2.24.057-5.492-.043-8.937-.314-10.933-.335-17.652 2.984-18.108a4.08 4.08 0 013.205.77c1.863 1.505 2.22 4.679 2.591 9.721.17 2.272.502 4.53.993 6.754a58.2 58.2 0 011.199 8.388c0 .214 0 .585.043 1.063.142 4.493.478 6.29.77 6.96.45-.427 1.764-2.096 3.605-6.582.9-2.19 1.471-3.987 2.014-5.706a48.404 48.404 0 013.098-7.945l.242-.507c.957-2.04 2.949-6.276 5.811-5.107 2.984 1.227 2.334 6.377 1.485 11.112l-.328 2.14c-1.271 8.716-2.856 19.564-7.232 29.406a1.237 1.237 0 11-2.263-1.005c4.24-9.529 5.79-20.192 7.039-28.757l.171-1.199c.036-.242.1-.585.172-.991 1.256-7.054.428-8.216 0-8.387-.2 0-.95.313-2.62 3.865l-.271.578a46.005 46.005 0 00-2.906 7.553c-.564 1.783-1.15 3.63-2.07 5.87-3.212 7.845-5.19 8.48-6.525 8.237-1.991-.385-2.455-3.473-2.64-9.421 0-.435 0-.778-.044-.97a55.766 55.766 0 00-1.149-8.074 48.458 48.458 0 01-1.035-7.06c-.228-3.139-.521-7.047-1.685-7.982a1.5 1.5 0 00-1.306-.235c-1.256.977-.985 10.477-.835 15.577.1 3.509.193 6.818 0 9.1-.6 9.237-1.478 9.672-2.142 9.986a1.609 1.609 0 01-1.428-.093c-1.377-.92-2.191-3.174-3.105-6.02a21.017 21.017 0 00-.585-1.697c-.807-1.933-1.656-4.322-2.556-6.869-1.934-5.477-4.133-11.682-6.66-15.263a3.913 3.913 0 00-2.141-.941 3.458 3.458 0 00-2.013.221c-.05 1.826 2.091 8.987 3.569 13.8.67 2.248 1.32 4.416 1.827 6.227 1.806 6.476 4.562 17.574 2.72 19.179a1.256 1.256 0 01-1.035.285 1.234 1.234 0 01-.87-.627c-1.386-2.56-3.692-6.79-3.977-7.225C13.19 39.593 6.239 31.54 2.59 31.24a5.423 5.423 0 00.95 4.28 95.548 95.548 0 014.896 8.33 131.372 131.372 0 002.277 4.136c1.428 2.518 3.348 7.447 4.869 11.412a207.416 207.416 0 001.684 4.28 1.233 1.233 0 01-.663 1.618 1.15 1.15 0 01-.479.058zM332.467 501.59a2.73 2.73 0 01-.757-.106c-1.791-.507-2.577-2.54-3.569-5.121-.792-2.04-1.685-4.344-3.184-6.127a68.342 68.342 0 00-6.381-6.59 31.871 31.871 0 01-3.091-3.124 31.546 31.546 0 01-3.934-6.633 24.34 24.34 0 00-5.296-7.895c-1.207-1.192-3.727-2.725-6.639-4.501-4.283-2.603-9.616-5.848-13.342-9.628a1.241 1.241 0 010-1.748 1.245 1.245 0 011.756 0c3.512 3.566 8.695 6.712 12.849 9.272 3.056 1.854 5.711 3.459 7.103 4.857a26.916 26.916 0 015.811 8.594 28.444 28.444 0 003.626 6.148 29.926 29.926 0 002.856 2.853 70.655 70.655 0 016.595 6.819c1.757 2.139 2.77 4.714 3.57 6.818.599 1.548 1.349 3.466 1.941 3.63.2.065.557-.064 1.15-.52a4.493 4.493 0 001.563-3.174c.485-3.923-1.72-9.55-3.441-11.704-2.684-3.331-5.475-7.753-3.569-9.878 1.549-1.712 5.318-1.569 12.235.478 6.225 1.833 20.809 6.119 25.392 3.045.964-.649 1.271-1.191 1.235-1.391 0-.042-.221-1.034-4.162-2.089-3.94-1.056-5.554-1.555-7.431-2.14-1.556-.478-3.262-1.006-6.532-1.926-.085 0-8.866-2.91-9.822-4.992a1.427 1.427 0 01.057-1.191c.514-.899 1.285-1.106 11.878-2.276 4.669-.513 9.951-1.091 12.264-1.647 3.648-.87 6.082-2.14 6.682-3.566a1.89 1.89 0 00-.236-1.826c-.714-.478-5.132.171-8.366.635-2.02.285-4.212.606-6.425.834l-2.855.321c-4.283.492-7.681.877-12 .328a1.212 1.212 0 01-.825-.468 1.214 1.214 0 01-.246-.915 1.226 1.226 0 01.464-.832 1.213 1.213 0 01.921-.245c4.012.506 7.281.135 11.422-.336l2.855-.313c2.192-.236 4.347-.543 6.332-.828 6.068-.877 9.723-1.426 10.865.564a4.337 4.337 0 01.371 4.051c-.942 2.218-3.769 3.901-8.381 4.992-2.462.592-7.602 1.156-12.57 1.705-2.856.307-6.125.67-8.253.984a57.49 57.49 0 006.539 2.639c3.305.927 4.997 1.427 6.589 1.947 1.856.571 3.498 1.077 7.346 2.104 3.847 1.027 5.668 2.311 5.967 4.08.157.941-.114 2.382-2.298 3.851-4.883 3.288-16.09.635-27.476-2.724-8.267-2.44-9.566-1.327-9.694-1.191-.172.413.471 2.703 3.655 6.668 1.998 2.489 4.561 8.752 3.969 13.552a6.842 6.842 0 01-2.527 4.842 4.331 4.331 0 01-2.556 1.034z" fill="#331C19"/><path d="M344.631 456.094a1.253 1.253 0 01-.871-.356 1.245 1.245 0 010-1.748c.907-.92 3.484-1.926 8.352-3.78 3.969-1.505 16.055-6.098 15.526-8.002-2.584-1.427-13.563 2.525-20.159 4.878-3.198 1.141-5.96 2.14-7.987 2.703a1.214 1.214 0 01-.944-.108 1.206 1.206 0 01-.367-.315 1.21 1.21 0 01-.217-.433 1.239 1.239 0 01.849-1.533c1.949-.549 4.805-1.569 7.853-2.653 10.886-3.887 18.831-6.519 21.986-4.879a2.688 2.688 0 011.428 1.676c1.056 3.795-6.061 6.812-17.04 10.984-3.062 1.17-6.881 2.618-7.459 3.195a1.237 1.237 0 01-.95.371z" fill="#331C19"/><path d="M341.833 448.826a1.314 1.314 0 01-.793-.285 1.329 1.329 0 01-.164-1.812c.314-.399.885-.713 3.955-2.332 3.376-1.776 8.48-4.457 11.3-6.647 1.57-1.205 1.785-1.968 1.735-2.14-.05-.171-.379-.385-1.021-.478-1.678-.221-9.609 2.333-14.277 4.579-.8.386-1.663.913-2.62 1.491-4.19 2.532-9.922 6.012-17.611 3.381-6.817-2.34-18.452-16.055-26.148-25.127-2.591-3.06-4.64-5.471-5.511-6.255a1.245 1.245 0 01-.41-.855 1.237 1.237 0 01.704-1.183 1.23 1.23 0 01.947-.05c.154.054.295.139.416.248.999.891 2.991 3.238 5.71 6.49 7.067 8.33 18.889 22.274 25.063 24.385 6.596 2.268 11.543-.713 15.519-3.159 1.028-.614 1.964-1.177 2.856-1.598 3.862-1.876 12.906-5.199 15.704-4.8 1.599.235 2.742 1.098 3.056 2.304.271 1.041.043 2.703-2.613 4.757-2.998 2.311-8.216 5.057-11.671 6.875-1.464.771-2.984 1.569-3.27 1.791a1.076 1.076 0 01-.856.42zm-49.791 192.399a1.278 1.278 0 01-.393-.064 1.248 1.248 0 01-.785-1.569c2.605-7.795 5.09-15.776 7.502-23.536 4.826-15.47 9.816-31.468 15.962-46.831 1.313-3.273 3.012-6.575 4.654-9.778 4.555-8.844 9.28-17.995 6.725-28.108-2.228-8.894-7.731-16.939-13.064-24.713-2.191-3.203-4.454-6.512-6.424-9.786-2.82-4.686-5.604-9.692-8.302-14.528-6.789-12.182-13.813-24.785-22.644-35.069-10.186-11.833-21.551-25.099-28.268-38.571a1.24 1.24 0 011.916-1.495c.123.107.224.237.297.382 6.61 13.209 17.846 26.332 27.797 37.908 9.152 10.698 16.24 23.379 23.093 35.661 2.684 4.821 5.461 9.807 8.259 14.457 1.928 3.217 4.076 6.348 6.346 9.664 5.454 7.953 11.094 16.19 13.421 25.512 2.762 11.02-2.142 20.591-6.925 29.842-1.684 3.295-3.283 6.419-4.554 9.571-6.11 15.263-11.086 31.218-15.897 46.645-2.413 7.731-4.904 15.691-7.517 23.536a1.234 1.234 0 01-1.199.87zM222.82 467.812a1.242 1.242 0 01-1.242-1.241c0-8.715-4.183-17.024-8.609-25.818-3.669-7.297-7.467-14.85-8.802-22.824a1.24 1.24 0 011.021-1.426 1.247 1.247 0 011.428 1.02c1.27 7.603 4.996 14.977 8.566 22.11 4.361 8.665 8.873 17.631 8.873 26.931a1.234 1.234 0 01-.359.88 1.241 1.241 0 01-.876.368zm-.735 164.234a29.756 29.756 0 01-7.139-.842c-3.162-.798-6.346-1.576-9.551-2.36-7.367-1.805-14.991-3.674-22.458-5.706-7.466-2.033-14.783-4.522-21.908-6.933-10.964-3.723-22.293-7.567-33.9-9.671a1.252 1.252 0 01-1-1.426 1.25 1.25 0 011.428-.992c11.779 2.14 23.207 6.013 34.265 9.764 7.088 2.404 14.412 4.886 21.758 6.89 7.345 2.004 15.048 3.887 22.4 5.706 3.206.784 6.425 1.562 9.566 2.353 9.394 2.354 20.701-.713 28.804-7.781 6.788-5.927 10.051-13.48 9.187-21.283-2.199-19.77-6.475-35.268-11.008-51.673-2.577-9.35-5.246-19.014-7.695-30.033-.785-3.524-2.634-8.773-4.583-14.329-3.348-9.514-7.138-20.306-7.138-26.732a1.243 1.243 0 011.242-1.241 1.24 1.24 0 011.143.767c.061.15.093.312.092.474 0 6.006 3.726 16.576 7.003 25.912 1.984 5.627 3.854 10.941 4.668 14.614 2.441 10.955 5.097 20.59 7.667 29.905 4.561 16.504 8.859 32.095 11.086 52.066.942 8.501-2.713 17.038-9.994 23.422a37.138 37.138 0 01-23.935 9.129z" fill="#331C19"/><path d="M180.839 571.686c-1.392 0-4.376-.585-11.693-2.403-1.363-.336-2.384-.592-2.698-.649-10.601-1.762-22.715-3.652-32.302-3.652a1.245 1.245 0 01-1.242-1.234 1.232 1.232 0 01.364-.878 1.25 1.25 0 01.878-.363c9.78 0 22.008 1.897 32.709 3.68.335.057 1.427.328 2.855.713 2.192.542 7.31 1.812 9.844 2.211l-.714-1.733c-2.241-5.442-2.555-6.54-2.141-7.389l.656-1.276c1.749-3.345 1.935-3.702-2.405-10.699-4.797-7.767-16.933-28.315-19.089-32.323-4.475-8.295-9.065-15.998-13.513-23.437-12.592-21.09-23.471-39.305-23.271-58.12 0-.713.542-1.377 1.256-1.227a1.252 1.252 0 01.874.374 1.241 1.241 0 01.354.881c-.193 18.116 10.515 36.054 22.922 56.823 4.454 7.467 9.066 15.184 13.563 23.536 2.141 3.987 14.234 24.45 19.017 32.202 4.782 7.753 4.718 8.916 2.491 13.181l-.507.998a53.343 53.343 0 002.085 5.57c1.57 3.809 1.699 4.123.999 4.815a1.58 1.58 0 01-1.292.399zm74.947 7.296a1.229 1.229 0 01-.878-.359 1.225 1.225 0 01-.364-.875c0-3.231.978-6.419 1.927-9.5a45.431 45.431 0 001.535-5.862c.2-1.611.2-3.24 0-4.85a23.825 23.825 0 010-5.285 15.412 15.412 0 011.956-4.893c1.092-2.026 2.142-3.937 1.692-5.663-1.749-6.99-9.737-13.815-13.563-17.117-.714-.599-1.564-1.384-2.534-2.261-3.348-3.053-8.41-7.66-11.536-8.702a1.245 1.245 0 01-.785-1.569 1.22 1.22 0 01.62-.722 1.231 1.231 0 01.95-.062c3.619 1.205 8.709 5.841 12.421 9.215.949.863 1.792 1.633 2.477 2.218 6.425 5.52 12.656 11.561 14.363 18.379.663 2.654-.714 5.2-1.906 7.439a13.419 13.419 0 00-1.692 4.066 21.13 21.13 0 000 4.743 22.078 22.078 0 010 5.449 47.407 47.407 0 01-1.613 6.183c-.893 2.91-1.814 5.913-1.814 8.773a1.234 1.234 0 01-1.256 1.255zm22.422 69.818a40.875 40.875 0 01-13.421-2.318c-8.844-3.124-18.096-10.292-18.674-14.471a37.176 37.176 0 01.086-8.01c.121-1.533.242-3.031.242-4.393a1.242 1.242 0 012.485 0c0 1.426-.129 2.988-.257 4.593a35.503 35.503 0 00-.1 7.467c.335 2.383 7.588 9.13 17.046 12.475 8.624 3.052 18.111 2.667 21.566.406a1.228 1.228 0 011.374.007 1.244 1.244 0 01.52 1.274 1.245 1.245 0 01-.531.788c-2.063 1.333-5.846 2.182-10.336 2.182z" fill="#331C19"/><path d="M275.559 681.387a23.447 23.447 0 01-4.583-.471c-13.427-2.624-26.547-15.598-31.573-23.964-2.227-3.716.164-17.638 3.369-23.287 1.207-2.139 2.556-3.216 4.019-3.216a1.238 1.238 0 011.235 1.241 1.224 1.224 0 01-.359.877 1.236 1.236 0 01-.876.364c-.349 0-1.042.513-1.863 1.954-3.098 5.47-4.883 18.316-3.398 20.79 5.554 9.272 18.56 20.591 29.925 22.824 5.318 1.048 9.944.114 13.77-2.753 2.47-1.855 2.198-4.8 1.884-8.21a21.041 21.041 0 01-.05-5.313 24.385 24.385 0 012.142-5.92c1.056-2.304 2.063-4.479 2.063-6.497a1.242 1.242 0 012.118-.877 1.234 1.234 0 01.359.877c0 2.56-1.164 5.085-2.284 7.531a22.162 22.162 0 00-1.942 5.292 19.17 19.17 0 00.071 4.672c.336 3.63.714 7.746-2.855 10.427a18.168 18.168 0 01-11.172 3.659zm-148.48-75.074a1.245 1.245 0 01-1.171-.856c-4.283-12.723-3.412-28.65 2.078-39.619a1.225 1.225 0 01.717-.62 1.242 1.242 0 011.33.366 1.23 1.23 0 01.173 1.367c-5.211 10.42-5.997 25.576-1.949 37.729a1.218 1.218 0 01-.065.945 1.23 1.23 0 01-.72.617 1.076 1.076 0 01-.393.071z" fill="#331C19"/><path d="M121.99 610.414c-2.013 0-4.027-1.305-6.468-2.853-1.156-.756-2.434-1.583-3.876-2.375a15.988 15.988 0 00-5.361-1.597c-3.327-.549-6.767-1.127-8.43-6.933-2.799-9.799-2.306-22.595-.907-31.303.714-4.387 1.87-9.172 5.182-11.412 2.813-1.883 6.111-.399 8.759.785.714.321 1.392.627 1.999.834 1.87.621 4.519.821 7.324 1.034 6.203.471 13.235 1.006 15.077 6.526a1.242 1.242 0 01-.358 1.33 1.246 1.246 0 01-1.991-.545c-1.321-3.958-7.217-4.408-12.921-4.836-2.962-.228-5.76-.442-7.916-1.162a23.75 23.75 0 01-2.227-.92c-2.199-.977-4.69-2.097-6.368-.977-2.855 1.904-3.74 7.367-4.112 9.707-1.356 8.444-1.841 20.826.843 30.233 1.235 4.279 3.198 4.629 6.424 5.171a18.23 18.23 0 016.154 1.861 57.985 57.985 0 014.026 2.468c2.398 1.555 4.283 2.789 5.661 2.418 1.027-.278 2.063-1.491 3.183-3.723a1.244 1.244 0 01.716-.624 1.227 1.227 0 01.948.068 1.258 1.258 0 01.621.72 1.25 1.25 0 01-.072.949c-1.463 2.931-2.969 4.522-4.747 4.992-.379.105-.77.16-1.163.164zm66.879-35.169a1.25 1.25 0 01-1.035-.549 1.25 1.25 0 01.343-1.719c5.075-3.381 3.512-7.396.343-13.608-.714-1.384-1.428-2.811-1.985-4.187-1.356-3.374-2.463-6.947-3.526-10.399-.978-3.145-1.985-6.419-3.177-9.493-6.182-16.047-14.37-31.639-22.286-46.716-3.248-6.184-6.603-12.574-9.773-18.9l-1.549-3.089c-7.274-14.435-13.563-26.91-13.563-43.506a1.223 1.223 0 01.364-.875 1.233 1.233 0 01.878-.359 1.22 1.22 0 01.876.359 1.22 1.22 0 01.359.875c0 16.026 6.161 28.25 13.285 42.408l1.556 3.088c3.155 6.305 6.51 12.688 9.751 18.858 7.952 15.142 16.169 30.797 22.401 46.98 1.22 3.174 2.241 6.469 3.226 9.65 1.057 3.409 2.142 6.925 3.47 10.213.514 1.291 1.199 2.632 1.884 3.98 2.727 5.321 6.111 11.946-1.171 16.796a1.206 1.206 0 01-.671.193z" fill="#331C19"/><path d="M174.193 583.383c-6.774 0-13.613-2.903-20.287-5.749-8.795-3.737-17.133-7.267-25.078-4.621a1.222 1.222 0 01-.948-.06 1.217 1.217 0 01-.622-.718 1.241 1.241 0 01.785-1.569c8.859-2.953 17.996.935 26.834 4.686 9.679 4.115 18.824 8.01 27.561 3.645a1.234 1.234 0 011.663.556 1.238 1.238 0 01-.549 1.662 20.573 20.573 0 01-9.359 2.168zm22.75 5.834a1.24 1.24 0 01-1.056-.585 153.11 153.11 0 01-1.549-2.596c-3.17-5.42-9.073-15.512-14.334-15.512a1.239 1.239 0 01-1.242-1.241 1.24 1.24 0 011.242-1.241c6.689 0 12.849 10.484 16.483 16.739.578.984 1.077 1.854 1.506 2.539a1.25 1.25 0 01-.393 1.712 1.297 1.297 0 01-.657.185zm66.181-46.245a1.24 1.24 0 01-.815-2.175 1.23 1.23 0 01.422-.236c1.342-.449 2.62-.906 3.869-1.348 5.511-1.947 10.273-3.637 16.811-3.637a1.242 1.242 0 011.148 1.715 1.238 1.238 0 01-1.148.76c-6.117 0-10.707 1.626-15.983 3.501-1.256.45-2.555.906-3.919 1.356a1.053 1.053 0 01-.385.064z" fill="#331C19"/><path d="M272.375 538.051a1.234 1.234 0 01-1.235-1.234c0-2.061-7.802-7.996-11.143-10.527-1.392-1.063-2.555-1.94-3.205-2.518-11.421-9.985-24.271-25.02-31.174-36.503a1.244 1.244 0 011.366-1.84 1.228 1.228 0 01.762.563c6.774 11.284 19.395 26.054 30.695 35.918.621.55 1.742 1.427 3.077 2.404 6.631 5.042 12.135 9.464 12.135 12.503a1.233 1.233 0 01-1.278 1.234z" fill="#331C19"/><path d="M254.458 641.368a1.24 1.24 0 01-1.242-1.241c0-8.388 3.155-16.789 6.203-24.92a127.329 127.329 0 004.469-13.359c2.206-8.801 2.762-17.902 3.305-26.696.357-5.912.714-12.018 1.599-18.044.321-2.276.857-4.708 1.378-7.054.863-3.887 1.756-7.91 1.756-11.469a1.243 1.243 0 011.235-1.241 1.232 1.232 0 01.878.364 1.24 1.24 0 01.364.877c0 3.83-.921 7.981-1.806 12.004-.536 2.41-1.035 4.686-1.349 6.868-.85 5.934-1.221 11.982-1.585 17.831-.543 8.908-1.107 18.123-3.362 27.145a130.073 130.073 0 01-4.562 13.637c-2.969 7.917-6.039 16.104-6.039 24.043a1.247 1.247 0 01-.359.886 1.233 1.233 0 01-.883.369zm20.48 131.454c-5.932 0-12.135-.991-16.333-2.546-7.952-2.931-11.357-13.273-14.355-22.395-1.356-4.122-2.634-8.009-4.19-10.812a52.373 52.373 0 00-4.897-6.534c-4.283-5.199-9.095-11.09-8.873-16.019.271-5.834 2.555-9.329 5.196-13.365a47.706 47.706 0 005.433-10.207c2.784-7.567 6.06-21.19 6.874-28.571a1.28 1.28 0 011.371-1.099 1.239 1.239 0 011.059.886c.045.157.059.321.04.484-.835 7.538-4.176 21.439-7.017 29.156a49.82 49.82 0 01-5.711 10.699c-2.548 3.887-4.561 6.961-4.79 12.124-.185 3.98 4.526 9.722 8.309 14.329a54.174 54.174 0 015.147 6.911c1.671 3.003 2.984 6.997 4.376 11.234 2.855 8.558 6.032 18.329 12.849 20.847 6.675 2.454 19.053 3.431 26.12.899a1.254 1.254 0 011.592.713 1.245 1.245 0 01-.757 1.59 35.524 35.524 0 01-11.443 1.676zm15.726-6.361a1.233 1.233 0 01-1.235-1.234c0-4.073-2.456-7.411-5.054-10.941a52.417 52.417 0 01-3.077-4.501 84.336 84.336 0 01-8.43-20.79l-.293-1.191c-1.699-6.769-2.555-10.171-3.234-17.645a114.12 114.12 0 00-.392-3.16c-.45-3.345-1-7.503-.778-9.529.521-4.621 4.433-16.218 4.597-16.71a1.244 1.244 0 011.091-.841 1.242 1.242 0 011.195.686 1.225 1.225 0 01.062.946c-.042.114-3.99 11.84-4.475 16.198-.193 1.718.364 5.884.771 8.922.171 1.327.328 2.489.399 3.259.664 7.29 1.428 10.413 3.17 17.275l.292 1.191a82.055 82.055 0 008.138 20.12 51.301 51.301 0 002.927 4.279c2.727 3.702 5.54 7.525 5.54 12.41a1.23 1.23 0 01-.743 1.153c-.149.065-.309.1-.471.103z" fill="#331C19"/><path d="M247.719 705.487a6.8 6.8 0 01-2.141-.349c-4.126-1.384-6.639-6.419-8.481-10.135l-.293-.599a1.242 1.242 0 01.168-1.366c.107-.123.236-.224.382-.296a1.226 1.226 0 01.946-.071 1.237 1.237 0 01.717.62l.307.606c1.642 3.31 3.891 7.846 7.039 8.887a5.036 5.036 0 003.955-.457 26.375 26.375 0 004.061-2.696 33.184 33.184 0 013.805-2.589c1.72-.955 7.767-2.032 10.487-.435a3.03 3.03 0 011.591 2.682 1.241 1.241 0 11-2.484 0c0-.171 0-.349-.364-.549-1.749-1.027-6.831-.2-8.031.471a30.69 30.69 0 00-3.505 2.403 29.057 29.057 0 01-4.447 2.932 8.24 8.24 0 01-3.712.941zm24.984 72.984c-6.096 0-12.235-.785-16.254-1.976-10.708-3.181-14.427-13.829-17.989-24.128-1.749-5.064-3.569-10.299-6.182-14.486a25.797 25.797 0 00-3.933-4.429c-2.513-2.446-5.111-4.992-5.818-8.273-.899-4.215 1.306-9.073 3.077-12.981l.507-1.127a1.243 1.243 0 011.634-.628 1.25 1.25 0 01.636 1.634l-.521 1.148c-1.621 3.566-3.641 8.017-2.906 11.412.55 2.56 2.856 4.828 5.126 7.018a27.867 27.867 0 014.283 4.892c2.769 4.422 4.633 9.793 6.424 14.978 3.512 10.156 6.825 19.742 16.347 22.567 9.523 2.824 28.554 2.895 32.637-2.254.365-.471 1.492-1.897-.228-4.879a1.232 1.232 0 01.45-1.69 1.235 1.235 0 011.379.091c.13.1.238.224.32.365 2.141 3.659 1.185 6.177 0 7.646-2.827 3.737-10.858 5.1-18.989 5.1z" fill="#331C19"/><path d="M250.867 759.599a1.217 1.217 0 01-.871-.364 1.237 1.237 0 010-1.754 14.166 14.166 0 017.381-4.094 5.538 5.538 0 012.056.107c1.157.207 1.392.164 1.528-.05 1.128-1.883-1.828-8.181-3.42-11.568-.713-1.52-1.327-2.853-1.62-3.723a79.223 79.223 0 01-2.534-11.605c-1.028-6.076-2.099-12.367-4.74-16.774a29.503 29.503 0 00-4.997-5.706c-2.506-2.439-5.104-4.993-6.496-8.431a1.226 1.226 0 01.018-.955 1.228 1.228 0 01.696-.656 1.255 1.255 0 011.62.713c1.192 2.995 3.491 5.221 5.918 7.574a31.695 31.695 0 015.397 6.241c2.891 4.814 3.997 11.333 5.061 17.638a78.608 78.608 0 002.441 11.24c.257.756.843 2.004 1.521 3.452 2.798 5.949 4.997 11.105 3.298 13.894-1.057 1.762-2.956 1.426-4.098 1.212a4.545 4.545 0 00-1.128-.114 11.73 11.73 0 00-6.11 3.409 1.237 1.237 0 01-.921.314z" fill="#331C19"/><path d="M263.31 750.399a1.28 1.28 0 01-.636-.172 1.246 1.246 0 01-.428-1.704c2.513-4.187 13.377-5.991 18.481-4.707a1.23 1.23 0 01.766.564 1.243 1.243 0 01.141.94 1.266 1.266 0 01-1.506.899c-4.512-1.127-14.02.713-15.755 3.566a1.22 1.22 0 01-1.063.614zm-4.926-9.451a1.234 1.234 0 01-1.106-.713 1.238 1.238 0 01.549-1.662c5.647-2.852 9.858-4.671 16.768-4.671a1.24 1.24 0 01.874 2.116 1.244 1.244 0 01-.874.366c-6.381 0-10.172 1.662-15.654 4.4-.17.1-.361.156-.557.164zm-1.813-10.976a1.24 1.24 0 01-.878-.364 1.25 1.25 0 010-1.754c4.918-4.907 12.735-4.23 15.861-3.716a1.238 1.238 0 01.517 2.229 1.247 1.247 0 01-.923.217c-2.763-.449-9.602-1.077-13.699 3.024a1.236 1.236 0 01-.878.364zm-1.813-10.142a1.243 1.243 0 01-1.203-.928 1.248 1.248 0 01.136-.939 1.23 1.23 0 01.324-.358c5.654-4.28 11.814-4.786 16.561-4.786a1.241 1.241 0 110 2.482c-6.56 0-11.064 1.277-15.076 4.279a1.25 1.25 0 01-.742.25zm-3.113-7.118a1.247 1.247 0 01-1.058-1.892c.085-.139.197-.26.33-.355 2.006-1.462 13.527-8.238 19.688-5.164a1.245 1.245 0 01.564 1.662 1.25 1.25 0 01-1.664.564c-4.319-2.14-13.998 2.667-17.132 4.942-.21.158-.466.243-.728.243zM29.667 627.631a1.252 1.252 0 01-1.206-.941c-3.241-12.967 6.382-31.896 12.756-44.42l1.57-3.102c3.256-6.505 3.77-8.338 5.183-15.691.2-1.063.35-2.247.5-3.481.657-5.363 1.477-12.032 7.652-13.644 5.254-1.362 12.071 2.083 19.952 6.084 7.21 3.659 15.384 7.803 22.472 7.803a1.24 1.24 0 110 2.482c-7.68 0-16.133-4.28-23.557-8.067-7.138-3.616-13.856-7.039-18.203-5.898-4.547 1.184-5.197 6.419-5.818 11.54-.157 1.298-.314 2.539-.528 3.651-1.428 7.532-2.027 9.593-5.404 16.34l-1.57 3.11c-5.825 11.462-15.576 30.669-12.557 42.701a1.24 1.24 0 01-.906 1.505c-.11.022-.223.032-.336.028zm5.218 1.206a1.25 1.25 0 01-1.222-1.447 1.246 1.246 0 01.502-.807c.133-.095.283-.163.442-.2 11.771-2.703 14.99-8.623 18.767-15.47a54.624 54.624 0 015.875-9.136c5.133-6.148 14.627-11.725 22.08-12.966 4.996-.842 10.207.898 14.762 2.439l1.177.392a1.242 1.242 0 01.716.623 1.23 1.23 0 01.063.946 1.23 1.23 0 01-1.09.847 1.246 1.246 0 01-.481-.062l-1.185-.4c-4.483-1.512-9.102-3.067-13.563-2.339-6.939 1.155-15.79 6.362-20.587 12.125a52.462 52.462 0 00-5.604 8.744c-3.87 7.068-7.531 13.744-20.387 16.696a1.23 1.23 0 01-.265.015z" fill="#331C19"/><path d="M85.298 591.136a1.233 1.233 0 01-.87-.364 1.24 1.24 0 010-1.754c.434-.435 1.427-2.447-4.405-10.178a16.16 16.16 0 011.62-21.304 1.23 1.23 0 01.874-.363 1.229 1.229 0 011.143.764 1.23 1.23 0 01-.268 1.346 13.698 13.698 0 00-1.428 18.024c3.27 4.357 7.224 10.448 4.205 13.465-.233.229-.545.36-.871.364z" fill="#331C19"/><path d="M44.18 610.378c-1.764 0-4.762-1.426-9.723-4.172-.778-.421-1.428-.785-1.856-.991a1.245 1.245 0 01-.625-.715 1.236 1.236 0 01.068-.947 1.24 1.24 0 011.663-.556c.45.221 1.128.592 1.95 1.041 2.005 1.098 7.302 3.951 8.565 3.865 2.749-.549 5.604-5.798 7.139-8.615l.514-.942c4.576-8.23 11.864-13.779 18.381-18.123.414-.271.857-.592 1.328-.927 2.249-1.605 5.047-3.566 7.731-3.566a1.222 1.222 0 01.875.359 1.224 1.224 0 01.36.875 1.233 1.233 0 01-1.235 1.241c-1.892 0-4.326 1.74-6.289 3.138-.492.357-.964.713-1.392.977-6.275 4.173-13.27 9.493-17.582 17.26l-.507.92c-1.97 3.616-4.954 9.087-8.844 9.864-.173.02-.348.025-.521.014z" fill="#331C19"/><path d="M55.188 610.079a1.25 1.25 0 01-.879-.364 12.464 12.464 0 00-4.532-2.767 1.242 1.242 0 01-.549-1.992 1.226 1.226 0 01.853-.423 1.24 1.24 0 01.48.068 14.671 14.671 0 015.497 3.36 1.238 1.238 0 010 1.754 1.243 1.243 0 01-.87.364zm3.625-5.713a1.239 1.239 0 01-.885-.364 28.014 28.014 0 00-3.897-2.617 1.285 1.285 0 01-1.098-.2 1.273 1.273 0 01-.523-.984 1.541 1.541 0 01.85-1.291c1.727-.714 6.381 3.295 6.424 3.338a1.253 1.253 0 010 1.754 1.243 1.243 0 01-.87.364zm6.275-7.66a1.244 1.244 0 01-1.113-.713c-.714-1.384-1.65-2.026-2.856-2.853-.542-.364-1.099-.713-1.677-1.205a1.24 1.24 0 01-.417-1.312 1.24 1.24 0 01.224-.429 1.226 1.226 0 011.742-.192c.521.414 1.028.713 1.513 1.077a9.512 9.512 0 013.705 3.787 1.236 1.236 0 01-.557 1.662 1.15 1.15 0 01-.564.178zm7.389-3.759a1.243 1.243 0 01-1.035-.556l-.764-1.162a30.242 30.242 0 00-3.962-5.193 1.24 1.24 0 111.756-1.754 32.44 32.44 0 014.283 5.591l.764 1.142a1.246 1.246 0 01-1.042 1.932zm6.131-1.676a1.242 1.242 0 01-1.242-1.241c0-2.047-1.763-4.236-3.312-6.169-.657-.806-1.278-1.584-1.777-2.333a1.24 1.24 0 012.063-1.376c.464.713 1.042 1.426 1.641 2.14 1.814 2.246 3.87 4.8 3.87 7.717a1.237 1.237 0 01-.357.891 1.24 1.24 0 01-.886.371zm-49.076 36.774c-3.376-.071-5.818-1.298-7.252-3.637-5.254-8.559 5.096-30.013 11.942-44.22 1.428-2.931 2.62-5.428 3.398-7.239 2.334-5.442 3.812-11.519 4.997-16.404 1.185-4.886 2.07-8.488 3.398-9.95 4.133-4.55 7.395-3.238 10.843-1.84.714.299 1.528.613 2.377.899a1.226 1.226 0 01.716.622 1.237 1.237 0 01.063.947 1.23 1.23 0 01-1.571.784c-.892-.299-1.727-.642-2.52-.955-3.276-1.327-5.09-2.069-8.073 1.212-.907.991-1.835 4.821-2.856 8.865-1.206 4.993-2.712 11.169-5.125 16.79-.793 1.84-2.013 4.372-3.448 7.346-5.804 12.025-16.611 34.406-12.057 41.823.978 1.605 2.677 2.404 5.183 2.454a1.253 1.253 0 01.854 2.138c-.23.23-.542.362-.869.365zm497.793-465.086a1.219 1.219 0 01-.714-.207 1.238 1.238 0 01-.349-1.719 4.285 4.285 0 012.412-1.626 4.59 4.59 0 002.97-2.496 1.247 1.247 0 011.61-.335 1.243 1.243 0 01.532 1.555 7 7 0 01-4.283 3.616c-.714.249-.971.363-1.171.663a1.243 1.243 0 01-1.007.549zm-29.874 14.264a1.237 1.237 0 01-1.13-.793 1.243 1.243 0 01.302-1.346 5.671 5.671 0 013.641-1.263c1.57-.135 3.191-.271 5.418-2.589a1.235 1.235 0 011.384-.361 1.241 1.241 0 01.4 2.08c-2.855 2.989-5.246 3.195-6.988 3.345-1.078.086-1.663.157-2.199.635-.231.195-.525.3-.828.292z" fill="#331C19"/></g><defs><clipPath id="a"><path fill="#fff" transform="rotate(-90 375 336)" d="M0 0h711v588H0z"/></clipPath><clipPath id="b"><path fill="#fff" transform="translate(0 6)" d="M0 0h627v777H0z"/></clipPath></defs></svg>