<svg viewBox="0 0 686 805" fill="none" xmlns="http://www.w3.org/2000/svg"><path d="M586.702 379.383c-80.004-20.489-103.147-141.621-251.513-295.308-14.239-14.73-29.092-29.666-47.916-37.93-20.583-9.04-44.483-9.363-67.115-5.226-60.406 10.978-114.065 52.934-146.69 105.855-32.626 52.92-45.527 115.741-44.269 176.595.69 34.745 5.8 69.735-1.368 104.071-6.39 30.776-22.436 59.835-24.733 91.02-3.651 51.688 30.8 96.208 66.807 131.724 23.896 23.487 50.493 46.154 83.354 54.375 48.125 12.023 98.915-8.897 148.19-20.364 39.657-9.215 80.132-12.373 120.157-18.928 47.473-7.783 94.293-20.478 139.558-37.755 27.012-10.318 39.823-17.4 55.253-29.475 43.058-33.893 80.964-96.677 65.422-148.566-3.027-10.231-7.323-17.474-9-19.97-23.976-34.208-86.137-50.118-86.137-50.118z" fill="#F90"/><path fill-rule="evenodd" clip-rule="evenodd" d="M494.649 415.729l108.759-20.854s7.55 13.811 13.075 47.971c2.383 14.713 3.733 35.467 5.019 56.774.691 11.434 4.15 41.577 5.357 54.297 1.998 21.086 15.258 40.269 21.849 73.043 8.114 40.395 8.383 100.296 8.383 100.296l-9.717 4.997-22.012-5.134-2.109-11.656-2.478-7.823s-2.051-24.075-18.933-75.008c-3.359-10.122-13.266-26.274-17.399-37.697-9.585-26.31-16.007-52.062-21.801-69.489-4.345-13.084-9.38-21.556-9.38-21.556l-16.202 67.618-1.276 18.867s4.513 33.68 5.641 64.123a543.168 543.168 0 01-1.133 57.644s-11.341 9.452-20.146 6.764c-8.805-2.689-15.053-17.523-15.053-17.523l-.279-20.97-17.336-102.742s-.406-36.516 1.403-77.002c1.808-40.485 5.768-84.94 5.768-84.94z" fill="#6498C1"/><path fill-rule="evenodd" clip-rule="evenodd" d="M432.119 274.136l23.979-42.927 7.086 1.73s27.886-1.756 39.965 5.192c20.388 11.734 48.506 44.887 66.01 71.788 12.126 18.656 17.784 35.393 17.784 35.393l5.177 16.547s14.531 25.878 12.38 29.942c-6.738 12.726-30.796 23.074-51.722 26.247-23.463 3.548-44.673.264-58.524-3.864-5.193-1.544-2.826-16.378-2.826-16.378l-6.453-16.173s-28.919.701-38.852-2.109c-6.786-1.914-9.86-7.164-11.072-12.789-1.883-8.54.458-17.965.458-17.965l11.905-1.893-18.327-6.088-2.636-5.477-10.297-3.59.269-21.086 25.835 2.873-9.211-17.76-.928-21.613z" fill="#fff"/><path fill-rule="evenodd" clip-rule="evenodd" d="M411.451 171.383l-3.691 8.782s11.399 3.595 19.402 13.959c8.004 10.364 12.617 27.491 12.617 27.491l5.526 7.291s-37.36 8.355-57.87 16.721c-2.22.907-23.04-6.674-24.585-5.271-1.297 1.186-5.273-.665-5.273-.665-5.878 9.526 5.753 22.668 5.753 22.668s-19.229-1.334-23.726-19.647c-1.36-5.53 4.745-6.437 4.745-6.437s-5.8-5.108-1.945-9.91c3.854-4.802 3.97-7.328 5.799-13.179 2.109-6.705 5.731-10.084 8.23-15.192 2.109-4.255 3.243-10.86 3.243-10.86l3.785 4.713s12.18-14.08 25.213-14.444c11.989-.306 22.777-6.02 22.777-6.02z" fill="#331C19"/><path fill-rule="evenodd" clip-rule="evenodd" d="M356.545 239.828s9.933 1.028 18.005-.4a44.609 44.609 0 0014.283-5.33s8.056.396 11.805-1.223c8.842-3.822 10.323-15.625 16.276-16.537 14.483-2.208 12.843 13.142 12.843 13.142l13.598 1.239 11.309 2.209a67.565 67.565 0 00-2.315 17.364c-.079 12.531 1.84 28.651-.453 34.265-2.578 6.326-7.192 2.546-10.36-2.82-1.888-3.205-4.63-8.345-4.63-8.345l-7.845-.501s-6.437 14.666-15.485 15.989c-9.047 1.323-25.645-11.286-25.645-11.286s-6.627 2.483-9.859-1.281c-3.232-3.764 1.582-9.305-3.079-13.791-5.705-5.482-12.301-10.543-14.325-13.178a20.313 20.313 0 01-4.123-9.516z" fill="#FFD7B4"/><path fill-rule="evenodd" clip-rule="evenodd" d="M130.195 237.846l239.894 76.116 40.929 16.584-54.363 37.771-248.772-39.706s-2.004-5.076-1.84-14.686c.163-9.531 2.488-23.553 5.272-34.85 3.301-13.432 7.735-27.207 12.09-34.745 3.005-5.198 6.79-6.484 6.79-6.484z" fill="#fff"/><path fill-rule="evenodd" clip-rule="evenodd" d="M380.054 307.304a10.653 10.653 0 015.725-5.398l-.648 8.155 4.112 1.888.211 6.267 2.953.912 13.708 4.218 4.439 6.389 16.181 5.677 1.382 12.388-27.907 22.873-5.109 4.313-39.801-4.597 1.618-2.003 5.194-8.82 5.683-18.281c1.043-4.8 1.775-9.662 2.194-14.555a86.57 86.57 0 00-.185-13.501l4.561 1.023s3.949-2.941 5.689-6.948z" fill="#586580"/><path fill-rule="evenodd" clip-rule="evenodd" d="M370.675 286.25c1.349-.612 4.381-.359 4.381-.359l2.367 6.242s10.239.132 20.035 5.103c4.577 2.324 7.556 7.427 11.035 10.369a22.867 22.867 0 008.141 4.428 29.176 29.176 0 011.439 9.33c-.126 4.94-1.94 10.412-1.94 10.412l-6.079-1.35-3.19-6.183-16.871-5.024-.833-6.574-5.336-2.393-6.459-.749-2.024 4.508-15.29-3.691 2.283-4.744-.528-7.285 3.659-2.994s-2.13-5.736 5.21-9.046zm-7.798 58.155s18.453-9.489 29.826-7.707c11.372 1.782 17.615 6.294 26.557 9.884a69.133 69.133 0 0015.395 4.017l1.423 20.822s-3.69.354-10.655-.411c-2.204-.242-7.645 1.503-12.944.259-5.298-1.244-22.861-4.218-31.07-3.116-5.141.701-6.464-4.518-6.464-4.518s-6.759.064-9.659-.622c-2.9-.685-3.163-4.127-3.163-4.127s-2.03-1.424-3.274-2.541c-3.127-2.799 2.362-5.931 2.362-5.931l1.666-6.009z" fill="#FFD7B4"/><path fill-rule="evenodd" clip-rule="evenodd" d="M225.694 392.208l18.454 3.389 14.43-.074 52.339 366.541-10.666 1.407-48.316-331.827-4.676-22.272-25.904 338.158-10.544-.849 25.038-339.392-1.387-4.586-91.707 358.253-10.371-3.463 93.31-365.285z" fill="#E6EEFF"/><path fill-rule="evenodd" clip-rule="evenodd" d="M65.203 329.524s-.28-13.443-.727-20.111c-.812-12.241 6.817-46.68 13.339-63.422a178.5 178.5 0 0114.847-29.489l40.276 13.047 2.462 8.371-5.325.601s-4.571 3.437-10.018 25.994c-2.636 10.923-9.954 36.226-10.966 48.598-1.055 13.179-.807 15.636-.807 15.636l4.682 1.054-5.847 6.495-41.916-6.774zm163.175 95.778h22.83l.601 5.066-6.111 2.367-11.636-.164-6.907-2.546 1.223-4.723zm-95.499 333.393l9.765 2.256-7.266 32.025-6.327 1.012-5.003-3.031 8.831-32.262zm77.868-12.741l10.239 1.191-2.383 33.806-5.061 1.208-5.89-2.278 3.095-33.927zm90.717 18.392l9.459-1.481 3.954 32.072-3.791 1.312-6.369-.495-3.253-31.408z" fill="#586580"/><path fill-rule="evenodd" clip-rule="evenodd" d="M505.663 737.988l32.731 12.499s2.441 8.64-.564 10.417c-4.624 2.736-17.715 1.091-28.814 3.474-10.623 2.277-22.07 5.551-32.235 6.658-7.945.864-17.552-.664-21.174-3.432-3.263-2.499-2.768-8.387 1.772-12.383 7.439-6.547 23.251-12.335 32.778-21.819 7.961-7.912 15.506 4.586 15.506 4.586zm116.615 17.449l14.81-12.398 20.193.722 2.636 19.953-6.965 7.38-3.406 8.914s.19 15.899-5.868 19.078c-8.193 4.296-35.483 6.035-41.894-1.977-6.411-8.013 1.961-12.694 9.59-22.599 5.373-7.001 10.904-19.073 10.904-19.073z" fill="#fff"/><path fill-rule="evenodd" clip-rule="evenodd" d="M503.638 703.302c3.343-1.344 7.688.195 10.767 1.797 4.07 2.109 5.525 9.937 5.525 9.937l8.009.965 9.527-1.655s0 16.189.691 23.052c1.054 9.948.416 14.924-1.244 16.837-2.637 3.021-14.468 2.109-24.301 4.007-10.213 1.95-20.43 4.691-20.43 4.691s-1.856-6.241-5.663-10.627c-3.807-4.386-12.126-8.007-12.126-8.007s16.586-7.908 24.3-19.463c3.865-5.825.622-19.8 4.945-21.534zm122.161 25.066s3.944-5.272 8.594-4.555c2.589.395 5.679.417 7.593 1.734 3.59 2.462 4.998 6.658 4.998 6.658l3.037-2.498 4.95-.185 4.329 23.864-7.102 14.65-3.77 17.19s-2.968-5.271-10.76-8.434c-7.793-3.163-25.635-2.066-25.635-2.066s7.629-11.071 10.867-20.285c3.237-9.215 2.899-26.073 2.899-26.073z" fill="#FFDEAD"/><path fill-rule="evenodd" clip-rule="evenodd" d="M234.041 380.968l1.197-14.417s6.748-2.03 11.098-5.862c4.35-3.833 5.272-7.976 5.272-7.976l-8.799-2.383 5.214-14.133 35.236 5.061-5.273 14.012-10.302-1.192a26.746 26.746 0 01-5.246 9.869c-4.023 4.744-10.824 9.104-10.824 9.104l.374 8.26 10.223.411-1.35 11.123s-9.279 3.627-18.606 3.363c-9.327-.263-18.712-4.412-18.712-4.412l-1.539-10.079 12.037-.749z" fill="#586580"/><path d="M436.078 374.195a2.11 2.11 0 01-.907-.201c-3.163-1.46-6.754-1.054-10.545-.595-2.488.295-5.061.6-7.523.316-4.218-.485-6.854-.928-9.591-1.397-2.051-.348-4.27-.722-7.45-1.17-3.421-.48-7.908-.601-11.905-.712-5.799-.158-9.137-.279-10.903-1.012-3.59-1.481-4.086-3.69-4.06-4.871.042-2.019 1.582-3.88 3.955-4.744 5.588-2.041 16.096-2.278 21.168-1.55a2.162 2.162 0 011.794 1.607 2.162 2.162 0 01-.234 1.642 2.17 2.17 0 01-2.171 1.042c-5.014-.717-14.642-.285-19.071 1.333-.436.137-.82.406-1.096.77.426.306.886.56 1.371.759 1.112.459 5.688.585 9.363.685 4.092.111 8.731.238 12.396.749 3.232.459 5.483.838 7.571 1.191 2.81.48 5.235.891 9.358 1.366 1.962.226 4.176-.037 6.517-.317 4.023-.474 8.578-1.012 12.865.965a2.167 2.167 0 01-.907 4.138l.005.006z" fill="#000"/><path d="M369.91 365.507c-2.763 0-5.621-.421-7.413-1.581a4.51 4.51 0 01-2.162-3.843 4.66 4.66 0 011.65-3.379c4.524-4.265 19.935-7.38 33.005-6.716a2.168 2.168 0 01-.226 4.328c-14.547-.78-29.109 3.5-30.116 5.92.748 1.233 8.372 1.302 10.798.258a2.159 2.159 0 011.659-.02 2.175 2.175 0 011.188 1.159 2.178 2.178 0 01.02 1.659 2.16 2.16 0 01-1.159 1.187c-1.265.517-4.197 1.028-7.244 1.028z" fill="#000"/><path d="M362.022 360.473a2.344 2.344 0 01-.527-.063c-3.896-.976-4.903-3.016-5.056-4.55-.343-3.347 3.248-6.352 5.747-7.554 5.752-2.767 17.536-7.29 31.892-6.479a2.176 2.176 0 011.959 2.286 2.173 2.173 0 01-2.206 2.048c-13.382-.77-24.39 3.463-29.768 6.051-1.967.949-3.343 2.668-3.311 3.206 0 0 .337.416 1.798.785a2.167 2.167 0 01-.528 4.27z" fill="#000"/><path d="M433.769 352.602h-.174c-9.532-.769-18.11-4.623-25.676-8.028-5.837-2.636-10.877-4.892-15.111-5.224-8.278-.659-20.826 2.794-24.949 4.744-2.024.959-4.508 3.036-4.698 3.917 0 0 .09.068.196.142a2.171 2.171 0 01-2.5 3.548 4.324 4.324 0 01-2.029-3.996c.363-4.254 7.107-7.496 7.175-7.528 4.745-2.24 17.853-5.856 27.148-5.15 4.982.39 10.339 2.799 16.545 5.593 7.249 3.258 15.463 6.953 24.252 7.66a2.165 2.165 0 011.344 3.732 2.173 2.173 0 01-1.518.596l-.005-.006zM392.966 314.5a2.153 2.153 0 01-1.623-.728 41.698 41.698 0 01-4.471-6.394 20.294 20.294 0 00-2.199-3.237 39.56 39.56 0 00-.796 1.582 28.882 28.882 0 01-1.809 3.284 4.798 4.798 0 01-3.242 2.024 6.438 6.438 0 01-4.64-1.054c-2.926-2.14-2.204-6.737-1.898-8.704.891-5.688 2.979-11.428 11.462-10.827 4.387.311 11.747 2.435 15.997 5.329 1.581 1.055 2.931 2.847 4.518 4.919 2.842 3.69 6.38 8.313 11.826 9.33a2.169 2.169 0 011.461.885 2.179 2.179 0 01.37 1.667 2.161 2.161 0 01-.95 1.419 2.166 2.166 0 01-1.682.294c-7.076-1.329-11.346-6.89-14.462-10.954-1.308-1.703-2.542-3.306-3.522-3.975-3.485-2.372-10.102-4.323-13.861-4.586-4.403-.327-5.953 1.296-6.854 7.174-.559 3.564-.069 4.355.168 4.528.414.226.888.316 1.355.259.29-.048.364-.158.401-.211a27.054 27.054 0 001.497-2.762c1.129-2.262 1.698-3.395 2.832-3.838 3.743-1.455 5.878 2.109 7.76 5.219a38.28 38.28 0 004.002 5.756 2.154 2.154 0 01.358 2.328 2.16 2.16 0 01-1.982 1.273h-.016z" fill="#000"/><path d="M373.321 307.588a2.15 2.15 0 01-1.381-.495 12.27 12.27 0 01-.918-.833c-1.054-1.054-6.327-6.558-7.233-12.33a8.333 8.333 0 012.05-6.916c1.398-1.513 4.113-3.232 9.006-2.868a2.166 2.166 0 11-.322 4.323c-2.531-.195-4.423.321-5.494 1.486a4.06 4.06 0 00-.954 3.3c.527 3.226 3.385 7.317 6.011 9.942.198.186.406.362.622.527a2.165 2.165 0 01-.138 3.447 2.162 2.162 0 01-1.249.391v.026z" fill="#000"/><path d="M376.026 296.234a2.278 2.278 0 01-1.809-.891 2.215 2.215 0 01-.332-.633c-.19-.342-.585-1.001-1.355-2.266a2.17 2.17 0 01.646-3.089 2.182 2.182 0 011.702-.242 2.162 2.162 0 011.343 1.075c2.051 3.358 2.741 4.491.98 5.688-.346.235-.756.36-1.175.358zm-2.051 19.257a5.747 5.747 0 01-2.22-.47c-3.691-1.534-11.42-7.765-12.559-12.925a7.223 7.223 0 011.339-5.836 8.818 8.818 0 015.231-3.342 2.168 2.168 0 012.752 1.603 2.177 2.177 0 01-.337 1.705 2.173 2.173 0 01-1.482.909 4.494 4.494 0 00-2.673 1.687 2.855 2.855 0 00-.596 2.325c.696 3.163 6.854 8.534 10.017 9.863.575.237.812.084.923 0a2.684 2.684 0 00.891-2.072 2.169 2.169 0 012.167-2.14h.032a2.174 2.174 0 012.14 2.198 6.864 6.864 0 01-2.852 5.641 4.949 4.949 0 01-2.773.854z" fill="#000"/><path d="M360.109 312.212c-.114.01-.229.01-.343 0a2.164 2.164 0 01-1.769-1.633 2.167 2.167 0 01-.034-.845c.29-1.85 1.434-3.489 2.578-5.013a2.172 2.172 0 013.602.198 2.167 2.167 0 01-.133 2.406c-.97 1.292-1.639 2.309-1.761 3.084a2.165 2.165 0 01-2.14 1.803zm56.683 19.399a2.18 2.18 0 01-1.647-.8 2.203 2.203 0 01-.462-1.772c1.719-9.041 1.055-12.968-.985-17.871a2.166 2.166 0 011.173-2.833 2.166 2.166 0 012.834 1.173c2.319 5.593 3.163 10.274 1.239 20.337a2.17 2.17 0 01-2.152 1.766zm61.782 51.603c-32.051 0-38.926-3.163-41.225-5.661-5.172-5.578-6.2-25.008-4.017-28.894 1.682-2.994 5.151-2.851 9.174-2.688 2.296.132 4.599.132 6.896 0 1.255-.084 2.799-.169 4.545-.264 8.794-.479 23.509-1.281 31.217-4.064 11.758-4.217 15.09-3.115 23.162 3.163a2.166 2.166 0 01-2.636 3.426c-7.092-5.498-8.963-6.115-19.028-2.488-8.31 3-22.84 3.791-32.457 4.318-1.724.089-3.248.174-4.487.258a64.449 64.449 0 01-7.381 0c-2.489-.1-4.835-.2-5.215.48-1.154 2.409-.474 19.636 3.412 23.816 1.339 1.44 8.467 4.745 45.548 4.218 2.172-.032 4.592 0 7.165 0 14.235.063 35.815.179 41.225-8.187 8.209-12.683 2.689-44.112-16.397-93.412a2.156 2.156 0 01.033-1.661 2.166 2.166 0 011.198-1.151 2.18 2.18 0 011.661.033 2.168 2.168 0 011.152 1.198c19.892 51.382 25.122 83.222 15.991 97.334-6.701 10.353-28.756 10.258-44.884 10.168h-7.081c-2.671.039-5.195.058-7.571.058z" fill="#000"/><path d="M495.118 342.871a2.171 2.171 0 01-2.109-1.582c-2.388-8.735-11.889-24.323-16.455-31.813a113.62 113.62 0 01-1.582-2.636c-11.736-19.663-22.017-40.306-17.773-58.029a2.168 2.168 0 014.218 1.012c-3.891 16.257 6.554 36.822 17.283 54.792.395.675.933 1.555 1.582 2.604 4.666 7.66 14.383 23.601 16.929 32.932a2.166 2.166 0 01-.374 1.893 2.175 2.175 0 01-1.735.848l.016-.021zm-28.439 5.578a2.167 2.167 0 01-1.719-.849c-11.731-15.288-25.023-32.594-30.87-44.075-4.149-8.156-3.954-14.961-3.78-20.96a47.89 47.89 0 00-.148-7.275 2.17 2.17 0 013.464-1.904c.448.333.75.826.844 1.377.262 2.64.32 5.296.174 7.944-.164 5.751-.332 11.698 3.311 18.867 5.662 11.123 19.408 29.025 30.448 43.406a2.162 2.162 0 01-.579 3.159c-.344.214-.74.326-1.145.325v-.015z" fill="#000"/><path d="M533.375 421.501c-19.081 0-36.785-3.442-41.125-6.463-4.339-3.02-4.181-8.197-4.117-12.809a30.701 30.701 0 00-.169-4.803c-.575-3.6-2.568-9.573-5.083-15.208a2.173 2.173 0 013.965-1.766c2.014 4.523 4.64 11.502 5.399 16.3a34.23 34.23 0 01.227 5.535c-.058 3.879-.106 7.538 2.267 9.198 4.65 3.258 43.139 9.837 69.068 1.793 24.622-7.628 39.016-16.822 38.489-24.597-.19-2.784-2.758-7.486-5.478-12.467-3.064-5.615-6.538-11.977-8.326-18.398-12.305-44.307-49.929-86.195-65.556-102.173-18.665-19.067-36.707-20.485-52.197-20.348a32.043 32.043 0 01-10.144-1.492c-2.494-.733-3.522-1.054-5.647.058a2.168 2.168 0 11-1.972-3.864c3.659-1.871 6.058-1.17 8.837-.358a28.238 28.238 0 008.884 1.323c17.557-.169 36.411 2.33 55.323 21.65 15.817 16.194 54.058 58.741 66.653 104.018 1.651 5.946 4.999 12.077 7.951 17.486 3.085 5.645 5.747 10.543 6 14.233.691 10.216-14.056 20.527-41.525 29.035-9.506 2.995-20.837 4.117-31.724 4.117z" fill="#000"/><path d="M530.744 280.82a2.175 2.175 0 01-2.014-1.366c-6.169-15.424-19.192-26.073-34.84-28.466a2.168 2.168 0 11.659-4.286c16.924 2.599 31.566 14.539 38.209 31.155a2.172 2.172 0 01-2.014 2.973v-.01zm95.799 449.319a2.17 2.17 0 01-1.85-1.028c-1.582-2.546-1.862-5.092-2.167-7.791-.269-2.388-.528-4.855-1.761-7.739-1.144-2.715-1.946-7.644-3.048-14.454-1.734-10.707-4.107-25.372-9.358-41.645-8.489-26.3-12.854-36.248-21.67-52.784-5.61-10.543-11.488-30.154-17.71-50.939-3.654-12.193-7.434-24.808-11.177-35.546-10.961-31.408-16.26-36.795-26.278-45.093a2.168 2.168 0 012.768-3.337c11.436 9.489 16.782 15.984 27.606 47.007 3.775 10.827 7.566 23.484 11.231 35.725 6.163 20.559 11.978 40 17.398 50.143 8.964 16.795 13.382 26.884 21.971 53.49 5.351 16.595 7.755 31.444 9.49 42.288 1.017 6.273 1.819 11.228 2.757 13.469 1.461 3.458 1.793 6.368 2.109 8.93.269 2.393.485 4.28 1.545 6.004a2.165 2.165 0 01-1.84 3.305l-.016-.005zm19.957 3.147a2.171 2.171 0 01-.211-4.328c6.089-.601 8.826-2.077 9.137-2.635 1.244-11.297-2.853-58.804-4.92-74.656-4.344-33.279-10.318-49.025-15.59-62.968-2.351-6.216-4.576-12.083-6.453-18.978-4.218-15.467-6.939-53.074-8.921-80.533-.875-12.125-1.629-22.552-2.294-27.939-4.028-32.784-7.877-43.933-14.235-62.4l-1.202-3.479a2.164 2.164 0 011.347-2.754 2.17 2.17 0 012.755 1.347l1.197 3.474c6.469 18.735 10.376 30.047 14.462 63.258.675 5.472 1.434 15.968 2.309 28.129 1.972 27.28 4.677 64.645 8.784 79.706 1.819 6.673 4.007 12.451 6.327 18.566 5.356 14.138 11.43 30.164 15.817 63.944 1.856 14.185 6.3 63.258 4.903 75.804-.475 4.265-7.329 5.799-12.996 6.384l-.216.058zM532.584 459.04a2.175 2.175 0 01-2.146-1.856c-.032-.216-3.163-21.803-3.438-37.317a2.165 2.165 0 012.109-2.209h.037a2.165 2.165 0 012.167 2.109c.274 15.235 3.364 36.558 3.396 36.769a2.17 2.17 0 01-1.835 2.462c-.096.02-.193.034-.29.042zm-26.989 245.511a2.177 2.177 0 01-2.109-1.697c-.817-3.69-.833-7.623-.849-12.188.07-4.567-.162-9.133-.695-13.669-1.392-10.432-4.181-30.412-7.261-46.98l-2.108-11.192c-5.594-29.942-7.693-41.118-7.978-61.018-.411-27.865 2.162-97.929 7.129-144.276a2.166 2.166 0 012.388-1.924 2.166 2.166 0 011.924 2.388c-4.95 46.189-7.513 115.973-7.107 143.749.285 19.505 2.362 30.612 7.909 60.285l2.109 11.197c3.095 16.658 5.894 36.722 7.291 47.196.562 4.723.809 9.478.739 14.233 0 4.318 0 8.039.743 11.26a2.173 2.173 0 01-1.645 2.589c-.158.034-.319.05-.48.047z" fill="#000"/><path d="M527.291 717.087a65.428 65.428 0 01-7.766-.454 2.149 2.149 0 01-1.444-.816 2.17 2.17 0 01-.179-2.401 2.179 2.179 0 011.307-1.022 2.16 2.16 0 01.843-.062c10.118 1.265 17.789-.348 18.585-1.645 2.257-11.513.949-53.854-.111-69.368-.838-12.209-1.871-21.582-2.704-29.11-1.582-14.507-2.637-24.096-.712-38.54 2.894-21.571 15.532-69.299 16.065-71.318a2.178 2.178 0 012.662-1.555 2.176 2.176 0 011.556 2.662c-.132.495-13.102 49.489-15.965 70.791-1.872 13.917-.891 22.789.728 37.486.833 7.57 1.877 16.985 2.715 29.289.991 14.444 2.488 58.029 0 70.591-.87 4.391-8.773 5.472-15.58 5.472z" fill="#000"/><path d="M474.293 767.783c-8.178 0-18.67-1.386-20.969-7.032-2.636-6.41 5.621-10.828 17.004-16.943 3.163-1.703 6.764-3.632 10.36-5.735l1.054-.607c6-3.468 14.236-8.223 17.431-19.225a35.177 35.177 0 001.213-9.146c.094-3.005.179-5.598 2.077-7.233 1.771-1.518 4.339-1.433 6.374-1.191 8.842 1.054 11.431 8.793 12.538 12.093.124.422.274.835.448 1.239a2.166 2.166 0 01-1.738 3.159 2.18 2.18 0 01-1.582-.501 2.169 2.169 0 01-.529-.66 14.235 14.235 0 01-.711-1.861c-1.366-4.075-3.301-8.482-8.964-9.162-2.351-.285-2.931.095-3.026.174-.453.39-.527 2.351-.569 4.08a39.175 39.175 0 01-1.382 10.216c-3.69 12.678-13.181 18.15-19.428 21.772l-1.055.601c-3.691 2.14-7.297 4.085-10.497 5.798-8.325 4.465-16.181 8.688-15.042 11.482 1.645 4.048 16.74 5.24 24.986 3.801 5.725-.997 11.33-2.473 16.75-3.896 6.385-1.682 12.411-3.268 17.926-3.864 2.204-.243 4.439-.369 6.601-.485 7.909-.438 12.764-.954 13.128-4.402.222-2.108 0-5.271-.348-9.647-.469-6.204-1.112-14.697-.922-26.268a2.166 2.166 0 012.167-2.108h.036a2.165 2.165 0 012.109 2.203c-.184 11.371.449 19.747.913 25.868.347 4.617.601 7.954.337 10.432-.78 7.38-9.127 7.828-17.204 8.271-2.109.116-4.281.237-6.369.464-5.177.564-11.072 2.108-17.277 3.748-5.505 1.45-11.199 2.947-17.109 3.975-2.891.42-5.81.617-8.731.59z" fill="#000"/><path d="M474.124 773.171c-7.829 0-18.042-1.181-21.617-6.437-1.339-1.961-2.309-5.324.654-10.211a2.172 2.172 0 012.222-1.151 2.165 2.165 0 011.826 1.711 2.17 2.17 0 01-.357 1.691c-2.136 3.521-1.113 5.024-.775 5.514 3.416 5.013 20.404 5.087 26.594 4.017 5.725-.996 11.325-2.472 16.739-3.896 6.385-1.681 12.417-3.268 17.927-3.869 2.636-.29 5.362-.427 8.008-.559 3.628-.19 12.127-.622 12.09-2.061-.042-3.247-.248-5.535-.406-7.38a95.006 95.006 0 01-.179-2.23 2.171 2.171 0 01.544-1.57 2.158 2.158 0 011.496-.723 2.138 2.138 0 012.288 2.035c.037.638.1 1.328.169 2.108.169 1.914.38 4.291.427 7.697.079 5.625-7.466 6.009-16.207 6.452-2.589.132-5.273.269-7.761.527-5.178.564-11.072 2.109-17.278 3.748-5.509 1.45-11.198 2.947-17.103 3.975-3.082.428-6.19.633-9.301.612z" fill="#000"/><path d="M491.586 764.747a2.165 2.165 0 01-2.157-2.009c-.306-4.106-1.829-6.668-3.047-8.724-.997-1.671-1.851-3.116-1.524-4.803.385-1.966 2.578-3.236 6.575-5.545 3.627-2.109 8.594-4.966 12.706-8.841 7.603-7.179 11.225-15.609 13.381-20.643a2.164 2.164 0 011.188-1.159 2.172 2.172 0 012.819 1.208 2.17 2.17 0 01-.021 1.659c-2.293 5.345-6.131 14.291-14.393 22.088-4.482 4.217-9.701 7.238-13.508 9.441a38.55 38.55 0 00-4.418 2.773c.168.337.595 1.054.922 1.581 1.297 2.188 3.264 5.499 3.644 10.617a2.176 2.176 0 01-2.004 2.325l-.163.032z" fill="#000"/><path d="M491.328 747.714a2.172 2.172 0 01-1.582-.712c-3.063-3.384-8.193-4.401-8.246-4.412a2.166 2.166 0 11.802-4.259c.268.047 6.601 1.27 10.66 5.762a2.163 2.163 0 01-1.581 3.621h-.053zm9.712-6.51a2.173 2.173 0 01-1.735-.865c-1.239-1.65-5.936-3.036-8.884-3.495a2.156 2.156 0 01-1.417-.864 2.165 2.165 0 01-.1-2.408 2.166 2.166 0 012.187-1.013c1.471.232 8.963 1.581 11.684 5.171a2.177 2.177 0 01.204 2.272 2.175 2.175 0 01-1.939 1.202zm7.66-7.096a2.174 2.174 0 01-1.254-.395l-1.213-.875c-2.847-2.066-4.413-3.205-8.383-3.405a2.175 2.175 0 01-1.933-1.436 2.162 2.162 0 01.083-1.656 2.172 2.172 0 011.23-1.113c.268-.096.552-.137.836-.123 5.272.258 7.666 2.008 10.714 4.217l1.175.843a2.168 2.168 0 01.028 3.523 2.165 2.165 0 01-1.283.415v.005zm5.916-9.878c-.229 0-.457-.038-.675-.111-.068 0-7.239-2.346-12.464-2.936a2.173 2.173 0 01-1.908-2.404 2.112 2.112 0 011.548-1.856c.277-.075.566-.093.851-.052 5.662.643 13.007 3.026 13.318 3.126a2.173 2.173 0 01-.67 4.217v.016zm108.717 75.662c-2.109 0-4.155-.095-6.137-.28-4.978-.453-13.619-1.892-15.575-6.373-2.858-6.558-.496-9.431 4.218-15.156a183.2 183.2 0 004.502-5.64c4.688-6.163 10.793-16.131 12.586-23.949 1.618-7.085 1.513-13.41 1.286-18.793-.1-2.414 1.16-4.586 3.554-6.099 4.091-2.594 10.544-2.762 15.042-.406a10.801 10.801 0 015.905 9.489c.01.286-.036.572-.136.841a2.172 2.172 0 01-1.973 1.41 2.198 2.198 0 01-2.251-2.109 6.442 6.442 0 00-3.596-5.841c-3.491-1.839-8.267-1.312-10.698.227-1.054.67-1.582 1.429-1.539 2.256.242 5.657.348 12.336-1.398 19.937-1.94 8.498-8.435 19.104-13.36 25.609-1.755 2.315-3.3 4.186-4.603 5.767-4.56 5.546-5.383 6.548-3.585 10.67.491 1.128 4.092 3.068 11.995 3.79 11.451 1.055 22.871-1.212 25.46-5.055 2.721-4.028 3.164-6.51 4.471-13.891l.295-1.681c1.102-6.152 3.164-10.311 5.199-14.334.97-1.934 1.882-3.763 2.689-5.798 1.46-3.69.242-9.826-.939-15.736-.632-3.163-1.286-6.468-1.581-9.568a2.157 2.157 0 01.489-1.586 2.156 2.156 0 011.467-.775 2.176 2.176 0 011.586.488 2.176 2.176 0 01.776 1.467c.274 2.873.907 6.052 1.518 9.125 1.361 6.853 2.636 13.28.717 18.172-.875 2.214-1.877 4.217-2.847 6.151-1.961 3.922-3.812 7.623-4.803 13.179l-.295 1.671c-1.355 7.618-1.914 10.77-5.146 15.567-3.448 5.172-13.561 7.254-23.293 7.254z" fill="#000"/><path d="M625.22 805c-9.633 0-20.151-1.739-24.064-5.05-2.224-1.882-3.432-4.117-3.595-6.637-.29-4.407 2.878-7.944 3.016-8.092a2.16 2.16 0 012.337-.583 2.162 2.162 0 011.229 1.116 2.16 2.16 0 01-.356 2.382s-2.077 2.362-1.898 4.919c.09 1.312.77 2.483 2.072 3.59 3.396 2.873 17.963 5.108 29.468 3.511 5.531-.765 9.49-2.367 10.861-4.397 1.713-2.546 1.835-4.186 2.077-7.449.164-2.553.467-5.096.907-7.617 1.091-6.073 4.218-9.884 6.743-12.952 1.334-1.624 2.489-3.026 3.048-4.407 1.318-3.226.132-9.926-.432-12.235a2.16 2.16 0 01.244-1.646 2.178 2.178 0 012.184-1.031 2.17 2.17 0 011.789 1.622c.243.991 2.315 9.821.238 14.908-.807 1.993-2.22 3.69-3.691 5.53-2.315 2.81-4.94 6.004-5.826 10.96a66.87 66.87 0 00-.854 7.179c-.258 3.511-.448 6.047-2.805 9.547-2.151 3.163-6.812 5.272-13.861 6.268a65.528 65.528 0 01-8.831.564z" fill="#000"/><path d="M647.491 785.206a2.182 2.182 0 01-1.187-.353 2.181 2.181 0 01-.801-.944c-1.408-3.2-3.801-4.434-6.116-5.625-2.183-1.123-4.65-2.393-5.04-5.351-.406-3.068.68-5.761 2.177-9.488.891-2.204 1.898-4.703 2.9-7.96 2.61-8.498 3.59-16.395 3.611-19.637.037-4.528 7.382-7.143 10.519-8.055a2.172 2.172 0 012.753 1.456 2.163 2.163 0 01-1.546 2.704c-3.495 1.022-7.16 2.983-7.381 3.958 0 2.974-.838 11.208-3.801 20.849-1.055 3.432-2.141 6.131-3.022 8.303-1.297 3.226-2.156 5.361-1.903 7.301.084.638.896 1.118 2.726 2.056 2.567 1.323 6.079 3.131 8.109 7.739a2.174 2.174 0 01-1.988 3.041l-.01.006z" fill="#000"/><path d="M636.128 774.172c-.177 0-.355-.023-.527-.068-4.033-1.018-15.559-3.226-20.409-1.255a2.17 2.17 0 01-2.816-2.851c.224-.53.649-.949 1.181-1.166 7.028-2.862 21.48.659 23.104 1.054a2.17 2.17 0 011.631 2.369 2.169 2.169 0 01-2.158 1.901l-.006.016zm2.135-10.353a2.265 2.265 0 01-.643-.1c-2.973-.928-11.631-2.926-15.943-1.055a2.16 2.16 0 01-2.371-.438 2.163 2.163 0 01-.655-1.526 2.159 2.159 0 01.614-1.542c.199-.204.436-.367.698-.479 6.554-2.81 17.694.527 18.949.917a2.172 2.172 0 01-.649 4.217v.006zm3.07-9.088c-.265 0-.528-.051-.775-.148-2.784-1.054-10.84-3.485-14.678-1.835a2.17 2.17 0 01-2.85-1.136 2.16 2.16 0 01.439-2.369c.198-.204.435-.367.697-.48 6.153-2.636 16.761 1.313 17.952 1.771a2.174 2.174 0 01-.785 4.218v-.021zm1.571-9.236a2.352 2.352 0 01-.528-.069c-3.986-1.012-11.383-2.319-14.235-1.497a2.168 2.168 0 11-1.197-4.169c4.935-1.413 15.337 1.165 16.508 1.465a2.164 2.164 0 011.631 2.369 2.169 2.169 0 01-2.158 1.901h-.021zm-188.688-510.98a59.545 59.545 0 01-12.48-1.861 2.187 2.187 0 01-1.33-1.007 2.182 2.182 0 01.78-2.982 2.17 2.17 0 011.652-.228 54.89 54.89 0 0011.483 1.718l.037 2.172-.142 2.188zm-7.308 41.524c-.177 0-.354-.019-.527-.058-.095 0-9.391-2.199-16.724-.243a2.175 2.175 0 01-1.655-.222 2.174 2.174 0 01-1.067-2.177 2.19 2.19 0 01.839-1.444c.228-.174.488-.301.765-.374 8.436-2.246 18.453.111 18.854.216a2.164 2.164 0 011.654 2.374 2.163 2.163 0 01-2.181 1.901l.042.027zm-21.586-36.653a2.142 2.142 0 01-1.466-.57 2.149 2.149 0 01-.702-1.504 2.145 2.145 0 01.571-1.558c3.69-4.023 4.428-9.684 1.787-13.77-1.524-2.361-4.002-3.922-6.174-3.806-1.998.042-3.796 1.323-5.193 3.69a2.183 2.183 0 01-1.325 1 2.169 2.169 0 01-2.413-3.198c2.172-3.69 5.309-5.767 8.841-5.841 3.781-.068 7.55 2.14 9.907 5.799 3.691 5.741 2.795 13.574-2.235 19.051a2.157 2.157 0 01-1.598.707z" fill="#000"/><path d="M419.408 230.477a2.166 2.166 0 01-2.109-1.619 11.234 11.234 0 01-.143-4.865 2.17 2.17 0 014.218 1.023 6.914 6.914 0 00.132 2.751 2.182 2.182 0 01-.39 1.872 2.18 2.18 0 01-1.719.838h.011zm-6.95 60.844c-2.91 0-5.631-.997-7.871-2.04a158.582 158.582 0 01-15.897-8.64c-1.513-.949-3.058-.912-4.85-.87-1.793.042-3.807.089-5.647-1.054-2.873-1.814-2.926-4.887-2.968-7.597a17.316 17.316 0 00-.39-4.054c-.696-2.593-1.055-3.31-7.018-8.086-.649-.527-1.281-1.012-1.898-1.492-4.998-3.885-9.311-7.243-11.879-16.711a2.164 2.164 0 01.769-2.283 2.163 2.163 0 013.417 1.15c2.189 8.071 5.616 10.733 10.355 14.418l1.946 1.528c6.327 5.072 7.445 6.426 8.494 10.354.391 1.671.568 3.386.527 5.102.042 2.446.137 3.49.949 4.002.812.511 1.835.437 3.232.4 2.067-.042 4.64-.105 7.255 1.534a156.748 156.748 0 0015.427 8.382c5.272 2.451 9.374 2.794 13.745-3.047 4.64-6.205 10.075-17.475 11.478-26.996a2.167 2.167 0 012.462-1.829 2.173 2.173 0 011.83 2.462c-1.582 10.712-7.482 22.52-12.301 28.962-3.643 4.871-7.55 6.405-11.167 6.405z" fill="#000"/><path fill-rule="evenodd" clip-rule="evenodd" d="M385.748 255.522c-1.113-1.945-3.659-3.3-5.694-3.015-2.036.284-2.789 2.108-1.682 4.032 1.107 1.924 3.659 3.3 5.694 3.016 2.035-.285 2.784-2.088 1.682-4.033z" fill="#000"/><path d="M369.71 252.612a2.168 2.168 0 01-1.977-3.047c1.93-4.354 6.216-7.76 10.429-8.276a2.166 2.166 0 11.527 4.301c-2.689.332-5.7 2.794-6.997 5.73a2.175 2.175 0 01-1.982 1.292z" fill="#000"/><path fill-rule="evenodd" clip-rule="evenodd" d="M394.77 275.353s8.662 6.548 12.97.243c4.713-6.901-2.552-13.959-2.552-13.959s-2.489 4.365-5.23 8.186a35.701 35.701 0 01-5.188 5.53z" fill="#fff"/><path d="M402.604 280.504c-4.471 0-8.636-3.042-9.143-3.421a2.19 2.19 0 01-.62-.739 2.167 2.167 0 01.531-2.651 33.27 33.27 0 004.824-5.135c2.636-3.69 5.083-7.954 5.109-7.996a2.16 2.16 0 011.58-1.07 2.16 2.16 0 011.815.59c2.963 2.878 7.382 10.084 2.832 16.737a8.097 8.097 0 01-5.457 3.569c-.486.08-.979.119-1.471.116zm-4.255-5.525c1.513.749 3.416 1.402 5.035 1.128a3.718 3.718 0 002.568-1.734c2.256-3.305.896-6.758-.528-8.962-.98 1.582-2.314 3.69-3.727 5.657a31.995 31.995 0 01-3.348 3.911zm41.283-42.178a43.462 43.462 0 01-8.467-1.012 2.164 2.164 0 01-1.875-2.606 2.16 2.16 0 011.883-1.7 2.16 2.16 0 01.893.089c4.218.896 8.774 1.154 10.508.664a13.82 13.82 0 01-5.641-6.331 51.81 51.81 0 01-2.341-6.616c-.854-2.741-1.914-6.152-3.385-9.968-2.937-7.607-11.515-20.912-25.049-22.494a2.16 2.16 0 01-1.83-1.574 2.171 2.171 0 012.357-2.738c15.591 1.829 25.308 16.732 28.592 25.245 1.524 3.949 2.636 7.439 3.485 10.243a50.119 50.119 0 002.109 6.01 9.731 9.731 0 004.102 4.559c.891.528 1.898 1.176 2.241 2.462a3.98 3.98 0 01-.896 3.891c-1.387 1.423-3.965 1.876-6.686 1.876zm-73.877 9.552a56.429 56.429 0 01-10.17-.964c-9.121-1.677-14.457-4.745-15.865-9.062-1.112-3.427.322-7.264 4.266-11.402a2.17 2.17 0 012.357-.539 2.17 2.17 0 011.211 1.144 2.19 2.19 0 01.047 1.665 2.173 2.173 0 01-.452.718c-1.898 1.993-4.012 4.84-3.285 7.075.844 2.588 5.41 4.829 12.528 6.131 17.546 3.226 28.629-2.747 34.982-8.614-6.327 2.741-14.905 4.454-24.032.459a2.175 2.175 0 01-1.044-2.829 2.171 2.171 0 012.789-1.146c15.396 6.737 29.658-6.105 29.805-6.231a2.166 2.166 0 013.427 2.514c-.121.238-10.207 21.076-36.564 21.081z" fill="#000"/><path d="M395.586 236.054a23.804 23.804 0 01-5.33-.654 2.166 2.166 0 01.964-4.217c4.329.991 7.688.622 9.986-1.097 3.132-2.34 3.427-6.599 3.427-6.642a2.173 2.173 0 014.334.232c0 .253-.374 6.263-5.119 9.853-2.236 1.676-4.998 2.525-8.262 2.525zm-30.331 29.078h-.127c-.527 0-13.059-.859-20.968-10.259-4.561-5.424-6.496-9.926-5.921-13.774.575-3.848 3.622-5.857 5.077-6.795.222-.142.412-.264.528-.369a2.17 2.17 0 013.425 1.969 2.169 2.169 0 01-.736 1.436c-.222.174-.528.375-.881.607-1.197.774-2.842 1.834-3.163 3.795-.259 1.724.39 4.918 4.951 10.338 3.342 3.974 7.797 6.157 11.425 7.343-3.591-4.513-7.524-11.455-5.763-18.804a2.168 2.168 0 014.218 1.012c-2.336 9.737 9.174 19.579 9.29 19.679a2.167 2.167 0 01-1.397 3.827l.042-.005zm-2.236-70.37a2.175 2.175 0 01-2.149-2.413c.045-.405.203-.789.457-1.109 7.987-10.015 16.961-15.087 28.244-15.904 16.988-1.217 20.035-5.055 20.072-5.092a2.107 2.107 0 012.694-.917 2.233 2.233 0 011.218 2.693c-.169.559-4.171 13.706-15.659 15.378a2.187 2.187 0 01-1.661-.373 2.161 2.161 0 01-.883-1.455 2.166 2.166 0 01.438-1.644c.18-.231.405-.423.66-.565.256-.141.538-.23.829-.26 4.218-.601 7.192-3.484 9.132-6.326-3.512 1.202-8.747 2.32-16.529 2.879-10.123.732-17.884 5.134-25.165 14.28a2.186 2.186 0 01-1.698.828z" fill="#000"/><path d="M348.051 218.742a2.171 2.171 0 01-2.162-2.029c-.369-5.641 2.562-9.974 5.151-13.796a33.699 33.699 0 003.353-5.698 49.021 49.021 0 003.048-11.519 2.175 2.175 0 011.449-1.787 2.179 2.179 0 012.242.517c.263.269 6.416 6.705 2.889 16.806a2.169 2.169 0 11-4.097-1.429 13.277 13.277 0 00.564-7.291 49.04 49.04 0 01-2.109 6.363 37.407 37.407 0 01-3.769 6.468c-2.41 3.559-4.682 6.927-4.413 11.071a2.166 2.166 0 01-2.02 2.303l-.126.021z" fill="#000"/><path fill-rule="evenodd" clip-rule="evenodd" d="M427.88 275.221l6.59-19.399a39.833 39.833 0 011.946 10.28c.39 6.088-.844 7.28-.844 7.28l-7.692 1.839z" fill="#000"/><path d="M386.481 219.317a2.164 2.164 0 01-2.137-1.901 2.165 2.165 0 011.61-2.364c9.701-2.577 14.762-8.587 18.485-14.127a2.165 2.165 0 013.007-.599 2.171 2.171 0 01.599 3.008c-4.144 6.215-9.881 12.962-20.979 15.909-.19.053-.388.078-.585.074zm61.429 70.116c-3.691 0-7.566-3.094-10.287-8.403a2.158 2.158 0 01-.134-1.653 2.173 2.173 0 012.729-1.398 2.168 2.168 0 011.265 1.075c2.362 4.607 5.33 6.489 7.059 5.946 1.914-.596 3.427-4.391 2.5-11.534-1.967-15.156-3.243-32.114 2.214-43.032a2.168 2.168 0 013.88 1.94c-4.966 9.927-3.564 26.885-1.792 40.533 1.139 8.74-.923 14.808-5.515 16.236a6.442 6.442 0 01-1.919.29zm-6.512 26.432h-.116c-5.678-.301-16.587-1.286-21.432-3.089-2.494-.928-3.69-1.239-4.972-.295a2.171 2.171 0 01-2.604-3.474c3.284-2.457 6.638-1.208 9.089-.296 3.622 1.35 12.881 2.441 20.151 2.821a2.173 2.173 0 01-.116 4.338v-.005zM428.56 351.19a2.005 2.005 0 01-.29 0 2.168 2.168 0 01-1.861-2.436c1.16-8.592-1.118-11.197-1.645-11.682l-15.443-4.744a2.163 2.163 0 01-1.277-1.06 2.172 2.172 0 01-.154-1.652 2.163 2.163 0 011.06-1.277 2.172 2.172 0 011.652-.154l15.765 4.871c.111.031.219.073.321.126.596.295 5.758 3.263 4.018 16.173a2.164 2.164 0 01-2.146 1.835zm-71.404 18.703a2.38 2.38 0 01-.337-.027l-77.467-12.187-2.985.648c-.264.05-.536.05-.801 0l-31.539-4.997a2.161 2.161 0 01-.876-.348l-1.924-1.308-132.484-20.843c-2.637-.359-2.637-3.938-2.637-5.467 0-10.785 14.726-88.087 23.958-89.305.315-.042.635-.015.939.079l239.002 75.193a2.177 2.177 0 011.279 1.064 2.156 2.156 0 01.148 1.657 2.168 2.168 0 01-2.729 1.412L130.67 240.587c-5.683 6.901-21.927 76.047-20.246 86.116l131.952 20.765c.314.049.613.168.876.348l1.929 1.307 30.665 4.881 2.978-.648c.263-.061.536-.07.802-.026l77.852 12.251a2.166 2.166 0 011.797 2.309 2.17 2.17 0 01-2.135 2.003h.016zM109.381 326.54h.084-.084z" fill="#000"/><path d="M409.516 344.579c-.1.008-.2.008-.3 0a2.17 2.17 0 01-1.851-2.446c1.756-12.604-.628-15.345-3.164-16.342l-31.824-9.794c.39 4.38.491 12.704-2.14 24.602l-.09.406a2.167 2.167 0 01-4.218-.996l.074-.332c3.733-16.869 1.671-26.168 1.65-26.258a2.168 2.168 0 01.633-2.075 2.165 2.165 0 012.114-.492l35.246 10.849c7.513 2.989 7.26 12.314 6.042 21.049a2.17 2.17 0 01-2.172 1.829zm-16.809 31.951c-.405-.001-.81-.023-1.212-.069l-35.515-4.47a2.17 2.17 0 01-1.471-3.448c.026-.031 2.483-3.379 5.336-9.857a2.16 2.16 0 012.031-1.295 2.172 2.172 0 011.52.667c.197.206.351.448.454.714a2.155 2.155 0 01-.035 1.659 74.596 74.596 0 01-3.891 7.685l32.093 4.038c2.478.285 4.713-.917 6.796-3.69a2.167 2.167 0 013.037-.432 2.173 2.173 0 01.432 3.037c-3.248 4.37-6.828 5.461-9.575 5.461zm-147.795 21.365c-1.85 0-3.69-.052-5.509-.131-15.606-.702-17.926-3.759-18.211-6.326l-.78-9.22a.086.086 0 000-.032c-.032-.527.042-2.172 2.467-2.43 2.594-.274 12.654-.353 21.243-.295 19.376.132 19.407.363 19.718 2.567a1.79 1.79 0 010 .527l-.959 9.932c0 .089 0 .174-.042.258-.886 4.075-9.322 5.15-17.927 5.15zm-19.418-7.079c.332.326 2.636 2.108 14.104 2.635 11.072.496 17.747-.748 19.007-1.802l.727-7.491c-6.326-.406-27.759-.527-34.423-.211l.585 6.869zm-93.838 405.238a12.986 12.986 0 01-3.131-.432c-1.582-.406-3.865-1.181-5.067-3.205a6.015 6.015 0 01-.48-4.708l92.035-362.681a2.165 2.165 0 01.99-1.337 2.17 2.17 0 012.413.117 2.182 2.182 0 01.856 1.427c.042.282.028.57-.041.847l-92.035 362.713a1.963 1.963 0 000 1.423c.19.322.759.791 2.394 1.208 2.24.564 3.089.174 3.295.047.1-.068.364-.237.527-.959l92.472-364.601a2.18 2.18 0 011.789-1.622 2.182 2.182 0 011.615.403 2.173 2.173 0 01.814 2.274L137.63 791.405a5.433 5.433 0 01-2.394 3.69 6.541 6.541 0 01-3.58.959z" fill="#000"/><path d="M219.088 419.931a2.129 2.129 0 01-.527-.069 2.159 2.159 0 01-1.339-.989 2.17 2.17 0 01-.243-1.647l6.138-24.18a2.174 2.174 0 114.217 1.054l-6.142 24.181a2.167 2.167 0 01-2.104 1.65zm10.867.943c-.178 0-.356-.023-.528-.069a2.165 2.165 0 01-1.337-.99 2.166 2.166 0 01-.244-1.645l5.936-23.359c.069-.277.193-.537.363-.766a2.164 2.164 0 011.426-.856 2.177 2.177 0 012.184 1.031 2.17 2.17 0 01.245 1.646l-5.926 23.363a2.172 2.172 0 01-2.119 1.645zm18.389-1.903l-2.172-.063-2.156-.201 1.682-21.47a2.165 2.165 0 01.733-1.528 2.177 2.177 0 011.608-.536 2.178 2.178 0 011.503.782 2.165 2.165 0 01.484 1.624l-1.682 21.392zm-34.281 365.328c-.379 0-.775 0-1.186-.048-1.645-.126-4.007-.527-5.536-2.288a5.974 5.974 0 01-1.109-2.145 5.975 5.975 0 01-.172-2.409l26.683-352.35a2.146 2.146 0 01.742-1.489 2.128 2.128 0 011.584-.508 2.174 2.174 0 011.998 2.33l-26.684 352.359a1.94 1.94 0 00.253 1.397c.243.285.886.649 2.568.775 2.309.174 3.074-.353 3.253-.527.09-.079.322-.295.327-1.054l26.715-352.755a2.169 2.169 0 014.323.332l-26.699 352.665a5.392 5.392 0 01-1.729 4.038c-1.202 1.107-3.021 1.677-5.331 1.677z" fill="#000"/><path d="M235.406 420.784h-.169a2.175 2.175 0 01-1.998-2.324l1.703-22.473a2.166 2.166 0 012.325-1.998 2.182 2.182 0 011.897 1.485c.088.271.123.556.102.84l-1.698 22.472a2.18 2.18 0 01-2.162 1.998zm15.596.965a2.168 2.168 0 01-2.146-1.861l-2.958-20.638a2.183 2.183 0 01.045-.844 2.168 2.168 0 014.247.228l2.958 20.638a2.174 2.174 0 01-1.835 2.456 2.023 2.023 0 01-.311.021zm57.986 377.289a7.119 7.119 0 01-4.561-1.365 5.547 5.547 0 01-2.008-4.06l-52.498-366.297a2.17 2.17 0 011.838-2.454 2.17 2.17 0 012.454 1.837l52.513 366.44c.074.88.322 1.054.417 1.149.184.153.986.628 3.274.301 1.671-.237 2.288-.649 2.51-.944.23-.43.288-.931.163-1.402l-52.413-365.76a2.173 2.173 0 012.682-2.409 2.177 2.177 0 011.61 1.792l3.522 24.565 48.891 341.185a5.977 5.977 0 01-.976 4.617c-1.407 1.888-3.743 2.415-5.378 2.636-.675.106-1.357.162-2.04.169zm-47.173-377.716a2.171 2.171 0 01-2.145-1.861l-3.354-23.4 2.109-.427 2.151-.295 3.364 23.506a2.15 2.15 0 01-.406 1.609 2.157 2.157 0 01-1.719.868zM140.619 762.469a15.414 15.414 0 01-8.504-2.836 2.171 2.171 0 01-.411-3.047 2.174 2.174 0 013.047-.411c.09.058 3.216 2.33 6.754 1.908a2.184 2.184 0 011.649.42 2.17 2.17 0 01-1.153 3.892c-.459.052-.92.076-1.382.074zm76.519-13.025a15.813 15.813 0 01-7.197-1.846 2.165 2.165 0 01-.799-2.96 2.172 2.172 0 012.961-.798c.089.047 3.464 1.892 6.938 1.054a2.178 2.178 0 012.274.815 2.165 2.165 0 01.403 1.614 2.172 2.172 0 01-1.622 1.788 12.23 12.23 0 01-2.958.333z" fill="#000"/><path d="M304.079 766.038a14.56 14.56 0 01-3.38-.364 2.173 2.173 0 111.055-4.217c.1 0 3.849.886 6.965-.88a2.158 2.158 0 012.495.094 2.17 2.17 0 01.842 1.506 2.167 2.167 0 01-1.228 2.174 13.716 13.716 0 01-6.749 1.687z" fill="#000"/><path fill-rule="evenodd" clip-rule="evenodd" d="M217.08 419.366h45.4a2.838 2.838 0 010 5.678h-45.385a2.835 2.835 0 01-2.836-2.836 2.833 2.833 0 012.821-2.842z" fill="#586580"/><path d="M262.479 427.21h-45.384a5.005 5.005 0 01-5.009-5.008 5.009 5.009 0 015.009-5.008h45.384a5.01 5.01 0 110 10.016zm-45.384-5.672a.673.673 0 00-.611.667.671.671 0 00.611.667h45.384a.673.673 0 00.611-.667.67.67 0 00-.611-.667h-45.384zm16.118 13.506a2.173 2.173 0 01-1.023-.259l-6.016-3.226a2.166 2.166 0 01.395-3.985 2.167 2.167 0 011.651.163l6.021 3.227a2.162 2.162 0 011.082 2.456 2.162 2.162 0 01-2.137 1.624h.027zm12.791.29a2.169 2.169 0 01-2.123-1.711 2.163 2.163 0 011.232-2.432l5.098-2.299a2.173 2.173 0 012.869 1.086 2.17 2.17 0 01-1.086 2.868l-5.099 2.298c-.28.128-.584.192-.891.19z" fill="#000"/><path d="M244.553 435.334a2.318 2.318 0 01-.696-.111 13.81 13.81 0 00-8.578-.042 2.163 2.163 0 01-2.755-1.246 2.164 2.164 0 011.174-2.787 18.132 18.132 0 0111.599-.037 2.165 2.165 0 011.438 2.406 2.165 2.165 0 01-2.139 1.812l-.043.005zm145.144-115.189c-.1.008-.2.008-.3 0a2.164 2.164 0 01-1.851-2.44 14.842 14.842 0 00-.037-3.69c-1.149-.67-4.687-1.946-8.873-3.037a2.186 2.186 0 01-1.332-1.003 2.18 2.18 0 012.423-3.214c11.241 2.926 11.668 4.744 11.895 5.704.386 1.908.459 3.867.216 5.798a2.155 2.155 0 01-2.141 1.882z" fill="#000"/><path d="M384.388 311.816c-.167 0-.333-.02-.495-.058a2.156 2.156 0 01-1.647-1.758 2.153 2.153 0 01.028-.846l1.64-7.011a2.14 2.14 0 01.334-.795 2.158 2.158 0 012.284-.89 2.168 2.168 0 011.653 1.81c.04.288.022.58-.054.861l-1.639 7.011a2.171 2.171 0 01-2.104 1.676z" fill="#000"/><path fill-rule="evenodd" clip-rule="evenodd" d="M378.878 284.278l10.018 2.14a2.909 2.909 0 012.246 3.458 2.91 2.91 0 01-2.325 2.263 2.93 2.93 0 01-1.139-.017l-10.017-2.135a2.923 2.923 0 01-1.797-4.51 2.918 2.918 0 013.014-1.199z" fill="#586580"/><path d="M388.305 294.357a5.19 5.19 0 01-1.054-.111l-10.018-2.14a5.083 5.083 0 01-4.105-4.037 5.085 5.085 0 016.214-5.91l10.018 2.135a5.09 5.09 0 014.004 5.506 5.085 5.085 0 01-5.059 4.557zm-10.017-7.976a.714.714 0 00-.406.121.752.752 0 00-.327.47.751.751 0 00.308.777c.08.055.171.094.267.114l10.017 2.14a.757.757 0 00.891-.575.751.751 0 00-.307-.777.732.732 0 00-.268-.114l-10.017-2.14-.158-.016zm-272.677 51.682a9.146 9.146 0 01-1.281-.094c-1.25-.148-31.925-3.833-38.568-6.105-6.891-2.356-1.387-44.671 3.786-66.01 5.066-20.896 17.161-51.545 23.578-51.023 6.29.501 35.103 10.838 38.367 12.019 5.167 1.671 5.995 7.939 5.657 11.371a2.163 2.163 0 01-2.37 1.978 2.157 2.157 0 01-1.474-.793 2.163 2.163 0 01-.469-1.607c0-.053.438-5.799-2.747-6.853-8.551-3.084-31.207-10.97-36.87-11.75-3.089 2.477-13.323 22.404-19.46 47.675-6.98 28.799-7.85 56.854-6.116 61.039 5.763 1.714 26.694 4.492 37.255 5.757 4.012.58 5.715-4.502 5.8-4.744a2.165 2.165 0 012.725-1.403 2.17 2.17 0 011.403 2.726c-.912 2.857-3.933 7.817-9.216 7.817zm350.471 11.614h-.274c-8.599-1.092-26.81-6.279-27.58-6.5a2.165 2.165 0 01-1.431-2.662 2.172 2.172 0 012.622-1.503c.185.053 18.665 5.309 26.937 6.363a2.17 2.17 0 011.902 2.288 2.164 2.164 0 01-2.176 2.029v-.015zm-221.851 32.335a2.168 2.168 0 01-2.167-2.135c-.042-3.374-.032-11.455 1.054-13.648.57-1.144 1.708-1.502 3.433-2.045 3.69-1.155 10.497-3.311 12.943-12.156a2.165 2.165 0 012.668-1.513 2.167 2.167 0 011.513 2.667c-3.074 11.118-12.005 13.933-15.817 15.14-.327.1-.701.216-.991.316-.353 1.782-.527 6.911-.475 11.176a2.16 2.16 0 01-1.312 2.023 2.164 2.164 0 01-.828.175h-.021zm17.24.416a2.156 2.156 0 01-2.156-1.955c-.148-1.513-.528-6.627.632-8.962.454-.901 1.324-1.392 2.763-2.198 3.459-1.94 9.891-5.546 12.438-14.76a2.13 2.13 0 01.38-.756 2.164 2.164 0 013.043-.377 2.164 2.164 0 01.757 2.287c-3.026 10.944-10.771 15.288-14.499 17.396-.379.216-.827.469-1.101.643-.29 1.055-.338 3.817-.101 6.326a2.164 2.164 0 01-1.945 2.367 1.35 1.35 0 01-.211-.011z" fill="#000"/><path d="M278.487 357.452a2.169 2.169 0 01-2.145-2.499c.065-.414.247-.8.527-1.112.87-1.428 3.253-8.034 3.321-10.543-4.271-.791-19.692-3.4-31.191-5.329a82.809 82.809 0 01-3.417 10.912c-.2.527-.348.891-.416 1.112a2.166 2.166 0 01-4.303-.432c0-.527.164-.912.665-2.225a75.561 75.561 0 003.69-12.272 2.176 2.176 0 012.484-1.713c34.977 5.851 35.003 5.872 35.667 6.494 1.308 1.218 1.181 3.221 1.139 3.88-.221 3.49-3.132 12.172-4.745 13.316a2.172 2.172 0 01-1.276.411z" fill="#000"/><path fill-rule="evenodd" clip-rule="evenodd" d="M34.808 101.018a17.542 17.542 0 01-11.104-7.57c-4.297-6.568-5.873-19.504-5.873-19.504s-.227 12.704-4.534 19.373C8.989 99.985.295 100.349.295 100.349s7.84 1.054 12.242 7.343c4.403 6.289 5.352 19.579 5.352 19.579s.696-11.814 4.898-18.203c4.202-6.389 12.021-8.05 12.021-8.05zM346.01 27.096a17.541 17.541 0 01-11.072-7.57C330.636 12.957 329.065.02 329.065.02s-.233 12.704-4.53 19.373c-4.297 6.668-13.022 7.016-13.022 7.016s7.84 1.055 12.242 7.338c4.403 6.284 5.352 19.579 5.352 19.579s.696-11.814 4.898-18.203c4.202-6.389 12.005-8.028 12.005-8.028zM236.118 154.899a13.608 13.608 0 01-8.615-5.873c-3.338-5.097-3.643-15.988-3.643-15.988s-1.092 10.696-4.429 15.867c-3.338 5.171-10.086 5.461-10.086 5.461s6.079.817 9.49 5.693c3.411 4.877 4.149 15.193 4.149 15.193s.528-9.167 3.802-14.122c3.274-4.956 9.332-6.231 9.332-6.231zM65.056 478.339a17.577 17.577 0 01-11.104-7.575c-4.297-6.563-5.868-19.505-5.868-19.505s-.232 12.705-4.53 19.373c-4.296 6.669-13.006 7.038-13.006 7.038s7.835 1.054 12.237 7.338c4.403 6.283 5.357 19.583 5.357 19.583s.696-11.813 4.893-18.202c4.196-6.389 12.02-8.05 12.02-8.05zm368.95 159.575a13.637 13.637 0 01-8.61-5.883c-3.332-5.098-3.638-15.984-3.638-15.984s-1.091 10.691-4.428 15.862c-3.338 5.172-10.092 5.462-10.092 5.462s6.085.817 9.491 5.698c3.406 4.882 4.154 15.188 4.154 15.188s.527-9.168 3.802-14.123c3.274-4.955 9.321-6.22 9.321-6.22zm-53.768-160.387a17.536 17.536 0 01-11.072-7.575c-4.302-6.563-5.873-19.505-5.873-19.505s-.232 12.699-4.529 19.368c-4.297 6.668-13.007 7.037-13.007 7.037s7.84 1.055 12.237 7.344c4.397 6.289 5.357 19.578 5.357 19.578s.696-11.813 4.893-18.202c4.196-6.39 11.994-8.045 11.994-8.045z" fill="#fff"/></svg>