<svg viewBox="0 0 693 629" fill="none" xmlns="http://www.w3.org/2000/svg"><g clip-path="url(#clip0_73_9)"><path d="M172.168 543.655c69.161-41.081 168.452 26.558 376.328 30.231 19.938.339 40.438.396 59.08-6.894 20.387-7.967 37.058-24.241 49.786-42.719 34.017-49.274 42.071-115.275 28.104-174.325-13.967-59.05-48.322-111.319-91.069-152.456-24.387-23.507-51.983-44.132-70.681-72.781-16.784-25.655-25.738-56.79-45.619-79.901C445.037 6.61 390.689-.34 341.465 0c-32.609.282-66.513 2.994-94.786 20.003-41.395 24.92-61.951 74.42-87.971 116.348-20.951 33.735-46.633 63.853-69.668 96.006-27.315 38.142-50.8 79.223-70.061 122.394-11.49 25.768-15.432 39.499-17.741 58.485-6.308 53.117 10.813 122.621 57.22 147.71 9.125 4.973 17.066 7.007 19.938 7.572 40.043 7.064 93.772-24.863 93.772-24.863z" fill="#F90"/></g><g clip-path="url(#clip1_73_9)"><path fill-rule="evenodd" clip-rule="evenodd" d="M78.758 318.202c5.524-4.321 22.339-1.921 22.339-1.921s28.82-21.621 59.319-34.117c18.977-7.689 34.587-11.774 45.152-12.495a99.412 99.412 0 0018.256-2.884l14.41-15.137 100.394-3.842 13.927 14.174s11.048 2.405 17.772 3.605c10.57 1.684 19.466 2.884 30.983 6.49 18.493 5.763 25.459 13.211 25.459 13.211l50.197 31.716s4.324 2.163 7.202 8.89c3.846 9.611 6.729 23.548 12.253 41.806 7.445 24.99 17.531 56.465 20.893 81.934 5.524 40.364-4.325 59.349-14.411 72.56-9.843 13.216-23.054 19.221-39.385 5.047-14.41-12.495-24.728-43.248-34.345-66.796a333.958 333.958 0 00-17.293-36.522l-3.846 101.876-252.658-1.2-4.083-70.881s-13.931 46.133-36.507 68.95c-18.256 18.258-44.672 16.574-55-.721-3.125-5.048-8.166-27.633-8.65-45.175-1.2-37.722 8.171-90.582 16.573-124.698 4.083-18.248 6.487-30.249 11.049-33.87z" fill="#fff"/><path fill-rule="evenodd" clip-rule="evenodd" d="M210.613 67.122c13.211-12.732 48.998-36.522 73.252-31.717 28.82 5.526 43.952 5.79 58.125 16.843 4.804 3.842 13.927 19.7 17.772 38.2 3.604 17.78 2.399 42.77.479 55.023-3.841 24.738-42.51 6.726-42.51 6.726l-112.879 18.022s-11.769-28.832-11.048-58.144c.721-16.358 6.96-35.58 16.809-44.953z" fill="#CF9978"/><path fill-rule="evenodd" clip-rule="evenodd" d="M201.969 160.588c7.923-7.69 22.334-1.684 41.563-5.527 16.094-3.121 32.667-16.095 32.667-16.095s11.049 2.4 18.493.237c10.807-3.121 19.935-11.053 25.217-18.258 5.761-7.932 7.444-15.138 12.727-13.938 10.091 2.164 16.094 15.38 17.772 27.87.242 2.884 2.404 9.852 3.604 10.095 16.31 1.679 17.535 18.737 10.806 32.437-4.803 9.848-12.006 11.532-12.006 11.532s-1.441 21.864-5.261 36.522c-4.083 14.653-10.57 22.822-10.57 22.822l1.2 24.511s-3.362 12.253-9.607 23.306c-6.245 11.053-13.448 13.453-15.368 20.9-1.205 4.327-3.125 23.306-6.487 33.401-3.604 11.532-17.051 29.791-17.051 29.791s-7.445-9.369-15.132-32.196c-1.92-6.005-3.603-25.227-5.787-30.753-1.678-4.569-10.086-11.532-16.089-19.943-5.524-7.448-11.29-22.106-11.29-22.106l-1.2-23.306s-5.524-5.263-11.769-17.779-12.264-31.717-12.264-31.717a39.61 39.61 0 01-11.285-8.647c-5.524-6.011-13.695-22.585-2.883-33.159z" fill="#FDE7D5"/><path fill-rule="evenodd" clip-rule="evenodd" d="M103.738 209.605c3.84-7.69 21.855-16.843 27.137-18.985 8.886-3.6 15.615 5.048 15.615 5.048l8.165-.479 11.286-5.527s8.165-13.216 12.732-14.658c7.681-2.4 25.695-13.453 29.541-13.216 6.003.242 2.631 7.69-.963 12.016-3.84 4.805-8.644 6.727-14.889 13.216-6.245 6.242-10.327 16.316-10.327 16.316l-5.262 20.901a43.645 43.645 0 009.607-4.805c5.787-3.843 12.011-9.369 19.214-10.811 6.008-1.2 15.131 1.2 13.453 6.968-1.92 6.727-30.02 23.306-36.265 32.675-6.009 8.89-12.248 21.864-18.257 28.353-7.923 8.648-15.368 10.574-20.413 19.701-3.12 5.526-10.328 30.753-10.328 30.753s-16.572 3.127-27.358-2.631c-10.57-5.79-15.373-20.422-15.373-20.422s6.708-22.816 8.602-45.88c1.92-18.501-2.162-36.522 4.083-48.533zm325.914-91.997c2.883-4.084 8.165-3.605 9.849 6.484 2.157 12.737.237 36.522.237 36.522l9.128 4.564 10.806 18.984s5.524 1.679 8.886 3.843c3.362 2.163 4.325 4.805 4.325 4.805s20.177 8.169 18.972 17.542c-1.921 15.617-22.097 44.212-22.334 57.423-.242 12.253 2.631 33.159 2.631 33.159s-6.003 8.89-16.573 12.732c-10.57 3.842-25.696 2.631-25.696 2.631s-1.683-27.369-5.287-41.085c-4.562-17.3-11.769-22.343-13.206-30.032-1.925-10.574-3.604-21.864-3.846-29.796 0-8.89 8.418-17.058 8.418-17.058s5.788-32.196 6.482-38.201c1.926-15.874 3.615-37.254 7.208-42.517z" fill="#FDE7D5"/><path opacity=".427" fill-rule="evenodd" clip-rule="evenodd" d="M213.975 163.951c21.618-11.532 100.636-23.064 136.417-14.174 8.886 2.163 9.849 8.421 10.812 16.579 1.199 10.811 0 24.737-3.362 30.753-6.008 10.811-38.191 15.138-49.981 10.09-6.245-2.632-10.328-10.332-14.889-13.937-2.884-2.4-6.966-1.921-8.166-1.921-7.208.242-13.211 13.937-18.972 20.421-5.761 6.485-13.921 6.49-13.921 6.49s-27.857 2.163-37.948-6.247c-10.091-8.411-8.645-35.08-8.645-35.08s6.014-11.532 8.655-12.974z" fill="#A4D6FF"/><path fill-rule="evenodd" clip-rule="evenodd" d="M244.479 345.598s6.724-26.911 20.172-29.075c1.441-.242 3.845.479 5.045 4.564 2.404 7.447 3.362 21.863 7.208 34.122 3.12 10.568 10.085 24.263 12.969 24.027 2.157 0 3.84-5.264 6.245-8.653 3.598-5.048 7.681-10.332 10.564-19.701 3.362-10.811 3.604-26.432 6.487-33.401 1.678-3.6 5.787-2.4 7.681-2.158 6.966.958 15.374 24.985 15.374 24.985s-2.631 11.774-6.003 21.385c-3.125 9.369-6.966 16.579-7.687 24.738-2.399 30.753-1.684 79.528-1.684 79.528l-2.157 59.349h-63.407s-.721-34.359-.479-68.481c.237-26.669 1.678-53.096-.484-64.628-3.841-23.532-9.844-46.601-9.844-46.601zM91.006 305.949s5.524 13.458 16.309 18.743c10.786 5.284 26.659 2.631 26.659 2.631l-8.418 53.581s-12.969 0-24.496-10.332C89.29 360.24 78.963 339.34 78.963 339.34l12.043-33.391zm339.609 11.054s14.647.242 25.216-3.606a43.312 43.312 0 0017.052-11.769l8.886 37.001s-8.644 21.385-20.655 32.433c-12.012 11.047-27.138 12.016-27.138 12.016l-3.361-66.075z" fill="#A8C6DB"/><path d="M433.95 384.157a1.805 1.805 0 01-1.794-1.658c0-.295-2.415-30.085-3.367-52.686-1.016-24.516-3.82-47.643-7.134-58.912-.59-2.105-3.157-6.884-5.451-11.09-2.294-4.205-4.367-8.047-5.093-10.237-2.804-8.211-4.64-19.127-5.613-33.359-.526-9.547 4.561-14.737 9.954-20.216 2.478-2.526 5.051-5.137 7.155-8.3l.673-.953c2-2.868 5.025-7.205 8.603-7.368 1.052-.053 2.556.252 3.935 1.91 5.077 6.479 1.794 13.269-1.1 19.259-1.652 3.41-3.204 6.626-3.288 9.573 0 .653.994 1.843 1.794 2.801a14.046 14.046 0 011.863 2.594c2.072 4.379 3.419 9.122 4.251 14.969a1.812 1.812 0 01-.857 1.809 1.813 1.813 0 01-1.363.201 1.812 1.812 0 01-1.106-.822 1.802 1.802 0 01-.236-.661c-.784-5.474-2.031-9.89-3.93-13.896-.4-.665-.866-1.289-1.389-1.863-1.231-1.479-2.631-3.158-2.631-5.158.1-3.774 1.899-7.495 3.641-11.095 2.794-5.79 5.203-10.753 1.547-15.427-.495-.589-.847-.563-.984-.573-1.794.079-4.604 4.1-5.787 5.821l-.674.953c-2.257 3.384-4.945 6.121-7.544 8.763-5.025 5.116-9.371 9.532-8.944 17.464.952 13.895 2.725 24.511 5.434 32.432.632 1.9 2.773 5.848 4.846 9.669 2.63 4.8 5.061 9.332 5.75 11.821 3.431 11.674 6.224 34.585 7.266 59.754.952 22.527 3.336 52.249 3.362 52.544a1.799 1.799 0 01-1.652 1.942l-.137-.005z" fill="#331C19"/><path d="M415.962 199.388a1.335 1.335 0 01-.2 0 1.801 1.801 0 01-1.578-1.989c.642-5.79 2.225-13.016 3.504-18.827.663-3.016 1.231-5.621 1.552-7.469 1.294-7.621 1.899-13.458 2.536-19.637.426-4.116.868-8.374 1.536-13.448l.168-1.358c1.374-11.621 3.378-22.511 8.739-23.484a6.013 6.013 0 015.151 1.384c3.52 3.052 5.04 10.742 4.661 23.506-.236 7.542-.478 15.332-.962 23.127a1.802 1.802 0 01-.602 1.243 1.8 1.8 0 01-1.308.441 1.808 1.808 0 01-1.689-1.911c.484-7.737.726-15.5.957-23.011.453-15.016-1.946-19.395-3.414-20.669a2.422 2.422 0 00-2.162-.563c-.8.147-3.631 2.053-5.788 20.364l-.168 1.405c-.663 5.021-1.1 9.253-1.526 13.342-.642 6.243-1.252 12.106-2.567 19.88-.337 1.932-.916 4.574-1.579 7.632-1.257 5.726-2.825 12.853-3.446 18.453a1.797 1.797 0 01-1.815 1.589zm65.086 141.283a1.795 1.795 0 01-1.741-1.337c-4.293-16.1-15.479-64.896-10.754-77.507 2.583-6.711 7.171-17.095 10.864-25.438a1483.63 1483.63 0 004.062-9.242c.678-1.537 1.373-3.011 2.041-4.437 2.91-6.232 5.43-11.616 3.962-15.042-1.926-4.49-11.88-11.648-13.563-12.217-4.678-1.8-7.813 3.764-10.902 10.116a62.612 62.612 0 01-1.11 2.227 57.756 57.756 0 01-1.852 3.047c-1.578 2.421-3.325 5.174-3.467 7.29a2.576 2.576 0 00.71 2 3.537 3.537 0 002.536 1.126c4.393.227 10.612-7.974 13.558-13.253a1.807 1.807 0 013.314.38c.132.46.075.954-.157 1.373-.889 1.579-8.944 15.69-16.836 15.095a7.09 7.09 0 01-2.759-.626 7.088 7.088 0 01-2.297-1.653 6.174 6.174 0 01-1.646-4.71c.2-3.016 2.236-6.18 4.03-8.974.636-.99 1.246-1.932 1.704-2.785.321-.61.668-1.331 1.052-2.105 2.736-5.626 7.308-15.037 15.358-11.932 2.52.842 13.295 8.674 15.657 14.211 2.105 4.905-.731 10.963-4.009 17.985a218.173 218.173 0 00-2.004 4.358 925.256 925.256 0 01-4.067 9.253c-3.683 8.305-8.245 18.647-10.791 25.263-4.02 10.738 5.787 56.207 10.87 75.297a1.808 1.808 0 01-.647 1.896 1.782 1.782 0 01-.632.309 1.747 1.747 0 01-.484.032z" fill="#331C19"/><path d="M446.467 251.295h-.158a1.806 1.806 0 01-1.637-1.953c.737-8.626 6.224-20.958 12.233-27.495a1.799 1.799 0 013.105.372 1.812 1.812 0 01-.023 1.469c-.107.23-.261.435-.452.601-5.456 5.932-10.627 17.548-11.296 25.364a1.8 1.8 0 01-.571 1.161 1.799 1.799 0 01-1.201.481zm2.599-26.842a5.7 5.7 0 01-3.373-1.027c-2.936-2.105-3.509-6.895-1.699-14.274.679-2.774 1.131-5.626 1.578-8.384 1.515-9.585 3.073-19.474 15.063-17.964 1.357.205 2.682.587 3.94 1.137 8.697 4.211 9.77 7.158 9.634 8.521a1.802 1.802 0 01-1.792 1.632 1.796 1.796 0 01-1.791-1.632c-.148-.31-1.289-2.2-7.645-5.295-.938-.388-1.92-.66-2.925-.81-8.034-1.053-9.265 4.432-10.927 14.969-.442 2.831-.905 5.758-1.621 8.679-1.988 8.116-.279 10.074.29 10.479 1.22.868 3.956.09 7.307-2.105a1.807 1.807 0 012.431.572 1.804 1.804 0 01-.468 2.454c-3.125 2.058-5.798 3.048-8.002 3.048z" fill="#331C19"/><path d="M458.951 185.457a1.802 1.802 0 01-1.699-1.211c-2.036-5.847-8.86-20.685-16.373-20.685h-.526c-2.841.179-4.735 3.49-5.361 6.49-.442 2.453-.442 6.69-.442 11.179a1.806 1.806 0 01-3.604 0c0-4.658 0-9.053.526-11.858.895-4.484 3.904-9.106 8.623-9.4 11.838-1.053 19.693 20.6 20.545 23.069a1.8 1.8 0 01-1.699 2.395l.01.021z" fill="#331C19"/><path d="M438.48 209.836c-2.104 0-4.041-1.415-5.382-3.958-.826-1.663-1.105-3.626-1.347-5.358l-.042-.273a1.804 1.804 0 012.859-1.711c.384.285.638.711.708 1.184l.042.279c.205 1.464.442 3.116.989 4.211.526 1.005 1.373 2.079 2.305 1.995.526-.063 3.398-.905 6.355-11.753.7-2.384 1.242-5.948 1.82-9.721.385-2.543.79-5.19 1.268-7.685a1.81 1.81 0 012.095-1.351 1.806 1.806 0 011.446 2.03c-.473 2.453-.868 5.053-1.252 7.553-.61 3.911-1.136 7.595-1.91 10.174-2.483 9.1-5.655 13.942-9.433 14.353a4.128 4.128 0 01-.521.031zM78.758 340.671a1.8 1.8 0 01-1.678-2.432c8.89-24.037 16.504-45.706 19.603-67.37 2.167-15.579 2.046-26.169 1.946-35.511a435.585 435.585 0 01-.047-5.79v-1.684c-.032-7.895-.063-16.048 6.008-22.632 6.403-6.911 20.819-14.875 28.495-16.843 6.781-1.774 13.4 3.5 15.93 7.8 5.577 9.811 3.378 19.932-6.708 30.964-.284.321-.61.705-.962 1.126-2.436 2.901-6.119 7.269-10.607 5.59a4.594 4.594 0 01-2.825-2.847c-1.384-3.374-.526-8.948 2.104-13.869 2.91-5.411 2.499-6.842.963-12.074l-.147-.526a1.786 1.786 0 01.149-1.371 1.789 1.789 0 011.074-.864 1.8 1.8 0 012.233 1.224l.153.5c1.62 5.548 2.357 8.079-1.252 14.795-2.352 4.369-2.762 8.821-1.957 10.79.131.316.347.71.657.805 2.21.827 4.904-2.379 6.687-4.5.379-.453.732-.868 1.052-1.226 8.902-9.743 10.949-18.485 6.261-26.738-1.962-3.337-7.202-7.337-11.911-6.116-7.024 1.811-21.045 9.627-26.753 15.822-5.109 5.516-5.082 12.632-5.051 20.142v1.7c0 1.895 0 3.8.042 5.758.105 9.474.226 20.206-1.978 36.054-3.157 22.037-10.828 43.896-19.793 68.133a1.805 1.805 0 01-1.688 1.19z" fill="#331C19"/><path d="M129.202 215.763a19.73 19.73 0 01-8.739-1.906 1.803 1.803 0 01-.728-2.379 1.803 1.803 0 012.338-.847c4.64 2.326 10.08 1.3 10.138 1.29a1.801 1.801 0 012.115 1.415 1.8 1.8 0 01-1.415 2.116 20.14 20.14 0 01-3.709.311zm2.636 39.848a1.801 1.801 0 01-1.8-1.689c-.952-15.469-5.508-23.127-11.28-32.827a1.806 1.806 0 013.099-1.843c5.787 9.717 10.775 18.111 11.78 34.449a1.795 1.795 0 01-.448 1.306 1.81 1.81 0 01-1.241.604h-.11zm10.47-9.337a5.253 5.253 0 01-4.173-1.8c-2.346-2.747-2.309-8.226.121-17.774a1.81 1.81 0 011.489-1.425 1.808 1.808 0 011.854.9 1.817 1.817 0 01.151 1.415c-2.662 10.432-1.689 13.584-.879 14.537.258.3.726.631 1.842.526 3.803-.363 14.868-15.011 18.94-23.943.231-.526.526-1.094.826-1.757 1.941-4.069 5.966-12.538 4.156-16.285-.279-.584-.852-1.405-2.546-1.795-9.618-2.242-14.437-.995-14.484-.984a1.802 1.802 0 01-.979-3.469c.232-.063 5.619-1.542 16.278.937a7.026 7.026 0 014.977 3.742c2.563 5.301-1.636 14.127-4.145 19.401a98.382 98.382 0 00-.8 1.705c-3.499 7.653-15.389 25.417-21.887 26.038-.252.016-.499.031-.741.031z" fill="#331C19"/><path d="M154.655 240.242a5.243 5.243 0 01-2.199-.421 1.805 1.805 0 011.51-3.273c1.847.868 9.318-2.679 12.29-5.058 9.897-7.969 13.937-16.438 13.495-28.317-.268-5.3-.721-10.232-3.156-12.063-1.437-1.053-3.683-1.206-6.84-.432-5.677 1.363-14.084 6.248-14.168 6.316a1.803 1.803 0 01-2.391-.693 1.805 1.805 0 01.576-2.423c.363-.21 8.944-5.195 15.141-6.679 4.267-1.053 7.492-.705 9.844 1.053 3.714 2.768 4.288 8.337 4.619 14.795.484 12.995-4.093 22.632-14.836 31.285-1.131.863-8.808 5.91-13.885 5.91z" fill="#331C19"/><path d="M182.513 204.452a1.809 1.809 0 01-1.489-2.821 49.876 49.876 0 002.668-4.706c2.43-4.637 5.456-10.41 10.738-14.21 15.299-11.085 15.478-15.664 15.168-16.806-.3-.979-.705-1.616-1.179-1.832-1.11-.526-3.53.569-5.871 1.611l-1.579.684a68.595 68.595 0 00-6.344 3.258 73.434 73.434 0 01-9.571 4.695c-5.455 2.105-11.095 4.268-17.809 16.258a1.801 1.801 0 01-2.457.7 1.81 1.81 0 01-.915-1.787c.027-.235.1-.463.216-.671 6.802-12.158 12.679-15.179 19.655-17.863a70.76 70.76 0 009.118-4.485 73.629 73.629 0 016.676-3.421l1.5-.658c3.209-1.431 6.24-2.784 8.833-1.579 1.458.669 2.515 2.048 3.157 4.111 1.347 4.942-4.062 11.705-16.52 20.727-4.593 3.326-7.281 8.463-9.654 12.99a53.877 53.877 0 01-2.883 5.068 1.807 1.807 0 01-1.458.737zm-56.678 177.547h-.206a1.799 1.799 0 01-1.578-1.99c.089-.816 9.66-81.923 21.387-90.402 4.693-3.3 16.12-11.701 21.223-18.59 2.741-3.579 4.846-7.522 7.071-11.695 2.105-3.979 4.309-8.095 7.103-11.853 5.398-7.048 12.574-13.211 19.524-18.832 1.452-1.169 3.341-2.469 5.345-3.843 4.778-3.284 11.323-7.779 11.843-11.052a1.984 1.984 0 00-.436-1.616c-2.105-2.927-7.066-3.3-13.595-1.053-4.009 1.437-8.16 4.269-12.169 7-5.035 3.427-10.233 6.974-15.458 7.964a1.812 1.812 0 01-1.405-.235 1.814 1.814 0 01-.797-1.182 1.816 1.816 0 01.308-1.391 1.8 1.8 0 011.221-.735c4.488-.847 9.154-4.031 14.1-7.4 4.209-2.858 8.544-5.821 13.006-7.421 11.153-3.816 15.862-.184 17.677 2.316a5.554 5.554 0 011.105 4.342c-.768 4.774-7.46 9.369-13.363 13.421-1.942 1.337-3.778 2.595-5.114 3.685-6.782 5.479-13.769 11.474-18.941 18.195-2.63 3.521-4.735 7.516-6.802 11.379-2.199 4.116-4.467 8.374-7.366 12.169-5.398 7.29-17.193 15.969-22.007 19.358-7.04 5.085-16.242 55.191-19.903 87.871a1.807 1.807 0 01-1.773 1.59zM61.227 527.118H-2.9a1.806 1.806 0 010-3.605h64.128a1.802 1.802 0 011.708 1.802 1.806 1.806 0 01-1.708 1.803zm399.408 0H111.182a1.804 1.804 0 01-1.212-3.044 1.804 1.804 0 011.212-.561h349.211a1.908 1.908 0 011.92 1.805 1.695 1.695 0 01-1.678 1.8zm230.586 0h-190.98a1.808 1.808 0 01-1.707-1.803 1.806 1.806 0 011.707-1.802h190.98a1.802 1.802 0 011.213 3.044 1.804 1.804 0 01-1.213.561z" fill="#331C19"/><path d="M584.878 573.446c-2.826 0-5.619-.063-8.329-.2-17.22-.953-36.96-4.737-42.258-10.953a5.526 5.526 0 01-1.478-4.253c.015-.129.043-.256.084-.379l36.707-108.95a209.801 209.801 0 001.879-14.853c.468-7.995.71-17.811.71-17.895V385.72a1.803 1.803 0 013.604 0v30.275c0 .142-.247 10-.721 18.126-.726 8.201-1.936 15.264-1.947 15.338-.017.09-.04.18-.068.268l-36.67 108.861c.044.519.271 1.006.641 1.373 3.867 4.548 20.566 8.627 39.706 9.69 20.656 1.021 46.693-2.068 52.754-8.811a3.563 3.563 0 001.1-2.931l-33.819-108.461a3.152 3.152 0 01-.063-.279c-.016-.089-.979-6.874-1.694-15-.484-8.174-.484-17.601-.484-17.696v-30.527a1.797 1.797 0 013.072-1.272 1.8 1.8 0 01.527 1.272v30.527c0 .095-.001 9.417.478 17.438a311.181 311.181 0 001.647 14.605l33.819 108.461c.026.085.048.171.063.258a7.185 7.185 0 01-1.968 6.021c-6.224 6.921-27.558 10.19-47.292 10.19z" fill="#331C19"/><path d="M585.525 390.647c-1.342 0-13.09-.132-13.09-4.685s11.748-4.69 13.09-4.69c3.935 0 13.089.458 13.089 4.69s-9.154 4.685-13.089 4.685zm-8.366-4.685a28.23 28.23 0 008.366 1.079c4.24 0 7.181-.563 8.649-1.079-1.468-.526-4.409-1.084-8.649-1.084a28.03 28.03 0 00-8.366 1.084zM197.944 613.141c-21.571 0-38.533-6.279-38.843-14.474V489.038a1.819 1.819 0 01.492-1.339 1.814 1.814 0 011.31-.564 1.802 1.802 0 011.802 1.903v109.561c.174 4.579 13.153 11.232 36.37 10.932 25.98-.258 38.081-6.674 38.081-10.932V489.038a1.8 1.8 0 011.089-1.756 1.802 1.802 0 012.407 1.036c.084.23.121.475.108.72v109.561c0 8.447-16.736 14.29-41.648 14.537l-1.168.005z" fill="#331C19"/><path d="M199.828 545.14c-13.5 0-36.145-.858-36.145-6.611s22.624-6.605 36.145-6.605c9.244 0 17.961.526 24.533 1.426 9.638 1.353 11.611 3.053 11.611 5.179-.021 5.753-22.665 6.611-36.144 6.611zm-31.567-6.611c3.456 1.29 13.963 3.006 31.567 3.006s28.137-1.716 31.567-3.006c-3.451-1.284-13.963-3-31.567-3s-28.158 1.716-31.615 3h.048z" fill="#331C19"/><path d="M197.834 605.215c-19.703 0-34.093-5.411-34.414-13.032v-53.412a1.806 1.806 0 013.604 0v53.338c.169 3.985 11.68 9.716 32.041 9.474 21.876-.237 33.524-5.663 33.524-9.474v-53.096a1.819 1.819 0 01.492-1.339 1.814 1.814 0 011.31-.564 1.802 1.802 0 011.802 1.903v53.096c0 7.469-15.257 12.853-37.086 13.095l-1.273.011zm1.994-109.571c-10.523 0-20.366-.527-27.784-1.427-10.765-1.331-12.927-2.968-12.927-5.179 0-2.21 2.162-3.847 12.927-5.184 7.413-.916 17.283-1.426 27.784-1.426 10.412 0 20.245.526 27.689 1.426 10.844 1.337 13.022 2.974 13.022 5.184 0 2.211-2.162 3.848-12.932 5.179-7.434.922-17.299 1.427-27.779 1.427zm-35.929-6.606c4.304 1.421 17.194 3 35.929 3 18.735 0 31.604-1.579 35.918-3-4.351-1.421-17.236-3-35.918-3-18.683 0-31.646 1.579-35.95 3h.021zM289.641 629c-21.076 0-37.044-5.942-37.354-13.995v-55.57a1.803 1.803 0 013.604 0v55.501c.173 4.385 12.742 10.711 34.923 10.453 24.839-.258 36.408-6.389 36.408-10.453v-55.98a1.8 1.8 0 011.089-1.756 1.802 1.802 0 012.407 1.036c.084.23.121.475.108.72v55.98c0 8.159-16.063 13.811-39.985 14.059l-1.2.005z" fill="#331C19"/><path d="M291.072 588.631c-14.731-.211-32.303-1.49-32.303-6.369 0-1.753 1.268-3.563 10.475-4.969a152.345 152.345 0 0121.828-1.4c28.106 0 32.304 3.99 32.304 6.369 0 1.747-1.268 3.563-10.475 4.963a152.067 152.067 0 01-21.829 1.406zm-27.584-6.379c3.446 1.168 12.911 2.563 27.627 2.773 15.073 0 24.532-1.626 27.758-2.821-3.331-1.284-13.317-2.705-27.785-2.705-14.831 0-24.222 1.563-27.6 2.753z" fill="#331C19"/><path d="M289.415 621.795c-17.225 0-30.309-4.9-30.646-11.58v-27.479a1.802 1.802 0 013.043-1.213c.335.317.536.751.561 1.213v27.369c.142 2.879 9.922 8.3 28.194 8.053 18.94-.242 29.463-4.916 29.463-8.053v-27.148a1.798 1.798 0 113.598 0v27.148c0 6.721-13.258 11.405-32.998 11.653l-1.215.037zm2.136-56.234c-10.059 0-19.545-.526-26.706-1.426-10.427-1.337-12.564-3.037-12.564-5.179 0-2.142 2.137-3.848 12.564-5.184 7.161-.916 16.652-1.427 26.706-1.427 11.806 0 39.269.642 39.269 6.611 0 2.142-2.136 3.842-12.558 5.179-7.166.921-16.652 1.426-26.711 1.426zm-34.566-6.605c4.114 1.421 16.536 3 34.566 3s30.457-1.579 34.566-3c-4.114-1.426-16.531-3.005-34.566-3.005-18.035 0-30.452 1.579-34.566 3.005zm327.819-50.096c-22.676 0-26.059-3.842-26.059-6.127 0-2.284 3.383-6.131 26.059-6.131 22.675 0 26.058 3.842 26.058 6.131 0 2.29-3.388 6.127-26.058 6.127zm-21.781-6.127c2.446 1.053 9.749 2.521 21.781 2.521 12.032 0 19.335-1.442 21.781-2.521-2.446-1.052-9.749-2.526-21.781-2.526-12.032 0-19.324 1.447-21.781 2.526z" fill="#331C19"/><path d="M584.804 565.562c-36.455 0-42.295-7.664-42.837-8.537a1.803 1.803 0 01-.194-1.495l16.835-53.58a1.812 1.812 0 01.86-1.136 1.787 1.787 0 012.052.194c.186.158.339.353.448.572a1.815 1.815 0 01.076 1.422l-16.489 52.549c1.984 1.531 10.523 6.379 39.27 6.379 25.869 0 35.128-4.842 37.575-6.526l-14.831-52.181a1.804 1.804 0 013.467-.984l15.131 53.338a1.812 1.812 0 01-.379 1.679c-.747.853-8.223 8.306-40.984 8.306zm-446.243-302.74a1.802 1.802 0 01-1.8-1.777 1.803 1.803 0 01.222-.897c6.066-11.01 12.232-19.432 22.623-24.737a1.793 1.793 0 011.373-.111 1.794 1.794 0 011.242 1.568 1.813 1.813 0 01-.423 1.312c-.153.18-.34.328-.55.436-8.292 4.258-14.206 10.79-21.098 23.296a1.793 1.793 0 01-1.589.91zM434.05 384.757a41.215 41.215 0 01-7.108-.627c-2.941-.526-4.14-2.221-4.624-3.542-2.268-6.132 6.371-17.185 8.097-19.29a1.799 1.799 0 012.981.281 1.802 1.802 0 01-.188 1.993c-5.261 6.426-8.465 13.216-7.513 15.79.163.447.526.994 1.879 1.242 10.669 1.863 20.518-.842 29.278-8.032 16.483-13.49 26.648-36.375 24.396-47.054-.689-3.274-2.404-5.263-5.261-6.037a1.814 1.814 0 01-1.087-.849 1.815 1.815 0 01-.168-1.369 1.79 1.79 0 01.317-.628 1.798 1.798 0 011.901-.628c4.145 1.148 6.839 4.179 7.807 8.769 2.783 13.211-9.438 37.322-25.643 50.586-7.613 6.242-16.025 9.395-25.064 9.395z" fill="#331C19"/><path d="M481.411 537.092c-1.12 0-2.239-.086-3.346-.258-15.783-2.431-28.815-20.411-35.176-35.064-5.172-12.147-8.071-28.627-9.996-39.538a376.072 376.072 0 00-1.173-6.489c-3.483-18.743-6.314-45.107-8.845-68.371l-.783-7.226a1.8 1.8 0 012.902-1.612 1.769 1.769 0 01.659 1.207l.784 7.231c2.51 23.196 5.351 49.475 8.808 68.081.352 1.821.747 4.042 1.183 6.543 1.889 10.742 4.735 26.979 9.749 38.732 7.766 17.895 20.798 31.138 32.42 32.927 6.876 1.053 13.216-1.689 18.845-8.174 18.246-21.053 22.96-51.796 14.011-91.407-7.403-33.017-18.309-68.66-26.269-94.687-1.547-5.058-2.968-9.69-4.209-13.795a1.8 1.8 0 113.446-1.053c1.236 4.095 2.63 8.727 4.209 13.78 7.976 26.079 18.908 61.801 26.337 94.949 9.218 40.786 4.209 72.602-14.805 94.561-5.487 6.379-11.922 9.663-18.751 9.663zM128.349 383.73c-9.165 0-18.13-3.421-26.237-10.074-16.31-13.342-32.704-40.98-27.884-53.017 1.152-2.879 4.025-6.2 11.159-5.674.236.017.466.081.677.188a1.784 1.784 0 01.9 1.045c.074.225.103.463.085.699a1.837 1.837 0 01-1.93 1.663c-6.014-.468-7.166 2.458-7.545 3.416-3.788 9.474 10.522 35.532 26.832 48.896 9.165 7.516 19.466 10.558 29.773 8.747 1.468-.257 1.862-.868 2.036-1.368 1.052-2.942-2.767-10.379-8.844-17.29a1.806 1.806 0 011.486-2.929c.463.019.901.216 1.223.55 5.556 6.316 11.386 15.585 9.534 20.864-.49 1.394-1.726 3.158-4.809 3.726a37.658 37.658 0 01-6.456.558z" fill="#331C19"/><path d="M84.108 537.255h-1.005c-8.15-.216-15.473-3.242-20.087-8.311C41.54 505.67 51.557 424.731 51.968 421.299c4.93-39.474 13.847-72.217 21.918-99.039a1.805 1.805 0 113.451 1.053c-8.028 26.679-16.893 59.243-21.797 98.455-3.625 28.516-6.182 87.102 10.107 104.739 3.962 4.353 10.349 6.953 17.525 7.143 10.948.373 22.134-4.658 31.52-13.932 18.477-18.48 31.53-58.16 35.086-69.881a1.803 1.803 0 013.296-.301c.227.414.283.9.156 1.354-3.625 11.926-16.926 52.312-35.997 71.391-9.791 9.684-21.524 14.974-33.125 14.974z" fill="#331C19"/><path d="M128.954 489.154a1.804 1.804 0 01-1.622-1.018 1.787 1.787 0 01-.175-.681c-.014-.236.02-.472.098-.695 7.418-21.275 7.276-42.049 7.124-64.049-.095-14.301-.2-29.085 1.92-44.212a1.807 1.807 0 012.047-1.521 1.8 1.8 0 011.52 2.047c-2.104 14.864-1.983 29.517-1.883 43.686.152 22.321.3 43.401-7.329 65.264a1.792 1.792 0 01-1.7 1.179zm25.938 37.007a1.8 1.8 0 01-1.794-1.69c-1.578-24.453-4.824-109.255-4.088-162.562a1.801 1.801 0 011.799-1.779h.027a1.807 1.807 0 011.778 1.831c-.736 53.212 2.525 137.867 4.077 162.278a1.805 1.805 0 01-1.683 1.916l-.116.006zm251.947.478h-.163a1.806 1.806 0 01-1.636-1.952c3.63-41.096 3.741-71.544 3.846-100.982.047-13.653.095-26.543.473-40.427a1.796 1.796 0 011.85-1.75 1.797 1.797 0 011.749 1.85c-.373 13.837-.421 26.711-.468 40.337-.105 29.517-.216 60.044-3.862 101.293a1.798 1.798 0 01-1.789 1.631z" fill="#331C19"/><path d="M441.179 493.481a1.814 1.814 0 01-1.636-1.053c-4.262-9.195-7.96-18.911-11.533-28.306-5.671-14.895-11.048-28.948-18.388-40.948a1.805 1.805 0 011.957-2.696c.465.112.866.404 1.116.811 7.534 12.269 12.948 26.49 18.677 41.549 3.557 9.337 7.234 18.995 11.443 28.074.099.215.155.447.165.683a1.787 1.787 0 01-.476 1.293 1.81 1.81 0 01-.567.414 1.748 1.748 0 01-.758.179zM338.386 275.559a1.804 1.804 0 01-1.794-1.674c-.063-.831-1.447-20.39-.963-25.995a1.806 1.806 0 011.949-1.64 1.803 1.803 0 011.639 1.95c-.457 5.327.953 25.227.968 25.427a1.812 1.812 0 01-1.667 1.927l-.132.005zm-96.79-.242a1.941 1.941 0 01-.305 0 1.804 1.804 0 01-1.473-2.105c1.094-6.316-.111-13.685-1.426-20.001a1.808 1.808 0 01.258-1.354 1.805 1.805 0 011.139-.775 1.803 1.803 0 011.854.75c.133.196.226.416.274.647 1.389 6.664 2.631 14.411 1.452 21.338a1.805 1.805 0 01-1.773 1.5z" fill="#331C19"/><path d="M291.809 280.033c-20.95 0-44.11-16.227-53.764-27.959-10.238-12.063-13.29-20.127-18.346-33.479l-1.162-3.064a1.801 1.801 0 113.367-1.284l1.162 3.074c4.92 12.99 7.892 20.832 17.741 32.443 9.723 11.811 33.672 28.385 54.19 26.522 21.366-1.722 39.512-26.059 46.125-38.686 6.413-12.437 7.497-23.369 9.649-45.138.358-3.647.752-7.589 1.199-11.879a1.841 1.841 0 011.979-1.579 1.803 1.803 0 011.54 1.279 1.8 1.8 0 01.064.7c-.447 4.284-.836 8.216-1.199 11.863-2.105 21.527-3.299 33.38-10.039 46.444-6.939 13.242-26.095 38.769-49.007 40.611a46.272 46.272 0 01-3.499.132z" fill="#331C19"/><path fill-rule="evenodd" clip-rule="evenodd" d="M267.055 227.384s13.448 0 23.297-.963c9.849-.721 23.054-4.564 23.054-4.564s-1.92 29.554-22.812 29.791c-19.698 0-23.539-24.264-23.539-24.264z" fill="#fff"/><path d="M290.615 253.453c-21.013 0-25.296-25.532-25.338-25.79a1.804 1.804 0 011.778-2.106c.132 0 13.479 0 23.123-.952 9.581-.7 22.597-4.463 22.728-4.5a1.806 1.806 0 011.631.324 1.809 1.809 0 01.668 1.523c-.021.332-2.262 31.243-24.59 31.501zm-21.34-24.264c1.379 5.637 6.456 20.68 21.324 20.68 15.478-.179 19.682-18.638 20.708-25.543-4.383 1.163-13.437 3.374-20.819 3.916-7.413.7-16.967.879-21.213.947zm-70.431-62.243a1.796 1.796 0 01-1.736-2.279c.084-.295 2.104-7.201 10.443-8.032a1.789 1.789 0 011.766.941c.111.208.181.437.205.672a1.813 1.813 0 01-.941 1.766 1.787 1.787 0 01-.672.205c-5.829.584-7.276 5.237-7.334 5.432a1.81 1.81 0 01-1.731 1.295zm16.331 37.248a1.776 1.776 0 01-.527-.074c-5.876-1.773-15.162-10.126-16.398-22.448a1.8 1.8 0 113.582-.357c1.105 11.052 9.57 18.068 13.858 19.353a1.798 1.798 0 01.659 3.095c-.33.282-.751.435-1.185.431h.011zm138.342-13.427a1.802 1.802 0 01-1.583-2.666 1.8 1.8 0 01.915-.807c8.087-3.237 12.985-13.448 14.253-22.133.868-5.9-.432-11.537-3.378-14.737-1.999-2.158-4.656-3.158-7.923-2.921a1.785 1.785 0 01-1.921-1.674 1.81 1.81 0 01.439-1.307 1.802 1.802 0 011.234-.614c4.315-.3 8.076 1.111 10.812 4.069 3.73 4.026 5.335 10.642 4.304 17.695-1.421 9.705-7.066 21.19-16.484 24.953a1.744 1.744 0 01-.668.142zm-128.094-31.385a56.402 56.402 0 01-11.327-1.116 1.8 1.8 0 11.721-3.531c27.653 5.621 59.977-13.064 74.051-33.607a1.784 1.784 0 011.158-.806 1.807 1.807 0 011.884.794 1.811 1.811 0 01.231 1.392 1.792 1.792 0 01-.306.652c-13.148 19.185-40.143 36.222-66.412 36.222zm61.609-18.369h-.811a1.788 1.788 0 01-1.647-1.133 1.79 1.79 0 01.018-1.377 1.805 1.805 0 011.677-1.09h.779c16.951 0 34.455-14.968 39.264-33.737a1.798 1.798 0 012.191-1.298c.463.119.859.416 1.102.828.244.411.314.902.195 1.364-5.193 20.275-24.265 36.443-42.768 36.443zm64.318 4.559a1.804 1.804 0 01-1.794-1.69c-1.263-20.474-4.851-29.138-14.206-34.338a1.803 1.803 0 01-.705-2.452 1.804 1.804 0 012.452-.706c11.974 6.658 14.884 18.232 16.057 37.264a1.807 1.807 0 01-1.689 1.911l-.115.011zm-151.785 7.205a1.803 1.803 0 01-1.742-1.348c-11.69-44.959-5.298-74.738 20.119-93.686a1.813 1.813 0 011.364-.4 1.798 1.798 0 011.23.712 1.805 1.805 0 01-.437 2.577c-24.422 18.217-30.22 45.933-18.793 89.887a1.783 1.783 0 01-.188 1.365 1.795 1.795 0 01-1.101.83 1.683 1.683 0 01-.452.063zm23.864-102.324a29.14 29.14 0 01-4.208-.29 1.804 1.804 0 11.526-3.568c9.244 1.326 19.382-2.632 30.104-6.843 15.505-6.073 31.53-12.358 45.857-2.205a1.807 1.807 0 01-2.105 2.937c-12.737-9.016-27.169-3.363-42.458 2.632-9.228 3.61-18.698 7.337-27.716 7.337zm82.538-7h-.227a1.793 1.793 0 01-1.207-.676 1.787 1.787 0 01-.371-1.335c0-.052.626-5.31-1.052-8.863a1.797 1.797 0 01-.064-1.378 1.812 1.812 0 011.612-1.188 1.801 1.801 0 011.714 1.034c2.104 4.506 1.389 10.585 1.357 10.843a1.795 1.795 0 01-1.762 1.563zm44.904 25.474a1.81 1.81 0 01-1.768-1.468c-2.631-13.827-18.772-25.59-32.025-23.306a1.795 1.795 0 01-1.345-.304 1.817 1.817 0 01-.736-1.167 1.809 1.809 0 01.815-1.83 1.8 1.8 0 01.656-.252c15.22-2.631 33.145 10.337 36.176 26.185a1.813 1.813 0 01-1.773 2.142zm10.812 64.628h-.179a1.8 1.8 0 01-1.615-1.973c2.246-22.722.252-42.454-5.614-55.55a1.801 1.801 0 113.288-1.473c6.119 13.685 8.218 34.038 5.908 57.37a1.8 1.8 0 01-1.788 1.626zm-73.01 392.606h-.205a1.809 1.809 0 01-1.578-1.995c1.115-9.763 1.252-54.286 1.362-90.06.079-25.827.148-48.128.527-52.386.578-5.905 2.967-8.911 5.992-12.716a56.596 56.596 0 008.097-12.853c4.104-8.648 5.172-17.748 6.113-25.79.558-4.769 1.089-9.274 2.21-12.922 1.468-4.41 4.946-8.152 8.013-11.453.768-.831 1.515-1.636 2.199-2.421 7.029-8.347 18.672-29.143 15-41.548a1.797 1.797 0 011.215-2.237 1.802 1.802 0 012.236 1.216c4.304 14.521-8.991 36.927-15.715 44.922-.731.832-1.505 1.663-2.294 2.516-2.82 3.037-6.019 6.479-7.224 10.105-1.015 3.295-1.499 7.437-2.062 12.238-.973 8.31-2.104 17.726-6.424 26.89a60.237 60.237 0 01-8.544 13.563c-2.862 3.606-4.735 5.985-5.224 10.827-.39 4.084-.458 26.316-.526 52.049-.116 37.732-.248 80.528-1.384 90.46a1.808 1.808 0 01-1.784 1.595z" fill="#331C19"/><path d="M290.846 383.678a1.79 1.79 0 01-1.452-.742c-.273-.369-6.666-9.195-13.153-23.375-4.335-9.142-5.44-18.558-6.413-26.869-.568-4.8-1.052-8.947-2.078-12.274-1.011-3.537-4.209-6.9-6.998-9.869-.873-.921-1.72-1.815-2.483-2.689-8.791-10.443-22.571-31.622-18.625-44.949a1.8 1.8 0 013.452 1.021c-3.515 11.885 10.175 32.396 17.888 41.58a86.59 86.59 0 002.367 2.569c3.089 3.268 6.593 6.969 7.829 11.316 1.115 3.611 1.647 8.116 2.204 12.885.942 8.031 2.01 17.132 6.103 25.763 6.314 13.843 12.727 22.685 12.795 22.775a1.8 1.8 0 01-.517 2.596 1.801 1.801 0 01-.94.267l.021-.005z" fill="#331C19"/><path d="M234.373 355.088a1.927 1.927 0 01-.958-.253c-1.199-.716-1.263-1.2-1.694-12.963-.279-7.616-.621-17.101-1.505-22.159-.699-3.974-1.462-7.274-2.204-10.463-1.005-4.316-1.947-8.39-2.378-12.98-.447-4.8.736-10.384 1.883-15.789.784-3.685 1.526-7.174 1.715-10.206.453-7.284 2.789-13.295 7.577-19.474a1.803 1.803 0 011.896-.639 1.795 1.795 0 011.091.842 1.794 1.794 0 01.176 1.367 1.789 1.789 0 01-.312.63c-4.377 5.668-6.419 10.905-6.839 17.516-.206 3.295-.974 6.906-1.784 10.732-1.094 5.137-2.22 10.442-1.82 14.695.405 4.348 1.283 8.121 2.299 12.495.715 3.095 1.531 6.595 2.241 10.669.926 5.295 1.278 14.916 1.578 22.632.116 3.158.242 6.584.39 8.748 2.82-2.032 4.961-5.643 8.886-12.511.9-1.579 1.852-3.563 2.857-5.663 4.351-9.085 10.285-21.543 20.802-16.964a1.8 1.8 0 11-1.436 3.305c-6.776-2.947-11.127 4.795-16.115 15.211-1.052 2.163-2.015 4.211-2.978 5.895-4.787 8.374-7.418 12.99-12.627 15.185a1.845 1.845 0 01-.741.142zm113.404-1.685a1.857 1.857 0 01-.831-.19c-5.109-2.147-7.739-6.758-12.527-15.132-.963-1.689-1.941-3.731-2.972-5.894-4.993-10.417-9.344-18.159-16.121-15.211a1.803 1.803 0 01-1.436-3.306c10.522-4.579 16.452 7.895 20.803 16.964 1.005 2.105 1.957 4.079 2.857 5.658 3.951 6.921 6.092 10.526 8.88 12.527.153-2.164.274-5.611.39-8.774.284-7.722.631-17.332 1.578-22.633.479-2.747.958-5.263 1.41-7.626 1.11-5.79 2.073-10.816 2.41-16.2.368-3.948-.984-8.138-2.41-12.569-1.189-3.685-2.409-7.474-2.63-11.237-.448-7.185-5.235-15.459-9.207-20.359a1.798 1.798 0 01-.442-1.344 1.816 1.816 0 01.664-1.25 1.796 1.796 0 011.36-.387 1.792 1.792 0 011.222.713c4.298 5.316 9.501 14.369 9.996 22.406.2 3.31 1.357 6.889 2.468 10.352 1.478 4.585 3.004 9.327 2.572 13.953-.347 5.559-1.326 10.674-2.457 16.601a460.867 460.867 0 00-1.405 7.569c-.883 5.052-1.225 14.531-1.509 22.142-.427 11.774-.49 12.258-1.689 12.974a1.89 1.89 0 01-.974.253z" fill="#331C19"/><path d="M255.523 525.918a1.796 1.796 0 01-1.207-.469 1.8 1.8 0 01-.582-1.157c-1.142-11.663-.732-36.017-.295-61.802.479-28.321.973-57.601-.663-70.291-.526-4.879-1.794-9.416-3.157-14.211a215.869 215.869 0 01-1.378-5.021c-.358-1.479-.721-2.9-1.079-4.321-1.809-7.153-3.682-14.548-4.498-25.548a1.816 1.816 0 01.432-1.311 1.808 1.808 0 011.231-.621 1.816 1.816 0 011.309.432 1.788 1.788 0 01.622 1.231c.794 10.69 2.541 17.606 4.398 24.933.363 1.431.721 2.863 1.078 4.331.427 1.632.89 3.279 1.347 4.921 1.331 4.737 2.71 9.632 3.262 14.769 1.657 12.916 1.163 42.333.679 70.781-.432 25.675-.842 49.928.279 61.386a1.796 1.796 0 01-.4 1.319 1.807 1.807 0 01-1.216.649h-.162zm63.655.964h-.137a1.803 1.803 0 01-1.23-.623 1.802 1.802 0 01-.433-1.309c.742-10.121 1.11-34.154 1.5-59.591.494-32.343 1.005-65.791 2.346-78.381.737-7.632 4.367-16.874 7.019-23.627 3.088-7.221 5.087-15.153 6.192-24.453a1.8 1.8 0 013.204-.902c.296.376.43.853.374 1.328-1.147 9.648-3.236 17.895-6.377 25.264-2.63 6.653-6.14 15.632-6.839 22.774-1.326 12.453-1.837 45.791-2.326 78.071-.389 25.495-.758 49.575-1.51 59.801-.04.447-.245.863-.575 1.167-.329.305-.76.476-1.208.481zm106.391-239.796a1.79 1.79 0 01-1.321-.579c-7.507-8.1-21.923-14.011-42.841-17.569l-.821-.142c-3.12-.621-6.166-1.053-9.112-1.5-7.587-1.106-14.758-2.153-22.35-5.864a1.8 1.8 0 111.579-3.237c7.092 3.464 13.989 4.469 21.291 5.537 2.989.437 6.082.89 9.255 1.522l.763.131c21.718 3.684 36.828 10 44.878 18.674a1.808 1.808 0 01.331 1.947 1.8 1.8 0 01-1.652 1.08zm-278.6 6.01a1.802 1.802 0 01-1.688-1.168 1.804 1.804 0 01.504-1.99c16.715-14.563 51.922-21.021 52.27-21.084a98.74 98.74 0 019.838-1.121c5.724-.448 10.249-.795 16.836-4.006a1.81 1.81 0 011.982.27 1.815 1.815 0 01.604 1.239 1.81 1.81 0 01-.449 1.303 1.792 1.792 0 01-.559.425c-7.192 3.511-12.258 3.906-18.13 4.358-2.893.226-5.892.458-9.47 1.084-8.849 1.543-37.117 8.569-50.507 20.248-.34.298-.78.456-1.231.442z" fill="#331C19"/><path d="M230.311 375.746a1.8 1.8 0 01-1.478-.768c-1.742-2.495-3.92-6.074-6.224-9.859-5.062-8.321-11.364-18.669-16.31-22.969-1.889-1.621-5.261-2.873-8.492-4.084-5.113-1.905-9.938-3.684-10.138-7.516-.168-3.226 2.404-6.569 5.656-10.8 2.283-2.958 4.867-6.316 6.792-10.058 1.41-2.827 3.362-6.243 5.424-9.853 4.436-7.753 9.471-16.548 12.49-25.011 2.273-6.527 7.519-13.217 17.536-22.348a1.8 1.8 0 013.011 1.415 1.802 1.802 0 01-.586 1.248c-9.543 8.7-14.499 14.948-16.562 20.885-3.157 8.779-8.476 18.105-12.758 25.6-2.042 3.569-3.967 6.937-5.346 9.695-2.104 4.053-4.771 7.548-7.144 10.632-2.578 3.348-5.014 6.511-4.914 8.421.073 1.448 4.735 3.158 7.797 4.327 3.541 1.321 7.202 2.689 9.591 4.737 5.361 4.674 11.575 14.842 17.02 23.816 2.273 3.742 4.425 7.269 6.098 9.674a1.805 1.805 0 01-.541 2.57 1.805 1.805 0 01-.933.262l.011-.016z" fill="#331C19"/><path d="M254.544 511.502a1.799 1.799 0 01-1.741-1.347c-.584-2.232-6.314-16.095-12.338-30.775-8.781-21.327-18.74-45.496-20.561-52.106l-.652-2.274c-2.925-10.19-5.693-19.811-10.933-28.774-.878-1.4-1.846-2.811-2.82-4.211a75.6 75.6 0 01-4.666-7.369c-.1-.194-.211-.384-.337-.6-.742-1.279-1.863-3.205-1.221-5.137.695-2.426 3.652-2.794 5.419-3.016.284-.031.526-.063.742-.105 6.382-.779 12.495-.037 18.414-.742 10.317-1.053 18.288-14.263 20.487-18.295a1.797 1.797 0 012.421-.678 1.797 1.797 0 01.736 2.404c-3.088 5.669-11.575 18.98-23.26 20.153-6.034.721-12.321 0-18.214.716-.126.032-.473.074-.868.127-.589.068-2.147.263-2.473.605-.084.384.695 1.716.947 2.152.169.29.321.527.426.769a72.14 72.14 0 004.43 6.979c1.005 1.458 2.005 2.916 2.936 4.405 5.498 9.395 8.455 19.69 11.312 29.643l.657 2.285c1.768 6.41 12.101 31.521 20.424 51.701 7.366 17.837 11.88 28.89 12.49 31.238a1.805 1.805 0 01-1.284 2.2 1.933 1.933 0 01-.473.052zm91.765-133.83a1.808 1.808 0 01-1.599-.988 1.81 1.81 0 01.147-1.875c2.015-2.779 4.804-7.574 7.75-12.632 5.524-9.511 11.785-20.295 16.778-24.648 2.399-2.053 6.061-3.421 9.596-4.737 3.078-1.147 7.724-2.879 7.803-4.321.1-1.9-2.336-5.064-4.914-8.422-2.373-3.079-5.067-6.579-7.14-10.616-1.383-2.773-3.309-6.142-5.345-9.705-4.288-7.495-9.617-16.843-12.758-25.59-2.526-6.942-8.103-14.38-16.573-22.106a1.789 1.789 0 01-.586-1.248 1.807 1.807 0 011.033-1.714 1.794 1.794 0 011.377-.064c.222.08.426.203.601.363 8.913 8.116 14.81 16.037 17.536 23.537 3.035 8.474 8.06 17.269 12.495 25.027 2.062 3.611 4.014 7.021 5.435 9.864 1.915 3.731 4.498 7.089 6.782 10.047 3.256 4.211 5.824 7.564 5.655 10.8-.2 3.801-5.029 5.606-10.138 7.511-3.246 1.211-6.603 2.463-8.502 4.09-4.535 3.952-10.901 14.921-16.02 23.732-2.994 5.158-5.825 10.037-7.955 12.963a1.791 1.791 0 01-1.458.732z" fill="#331C19"/><path d="M320.372 510.297a1.792 1.792 0 01-1.802-1.823c.005-.319.095-.631.26-.904 17.704-29.521 30.978-66.349 34.635-79.565l.305-1.089c3.062-10.843 5.95-21.085 11.643-30.812.952-1.531 1.952-2.984 2.957-4.447a71.03 71.03 0 004.451-7.021c.089-.179.236-.443.41-.732.253-.437 1.026-1.768.91-2.184-.294-.311-1.852-.527-2.441-.574a15.197 15.197 0 01-1.005-.147c-5.614-.658-12.006.036-18.109-.695-8.565-1.053-16.136-7.5-22.507-19.19a1.8 1.8 0 013.156-1.726c3.978 7.294 10.638 16.221 19.777 17.337 5.887.705 12.138 0 18.246.716.332.063.589.094.879.126 1.767.221 4.735.584 5.44 3.095.621 1.852-.526 3.779-1.242 5.053-.121.215-.237.405-.316.568a75.935 75.935 0 01-4.687 7.421c-.974 1.416-1.942 2.821-2.847 4.264-5.429 9.284-8.26 19.311-11.253 29.927l-.305 1.084c-3.683 13.353-17.12 50.606-35.014 80.444a1.796 1.796 0 01-1.541.874zM121.752 329.75c-4.577 0-9.728-.637-14.416-2.684-12.1-5.311-15.783-17.259-17.498-23.001l-.074-.231a1.806 1.806 0 011.197-2.251 1.799 1.799 0 012.249 1.198l.074.237c1.71 5.626 4.892 16.1 15.499 20.742 10.791 4.737 25.08.916 25.222.874a1.805 1.805 0 01.952 3.479 54.681 54.681 0 01-13.205 1.637zm317.08-11.059c-2.619.013-5.235-.2-7.818-.636a1.813 1.813 0 01-1.161-.743 1.812 1.812 0 01-.296-1.347 1.805 1.805 0 011.386-1.444c.231-.051.47-.055.703-.014 4.035.721 24.869 3.427 39.369-14.032a1.797 1.797 0 011.233-.705 1.8 1.8 0 011.814.971 1.81 1.81 0 01-.274 2.04c-11.196 13.474-25.833 15.91-34.956 15.91zm-195.694-98.318c-12.596 0-25.254-3.626-29.947-6.884-8.213-5.79-9.586-29.301-9.423-37.08a1.823 1.823 0 011.836-1.763 1.804 1.804 0 011.768 1.837c-.252 11.774 2.347 30.153 7.892 34.048 5.366 3.716 27.511 9.263 42.321 4.1 5.998-2.147 9.807-7.863 13.484-13.39 4.157-6.242 8.087-12.137 14.895-12.421 6.382-.316 10.264 4.405 14.026 8.947 2.925 3.537 5.945 7.201 10.18 8.674 12.175 4.143 38.065-2.484 44.531-8.505 3.972-3.684 6.024-22.448 3.914-35.791-.936-5.926-2.441-8.573-3.446-9.042-6.276-2.926-28.773-5.932-59.135-3.442-35.487 2.789-71.516 10-83.816 16.842a1.804 1.804 0 11-1.747-3.158c14.616-8.094 53.959-14.816 85.273-17.279 29.21-2.395 53.207.153 60.946 3.769 2.63 1.231 4.43 5.073 5.482 11.747 1.883 11.922.842 33.564-5.014 39.017-7.055 6.574-34.561 13.9-48.161 9.279-5.198-1.816-8.697-6.053-11.785-9.789-3.488-4.211-6.492-7.832-11.09-7.659-4.988.211-8.26 5.127-12.054 10.822-3.793 5.695-8.16 12.253-15.315 14.774-4.735 1.689-10.18 2.347-15.615 2.347z" fill="#331C19"/><path d="M287.227 210.926a1.809 1.809 0 01-1-.306c-5.461-3.642-7.734-7.6-6.756-11.763a17.564 17.564 0 011.416-3.511c1.799-3.684 4.035-8.31.805-17.332a1.8 1.8 0 113.388-1.215c3.746 10.447.915 16.268-.952 20.121a15.283 15.283 0 00-1.152 2.763c-.595 2.548 1.168 5.216 5.261 7.943a1.801 1.801 0 01-1 3.3h-.01z" fill="#331C19"/><path fill-rule="evenodd" clip-rule="evenodd" d="M247.12 182.451c-.242-3.842 2.163-7.205 5.046-7.447 2.878 0 5.261 2.884 5.524 6.969.237 3.842-2.162 7.205-5.045 7.447-2.884 0-5.525-3.121-5.525-6.969zm63.408-6.005c0-3.842 2.157-7.211 5.04-7.211s5.262 3.127 5.262 6.969c0 3.842-2.158 7.211-5.041 7.211-2.883 0-5.261-3.127-5.261-6.969z" fill="#331C19"/><path d="M221.398 219.573a1.793 1.793 0 01-1.678-1.158c-2.63-6.842-5.314-17.763-6.808-25.027a1.796 1.796 0 01.213-1.409 1.815 1.815 0 011.17-.816 1.798 1.798 0 011.395.288 1.802 1.802 0 01.752 1.211c1.463 7.126 4.083 17.811 6.64 24.464a1.813 1.813 0 01-.042 1.382 1.81 1.81 0 01-1.01.944c-.201.079-.415.12-.632.121zm14.916-54.78a1.798 1.798 0 01-1.683-1.169 1.805 1.805 0 01.494-1.989c8.26-7.258 17.362-9.058 28.605-5.658a1.803 1.803 0 01.3 3.297 1.8 1.8 0 01-1.352.156c-9.949-3.005-17.951-1.447-25.185 4.916a1.803 1.803 0 01-1.179.447zm66.77-9.369a1.8 1.8 0 01-.805-3.416c7.986-4 17.535-7.168 27.736-.368a1.806 1.806 0 01.77 1.847 1.79 1.79 0 01-.763 1.148 1.799 1.799 0 01-2.001.005c-6.986-4.658-13.973-4.49-24.138.589a1.75 1.75 0 01-.799.195zm100.388-57.428a1.804 1.804 0 01-1.647-1.052c-.568-1.28-1.157-2.537-1.741-3.785a86.44 86.44 0 01-3.846-9.116 1.802 1.802 0 013.42-1.137 81.031 81.031 0 003.683 8.722c.594 1.273 1.194 2.552 1.773 3.853a1.797 1.797 0 01-.136 1.713 1.804 1.804 0 01-1.511.818l.005-.016zm24.733-10.573a1.796 1.796 0 01-1.784-1.58c-.042-.347-.973-8.584-.973-15.1a1.807 1.807 0 011.802-1.707 1.803 1.803 0 011.802 1.707c0 6.317.936 14.611.947 14.69a1.805 1.805 0 01-1.578 1.995 1.457 1.457 0 01-.216-.005zm24.98 3.605a1.797 1.797 0 01-1.795-1.698 1.8 1.8 0 01.175-.881 61.749 61.749 0 018.944-12.911 1.796 1.796 0 011.937-.506 1.796 1.796 0 011.031.917 1.809 1.809 0 01-.275 1.984 59.626 59.626 0 00-8.37 12.074 1.795 1.795 0 01-1.647 1.02zm11.532 17.301a1.797 1.797 0 01-1.807-1.697 1.8 1.8 0 011.602-1.893c.216-.037 1.915-.352 12.522-2.847a1.804 1.804 0 011.874.7 1.8 1.8 0 01-1.048 2.805c-12.453 2.932-12.922 2.932-13.143 2.932z" fill="#331C19"/></g><defs><clipPath id="clip0_73_9"><path fill="#fff" d="M0 0h692v574H0z"/></clipPath><clipPath id="clip1_73_9"><path fill="#fff" transform="translate(25 30)" d="M0 0h668v599H0z"/></clipPath></defs></svg>