<svg xmlns="http://www.w3.org/2000/svg" xmlns:xlink="http://www.w3.org/1999/xlink"><symbol id="b" viewBox="0 0 15 15"><path d="M13.282 8.474c-.544-.544-.98-.98-2.067-1.088v-.109c.762-.326 1.305-.652 1.632-1.196.435-.544.543-1.088.543-1.849 0-.544-.108-1.088-.435-1.523-.326-.435-.76-.87-1.305-1.087-.543-.218-1.087-.435-1.74-.544C9.366.969 8.061.969 6.756.969H.992V15h6.743c1.088 0 2.066-.109 2.828-.217.761-.218 1.414-.435 1.957-.87.544-.327.98-.762 1.197-1.305.326-.544.435-1.088.435-1.85 0-.978-.326-1.74-.87-2.283zM5.125 3.688h1.74c.544 0 1.087.109 1.522.218.436.217.653.544.653 1.196 0 .544-.217.87-.544 1.088-.326.217-.761.326-1.305.326H5.125V3.688zm3.589 8.266a4.055 4.055 0 01-1.305.217H5.125V8.8h2.392c.544 0 .98.109 1.197.217.544.218.761.653.761 1.306.109.87-.217 1.413-.761 1.631z"/></symbol><symbol id="down" viewBox="0 0 55 55"><path d="M3.438 27.5a24.063 24.063 0 1048.125 0 24.063 24.063 0 00-48.126 0zM55 27.5a27.5 27.5 0 11-55 0 27.5 27.5 0 0155 0zM29.219 15.469a1.718 1.718 0 10-3.438 0v19.913l-7.377-7.38a1.72 1.72 0 10-2.433 2.434l10.312 10.312a1.717 1.717 0 002.434 0l10.312-10.312a1.72 1.72 0 10-2.433-2.434l-7.377 7.38V15.47z"/></symbol><symbol id="fb" viewBox="0 0 13 21"><path d="M8.015 20.8v-9.48h3.404l.486-3.654h-3.89V5.267c0-1.028.364-1.827 1.945-1.827h2.066V.127c-.364 0-1.58-.114-3.039-.114-3.039 0-5.105 1.713-5.105 4.911v2.742H.478v3.654h3.404v9.48h4.133z"/></symbol><symbol id="ok" viewBox="0 0 15 23"><path d="M7.324 11.195c3.191 0 5.85-2.529 5.85-5.563 0-3.035-2.659-5.564-5.85-5.564s-5.85 2.53-5.85 5.564c0 3.034 2.659 5.563 5.85 5.563zm0-8.345c1.596 0 2.925 1.264 2.925 2.782 0 1.517-1.33 2.781-2.925 2.781C5.73 8.413 4.4 7.15 4.4 5.632c0-1.518 1.33-2.782 2.925-2.782zm6.781 9.103c-.266-.632-1.197-1.137-2.526-.252-1.596 1.264-4.255 1.264-4.255 1.264s-2.66 0-4.255-1.264c-1.196-.886-2.127-.38-2.526.252-.532 1.138.133 1.644 1.596 2.53 1.196.758 2.925 1.01 4.121 1.137l-.93.885C4 17.77 2.803 18.907 1.873 19.793c-.532.505-.532 1.264 0 1.77l.133.126a1.33 1.33 0 001.861 0l3.457-3.287 3.457 3.287c.532.506 1.33.506 1.862 0l.132-.126c.532-.506.532-1.265 0-1.77L9.32 16.505l-.931-.885c1.063-.126 2.792-.38 4.122-1.138 1.595-.885 2.26-1.517 1.595-2.529z"/></symbol><symbol id="tw" viewBox="0 0 21 16"><path d="M20.579 2.482c-.693.327-1.501.544-2.31.544.809-.435 1.502-1.197 1.733-2.067-.809.435-1.617.762-2.541.87-.693-.761-1.732-1.196-2.887-1.196-2.194 0-4.042 1.632-4.042 3.807 0 .327 0 .544.115.87a11.222 11.222 0 01-8.2-3.916c-.346.544-.577 1.197-.577 1.85 0 1.305.693 2.502 1.733 3.155-.693 0-1.27-.218-1.848-.435 0 1.849 1.386 3.372 3.234 3.698-.347.11-.693.11-1.04.11-.23 0-.462 0-.808-.11.462 1.523 1.963 2.611 3.695 2.611-1.386.98-3.118 1.632-4.966 1.632H.947c1.732 1.088 3.81 1.74 6.12 1.74 7.391 0 11.318-5.765 11.318-10.66v-.436c1.04-.652 1.616-1.305 2.194-2.067z"/></symbol></svg>